<svg xmlns="http://www.w3.org/2000/svg" viewBox="0 0 236.013 181.502">
    <path d="M176.2 115.083c1.16-.615.947-1.615.657-2.599-.986-3.34-1.748-6.774-3.059-9.983-1.553-3.798-.68-8.14-2.914-11.725-.043-.07-.022-.18-.028-.272-.183-2.834-.447-5.666-.529-8.503-.105-3.66-.232-7.332-.048-10.984.323-6.404.874-12.796 1.339-19.192.026-.364.148-.72.207-1.083.623-3.795 1.251-7.589 1.843-11.388.049-.315-.158-.67-.231-.949h-7.768c-1.102 0-2.207.04-3.306-.014-2.563-.125-5.122-.307-7.684-.442-1.376-.073-2.757-.063-4.132-.147-5.308-.322-10.613-.723-15.924-.988-5.593-.279-11.195-.374-16.787-.665-4.944-.258-9.876-.748-14.82-.994-3.11-.155-6.233-.008-9.348-.073-7.065-.147-14.129-.345-21.193-.516-2.818-.068-5.718.335-8.203-1.791-.422.678-.894 1.101-.938 1.566-.189 1.995-.371 4.005-.329 6.005.049 2.362.392 4.716.502 7.078.305 6.597.568 13.195.82 19.794.084 2.197.132 4.397.109 6.595-.029 2.75-.03 5.51-.276 8.244-.129 1.431-.751 2.818-1.161 4.222-.237.811-.495 1.617-.842 2.747-.527.224-1.198.707-1.428 1.919-.888 4.668-1.925 9.309-2.984 13.942-.584 2.554-1.323 5.072-1.988 7.59 1.854 1.022 2.292.882 2.638-.862.286-1.438.463-2.899.787-4.327.665-2.935 1.387-5.856 2.101-8.779.472-1.934.551-3.994 1.901-5.967l3.714 13.977 3.137 2.1c.626-.101 1.425-.272 2.233-.352 2.823-.281 5.648-.72 8.474-.733 2.176-.01 4.349.571 6.532.813 2.183.243 4.384.607 6.564.534 3.568-.121 7.122-.722 10.689-.819 8.361-.228 16.73-.348 24.923 1.837a9.414 9.414 0 0 0 1.899.281c7.153.397 14.235 1.377 21.298 2.526 4.094.666 8.207.642 12.318.232.562-.056 1.087-.484 1.789-.815l-1.158-2.182c1.14-4.239 2.063-8.496 4.467-12.527.3.677.488.996.587 1.341 1.365 4.751 2.731 9.502 4.062 14.262.244.879.238 1.869 1.488 2.066z" fill="#fff"/>
    <path d="M176.2 115.083c-1.25-.198-1.244-1.187-1.49-2.066-1.33-4.761-2.696-9.511-4.062-14.262-.099-.345-.287-.664-.587-1.341-2.404 4.031-3.327 8.288-4.467 12.527l1.158 2.182c-.702.331-1.227.759-1.789.815-4.111.41-8.224.434-12.318-.232-7.063-1.148-14.145-2.129-21.298-2.526a9.414 9.414 0 0 1-1.899-.281c-8.192-2.184-16.562-2.064-24.923-1.837-3.568.097-7.121.699-10.689.819-2.18.074-4.381-.291-6.564-.534-2.183-.243-4.356-.823-6.532-.813-2.826.013-5.651.451-8.474.733-.808.081-1.607.251-2.233.352l-3.137-2.1-3.714-13.977c-1.35 1.973-1.429 4.034-1.901 5.967-.714 2.923-1.436 5.845-2.101 8.779-.324 1.428-.501 2.889-.787 4.327-.346 1.744-.784 1.884-2.638.862.665-2.518 1.404-5.037 1.988-7.59 1.059-4.633 2.096-9.274 2.984-13.942.231-1.212.902-1.695 1.428-1.919.347-1.13.605-1.936.842-2.747.41-1.404 1.032-2.791 1.161-4.222.246-2.735.247-5.494.276-8.244a135.55 135.55 0 0 0-.109-6.595c-.252-6.599-.515-13.198-.82-19.794-.109-2.362-.452-4.716-.502-7.078-.042-2 .14-4.01.329-6.005.044-.464.517-.888.938-1.566 2.485 2.125 5.385 1.723 8.203 1.791 7.064.171 14.128.368 21.193.516 3.116.065 6.239-.082 9.348.073 4.944.247 9.876.737 14.82.994 5.592.291 11.194.386 16.787.665 5.311.265 10.615.666 15.924.988 1.375.083 2.756.074 4.132.147 2.562.135 5.122.317 7.684.442 1.1.053 2.204.013 3.306.014h7.768c.073.279.28.634.231.949-.592 3.8-1.221 7.594-1.843 11.388-.06.363-.181.719-.207 1.083-.465 6.396-1.015 12.789-1.339 19.192-.184 3.652-.057 7.324.048 10.984.081 2.837.346 5.669.529 8.503.006.092-.015.203.028.272 2.234 3.584 1.362 7.927 2.914 11.725 1.312 3.209 2.074 6.643 3.059 9.983.292.984.505 1.984-.655 2.599zm-5.406-74.19c-.607-.132-.955-.264-1.306-.277-4.216-.153-8.433-.27-12.648-.436-2.657-.105-5.311-.267-7.965-.422-4.009-.234-8.016-.652-12.027-.688-6.892-.062-13.749-.358-20.614-1.074-6.1-.637-12.256-.862-18.393-.992-5.02-.107-10.048.206-15.074.304-1.276.025-2.556-.029-3.831-.097-3.663-.196-7.324-.439-10.988-.607-.589-.027-1.192.237-1.177.234-1.85 3.083-1.305 5.983-1.184 8.833.097 2.282.327 4.561.576 6.833.27 2.462.413 4.882.221 7.394-.335 4.387-.616 8.874-.057 13.207.7 5.422-.057 10.611-1.029 15.855 1.151.086 2.209.184 3.269.241 3.111.167 6.222.317 9.333.475 1.465.074 2.981-.064 4.383.273 3.071.739 6.157.945 9.291.865a44.86 44.86 0 0 1 4.133.076c.422.028.822.38 1.743.837-1.03.18-1.465.344-1.887.316-5.12-.336-10.244.156-15.388-.548-4.064-.556-8.257-.187-12.392-.182-.695.001-1.39.239-2.232.395.122 5.234 2.243 9.71 3.782 14.378 2.017 0 3.955.203 5.834-.042 3.948-.516 7.806-.614 11.725.396 2.275.586 4.71.802 7.065.76 3.2-.056 6.388-.624 9.59-.785 7.624-.384 15.235.015 22.837.603.626.048 1.224.382 1.849.515 1.695.36 3.384.797 5.1.999 5.557.653 11.176.925 16.672 1.902 4.405.783 8.668 1.068 12.887-.01 1.502-4.737 3.445-9.25 4.799-14.448-2.983 0-5.528-.063-8.069.017-2.661.084-5.316.375-7.977.449-2.57.071-5.146.048-7.715-.055-2.657-.106-5.307-.402-7.964-.534-2.568-.128-5.171.067-7.702-.287-2.547-.356-5.222.258-7.878-.749.331-.346.443-.565.552-.564 5.415.074 10.832.111 16.245.274 4.494.135 8.986.645 13.474.58 4.856-.07 9.708-.592 14.558-.967 1.423-.11 2.895-.214 3.775-1.056 0-1.394-.014-2.446.005-3.498.013-.731.126-1.463.096-2.191-.12-2.925-.441-5.851-.386-8.772.094-5.039-.34-10.087.577-15.12.471-2.589.334-5.288.506-7.934.119-1.825.052-3.711.505-5.456.777-3 .571-5.986.501-9.22z" fill="#1d1d1b"/>
    <path d="M170.794 40.893c.07 3.234.276 6.219-.503 9.223-.453 1.745-.386 3.631-.505 5.456-.173 2.647-.035 5.345-.506 7.934-.916 5.032-.483 10.081-.577 15.12-.054 2.92.266 5.847.386 8.772.03.728-.083 1.46-.096 2.191-.018 1.052-.005 2.104-.005 3.498-.88.842-2.352.946-3.775 1.056-4.85.376-9.701.897-14.558.967-4.487.065-8.98-.445-13.474-.58-5.413-.163-10.829-.2-16.245-.274-.109-.001-.221.217-.552.564 2.656 1.007 5.332.393 7.878.749 2.531.353 5.134.159 7.702.287 2.657.133 5.306.428 7.964.534 2.569.103 5.146.127 7.715.055 2.661-.074 5.316-.365 7.977-.449 2.541-.081 5.086-.017 8.069-.017-1.354 5.197-3.298 9.71-4.799 14.448-4.218 1.078-8.481.793-12.887.01-5.496-.977-11.115-1.249-16.672-1.902-1.716-.202-3.405-.639-5.1-.999-.625-.133-1.224-.466-1.849-.515-7.601-.588-15.213-.987-22.837-.603-3.202.161-6.39.728-9.59.785-2.356.041-4.791-.174-7.065-.76-3.919-1.01-7.777-.912-11.725-.396-1.879.245-3.817.042-5.834.042-1.539-4.668-3.66-9.145-3.782-14.378.842-.156 1.537-.394 2.232-.395 4.135-.005 8.328-.374 12.392.182 5.144.704 10.268.212 15.388.548.422.028.856-.136 1.887-.316-.921-.457-1.321-.809-1.743-.837a44.854 44.854 0 0 0-4.133-.076c-3.134.08-6.219-.126-9.291-.865-1.402-.337-2.918-.199-4.383-.273-3.111-.158-6.223-.308-9.333-.475-1.06-.057-2.118-.155-3.269-.241.972-5.244 1.729-10.433 1.029-15.855-.559-4.334-.278-8.821.057-13.207.192-2.512.048-4.932-.221-7.394-.249-2.272-.479-4.551-.576-6.833-.121-2.851-.666-5.75 1.184-8.833-.015.003.588-.261 1.177-.234 3.664.168 7.325.411 10.988.607 1.275.068 2.555.122 3.831.097 5.025-.098 10.054-.411 15.074-.304 6.137.131 12.292.355 18.393.992 6.865.717 13.723 1.013 20.614 1.074 4.011.036 8.018.455 12.027.688 2.654.155 5.309.317 7.965.422 4.215.166 8.432.283 12.648.436.353.01.701.142 1.308.274zM102.07 94.495c-2.167-1.145-3.731-1.109-5.606 0h5.606z" fill="#fff"/>
    <path d="M102.07 94.495h-5.606c1.875-1.109 3.439-1.144 5.606 0z" fill="#1d1d1b"/>
</svg>
