<svg xmlns="http://www.w3.org/2000/svg" viewBox="0 0 236.013 181.502">
    <path d="M63.558 37.216c.173 3.901.615 7.825.46 11.726-.245 6.169.048 12.316.16 18.473.026 1.424-.099 2.853-.199 4.276-.137 1.954-.323 3.905-.478 5.858-.12 1.506-.048 3.054-.382 4.51-.41 1.788-.57 3.496-.109 5.291.194.755.336 1.704.049 2.37a72.108 72.108 0 0 1-3.2 6.456c-.952 1.715-2.191 3.273-3.114 5.001-.706 1.324-1.165 2.789-1.643 4.222-.326.978-.496 2.007-.793 3.253.481.559.335 1.861 1.585 2.347l.778-1.611 1.935.213c.115 4.12.115 4.12 1.498 4.43.485-1.541-.06-3.475 1.579-4.584 1.36 0 2.7-.036 4.037.007 4.273.134 8.459 1.09 12.796.906 5.26-.223 10.549.337 15.822.258 8.856-.134 17.677.133 26.517.785 7.934.585 15.92.547 23.884.629 8.953.092 17.909-.015 26.863.024 2.035.009 4.069.265 5.942.397 2.108 4.954 2.108 4.954 4.024 4.883l-.63-4.303c1.903-.932 4.345.646 5.594-1.323-2.572-7.009-7.134-12.722-9.531-19.953 0-3.642.112-7.752-.032-11.853-.135-3.832-.661-7.65-.803-11.482-.274-7.405-.4-14.815-.578-22.223-.011-.445.062-.891.099-1.337l.535-6.49c-6.23-1.251-12.265-2.465-18.3-3.675-5.439-1.09-10.878-1.905-16.484-1.69-3.727.143-7.48-.422-11.222-.664a805.08 805.08 0 0 0-6.941-.429c-4.192-.235-8.453-.056-12.561-.768-7.263-1.258-14.589-.25-21.862-1.201l-1.611-1.279c-1.99 2.494-5.667 1.29-7.491 3.526l-19.263 2.467c-.356 2.422 1.535 1.898 3.07 2.557z" fill="#fff"/>
    <path d="M63.558 37.216c-1.535-.659-3.425-.135-3.067-2.557l19.263-2.467c1.824-2.236 5.502-1.032 7.491-3.526l1.611 1.279c7.273.951 14.599-.056 21.862 1.201 4.108.711 8.37.533 12.561.768 2.314.13 4.628.279 6.941.429 3.742.242 7.495.807 11.222.664 5.606-.215 11.045.6 16.484 1.69 6.036 1.21 12.071 2.424 18.3 3.675l-.535 6.49c-.037.445-.109.892-.099 1.337.178 7.408.304 14.819.578 22.223.142 3.832.668 7.65.803 11.482.144 4.101.032 8.211.032 11.853 2.398 7.231 6.959 12.944 9.531 19.953-1.249 1.968-3.691.391-5.594 1.323l.63 4.303c-1.916.07-1.916.07-4.024-4.883-1.873-.131-3.907-.388-5.942-.397-8.954-.039-17.909.068-26.863-.024-7.964-.082-15.95-.044-23.884-.629a298.949 298.949 0 0 0-26.517-.785c-5.272.08-10.561-.48-15.822-.258-4.338.184-8.524-.771-12.796-.906-1.337-.042-2.677-.007-4.037-.007-1.64 1.109-1.095 3.043-1.579 4.584-1.383-.309-1.383-.309-1.498-4.43l-1.935-.213-.778 1.611c-1.25-.486-1.104-1.788-1.585-2.347.297-1.246.467-2.275.793-3.253.478-1.433.936-2.898 1.643-4.222.923-1.728 2.163-3.286 3.114-5.001 1.165-2.1 2.252-4.253 3.2-6.456.287-.666.145-1.614-.049-2.37-.461-1.795-.301-3.503.109-5.291.334-1.456.262-3.004.382-4.51.155-1.953.34-3.904.478-5.858.1-1.423.225-2.852.199-4.276-.112-6.157-.405-12.304-.16-18.473.152-3.901-.29-7.825-.463-11.726zm2.273-.971c-.105 1.336-.223 2.214-.235 3.093-.076 5.452-.143 10.904-.18 16.356-.01 1.427.099 2.855.151 4.282.163 4.461.344 8.917-.233 13.372-.262 2.027-.273 4.087-.408 6.132-.081 1.23.04 2.528-.321 3.673-.649 2.056-.32 3.836.664 5.426 2.219.337 4.232.762 6.266.929 6.681.548 13.364 1.081 20.056 1.471 6.161.36 12.334.509 18.5.791 2.585.118 5.165.339 7.747.514l-.035.53c-3.378-.185-6.755-.418-10.135-.546-6.08-.231-12.164-.342-18.242-.612-6.25-.278-12.492-.709-18.74-1.027-1.763-.09-3.535-.014-4.867-.014-2.474 3.814-4.746 7.131-6.809 10.574-1.113 1.857-2.407 3.725-2.475 6.081 1.443 0 2.767-.084 4.077.016 3.74.286 7.468.789 11.212.948 6.885.293 13.776.444 20.667.573 6.356.119 12.719-.01 19.07.225 8.04.298 16.066 1.006 24.107 1.256 7.156.222 14.324.006 21.486.085 8.413.092 16.824.304 25.236.432.735.011 1.474-.218 2.226-.338-.066-.591-.015-.899-.136-1.107-2.076-3.548-4.088-7.138-6.298-10.602-1.378-2.16-3.359-3.634-6.041-3.979-2.122-.274-4.219-.8-6.347-.967-5.884-.463-11.78-.782-17.669-1.188-2.178-.15-4.35-.382-6.525-.576 10.931-.898 21.762.102 32.708 1.241.872-6.086.703-11.871.466-17.648-.205-5-.681-9.991-.81-14.991-.152-5.9-.051-11.807-.084-17.71-.004-.677-.166-1.354-.291-2.305-2.715-.235-5.273-.539-7.839-.661-5.628-.268-11.268-.337-16.889-.695-3.828-.244-7.637-.807-11.446-1.295-2.48-.318-4.933-.895-7.419-1.112-5.521-.482-11.056-.812-16.586-1.198-1.157-.081-2.328-.281-3.47-.18-3.585.317-7.121.217-10.657-.534-1.292-.274-2.669-.228-4.004-.2-3.932.082-7.867.157-11.794.367-5.782.303-11.558.725-17.654 1.118zm22.815-3.233c5.075-.181 10.11 0 15.158.54 3.718.398 7.482.391 11.226.533 6.785.258 13.534.831 20.257 1.848 4.412.667 8.874 1.027 13.323 1.417 3.468.304 6.95.485 10.429.639 1.716.076 3.441-.031 5.162-.056-2.682-1.019-5.364-1.657-8.065-2.198-1.481-.297-2.99-.551-4.496-.617-3.369-.148-6.744-.168-10.116-.236-1.682-.034-3.384.09-5.044-.116-5.137-.638-10.248-1.532-15.46-1.114-.443.036-.894-.01-1.34-.038-6.409-.405-12.819-.812-19.227-1.228-.444-.029-.881-.164-1.324-.196-3.526-.254-7.041-.348-10.483.822z" fill="#1d1d1b"/>
    <path d="M65.831 36.245c6.096-.394 11.872-.815 17.654-1.123 3.927-.209 7.861-.284 11.794-.367 1.335-.028 2.712-.074 4.004.2 3.536.751 7.073.851 10.657.534 1.143-.101 2.314.099 3.47.18 5.53.386 11.064.717 16.586 1.198 2.486.217 4.939.794 7.419 1.112 3.809.488 7.619 1.05 11.446 1.295 5.622.359 11.261.427 16.889.695 2.566.122 5.124.426 7.839.661.125.952.287 1.628.291 2.305.033 5.904-.068 11.81.084 17.71.129 5.001.605 9.991.81 14.991.237 5.778.406 11.563-.466 17.648-10.946-1.139-21.777-2.139-32.708-1.241 2.175.195 4.347.426 6.525.576 5.889.406 11.785.725 17.669 1.188 2.128.167 4.224.694 6.347.967 2.682.346 4.664 1.819 6.041 3.979 2.209 3.464 4.221 7.054 6.298 10.602.121.207.07.515.136 1.107-.752.12-1.491.35-2.226.338-8.412-.128-16.823-.339-25.236-.432-7.162-.079-14.33.138-21.486-.085-8.041-.25-16.067-.958-24.107-1.256-6.35-.236-12.714-.106-19.07-.225-6.89-.129-13.782-.281-20.667-.573-3.744-.159-7.472-.662-11.212-.948-1.31-.1-2.634-.016-4.077-.016.068-2.356 1.362-4.224 2.475-6.081 2.063-3.443 4.336-6.76 6.809-10.574 1.332 0 3.104-.076 4.867.014 6.248.317 12.491.748 18.74 1.027 6.078.271 12.162.381 18.242.612 3.381.129 6.757.361 10.135.546l.035-.53c-2.582-.174-5.162-.396-7.747-.514-6.166-.282-12.339-.432-18.5-.791-6.691-.391-13.375-.923-20.056-1.471-2.034-.167-4.047-.592-6.266-.929-.983-1.59-1.312-3.37-.664-5.426.361-1.144.24-2.443.321-3.673.135-2.044.145-4.104.408-6.132.577-4.455.396-8.911.233-13.372-.052-1.428-.161-2.855-.151-4.282.037-5.452.103-10.904.18-16.356.012-.874.13-1.752.235-3.088zm22.815-3.233c3.442-1.17 6.957-1.076 10.482-.821.444.032.881.167 1.324.196 6.409.416 12.818.822 19.227 1.228.446.028.897.073 1.34.038 5.212-.418 10.323.476 15.46 1.114 1.661.206 3.362.082 5.044.116 3.372.068 6.747.088 10.116.236 1.506.066 3.014.319 4.496.617 2.701.542 5.383 1.179 8.065 2.198-1.721.024-3.445.132-5.162.056-3.479-.154-6.96-.335-10.429-.639-4.449-.39-8.911-.749-13.323-1.417-6.723-1.017-13.471-1.59-20.257-1.848-3.744-.142-7.507-.135-11.226-.533a106.109 106.109 0 0 0-15.157-.541z" fill="#fff"/>
</svg>
