<svg xmlns="http://www.w3.org/2000/svg" viewBox="0 0 236 181.5">
    <path fill="#1d1d1b" d="M88.6 100.4c0-.5.3 4.3.7 2.8-.6-.8-1.1-.9-1.9-1-1.6-.2-3.3-.5-4.9-.6-.6 0-1.3.1-1.9.2-1.7.3-3.4.4-5.3.2-1.3-.1-2.6 0-3.9.2-1 .1-2.1.3-3.1.1-1.3-.2-2.6-.1-3.9 0-2.4.2-4.9.3-7.3.4-.1 0-.3-.1-.4-.1-3.7-1-7.4-.7-11.1-.2-2.7.3-5.4-.1-8.3-.4-2.3.5-4.9.3-7.4-.3-2.3-.5-4.6-.4-6.9-.5h-5.1c-.6 0-1.1-.1-2.1-.3.7-.3 1-.5 1.3-.5 3.6.1 7.1.3 10.7.5 1.3.1 2.6.4 3.9.5 1.7.1 3.4 0 5.1 0h2c1.4.1 2.7.2 4.1.3 1.7.1 3.4.1 5.1-.3 2-.4 4-.4 6-.2 4.1.4 8.3.2 12.4-.5.9-.2 1.6-.2 2.4-.2 1.7 0 3.4.1 5.1-.3.3-.1.4-.1.7-.1 3.3.6 6.7 0 10 .1.7 0 1.4.2 2.1.2.6.1 1.1 0 1.9 0m55.7-.1c0-.5-.3 4.7-.9 3 .6-.9 1.2-1 1.9-1.1 1.6-.2 3.4-.5 5.2-.7.7 0 1.3.1 2.1.2 1.9.3 3.9.4 5.8.2 1.3-.1 2.8 0 4.2.2 1.2.1 2.4.3 3.4.1 1.3-.2 2.8-.1 4.2 0 2.5.2 5.2.3 7.9.4.3 0 .4-.1.6-.1 4-1.1 8-.8 12-.2 3 .3 5.9-.1 9-.4 2.5.5 5.2.3 8-.3 2.4-.5 4.9-.4 7.4-.5h5.5c.4 0 1-.1 2.2-.3-.7-.3-1-.5-1.3-.5-3.9.1-7.7.3-11.6.5-1.3.1-2.8.4-4.2.5-1.8.1-3.7 0-5.5 0h-2.1c-1.5.1-3 .2-4.4.3-1.8.1-3.7.1-5.5-.3-2.1-.4-4.3-.4-6.4-.2-4.6.4-9 .2-13.5-.5-.9-.2-1.8-.2-2.7-.2-1.8 0-3.7.1-5.5-.3-.1-.1-.4-.1-.7-.1-3.6.7-7.3 0-10.8.1-.7 0-1.6.2-2.4.2-.5.1-1.1 0-1.9 0"/>
    <path fill="#fff" d="M164 85.4c-.6.1-1 .5-1.3 1 .3.8.7 1.6 1.1 2.3.6-.6 1-1.3 1.5-2 .1-.6-.3-1.2-.9-1.3h-.4z"/>
    <path fill="#1d1d1b" d="M153.6 67.3c3.5.2 6.7.4 10 .6 1.1-.1 2 .6 2.1 1.7.6 2.5 1.3 8.1 2.9 10.1.4.5.7 1 1 1.6.5.8.2 1.4-.7 1.8-2.2-2-5.1-1.5-7.8-1.6-3.5-.2-7-.2-10.8-.2-.8.7-.6 1.9-.5 3 .1 1 0 2 .1 2.9 0 .2-.1.3 0 .5.6 5.9-.5 11.7-.3 17.6.1 1.6.4 3.2.5 4.9.2 2.7.3 5.4.2 8.1-.2 1.9-.7 3.7-1.5 5.4-1.3 2.8-2.7 5.7-4.2 8.5-.1.3-.3.5-.5 1-2.6-1.3-5.3-1-8-.8h-.5c-1.9-1.2-3.8-.3-5.8-.2-6.2.4-12.4 1-18.6 1.2-4.2.1-8.4-.4-12.6-.6-2.7-.1-5.4-.4-8.1-.4-1 .2-1.9.5-2.7 1-1.9-.7-2.2-.9-1.7-2.7.7-3.7 1.1-7.5.9-11.2 0-2.8-.3-5.8-.6-8.6-.1-.6-.2-1.3-.2-1.9.1-3.8.3-7.7.2-11.5s-.6-7.5-.9-11.5c-2.3-.1-4.4-.7-6.6-.1-1.3.4-2.3 0-2.6-.9-.2-1.1.5-2.3 1.6-2.7 1-.4 2.1-.7 3.2-1 .8-.3 1.6-.7 2.4-1 .4-.3.8-.5 1.2-.9-3.3-.4-6-.8-8.8-1.1-.3-.1-.6 0-.9.1-1.5.8-2.8.2-3.8-.8-1 .2-2.1.3-3.1.2-1.4-.2-1.6-1.2-.5-2.2 1-1 3.5-4.1 4.9-4.5 3.4-1.2 6.7-2.7 10-4.1 1.1-.5 2.2-.9 3.3-1.3 1.1-.4 1.9-.7 2.8.4.5.4 1.2.5 1.8.5 1.3 0 2.5.1 3.8.3 3 .7 4.9-1.8 7.6-2.6.6-.2 1.2-.5 1.6-1 .9-1.4 2-1.3 3.5-1.4 3.8-.1 7.4 1 11.2.3 1-.2 2.2.2 3.3.3 2.4.1 4.8.1 7.1.2 4.1.2 8.1.4 12.2.6 2.5.2 5.1.5 7.6.6 1.3-.1 2.7-.2 4-.5.4-.1.8-.2 1.1-.2.5 0 1 .2 1.4.6.1.5-.1 1-.5 1.4-1.1.3-1 1.1-.7 2.1zm-9.7 60.9c.6-.6 1.1-1.2 1.6-1.9 1.9-2.9 2.9-6.3 2.9-9.7 0-3.5.8-7.1-.2-10.5v-.7c.1-2.9.2-5.8.2-8.7.2-2.5.1-4.8.1-7.3-.3-3-.2-6.1.1-9H146c-.2 1.2-.9 2.6-.5 3.6.6 1.6-.1 2.5-1.2 3.7-.4-1.5-1.4-1.6-2.6-1.6-1.9 0-3.8-.1-5.8-.3-5.1-.4-10.2-.9-15.3-1.1-4.5-.2-9.1-.1-13.7 0-4.7.1-9.4.5-14.1.7-1.8.1-3.6 0-5.8 0 0 2.1.1 4 .2 5.9.1 2.1.7 4.2.4 6.3-.7 6.4.6 12.6.3 18.9.1.6.2 1.3.4 1.9.1.5.2 1.1.3 1.6-.2 2.7-.3 5.5-.5 8.2-.1 1.9.2 2.4 2.1 2.6 1.8.1 3.5.2 5.3.3 5.3.2 10.5.5 15.8.5 3.3 0 6.7-.4 10-.7l15.5-1.2 4.7-.4c.3-.9.5-1.8.7-2.7.1-2.6.1-5.2.1-7.8 0-4 .1-8 .1-12-.1-4.3.9-8.5.2-12.9 0-.9 0-1.8.3-2.7h.6c.2.4.3.9.4 1.4.1 1.8.1 3.5.2 5.4 0 .7.1 1.4 0 2.1-.1 1.5-.3 2.9-.4 4.4-.2 3.3-.5 6.6-.4 9.9.1 4.6.4 8.9.6 13.8zm-.1-48.9c-.4-.1-.8-.2-1.2-.2-6.9-.1-13.9-.4-20.8-.3-10.1.1-20.2.4-30.4.8-1.8.1-3.5.4-5.1 1-1.8.8-3.5 1.8-5.3 2.7 1 .3 2 .5 3 .6 5.2.1 10.4.2 15.5.1 5.7-.1 11.3-.7 17-.6s11.3.4 17 .9c3.3.3 6.6.5 9.9.8 1.3-2 1.1-3.8.4-5.8zm-44.3-1.6c7.6-.1 15.1-.4 22.5-.4 7.5-.1 14.9.3 22.3 1.2 1.8-1.8 4.9-6.5 5.5-9.4-.8-.2-1.6-.4-2.4-.4h-4.1c-8.4 0-16.7 0-25.1-.1-4.1 0-8.3-.3-12.4-.5-2-.2-4.1.1-6 .6l-.3 9zm1-11.6c16.5 1 32.9 1.6 49.4 1.1l1.4-2.6h-4.9c-10.8-.4-21.7-.9-32.5-1.4-1.7-.1-3.5-.3-5.2-.4-.7 0-1.4 0-2.1.1-2.4.5-4.1 2-6.1 3.2zm-3.2 2.2c-2.7-.5-5.1-1-7.5-1.5-.6-.1-1.3-.1-1.9 0-5 1.2-11.2 5.4-15.6 8.1-.2.2-.4.5-.5.8 1.8.5 3.5 1.2 5.1 1.5 1.6.5 3.3.6 5 .4 1.3-.2 2.7-.3 4-.4 1.4-.1 2.8-.5 4-1.2 1.9-1.5 5-5.7 7.4-7.7zm69.2 11.2c-.4-1.2-.8-2.3-1.4-3.3-.7-1.5-1.4-6-3-6.3-2.5-.6-5-.8-7.5-.6-1.4 0-3.1 4.2-4.1 5.2-.8 1-1.5 2-2.3 3 1.5 1.1 3.2 1.8 4.8 2.1 4.4 1 8.9-.3 13.5-.1zm-68-10.7c3-.8-9.8 11.3-7.6 8.8l7-.4c.8-1.5 1.3-6.9.6-8.4z"/>
    <path fill="#1d1d1b" d="M163.9 88.7c-.5-.7-.9-1.5-1.1-2.3.2-.5.7-.9 1.3-1s1.2.4 1.3 1v.4c-.5.7-1 1.4-1.5 1.9z"/>
    <path fill="#fff" d="M143.9 128.2c-.2-4.9-.5-9.2-.5-13.5 0-3.3.3-6.6.4-9.9 0-1.5.3-2.9.4-4.4 0-.7-.1-1.4 0-2.1-.1-1.8-.1-3.5-.2-5.4-.1-.5-.2-.9-.4-1.4h-.6c-.2.9-.3 1.8-.3 2.7.7 4.3-.3 8.5-.2 12.9.1 4 0 8-.1 12-.1 2.6 0 5.2-.1 7.8-.1.9-.3 1.8-.7 2.7l-4.7.4-15.5 1.2c-3.3.2-6.7.7-10 .7-5.3 0-10.5-.3-15.8-.5-1.8-.1-3.5-.1-5.3-.3-1.9-.2-2.3-.6-2.1-2.6.2-2.7.3-5.5.5-8.2 0-.5-.1-1.1-.3-1.6-.2-.6-.3-1.2-.4-1.9.3-6.3-1-12.6-.3-18.9.3-2.1-.3-4.2-.4-6.3-.1-2-.2-3.8-.2-5.9 2.2 0 4 .1 5.8 0 4.7-.2 9.4-.6 14.1-.7 4.5-.1 9.1-.2 13.7 0 5.1.2 10.2.7 15.3 1.1 1.9.1 3.8.2 5.8.3 1.1 0 2.2.1 2.6 1.6 1.1-1.3 1.8-2.1 1.2-3.7-.4-1 .3-2.4.5-3.6h2.6c-.4 3-.4 6.1-.1 9 .1 2.5.1 4.8-.1 7.3-.1 2.9-.2 5.8-.2 8.7v.7c1 3.4.2 7 .2 10.5 0 3.4-1 6.8-2.9 9.7-.6.5-1.1 1-1.7 1.6z"/>
    <path fill="#fff" d="M143.8 79.3c.7 2.1.9 3.9-.5 5.8-3.3-.3-6.6-.5-9.9-.8-5.6-.5-11.3-.8-17-.9s-11.3.4-17 .6c-5.2.1-10.4 0-15.5-.1-1-.1-2-.3-3-.6 1.6-1.1 3.5-2 5.3-2.7 1.6-.6 3.4-.9 5.1-1 10.1-.3 20.2-.6 30.4-.8 6.9-.1 13.9.2 20.8.3.5 0 .9.1 1.3.2zm-43.3-13.2c1.9-1.2 3.7-2.7 6-3 .7-.1 1.4-.2 2.1-.1 1.7.1 3.5.3 5.2.4 10.8.5 21.7.9 32.5 1.4 1.6.1 3.1 0 4.9 0l-1.4 2.6c-16.4.3-32.8-.3-49.3-1.3zm-3.2 2.2c-2.4 2-5.4 6.2-7.5 7.8-1.2.7-2.6 1.1-4 1.2-1.3.1-2.7.2-4 .4-1.7.2-3.4.1-5-.4-1.7-.3-3.3-1-5.1-1.5.1-.3.3-.6.5-.8 4.6-2.6 10.6-6.9 15.6-8.1.6-.1 1.3-.1 1.9 0 2.5.4 4.9.9 7.6 1.4zm69.2 11.2c-4.6-.1-9 1.1-13.4 0-1.8-.3-3.5-1.1-4.8-2.1.8-1.1 2-5.7 2.8-6.6.9-1.1 2.1-1.7 3.5-1.7 2.5-.1 5.1.1 7.5.6 1.6.3 2.3 4.9 3 6.3.4 1.3.9 2.4 1.4 3.5z"/>
</svg>
