<svg xmlns="http://www.w3.org/2000/svg" viewBox="0 0 236 181.5">
    <path fill="#fff" d="M129.6 64l-.1.5 3.2.6c-7.6-.2-15.2.4-22.8-.9 5.6-.3 11.3 1 16.9-.2-.5-.4-1.1-.5-1.7-.5-3.5.3-7 .1-10.4-.3-6.7-.6-13.5-.5-20.4-.7-4.5-.1-9.1.1-13.6-1-.9-.3-2 .2-2.5 1-.8.7-.8 1.8-.2 2.6.5.7.8 1.6.7 2.5 0 .9.2 1.7.2 2.6.2 2.1.3 4.3.3 6.4-.3 6.8-.6 13.7-.3 20.5.4 5.9-.1 11.8-1.7 17.5 2.5.8 4.6 2.8 5.4 5.3 1.2-.1 2.6.3 3.5-.3 1.3-.7 2.8-.9 4.2-.7 3.3.4 6.6.6 10 .4 6.1-.1 12.2 0 18.4.2 3.9.1 7.8.4 11.6.5 4 .2 8.1.3 12.1.4 1.4 0 2.8.3 4.3.3 1.8 0 3.6-.2 5.3.6 1.3.6 1.9 0 1.8-1.6v-.6l1.9-.5c-.4-1.4-.6-2.9-.7-4.3 0-3.5.3-7 .3-10.5.1-4.5.2-9 .1-13.6 0-4-.4-8.1-.3-12.1.1-4.3-.1-8.7.9-13.1.3-1.5-1.2-2.5-2.8-2.3-2.3.5-4.7.8-7.1 1.1-2.6.1-5.2-.1-7.9-.1-2.5.2-5.6.3-8.6.3z"/>
    <path fill="#1d1d1b" d="M129.6 64c3.1-.1 6.1-.1 9.2-.1 2.6 0 5.2.2 7.9.1 2.4-.2 4.7-.5 7.1-1.1 1.6-.3 3.1.7 2.8 2.3-.9 4.3-.8 8.7-.9 13.1-.1 4 .3 8.1.3 12.1 0 4.5 0 9.1-.1 13.6 0 3.5-.3 7-.3 10.5.1 1.5.3 2.9.7 4.3l-1.9.5v.6c.2 1.6-.4 2.2-1.8 1.6-1.7-.8-3.5-.6-5.3-.6-1.4 0-2.8-.3-4.3-.3-4-.2-8.1-.3-12.1-.4-3.9-.2-7.8-.5-11.6-.5-6.1-.2-12.2-.3-18.4-.2-3.4.2-6.7 0-10-.4-1.4-.2-2.9-.1-4.2.7-1 .4-2.3.2-3.5.3-.8-2.6-2.8-4.6-5.4-5.3 1.5-5.7 2.1-11.6 1.7-17.5-.3-6.9 0-13.7.3-20.5 0-2.1-.1-4.3-.3-6.4 0-.9-.2-1.7-.2-2.6.1-.9-.2-1.7-.7-2.5-.6-.8-.6-2 .2-2.6.5-.8 1.5-1.3 2.5-1 4.5 1.1 9.1 1 13.6 1 6.8.2 13.5.1 20.4.7 3.4.4 6.9.6 10.4.3.6 0 1.2.1 1.7.5-5.6 1.3-11.3 0-16.9.2 7.6 1.2 15.2.8 22.8.9l-3.2-.6-.5-.7zm-45.8 1.9c1.8.3 2.1.7 2.1 2.4s-.3 3.6-.3 5.5c-.1 2.7 0 5.4 0 8.1 0 2-.1 4-.1 6 0 2.5.3 5.1.3 7.6-.1 2.3-.1 4.6 0 6.9.6 4.4.8 8.9.7 13.4 0 .5.1 1 .4 1.5 3.1.1 6 .4 8.9.5 3.4 0 6.9-.1 10.3-.1 6.6.1 13.2.2 19.8.4 2 0 4 .2 5.9.3 3 .2 6 .2 9 .5 3.9.3 7.9.5 12.1-.3.3-2.2.7-4.4.9-6.8.1-1.6.1-3.3.3-5 .2-4.1.5-8.2.6-12.4.1-2.7-.2-5.4-.2-8.1 0-2 .4-4 .1-5.9-.5-3.7-.5-7.5-.1-11.2.2-2.5-.7-3.4-3.1-3.3-7.7.5-15.3 1.2-23 .7-3.9-.2-7.8-.2-11.7-.3-4.1-.1-8.1-.2-12.2-.2-5.3 0-10.7 0-16 .1-.6-.2-1.2-.3-1.8-.7l1.4-1.6-6-.5c-1.5 2.5-1.4 5.1-1.1 7.5.1 2.7.2 5.4 0 8.1-.2 4.6-.2 9.2-.2 13.9 0 3.7.4 7.5.2 11.2-.1 3.3-.7 6.5.2 9.9.4 1.6 1.4 2.8 2.9 3.7.5-1.7.7-3.6.7-5.4l-.3-6.9c-.1-4-.2-8-.3-11.9-.1-3.5 0-7-.1-10.5-.1-3.7-.1-7.5-.2-11.2-.2-2.1-.2-4-.1-5.9zm8.3-2v.5c5.2.6 10.4.2 15.6-.1v-.5l-15.6.1zm46.2 1.5l-1.5-.2v.3l1.5-.1z"/>
    <path fill="#fff" d="M83.8 65.9c.1 1.9.1 3.8.1 5.7.1 3.7.1 7.5.2 11.2.1 3.5 0 7 .1 10.5.1 4 .2 8 .3 11.9l.3 6.9c0 1.8-.2 3.7-.7 5.4-1.4-.7-2.4-2.1-2.9-3.7-.9-3.4-.3-6.6-.2-9.9.1-3.7-.2-7.5-.2-11.2 0-4.6 0-9.2.2-13.9.2-2.7.1-5.4 0-8.1-.2-2.4-.3-4.9 1.1-7.5l6 .5-1.4 1.6c.6.4 1.2.5 1.8.7 5.3 0 10.7 0 16-.1 4.1 0 8.1.1 12.2.2 3.9.1 7.8.1 11.7.3 7.6.4 15.3-.3 23-.7 2.4-.1 3.2.7 3.1 3.3-.4 3.7-.3 7.5.1 11.2.3 2-.1 4-.1 5.9 0 2.7.3 5.4.2 8.1-.1 4.1-.4 8.2-.6 12.4-.1 1.7 0 3.4-.3 5-.2 2.2-.6 4.5-.9 6.8-4.3.8-8.2.6-12.1.3-3-.2-6-.3-9-.5-2-.1-4-.3-5.9-.3-6.6-.2-13.2-.3-19.8-.4-3.4 0-6.9.1-10.3.1-2.9-.1-5.8-.2-8.9-.5-.2-.5-.3-1-.4-1.5.2-4.4 0-8.9-.7-13.4-.1-2.3-.1-4.6 0-6.9 0-2.5-.3-5.1-.3-7.6 0-2 .1-4 .1-6 .1-2.7-.1-5.4 0-8.1 0-1.8.3-3.6.3-5.5.1-1.8-.3-1.8-2.1-2.2.1-.6.3-1.4-.9-1.7-.3.9-.6 1.8.9 1.7z"/>
    <path fill="#fff" d="M92.1 63.9h15.6v.5c-5.2.3-10.5.6-15.6.1v-.6zm46.2 1.4l-1.6.1v-.3l1.6.2z"/>
    <path fill="#1d1d1b" d="M83.8 65.9c-1.5.1-1.2-.7-1-1.7 1.2.3.9 1 1 1.7z"/>
</svg>
