<svg xmlns="http://www.w3.org/2000/svg" viewBox="0 0 236.013 181.502">
    <path d="M171.484 116.381c-.373-.905-.608-1.459-.831-2.017-.695-1.737-1.737-3.424-2.003-5.225-.491-3.327-1.932-6.311-2.945-9.435-1.031-3.183-2.152-6.254-1.278-9.651.065-.251.043-.539.001-.8-.499-3.109-.238-6.173-.029-9.314.361-5.42 1.239-10.859.563-16.331-.095-.773.151-1.587.234-2.382.452-4.335.909-8.669 1.349-13.005.135-1.334-.06-2.782.403-3.982.572-1.485.432-2.749-.2-4.433-1.318-.049-2.719-.135-4.119-.14-.887-.003-1.777.191-2.662.167-3.038-.082-6.079-.378-9.111-.304-5.902.145-11.797.577-17.699.727-10.118.257-19.775.728-29.891.974-5.434.132-10.902-.28-16.325-.768-4.799-.431-9.553-1.339-14.335-1.975-2.773-.369-5.393.475-7.933.887-.004 1.654-.089 2.962.006 4.257.256 3.475-.094 5.316.039 8.798.141 3.666-.009 7.352.318 10.998.205 2.287.242 4.41-.67 6.559-.319.751-.182 1.714-.172 2.58.007.619.244 1.241.217 1.854-.279 6.174.089 12.414-1.88 18.418-.418 1.274-.636 2.626-1.154 3.854-2.156 5.117-3.197 10.545-4.531 15.891-.023.091.21.246.324.37 1.904-.931 2.808-2.23 2.622-4.414-.098-1.154.121-2.084.623-3.064.321-.626.446-1.351.678-2.025 1.044-3.024 2.095-6.046 3.348-9.658.739 5.006-.096 9.32-.393 13.632-.157 2.274.093 4.429.495 6.678l2.57 1.459c.949-.253 1.826-.433 2.665-.721 1.515-.52 3.022-.52 4.43.196 1.964.999 3.984.892 6.027.517a17.508 17.508 0 0 1 7.189.152c1.379.316 2.84.467 4.253.41 3.479-.141 6.949-.463 10.425-.68 4.108-.257 8.24-.298 12.321-.773 3.673-.428 7.293-.656 10.946.005 2.126.385 4.233.346 6.398.027 1.834-.27 3.749-.035 5.626.037 1.34.052 2.675.281 4.014.295 2.4.025 4.802-.124 7.2-.067 2.676.064 5.352.233 8.022.441 1.77.138 3.549.328 5.285.684.998.205 1.9.539 2.762-.256 1.086-2.284.358-4.548-.114-6.799-.64-3.058-1.216-6.113-.808-9.881.825 2.591 1.523 4.583 2.092 6.612.795 2.834 1.444 5.709 2.261 8.536.261.902.857 1.706 1.323 2.6l2.054-.515z" fill="#fff"/>
    <path d="M171.484 116.381l-2.057.514c-.466-.893-1.062-1.698-1.323-2.6-.817-2.827-1.467-5.702-2.261-8.536-.569-2.029-1.266-4.021-2.092-6.612-.408 3.769.168 6.824.808 9.881.471 2.251 1.199 4.515.113 6.799-.861.796-1.763.461-2.761.257-1.736-.356-3.514-.546-5.285-.684-2.669-.208-5.345-.377-8.022-.441-2.398-.057-4.801.092-7.2.067-1.339-.014-2.674-.243-4.014-.295-1.877-.072-3.791-.307-5.626-.037-2.165.319-4.272.358-6.398-.027-3.653-.661-7.272-.433-10.946-.005-4.082.475-8.213.516-12.321.773-3.476.217-6.947.539-10.425.68a16.322 16.322 0 0 1-4.253-.41 17.508 17.508 0 0 0-7.189-.152c-2.042.375-4.063.483-6.027-.517-1.408-.716-2.915-.717-4.43-.196-.839.288-1.715.468-2.665.721l-2.57-1.459c-.402-2.249-.652-4.404-.495-6.678.297-4.313 1.132-8.626.393-13.632-1.253 3.612-2.304 6.634-3.348 9.658-.233.674-.357 1.399-.678 2.025-.502.98-.721 1.91-.623 3.064.186 2.184-.719 3.483-2.622 4.414-.114-.125-.346-.28-.324-.371 1.335-5.346 2.376-10.774 4.531-15.891.518-1.229.736-2.58 1.154-3.854 1.969-6.004 1.601-12.244 1.88-18.418.028-.613-.21-1.235-.217-1.854-.01-.866-.147-1.829.172-2.58.913-2.149.876-4.272.67-6.559-.327-3.646-.177-7.332-.318-10.998-.134-3.482.217-5.323-.039-8.798-.095-1.295-.01-2.603-.006-4.257 2.539-.412 5.159-1.255 7.933-.887 4.782.635 9.537 1.543 14.335 1.975 5.424.488 10.891.9 16.325.768 10.116-.246 19.772-.717 29.891-.974 5.902-.15 11.797-.582 17.699-.727 3.033-.075 6.073.222 9.111.304.885.024 1.775-.17 2.662-.167 1.401.005 2.801.091 4.119.14.632 1.684.773 2.948.2 4.433-.463 1.2-.268 2.648-.403 3.982-.44 4.336-.897 8.67-1.349 13.005-.083.796-.329 1.61-.234 2.382.676 5.473-.202 10.911-.563 16.331-.209 3.141-.47 6.205.029 9.314.042.261.064.549-.001.8-.873 3.397.247 6.468 1.278 9.651 1.012 3.124 2.454 6.109 2.945 9.435.266 1.801 1.308 3.488 2.003 5.225.226.559.461 1.113.834 2.018zM66.985 41.956c-.025.928-.154 1.82-.055 2.686.623 5.421.278 9.297-.341 14.752-.088.777.154 1.589.23 2.386.281 2.932.773 5.866-.571 8.709-.295.623-.408 1.393-.393 2.091.091 4.289.212 8.578.397 12.864.04.932.383 1.851.626 2.955l25.875 2.58c-.341.524-.72.725-1.085.702-5.528-.345-11.051-.783-16.582-1.058-2.645-.132-5.305.033-7.961.063-.122.436-.241.681-.252.93-.148 3.295-.291 6.589-.415 9.885-.08 2.141.122 4.327-.255 6.412-.408 2.258-.121 4.219 1.096 6.226.346-.085.697-.116.999-.254 2.459-1.124 4.914-1.424 7.524-.391.86.34 1.929.242 2.896.203 3.301-.135 6.597-.547 9.883.253.762.186 1.606.122 2.404.064 2.761-.198 5.516-.504 8.28-.66 5.089-.286 10.182-.49 15.273-.742.624-.031 1.243-.213 1.864-.218 2.846-.024 5.693-.058 8.538.008 1.778.041 3.552.358 5.329.361 2.581.004 5.162-.242 7.743-.236 2.679.006 5.361.32 8.036.252 2.858-.073 5.676-.117 8.529.321 2.617.401 5.3.371 8.244.549.244-5.521-1.567-10.703-1.415-16.03.024-.83-.405-1.674-.696-2.78-1.975-.117-3.821-.294-5.669-.323-8.05-.127-16.101-.184-24.151-.328-2.588-.047-5.171-.364-7.759-.421-6.798-.149-13.597-.213-20.395-.342-.502-.009-1-.259-1.5-.396l.081-.66c.852-.01 1.705-.014 2.557-.03 5.103-.099 10.206-.235 15.309-.286a140.59 140.59 0 0 1 8.59.15c4.013.204 8.018.725 12.03.774 6.355.077 12.713-.116 19.07-.214 2.514-.039 3.362-.796 3.532-3.334.095-1.423-.071-2.862-.081-4.294a61.152 61.152 0 0 1 .061-3.734c.28-5.164.613-10.326.87-15.491.102-2.052-.144-4.138.122-6.163.754-5.746 1.584-11.477 1.228-17.417-.29-.071-.622-.212-.96-.225-5.243-.201-10.471-1.361-15.739-.266-.428.089-.893-.009-1.34-.001-8.85.162-17.706.191-26.55.528-9.381.358-18.199 1.396-27.586.295-1.924-.226-3.912.101-5.838-.114-3.365-.376-6.695-1.058-10.058-1.456-3.175-.379-6.394-.739-9.569.865z" fill="#1d1d1b"/>
    <path d="M66.985 41.956c3.174-1.605 6.394-1.244 9.571-.869 3.363.397 6.693 1.08 10.058 1.456 1.926.215 3.914-.111 5.838.114 9.387 1.101 18.205.064 27.586-.295 8.844-.338 17.699-.366 26.55-.528.447-.008.912.09 1.34.001 5.268-1.095 10.496.065 15.739.266.338.013.67.154.96.225.356 5.94-.475 11.671-1.228 17.417-.265 2.024-.02 4.11-.122 6.163-.258 5.165-.59 10.327-.87 15.491a60.358 60.358 0 0 0-.061 3.734c.011 1.432.177 2.871.081 4.294-.17 2.538-1.018 3.295-3.532 3.334-6.357.098-12.715.291-19.07.214-4.012-.049-8.017-.57-12.03-.774a142.214 142.214 0 0 0-8.59-.15c-5.103.051-10.206.188-15.309.286-.852.016-1.705.02-2.557.03l-.081.66c.5.138.998.387 1.5.396 6.798.128 13.597.193 20.395.342 2.588.057 5.171.374 7.759.421 8.05.145 16.101.201 24.151.328 1.848.029 3.694.206 5.669.323.29 1.106.719 1.949.696 2.78-.152 5.327 1.659 10.508 1.415 16.03-2.944-.178-5.627-.148-8.244-.549-2.853-.437-5.671-.393-8.529-.321-2.675.068-5.357-.246-8.036-.252-2.581-.006-5.162.24-7.743.236-1.776-.003-3.55-.32-5.329-.361-2.845-.065-5.692-.032-8.538-.008-.622.005-1.241.187-1.864.218-5.091.252-10.184.456-15.273.742-2.763.155-5.518.461-8.28.66-.798.057-1.641.121-2.404-.064-3.286-.8-6.582-.388-9.883-.253-.968.039-2.037.138-2.896-.203-2.61-1.033-5.065-.733-7.524.391-.302.138-.652.169-.999.254-1.217-2.007-1.504-3.967-1.096-6.226.376-2.084.174-4.271.255-6.412.124-3.296.267-6.59.415-9.885.011-.249.13-.493.252-.93 2.656-.03 5.316-.195 7.961-.063 5.531.275 11.054.713 16.582 1.058.365.023.744-.178 1.085-.702l-25.875-2.58c-.243-1.103-.585-2.022-.626-2.955a580.922 580.922 0 0 1-.397-12.864c-.015-.698.099-1.468.393-2.091 1.345-2.843.853-5.777.571-8.709-.077-.797-.319-1.61-.23-2.386.619-5.455.964-9.33.341-14.752-.101-.862.028-1.754.053-2.682z" fill="#fff"/>
</svg>
