<svg xmlns="http://www.w3.org/2000/svg" viewBox="0 0 236 181.5">
    <path fill="#fff" d="M161.1 75.5c-.3-1.7-.3-1.7-2.3-.8l2.3.8.6 2.7c.4-.1.7-.2 1-.4.4-.4.6-1 .7-1.5-.3-.4-.7-.7-1.2-.9-.3-.1-.7-.1-1.1.1zM92 56.5c-.5 2.4-1 4.5-1.4 6.6-.6 2.5-.9 5-1.1 7.5.1 2-.3 4-1 5.8-.5 1.1-.8 2.3-.8 3.5-.3 4.9-1.7 9.6-2.8 14.3-1.4 5.9-3.4 11.6-5.2 17.4-.7 2.4-.1 3.4 2.4 3.6 1.2 0 2.4.1 3.6.2 3.5.6 6.9 1.4 10.3 2.1 5.4 1.2 10.8 1 16.2 1 1.9 0 4-.3 5.7 1.2.5.4 1.1.6 1.8.6 2 .3 4 .9 5.9 1.6 5.6 1.7 11.4 3.2 17.1 4.7 1.4.5 2.9.6 4.2.1-.1-.9-.3-1.8-.6-2.6-.6-1.5-.8-3.2-.4-4.9.6-3.6 1-7.2 1.2-10.9.2-2.7.3-5.4 1.4-7.9 1.8-4.2 3-8.7 3.5-13.3.2-1.5.6-3 1.1-4.4.4-1.4.8-2.7 1.3-4.1.9-2.9 1.3-5.9 3.1-8.7-.7-.7-1.5-1.2-2.4-1.6-2.9-.7-5.8-1.1-8.7-1.6-2-.3-4.2-.2-6.2-.7-3.3-.7-6.6-1.8-9.9-2.6-1.6-.4-3.3-.7-4.9-.9-5.6-.4-11.1-1.4-16.4-3.2-2.5-.7-5.1-1.3-7.7-1.7-2-.4-4.1-.8-6.1-1.2-1.2-.3-2.4-.6-3.2.1zm-12.1 46.8c-.5-1.9-.7-2-2.3-2.1-.4 1.9 1.4 1.5 2.3 2.1zm26.8-52.6c-.8-1-1.4-.7-2.2 0l1.1 1.4 1.1-1.4zm27.9 79.7c-.3-.6-.5-1.1-.9-1.6-.3 0-.5.1-.7.3 0 .7.3 1.2 1.6 1.3zM104 55c-.3-.2-.6-.4-1-.6-.2 0-.4.1-.6.3.1.2.3.5.5.6.3-.1.7-.2 1.1-.3z"/>
    <path fill="#1d1d1b" d="M92 56.5c.8-.6 1.9-.4 3.1-.1 2 .4 4.1.8 6.1 1.2 2.6.4 5.2 1 7.7 1.7 5.3 1.8 10.8 2.8 16.4 3.2 1.7.1 3.3.4 4.9.9 3.3.8 6.6 1.9 9.9 2.6 2 .4 4.1.4 6.2.7 2.9.4 5.8.9 8.7 1.6.9.4 1.7 1 2.5 1.7-1.8 2.8-2.2 5.9-3.1 8.7-.4 1.4-.9 2.7-1.3 4.1-.5 1.4-.8 2.9-1.1 4.4-.5 4.6-1.7 9.1-3.6 13.3-1.1 2.5-1.2 5.2-1.4 7.9-.2 3.6-.6 7.3-1.2 10.9-.4 1.6-.2 3.3.4 4.9.3.9.5 1.8.6 2.6-1.4.5-2.9.4-4.2-.1-5.7-1.5-11.4-2.9-17.1-4.7-1.9-.7-3.9-1.3-5.9-1.6-.6 0-1.3-.3-1.8-.6-1.7-1.5-3.8-1.2-5.7-1.2-5.4.1-10.8.2-16.2-1-3.4-.8-6.9-1.5-10.3-2.1-1.2-.1-2.4-.2-3.6-.2-2.5-.2-3.1-1.2-2.4-3.6 1.8-5.8 3.8-11.5 5.2-17.4 1.1-4.7 2.5-9.4 2.8-14.3.1-1.2.4-2.4.8-3.5.7-1.8 1.1-3.8 1-5.8.2-2.5.5-5.1 1.1-7.5.6-2.3 1-4.3 1.5-6.7zm52 68.6c.1-1.1.1-1.8.2-2.5.1-1.9.1-3.8.3-5.7.4-3 1.1-6 1.2-9 .1-4.1.9-8.1 2.6-11.8.6-1.5 1.1-3.2 1.3-4.8.4-2.3.6-4.7 1-7.1.1-.5.3-.9.5-1.3 1.2-3.7 2.3-7.4 3.5-11.2.1-.4.1-.9.2-1.4-2.5-.6-4.8-1.1-7.2-1.7-.8-.2-1.6-.2-2.4-.4-2.2-.8-4.5-1-6.8-.7-.6.1-1.3 0-1.9-.3-2.8-1.3-5.8-2.1-8.9-2.5-1.5-.2-2.9-.8-4.4-.8-4.2-.1-8.4-.9-12.4-2.2-3.9-1.2-7.7-2.7-11.9-2.3-.4 0-.8 0-1.2-.2-1.4-.5-2.9-.4-4.3.2-.5 1.7-.9 3.5-1.5 5.2-.7 2.5-.9 5-.7 7.6 0 1.3-.2 2.5-.6 3.7-.3 1.3-1.1 2.5-1.1 3.9-.3 5.4-2 10.5-3.3 15.7-1.3 5.5-3.1 11-4.8 16.5 1.8 1.1 3.8 1.2 5.7 1.6 3.6.7 7.1 1.7 10.7 2.5.3.1.6.1 1 .1 3.8.1 7.7.1 11.5.2 1.4 0 2.9.2 4.3.5 6.8 1.8 13.5 3.8 20.3 5.7 2.8.8 5.7 1.6 9.1 2.5zm17.1-49.6c.4-.1.7-.2 1.1-.1.5.1.9.4 1.2.9-.1.6-.3 1.1-.7 1.5-.3.2-.6.4-1 .4l-.6-2.7zm-81.2 27.8c-.9-.5-2.7-.1-2.3-2.1 1.6 0 1.8.2 2.3 2.1zm26.8-52.6l-1.2 1.4-1.1-1.4c.9-.7 1.5-1 2.3 0zm54.5 24.7l-2.3-.7c2-.9 2-.9 2.3.7zm-26.6 55c-1.3 0-1.6-.5-1.6-1.3.2-.2.4-.3.7-.3.4.5.7 1 .9 1.6zM104 55c-.4.2-.7.3-1.1.3-.2-.2-.4-.4-.5-.6l.6-.3c.3.1.7.3 1 .6z"/>
    <path fill="#fff" d="M144 125.1c-3.4-.9-6.3-1.7-9.2-2.5-6.8-1.9-13.5-3.8-20.3-5.7-1.4-.3-2.8-.5-4.3-.5-3.8-.1-7.6-.1-11.5-.2-.3 0-.6 0-1-.1-3.6-.8-7.1-1.8-10.7-2.5-1.9-.4-3.9-.6-5.7-1.6 1.6-5.5 3.5-11 4.8-16.5 1.2-5.2 2.9-10.3 3.2-15.7.1-1.3.8-2.5 1.1-3.9.3-1.2.5-2.5.6-3.7-.2-2.5.1-5.1.7-7.6.5-1.7 1-3.5 1.5-5.2 1.4-.6 2.9-.6 4.3-.2.4.1.8.2 1.2.2 4.2-.4 8 1.1 11.9 2.3 4 1.4 8.2 2.1 12.4 2.2 1.5 0 2.9.7 4.4.8 3.1.4 6.1 1.3 8.9 2.5.6.3 1.2.4 1.9.3 2.3-.3 4.6 0 6.8.7.8.2 1.6.2 2.4.4 2.4.5 4.7 1.1 7.2 1.7 0 .5-.1.9-.2 1.4-1.2 3.7-2.3 7.4-3.5 11.2-.2.4-.4.9-.5 1.3-.4 2.4-.6 4.7-1 7.1-.2 1.6-.7 3.3-1.3 4.8-1.6 3.7-2.5 7.7-2.6 11.8-.1 3-.9 6-1.2 9-.2 1.9-.2 3.8-.3 5.7.1.7.1 1.4 0 2.5z"/>
</svg>
