<svg xmlns="http://www.w3.org/2000/svg" viewBox="0 0 236.013 181.502">
    <path d="M167.971 127.039c2.06 2.15 4.08 4.341 6.194 6.437a106.316 106.316 0 0 0 5.492 5.056c.635.547 1.508.818 2.406 1.285 1.738 2.899 1.742 4.141-.129 5.983-5.594-1.619-11.388-1.499-17.171-1.491-3.671.005-7.344.102-11.013.01-2.499-.062-4.992-.384-7.488-.582-1.867-.148-3.733-.329-5.603-.417-8.399-.395-16.816-.561-25.194-1.218-4.814-.378-9.601-.881-14.443-.88-2.669.001-5.333-.581-8.008-.691-3.469-.142-6.95-.173-10.42-.067-2.489.076-4.979.387-7.451.721-1.848.25-3.657.928-5.504 1.026-5.331.284-10.672.379-16.01.531-2.155.061-4.213.33-6.185 1.386-1.237.662-2.709.675-4.21.017.16-.982.291-1.829.438-2.674.36-2.066 1.387-2.48 3.139-1.26.288.2.539.453.962.813.552-.651 1.027-1.274 1.566-1.834.863-.897 1.669-1.897 2.675-2.601 2.915-2.039 5.898-3.984 8.893-5.906 2.028-1.302 4.125-2.498 6.181-3.757.366-.224.682-.529.976-1.024-7.932-.025-17.881-5.244-25.608-5.332-1.006.81-1.801 1.668-2.783 2.136-.4.191-1.203-.463-1.631-.649-.144-.484-.278-.68-.233-.819 1.245-3.871-.882-7.559-.63-11.345.299-4.488-.388-1.912-1.365-6.259a124.045 124.045 0 0 0-2.62-9.781c-1.135-3.64-1.628-7.48-2.397-11.233-.089-.436-.044-.944-.256-1.303-2.549-4.321-2.216-9.528-4.322-13.984-.255-.54-.289-1.183-.324-1.337l2.441-4.852c.331-.031.546-.121.676-.052 3.314 1.745 6.943 2.186 10.578 2.694 1.488.208 2.938.763 4.373 1.256 4.132 1.419 8.246 2.893 12.372 4.33.503.175 1.039.256 1.741.424.702-4.255 1.451-8.451 2.056-12.668.2-1.39.029-2.833.029-4.251 0-.332-.02-.668.017-.997.423-3.713.958-7.418 1.234-11.142.113-1.528-.331-3.097-.561-4.962-.003.002.367-.476.689-.445 2.277.216 4.544.535 6.814.825.266.034.528.139.791.139 6.345-.016 12.581 1.689 18.979 1.099 2.104-.194 4.266.22 6.4.383 4.901.375 9.795.952 14.702 1.115 10.823.36 21.653.529 32.48.747 5.377.108 10.713-.403 16.053-1.02 2.744-.317 5.542-.144 8.314-.244 3.125-.113 6.247-.295 9.371-.424.964-.04 1.93-.006 3.25-.006-.13.81-.07 1.537-.364 2.069-.993 1.799-1.265 3.69-1.145 5.704.17 2.844.271 5.692.391 8.538.026.626.142 1.289-.015 1.873-.716 2.671-.392 5.309.006 7.979.354 2.376.522 4.78.793 7.371 1.584-.727 3.094-1.454 4.632-2.115 1.295-.556 2.628-1.025 3.937-1.55.663-.266 1.384-.467 1.952-.874 3.243-2.325 6.964-3.443 10.754-4.428.675-.175 1.307-.58 1.908-.96 1.412-.896 2.966-.539 4.431-.421 1.205.097 1.722 1.433.921 2.485-1.726 2.265-1.857 4.957-2.387 7.56a42.278 42.278 0 0 1-.885 3.634c-1.039 3.496-2.023 7.013-3.218 10.455-1.111 3.201-2.41 6.341-3.734 9.463-.836 1.971-1.632 3.899-2.07 6.042-.532 2.6-1.74 5.053-2.488 7.618-1.296 4.446-1.231 1.381-1.914 5.961-.355 2.381-.084 3.059 1.319 6.019-.221.36-.495.798-.76 1.241-.273.456-.538.916-.922 1.572-.561-.134-1.207-.134-1.666-.426-2.144-1.363-4.34-1.729-6.866-1.133-2.673.63-5.418 1.17-8.153-.047-.765-.34-8.273 2.75-9.12 2.547-.095.125 4.034 2.791 3.94 2.917zM73.835 72.324c-1.639-.552-3.255-1.277-5.048-.673 1.63.746 3.362.667 5.091.619 1.889.445 3.845.708 5.65 1.379 2.242.834 4.555.553 6.795.639 4.003.153 8.025-.297 12.042-.393 9.478-.227 18.958-.393 28.438-.585 2.146-.044 4.297-.014 6.436-.159 3.211-.217 6.41-.641 9.623-.816 1.947-.107 3.912-.159 5.815.676.74.324 1.748.162 2.608.041.595-.084 1.132-.521 1.723-.718.47-.157.981-.191 1.473-.28a3.844 3.844 0 0 0-2.082-.753c-3.025-.193-6.052-.408-9.081-.492-6.08-.168-12.162-.247-18.243-.379-4.274-.093-8.548-.238-12.823-.308a45.505 45.505 0 0 0-4.521.176c-1.511.126-3.007.427-4.517.553-4.525.375-9.129-.014-13.543 1.436-.328.108-.71.066-1.067.065-4.923-.007-9.846-.018-14.769-.028zm84.929 2.698c-1.557-1.08-2.792-.396-3.931.813l3.969-.861c-.511.334-.981.835-1.541.975-3.036.764-3.519 3.14-3.876 5.727-.619 4.484-1.135 9.001-2.116 13.41-.626 2.811-.729 5.627-1.134 8.422-.41 2.829.798 4.804 2.134 6.898.285.447.702.807 1.041 1.222 1.861 2.281 3.717 4.567 5.573 6.852.365.45.723.905 1.409 1.766.451-2.009 1.115-3.563 1.075-5.1-.073-2.773.667-5.286 1.61-7.808 1.094-2.925 2.428-5.803 3.117-8.825.751-3.294 1.992-6.257 3.844-9.035a7.584 7.584 0 0 0 1.072-2.421c.871-3.732 1.664-7.483 2.467-11.232.142-.662.195-1.343.341-2.381-2.933.182-5.57.263-8.188.534-2.301.239-4.579.689-6.866 1.044zm-98.336-6.141c3.071.245 5.813.45 8.552.688 1.148.1 2.293.255 3.435.412 1.669.23 3.33.639 5.003.693a85.08 85.08 0 0 0 8.049-.125c4.715-.295 9.422-.724 14.132-1.103.266-.021.526-.127.792-.142 4.274-.239 8.547-.547 12.824-.667 1.953-.055 3.915.368 5.875.39 5.19.057 10.387-.131 15.571.05 5.443.19 10.908-.415 16.334.516 2.017.346 4.078.453 6.123.621 3.643.3 7.298.482 10.932.868 2.888.307 5.598-.239 8.649-.998-.305-2.884-.268-5.615-.951-8.151-.738-2.742.583-5.319.141-7.676l-1.327-1.248c1.066-4.538.788-8.725.859-12.913-.578-.172-.915-.365-1.247-.356-5.535.153-11.072.257-16.602.529-4.01.197-8.012.92-12.012.882-8.124-.076-16.252.316-24.377-.435-4.798-.443-9.645-.429-14.471-.458-4.665-.028-9.251-.756-13.874-1.168-5.331-.475-10.71-.53-16.068-.529-3.298.001-6.513-.665-9.79-.816-1.312-.06-2.403-.113-3.538.725-1.002 9.277-2.013 18.587-3.004 27.899-.075.695-.01 1.405-.01 2.512zm87.558 37.167c.226-1.636.426-3.125.639-4.613.705-4.931 1.413-9.861 2.131-14.79.038-.26.206-.498.266-.758.862-3.699 1.211-7.429.827-11.367-2.489-.176-4.794-.502-7.096-.473-8.581.109-17.161.339-25.742.512-2.326.047-4.654-.001-6.978.087-7.313.276-14.625.587-21.936.904-2.136.092-4.229.369-5.989 2.006.227 4.061.349 8.143 1.396 12.16 1.168 4.479 2.814 8.861 2.919 13.581.017.747.443 1.484.733 2.39 3.168 0 6.202-.055 9.233.01 8.754.189 17.506.437 26.259.642 4.824.113 9.648.213 14.473.263 2.843.029 5.717.431 8.865-.554zm-97.743 34.995c4.075 0 8.069-.037 12.062.012 2.957.036 5.904.084 8.781-.755 5.919-1.724 12.008-1.596 18.071-1.557 5.606.036 11.129 1.165 16.807.903 4.772-.22 9.596.782 14.403 1.155 4.193.325 8.393.692 12.593.745 5.458.069 10.909.029 16.343.693 5.614.686 11.23.521 16.865.079 2.467-.194 4.982.176 7.473.337 2.126.137 4.263.482 6.371-.625-1.241-2.081-2.63-3.86-4.457-5.382-2.115-1.762-4.04-3.764-5.956-5.749-1.98-2.051-3.794-4.274-6.406-5.395l-2.475.578-.57-1.589c-.966-.059-1.751-.102-2.536-.154-2.133-.143-4.267-.397-6.4-.398-1.413-.001-2.823.498-4.24.534-7.867.202-15.738.299-23.605.497-5.186.13-10.367.452-15.553.525-2.578.036-5.16-.398-7.743-.435-5.013-.072-10.029-.013-15.043-.01-3.575.002-7.151 0-10.633 0l-1.951 2.063c-1.577.207-3.035.628-4.329 1.344-4.143 2.292-8.379 4.483-11.735 7.925-.774.793-1.485 1.422-2.61 1.702-1.598.396-2.824 1.397-3.527 2.957zm18.913-17.259c-.278-1.02-.609-1.861-.728-2.732a72.169 72.169 0 0 0-3.371-14.021 29.388 29.388 0 0 1-.967-3.334c-2.111-9.578-3.151-19.319-4.341-29.035-.138-1.126-.465-1.745-1.544-2.456-2.514-1.656-5.317-1.967-8.096-2.535-1.85-.378-3.702-.742-5.828-1.166l1.108-.822c-3.912-2.815-8.568-2.642-12.441-3.358l-4.734 2.649c.108.71.182 1.397.322 2.071.397 1.913.794 3.827 1.247 5.727.206.861.555 1.687.821 2.535.613 1.952 1.388 3.873 1.781 5.869.601 3.056.985 6.132 2.039 9.109 1.067 3.013 1.789 6.151 2.604 9.25.52 1.98 1.009 3.974 1.376 5.986.431 2.362.358-1.955.287.441-.102 3.43.6 6.701 1.387 10.129 9.095.731 19.945 5.957 29.078 5.693zm106.339-49.395c-.483 1.575-1.07 3.176-1.456 4.824a152.08 152.08 0 0 0-1.732 8.393c-.334 1.902-1.143 3.466-2.292 5.024-.968 1.312-1.454 3.003-2.036 4.569-.429 1.157-.589 2.412-1.008 3.574-1.06 2.939-2.273 5.824-3.268 8.783-.419 1.245-.474 2.62-.641 3.942-.267 2.117-.488 4.24-.733 6.36-.088.764-.187 1.527-.28 2.283 3.908 1.46 9.71-2.747 13.501-1.801.756.188 1.597.114 2.391.055 2.911-.219 5.819-.483 9.128-.764.645-2.781 1.386-5.782 2.025-8.803.351-1.66-.606 4.041-.101 2.421 1.087-3.49 2.27-6.951 3.382-10.433.786-2.46 1.38-4.991 2.307-7.394 1.861-4.824 4.172-9.478 5.117-14.631.239-1.302.778-2.565 1.301-3.794 1.485-3.485 2.186-7.165 2.789-10.869.109-.668.015-1.37.015-2.027-1.164-.063-2.321-.478-3.008-.081-1.082.625-2.172.647-3.283.905-1.635.379-3.357.79-4.772 1.639-4.462 2.676-9.377 4.326-14.051 6.512-.963.449-1.976.791-3.295 1.313zm-16.66 47.16c-1.412-3.999-4.637-6.581-7.055-9.758-2.238-2.941-5.294-3.801-8.685-3.902-4.73-.14-9.465-.118-14.197-.188-9.126-.135-18.252-.291-27.379-.424-2.236-.033-4.495.177-6.703-.076a12.9 12.9 0 0 0-4.575.296l-1.803 4.582-4.04 1.787c-1.6 1.318-3.069 2.882-4.434 4.533-1.357 1.64-2.609 3.366-3.97 5.135 6.539-.076 12.788-.155 19.038-.215a68.306 68.306 0 0 1 4.023.073c2.941.144 5.884.517 8.819.453 6.065-.132 12.124-.575 18.189-.727 6.607-.165 13.22-.141 19.83-.211a24.02 24.02 0 0 0 2.142-.144c1.665-.168 3.329-.352 4.992-.539 1.926-.219 3.849-.447 5.808-.675zm-87.066 2.841c1.641-1.728 2.934-2.75 3.782-4.06 1.391-2.146 3.339-3.7 5.095-5.465 1.192-1.198 2.35-2.43 3.544-3.625 2.449-2.451 2.93-5.34 2.203-8.647-.764-3.479-1.24-7.02-1.958-10.51-.951-4.62-1.763-9.286-3.827-13.602-.222-.465-.131-1.08-.185-1.626l.444-.183 1.423 1.458c.238-.25.327-.304.356-.38.091-.239.159-.486.295-.914-2.455-1.9-5.311-2.474-8.432-2.49l2.06 1.748c-.476.09-.645.161-.803.142-.17-.02-.384-.078-.488-.198-1.39-1.607-3.121-2.268-5.246-2.112-.574.042-1.181-.346-1.771-.538l-5.931-1.936c-1.242 2.304-1.014 4.505-.332 6.829.443 1.51.418 3.162.562 4.754.112 1.241.085 2.499.258 3.73.209 1.482.589 2.94.852 4.416.716 4.029 1.251 8.098 2.158 12.083.787 3.46 2.055 6.808 2.974 10.243.575 2.15.827 4.385 1.362 6.548.308 1.254.89 2.441 1.605 4.335zm84.313-52.673c1.597 1.265 3.392 1.415 6.543.445l-6.543-.445z" fill="#1d1d1b"/>
    <path d="M56.743 53.147l-.552-.793.341-.221.511.82-.3.194z" fill="#1d1d1b"/>
    <path d="M60.428 68.881c0-1.107-.064-1.817.01-2.512.991-9.312 2.002-18.621 3.004-27.899 1.135-.837 2.227-.785 3.538-.725 3.276.151 6.492.817 9.79.816 5.358-.001 10.738.054 16.068.529 4.622.412 9.209 1.14 13.874 1.168 4.826.029 9.674.015 14.471.458 8.125.751 16.254.359 24.377.435 4.001.037 8.002-.686 12.012-.882 5.529-.271 11.067-.376 16.602-.529.331-.009.668.184 1.247.356-.071 4.188.207 8.375-.859 12.913l1.327 1.248c.441 2.357-.88 4.933-.141 7.676.683 2.537.646 5.267.951 8.151-3.051.759-5.761 1.305-8.649.998-3.634-.386-7.289-.568-10.932-.868-2.045-.168-4.106-.275-6.123-.621-5.426-.931-10.891-.327-16.334-.516-5.185-.181-10.381.008-15.571-.05-1.96-.022-3.922-.445-5.875-.39-4.278.121-8.55.428-12.824.667-.266.015-.526.121-.792.142-4.71.379-9.416.808-14.132 1.103a85.08 85.08 0 0 1-8.049.125c-1.673-.054-3.334-.463-5.003-.693-1.142-.157-2.287-.313-3.435-.412-2.739-.238-5.481-.443-8.552-.688zm-10.185 72.162c.703-1.56 1.929-2.56 3.526-2.959 1.125-.281 1.836-.909 2.61-1.702 3.356-3.442 7.592-5.633 11.735-7.925 1.294-.716 2.752-1.137 4.329-1.344l1.951-2.063c3.482 0 7.057.002 10.633 0 5.015-.003 10.03-.062 15.043.01 2.583.037 5.165.471 7.743.435 5.186-.073 10.368-.394 15.553-.525 7.868-.198 15.738-.295 23.605-.497 1.417-.036 2.827-.535 4.24-.534 2.133.001 4.267.255 6.4.398.785.053 1.57.096 2.536.154l.57 1.589 2.475-.578c2.612 1.121 4.427 3.345 6.406 5.395 1.917 1.985 3.842 3.987 5.956 5.749 1.826 1.522 3.216 3.301 4.457 5.382-2.108 1.107-4.245.762-6.371.625-2.49-.16-5.006-.53-7.473-.337-5.635.442-11.251.607-16.865-.079-5.434-.664-10.885-.625-16.343-.693-4.201-.053-8.401-.419-12.593-.745-4.807-.373-9.631-1.375-14.403-1.155-5.679.262-11.201-.867-16.807-.903-6.063-.039-12.152-.167-18.071 1.557-2.877.838-5.824.791-8.781.755-3.992-.047-7.986-.01-12.061-.01zm111.237-9.042l1.068 1.691c.482-1.051.451-1.553-1.068-1.691zm-92.324-8.217c-9.133.264-19.983-4.962-29.077-5.692-.786-3.427-1.489-6.698-1.387-10.129.071-2.397.144 1.921-.287-.441-.367-2.012-.856-4.007-1.376-5.986-.815-3.099-1.537-6.237-2.604-9.25-1.054-2.977-1.438-6.053-2.039-9.109-.393-1.996-1.168-3.917-1.781-5.869-.266-.848-.616-1.674-.821-2.535-.453-1.9-.85-3.814-1.247-5.727-.14-.674-.214-1.361-.322-2.071l4.734-2.649c3.873.717 8.53.543 12.441 3.358l-1.108.822c2.125.425 3.978.789 5.828 1.166 2.779.568 5.582.879 8.096 2.535 1.079.711 1.407 1.33 1.544 2.456 1.19 9.716 2.231 19.457 4.341 29.035.249 1.128.586 2.243.967 3.334a72.241 72.241 0 0 1 3.371 14.021c.118.87.449 1.711.727 2.731zM57.953 79.281c-.383 1.196-.753 2.05-.142 3.188 1.152-.918 1.212-1.76.142-3.188zm117.542-4.892c1.319-.522 2.332-.864 3.295-1.314 4.674-2.186 9.59-3.835 14.051-6.512 1.415-.849 3.137-1.26 4.772-1.639 1.112-.258 2.202-.279 3.283-.905.687-.397 1.844.018 3.008.081 0 .657.093 1.359-.015 2.027-.603 3.704-1.304 7.384-2.789 10.869-.523 1.229-1.062 2.493-1.301 3.794-.946 5.153-3.256 9.807-5.117 14.631-.927 2.404-1.521 4.934-2.307 7.394-1.112 3.483-2.295 6.943-3.382 10.433-.505 1.62.452-4.081.101-2.421-.639 3.022-1.379 6.022-2.025 8.803-3.309.281-6.216.545-9.128.764-.794.06-1.635.134-2.391-.055-3.791-.946-9.593 3.261-13.501 1.801.093-.756.192-1.519.28-2.283.244-2.12.465-4.243.733-6.36.167-1.322.222-2.697.641-3.942.995-2.959 2.209-5.844 3.268-8.783.419-1.161.579-2.417 1.008-3.574.581-1.567 1.068-3.257 2.036-4.569 1.149-1.558 1.958-3.123 2.292-5.024a151.7 151.7 0 0 1 1.732-8.393c.386-1.647.973-3.248 1.456-4.823z" fill="#fff"/>
    <path d="M161.48 132.001c1.519.139 1.549.64 1.068 1.691l-1.068-1.691zM57.953 79.281c1.07 1.428 1.01 2.271-.142 3.188-.611-1.139-.241-1.992.142-3.188z" fill="#1d1d1b"/>
    <path d="M147.986 106.048c-3.147.986-6.022.583-8.865.554-4.825-.05-9.649-.151-14.473-.263-8.753-.204-17.506-.452-26.259-.642-3.031-.066-6.065-.01-9.233-.01-.289-.906-.716-1.643-.733-2.39-.104-4.72-1.75-9.102-2.919-13.581-1.048-4.017-1.169-8.098-1.396-12.16 1.761-1.637 3.853-1.913 5.989-2.006 7.311-.316 14.623-.628 21.936-.904 2.324-.088 4.652-.04 6.978-.087 8.581-.173 17.161-.403 25.742-.512 2.301-.029 4.607.297 7.096.473.384 3.938.035 7.668-.827 11.367-.06.259-.229.498-.266.758-.718 4.929-1.425 9.859-2.131 14.79-.213 1.487-.413 2.977-.639 4.613zm10.849 15.501c-1.959.227-3.882.455-5.806.672-1.663.188-3.327.371-4.992.539-.712.072-1.427.136-2.142.144-6.61.07-13.222.046-19.83.211-6.065.152-12.124.595-18.189.727-2.935.064-5.878-.309-8.819-.453a69.197 69.197 0 0 0-4.023-.073c-6.25.06-12.5.14-19.038.215 1.36-1.769 2.613-3.495 3.97-5.135 1.365-1.65 2.833-3.215 4.434-4.533l4.04-1.787 1.803-4.582a12.924 12.924 0 0 1 4.575-.296c2.208.253 4.467.043 6.703.076 9.126.133 18.252.29 27.379.424 4.732.07 9.467.048 14.197.188 3.392.1 6.447.961 8.685 3.902 2.416 3.18 5.641 5.762 7.053 9.761zm-87.066 2.841c-.715-1.894-1.297-3.081-1.607-4.335-.534-2.163-.786-4.398-1.362-6.548-.919-3.434-2.187-6.782-2.974-10.243-.907-3.985-1.442-8.054-2.158-12.083-.262-1.476-.643-2.933-.852-4.416-.173-1.231-.146-2.489-.258-3.73-.144-1.592-.119-3.244-.562-4.754-.682-2.323-.91-4.525.332-6.829l5.931 1.936c.591.193 1.197.581 1.771.538 2.126-.156 3.856.505 5.246 2.112.104.12.317.178.488.198.158.019.327-.052.803-.142l-2.06-1.748c3.121.017 5.977.59 8.432 2.49-.135.428-.204.675-.295.914-.029.077-.118.131-.356.38l-1.423-1.458-.444.183c.054.545-.037 1.161.185 1.626 2.065 4.316 2.877 8.982 3.827 13.602.718 3.49 1.194 7.031 1.958 10.51.727 3.307.246 6.196-2.203 8.647-1.194 1.196-2.352 2.427-3.544 3.625-1.756 1.765-3.704 3.319-5.095 5.465-.847 1.31-2.139 2.332-3.78 4.06zm86.995-49.368c2.288-.356 4.566-.805 6.866-1.042 2.617-.27 5.254-.351 8.188-.534-.146 1.038-.199 1.719-.341 2.381-.803 3.748-1.595 7.499-2.467 11.232a7.584 7.584 0 0 1-1.072 2.421c-1.852 2.778-3.093 5.742-3.844 9.035-.689 3.022-2.023 5.9-3.117 8.825-.943 2.523-1.683 5.035-1.61 7.808.04 1.536-.624 3.091-1.075 5.1-.687-.861-1.044-1.317-1.409-1.766-1.856-2.285-3.712-4.571-5.573-6.852-.338-.415-.756-.775-1.041-1.222-1.335-2.095-2.544-4.069-2.134-6.898.405-2.795.509-5.611 1.134-8.422.981-4.409 1.497-8.926 2.116-13.41.357-2.587.84-4.963 3.876-5.727.56-.141 1.029-.641 1.541-.975l-.038.046zm-84.929-2.698c4.923.01 9.846.021 14.768.028.357 0 .739.042 1.067-.065 4.414-1.45 9.018-1.062 13.543-1.436 1.511-.125 3.007-.427 4.517-.553a45.81 45.81 0 0 1 4.521-.176c4.275.07 8.548.215 12.823.308 6.081.132 12.163.211 18.243.379 3.029.084 6.056.299 9.081.492a3.844 3.844 0 0 1 2.082.753c-.493.089-1.004.123-1.473.28-.59.198-1.127.634-1.723.718-.86.121-1.868.283-2.608-.041-1.903-.835-3.867-.783-5.815-.676-3.213.176-6.411.599-9.623.816-2.139.145-4.29.116-6.436.159-9.479.192-18.959.358-28.438.585-4.017.096-8.039.547-12.042.393-2.24-.086-4.553.195-6.795-.639-1.805-.671-3.761-.935-5.65-1.379l-.042.054zm82.247-.607l6.543.445c-3.15.97-4.945.82-6.543-.445z" fill="rgba(29,29,27,0.35)"/>
    <path d="M73.879 72.27c-1.729.048-3.461.127-5.091-.619 1.793-.604 3.409.121 5.048.673l.043-.054zm84.922 2.704l-3.969.861c1.139-1.209 2.374-1.893 3.931-.813l.038-.048z" fill="rgba(29,29,27,0.35)"/>
</svg>
