<svg xmlns="http://www.w3.org/2000/svg" viewBox="0 0 236 181.5">
    <path fill="#1d1d1b" d="M150 100.4c.7 0 1.3.1 1.7 0 .7 0 1.4-.2 2.1-.2 3.3-.1 6.7.5 10-.1.3 0 .4 0 .7.1 1.7.4 3.4.3 5.1.3.9 0 1.6 0 2.4.2 4.1.7 8.3.9 12.4.5 2-.2 4-.2 5.9.2 1.7.4 3.4.4 5.1.3 1.4-.1 2.7-.2 4.1-.3h2c1.7 0 3.4.1 5.1 0 1.3-.1 2.6-.4 3.9-.5 3.6-.2 7.1-.4 10.7-.5.3 0 .6.2 1.3.5-1 .2-1.6.3-2.1.3h-5.1c-2.3.1-4.6 0-6.9.5-2.6.6-5.1.8-7.4.3-2.9.3-5.6.7-8.3.4-3.7-.5-7.4-.8-11.1.2-.1 0-.3.1-.4.1-2.4-.1-4.9-.2-7.3-.4-1.3-.1-2.6-.2-3.9 0-1 .2-2.1 0-3.1-.1-1.3-.2-2.6-.3-3.9-.2-1.9.2-3.6.1-5.3-.2-.6-.1-1.3-.2-1.9-.2-1.6.1-3.3.4-4.9.6-.7.1-1.3.2-1.9 1 .8 1.5 1-3.3 1-2.8m-55.7-.1c-.7 0-1.3.1-1.9 0-.7 0-1.6-.2-2.4-.2-3.6-.1-7.3.5-10.8-.1-.3 0-.6 0-.7.1-1.8.4-3.7.3-5.5.3-.9 0-1.8 0-2.7.2-4.4.8-8.9 1-13.5.5-2.1-.2-4.3-.2-6.4.2-1.8.4-3.7.4-5.5.3-1.5-.1-3-.2-4.4-.3h-2.1c-1.8 0-3.7.1-5.5 0-1.3-.1-2.8-.4-4.2-.5-3.9-.2-7.7-.4-11.6-.5-.3 0-.6.2-1.3.5 1.2.2 1.8.3 2.2.3h5.5c2.5.1 5 0 7.4.5 2.8.7 5.5.9 8 .3 3.1.3 6.1.8 9 .4 4-.5 8-.9 12 .2.1 0 .3.1.6.1 2.7-.1 5.3-.2 7.9-.4 1.3-.1 2.8-.2 4.2 0 1 .2 2.2 0 3.4-.1 1.3-.2 2.8-.3 4.2-.2 1.9.2 3.9.1 5.8-.2.7-.1 1.3-.2 2.1-.2 1.8.1 3.6.4 5.2.7.7.1 1.3.2 1.9 1.1-.6 1.7-.9-3.6-.9-3"/>
    <path fill="#fff" d="M165.2 90.3l-1.8 37.9-8.4-.3-49.5 1.9-36-.6-3.1-34.6 45.1-7.5z"/>
    <path fill="#1d1d1b" d="M67 68.8c1.7 1.3 2.9.1 4.1-.5 1.2-.9 2.7-1.2 4.1-.8 1.1.1 2.3 0 3.5-.2 1-.1 2-.1 3.1-.1 3.7.5 7.4.5 11.1.2 6.4-.2 12.8.1 19.3-.1s13.2-.1 19.9.4c4.5.4 9.2.7 13.8.9 4.6.1 9.1 0 13.8-.2.9-.2 1.8.1 2.3.9 1 1.9 3 2.3 5 2.5 2.1.2 2.4.6 2.9 2.8.7 3 1.7 5.8 2.5 8.8.4 1.4.6 2.9 1.1 4.3.3.7.8 1.3 1.3 1.9.8.8 1.2 3.9.3 4.4-1.5.8-1 1.7-.8 2.7.2.7.3 1.5.6 2.9-1.3-.4-1.9-.6-2.6-.9-.9-.5-1.9-.8-3-1.1-1.8-.3-3.7-.3-5.5-.1-3.8.1-7.4 0-11.2-.6-9.3-.9-18.7-2.1-28-1.7-5.7.1-11.4-.2-17-.1-6.3 0-12.4.3-18.5.2-4.8-.2-9.4-.1-14.2.4l-6 .3c-1.1 3-.2 5.7 0 8.5.2 4.3.6 8.5 1 12.7.2 2.1.8 4.1 1 6.1.2 1.5.1 2.9.2 4.8 2.5.2 4.9.4 7.3.5 6 .1 12 .1 18.1.1 13.1-.1 26.4-.2 39.7-.2 2 0 4-.3 5.9-.5 1.9-.2 3.8-.3 5.7-.4 4.6-.2 9.1-.4 13.9-.7.3-1.5.6-2.8.7-4 .7-7.5 1.3-15.1 1.9-22.6 0-.8.4-1.6 1-2.2.3.5.4.9.5 1.4-.2 3.2-.3 6.4-.5 9.7-.4 5-.7 9.9-1.1 14.9.1.9.3 1.8.6 2.6.9 2.5.3 3.9-2.8 4.4l-.7-2c-.8 0-1.6-.1-2.4-.1-4.5.2-9 .3-13.4.5-1.8 0-3.6.7-5.4.7-3.5.2-7 .3-10.5.3-6.6 0-13.1-.3-19.6-.2-3.6 0-7.1.2-10.7.2-4.6.1-9.1.1-13.7 0-5 0-10-.1-15 0-.9 0-1.8-.1-3.1-.1.4-.9.5-1.3.6-1.8.6-.8.6-1.6.2-2.4s-.5-1.7-.4-2.5c.6-4.3-.4-8.4-.7-12.5-.2-2.1-.2-4.2-.3-6.2-.1-2-.1-4.4-.2-6.5-.1-.8-.2-1.5-.4-2.3-1.1.2-2.1.5-3.2.9-.8.4-1.7.2-2-.6-.1-.2-.2-.3-.2-.5-.3-1-.6-2.1-.9-3.3.2-.5.6-1.2.9-1.7 1.5-2.3 1.9-4.9 2.5-7.4s1.3-4.9 1.9-7.3c.4-1.6 1.5-3 .8-4.8-.1-.6.5-1.5.9-2.7zm99.7 5.8c-2.3 0-4.5 0-6.6-.1-6-.3-12.1-.7-18-.9-12.7-.2-25.3-.4-37.6-.6-10.5-.2-20.9.1-31.2-.6-1.1-.1-2.3 0-3.4 0-1.9 3.9-6 18.5-5.9 21.7 1.7-.4 3.5-.7 5.2-.8C76 93 83 92.8 90 92.8c9.1 0 18.2.2 27.5.3 3.7.1 7.6-.2 11.4 0 7.1.4 14.2 1.1 21.3 1.7 3.1.2 6.1.6 9.2.6 3.1.1 6.1.1 9.1.2 1-.1 2-.2 3-.5-.9-5.3-1.7-10.2-2.5-15.2-.1-2-1-3.8-2.3-5.3zm-4.1-2.4c-1.7-.9-3.6-1.3-5.4-1.3-3.3 0-6.7.1-9.9-.1-3-.1-6-.4-9-.5-5.8-.3-11.6-1.1-17.4-.8-4.5.2-9-.2-13.5-.3-1.7 0-3.5.1-5.2.2-2.7.1-5.5.3-8.2.4-.6.1-1.4.1-2 0-1.5-.1-3.1-.4-4.5-.4-3.5.1-7.1.3-10.6.4h-4.3c-.4.1-.9.3-1.2.5l.1.4 91.1 1.5zM57.9 115.6l2.5.3c-1.4.9-1.4.9-2.5-.3z"/>
    <path fill="#fff" d="M166.7 74.6c1.3 1.5 2.1 3.2 2.4 5.2.8 4.9 1.6 9.9 2.5 15.2-1.1.2-2 .4-3 .5-3 .1-6.1 0-9.1-.2s-6.1-.5-9.2-.6c-7.2-.6-14.2-1.2-21.3-1.7-3.8-.2-7.6.1-11.4 0-9.3-.1-18.4-.4-27.5-.3-6.9 0-13.9.3-20.8.6-1.7.2-3.5.5-5.2.8-.1-3.2 3.8-17.8 5.8-21.7 1.1 0 2.3-.1 3.4 0 10.2.8 20.7.3 31.2.6 12.3.2 25 .4 37.6.6 5.9.2 12 .6 18 .9 2.2.2 4.3.1 6.6.1z"/>
    <path fill="rgba(29,29,27,0.25)" d="M162.6 72.2l-91.2-1.5-.1-.4c.3-.2.8-.4 1.2-.5 1.5-.1 2.8 0 4.3 0 3.5-.1 7.1-.3 10.6-.3 1.5 0 3.1.2 4.5.4h2c2.7-.1 5.5-.3 8.2-.4 1.7-.1 3.5-.2 5.2-.2 4.4 0 9 .5 13.5.3 5.8-.3 11.5.5 17.4.8 3 .1 6 .5 9 .5 3.3.1 6.6.1 9.9.1 1.9-.2 3.9.3 5.5 1.2z"/>
</svg>
