<svg xmlns="http://www.w3.org/2000/svg" viewBox="0 0 236.013 181.502">
    <path d="M179.78 41.705l.5 39.5-115.167-4.167-1.757-38.889 34.424-1.778 82 5.334z" fill="#fff"/>
    <path d="M207.361 86.112c-.771.634-.999.892-1.283 1.044-2.597 1.392-5.248 2.689-7.797 4.161-5.032 2.906-10.012 5.902-15.007 8.871-.612.364-1.342.669-1.755 1.204-1.182 1.53-2.639 1.512-4.34 1.229a18.93 18.93 0 0 0-4.542-.208c-4.545.358-9.079.848-13.592 1.284-2.215 5.3-3.218 10.851-4.037 16.886-2.025-2.558-4.508-2.645-7.145-2.721-4.724-.137-9.435-.673-14.158-.893-3.045-.142-6.03-.618-9.04-.983-2.798-.339-5.695.167-8.549.273-3.758.138-7.477.098-11.186-.854-1.775-.456-3.737-.175-5.614-.248-2.228-.087-4.455-.217-6.683-.286a13.334 13.334 0 0 0-2.397.126c-2.207.333-4.399.779-6.612 1.061-.629.08-1.31-.247-1.95-.384.571-3.682-1.935-9.689-5.773-13.966-1.929-.26-4.048-.541-6.166-.832-2.122-.292-4.243-.593-6.316-.884-2.53-4.538-6.438-7.696-10.179-10.971-2.893-2.532-6.007-4.811-9.004-7.226-.827-.667-1.584-1.419-2.763-2.484.909-.087 1.485-.327 1.728-.138 4.588 3.564 9.165 7.144 13.679 10.802 1.595 1.292 3.013 2.802 4.52 4.203.292.272.623.503 1.439 1.153-2.723-6.527-5.411-12.326-9.283-17.498-.364-.486-.909-.864-1.431-1.196-.96-.611-1.013-1.37-.484-2.409h12.504c-.189-1.546-.16-3.089-.602-4.482-.569-1.794-.289-3.536-.265-5.311.014-1.067-.144-2.135-.175-3.203-.063-2.217-.097-4.434-.134-6.652-.015-.886.037-1.774-.012-2.657-.084-1.503-.591-3.09-.263-4.486.65-2.762.442-5.505.471-8.264.003-.263.095-.525.192-1.023l2.145-.459c.163.958.655 1.946.351 2.4-1.217 1.818-.831 3.817-.934 5.74-.214 4.016-.326 8.04-.389 12.061-.017 1.058.18 2.157.488 3.174.518 1.706.5 3.342-.003 4.471.14 1.413.311 2.321.304 3.229-.016 1.973.017 3.922.945 5.842.535.094 1.049.245 1.569.266 4.919.196 9.843.302 14.757.575 3.207.178 6.399.602 9.6.895 2.851.26 5.7.542 8.556.725 7.766.498 15.534.969 23.303 1.403 1.603.089 3.217-.018 4.826-.057.804-.019 1.606-.119 2.41-.13 2.766-.036 5.537.046 8.297-.09 6.488-.32 12.848.671 19.187 1.795 6.477 1.149 12.969 1.329 19.5.73.166-.015.322-.145.561-.259 1.282-1.683.368-3.753.766-5.633.289-1.364.202-2.822.18-4.236-.061-3.93-.173-7.859-.273-11.788-.011-.444-.227-.939-.095-1.323 1.038-3.02-.018-6.04.039-9.056.015-.772-.054-1.816-.528-2.269-.935-.893-.566-1.759-.338-2.949-.79-.168-1.535-.385-2.296-.478-4.346-.53-8.696-1.03-13.044-1.541-.267-.031-.531-.099-.798-.111-4.911-.22-9.845-.213-14.729-.701-6.849-.684-13.78.148-20.59-1.362-2.055-.455-4.284-.091-6.431-.165a488.98 488.98 0 0 1-9.378-.42c-3.207-.173-6.48-.054-9.602-.673-4.503-.893-8.922.06-13.377-.019-6.963-.123-13.931.048-20.897.085-.952.005-.952-.018-1.483-1.436 1.965-.573 3.832-1.005 5.983-.86 4.098.276 8.229.091 12.345.032 4.113-.059 8.224-.259 12.337-.276 1.779-.008 3.56.285 5.34.446 7.035.637 14.069 1.187 21.147 1.099 2.484-.031 4.973.405 7.46.626 1.686.15 3.369.362 5.058.438 6.967.313 13.945.447 20.901.913 5.966.4 11.904 1.196 17.861 1.743 1.598.147 3.22.022 4.913.022l2.386 2.088c-.221 2.595-.473 5.139-.64 7.688-.076 1.156.021 2.324.032 3.486.01.976.142 1.973-.01 2.924-.787 4.918-.297 9.745.692 14.587.295 1.443.048 3.016-.077 4.518-.132 1.585-.613 3.175.419 4.713 2.739.728 5.456.031 8.555-.285-.103.838-.001 1.571-.289 2.087-1.56 2.796-3.214 5.54-4.84 8.3-1.579 2.68-3.163 5.357-5.006 8.478 1.668-.561 3.088-.804 4.263-1.475 5.198-2.973 10.314-6.09 15.487-9.108 1.618-.944 3.3-1.786 5-2.572.405-.191 1.003.037 2.088.114zm-152.026-9.44c2.425 4.854 4.755 9.181 6.756 13.654 1.152 2.575 1.786 5.378 4.345 6.633 3.439 0 6.648-.006 9.856.006a9.532 9.532 0 0 1 1.6.139c4.362.77 8.746.649 13.076-.046 3.649-.586 7.288-.738 10.957-.644 5.177.132 10.353.332 15.531.423 1.782.031 3.576-.335 5.351-.249 5.171.251 10.335.656 15.504.969 5.707.346 11.414.685 17.124.97 2.053.102 4.124-.092 6.168.078 4.094.34 8.173.857 12.262 1.26 1.75.173 3.537.483 4.856-.353 3.249-5.446 6.487-10.52 8.656-16.292-.653-.212-.98-.403-1.311-.412-3.745-.102-7.537-.577-11.226-.155-4.701.537-9.263.229-13.863-.551-6.768-1.148-13.475-2.548-20.461-1.91-4.616.422-9.305.073-13.96.04a86.518 86.518 0 0 1-5.094-.173c-3.832-.255-7.658-.589-11.49-.838-4.644-.302-9.295-.507-13.937-.828-7.847-.543-15.684-1.299-23.538-1.667-5.684-.269-11.39-.054-17.162-.054zm28.158 37.066c2.259-.292 4.263-.558 6.27-.806.877-.108 1.762-.275 2.638-.248 2.857.088 5.715.217 8.568.403 1.957.128 3.907.372 5.859.574 1.772.183 3.541.534 5.313.54 4.027.015 8.054-.155 12.082-.204.979-.012 1.96.147 2.94.233 3.999.352 7.997.708 11.996 1.058 1.504.132 3.008.265 4.514.372 2.932.208 5.865.399 8.969.608.797-2.854 2.451-5.406 1.425-8.63 1.338-.487 2.02-1.448 1.839-2.827-6.148-1.801-12.302-2.006-18.466-1.923-6.796.091-13.591.32-20.386.528-1.669.051-3.404-.228-4.926.866-.301.216-.874.093-1.317.065-3.57-.225-7.136-.505-10.708-.69-4.909-.255-9.82-.563-14.732-.586-1.596-.007-3.41-.001-5.04 1.281l3.162 9.386zm83.518-12.319l-.022-.372c-2.076-.198-4.148-.504-6.229-.573-4.708-.156-9.42-.15-14.128-.3-2.492-.079-4.978-.348-7.466-.527-.625-.045-1.261-.012-1.874-.12-4.42-.782-8.873-.983-13.355-.953-6.707.045-13.416.004-20.123-.055-1.871-.016-3.756-.431-5.608-.296-3.289.24-6.549.88-9.838 1.127-3.114.234-6.315.598-9.358.128-2.792-.431-5.451-.101-8.182-.065 3.138.743 6.274 1.526 9.449 1.743 7.487.51 14.991.974 22.491 1.04 8.223.072 16.465-.068 24.67-.587 8.247-.521 16.446.054 24.665.252a5.34 5.34 0 0 1 1.318.197c2.527.717 5.075.606 7.632.231l5.958-.87zm-12.395 13.879l-.515-.196-.411 1.51.462.143.464-1.457z" fill="#1d1d1b"/>
    <path d="M55.335 76.672c5.772 0 11.478-.215 17.162.052 7.855.369 15.691 1.125 23.538 1.667 4.643.321 9.293.526 13.937.828 3.832.249 7.658.583 11.49.838 1.694.113 3.395.161 5.094.173 4.656.033 9.344.381 13.96-.04 6.986-.638 13.692.763 20.461 1.91 4.6.78 9.162 1.088 13.863.551 3.688-.422 7.48.054 11.226.155.332.009.658.2 1.311.412-2.169 5.772-5.407 10.847-8.656 16.292-1.319.836-3.106.526-4.856.353-4.089-.404-8.168-.921-12.262-1.26-2.044-.17-4.116.025-6.168-.078-5.71-.285-11.417-.624-17.124-.97-5.169-.313-10.332-.718-15.504-.969-1.775-.086-3.569.28-5.351.249-5.178-.091-10.354-.291-15.531-.423-3.668-.094-7.308.059-10.957.644-4.33.695-8.714.816-13.076.046a9.42 9.42 0 0 0-1.6-.139c-3.209-.013-6.417-.006-9.856-.006-2.559-1.255-3.193-4.058-4.345-6.633-2.001-4.471-4.331-8.798-6.756-13.652zm28.158 37.066l-3.162-9.385c1.63-1.282 3.443-1.289 5.04-1.281 4.912.023 9.823.332 14.732.586 3.572.185 7.138.465 10.708.69.444.028 1.017.151 1.317-.065 1.522-1.095 3.257-.815 4.926-.866 6.794-.208 13.589-.436 20.386-.528 6.164-.083 12.318.122 18.466 1.923.182 1.378-.5 2.34-1.839 2.827 1.026 3.224-.629 5.776-1.425 8.63-3.104-.209-6.037-.4-8.969-.608-1.506-.107-3.01-.241-4.514-.372-3.999-.35-7.998-.706-11.996-1.058-.98-.086-1.961-.245-2.94-.233-4.028.05-8.055.219-12.082.204-1.772-.007-3.541-.357-5.313-.54-1.952-.202-3.902-.446-5.859-.574-2.853-.186-5.71-.314-8.568-.403-.876-.027-1.761.14-2.638.248-2.007.246-4.011.513-6.27.805zm71.123 1.56l-.464 1.457-.462-.143.411-1.51.515.196z" fill="#fff"/>
</svg>
