<svg xmlns="http://www.w3.org/2000/svg" viewBox="0 0 236.013 181.502">
    <path d="M55.517 138.634c-1.119-.901-1.119-.901-1.048-2.216.87-1.013 1.749-1.79 2.32-2.749 1.544-2.592 3.677-4.509 6.1-6.269 1.319-.958 2.212-2.529 3.219-3.883.791-1.062 1.461-2.214 2.185-3.328-2.303-1.361-19.455-5.257-22.762-5.201-.147-.232-.414-.497-.5-.812-.787-2.895-2.336-5.407-3.966-7.867-3.857-5.824-5.831-12.403-7.731-19.018-1.031-3.588-2.113-7.162-3.107-10.76-.613-2.222-1.103-4.479-1.704-6.951l2.313-1.056.004.436c2.403.557 4.812 1.095 7.209 1.678 3.115.757 6.234 1.504 9.328 2.341 2.828.765 5.625 1.644 8.706 2.552l1.42-1.537-.454-.139c.209-3.439.414-6.879.631-10.317.045-.704.338-1.456.172-2.097-.564-2.182-.001-4.248.372-6.355.217-1.226.406-2.482.372-3.718-.021-.799-.467-1.586-.856-2.791l1.513-2.13c2.647 2.001 5.514 1.108 8.197 1.127 3.973.029 8.007.333 12.14-.746l1.181-3.611c.775-1.021 2.007-1.127 3.294-.988 3.29.356 6.568.88 9.866 1.076 4.544.27 9.101.31 13.654.429 2.762.072 5.526.071 8.287.172 2.497.091 4.99.269 7.485.42 2.497.151 4.992.418 7.489.439 1.776.015 3.552-.335 5.332-.445 3.916-.241 7.833-.504 11.753-.597 1.112-.027 2.238.5 3.593.83.211.35.524.876.844 1.396.624 1.012 1.482 1.479 2.707 1.274 5.918-.989 11.89-.619 17.845-.679 1.151-.012 2.303-.002 3.655-.002.254.619.729 1.251.741 1.892.104 5.623.08 11.248.189 16.871.06 3.109.302 6.214.47 9.472 1.698-.119 3.355-.2 5.003-.36 3.278-.318 6.568-.569 9.822-1.055 2.811-.42 5.779-.683 8.307-1.833 2.406-1.094 4.476-.326 7.053-.371l-1.113 4.14c-1.473.139-2.017 1.373-2.541 2.561-2.021 4.583-4.217 9.055-6.97 13.267-1.357 2.077-2.157 4.51-3.343 6.71-.957 1.776-2.169 3.412-3.169 5.167-1.804 3.164-3.678 6.302-5.226 9.591-.608 1.291-.418 2.957-.626 4.744-4.211 1.723-8.846 1.432-13.293 1.997-4.478.569-9.041.475-13.648.675 2.334 6.105 5.945 11.577 10.012 16.647-.771 1.902-1.446 2.307-2.679 1.386-2.347-1.753-5.022-1.329-7.63-1.446-.703-.032-1.409-.022-2.112-.06-.887-.047-1.774-.199-2.658-.174-5.891.163-11.78.469-17.672.52-6.696.058-13.396-.239-20.09-.129-6.258.103-12.51.55-18.767.815-1.867.079-3.739.033-5.607.082-2.669.069-5.336.239-8.004.238-1.687-.001-3.373-.311-5.063-.35-3.307-.076-6.617-.125-9.924-.062-3.026.058-6.053.23-9.072.452-1.125.084-2.236.449-3.448.705zm26.558-64.977c.585.205 1.379.734 2.158.714 3.391-.089 6.777-.376 10.168-.523 8.305-.359 16.61-.74 24.919-.985 3.209-.095 6.429.107 9.641.257 4.643.216 9.266.568 13.819 1.653a27.83 27.83 0 0 0 6.104.753c5.727.06 11.457-.016 17.185-.116 2.4-.042 4.809-.172 7.191-.456 2.339-.278 2.783-.912 2.909-3.352.032-.625.057-1.253.038-1.878-.112-3.732-.18-7.466-.377-11.194-.155-2.926-.474-5.844-.698-8.506-.916-1.222-1.976-1.309-3.076-1.311-4.118-.008-8.238-.095-12.354-.021-6.702.121-13.404.298-20.102.549-2.757.104-5.506.439-8.255.711-4.607.456-9.214.922-13.816 1.428-3.995.44-7.782-.975-11.699-1.236-2.573-.171-5.129-.573-7.701-.768-3.891-.294-7.705-1.748-11.684-.796-.239.057-.547-.014-.781-.118-2.152-.954-4.169-.505-6.134.735-.755-.961-1.584-.98-2.661-.821-3.87.572-7.76 1.056-11.659 1.361-1.745.137-3.303.566-4.812 1.355-.175 1.38-.139 2.771-.554 4.011-.851 2.546-.936 5.063-.408 7.659a3.116 3.116 0 0 1-.099 1.566c-1.283 3.704-.678 7.368.028 11.013 2.244 1.062 4.52.783 6.715.606 4.711-.381 9.407-.956 14.102-1.504.585-.069 1.134-.461 1.893-.786zm-11.834 46.9c-1.806 2.387-3.315 4.487-4.942 6.49-.886 1.09-1.875 2.145-2.99 2.99-2.106 1.596-3.868 3.38-4.532 6.072 1.77-.132 3.517-.398 5.258-.368 7.059.121 14.117.445 21.176.475 5.722.025 11.445-.278 17.168-.408 7.867-.178 15.733-.376 23.601-.473 3.48-.043 6.968.296 10.445.189 5.624-.173 11.239-.629 16.862-.852 3.197-.127 6.404-.016 9.606-.041.592-.004 1.183-.142 1.979-.244-.337-.92-.483-1.74-.902-2.382-1.02-1.559-2.265-2.974-3.238-4.558-1.394-2.269-2.52-4.706-3.963-6.94-1.172-1.815-2.287-3.768-5.051-3.698-2.115.054-4.198-.159-6.359.082-5.495.611-11.038.786-16.559 1.165-6.384.439-12.761.985-19.149 1.348-8.028.456-16.062.851-24.098 1.123-4.714.16-9.436.03-14.312.03zm83.586-5.724c-.93-1.493-1.547-2.37-2.046-3.309-.958-1.8-1.875-3.623-2.762-5.459-.657-1.358-1.106-2.832-1.883-4.111-1.94-3.195-4.014-6.309-6.115-9.581-.841-.039-1.731-.164-2.609-.105-2.129.144-4.258.574-6.378.526-4.389-.101-8.742-.113-13.109.562-2.905.449-5.878.509-8.825.628-6.417.257-12.835.512-19.255.615-2.247.036-4.004.578-5.116 2.638a221.628 221.628 0 0 1-2.871 5.154c-2.22 3.86-4.094 7.925-7.235 11.22-1.239 1.299-2.066 2.991-3.402 4.982 3.452.097 6.291.306 9.121.226 4.633-.132 9.259-.473 13.89-.69 5.437-.255 10.88-.416 16.313-.73 2.489-.143 4.959-.585 7.443-.833 2.842-.284 5.685-.596 8.536-.726 3.021-.138 6.051-.063 9.077-.109.709-.011 1.416-.142 2.126-.203 3.816-.326 7.605-1.085 11.472-.613 1.019.124 2.071-.037 3.628-.082zm51.142-40.866c-2.821-1.302-5.062-.834-7.473-.252-3.187.769-6.521.928-9.791 1.358-2.646.347-5.295.678-7.934 1.071-1.599.238-2.748 1.126-3.489 2.596a88.898 88.898 0 0 1-2.544 4.695c-3.542 6.082-6.91 12.262-9.374 18.864-1.823 4.885-4.058 9.499-7.366 13.54.104.668.194 1.278.3 1.884.013.074.109.134.147.177 8.083 1.805 15.937-.513 23.532-1.103 1.129-1.664 2.136-3.076 3.067-4.536a362.068 362.068 0 0 0 4.515-7.269c1.798-2.972 3.751-5.873 5.275-8.982 1.799-3.669 3.985-7.103 5.904-10.688 1.958-3.659 3.497-7.543 5.231-11.355zM83.754 75.991c.181 5.75 1.452 10.811 3.659 15.658.488 1.071 1.005 1.553 2.185 1.367a25.493 25.493 0 0 1 3.196-.279c5.799-.174 11.606-.195 17.397-.516 4.986-.277 9.952-.892 14.929-1.34.705-.063 1.418-.034 2.128-.036 4.811-.016 9.621-.028 14.523-.042 2.331-4.588 3.512-9.134 3.782-14.252-4.188-.695-8.122-1.585-12.103-1.946-4.626-.419-9.293-.47-13.943-.495-3.391-.018-6.788.215-10.176.425-4.725.293-9.442.728-14.168.989-2.68.148-5.373.033-8.058.107-1.142.03-2.277.239-3.351.36zm-15.096 41.49c.078-.711.305-1.327.178-1.858-.87-3.64-1.709-7.293-2.755-10.884-2.165-7.435-5.256-14.591-6.701-22.249-.197-1.042-.643-2.045-1.043-3.039-.579-1.439-1.67-2.25-3.221-2.44-.605-.074-1.219-.14-1.807-.292-3.615-.938-7.308-1.663-10.811-2.918-3.61-1.293-7.231-2.19-11.4-2.362.589 1.974 1.219 3.8 1.672 5.669.765 3.153 1.973 6.087 3.587 8.913 1.321 2.313 2.32 4.816 3.389 7.266.461 1.058.629 2.248 1.118 3.29 2.383 5.082 4.55 10.237 5.801 15.722 7.183 2.056 14.335 4.19 21.993 5.182zm86.676-2.772c.737-.975 1.278-1.772 1.901-2.498 2.181-2.544 3.732-5.483 4.915-8.557 1.506-3.91 2.826-7.874 4.904-11.55 2.405-4.254 4-8.945 6.911-12.935.478-.655.927-1.35.347-2.149h-26.546c-.371 1.145-.716 2.043-.949 2.97-.372 1.472-.685 2.96-.994 4.446-.576 2.772-1.201 5.537-1.653 8.33-.131.81.081 1.795.453 2.542.712 1.434 1.592 2.795 2.509 4.113 1.383 1.988 2.603 4.03 3.32 6.373 1.003 3.282 3.097 5.961 4.882 8.915zM59.637 77.928c2.017 6.654 4.005 13.08 5.909 19.531 1.898 6.429 3.696 12.888 5.655 19.357 5.939-6.744 10.369-14.097 14.056-21.707l-3.691-18.936c-2.843-.04-5.827-.139-8.837.567-2.147.504-4.394.612-6.605.808-2.033.181-4.077.244-6.487.38zm24.886-31.285c6.327.52 12.367 1.011 18.406 1.516 1.957.164 3.923.278 5.863.563 4.879.716 9.767.786 14.673.413 1.416-.108 2.838-.132 4.256-.229 2.133-.146 4.305-.12 6.388-.532 3.697-.731 7.372-1.269 11.15-.851 1.243.137 2.512.113 3.533-.689-2.034-.356-4.062-1.098-6.022-.946-1.936.15-3.92.458-5.852.505-3.992.099-7.993-.18-11.99-.316-1.427-.049-2.856-.102-4.28-.214-1.89-.148-3.853.781-5.677-.381-.058-.037-.173.016-.354.039l-1.205.945-7.788-.454-1.115-.855-1.098 1.839H96.86c-.38-.176-1.07-.646-1.828-.818-2.512-.57-5.054-1.01-7.574-1.547-1.379-.293-2.217.246-2.935 2.012zM35.355 86.197l-.529.217c2.211 7.097 4.141 14.31 9.037 20.303l-8.508-20.52zm76.664-40.965c-1.506-1.147-2.295-.347-3.107.269l3.107-.269z" fill="#1d1d1b"/>
    <path d="M82.075 73.657c-.759.325-1.308.717-1.895.786-4.696.549-9.392 1.123-14.102 1.504-2.195.177-4.471.457-6.715-.606-.706-3.644-1.311-7.309-.028-11.013.166-.479.2-1.068.099-1.566-.528-2.596-.443-5.113.408-7.659.415-1.24.379-2.631.554-4.011 1.509-.789 3.067-1.218 4.812-1.355 3.899-.306 7.789-.789 11.659-1.361 1.078-.159 1.906-.14 2.661.821 1.965-1.24 3.982-1.689 6.134-.735.235.104.542.176.781.118 3.979-.952 7.793.502 11.684.796 2.572.194 5.128.597 7.701.768 3.917.261 7.705 1.675 11.699 1.236 4.602-.507 9.209-.972 13.816-1.428 2.749-.272 5.498-.608 8.255-.711 6.698-.252 13.4-.428 20.102-.549 4.117-.074 8.236.013 12.354.021 1.1.002 2.159.089 3.076 1.311.224 2.662.544 5.579.698 8.506.197 3.727.265 7.462.377 11.194.019.625-.006 1.253-.038 1.878-.126 2.44-.57 3.074-2.909 3.352-2.382.283-4.791.414-7.191.456-5.728.1-11.458.176-17.185.116a27.776 27.776 0 0 1-6.104-.753c-4.553-1.085-9.176-1.437-13.819-1.653-3.211-.15-6.432-.351-9.641-.257-8.309.245-16.614.626-24.919.985-3.391.146-6.776.433-10.168.523-.777.02-1.571-.509-2.156-.714zm-11.834 46.9c4.875 0 9.598.13 14.311-.029 8.036-.272 16.07-.666 24.098-1.123 6.388-.363 12.765-.91 19.149-1.348 5.522-.38 11.064-.555 16.559-1.165 2.161-.24 4.244-.028 6.359-.082 2.764-.07 3.879 1.883 5.051 3.698 1.443 2.234 2.569 4.671 3.963 6.94.973 1.584 2.218 2.999 3.238 4.558.42.642.566 1.462.902 2.382-.796.102-1.387.24-1.979.244-3.202.024-6.408-.086-9.606.041-5.623.223-11.238.679-16.862.852-3.476.107-6.964-.231-10.445-.189-7.868.097-15.734.295-23.601.473-5.723.13-11.446.433-17.168.408-7.059-.031-14.116-.355-21.176-.475-1.742-.03-3.489.236-5.258.368.663-2.692 2.425-4.476 4.532-6.072 1.115-.844 2.104-1.9 2.99-2.99 1.628-2.004 3.137-4.104 4.943-6.491zm134.728-46.59c-1.735 3.812-3.273 7.696-5.231 11.355-1.919 3.585-4.105 7.019-5.904 10.688-1.524 3.109-3.477 6.01-5.275 8.982a367.825 367.825 0 0 1-4.515 7.269c-.931 1.46-1.938 2.872-3.067 4.536-7.595.59-15.449 2.908-23.532 1.103-.038-.044-.134-.103-.147-.177-.106-.607-.196-1.216-.3-1.884 3.309-4.041 5.544-8.655 7.366-13.54 2.463-6.602 5.832-12.782 9.374-18.864a88.898 88.898 0 0 0 2.544-4.695c.741-1.47 1.89-2.357 3.489-2.596 2.639-.394 5.288-.724 7.934-1.071 3.27-.429 6.604-.588 9.791-1.358 2.412-.582 4.653-1.05 7.473.252zM68.658 117.481c-7.658-.991-14.811-3.126-21.993-5.181-1.251-5.485-3.418-10.64-5.801-15.722-.489-1.042-.656-2.232-1.118-3.29-1.069-2.451-2.068-4.953-3.389-7.266-1.614-2.826-2.822-5.76-3.587-8.913-.453-1.869-1.083-3.695-1.672-5.669 4.169.172 7.79 1.069 11.4 2.362 3.503 1.254 7.196 1.98 10.811 2.918.588.153 1.201.218 1.807.292 1.552.189 2.642 1.001 3.221 2.44.4.993.846 1.997 1.043 3.039 1.445 7.658 4.536 14.813 6.701 22.249 1.046 3.591 1.885 7.244 2.755 10.884.127.529-.1 1.145-.178 1.857z" fill="#fff"/>
    <path d="M84.523 46.643c.718-1.766 1.556-2.305 2.934-2.011 2.52.537 5.062.977 7.574 1.547.758.172 1.448.642 1.828.818h6.551l1.098-1.839 1.115.855 7.788.454 1.205-.945c.181-.023.296-.075.354-.039 1.823 1.162 3.787.233 5.677.381a98.47 98.47 0 0 0 4.28.214c3.997.137 7.999.415 11.99.316 1.932-.048 3.915-.356 5.852-.505 1.96-.152 3.988.59 6.022.946-1.021.802-2.29.826-3.533.689-3.778-.417-7.453.121-11.15.851-2.083.412-4.254.386-6.388.532-1.417.097-2.839.121-4.256.229-4.907.373-9.794.302-14.673-.413-1.94-.285-3.906-.399-5.863-.563-6.038-.506-12.078-.997-18.405-1.517zM35.355 86.197l8.509 20.52c-4.897-5.993-6.826-13.206-9.037-20.303l.528-.217z" fill="#fff"/>
    <path d="M112.019 45.232l-3.107.269c.812-.616 1.6-1.416 3.107-.269z" fill="#fff"/>
    <path d="M153.827 114.833c-1.556.045-2.609.206-3.627.081-3.867-.472-7.656.287-11.472.613-.709.061-1.416.192-2.126.203-3.026.046-6.056-.028-9.077.109-2.851.13-5.694.442-8.536.726-2.484.248-4.954.69-7.443.833-5.434.313-10.876.475-16.313.73-4.631.217-9.257.558-13.89.69-2.83.081-5.668-.129-9.121-.226 1.336-1.991 2.163-3.683 3.402-4.982 3.141-3.295 5.015-7.36 7.235-11.22.98-1.705 1.938-3.423 2.871-5.154 1.112-2.06 2.869-2.602 5.116-2.638 6.42-.103 12.838-.358 19.255-.615 2.947-.118 5.92-.179 8.825-.628 4.366-.675 8.72-.663 13.109-.562 2.12.049 4.249-.382 6.378-.526.878-.059 1.768.066 2.609.105 2.101 3.272 4.175 6.386 6.115 9.581.777 1.28 1.227 2.754 1.883 4.111a158.52 158.52 0 0 0 2.762 5.459c.498.94 1.115 1.817 2.045 3.31zM83.754 75.991c1.074-.121 2.209-.33 3.349-.361 2.685-.073 5.378.041 8.058-.107 4.727-.26 9.443-.695 14.168-.989 3.388-.21 6.785-.443 10.176-.425 4.65.025 9.317.076 13.943.495 3.982.36 7.915 1.251 12.103 1.946-.27 5.118-1.451 9.664-3.782 14.252-4.902.014-9.712.027-14.523.042-.71.002-1.423-.027-2.128.036-4.977.448-9.943 1.063-14.929 1.34-5.791.321-11.598.342-17.397.516a25.306 25.306 0 0 0-3.196.279c-1.179.186-1.697-.295-2.185-1.367-2.204-4.845-3.475-9.907-3.657-15.657zm71.58 38.718c-1.785-2.954-3.878-5.633-4.882-8.914-.717-2.344-1.938-4.386-3.32-6.373-.917-1.318-1.797-2.68-2.509-4.113-.371-.748-.584-1.732-.453-2.542.451-2.793 1.076-5.558 1.653-8.33.309-1.487.623-2.974.994-4.446.234-.927.579-1.825.949-2.97h26.546c.58.798.131 1.493-.347 2.149-2.911 3.99-4.507 8.68-6.911 12.935-2.078 3.677-3.399 7.64-4.904 11.55-1.183 3.074-2.734 6.014-4.915 8.557-.624.725-1.164 1.522-1.901 2.497zM59.637 77.928c2.41-.136 4.454-.199 6.487-.38 2.21-.197 4.457-.305 6.605-.808 3.01-.706 5.994-.606 8.837-.567l3.691 18.936c-3.687 7.61-8.117 14.963-14.056 21.707-1.959-6.469-3.757-12.928-5.655-19.357-1.904-6.451-3.892-12.877-5.909-19.531z" fill="rgba(29,29,27,0.25)"/>
</svg>
