<svg xmlns="http://www.w3.org/2000/svg" viewBox="0 0 236.013 181.502">
    <path d="M167.947 38.75c-5.93-.074-11.82-.141-17.71-.226-.8-.012-1.62-.016-2.395-.185-4.678-1.015-9.444-.401-14.153-.815a3.202 3.202 0 0 0-1.068.09c-2.779.724-5.491.261-8.216-.358-2.891-.657-5.785-.913-8.775-.42-2.098.347-4.324.531-6.407.216-2.716-.41-5.315-.247-7.986.158-1.467.222-3.048.222-4.496-.074-2.596-.531-5.097-.506-7.71-.046-1.793.316-3.704.008-5.559-.09-2.046-.108-4.086-.305-6.131-.443-1.51-.102-3.134.151-4.509-.327-2.431-.845-4.779-.301-7.157-.147-1.064.069-1.955 1.263-1.427 1.796 1.34 1.353.162 3.072.987 4.497.371.641-.022 1.733-.092 2.618-.063.798-.238 1.594-.228 2.39.049 3.92.146 7.839.221 11.758.014.715.011 1.43.005 2.145-.012 1.515-.119 3.034-.028 4.542.178 2.94.453 5.874.712 8.809.125 1.42.413 2.834.433 4.254.03 2.138-.088 4.28-.184 6.419-.116 2.584-.021 5.213-.472 7.741-.846 4.742-1.852 9.471-3.123 14.114-.725 2.649-.811 5.254-.863 8.05l1.251.327c.441-2.575.896-5.01 1.267-7.459.376-2.482 1.085-4.845 2.339-7.063l-.278 8.728-1.441.977.795 1.298c.288.102.371.158.454.157a328.72 328.72 0 0 0 33.209-1.948c1.685-.185 3.408-.291 5.093-.164 5.703.428 11.395.995 17.094 1.475 6.234.525 12.467 1.081 18.709 1.489 3.299.215 6.675.556 9.911.1 4.325-.61 8.577-.125 12.86-.088a7.49 7.49 0 0 1 4.274 1.351c.582.399 1.339.544 1.885.753.324-.366.41-.424.438-.502.16-.457.306-.92.466-1.408 1.256 2.382 1.256 2.382 2.869 1.968-.254-1.573-.51-3.144-.759-4.715-.334-2.106-.919-4.214-.919-6.32 0-2.145-1.189-4.348.169-6.486.176-.277-.166-.853-.187-1.294-.041-.87-.019-1.742-.033-2.614-.01-.605.011-1.216-.07-1.812-.167-1.226-.542-2.439-.572-3.665-.206-8.229-.337-16.459-.509-24.689-.054-2.584-.211-5.166-.22-7.75-.006-1.778.225-3.556.234-5.334.01-1.967-.256-3.944-.141-5.901.135-2.269-.475-4.2-1.857-5.877z" fill="#fff"/>
    <path d="M167.947 38.75c1.382 1.677 1.991 3.608 1.857 5.878-.115 1.957.151 3.934.141 5.901-.009 1.778-.24 3.556-.234 5.334.009 2.583.166 5.166.22 7.75.172 8.23.303 16.46.509 24.689.031 1.225.405 2.439.572 3.665.081.596.06 1.207.07 1.812.015.871-.007 1.744.033 2.614.021.441.363 1.016.187 1.294-1.358 2.138-.169 4.341-.169 6.486 0 2.107.586 4.214.919 6.32.249 1.571.506 3.142.759 4.715-1.614.414-1.614.414-2.869-1.968-.16.488-.306.95-.466 1.408-.027.078-.114.136-.438.502-.546-.209-1.303-.353-1.885-.753a7.497 7.497 0 0 0-4.274-1.351c-4.283-.037-8.535-.522-12.86.088-3.237.456-6.613.116-9.911-.1-6.242-.408-12.475-.964-18.709-1.489-5.699-.48-11.391-1.047-17.094-1.475-1.685-.127-3.408-.021-5.093.164a328.737 328.737 0 0 1-33.209 1.948c-.083.001-.166-.055-.454-.157l-.795-1.298 1.441-.977.278-8.728c-1.255 2.218-1.963 4.581-2.339 7.063-.371 2.448-.826 4.884-1.267 7.459l-1.251-.327c.052-2.796.138-5.402.863-8.05 1.271-4.643 2.277-9.373 3.123-14.114.451-2.528.356-5.156.472-7.741.096-2.139.214-4.281.184-6.419-.02-1.42-.308-2.833-.433-4.254-.259-2.935-.534-5.869-.712-8.809-.091-1.508.016-3.028.028-4.542.006-.715.008-1.43-.005-2.145-.075-3.919-.172-7.838-.221-11.758-.01-.795.164-1.592.228-2.39.07-.885.463-1.977.092-2.618-.825-1.425.353-3.144-.987-4.497-.528-.533.363-1.727 1.427-1.796 2.377-.154 4.726-.698 7.157.147 1.374.478 2.999.225 4.509.327 2.044.138 4.085.335 6.131.443 1.855.098 3.766.406 5.559.09 2.613-.46 5.114-.485 7.71.046 1.448.296 3.029.297 4.496.074 2.671-.405 5.27-.568 7.986-.158 2.083.314 4.308.13 6.407-.216 2.989-.494 5.884-.237 8.775.42 2.725.619 5.437 1.082 8.216.358a3.202 3.202 0 0 1 1.068-.09c4.709.414 9.475-.199 14.153.815.776.168 1.595.173 2.395.185 5.89.083 11.78.151 17.71.225zm-.47 2.775c-1.11-.27-1.946-.625-2.794-.655-3.757-.131-7.517-.252-11.275-.212-2.775.029-5.523.196-8.244-.626-.907-.274-1.954-.116-2.937-.105-1.522.017-3.043.099-4.565.112-1.864.016-3.731.058-5.59-.037-2.223-.114-4.535-.028-6.639-.626-3.904-1.111-7.755-1.01-11.689-.507-1.399.179-2.835.074-4.254.082-2.316.013-4.64-.096-6.948.048-2.765.172-5.481.441-8.267-.121-1.618-.327-3.435-.224-5.056.149-2.446.563-4.744.484-7.133-.213-1.261-.368-2.712-.644-3.958-.386-2.195.456-4.267.205-6.372-.258-1.611-.355-3.176-.388-4.337.298-.069 2.181-.077 4.101-.21 6.012-.086 1.241-.525 2.471-.515 3.703.086 9.919.301 19.834 1.34 29.713.146 1.388-.137 2.815-.127 4.224.014 2.032.113 4.064.182 6.272 2.309.33 4.497.827 6.701.919 4.199.176 8.409.07 12.611.188 1.864.052 3.72.363 5.58.557l-.048.393-23.642.733c-.994 2.003-1.374 13.43-.548 18.653.572.157 1.306.617 1.893.474 2.761-.672 5.519-.149 8.27-.233 5.003-.152 10.004-.615 14.988-1.128 4.644-.478 9.267-.771 13.917-.17 1.413.183 2.836.296 4.257.415 2.76.23 5.522.428 8.281.661 3.563.302 7.123.655 10.688.932 3.472.27 6.951.447 10.423.712 3.661.279 7.301.518 10.959-.198 1.474-.288 3.035-.214 4.554-.179 3.447.079 6.893.235 10.421.363.162-1.755.321-3.251.434-4.751.134-1.779.304-3.559.322-5.341.024-2.445.857-4.964-.377-7.147-3.821-.158-7.469-.262-11.112-.473-4.015-.232-8.022-.609-12.037-.84-5.888-.34-11.78-.613-17.67-.903-1.785-.088-3.573-.114-5.358-.203-5.084-.254-10.166-.55-15.251-.775-1.465-.065-2.873-.268-4.244-.857 3.645-.245 7.263-.26 10.878-.155 5.087.148 10.17.427 15.257.571 3.219.091 6.449-.098 9.66.085 4.63.264 9.247.754 13.869 1.145 2.581.218 5.162.442 7.744.646 2.96.234 5.84-.065 8.842-1.294l-.874-49.667z" fill="#1d1d1b"/>
    <path d="M167.477 41.525l.876 49.669c-3.001 1.229-5.882 1.528-8.842 1.294-2.582-.204-5.163-.428-7.744-.646-4.623-.391-9.24-.881-13.869-1.145-3.211-.183-6.442.006-9.66-.085-5.087-.144-10.17-.423-15.257-.571-3.614-.105-7.232-.09-10.878.155 1.371.589 2.779.792 4.244.857 5.085.224 10.167.521 15.251.775 1.785.089 3.573.116 5.358.203 5.891.289 11.782.563 17.67.903 4.015.232 8.022.608 12.037.84 3.643.211 7.291.315 11.112.473 1.234 2.183.401 4.702.377 7.147-.017 1.781-.188 3.562-.322 5.341-.113 1.5-.271 2.996-.434 4.751-3.528-.128-6.974-.284-10.421-.363-1.519-.035-3.08-.109-4.554.179-3.658.716-7.298.477-10.959.198-3.472-.264-6.952-.441-10.423-.712-3.565-.277-7.124-.63-10.688-.932-2.759-.234-5.522-.432-8.281-.661-1.421-.118-2.844-.232-4.257-.415-4.649-.601-9.273-.308-13.917.17-4.983.513-9.984.976-14.988 1.128-2.752.084-5.509-.439-8.27.233-.587.143-1.321-.317-1.893-.474-.826-5.222-.447-16.65.548-18.653l23.642-.733.048-.393c-1.86-.194-3.716-.505-5.58-.557-4.202-.118-8.412-.011-12.611-.188-2.204-.093-4.391-.589-6.701-.919-.069-2.208-.168-4.24-.182-6.272-.01-1.408.273-2.836.127-4.224-1.039-9.879-1.254-19.794-1.34-29.713-.011-1.232.429-2.462.515-3.703.133-1.911.141-3.831.21-6.012 1.161-.686 2.726-.653 4.337-.298 2.106.463 4.177.714 6.372.258 1.246-.259 2.696.018 3.958.386 2.389.697 4.687.776 7.133.213 1.621-.373 3.438-.476 5.056-.149 2.786.563 5.502.293 8.267.121 2.308-.144 4.631-.034 6.948-.048 1.419-.008 2.855.096 4.254-.082 3.934-.502 7.784-.604 11.689.507 2.103.599 4.415.512 6.639.626 1.859.096 3.727.053 5.59.037 1.522-.013 3.043-.095 4.565-.112.983-.011 2.03-.169 2.937.105 2.722.822 5.469.655 8.244.626 3.757-.04 7.518.081 11.275.212.846.028 1.682.382 2.792.653z" fill="#fff"/>
</svg>
