<svg xmlns="http://www.w3.org/2000/svg" viewBox="0 0 236.013 181.502">
    <path d="M177.066 48.039c.865-.499 1.206-1.096.468-1.725-.251-.214-1.133-.151-1.304.087-.53.745-.124 1.297.836 1.638zm-8.768 86.772c-1.383-.115-1.634.478-1.22 1.383.126.276.64.374 1.316.735l-.096-2.118zM60.445 48.058l.71-.156-.359-1.143-.472.087.121 1.212zm-2.748 87.997c-1.064.023-1.064.023-.8 1.109l.8-1.109z" fill="#fff"/>
    <path d="M54.421 92.783l.983-.259c-1.243-2.594-2.129-5.241-4.043-7.446-1.025-1.181-1.834-2.67-2.344-4.156a143.227 143.227 0 0 0-8.667-20.137c-1.036-1.974-1.899-4.039-2.969-6.338l1.7-1.787c1.467 1.214 2.407 2.382 3.153 4.024 1.359 2.991 3.266 5.742 5.039 8.532 2.539 3.996 5.161 7.939 7.758 11.898.18.274.446.49.913.993-.136-3.371-.278-6.377-.371-9.384-.097-3.123-.056-6.252-.244-9.369-.179-2.975-.575-5.937-.897-9.118 4.709-.488 9.086 1.082 13.658.515 1.523-3.446 3.192-6.884 4.539-10.443.504-1.331.261-2.945.374-4.676 2.356-.495 4.818-.558 7.303-.288.8.087 1.595.282 2.394.298 10.646.21 21.291.47 31.938.546 3.116.022 6.232-.577 9.357-.738 3.393-.175 6.795-.198 10.193-.242 8.245-.108 16.449.451 24.611 1.61.869.123 1.718.381 2.62.586.768 4.711 2.861 8.714 5.146 12.764h5.642l2.757-1.376c.43 1.11.933 1.887 1.013 2.706.267 2.743.306 5.509.58 8.251.248 2.482.7 4.944 1.042 7.417.379 2.739.714 5.485 1.113 8.221.112.769.383 1.514.736 2.864 1.7-2.219 3.15-3.964 4.438-5.822 2.54-3.663 4.992-7.387 7.476-11.09.596-.889 1.102-1.849 1.776-2.673.686-.839 1.251-2.028 2.851-1.651.284 1.122.004 2.143-.577 3.019-6.615 9.976-13.234 19.951-19.907 29.888-3.748 5.582-8.268 10.534-13 15.282-1.109 1.113-2.566 1.879-4.121 2.99-.491 1.241-.299 2.719.197 4.337 1.071 3.493 1.976 7.028 2.449 10.69.316 2.446 1.33 4.801 2.031 7.197l1.059 3.622c-.706.247-1.367.732-1.934.64-9.142-1.484-18.351-1.095-27.548-1.124-6.623-.021-13.247-.317-19.868-.248-5.615.058-11.226.488-16.841.705-4.023.155-8.049.3-12.075.323-4.278.024-8.557-.12-12.836-.154-2.658-.022-5.355-.302-8.165 1.54-.078-1.217-.295-1.908-.133-2.493 1.573-5.67 3.139-11.344 4.863-16.969.692-2.26.468-4.114-1.045-5.965-3.112-3.807-6.086-7.727-9.179-11.55-.699-.863-1.652-1.521-2.431-2.221l-2.456-3.784-.051.043zM173.43 52.658c-2.094-.235-4.203-.512-6.319-.684-.596-.048-1.276.441-1.816.298-4.13-1.09-8.149.607-12.245.407-2.574-.126-5.163.074-7.746.104-1.777.02-3.554-.022-5.331-.002-5.784.065-11.552.841-17.357-.186-3.057-.541-6.234-.534-9.357-.535-4.381-.001-8.761.266-13.143.337-9.384.153-18.782-.514-28.154.494-.974.105-1.973.086-2.953.016-3.633-.257-7.262-.584-10.896-.812-.459-.029-.945.374-1.532.626.174 9.793.025 19.492 2.122 29.186.861.044 1.747.154 2.629.124 4.469-.156 8.941-.553 13.405-.47 4.518.084 8.922-.686 13.304-1.421 5.944-.998 11.934-1.16 17.897-1.316 7.772-.203 15.561.227 23.343.411 6.841.162 13.681.439 20.523.523 8.148.1 16.298.054 24.448.054.956 0 1.912-.112 2.929-.177.135-.648.34-1.084.294-1.491-.832-7.314-2.397-14.531-2.868-21.896-.066-1.027-.646-2.023-1.177-3.59zM72.691 108.847c1.176 1.536 2.309 2.183 4.083 2.002 2.021-.205 4.089.038 6.135.11 3.932.138 7.864.392 11.797.41 3.574.017 7.149-.205 10.722-.337 4.648-.172 9.296-.341 13.942-.548 3.036-.135 6.069-.325 9.102-.511 2.499-.153 4.995-.42 7.496-.49 6.252-.174 12.531.076 18.695-1.398 0-.565.03-1.174-.014-1.778-.018-.252-.169-.506-.298-.738-3.737-6.666-6.031-13.909-8.48-21.092-.339-.994-.849-1.931-1.208-2.733-21.036-1.626-41.804-2.424-62.787 1.097-.733 2.609-1.321 5.216-2.198 7.722-2.147 6.136-3.74 12.481-6.987 18.284zm-3.152 23.611c4.305.146 8.768.498 13.221.405 8.041-.169 16.075-.739 24.116-.893 8.504-.163 17.015.004 25.522-.051 4.383-.028 8.766-.354 13.147-.308 4.639.049 9.276.379 13.667.576l1.571-3.271c-.443-1.512-1.332-3.284-1.421-5.095-.22-4.47-1.92-8.522-2.945-12.567-1.317-1.434-2.838-1.348-4.379-1.234-2.491.185-4.983.363-7.477.508-4.018.234-8.039.438-12.058.658-5.716.312-11.431.636-17.148.933-1.519.079-3.043.061-4.565.113-5.448.186-10.895.506-16.344.543-6.621.045-13.244-.16-19.866-.218-.861-.008-1.725.214-2.473.314l-4.65 16.737 2.082 2.85zm.698-81.589c2.428 0 4.479.005 6.529-.001 11.994-.037 23.988-.125 35.982-.089 4.016.012 8.031.328 12.046.517 2.408.114 4.814.334 7.222.352 2.143.016 4.287-.275 6.431-.269 8.491.023 16.962-.242 25.513-1.433-1.533-3.922-2.79-7.983-5.607-11.649-.831-.108-1.877-.297-2.931-.369-3.569-.245-7.143-.416-10.71-.673-6.964-.502-13.915-.615-20.883.079-6.657.663-13.331.988-20.038.66-6.697-.328-13.405-.435-20.11-.597-2.561-.062-5.125-.01-7.691-.01-2.601 4.188-3.905 8.708-5.753 13.482zm86.627 56.134c1.06-1.218 2.001-2.264 2.9-3.345.683-.821 1.172-1.875 1.997-2.494 2.206-1.657 3.113-4.028 4.092-6.438.488-1.201 1.305-2.286 2.076-3.349a47.819 47.819 0 0 1 2.853-3.533c.988-1.12 2.099-2.133 3.09-3.251.921-1.039 1.755-2.156 2.99-3.689-10.345.334-20.088-.196-29.821.797.846 4.654 7.876 23.04 9.823 25.302zM79.532 82.917l-20.926 1.494c.104.452.12.73.229.964 2.704 5.812 5.377 11.639 8.152 17.417.953 1.984 2.012 3.953 3.813 5.5 3.885-8.039 6.41-16.399 8.732-25.375zM64.22 102.284l.49-.3c-.284-.61-.588-1.213-.849-1.833a325.332 325.332 0 0 1-1.707-4.148c-.435-1.075-.787-2.189-1.294-3.227-2.106-4.314-4.173-8.652-6.426-12.89-1.249-2.349-2.822-4.527-4.274-6.767-2.537-3.915-5.092-7.818-7.823-12.008-.074.608-.163.806-.104.94.287.652.624 1.282.925 1.928 2.476 5.319 5.72 10.303 7.036 16.132.113.5.486.943.743 1.41 2.017 3.67 4.048 7.333 6.048 11.012.762 1.401 1.264 2.986 2.225 4.224 1.52 1.959 3.326 3.696 5.01 5.527zm101.466-2.443l4.164-4.749c.111-2.249.116-2.243 1.684-3.373.504-.363 1.088-.688 1.446-1.171 1.961-2.642 3.864-5.327 5.773-8.007.019-.026-.162-.195-.26-.31-4.923 5.399-10.76 10.105-12.807 17.61zm-3.838 2.805l.604.628 1.297-1.529-.239-.189-1.662 1.09z" fill="#1d1d1b"/>
    <path d="M177.066 48.039c-.96-.341-1.366-.893-.836-1.637.17-.239 1.052-.302 1.304-.087.738.629.398 1.226-.468 1.724zm-8.768 86.772l.096 2.118c-.676-.361-1.19-.459-1.316-.735-.414-.905-.163-1.497 1.22-1.383zM54.47 92.737c-.664-.614-1.568-1.072-1.12-2.364l1.07 2.41.05-.046zm5.975-44.679l-.121-1.212.472-.087.359 1.143-.71.156zm-2.748 87.997l-.8 1.109c-.264-1.086-.264-1.086.8-1.109z" fill="#1d1d1b"/>
    <path d="M173.43 52.658c.53 1.567 1.111 2.563 1.177 3.592.471 7.366 2.036 14.583 2.868 21.896.046.407-.158.842-.294 1.491-1.017.064-1.973.177-2.929.177-8.149 0-16.299.046-24.448-.054-6.842-.084-13.682-.361-20.523-.523-7.781-.184-15.571-.615-23.343-.411-5.963.156-11.953.319-17.897 1.316-4.383.736-8.786 1.505-13.304 1.421-4.464-.083-8.936.314-13.405.47-.882.031-1.769-.08-2.629-.124-2.097-9.694-1.948-19.393-2.122-29.186.587-.252 1.073-.654 1.532-.626 3.635.228 7.263.555 10.896.812.98.069 1.979.089 2.953-.016 9.371-1.009 18.769-.341 28.154-.494 4.382-.072 8.762-.339 13.143-.337 3.123.001 6.3-.006 9.357.535 5.805 1.027 11.573.251 17.357.186 1.777-.02 3.554.022 5.331.002 2.583-.029 5.172-.229 7.746-.104 4.096.2 8.114-1.497 12.245-.407.54.142 1.22-.346 1.816-.298 2.117.17 4.225.447 6.319.682zm-103.891 79.8l-2.081-2.85 4.65-16.737c.748-.1 1.611-.321 2.473-.314 6.622.058 13.245.263 19.866.218 5.449-.037 10.896-.357 16.344-.543 1.521-.052 3.045-.034 4.565-.113 5.717-.297 11.432-.621 17.148-.933 4.019-.219 8.04-.423 12.058-.658 2.494-.145 4.986-.324 7.477-.508 1.541-.114 3.062-.2 4.379 1.234 1.025 4.045 2.725 8.097 2.945 12.567.089 1.811.977 3.583 1.421 5.095l-1.571 3.271c-4.391-.196-9.027-.527-13.667-.576-4.381-.046-8.764.28-13.147.308-8.507.054-17.017-.112-25.522.051-8.041.154-16.075.724-24.116.893-4.455.093-8.917-.259-13.222-.405zm1.824-14.116c.69.91 1.359 1.185 2.029-.133l-2.029.133zm83.422-3.97l-.157.618 1.272.308.149-.587-1.264-.339zM70.237 50.869c1.848-4.775 3.152-9.294 5.752-13.483 2.565 0 5.129-.052 7.691.01 6.704.163 13.413.269 20.11.597 6.706.328 13.38.003 20.038-.66 6.968-.694 13.919-.581 20.883-.079 3.568.257 7.142.429 10.71.673 1.054.072 2.1.262 2.931.369 2.817 3.666 4.074 7.727 5.607 11.649-8.551 1.191-17.023 1.456-25.513 1.433-2.143-.006-4.288.285-6.431.269-2.408-.018-4.814-.239-7.222-.352-4.015-.189-8.03-.506-12.046-.517-11.994-.035-23.988.052-35.982.089-2.049.008-4.1.002-6.528.002zm-6.017 51.415c-1.684-1.831-3.49-3.568-5.009-5.527-.96-1.238-1.463-2.824-2.225-4.224-2.001-3.679-4.031-7.342-6.048-11.012-.257-.467-.63-.91-.743-1.41-1.316-5.83-4.56-10.813-7.036-16.132-.301-.646-.638-1.276-.925-1.928-.059-.133.03-.332.104-.94 2.731 4.19 5.286 8.093 7.823 12.008 1.451 2.24 3.025 4.418 4.274 6.767 2.253 4.238 4.32 8.575 6.426 12.89.507 1.039.859 2.153 1.294 3.227.561 1.386 1.126 2.77 1.707 4.148.261.62.565 1.223.849 1.833l-.491.3zm101.466-2.443c2.046-7.505 7.884-12.211 12.806-17.61.098.115.279.283.26.31-1.908 2.681-3.812 5.365-5.773 8.007-.358.483-.942.808-1.446 1.171-1.568 1.13-1.573 1.124-1.684 3.373a8693.43 8693.43 0 0 1-4.163 4.749zm-3.838 2.805l1.663-1.09.239.189-1.297 1.529a118.77 118.77 0 0 1-.605-.628z" fill="#fff"/>
    <path d="M88.304 92.221l1.039.178-1.176 1.834-1.24-1.15 1.427-.911-.05.049z" fill="#1d1d1b"/>
    <path d="M88.354 92.172l-1.678-.657c1.338-.77 1.338-.77 1.628.706l.05-.049zm-16.991 26.17l2.029-.133c-.671 1.319-1.339 1.043-2.029.133zm83.422-3.97l1.264.339-.149.587-1.272-.308.157-.618z" fill="#1d1d1b"/>
    <path d="M72.691 108.847c3.247-5.803 4.84-12.149 6.987-18.284.877-2.506 1.465-5.113 2.198-7.722 20.983-3.522 41.751-2.724 62.787-1.097.359.802.869 1.738 1.208 2.733 2.449 7.183 4.744 14.427 8.48 21.092.13.231.28.485.298.738.044.604.014 1.213.014 1.778-6.164 1.474-12.443 1.224-18.695 1.398-2.501.07-4.997.337-7.496.49-3.033.186-6.066.376-9.102.511-4.646.207-9.294.376-13.942.548-3.574.132-7.149.354-10.722.337-3.933-.019-7.864-.273-11.797-.41-2.047-.072-4.115-.315-6.135-.11-1.774.181-2.908-.466-4.083-2.002zm15.613-16.626c-.29-1.476-.29-1.476-1.628-.706l1.678.657-1.427.911 1.24 1.15 1.176-1.834-1.039-.178zm68.56 14.782c-1.947-2.262-8.977-20.648-9.823-25.302 9.733-.993 19.476-.463 29.821-.797-1.235 1.533-2.069 2.65-2.99 3.689-.991 1.118-2.101 2.13-3.09 3.251a47.819 47.819 0 0 0-2.853 3.533c-.771 1.063-1.588 2.148-2.076 3.349-.979 2.41-1.886 4.781-4.092 6.438-.824.619-1.313 1.673-1.997 2.494-.9 1.081-1.841 2.127-2.9 3.345zM79.532 82.917c-2.322 8.976-4.847 17.336-8.731 25.375-1.801-1.547-2.86-3.516-3.813-5.5-2.775-5.778-5.448-11.605-8.152-17.417-.109-.234-.125-.512-.229-.964l20.925-1.494z" fill="rgba(29,29,27,0.15)"/>
</svg>
