<svg xmlns="http://www.w3.org/2000/svg" viewBox="0 0 236 181.5">
    <path fill="#1d1d1b" d="M162 103.2c0 .5-.2-4.3-.5-2.8.4.8.8.9 1.3 1 1.1.2 2.3.5 3.4.6.4 0 .9-.1 1.3-.2 1.2-.3 2.4-.4 3.7-.2.9.1 1.8 0 2.7-.2.7-.1 1.5-.3 2.2-.1.9.2 1.8.1 2.7 0 1.7-.2 3.4-.3 5.1-.4.1 0 .2.1.3.1 2.6 1 5.2.7 7.8.2 1.9-.3 3.8.1 5.8.4 1.6-.5 3.4-.3 5.2.3 1.6.5 3.2.4 4.8.5h3.6c.4 0 .8.1 1.5.3-.5.3-.7.5-.9.5-2.5-.1-5-.3-7.5-.5-.9-.1-1.8-.4-2.7-.5-1.2-.1-2.4 0-3.6 0h-1.4c-1-.1-1.9-.2-2.9-.3-1.2-.1-2.4-.1-3.6.3-1.3.4-2.7.4-4.1.2-2.9-.4-5.8-.2-8.7.5-.6.2-1.1.2-1.7.2-1.2 0-2.4-.1-3.6.3-.2.1-.3.1-.5.1-2.3-.6-4.7 0-7-.1-.5 0-1-.2-1.5-.2-.3-.1-.7 0-1.2 0m-83.4 0c0 .5.2-4.3.6-2.8-.4.8-.8.9-1.3 1-1.1.2-2.3.5-3.5.6-.5 0-.9-.1-1.4-.2-1.3-.3-2.6-.4-3.9-.2-.9.1-1.9 0-2.8-.2-.8-.1-1.6-.3-2.3-.1-.9.2-1.9.1-2.8 0-1.7-.2-3.5-.3-5.3-.4-.2 0-.3.1-.4.1-2.7 1-5.4.7-8.1.2-2-.3-4 .1-6.1.4-1.7-.5-3.5-.3-5.4.3-1.6.5-3.3.4-5 .5h-3.7c-.3 0-.7.1-1.5.3.5.3.7.5.9.5 2.6-.1 5.2-.3 7.8-.5.9-.1 1.9-.4 2.8-.5 1.2-.1 2.5 0 3.7 0h1.4l3-.3c1.2-.1 2.5-.1 3.7.3 1.4.4 2.9.4 4.3.2 3.1-.4 6.1-.2 9.1.5.6.2 1.2.2 1.8.2 1.2 0 2.5-.1 3.7.3.1.1.3.1.5.1 2.4-.6 4.9 0 7.3-.1.5 0 1.1-.2 1.6-.2.4-.1.8 0 1.3 0"/>
    <path fill="#1d1d1b" d="M128.3 61.6c1.6-1.8 3-3.4 4.4-4.8 1.9-1.9 3.9-3.7 5.9-5.6.8-.8 1.7-1.6 2.5-2.5.6-.8 1.6-1.1 2.5-.9 2.9.7 5.7 1.3 8.6 1.9 2.1.4 4.2.7 6.4.9 6.5.4 13.1.7 19.6 1 2.1 0 4.2-.2 6.3-.5.8-.3 1.6.1 1.8.9v.1c.3.7 0 1.5-.7 1.8-.1 0-.2.1-.3.1-1.3.1-1.7 1-2.4 1.7-3 2.9-6 5.7-8.9 8.7-1 1.1-1.9 2.2-2.8 3.4 5.5 4.4 10.8 8.5 17.6 11 .1-.1.3-.3.5-.4l1.2-.3c-.7 1.5-1.2 2.7-1.7 3.9-.2.2-.4.3-.6.3-2.6.8-5.2 1.5-7.8 2.3-3.1 1-6.2 2.1-9.3 3.1-.4.1-.7.3-1.4.6.3 1.1.6 2.2.8 3.4.3.7.4 1.5.3 2.3-1.1 3.2-.5 6.5-.6 9.7-.2 5.3-.3 10.7-.4 16 0 .8-.6 1.5-1.3 1.5h-.2c-.8 0-1.5.2-2.2.5-3.7 1.7-7.6 2.9-11.6 3.6-3.7.7-7.4 2-11.1 2.9-1.6.4-3.3.8-4.9 1.2-4.8 1.3-9.5 2.6-14.3 3.9-1.1.3-2.2.4-3.3.6-1.7.3-3.4.7-5.5 1.1-4.8-2.3-10.5-3.2-16.2-4.2-4.5-.8-9-2.1-13.5-3.1-1.6-.4-3.3-.8-4.9-.9-2.9-.2-5.8-1-8.5-2.2-1.6-.7-3-1.1-4.4.1-.9-.2-1.5-1.1-1.3-2v-.1c.2-2 .5-4 .5-6 .2-2.6.1-5.3-.1-7.9-.5-4.8-.6-9.6-.4-14.3v-3.2c-2-.4-3.7-.7-5.4-1-2.8-.5-5.6-1.1-8.4-1.7-.4-.2-.9-.3-1.4-.3-1.6.5-2.5-.5-3.8-1.5.2-.6.5-1.1.9-1.6 4.6-4.6 9.4-9.1 14-13.7.5-.6 1-1.2 1.4-1.9l-2.2-5.2c-.1-.5-.3-.9-.6-1.3-2.5-3.1-3.5-6.9-5.3-10.4-.8-1.5-1.8-2.8-2.7-4.2-.2-.3-.5-.7-.7-1-1-2-.1-3.6 2-3.2 1.2.2 2.1-1 3.5-.3 1.2.4 2.5.6 3.8.5l9.3.6c5.2.3 10.3.7 15.5.8 4.5 0 8.9.5 13.3 1 5.5.6 11.1.8 16.7 1.1 1 0 1.9.4 2.5 1.2 2.6 3.2 5.2 6.2 7.1 9.9.8.8 1.5 1.7 2.2 2.6zm-12.6 71c2.7-.5 4.9-1 7-1.4 5.8-1.3 11.6-2.7 17.5-4.1 2.1-.5 4.2-1.3 6.4-1.9 1.5-.4 3.1-.7 4.6-1.1 1.4-.3 2.8-.8 4.1-1 3.7-.6 7.3-1.7 10.7-3.3 2.1-1 2.5-2.1 2.4-4.4-.2-2.8-.3-5.5-.3-8.3s.3-5.3.4-8c0-2.4-.1-4.9-.3-7.3-.2-1.1-.4-2.2-.7-3.3-5.7 1.6-11.2 3.2-16.7 4.7-4.3 1.2-8.6 2.2-12.9 3.4-1.2.2-2.3.6-3.3 1.2-2 1.3-2 1.4-3.7-.3-2.3-2.3-5-4.3-6.7-7.1-.2-.3-.4-.5-.7-.7-2.4-2-4.9-4.1-7.4-6.1-1.5-1.4-3.8-1.3-5.2.2l-.1.1c-2.1 2.4-4 5-6.1 7.4-1.9 2.2-3.5 4.7-6 6.2-.6-.4-1.3-.7-2.1-.8-2.1.2-4-.7-6-.9-3.5-.3-7.1-1-10.6-1.6-1.8-.3-3.6-.7-5.4-1.1l-6-1.1c-.1 1.4-.2 2.6-.2 3.7-.1 2.8-.3 5.6-.2 8.3.1 3.3.7 6.5 1 9.8 0 .8 0 1.5-.2 2.3-.1 1.3-.3 2.7-.5 4-.1.8.5 1.6 1.3 1.8 4.2 1.6 8.4 3.2 12.9 3.5 1.3.1 2.5.4 3.8.7 1.4.3 2.8.8 4.1 1.1 3.1.8 6.2 1.6 9.3 2.2 2.9.6 5.9.5 8.7 1.4.9.3 1.9-.1 2.8.1 1.7.4 2 .2 1.9-1.5-.2-2.1-.5-4.3-.6-6.4-.1-5.2-1.2-10.3-.6-15.5v-1l-.3-7.8c0-.3.1-.6.1-1 0-2.8.1-5.5.1-8.3 0-1.4-.2-2.7-.3-4-.1-.9.5-1.8 1.5-2 1.4 1.1.7 2.6.7 4 0 .7-.2 1.4-.2 2.1.1 2.3.3 4.6.4 6.8 0 .2-.1.5-.1.7-.1 1.3-.2 2.5-.2 3.8v3.8c0 2.7-.1 5.4 0 8.1.1 2.5.5 5.1.8 7.6.2 1.9.2 3.8.3 5.7s.5 4 .8 6.6zM54.8 47c1 1.7 2 3 2.7 4.5s1.4 3.2 2.1 4.8 1.5 3 2.3 4.5 1.4 3.4 2.7 4.4c1.3 1 1 3.1 2.5 4.2 1-.2 2.2-.4 3.4-.6 3.3-.6 6.5-1.4 9.9-1.7 4.1-.4 8.3-.4 12.4-.7 2.4-.2 4.7-.6 7.1-.9 2.7-.3 5.4-.4 8.1-.8 5.2-.6 10.4-1.4 15.6-2.1.8-.1 1.7-.2 2.6-.3-1.5-2.6-3-5-4.4-7.3-2-3.4-4.8-5.4-8.9-5.4h-2.6c-6-.6-12-1.2-18.1-1.8-5.1-.5-10.2 0-15.3-.7-2.8-.4-5.7-.4-8.6-.6-3.8-.3-7.6-.9-11.4-.2-.7.1-1.4.4-2.1.7zm131.3 33.4l.1-.6c-.6-.4-1.1-.8-1.8-1.1-3.7-1.8-7.1-4-10.2-6.7-1.2-1-2.6-1.8-3.9-2.7-.7-.6-1.6-.7-2.5-.3-1.8.6-3.6 1.2-5.5 1.6-5.4 1.1-10.8 2.1-16.2 3-3.5.6-7.1 1.1-10.6 1.8-3.3.8-6.7 1.4-10.1 1.7-1.9.2-3.8.5-5.6 1-1.5.3-3 .8-4.6 1.2.9 1.6 2.1 2.9 3.6 4 2.5 1.9 4.8 3.9 7.1 6.1 1.5 1.8 3.3 3.4 5.1 4.9 1.3 1 3.1 1.3 4.7.7 2.1-.7 4.3-1.2 6.5-1.7 3.2-.8 6.4-1.5 9.5-2.3s6.6-1.9 9.9-2.8c3.6-1 7.3-1.8 10.9-3 4.6-1.5 9.1-3.2 13.6-4.8zm-119.4 7c1 .7.6 1.9 1.9 2.1 4.9.8 9.6 2.1 14.5 2.7 4.3.5 8.5 1.2 12.7 2.1.8.2 1.5.4 2.6.7 2.3-2.5 4.8-5 6.9-7.8s5-4.9 6.5-8.5c-1.6-.3-3-.7-4.5-.9s-2.7-.1-4-.3c-2.9-.3-5.8-.9-8.8-1.1-6.2-.3-12.1-1.9-18.2-2.7-.4-.1-.8-.2-1.1-.4-2.4-1.1-5-1.6-7.7-1.4-1 .1-2 0-3.5 0L51.5 85.3c1.7.6 3.1 1.1 4.4 1.5 2.3.5 4.7.9 7 1.4l3.6.7.2-1.5zm115.7-33.5c-1.6-.4-3.3-.5-5-.4-5.8-.3-11.6-.7-17.4-1.1-1.9-.1-3.8-.2-5.7-.5-2.9-.5-5.8-1.3-8.6-1.8-1.1-.3-2.2-.1-3.2.3-1.7 1.3-3.4 2.7-4.9 4.2-.8.8-1.6 1.6-2.3 2.4-1.6 1.8-3.1 3.5-5.1 5.8 2.7.2 4.7.4 6.7.6 3 .2 6 .4 9.1.7l9.3.7c4.1.3 8.3.7 12.4.8 1.6 0 3.5 0 4.5-1.9.3-.3.6-.5.9-.8l9.3-9zm-54.6 21c0-2.9.1-5.8.1-8.8-.1-.6-.5-1.1-1-1.4-.7-.3-1.4-.3-2.1-.2-3.8.4-7.6 1-11.4 1.4-4.9.5-9.9 1-14.8 1.4-3.6.3-7.1.6-10.7 1-4.5.4-9 .9-13.6 1.4-.8.2-1.6.4-2.3.6.3.4.7.7 1.1.8 2.8.7 5.5 1.3 8.3 2s5.3 1.2 8 1.6c4.8.6 9.7 1.1 14.5 1.6 1.1.1 2.2 0 3.3 0 1 0 2 0 3 .2 2 .5 4 1 6.2.5 3.9-.9 7.7-1.4 11.4-2.1zm37.3-7.3c-5.9-.7-11.8-1.9-17.8-1.9s-12-1.2-18-.8l.4 10c11.9-2.6 23.9-4.1 35.4-7.3z"/>
    <path fill="#1d1d1b" d="M121.3 47.6l-1.8-.6.6-1 1.5 1-.3.6zM46 81c.2-.3.5-.5.8-.7.4.2.7.5.9.9-.1.2-.3.4-.5.6-.4-.2-.8-.5-1.2-.8zm68.8-34.4c.8-1 1.4-.7 2.3 0h-2.3z"/>
    <path fill="#fff" d="M115.7 132.6c-.2-2.6-.5-4.6-.6-6.7-.1-2.1-.2-3.8-.3-5.7-.2-2.5-.6-5.1-.8-7.6-.1-2.7 0-5.4 0-8.1 0-1.3-.1-2.5 0-3.8s.1-2.5.2-3.8c.1-.2.1-.5.1-.7-.1-2.3-.3-4.6-.4-6.8 0-.7.2-1.4.2-2.1 0-1.3.7-2.8-.7-4-.9.2-1.6 1.1-1.5 2 .1 1.4.3 2.7.3 4 0 2.8-.1 5.5-.1 8.3 0 .3-.1.6-.1 1l.3 7.8v1c-.5 5.2.5 10.3.6 15.5.1 2.1.5 4.3.6 6.4.1 1.7-.2 1.8-1.9 1.5-.9-.2-1.9.1-2.8-.1-2.8-.9-5.8-.8-8.7-1.4-3.1-.6-6.2-1.4-9.3-2.2-1.4-.3-2.8-.8-4.1-1.1-1.2-.3-2.5-.6-3.8-.7-4.5-.3-8.7-1.8-12.9-3.5-.8-.2-1.4-.9-1.3-1.8.1-1.3.3-2.7.5-4 .1-.8.1-1.6.1-2.4-.3-3.3-.8-6.5-1-9.8-.1-2.8.1-5.5.2-8.3 0-1.2.1-2.3.2-3.7l6 1.1c1.8.4 3.6.8 5.4 1.1 3.5.6 7 1.2 10.6 1.6 2 .2 3.9 1.2 6 .9.7.1 1.5.4 2.1.8 2.5-1.5 4.1-4 6-6.2 2.1-2.4 4-5 6.1-7.4 1.3-1.5 3.6-1.7 5.2-.4l.1.1c2.5 2 4.9 4.1 7.4 6.1.3.2.5.4.7.7 1.7 2.9 4.4 4.8 6.7 7.1 1.7 1.7 1.8 1.6 3.7.3 1-.6 2.2-1 3.3-1.2 4.3-1.1 8.6-2.2 12.9-3.4 5.5-1.5 11-3.1 16.7-4.7.3 1.1.5 2.2.7 3.3.2 2.4.3 4.9.3 7.3 0 2.7-.4 5.3-.4 8s.1 5.5.3 8.3c.1 2.4-.3 3.4-2.4 4.4-3.4 1.6-7 2.7-10.7 3.3-1.4.2-2.8.7-4.1 1-1.5.4-3.1.7-4.6 1.1-2.1.6-4.2 1.4-6.4 1.9-5.8 1.4-11.6 2.8-17.5 4.1-2.2.6-4.4 1-7.1 1.6zM54.8 47c.7-.4 1.5-.6 2.2-.9 3.8-.6 7.6 0 11.4.2 2.9.2 5.8.2 8.6.6 5.1.8 10.2.2 15.3.7 6 .7 12 1.3 18.1 1.8h2.6c4.1 0 6.9 2 8.9 5.4 1.4 2.4 2.8 4.8 4.4 7.3-1 .1-1.8.2-2.6.3l-15.6 2.1c-2.7.3-5.4.5-8.1.8-2.4.3-4.7.7-7.1.9-4.1.3-8.3.2-12.4.7-3.3.3-6.6 1.1-9.9 1.7-1.2.2-2.3.5-3.4.6-1.6-1.1-1.1-3-2.5-4.2-1.4-1.2-1.9-2.9-2.7-4.4s-1.5-3-2.3-4.5-1.3-3.2-2.1-4.8-1.8-2.6-2.8-4.3z"/>
    <path fill="#fff" d="M186.2 80.4c-4.6 1.6-9.1 3.4-13.7 4.9-3.6 1.2-7.3 2-10.9 3-3.3.9-6.6 1.9-9.9 2.8s-6.4 1.5-9.5 2.3c-2.2.5-4.3 1-6.5 1.7-1.6.6-3.4.3-4.7-.7-1.9-1.4-3.6-3.1-5.1-4.9-2.2-2.2-4.6-4.2-7.1-6.1-1.5-1.1-2.7-2.4-3.6-4 1.6-.4 3.1-.9 4.6-1.2 1.8-.5 3.7-.8 5.6-1 3.4-.3 6.8-.9 10.1-1.7 3.5-.7 7.1-1.2 10.6-1.8l16.2-3c1.9-.4 3.7-1 5.5-1.6.8-.4 1.8-.2 2.5.3 1.3 1 2.7 1.7 3.9 2.7 3.1 2.6 6.6 4.9 10.2 6.6.6.3 1.2.7 1.8 1.1v.6zm-119.4 7l-.2 1.6-3.6-.7c-2.3-.5-4.7-.9-7-1.4-1.4-.3-2.7-.9-4.4-1.5L64.1 72c1.5 0 2.5.1 3.5 0 2.6-.2 5.3.2 7.7 1.4.4.2.7.3 1.1.3 6.1.8 12 2.4 18.2 2.7 2.9.1 5.9.7 8.8 1.1 1.3.1 2.7.1 4 .3s2.9.6 4.5.9c-1.5 3.6-4.4 5.7-6.5 8.5s-4.6 5.2-6.9 7.8c-1.1-.3-1.9-.5-2.6-.7-4.2-.9-8.4-1.6-12.7-2.1-4.9-.6-9.7-1.9-14.5-2.7-1.3-.2-.9-1.4-1.9-2.1zm115.6-33.5l-9.5 8.9c-.3.2-.7.5-.9.8-1 1.9-2.9 1.9-4.5 1.9-4.1-.1-8.3-.5-12.4-.8l-9.3-.7c-3-.2-6-.4-9.1-.7-2-.2-4.1-.4-6.7-.6 2-2.2 3.5-4 5.1-5.8.7-.8 1.5-1.6 2.3-2.4 1.5-1.5 3.2-2.9 4.9-4.2 1-.5 2.1-.6 3.2-.3 2.9.5 5.8 1.3 8.6 1.8 1.9.3 3.8.4 5.7.5 5.8.4 11.6.8 17.4 1.1 1.8 0 3.5.1 5.2.5z"/>
</svg>
