<svg xmlns="http://www.w3.org/2000/svg" viewBox="0 0 236 181.5">
    <path fill="#1d1d1b" d="M88.6 100.4c0-.5.3 4.3.7 2.8-.6-.8-1.1-.9-1.9-1-1.6-.2-3.3-.5-4.9-.6-.6 0-1.3.1-1.9.2-1.7.3-3.4.4-5.3.2-1.3-.1-2.6 0-3.9.2-1 .1-2.1.3-3.1.1-1.3-.2-2.6-.1-3.9 0-2.4.2-4.9.3-7.3.4-.1 0-.3-.1-.4-.1-3.7-1-7.4-.7-11.1-.2-2.7.3-5.4-.1-8.3-.4-2.3.5-4.9.3-7.4-.3-2.3-.5-4.6-.4-6.9-.5h-5.1c-.6 0-1.1-.1-2.1-.3.7-.3 1-.5 1.3-.5 3.6.1 7.1.3 10.7.5 1.3.1 2.6.4 3.9.5 1.7.1 3.4 0 5.1 0h2c1.4.1 2.7.2 4.1.3 1.7.1 3.4.1 5.1-.3 2-.4 4-.4 6-.2 4.1.4 8.3.2 12.4-.5.9-.2 1.6-.2 2.4-.2 1.7 0 3.4.1 5.1-.3.3-.1.4-.1.7-.1 3.3.6 6.7 0 10 .1.7 0 1.4.2 2.1.2.6.1 1.1 0 1.9 0m55.7-.1c0-.5-.3 4.7-.9 3 .6-.9 1.2-1 1.9-1.1 1.6-.2 3.4-.5 5.2-.7.7 0 1.3.1 2.1.2 1.9.3 3.9.4 5.8.2 1.3-.1 2.8 0 4.2.2 1.2.1 2.4.3 3.4.1 1.3-.2 2.8-.1 4.2 0 2.5.2 5.2.3 7.9.4.3 0 .4-.1.6-.1 4-1.1 8-.8 12-.2 3 .3 5.9-.1 9-.4 2.5.5 5.2.3 8-.3 2.4-.5 4.9-.4 7.4-.5h5.5c.4 0 1-.1 2.2-.3-.7-.3-1-.5-1.3-.5-3.9.1-7.7.3-11.6.5-1.3.1-2.8.4-4.2.5-1.8.1-3.7 0-5.5 0h-2.1c-1.5.1-3 .2-4.4.3-1.8.1-3.7.1-5.5-.3-2.1-.4-4.3-.4-6.4-.2-4.6.4-9 .2-13.5-.5-.9-.2-1.8-.2-2.7-.2-1.8 0-3.7.1-5.5-.3-.1-.1-.4-.1-.7-.1-3.6.7-7.3 0-10.8.1-.7 0-1.6.2-2.4.2-.5.1-1.1 0-1.9 0"/>
    <path fill="#fff" d="M63.5 48.3c1-.3 1.7-.8 1.1-1.7-.3-.3-.9-.4-1.3-.2-1.1.6-.2 1.3.2 1.9zM39.8 64.6l.4-2c-.2-.1-.4-.1-.7-.1-.7.5-.6 1.1.3 2.1zm134-12.6c0-1.2-.2-1.8-1.1-1.6-.2.2-.3.6-.2.9.3.3.8.5 1.3.7zM67 48.3l-.6.1c.1.3.2.8.3 1.1.2 0 .4-.1.7-.1l-.4-1.1zm102.9 1.8c.2.2.4.6.7.7l.6-.3-.6-.9-.7.5zm19.3 85.8c-.1 1.3-.1 1.3.9 1.9l-.9-1.9zm-146 2.8c.2.2.4.3.8.4.2-.2.4-.4.6-.7-.1-.2-.3-.3-.6-.4-.2.2-.5.3-.8.7z"/>
    <path fill="#1d1d1b" d="M56.2 98l-2.4 8.7c-.7 2.2-1.3 4.5-2 6.6-.1.4-.4.9-.9 1.2-.6.3-1.2.2-1.6-.3-.1-.2-.2-.4-.2-.7.1-.8.3-1.6.6-2.4 2.2-6.2 4.5-12.4 6.7-18.6.1-.2.2-.6.3-.7 1.5-1.8.1-4.5 2.4-6.3 1.8-1.5 3.2-3.4 4.3-5.5 2-3.6 5-6.5 6.4-10.5.6-1.2 1.2-2.4 2-3.5.6-.8.8-1.8.7-2.7-.2-1.1.6-2.2 1.8-2.5h.1c1-.2 1.9-.2 2.9-.2 5.9.1 11.8.4 17.7.6 6.4.1 12.6.1 19 .1 1.5 0 2.8.3 4.3.3 3.6.2 7.2.3 10.7.6 8.4.4 16.8 1 25.2 1.6.8 0 1.6 0 2.4.1 1.2.2 2.5-.9 3.6.2 1.7 1.6 2.9 3.5 3.6 5.6.2.8.4 1.6.7 2.2 1.3 2.8 2.9 5.5 4.1 8.4 1.3 2.8 3 5.3 5 7.6.6.7.9 1.5 1.1 2.2.8 2 1.6 4 2.4 5.9 1.1 2.7 2.2 5.3 3.5 7.8 1 2 2.2 4 3.5 5.9.4.8.7 1.6-.2 2.1-.6.3-1.2.2-1.6-.3-.1-.1-.1-.2-.2-.4-.4-.9-.4-1.9-.9-2.8-2.2-5.3-4.6-10.4-7.4-15.6.1.7.2 1.5.3 2.1.4 2.5.9 4.9 1.5 7.4.1 1 .4 1.9.8 2.8 1.6 3.9 2.7 8.1 3.1 12.2.2 1.1-.9 2.2-1.8 1.7-2-1.1-4.1-.7-6.3-.8h-4.7c-1.7 3.4-2.5 7.1-2.4 10.7l-2.5 1.1c-.7-1.1-1.8-1.2-3.1-1.3-4.7-.1-9.4-.6-14.2-.7-6.3-.1-12.4-.3-18.7.1-5.9.4-12 .7-17.9 1-2.4.1-4.8 0-7.3 0-4.6 0-9.1-.2-13.7.2-3.9.3-7.8-.6-11.8-.2-1-.1-1.9-.1-2.9 0-1 .3-1.9.8-2.8 1.2l-3.6-11.4c-2.9.3-5.6-.3-8.4.8-1.3.6-3.1-.1-4.7-.3.6-3.8 1.1-7.4 1.7-11.1.6-3.7 1.2-7.1 1.9-10.6l-.1.4zm.2 19.6l14.9.4h.2c10 1.5 20 .4 30-.3 2.4-.2 4.8-.7 7.2-.8 9-.4 17.9-.3 26.8.2 2.8.2 5.7.1 8.6.1s5.9.1 8.8.1c6.6-.2 13.2-.4 19.8-.7 1.3 0 2.7.2 3.1-1.6.4-.3.9-.6 1.5-.6-2.5-8.2-3.5-16.6-6-24.6-4.9-1.1-9.7-1-14.6-1.2-.6.2-1 .6-1.5.9-.6.2-1 .4-1.6.6l-.4-1.3c-2.1.1-4.1.1-6.3 0-4.4-.7-8.7-.1-13.1 0-10.4.3-20.8 1-31.3.4-2.2-.1-4.5.3-6.7.3-8.1-.2-16.2-.7-24.4-.9-3.7-.1-7.3 0-11.3 0-1.3 9.8-3.9 19.1-3.7 29zm4.8-30.8c31.3 1.7 62.1 1 93 .2 1-5.7 2-11.4 2.8-17.2.1-1.2 0-2.5-.2-3.7-27-2.1-53.8-3-80.9-3 .1 1.9.2 3.5.3 5.1.2 3.5.6 6.9.8 10.4 0 .7.3 1.7-1 2l-1.3-15.1c-4.5 7.1-8.1 14.6-13.5 21.3zm103 31.9h-5.8c-7.3 0-14.7.1-21.9 0-5.4-.1-10.7-.8-16.1-.6-9 .3-17.9 1-26.8 1.7-7.7.7-15.3.7-23.1-.1h-2.4c.9 2.6 1.8 4.8 2.5 7.2.2 1 1.1 1.6 2.1 1.5h.1c1.5-.2 3-.2 4.5-.2 2.4 0 4.8.3 7.3.3 5.4-.1 10.6-.4 16-.6 6.4-.2 12.9-.2 19.3-.4 1.5 0 2.8-.7 4.3-.4 2.6.3 5.1.3 7.7-.1 1.5-.1 2.8-.1 4.3 0 2.5.2 5 .3 7.5.2 5-.3 10 .4 14.9.6 1.6 0 2.9-.2 3.7-1.6 1.1-2.4 2.5-4.7 1.9-7.5zm6.2-31.1c-.2-.7-.4-1.2-.7-1.8-1.5-2.8-3-5.6-4.5-8.5-.2-.4-.4-1-.8-1.3-1.5-1.7-2.6-3.7-3-5.8-.3-1.1-1.1-2-2.1-2.6-1.2 6.6-3 12.9-3 19.5l14.1.5zM63.5 48.3c-.3-.7-1.2-1.3-.1-2 .4-.1.9 0 1.3.2.5 1.2-.1 1.5-1.2 1.8zM40 64.6c-.9-1-1.1-1.6-.3-2.1.2 0 .4 0 .7.1l-.4 2zM173.8 52c-.6-.2-1-.4-1.5-.7 0-.3.1-.7.2-.9 1-.2 1.4.3 1.3 1.6zM67 48.3l.4 1c-.2.1-.4.1-.7.1-.1-.3-.3-.8-.3-1.1h.6zm102.9 1.8l.7-.6.6.9c-.1.1-.3.2-.6.3-.2 0-.5-.2-.7-.6zm19.3 85.8l.9 1.9c-1.1-.6-1.1-.6-.9-1.9zm-146 2.8c.2-.2.6-.4.9-.6.2.1.4.2.6.4-.1.2-.3.4-.6.7-.3-.2-.7-.3-.9-.5z"/>
    <path fill="#fff" d="M56.4 117.6c-.2-10 2.4-19.3 3.9-28.9 3.9 0 7.6-.1 11.3 0 8.1.2 16.2.7 24.4.9 2.2.1 4.5-.4 6.7-.3 10.4.6 20.9-.1 31.3-.4 4.4-.1 8.7-.7 13.1 0 2.1.1 4.1.1 6.3 0l.4 1.3c.6-.1 1.1-.3 1.6-.6.4-.4.9-.7 1.5-.9 4.8.2 9.6.1 14.6 1.2 2.6 8.1 3.6 16.3 6 24.6-.6.1-1 .3-1.5.6-.4 1.8-1.8 1.6-3.1 1.6-6.6.2-13.2.6-19.8.7-2.9.1-5.9 0-8.8-.1s-5.7.1-8.6-.1c-9-.7-17.9-.8-26.8-.2-2.4.1-4.8.6-7.2.8-10 .8-19.9 1.8-30 .3h-.2l-15.1-.5z"/>
    <path fill="rgba(29,29,27,0.25)" d="M60.2 87.3c5.5-7 9.1-14.8 13.9-22.1 0 0 1.3-.3 1.2-2.4 27.5 0 54.5.9 82 3.1.2 1.2.2 2.6.2 3.9-.9 5.9-1.9 11.9-2.8 17.9-31.5.7-62.8 1.4-94.5-.4z"/>
    <path fill="#fff" d="M164.2 118.7c.6 2.9-.8 5-2 7.2-.7 1.3-2.1 1.6-3.7 1.6-4.9-.1-10-1-14.9-.6-2.5 0-5 0-7.5-.2-1.5-.1-2.8-.1-4.3 0-2.6.3-5.1.4-7.7.1-1.3-.2-2.8.3-4.3.4-6.4.2-12.9.2-19.3.4-5.4.1-10.6.4-16 .6-2.4 0-4.8-.2-7.3-.3-1.5 0-3 .1-4.5.2-.9.2-1.9-.2-2.2-1.2v-.1c-.7-2.2-1.6-4.5-2.5-7.2h2.4c7.6.8 15.3.8 23.1.1 9-.7 17.8-1.3 26.8-1.7 5.4-.1 10.7.6 16.1.6 7.3.1 14.7 0 21.9 0l5.9.1z"/>
    <path fill="rgba(29,29,27,0.25)" d="M171.4 87.7l-15.3-.1c0-6.7 2.1-13.9 3.3-20.5 1 .6 1.8 1.5 2.1 2.6.6 2.1 1.6 4.1 3 5.8.3.4.6.9.8 1.3 1.5 2.8 3 5.6 4.5 8.5.2.8 1.2 1.9 1.6 2.4z"/>
    <path fill="#1d1d1b" d="M76.9 86.3l-.9-5.2c1.9 1.8 2.1 3.1 1.3 5l-.4.2z"/>
</svg>
