<svg xmlns="http://www.w3.org/2000/svg" viewBox="0 0 236 181.5">
    <path fill="#fff" d="M91.8 58.8c-1.8.1-3.5.2-5.2.4-1 .2-1.9.6-2.7 1.2-.8.6-.1 1.3.1 1.9v.7c-.2 5.2-.5 10.3-.6 15.5-.1 4.7 0 9.4 0 14 0 1.4.3 2.9.3 4.3 0 4.4 0 8.8-.1 13.2-.1 3 .1 6-.9 9-.5 1.5.8 2.4 2.5 2.1 1.5-.2 3-.4 4.5-.4 1.7 0 3.3.3 5 .4 3.8.2 7.6.2 11.5.5 2.7.2 5.4.6 8.1.9 2.1.2 4.1.6 6.2.8 2.7.2 5.4.2 8.1.3 4.3.2 8.6.6 12.9.7 2.7-.1 5.4.2 8 .9.7.4 1.6 0 2-.7.2-.3.2-.7.1-1-.3-2.2-.5-4.4-.4-6.5 0-2.5-.3-5.1-.2-7.6 0-3.4.3-6.9.4-10.3.1-5.5.2-11 .2-16.5V70.5c0-2.4-.1-4.8 1.1-7 .8-1.4.2-2.3-1.4-2.3-2.3-.2-4.6-.3-6.9-.3-6.2.4-12.4-.4-18.5-.9-4-.3-8.1-.8-12.1-1.1-2.3-.2-4.6-.3-6.9-.3-4.1 0-8.1.2-12.2.3-.3 0-.5-.1-.8-.2l.6-1.9-2.5.6-.2 1.4zm-11.3 55.8l.3-.5-1.1-.8-.4.7 1.2.6zm2.2-.3c-.3-.2-.6-.4-.9-.5l-.6.6c.2.2.4.4.7.5.3-.1.6-.4.8-.6z"/>
    <path fill="#1d1d1b" d="M91.8 58.8l-.1-1.4 2.5-.6-.6 1.9c.2.1.5.2.8.2l12.2-.3c2.3 0 4.6.1 6.9.3 4 .3 8.1.8 12.1 1.1 6.2.5 12.3 1.2 18.5.9 2.3 0 4.6.1 6.9.3 1.6.1 2.1.9 1.4 2.3-1.2 2.2-1.1 4.6-1.1 7v12.1c0 5.5-.1 11-.2 16.5-.1 3.4-.3 6.9-.4 10.3 0 2.5.3 5.1.2 7.6-.1 2.2 0 4.4.4 6.5.2.8-.2 1.6-1 1.8-.3.1-.7.1-1-.1-2.6-.7-5.3-1-8-.9-4.3-.1-8.6-.5-12.9-.7-2.7-.1-5.4-.1-8.1-.3-2.1-.1-4.1-.5-6.2-.8-2.7-.3-5.4-.7-8.1-.9-3.8-.2-7.6-.3-11.5-.5-1.7-.1-3.3-.4-5-.4-1.5 0-3 .2-4.5.4-1.8.2-3-.7-2.5-2.1.9-3 .7-6 .9-9 .2-4.4.1-8.8.1-13.2 0-1.4-.2-2.9-.3-4.3 0-4.7-.1-9.4 0-14 .1-5.2.4-10.3.6-15.5v-.7c-.2-.6-.9-1.4-.1-1.9.8-.6 1.7-1 2.7-1.2 1.9-.2 3.7-.2 5.4-.4zm57.6 4.4c-2.7-.1-5.3-.2-7.9-.4-6.6-.4-13.2-.8-19.8-1.3-1 0-1.9-.1-2.9-.2-5.6-1-11.3-.6-17-.8-3.7-.1-7.3.1-11 .3-1.9.1-3.9.5-5.6.8 0 4.3.1 8.1 0 12-.1 6.2-.4 12.4-.5 18.6 0 7.4.1 14.9.1 22.3 0 1.5.3 2.9.5 4.4 3.9.3 7.6.8 11.2.8 8.9-.1 17.6 1.7 26.4 2.2 3.8.2 7.6.6 11.4.8 4 .1 8 .1 12 .1.8-.1 1.6-.2 2.3-.4.9-19.8 1.6-39.3.8-59.2zm-68.9 51.4l-1.2-.6.4-.7 1.1.8-.3.5z"/>
    <path fill="#1d1d1b" d="M82.7 114.3c-.2.3-.5.5-.8.6-.3-.1-.5-.2-.7-.5.1-.3.3-.5.6-.6.3.1.6.3.9.5z"/>
    <path fill="#fff" d="M149.4 63.2c.8 19.9.1 39.4-.6 59.2-.8.2-1.5.3-2.3.4-4 0-8 .1-12-.1-3.8-.1-7.6-.6-11.4-.8-8.8-.4-17.5-2.2-26.4-2.2-3.6 0-7.3-.5-11.2-.8-.2-1.5-.4-3-.5-4.4-.1-7.4-.2-14.9-.1-22.3 0-6.2.4-12.4.5-18.6.1-3.9 0-7.8 0-12 1.7-.2 3.6-.6 5.6-.8 3.7-.2 7.4-.4 11-.3 5.6.2 11.3-.3 17 .8 1 .1 1.9.2 2.9.2 6.6.4 13.2.9 19.8 1.3 2.4.1 5 .2 7.7.4z"/>
</svg>
