<svg xmlns="http://www.w3.org/2000/svg" viewBox="0 0 236 181.5">
    <path fill="#1d1d1b" d="M88.6 100.4c0-.5.3 4.3.7 2.8-.6-.8-1.1-.9-1.9-1-1.6-.2-3.3-.5-4.9-.6-.6 0-1.3.1-1.9.2-1.7.3-3.4.4-5.3.2-1.3-.1-2.6 0-3.9.2-1 .1-2.1.3-3.1.1-1.3-.2-2.6-.1-3.9 0-2.4.2-4.9.3-7.3.4-.1 0-.3-.1-.4-.1-3.7-1-7.4-.7-11.1-.2-2.7.3-5.4-.1-8.3-.4-2.3.5-4.9.3-7.4-.3-2.3-.5-4.6-.4-6.9-.5h-5.1c-.6 0-1.1-.1-2.1-.3.7-.3 1-.5 1.3-.5 3.6.1 7.1.3 10.7.5 1.3.1 2.6.4 3.9.5 1.7.1 3.4 0 5.1 0h2c1.4.1 2.7.2 4.1.3 1.7.1 3.4.1 5.1-.3 2-.4 4-.4 6-.2 4.1.4 8.3.2 12.4-.5.9-.2 1.6-.2 2.4-.2 1.7 0 3.4.1 5.1-.3.3-.1.4-.1.7-.1 3.3.6 6.7 0 10 .1.7 0 1.4.2 2.1.2.6.1 1.1 0 1.9 0m55.7-.1c0-.5-.3 4.7-.9 3 .6-.9 1.2-1 1.9-1.1 1.6-.2 3.4-.5 5.2-.7.7 0 1.3.1 2.1.2 1.9.3 3.9.4 5.8.2 1.3-.1 2.8 0 4.2.2 1.2.1 2.4.3 3.4.1 1.3-.2 2.8-.1 4.2 0 2.5.2 5.2.3 7.9.4.3 0 .4-.1.6-.1 4-1.1 8-.8 12-.2 3 .3 5.9-.1 9-.4 2.5.5 5.2.3 8-.3 2.4-.5 4.9-.4 7.4-.5h5.5c.4 0 1-.1 2.2-.3-.7-.3-1-.5-1.3-.5-3.9.1-7.7.3-11.6.5-1.3.1-2.8.4-4.2.5-1.8.1-3.7 0-5.5 0h-2.1c-1.5.1-3 .2-4.4.3-1.8.1-3.7.1-5.5-.3-2.1-.4-4.3-.4-6.4-.2-4.6.4-9 .2-13.5-.5-.9-.2-1.8-.2-2.7-.2-1.8 0-3.7.1-5.5-.3-.1-.1-.4-.1-.7-.1-3.6.7-7.3 0-10.8.1-.7 0-1.6.2-2.4.2-.5.1-1.1 0-1.9 0"/>
    <path fill="#1d1d1b" d="M72.2 68.2c5 .2 10.1.4 15.4.6 4.5.1 9.2.1 13.7.2 8.1.2 16.2.5 24.2.6 4.8.1 9.8-.2 14.7-.2 1.1 0 2.3.1 3.3.1 2-.1 4.1-.1 6.2-.3 1.3-.1 2.6 0 3.9-.1 1 0 1.9-.1 2.8 0 1.8.2 3.5.3 5.4.6.5.2.8.8 1 1.3 1.8 4.8 3.5 9.7 5.4 14.5.9 2.5 1.4 5.1 2.9 7.4.5.7.4 1.5-.3 2-.1.1-.2.1-.3.2-1 .3-2-.3-2.3-1.2v-.1c-.3-1-.4-2.1-.7-3-1.3-4.6-2.9-9-4.6-13.5 0 .4 0 1 .1 1.4.7 3.7 1.4 7.3 2.1 10.8.1 1.3.2 2.6 0 3.9 0 1-.4 1.7-2 1.1.1 6.1.2 12 .2 17.8 0 2.7-.5 5.3-.4 8 0 2.9-.5 5.8.7 8.6.1.8.1 1.5-.1 2.3-.6 0-1.4-.1-2-.4-2-.9-4.4-1.2-6.6-.7-1.1.2-2.1-.3-3.3-.2-4.4 0-8.9.1-13.5.1-4 0-8-.2-11.9-.2s-7.8.3-11.7.5c-2 .1-4.1-.1-6.3 0-2.7 0-5.3.1-8 .1-.3 0-.6.1-1.1.1l-20.9-.3c-2.3-.1-4.5.2-6.9.3-1.7.1-1.7.1-3-2.3.4-.1.9-.3 1.2-.6 1-1.1 1.9-2.2 1.4-3.8-.1-.4-.1-.9-.1-1.3 0-7.4-.1-14.8 0-22.2 0-2.7.1-5.5.2-8.6-.7.3-1.4.6-2.2.8-.5.2-1.2.2-1.8 0-.4-.5-.6-1.3-.5-2.1 1-.9.7-2 .8-3.1.2-1.3.7-2.5 1.2-3.6.7-1.8 1.5-3.6 2.2-5.6.2-.7.3-1.6.1-2.4-1.8 2.5-3.4 5.3-4.6 8.1-1 2.6-2.1 5.1-3.2 7.6-.1.3-.2.6-.5 1-.3.5-1.1.7-1.6.4-.3-.1-.4-.4-.5-.8-.2-.7-.2-1.3 0-1.9 2.9-6 6.1-11.7 9.5-17.4 1.2-1.6 1.7-3 2.3-4.5zm88.2 60.2c.1-.3.2-.6.3-1 .1-4.1.1-8.1.2-12.1.1-3.4.1-6.9 0-10.3-.2-1.6-.1-3.2 0-4.8.6-2.5.4-5.1-.5-7.4-3-.1-6-.1-9-.2-4.4-.2-8.7-.2-13.1 0-4.4.3-8.9-.3-13.5-.4-6.7-.2-13.5-.2-20.1-.3-2.8-.2-5.5-.1-8.3.1-3.3.3-6.7.5-10 .4-4.3-.2-8.5-.2-12.6-.3-1.5 12-.8 23.8-.7 35.8.6.1 1.3.2 1.9.3 5.4.1 10.8.4 16.2.4 7.5.1 15.1-.1 22.7-.1 6.6-.1 13.3 0 19.8.1 1.9 0 4 .1 5.9.1 6 0 12 0 18-.1 1.2-.2 2.1-.2 2.8-.2zm2.7-37.6c-.1-1.1-.1-1.9-.3-2.7-.8-4.5-1.4-9-2.1-13.5-.1-1.8-1.4-3.3-3.1-3.6-1-.2-2-.4-3.1-.3-6.3 0-12.4 0-18.5.1-3.9 0-7.8.1-11.6.1-6.8-.2-13.6-.3-20.4-.5-4-.1-8-.1-11.9-.1-5.7.2-11.4-1.6-17.2.1-.7 1.3-1.2 2.6-1.8 3.9-.6 1.5-.8 3.2-1.2 4.7-.5 1.8-1.1 3.6-1.4 5.5-.4 1.8-1.6 3.3-.7 5.2 2.7.2 5.3.3 8 .5 5.7.2 11.3.9 17 .4 5.9-.6 11.9-.7 17.8-.3 5.8.5 11.7.5 17.6.5 5.4 0 10.8-.2 16.2-.1 4.3 0 8.7.2 13.1.3.9.1 2.1-.1 3.6-.2z"/>
    <path fill="#1d1d1b" d="M172.3 99.4l-1.9-1.1c1.2-.8 1.4 0 1.9 1.1z"/>
    <path fill="#fff" d="M160.4 128.4c-.8 0-1.6 0-2.5-.1-6 0-12 0-18 .1-1.9 0-4-.1-5.9-.1-6.6-.1-13.3 0-19.8-.1-7.5 0-15.1.1-22.7.1-5.4 0-10.8-.3-16.2-.4-.6 0-1.3-.1-1.9-.3-.1-12-.7-23.7.7-35.8 4.1.1 8.3.1 12.6.3 3.3.2 6.7.1 10-.4 2.7-.1 5.5-.2 8.3-.1 6.7.1 13.5.1 20.1.3 4.4.1 8.9.8 13.5.4 4.4-.2 8.7-.2 13.1 0 3 .1 5.9.1 9 .2.9 2.4 1.1 5 .5 7.4-.1 1.6-.2 3.2 0 4.8V115c0 4.1-.1 8.1-.2 12.1-.2.7-.4 1-.6 1.3zm2.7-37.6c-1.5.1-2.7.4-3.9.3l-13.1-.3c-5.4 0-10.8.2-16.2.1-5.8 0-11.7-.1-17.6-.5s-11.8-.3-17.8.3c-5.7.5-11.3-.2-17-.4-2.6-.1-5.3-.3-8-.5-.9-1.9.3-3.4.7-5.2.4-1.7 1-3.6 1.4-5.5.5-1.6.6-3.2 1.2-4.7.6-1.4 1.1-2.7 1.8-3.9 5.9-1.7 11.6.1 17.2-.1 4-.1 8 0 11.9.1 6.8.2 13.6.4 20.4.5 3.9.1 7.8 0 11.6-.1 6.3-.1 12.4-.1 18.5-.1 1.1 0 2 .2 3.1.3 1.7.3 3.1 1.8 3.1 3.6.6 4.5 1.4 9 2.1 13.5.5.7.5 1.5.6 2.6z"/>
</svg>
