<svg xmlns="http://www.w3.org/2000/svg" viewBox="0 0 236.013 181.502">
    <path fill="#fff" d="M190.821 46.746v-2.375l-23-13.375-67.125-3.75-22.207-1.741-24.168 12.741 38.625 2.5 66.25 4z"/>
    <path d="M79.647 32.628l.065-.737c-2.395-1.168-5.38.966-7.851-1.144l6.376-4.254c1.889.168 3.769.548 5.629.466 10.159-.449 20.156 1.571 30.264 1.873 6.254.187 12.501.585 18.752.882 4.195.199 8.393.357 12.586.597 1.6.091 3.189.382 4.786.541 1.864.185 3.736.298 5.599.493 2.751.288 5.494.652 8.246.921 1.168.114 1.356-.223 1.198-2.102-2.098 0-4.242.15-6.358-.031-4.623-.395-9.225-1.02-13.847-1.429-3.2-.283-6.428-.606-9.627-.481-6.822.267-13.592-.431-20.384-.722-2.946-.127-5.887-.39-8.826-.641-5.163-.441-10.315-1.05-15.486-1.342-4.278-.242-8.59.047-12.7-1.567-1.135-.446-2.434-.06-2.718 1.013-.418 1.576-1.631 2.108-2.729 2.732-3.731 2.119-7.534 4.109-11.315 6.138-2.512 1.348-4.941 2.895-7.886 3.201-.303.031-.571.395-.685.48.269 1.971.418 3.8.779 5.585 1.733 8.581 4.6 16.886 5.996 25.564 1.106 6.873 2.792 13.651 4.115 20.491.26 1.345.037 2.784.037 4.225-1.097.515-2.075.947-3.027 1.428-2.871 1.451-5.821 2.775-8.565 4.438-1.676 1.016-3.19 1.971-5.229 1.155l-1.233 1.69 1.101 1.047h9.124c-.92 3.252-3.216 5.634-5.205 8.19.278.188.481.4.552.362 3.868-2.041 5.418-6.28 8.608-9.07 1.802.113 3.67.206 5.534.354 3.648.289 7.289.694 10.942.89 3.397.182 6.804.147 10.207.221 2.769.06 5.538.205 8.306.193 4.113-.017 8.226-.226 12.338-.197 5.902.041 11.803.221 17.704.342 2.954.061 5.914.022 8.86.203 7.227.443 14.442 1.115 21.673 1.457 7.418.351 14.849.532 22.276.559 2.884.01 4.639 1.356 6.127 3.524.805 1.173 1.658 2.327 2.618 3.371.345.375 1.066.525 1.62.536.255.005.521-.572.888-1.011-1.815-1.543-2.298-3.55-2.805-5.997 4.633.802 9.079.249 13.448 1.359-2.016-1.392-4.049-2.623-6.177-3.657-4.346-2.111-8.747-4.105-13.114-6.173-.632-.299-1.596-.642-1.716-1.133-.347-1.42-1.693-1.752-2.437-2.586.358-1.844.572-3.615 1.055-5.31 1.145-4.019 2.419-8.003 3.639-12.001.286-.937.547-1.882.855-2.812 2.074-6.265 3.884-12.638 6.363-18.738 1.089-2.68 2.313-5.377 3.521-8.043.591-1.303 1.401-2.699.898-4.351-.317-.169-.623-.341-.936-.497-3.36-1.678-6.793-3.226-10.062-5.065-3.349-1.885-6.55-4.036-9.788-6.113-.654-.419-1.237-.984-1.761-1.564-1.22-1.35-1.809-1.392-3.497-.093.454 1.989 2.283 2.379 3.76 3.082 1.515.721 3.024 1.398 4.56 2.699-2.481 0-4.603-.022-6.724.006-2.238.029-4.479.045-6.713.177-2.039.12-4.158-.382-6.109.64 6.919.968 13.938-.36 20.819 1.122.526.113 1.166-.304 1.464-.39l11.991 6.638-.106.538c-.93.022-1.861.095-2.788.058-4.649-.181-9.296-.394-13.944-.587-1.431-.059-2.868-.031-4.295-.143-8.017-.625-16.02-1.553-24.048-1.852-9.214-.343-18.397-.943-27.583-1.691-9.361-.762-18.749-1.209-28.125-1.781a84.751 84.751 0 0 0-4.563-.169c-8.275-.06-16.5-1.508-24.799-.895-.056.004-.12-.094-.334-.272 2.248-1.213 4.454-2.361 6.616-3.588 1.29-.732 2.601-.94 4.091-.929 3.366.022 6.738-.201 10.109-.323zm57.634 3.645l.043-.515c-5.754-.672-11.51-1.31-17.344-.896.365.348.753.617 1.159.651 4.888.406 9.778.791 14.671 1.135.479.033.98-.243 1.471-.375zm12.647-.072l-4.916-.541-.065.638c1.604.582 3.278.521 4.981-.097z" fill="#fff"/>
    <path d="M79.647 32.628c-3.371.122-6.742.345-10.112.321-1.491-.011-2.801.197-4.091.929-2.162 1.226-4.368 2.374-6.616 3.588.214.178.278.276.334.272 8.299-.613 16.524.835 24.799.895 1.521.011 3.044.076 4.563.169 9.377.572 18.764 1.019 28.125 1.781 9.186.748 18.369 1.347 27.583 1.691 8.028.299 16.032 1.228 24.048 1.852 1.427.111 2.864.083 4.295.143 4.648.193 9.296.406 13.944.587.927.036 1.859-.036 2.788-.058l.106-.538-11.991-6.638c-.299.087-.939.504-1.464.39-6.881-1.483-13.9-.154-20.819-1.122 1.951-1.022 4.07-.52 6.109-.64 2.233-.132 4.474-.148 6.713-.177 2.121-.027 4.243-.006 6.724-.006-1.536-1.301-3.045-1.978-4.56-2.699-1.478-.703-3.306-1.093-3.76-3.082 1.687-1.299 2.277-1.257 3.497.093.524.58 1.107 1.145 1.761 1.564 3.238 2.077 6.439 4.229 9.788 6.113 3.269 1.839 6.702 3.387 10.062 5.065.313.156.619.328.936.497.503 1.652-.307 3.047-.898 4.351-1.208 2.666-2.432 5.363-3.521 8.043-2.479 6.101-4.289 12.473-6.363 18.738-.308.93-.569 1.875-.855 2.812-1.22 3.998-2.493 7.981-3.639 12.001-.483 1.695-.698 3.466-1.055 5.31.744.834 2.09 1.165 2.437 2.586.12.491 1.084.834 1.716 1.133 4.367 2.068 8.768 4.063 13.114 6.173 2.128 1.034 4.16 2.265 6.177 3.657-4.369-1.11-8.815-.557-13.448-1.359.506 2.447.989 4.454 2.805 5.997-.367.439-.633 1.016-.888 1.011-.554-.011-1.274-.16-1.62-.536-.96-1.044-1.813-2.199-2.618-3.371-1.488-2.168-3.243-3.514-6.127-3.524a509.21 509.21 0 0 1-22.276-.559c-7.231-.343-14.446-1.014-21.673-1.457-2.947-.181-5.907-.142-8.86-.203-5.901-.121-11.802-.302-17.704-.342-4.112-.028-8.225.18-12.338.197-2.768.012-5.537-.133-8.306-.193-3.403-.073-6.811-.039-10.207-.221-3.653-.196-7.294-.601-10.942-.89-1.863-.147-3.731-.24-5.534-.354-3.19 2.79-4.739 7.029-8.608 9.07-.071.038-.274-.174-.552-.362 1.989-2.556 4.285-4.939 5.205-8.19h-9.124l-1.101-1.047 1.233-1.69c2.039.815 3.553-.14 5.229-1.155 2.744-1.663 5.694-2.987 8.565-4.438.953-.481 1.931-.913 3.027-1.428 0-1.441.223-2.88-.037-4.225-1.323-6.841-3.009-13.619-4.115-20.491-1.397-8.678-4.264-16.983-5.996-25.564-.361-1.786-.51-3.614-.779-5.585.114-.084.382-.448.685-.48 2.945-.305 5.374-1.853 7.886-3.201 3.781-2.029 7.585-4.019 11.315-6.138 1.099-.624 2.311-1.156 2.729-2.732.285-1.074 1.583-1.459 2.718-1.013 4.11 1.613 8.422 1.325 12.7 1.567 5.171.292 10.323.901 15.486 1.342 2.939.251 5.88.514 8.826.641 6.791.292 13.562.99 20.384.722 3.199-.125 6.426.197 9.627.481 4.622.409 9.224 1.035 13.847 1.429 2.116.181 4.26.031 6.358.031.157 1.879-.031 2.216-1.198 2.102-2.752-.269-5.495-.633-8.246-.921-1.863-.195-3.735-.308-5.599-.493-1.598-.159-3.186-.449-4.786-.541-4.193-.24-8.39-.397-12.586-.597-6.251-.297-12.498-.695-18.752-.882-10.107-.3-20.104-2.32-30.263-1.87-1.86.082-3.74-.298-5.629-.466l-6.376 4.254c2.471 2.11 5.457-.024 7.851 1.144l-.063.736zM66.522 92.502c6.307.421 12.444.995 18.593 1.197 6.874.226 13.759.133 20.639.146 4.647.009 9.294-.101 13.94-.044 5.004.062 10.005.304 15.008.38 5.632.086 11.266.002 16.897.122 7.312.156 14.647-.664 22.131.71.375-1.107.757-2.087 1.038-3.094 1.273-4.554 2.487-9.124 3.787-13.67.589-2.059 1.33-4.076 1.999-6.112.669-2.036 1.289-4.089 2.014-6.105 1.06-2.942 2.23-5.844 3.288-8.787 1.125-3.129 1.348-6.596 3.526-9.334.127-.159.04-.488.061-.891-3.516-.259-6.981-.545-10.45-.756-1.691-.103-3.396.015-5.084-.112-5.346-.402-10.686-.884-16.031-1.31-1.691-.135-3.39-.159-5.082-.289-3.206-.248-6.407-.746-9.612-.765-7.337-.044-14.633-.583-21.935-1.216-10.423-.903-20.849-1.809-31.289-2.46-7.584-.473-15.193-.519-22.79-.787-2.477-.087-4.942-.558-7.381.486-.619.265-1.539-.232-2.327-.291-.635-.048-1.279.037-2.02.066.316 2.9.366 5.503.915 7.996 1.898 8.63 4.023 17.21 5.955 25.833 1.19 5.31 2.171 10.667 3.283 15.996.213 1.028.6 2.019.927 3.091zm124.767 12.833c-1.814-.864-3.373-1.503-4.83-2.322-4.271-2.399-9.265-3.094-13.431-5.742-.419-.267-1.034-.233-1.56-.324a74.404 74.404 0 0 0-15.214-1.03c-3.569.124-7.144.372-10.709.285-5.447-.133-10.888-.697-16.334-.734-8.484-.058-16.97.18-25.455.274-2.771.031-5.546.102-8.312-.019-6.253-.274-12.499-.718-18.752-.972-4.529-.184-9.052-.033-13.49 1.077-3.862.966-7.207 3.009-10.85 5.053 3.203 0 6.124-.145 9.027.031 5.705.346 11.393 1.131 17.1 1.269 13.326.323 26.66.553 39.989.47 9.68-.06 19.275 1.07 28.921 1.412 6.609.234 13.216.529 19.824.786 4.378.171 8.755.373 13.134.469 3.52.079 7.043.017 10.942.017z" fill="#1d1d1b"/>
    <path d="M137.281 36.273c-.491.132-.992.408-1.472.374-4.893-.344-9.783-.729-14.671-1.135-.407-.034-.794-.302-1.159-.651 5.834-.413 11.59.225 17.344.896-.013.173-.027.345-.042.516zm12.647-.072c-1.703.618-3.377.679-4.981.096l.065-.638 4.916.542z" fill="#1d1d1b"/>
    <path d="M66.522 92.502c-.327-1.072-.714-2.063-.928-3.091-1.112-5.328-2.093-10.685-3.283-15.996-1.932-8.623-4.057-17.203-5.955-25.833-.548-2.493-.598-5.096-.915-7.996.741-.03 1.386-.114 2.02-.066.788.059 1.709.555 2.327.291 2.439-1.043 4.904-.573 7.381-.486 7.597.268 15.207.314 22.79.787 10.44.651 20.866 1.556 31.289 2.46 7.302.633 14.598 1.172 21.935 1.216 3.205.019 6.407.518 9.612.765 1.691.131 3.391.154 5.082.289 5.345.426 10.685.908 16.031 1.31 1.688.127 3.393.008 5.084.112 3.47.212 6.935.497 10.45.756-.021.403.066.732-.061.891-2.178 2.738-2.401 6.204-3.526 9.334-1.058 2.943-2.229 5.845-3.288 8.787-.726 2.015-1.345 4.069-2.014 6.105-.67 2.037-1.41 4.053-1.999 6.112-1.3 4.546-2.514 9.116-3.787 13.67-.282 1.007-.664 1.987-1.038 3.094-7.484-1.374-14.82-.554-22.131-.71-5.631-.12-11.265-.037-16.897-.122-5.004-.076-10.005-.319-15.008-.38-4.646-.057-9.294.053-13.94.044-6.88-.013-13.765.08-20.639-.146-6.148-.203-12.285-.777-18.592-1.197zm124.767 12.833c-3.899 0-7.423.061-10.944-.016-4.379-.096-8.756-.298-13.134-.469-6.608-.258-13.215-.552-19.824-.786-9.645-.342-19.24-1.472-28.921-1.412-13.329.083-26.663-.147-39.989-.47-5.707-.138-11.395-.923-17.1-1.269-2.902-.176-5.824-.031-9.027-.031 3.643-2.044 6.988-4.086 10.85-5.053 4.438-1.11 8.961-1.262 13.49-1.077 6.254.254 12.499.699 18.752.972 2.766.121 5.541.05 8.312.019 8.485-.094 16.971-.332 25.455-.274 5.446.037 10.886.601 16.334.734 3.565.087 7.14-.161 10.709-.285a74.404 74.404 0 0 1 15.214 1.03c.527.09 1.141.057 1.56.324 4.166 2.647 9.16 3.342 13.431 5.742 1.46.818 3.019 1.457 4.832 2.321z" fill="#fff"/>
</svg>
