<svg xmlns="http://www.w3.org/2000/svg" viewBox="0 0 236 181.5">
    <path fill="#1d1d1b" d="M79.8 100.4c0-.5.3 4.3.6 2.8-.5-.8-1-.9-1.6-1-1.4-.2-2.9-.5-4.3-.6-.5 0-1.1.1-1.6.2-1.5.3-3 .4-4.7.2-1.1-.1-2.3 0-3.4.2-.9.1-1.9.3-2.8.1-1.1-.2-2.3-.1-3.4 0-2.1.2-4.3.3-6.4.4-.1 0-.3-.1-.4-.1-3.3-1-6.5-.7-9.8-.2-2.4.3-4.8-.1-7.3-.4-2 .5-4.3.3-6.5-.3-2-.5-4-.4-6-.5h-4.5c-.5 0-1-.1-1.9-.3.6-.3.9-.5 1.1-.5 3.1.1 6.3.3 9.4.5 1.1.1 2.3.4 3.4.5 1.5.1 3 0 4.5 0H36c1.3.1 2.4.2 3.6.3 1.5.1 3 .1 4.5-.3 1.6-.4 3.4-.4 5.2-.2 3.6.4 7.3.2 10.9-.5.8-.2 1.4-.2 2.1-.2 1.5 0 3 .1 4.5-.3.3-.1.4-.1.6-.1 2.9.6 5.9 0 8.8.1.6 0 1.3.2 1.9.2.6.1 1.1 0 1.7 0m85.6 0c0-.5-.2 4.3-.7 2.8.4-.8.9-.9 1.4-1 1.2-.2 2.5-.5 3.8-.6.5 0 1 .1 1.5.2 1.4.3 2.8.4 4.2.2 1-.1 2.1 0 3 .2.9.1 1.7.3 2.5.1 1-.2 2.1-.1 3 0 1.8.2 3.8.3 5.8.4.2 0 .3-.1.4-.1 2.9-1 5.9-.7 8.8-.2 2.2.3 4.3-.1 6.6-.4 1.8.5 3.8.3 5.9-.3 1.7-.5 3.6-.4 5.4-.5h4c.3 0 .8-.1 1.6-.3-.5-.3-.8-.5-1-.5-2.8.1-5.6.3-8.5.5-1 .1-2.1.4-3 .5-1.3.1-2.7 0-4 0h-1.5l-3.3.3c-1.3.1-2.7.1-4-.3-1.5-.4-3.1-.4-4.7-.2-3.4.4-6.6.2-9.9-.5-.7-.2-1.3-.2-2-.2-1.3 0-2.7.1-4-.3-.1-.1-.3-.1-.5-.1-2.6.6-5.3 0-7.9.1-.5 0-1.2.2-1.7.2-.3.1-.7 0-1.2 0"/>
    <path fill="#fff" d="M177.8 61.4l1.7-3.2-22-2.3-23.2-3.4-11.4 10.4-2.6.6-11.7-10.8-24.1 1.7-37-.7 7.5 5.5 12.8 10.7 36.3-3.5 15.4-2.1 8.7.7 32.4 4.7-39.5 7.2-50.5-6.2-2 .8-6.1 8.5-.6 3-6.6 7.9 11.5 2.3 6.7 2-.3 29.1 24.3 5.7 20.8 4.5 7.5-4.1 15.2-3.9 6.5.2 20.5-6 .1-15.5 1.2-10.7.7-5 1-12.5-9.2-7 3-1.3z"/>
    <path fill="#1d1d1b" d="M118.9 135.7c-2.6-.6-4.6-1.1-6.7-1.7-2.3-.6-4.6-1.4-6.9-1.9-3-.6-6-.8-9-1.4-6.6-1.2-13.2-2.5-19.8-3.7-.5-.1-.9-.1-1.4 0-2.2.4-3.1-.5-2.9-2.6.2-1.4.3-2.8.3-4.2 0-2.1-.2-4.3-.1-6.4.1-3.5.3-7 .4-10.5 0-1.1-.1-2.2-.3-3.3-.1-1.2-.2-2.3-.3-3.5 1.8-.3 2.4.2 2.3 1.6 0 .9.1 1.8.1 2.8s-.2 1.9-.2 2.8c-.1 4.5-.7 8.9 0 13.4.1 1.6 0 3.2-.1 4.7 0 2.5.5 2.9 3 3.5 6 1.5 12.1 2.6 18.3 3.4 3.2.4 6.3.9 9.4 1.5s6.3 1.8 9.4 2.7c.9.3 1.8.4 3 .6l.8-4.5h.4l.4 2.9c.7 0 1.5-.2 2.2-.5 1.5-1.1 3.4-1.8 5.2-2.1 4.5-.8 8.9-1.7 13.4-2.6.4-.1.8-.2 1.2-.2 4.6.4 8.7-1.4 12.9-2.9 1.6-.6 3.4-.8 5.1-1.2 2.2-.6 4.3-1.1 6.4-1.8 1.2-.3 2-1.5 1.8-2.7-.2-2.9-.3-5.7-.1-8.6.2-4 .6-7.9 1-11.9.2-2.1.3-4.3.5-6.6-.9.1-1.8.3-2.6.6-2.7 1.4-5.7 1.5-8.6 2.1-3.4.8-6.8 1.8-10.2 2.6-2.1.5-4.2.9-6.3 1.2-2 .4-4 1.3-5.5 2.7-1.4 1.1-2 .9-3-.5-3.3-5.1-5.7-10.6-8.2-16.1-.5-1.2-1.3-2.3-2.3-3.9-.2 1.4-.4 2.3-.4 3.2-.2 5.3 0 10.7.6 16 .1.3.1.7.1 1-.2 4-.5 8.1-.7 12.2 0 .9-.1 1.8-.1 2.6-.1 3.9-.7 7.9-1.8 11.6-.2.1-.3.2-.5.2.1-1.4.2-2.8.4-4.2.5-2.6.5-5.3.2-7.9-.3-1.5 0-3 .9-4.2.8-1.1.5-3.1.3-4.6-.2-2-.3-4.1-.2-6.2 0-2.6-.1-5.3-.5-7.9-.1-1.3-.1-2.5-.2-3.8V80c-.5.9-1 1.6-1.5 2.4-2.2 3-4.4 5.9-6.5 8.9-.5.6-.9 1.3-1.2 2-.3 1.2-.5 2.4-1.7 3.2-.5.4-.6 1.4-.8 2.2-.5 1.6-1.8 2.5-3.2 1.8-2.4-1-4.9-1.1-7.5-1.3-3.5-.3-7-.9-10.5-1.4s-6.8-1-10.2-1.5c-1.6-.3-3.1-.8-4.6-1.1-3.8-.7-7.5-1.5-11.3-2.1-1.1-.2-2.4 0-3.5-.2-1.4-.2-2.8-.6-4.3-.9.2-.5.4-1 .7-1.5 2.2-2.4 4.5-4.7 6.7-7 .4-.3.6-.7.7-1.2.1-2.8 2.1-4.6 3.3-6.8.9-1.9 2-3.6 3.2-5.6-1.1-.8-2.1-1.5-3.1-2.3-3-2.6-6.2-5-9.6-7-1.2-.8-2.3-1.8-3.3-2.8-1.5-1.2-3.1-2.3-5.2-1.9-.3-.1-.6-.2-.9-.4l-.2-2.6c1.4-.9 2.7-.4 4 0 1.6.4 3.3.4 4.9-.1 1.3-.2 2.7-.2 4-.1.4 0 .8.2 1.2.2l14.1.6c1.7.1 3.4.3 5 .2 3.8-.1 7.7-.3 11.5-.4 2.6-.1 5.2-.2 7.9-.4 2.1-.1 4.3-.4 6.4-.6.9-.1 1.9-.4 2.8-.7 1.5-.5 2.4-.4 3.1.8 1.1 2 3 3 4.5 4.5s2.9 2.8 4.2 4.2c1.3 1.5 3.2 2 4.8.5 2.1-1.9 4.1-4 6-6.1 1-1.1 1.9-2.3 2.8-3.6.5 0 1.2-.1 1.8 0a23142318770858336 23142318770858336 0 0 1 25 3.1c3.7.2 7.3 1 10.9 1.2 2.5.2 5.1 0 7.6 0 .8-.1 1.6 0 2.3.2 2.5.9 2.6 2.2.8 4-1 .9-1.8 2-3.3 2-.3.1-.6.3-.8.5l-8.7 5.1c-.5.3-1 .7-1.7 1.2.6.9 1.2 1.7 1.8 2.4 2.8 3.7 5.6 7.3 8.5 11 1.1 1.4 2.3 2.8 3.5 4.2.6.7.5 1.7-.1 2.3l-.1.1c-.4.7-1.2.9-1.9.5-.1 0-.1-.1-.2-.1-.5-.3-1-.4-1.5-.3-1.4.1-2.7.3-4 .4-1.8.2-2.1.5-2.4 2.4s-.4 3.6-.5 5.5c-.1 3-1.2 6-.4 9v.5c-1.3 4.3-.3 8.5.2 12.8.2 1.7-.3 2.4-1.9 2.7l-9.8 2c-.5.1-.9.2-1.4.4-3.5 1-7 2.1-10.5 3-.6.1-1.3.2-1.9.2-4.1.1-8.1.9-12 2.1-.9.3-1.9.5-2.9.4-2.5-.1-4.8 1-6.9 2.5-1.4 1-2.5 1.8-3.3 2.5zM50.9 55c2.5 2 4.5 4.2 6.9 5.6 2.4 1.3 4.5 3 6.5 4.8 2 1.9 4.1 3.3 6.9 3.4s5.4.7 8.1 0c2.8-.6 5.6-.6 8.4 0-4.5 1.4-8.7.6-12.9 1.7 1.8 1.2 4.2-.2 6 1.5-2.1.6-4.3.6-6.4-.1-1.9-.6-3.9-.8-5.8-.4-1.5 2.6-3 5.2-4.6 7.8-.7.9-1.1 2-1.1 3.1 0 1-.5 2-1.4 2.7-1.6 1.7-3.1 3.5-4.8 5.4.4.3.9.5 1.3.7 4 1.1 8.1 1.8 12.2 2.2 2.2.1 4.5.5 6.6 1.2 3.8 1.4 7.8 1.4 11.7 2.1 5.1.9 10.2 1 15.4 1.5.7.1 1.5-.2 2-.6 1-1.3 2-2.6 2.9-4 .9-1.3 1.5-2.8 2.4-4.1 1.3-1.9 2.9-3.6 4.3-5.5s2.4-3.7 3.9-5.9c-2.8-.5-5-.9-7.3-1.2-5.9-.8-11.7-1.4-17.6-2.3-1.5-.2-3.1-.5-4.2-1.9 2.4.2 4.8.7 7.1 1s4.9.5 7.4.8 4.9.5 7.3.8 4.9.7 7.3 1v-11c-.5-.1-.9-.1-1.4-.1-3.5.4-7 .6-10.5 1.1-5.7.8-11.4 1.8-17 2.6-.6.1-1.4.5-2.1-.6 10-2.1 20.1-3.7 30.2-4.6-2.6-2.6-4.7-4.8-6.9-7-1.8-1.9-4.3-2.9-6.9-2.7-1.7.1-3.3.4-5 .5-6.1.4-12.3.8-18.4 1-3.2.1-6.4-.1-9.6-.2-4.4-.2-8.8-.3-13.1-.7-2.7-.5-5.3-.2-7.8.4zm83 42.9c3.1-.8 6-1.5 8.9-2.2 2.2-.6 4.5-1.1 6.7-1.7 1.3-.4 2.6-.9 3.9-1.1 3.8-.8 7.8-1 11.4-2.5 3.6-1.3 7.4-2.1 11.2-2.3.8-.2 1.5-.4 2.2-.7-1.6-2-3-3.6-4.3-5.3-2.5-3.2-4.9-6.5-7.3-9.8-.8-1.2-2.1-1.8-3.5-1.5-2.3.3-4.6.4-6.9.7-6.2 1-12.5 2-18.7 3-4.9.9-9.8 1.9-14.7 2.9-.3.1-.5.3-.7.6.1.4.2.7.4 1 3.1 3.4 4.5 7.8 6.6 11.8 1.4 2.6 2.6 5.3 4.8 7.1zM154 68.1c.9.1 1.5.2 2.2.3 1.1.2 2.2.2 3.3 0 1-.2 2-.2 3 .1 1.5.1 2.9-.2 4.2-.9 2.6-1.3 5.1-2.9 7.7-4.3 1.6-.9 2.8-2.4 3.2-4.2-1.8-.2-3.4-.5-5-.6s-3-.1-4.5-.3c-4-.4-8.1-.9-12.1-1.4-3.2-.4-6.6-.4-9.7-1.3-3.5-.9-6.9-1-10.4-1.4-1-.1-2.4 0-2.9.6-.9 1.1-2.2 1.5-3.1 2.4l-6.6 6.9c1.6.3 3.2.6 4.9 1 1.7.4 3.4.9 5.1 1.2s3.3.2 5 .5 3.4.8 5.1 1.1 3.3.3 5 .5 3.4-.4 5 .6c-.1.2-.3.4-.5.6-.5.1-1.1.2-1.6.2-5.2-.5-10.5-.9-15.7-1.6-4.9-.7-9.8-1.9-14.5-2.8-1.6 3.6-.5 7.2-1 10.9 1.1-.1 1.9-.1 2.7-.2 2.6-.4 5.1-1 7.7-1.4 4.6-.8 9.3-1.5 13.9-2.3l12.6-2.1c-.5-.4-1.1-.6-1.7-.7-.4-.3-1.1-.2-1.3-1.4z"/>
    <path fill="#1d1d1b" d="M128.7 133c-.1.5-.3 1-.6 1.5-.7-.1-1.4-.2-2.1-.4v-.6l2.7-.5zm-51-4.8c.3.2.6.5.8.8-.2.4-.4.7-.7 1.1-.4-.3-.7-.6-.9-1 .2-.4.5-.7.8-.9zM56.1 67.5c-.9.7-1.5.8-2-.2.6-.6 1.1-.5 2 .2zm101.6 52.6l1.1-1 .3.2c-.2.3-.4.7-.6 1-.3-.1-.5-.1-.8-.2z"/>
    <path fill="#fff" d="M133.9 97.9c-2.2-1.8-3.4-4.5-4.8-7.2-2-4-3.5-8.4-6.6-11.8-.2-.3-.3-.6-.4-1 .2-.2.4-.4.7-.6 4.9-1 9.8-2 14.7-2.9 6.2-1.1 12.4-2.1 18.7-3 2.3-.4 4.6-.4 6.9-.7 1.4-.2 2.7.4 3.5 1.5 2.4 3.3 4.8 6.6 7.3 9.8 1.3 1.7 2.7 3.3 4.3 5.3-.7.3-1.4.5-2.2.7-3.8.2-7.6 1-11.2 2.3-3.7 1.4-7.6 1.6-11.4 2.5-1.3.3-2.6.8-3.9 1.1-2.2.6-4.5 1.2-6.7 1.7-2.9.8-5.8 1.5-8.9 2.3zm15.7-5.2l-.1-.6-2.5.3.1.7c.8.3 1.8.1 2.5-.4zm-18-12.9c.8-1.4-.1-1.4-.9-1.5-.3.1-.5.2-.7.3l1.6 1.2z"/>
    <path fill="#1d1d1b" d="M82.1 72.4c1.4-.4 2.5-1 3.9 0-1.3.5-2.4 1.2-3.9 0zm67.5 20.3c-.7.6-1.7.7-2.5.4l-.1-.7 2.5-.3.1.6zm-17.9-12.9l-1.5-1.2c.2-.2.4-.3.7-.3.7.1 1.6.2.8 1.5zm40.6-17.6c.3 1.5-.4 1.2-1.6 1.2l1.6-1.2z"/>
</svg>
