<svg version="1.1"
   xmlns="http://www.w3.org/2000/svg" xmlns:xlink="http://www.w3.org/1999/xlink" x="0px" y="0px" viewBox="0 0 236 180.8"
   style="enable-background:new 0 0 236 180.8;display:none;" xml:space="preserve">
<style type="text/css">
  .st0{fill:#1D1D1B;}
  .st1{fill:#FFFFFF;}
  .st2{opacity:0.35;enable-background:new;}
</style>
  <defs>
    <g id="00">
    <path class="st0" d="M115,91.2c0.8,0,1.6,0.1,2.3,0.2c0.3,0,0.7-0.1,1.1-0.1c0.7-0.1,1.4-0.2,2.2-0.2c0.3,0,0.6,0,0.9,0
      c-0.1-0.2-0.2-0.3-0.3-0.5c-0.3-0.1-0.5-0.2-0.8-0.3c-0.3,0-0.5-0.2-1-0.4c-0.5,0.1-1,0.1-1.6,0.1c-0.3,0-0.7,0-1,0
      c-0.2,0-0.4,0.1-0.7,0.1c-0.4,0.3-0.8,0.5-1.3,0.7c-0.1,0.1-0.2,0.2-0.3,0.3h0.1C114.8,91.2,114.9,91.2,115,91.2z"/>
    </g>
  </defs>
</svg>
