<svg version="1.1"
   xmlns="http://www.w3.org/2000/svg" xmlns:xlink="http://www.w3.org/1999/xlink" x="0px" y="0px" viewBox="0 0 236 180.8"
   style="enable-background:new 0 0 236 180.8;display:none;" xml:space="preserve">
<style type="text/css">
  .st0{fill:#1D1D1B;}
  .st1{fill:#FFFFFF;}
  .st2{opacity:0.35;enable-background:new;}
</style>
  <defs>
    <g id="04">
    <path class="st0" d="M199.8,90h-6c-2.7-0.1-5.4,0-8.1-0.5c-3-0.6-6-0.8-8.7-0.3c-3.4-0.3-6.5-0.7-9.7-0.4c-4.4,0.5-8.7,0.8-13.1-0.2
      c-0.2,0-0.3-0.1-0.5-0.1c-2.9,0.1-5.7,0.2-8.6,0.4c-1.5,0.1-3,0.2-4.5,0c-1.2-0.2-2.5,0-3.7,0.1c-1.5,0.2-3,0.3-4.5,0.2
      c-2.2-0.2-4.2-0.1-6.2,0.2c-0.7,0.1-1.5,0.2-2.2,0.2c-1.8-0.1-3.9-0.4-5.7-0.6c-0.6-0.1-1.2-0.1-1.7-0.5c0.1,0.7-0.1,1.2,0,1.6
      c0.3,0.1,0.8,0.6,1.1,0.7c0.5,0,0.9,0,1.3,0c0.8,0,1.7,0.2,2.5,0.2c3.9,0.1,7.9-0.5,11.8,0.1c0.3,0,0.5,0,0.8-0.1c2-0.4,4-0.3,6-0.3
      c1,0,1.8,0,2.9-0.2c4.9-0.7,9.7-0.9,14.6-0.5c2.4,0.2,4.7,0.2,6.9-0.2c2-0.4,4-0.4,6-0.3c1.7,0.1,3.2,0.2,4.9,0.3h2.4c2,0,4-0.1,6,0
      c1.5,0.1,3,0.4,4.5,0.5c4.2,0.2,8.4,0.4,12.6,0.5c0.3,0,0.7-0.2,1.5-0.5C201.2,90.1,200.5,90,199.8,90z"/>
    <path class="st0" d="M111.5,89.7c1.5,0.1,3.1,0.4,4.5,0.6c0.2,0,0.3,0,0.5,0c0.6,0,1.2,0.1,1.7,0.1c-0.1-0.5-0.1-1.1-0.2-1.5
      c-0.7-0.2-1.4-0.4-2-0.7h-0.1c-0.8,0-1.7-0.3-2.5-0.3c-3.7-0.1-7.5,0.6-11.2-0.1c-0.3,0-0.6,0-0.8,0.1c-1.8,0.5-3.8,0.4-5.7,0.4
      c-0.9,0-1.8,0-2.8,0.3c-4.6,0.9-9.2,1.1-14,0.6c-2.2-0.3-4.5-0.3-6.6,0.3c-1.8,0.5-3.8,0.5-5.7,0.4c-1.5-0.1-3.1-0.3-4.6-0.4h-2
      c-1.8,0-3.8,0.1-5.7,0c-1.4-0.1-2.9-0.5-4.3-0.6c-4-0.3-8-0.5-12-0.6c-0.3,0-0.6,0.3-1.4,0.6c1.2,0.3,1.8,0.4,2.3,0.4h5.7
      c2.6,0.1,5.2,0,7.7,0.6c2.9,0.8,5.7,1,8.3,0.4c3.2,0.4,6.3,0.9,9.4,0.5c4.2-0.6,8.3-1,12.5,0.3c0.2,0,0.3,0.1,0.6,0.1
      c2.8-0.1,5.5-0.3,8.2-0.5c1.4-0.1,2.9-0.3,4.3,0c1.1,0.3,2.3,0,3.5-0.1c1.4-0.3,2.9-0.4,4.3-0.3c2,0.3,4,0.1,6-0.3
      C110.2,89.8,110.8,89.7,111.5,89.7z"/>
    </g>
  </defs>
</svg>
