<svg version="1.1"
   xmlns="http://www.w3.org/2000/svg" xmlns:xlink="http://www.w3.org/1999/xlink" x="0px" y="0px" viewBox="0 0 236 180.8"
   style="enable-background:new 0 0 236 180.8;display:none;" xml:space="preserve">
<style type="text/css">
  .st0{fill:#1D1D1B;}
  .st1{fill:#FFFFFF;}
  .st2{opacity:0.35;enable-background:new;}
</style>
  <defs>
    <g id="16">
    <path class="st1" d="M129.6,64l-0.1,0.5l3.2,0.6c-7.6-0.2-15.2,0.4-22.8-0.9c5.6-0.3,11.3,1,16.9-0.2c-0.5-0.4-1.1-0.5-1.7-0.5
        c-3.5,0.3-7,0.1-10.4-0.3c-6.7-0.6-13.5-0.5-20.4-0.7c-4.5-0.1-9.1,0.1-13.6-1c-0.9-0.3-2,0.2-2.5,1c-0.8,0.7-0.8,1.8-0.2,2.6
        c0.5,0.7,0.8,1.6,0.7,2.5c0,0.9,0.2,1.7,0.2,2.6c0.2,2.1,0.3,4.3,0.3,6.4c-0.3,6.8-0.6,13.7-0.3,20.5c0.4,5.9-0.1,11.8-1.7,17.5
        c2.5,0.8,4.6,2.8,5.4,5.3c1.2-0.1,2.6,0.3,3.5-0.3c1.3-0.7,2.8-0.9,4.2-0.7c3.3,0.4,6.6,0.6,10,0.4c6.1-0.1,12.2,0,18.4,0.2
        c3.9,0.1,7.8,0.4,11.6,0.5c4,0.2,8.1,0.3,12.1,0.4c1.4,0,2.8,0.3,4.3,0.3c1.8,0,3.6-0.2,5.3,0.6c1.3,0.6,1.9,0,1.8-1.6
        c0-0.2,0-0.4,0-0.6l1.9-0.5c-0.4-1.4-0.6-2.9-0.7-4.3c0-3.5,0.3-7,0.3-10.5c0.1-4.5,0.2-9,0.1-13.6c0-4-0.4-8.1-0.3-12.1
        c0.1-4.3-0.1-8.7,0.9-13.1c0.3-1.5-1.2-2.5-2.8-2.3c-2.3,0.5-4.7,0.8-7.1,1.1c-2.6,0.1-5.2-0.1-7.9-0.1
        C135.7,63.9,132.6,64,129.6,64z"/>
      <path d="M129.6,64c3.1-0.1,6.1-0.1,9.2-0.1c2.6,0,5.2,0.2,7.9,0.1c2.4-0.2,4.7-0.5,7.1-1.1c1.6-0.3,3.1,0.7,2.8,2.3
        c-0.9,4.3-0.8,8.7-0.9,13.1c-0.1,4,0.3,8.1,0.3,12.1c0,4.5,0,9.1-0.1,13.6c0,3.5-0.3,7-0.3,10.5c0.1,1.5,0.3,2.9,0.7,4.3l-1.9,0.5
        c0,0.2,0,0.4,0,0.6c0.2,1.6-0.4,2.2-1.8,1.6c-1.7-0.8-3.5-0.6-5.3-0.6c-1.4,0-2.8-0.3-4.3-0.3c-4-0.2-8.1-0.3-12.1-0.4
        c-3.9-0.2-7.8-0.5-11.6-0.5c-6.1-0.2-12.2-0.3-18.4-0.2c-3.4,0.2-6.7,0-10-0.4c-1.4-0.2-2.9-0.1-4.2,0.7c-1,0.4-2.3,0.2-3.5,0.3
        c-0.8-2.6-2.8-4.6-5.4-5.3c1.5-5.7,2.1-11.6,1.7-17.5c-0.3-6.9,0-13.7,0.3-20.5c0-2.1-0.1-4.3-0.3-6.4c0-0.9-0.2-1.7-0.2-2.6
        c0.1-0.9-0.2-1.7-0.7-2.5c-0.6-0.8-0.6-2,0.2-2.6c0.5-0.8,1.5-1.3,2.5-1c4.5,1.1,9.1,1,13.6,1c6.8,0.2,13.5,0.1,20.4,0.7
        c3.4,0.4,6.9,0.6,10.4,0.3c0.6,0,1.2,0.1,1.7,0.5c-5.6,1.3-11.3,0-16.9,0.2c7.6,1.2,15.2,0.8,22.8,0.9l-3.2-0.6L129.6,64z
         M83.8,65.9c1.8,0.3,2.1,0.7,2.1,2.4c0,1.7-0.3,3.6-0.3,5.5c-0.1,2.7,0,5.4,0,8.1c0,2-0.1,4-0.1,6c0,2.5,0.3,5.1,0.3,7.6
        c-0.1,2.3-0.1,4.6,0,6.9c0.6,4.4,0.8,8.9,0.7,13.4c0,0.5,0.1,1,0.4,1.5c3.1,0.1,6,0.4,8.9,0.5c3.4,0,6.9-0.1,10.3-0.1
        c6.6,0.1,13.2,0.2,19.8,0.4c2,0,4,0.2,5.9,0.3c3,0.2,6,0.2,9,0.5c3.9,0.3,7.9,0.5,12.1-0.3c0.3-2.2,0.7-4.4,0.9-6.8
        c0.1-1.6,0.1-3.3,0.3-5c0.2-4.1,0.5-8.2,0.6-12.4c0.1-2.7-0.2-5.4-0.2-8.1c0-2,0.4-4,0.1-5.9c-0.5-3.7-0.5-7.5-0.1-11.2
        c0.2-2.5-0.7-3.4-3.1-3.3c-7.7,0.5-15.3,1.2-23,0.7c-3.9-0.2-7.8-0.2-11.7-0.3c-4.1-0.1-8.1-0.2-12.2-0.2c-5.3,0-10.7,0-16,0.1
        c-0.6-0.2-1.2-0.3-1.8-0.7l1.4-1.6l-6-0.5c-1.5,2.5-1.4,5.1-1.1,7.5c0.1,2.7,0.2,5.4,0,8.1c-0.2,4.6-0.2,9.2-0.2,13.9
        c0,3.7,0.4,7.5,0.2,11.2c-0.1,3.3-0.7,6.5,0.2,9.9c0.4,1.6,1.4,2.8,2.9,3.7c0.5-1.7,0.7-3.6,0.7-5.4c-0.1-2.3-0.2-4.6-0.3-6.9
        c-0.1-4-0.2-8-0.3-11.9c-0.1-3.5,0-7-0.1-10.5c-0.1-3.7-0.1-7.5-0.2-11.2C83.7,69.7,83.7,67.8,83.8,65.9L83.8,65.9z M92.1,63.9v0.5
        c5.2,0.6,10.4,0.2,15.6-0.1v-0.5L92.1,63.9z M138.3,65.4l-1.5-0.2v0.3L138.3,65.4L138.3,65.4z"/>
      <path class="st1" d="M83.8,65.9c0.1,1.9,0.1,3.8,0.1,5.7c0.1,3.7,0.1,7.5,0.2,11.2c0.1,3.5,0,7,0.1,10.5c0.1,4,0.2,8,0.3,11.9
        c0.1,2.3,0.2,4.6,0.3,6.9c0,1.8-0.2,3.7-0.7,5.4c-1.4-0.7-2.4-2.1-2.9-3.7c-0.9-3.4-0.3-6.6-0.2-9.9c0.1-3.7-0.2-7.5-0.2-11.2
        c0-4.6,0-9.2,0.2-13.9c0.2-2.7,0.1-5.4,0-8.1c-0.2-2.4-0.3-4.9,1.1-7.5l6,0.5l-1.4,1.6c0.6,0.4,1.2,0.5,1.8,0.7
        c5.3,0,10.7,0,16-0.1c4.1,0,8.1,0.1,12.2,0.2c3.9,0.1,7.8,0.1,11.7,0.3c7.6,0.4,15.3-0.3,23-0.7c2.4-0.1,3.2,0.7,3.1,3.3
        c-0.4,3.7-0.3,7.5,0.1,11.2c0.3,2-0.1,4-0.1,5.9c0,2.7,0.3,5.4,0.2,8.1c-0.1,4.1-0.4,8.2-0.6,12.4c-0.1,1.7,0,3.4-0.3,5
        c-0.2,2.2-0.6,4.5-0.9,6.8c-4.3,0.8-8.2,0.6-12.1,0.3c-3-0.2-6-0.3-9-0.5c-2-0.1-4-0.3-5.9-0.3c-6.6-0.2-13.2-0.3-19.8-0.4
        c-3.4,0-6.9,0.1-10.3,0.1c-2.9-0.1-5.8-0.2-8.9-0.5c-0.2-0.5-0.3-1-0.4-1.5c0.2-4.4,0-8.9-0.7-13.4c-0.1-2.3-0.1-4.6,0-6.9
        c0-2.5-0.3-5.1-0.3-7.6c0-2,0.1-4,0.1-6c0.1-2.7-0.1-5.4,0-8.1c0-1.8,0.3-3.6,0.3-5.5C86,66.3,85.6,66.3,83.8,65.9
        c0.1-0.6,0.3-1.4-0.9-1.7C82.6,65.1,82.3,66,83.8,65.9z"/>
      <path class="st1" d="M92.1,63.9h15.6v0.5c-5.2,0.3-10.5,0.6-15.6,0.1V63.9z"/>
      <path class="st1" d="M138.3,65.3l-1.6,0.1v-0.3L138.3,65.3z"/>
      <path d="M83.8,65.9c-1.5,0.1-1.2-0.7-1-1.7C84,64.5,83.7,65.2,83.8,65.9L83.8,65.9z"/>
    </g>
  </defs>
</svg>
