<svg version="1.1"
   xmlns="http://www.w3.org/2000/svg" xmlns:xlink="http://www.w3.org/1999/xlink" x="0px" y="0px" viewBox="0 0 236 180.8"
   style="enable-background:new 0 0 236 180.8;display:none;" xml:space="preserve">
<style type="text/css">
  .st0{fill:#1D1D1B;}
  .st1{fill:#FFFFFF;}
  .st2{opacity:0.35;enable-background:new;}
</style>
  <defs>
    <g id="25">
<path class="st1" d="M192.2,51.7c-0.5-0.8-1.2-1.5-2.4-1c-1.4,0.6-2.8,1.1-4.2,1.6c-5,1.6-10.3,1.9-15.3,3.5
  c-0.6,0.2-1.3,0.2-1.9,0.2c-1.1,0-2.2-0.3-3.3-0.2c-3.4,0.2-6.8,0.6-10.2,0.9c-0.8,0.2-1.6,0.3-2.4,0.3c-3.1-0.5-5.9,0.6-8.8,1.6
  c-2.3,0.7-4.7,1.6-7.2,0.7c-0.9-0.3-2,0.1-2.5,0.9c-0.6,0.7-1.4,1.3-2,1.9c-0.6,0.8-1.6,0.9-2.4,0.4c-0.2-0.1-0.3-0.2-0.4-0.4
  c1.8-2.6,3.5-5,5.1-7.6c0.9-1.5,1.6-3.1,3.3-3.9c0.8-0.4,0.9-2.5,0.5-3.6c-0.4-1-1.5-1.5-2.6-1.2c-1.4,0.1-2.8,0.2-4.2,0.1
  c-3.9-0.2-7.8-0.9-11.7-0.5c-0.8,0-1.6,0-2.4-0.2c-1.8-0.1-3.5-0.3-5.3-0.3c-2.9-0.1-5.7-0.1-8.6-0.3c-2.4-0.1-4.7-0.6-7.1-0.7
  c-2-0.1-4,0.2-5.9-0.7c-0.4-0.1-0.8-0.1-1.2-0.1c-2.3,0-4.6,0-6.9-0.1c-2.6-0.2-3.6,0.3-4.6,2.6c-1.7-0.1-3.4-0.1-5-0.3
  c-3.5-0.3-7-0.7-10.4-1.2c-1.1-0.1-2,0.3-2,1.3c0.1,1.1,0.2,2.2,0.5,3.3c0.5,2.3,1.9,4.4,1,7c0,0.5,0.1,0.9,0.3,1.4
  c0.2,0.8,0.5,1.7,0.6,2.5c0.3,1.7,0.4,3.5,0.9,5.2c0.7,2.9,1,6,0.9,9c0,3.3,0.1,6.7,0.1,10c0,1.4,0.1,2.9,0,4.3
  c-0.1,3.3-0.5,6.6-0.5,10c0,2.7,0.6,5.4,0.7,8.1c0.1,2.3,0.1,4.6-0.1,6.9c-0.2,1.9-0.7,3.7-1,5.6c0.1,0.5,0.3,1,0.8,1.3
  c0.4,0.2,0.9,0.2,1.2,0c0.9-1.3,2-0.8,3-0.6c2,0.4,4,0.9,6,1.5c2.3,0.6,4.6,1.4,6.8,2.4c2.5,1.1,4.8,2.4,7.6,2.8
  c1.7,0.3,3.4,0.7,5.1,1.2s3.2,1.3,4.9,1.7c4.4,1.1,8.8,2.1,13.1,3.1c0.4,0.2,0.7,0.5,1,0.8c0.4,0.4,0.7,0.8,1.1,1.2
  c1.2-0.6,2.7-0.9,3.4-1.7c1.2-1.6,3.2-2.4,5.2-2.1c0.5,0.1,1,0.1,1.4,0c4.2-0.8,8.4-1.6,12.6-2.5c1.9-0.4,3.8-1.3,5.7-1.8
  c3.5-0.9,7.1-1.5,10.7-2.4c3.2-0.8,6.3-1.6,9.5-2.5c2.7-0.8,5.2-1.9,7.9-2.7c2.2-0.6,2.9-1.9,1.8-4c-0.3-0.5-0.5-1.1-0.6-1.7
  c-0.2-2.5-0.4-5.1-0.6-7.6c-0.2-2.4-0.6-4.8-0.8-7.1c-0.3-3.6-0.7-7.3-0.8-10.9c-0.1-3.2-0.2-6.5,1-9.6c0.1-0.3,0.1-0.6,0.1-1
  c-0.1-2.1-1-4.2,0.4-6.2c-0.5-1.4,0.5-2,1.4-2.7c2.3-2,4.8-4,6.9-6.2c2.7-2.8,5.6-5.3,9.4-6.6c0.8-0.3,1.7-0.4,2.5-0.6
  c0.7-0.1,1.2-0.8,1.1-1.5C192.4,52.1,192.3,51.9,192.2,51.7z M121.7,72.4c-0.1,0.1-0.2,0.2-0.4,0.3c-1.8,1-3.3,2.2-4.8,3.6
  c-1.3,1.1-3.3,0.4-3.4-1.4c-0.1-1.9-0.1-3.7,0.1-5.6c0.1-1.1,0.8-2,2-2c2.2,0,4.2,1.5,6.4,1.2c1.1-0.1,2,1,2,2
  C123.5,71.5,122.7,72.2,121.7,72.4z"/>
<path d="M114.2,134c-0.4-0.4-0.7-0.8-1.1-1.2c-0.3-0.4-0.6-0.6-1-0.8c-4.4-1.1-8.8-2-13.1-3.1c-1.7-0.4-3.2-1.2-4.9-1.7
  c-1.7-0.5-3.4-0.9-5.1-1.2c-2.7-0.4-5.1-1.7-7.6-2.8c-2.2-0.9-4.5-1.7-6.8-2.4c-2-0.6-4-1.1-6-1.5c-1-0.2-2.2-0.7-3,0.6
  c-0.4,0.2-0.9,0.2-1.2,0c-0.4-0.3-0.7-0.8-0.8-1.3c0.2-1.9,0.8-3.7,1-5.6c0.2-2.3,0.2-4.6,0.1-6.9c-0.1-2.7-0.7-5.4-0.7-8.1
  c0-3.3,0.4-6.6,0.5-10c0.1-1.4,0-2.9,0-4.3c0-3.3-0.2-6.7-0.1-10c0.2-3-0.1-6.1-0.9-9c-0.5-1.7-0.6-3.5-0.9-5.2
  c-0.2-0.9-0.4-1.7-0.6-2.5c-0.2-0.4-0.3-0.9-0.3-1.4c0.9-2.5-0.5-4.7-1-7c-0.3-1.1-0.5-2.2-0.5-3.3s0.9-1.5,2-1.3
  c3.5,0.5,6.9,0.8,10.4,1.2c1.6,0.2,3.3,0.2,5,0.3c1-2.2,2-2.7,4.6-2.6c2.3,0.2,4.6,0.1,6.9,0.1c0.4,0,0.8,0,1.2,0.1
  c1.9,0.9,3.9,0.6,5.9,0.7c2.4,0.1,4.7,0.6,7.1,0.7c2.9,0.2,5.7,0.2,8.6,0.3c1.8,0.1,3.5,0.2,5.3,0.3c0.8,0.1,1.6,0.2,2.4,0.2
  c3.9-0.4,7.8,0.3,11.7,0.5c1.4,0.1,2.8,0,4.2-0.1c1-0.3,2.1,0.2,2.6,1.2c0.5,1.1,0.3,3.2-0.5,3.6c-1.7,0.8-2.4,2.4-3.3,3.9
  c-1.5,2.6-3.3,5-5.1,7.6c0.6,0.8,1.6,0.9,2.4,0.4c0.2-0.1,0.3-0.2,0.4-0.4c0.7-0.7,1.4-1.2,2-1.9c0.5-0.8,1.6-1.2,2.5-0.9
  c2.5,0.8,4.9,0,7.2-0.7c2.9-0.9,5.7-2,8.8-1.6c0.8,0,1.6-0.1,2.4-0.3c3.4-0.3,6.8-0.7,10.2-0.9c1.1-0.1,2.2,0.2,3.3,0.2
  c0.6,0,1.3,0,1.9-0.2c5-1.6,10.3-1.9,15.3-3.5c1.4-0.5,2.8-1,4.2-1.6c1.2-0.5,1.8,0.2,2.4,1c0.5,0.6,0.4,1.4-0.1,1.9
  c-0.2,0.2-0.5,0.3-0.7,0.3c-0.8,0.2-1.7,0.4-2.5,0.6c-3.8,1.3-6.7,3.8-9.4,6.6c-2.1,2.2-4.6,4.2-6.9,6.2c-0.8,0.7-1.9,1.3-1.4,2.7
  c-1.4,2-0.5,4.1-0.4,6.2c0,0.3,0,0.6-0.1,1c-1.2,3.1-1.1,6.4-1,9.6c0.1,3.6,0.5,7.3,0.8,10.9c0.2,2.4,0.6,4.8,0.8,7.1
  c0.2,2.5,0.4,5.1,0.6,7.6c0.1,0.6,0.3,1.2,0.6,1.7c1.1,2.1,0.5,3.3-1.8,4c-2.7,0.8-5.2,1.9-7.9,2.7c-3.1,0.9-6.3,1.8-9.5,2.5
  c-3.5,0.9-7.1,1.5-10.7,2.4c-1.9,0.5-3.7,1.4-5.7,1.8c-4.2,0.9-8.4,1.7-12.6,2.5c-0.5,0.1-1,0.1-1.4,0c-2-0.2-3.9,0.6-5.2,2.1
  C116.9,133.2,115.4,133.4,114.2,134z M93.3,74.7l-0.1,0.5c-0.9,0.1-1.8,0-2.6-0.3c-4-0.8-8-1.6-12-2.3c-3-0.5-6.1-0.8-9-2.3
  s-3.8-0.6-4,2.4c0,0.3,0,0.7,0,1c0,4.3,0.1,8.6,0.1,12.9c0,4.5-0.1,9.1,0.1,13.6c0.3,5.1,1,10.3-0.2,15.4c-0.1,0.5-0.1,0.9,0,1.4
  c1.2,0.4,2.2,0.7,3.2,1c4,1.1,8.1,1.8,11.9,3.4c0.6,0.1,1.2,0.3,1.8,0.5c2.3,1.7,5,2.3,7.7,2.9c3.2,0.7,6.6,0.9,9.5,2.7
  c0.3,0.1,0.6,0.2,0.9,0.2l11,2.3c1.3,0.4,2.7,0.2,3.8-0.5c-0.1-2.1-0.3-4.2-0.4-6.2c0-0.4-0.2-0.8-0.2-1.2
  c-0.3-2.6-0.8-5.2-0.8-7.8c-0.1-6.2,0.7-12.4-0.5-18.6c0-0.2,0-0.5,0-0.7c0-2-0.1-4,0-6c0.2-3.2-0.2-6.4,0.8-9.3
  c-0.7-0.8-1.7-1.4-1.8-2.1c-0.3-3.3-0.4-6.5-0.3-9.8c0.2-3.2,0.6-6.3-0.3-9.4c-0.3-1.1-0.4-2.2-0.5-3.3c0-1.5-1.3-2.7-2.7-2.6
  c-0.2,0-0.5,0-0.7,0.1c-1.1,0.2-2.2,0.3-3.3,0.1c-3.6-0.8-7.2-1.9-10.8-2.6c-4.7-1-9.4-1.7-14.1-2.5c-0.5-0.1-1.4-0.4-1.6-0.2
  c-1,1.1-2.2,0.3-3.1,0c-1.3-0.6-2.8-0.7-4.1-0.4c-0.3,0-0.6,0-0.9-0.1l-7.9-1.1c0.5,2.6,1.1,5,1.5,7.3s0.6,5,1,7.5s0.7,4.8,1,6.8
  c2.9,1.2,5.3,2.1,7.7,3.1c0.4,0.1,0.8,0.2,1.2,0.2c5.7,1.1,11.4,2.3,17.1,3.5C92.2,74.3,92.7,74.5,93.3,74.7L93.3,74.7z
   M117.1,129.4c2.2-0.5,4.5-0.9,6.8-1.2c3.3-0.2,6.7-0.8,9.8-1.8c1.6-0.6,3.5-0.6,5.1-1c2.1-0.6,4.2-1.4,6.4-2
  c1.5-0.4,3.1-0.6,4.7-1c2.9-0.7,5.7-1.4,8.6-2.1c3.5-0.9,7.1-1.7,10.3-3.7c1.2-0.7,1.8-2.1,1.5-3.4c-0.6-4.7-1-9.3-1.5-14
  c-0.7-5.9-1-11.9-1-17.9c0-0.9,0.2-1.7,0.5-2.5c0.6-1.1,0.8-2.4,0.6-3.7c-0.3-1.4-0.4-2.8-0.6-3.9c-1.4-1.5-2.6-0.5-3.8-0.4
  c-2.5,0.4-5,0.7-7.5,1.3c-3.7,0.7-7.5,1.2-11.4,1.4c-0.1-0.1-0.3-0.3-0.4-0.5c1.3-0.7,2.6-1.1,4-1.3c2.4-0.3,4.7-0.9,7-1.3
  c1.8-0.5,3.7-0.8,5.6-1.1c3.4-0.2,6.3-1.8,9-3.5c2.5-1.5,4.5-3.7,6.7-5.6c1.9-1.6,3.8-3.2,5.6-4.8c0.3-0.3,0.5-0.6,0.8-0.9
  c-1.4,0.2-2.7,0.5-4,0.9c-1.9,0.4-4,0.4-5.8,1c-3,1.1-6.2,1.5-9.4,1c-0.6,0-1.3,0.1-1.9,0.2c-0.7,0.1-1.4,0.1-2.1,0.2l-4.5,0.4
  c-1.2,0.2-2.4,0.4-3.5,0.4c-2.9-0.2-5.9,0.4-8.6,1.6c-3,1.2-6.2,0.9-9.1,2.3c-1.5-0.5-2.4,0.6-3.3,1.4c-1.5,1.4-3,2.8-4.5,4.2
  s-2.8,2.8-4.2,4.2c-0.6,0.6-1.2,1-2,1.3c-1.4,0.5-2.2,1.4-3.2,3c4.1-0.8,7.7-1.4,11.2-2.1c2.2-0.5,4.4-1,6.7-0.1
  c-1.1,0.5-2.2,0.8-3.3,1l-4.2,0.9c-1.2,0.3-2.5,0.6-3.7,0.8c-2.1,0.3-4.3,0.5-6.4,0.7c-1.2,0-2.2,0.6-2.9,1.5
  c-0.1,4-0.3,8.1-0.4,12.1c0,1.8,0.2,3.7,0.3,5.5c0.2,3,0.6,6,0.4,9c-0.2,4.3-0.6,8.6,0.4,12.8c0.1,0.6,0.1,1.1,0.1,1.7
  C116.6,123.5,116.9,126.5,117.1,129.4L117.1,129.4z M135.1,48.4c-2.8-0.4-5.6-0.9-8.4-1.2c-3.6-0.3-7.3-0.2-11-0.4
  c-4.8-0.2-9.5-0.4-14.3-0.7c-1.7-0.1-3.3-0.5-5-0.6c-1.3-0.1-2.7,0.3-4,0.1c-3.7-0.3-7.4-0.8-11.2-1.2L80.8,46
  c2,0.5,3.8,1.3,5.7,1.3c4.6,0.1,8.9,1.4,13.4,2.3c3.9,0.8,7.9,1.1,11.9,0.9c0.9-0.1,1.8,0.3,2.4,1l0.4,14l10.6-1.4
  c0.2-1.5,0.8-2.5,2.3-2.7c0.6-0.3,1.1-0.7,1.3-1.3c1.3-2,2.6-4,3.9-6c0.6-0.8,1.1-1.7,1.6-2.6C134.6,50.5,134.9,49.4,135.1,48.4
  L135.1,48.4z M122.9,70.2c-3-1-5.7-2.1-9-2c0.4,2.8-0.2,5.5,1.1,8c1.6,0.2,2.1-1,3-1.8c0.6-0.7,1.3-1.3,2.1-1.7
  C121.3,72.2,122.3,71.3,122.9,70.2L122.9,70.2z M128.3,64.7l-8.7,2.3c1.1,0.6,2.3,1,3.5,1.3c1,0.4,2.1,0,2.7-0.9
  C126.7,66.5,127.5,65.6,128.3,64.7L128.3,64.7z"/>
<path d="M181.9,48.2l-1.6,1.8C180.4,48.5,180.4,48.5,181.9,48.2z"/>
<path d="M180.7,47.1c-0.3,0.2-0.6,0.4-1,0.5c-0.2-0.1-0.4-0.2-0.5-0.4c0.1-0.2,0.3-0.4,0.5-0.6C180.1,46.7,180.4,46.9,180.7,47.1z"
  />
<path d="M156.6,47.9l1.3,0.1v0.5h-1.4L156.6,47.9z"/>
<path class="st1" d="M135.1,48.3c-0.2,1.1-0.5,2.2-0.9,3.3c-0.5,0.9-1,1.8-1.6,2.6c-1.3,2-2.6,4-3.9,6c-0.3,0.6-0.8,1-1.3,1.3
  c-1.5,0.2-2.1,1.2-2.3,2.7l-10.6,1.4l-0.4-14c-0.6-0.7-1.5-1.1-2.4-1c-4,0.2-8-0.1-11.9-0.9c-4.4-0.8-8.8-2.2-13.4-2.3
  c-1.9,0-3.7-0.8-5.7-1.3l0.4-1.6c3.8,0.4,7.5,0.9,11.2,1.2c1.3,0.1,2.7-0.2,4-0.1c1.7,0.1,3.3,0.5,5,0.6c4.8,0.3,9.5,0.5,14.3,0.7
  c3.7,0.1,7.3,0.1,11,0.4C129.5,47.4,132.3,47.9,135.1,48.3z M122.9,53.9c-0.3-0.3-0.5-0.5-0.9-0.7c-0.2,0-0.4,0.2-0.5,0.3
  c0,0.3,0.2,0.5,0.4,0.7C122.3,54.3,122.7,54.1,122.9,53.9L122.9,53.9z"/>
<path class="st1" d="M128.3,64.7c-0.9,0.9-1.6,1.8-2.4,2.7c-0.6,0.9-1.7,1.3-2.7,0.9c-1.2-0.3-2.4-0.7-3.5-1.3L128.3,64.7z"/>
<path d="M122.9,53.9c-0.3,0.2-0.6,0.3-0.9,0.4c-0.2-0.2-0.4-0.4-0.4-0.7c0.1-0.2,0.3-0.3,0.5-0.3C122.4,53.4,122.7,53.7,122.9,53.9
  z"/>
    </g>
  </defs>
</svg>
