<svg version="1.1"
   xmlns="http://www.w3.org/2000/svg" xmlns:xlink="http://www.w3.org/1999/xlink" x="0px" y="0px" viewBox="0 0 236 180.8"
   style="enable-background:new 0 0 236 180.8;display:none;" xml:space="preserve">
<style type="text/css">
  .st0{fill:#1D1D1B;}
  .st1{fill:#FFFFFF;}
  .st2{opacity:0.35;enable-background:new;}
</style>
  <defs>
    <g id="28">
<g>
<path class="st0" d="M143.6,103.2c0,0.5-0.2-4.3-0.5-2.8c0.4,0.8,0.8,0.9,1.3,1c1.1,0.2,2.3,0.5,3.4,0.6c0.4,0,0.9-0.1,1.3-0.2
  c1.2-0.3,2.4-0.4,3.7-0.2c0.9,0.1,1.8,0,2.7-0.2c0.7-0.1,1.5-0.3,2.2-0.1c0.9,0.2,1.8,0.1,2.7,0c1.7-0.2,3.4-0.3,5.1-0.4
  c0.1,0,0.2,0.1,0.3,0.1c2.6,1,5.2,0.7,7.8,0.2c1.9-0.3,3.8,0.1,5.8,0.4c1.6-0.5,3.4-0.3,5.2,0.3c1.6,0.5,3.2,0.4,4.8,0.5
  c1.2,0,2.4,0,3.6,0c0.4,0,0.8,0.1,1.5,0.3c-0.5,0.3-0.7,0.5-0.9,0.5c-2.5-0.1-5-0.3-7.5-0.5c-0.9-0.1-1.8-0.4-2.7-0.5
  c-1.2-0.1-2.4,0-3.6,0c-0.5,0-0.9,0-1.4,0c-1-0.1-1.9-0.2-2.9-0.3c-1.2-0.1-2.4-0.1-3.6,0.3c-1.3,0.4-2.7,0.4-4.1,0.2
  c-2.9-0.4-5.8-0.2-8.7,0.5c-0.6,0.2-1.1,0.2-1.7,0.2c-1.2,0-2.4-0.1-3.6,0.3c-0.2,0.1-0.3,0.1-0.5,0.1c-2.3-0.6-4.7,0-7-0.1
  c-0.5,0-1-0.2-1.5-0.2C144.5,103.1,144.1,103.2,143.6,103.2"/>
<path class="st0" d="M143.6,103.2c0,0.5-0.2-4.3-0.5-2.8c0.4,0.8,0.8,0.9,1.3,1c1.1,0.2,2.3,0.5,3.4,0.6c0.4,0,0.9-0.1,1.3-0.2
  c1.2-0.3,2.4-0.4,3.7-0.2c0.9,0.1,1.8,0,2.7-0.2c0.7-0.1,1.5-0.3,2.2-0.1c0.9,0.2,1.8,0.1,2.7,0c1.7-0.2,3.4-0.3,5.1-0.4
  c0.1,0,0.2,0.1,0.3,0.1c2.6,1,5.2,0.7,7.8,0.2c1.9-0.3,3.8,0.1,5.8,0.4c1.6-0.5,3.4-0.3,5.2,0.3c1.6,0.5,3.2,0.4,4.8,0.5
  c1.2,0,2.4,0,3.6,0c0.4,0,0.8,0.1,1.5,0.3c-0.5,0.3-0.7,0.5-0.9,0.5c-2.5-0.1-5-0.3-7.5-0.5c-0.9-0.1-1.8-0.4-2.7-0.5
  c-1.2-0.1-2.4,0-3.6,0c-0.5,0-0.9,0-1.4,0c-1-0.1-1.9-0.2-2.9-0.3c-1.2-0.1-2.4-0.1-3.6,0.3c-1.3,0.4-2.7,0.4-4.1,0.2
  c-2.9-0.4-5.8-0.2-8.7,0.5c-0.6,0.2-1.1,0.2-1.7,0.2c-1.2,0-2.4-0.1-3.6,0.3c-0.2,0.1-0.3,0.1-0.5,0.1c-2.3-0.6-4.7,0-7-0.1
  c-0.5,0-1-0.2-1.5-0.2C144.5,103.1,144.1,103.2,143.6,103.2"/>
</g>
<g>
<path class="st0" d="M97,103.2c0,0.5,0.2-4.3,0.6-2.8c-0.4,0.8-0.8,0.9-1.3,1c-1.1,0.2-2.3,0.5-3.5,0.6c-0.5,0-0.9-0.1-1.4-0.2
  c-1.3-0.3-2.6-0.4-3.9-0.2c-0.9,0.1-1.9,0-2.8-0.2c-0.8-0.1-1.6-0.3-2.3-0.1c-0.9,0.2-1.9,0.1-2.8,0c-1.7-0.2-3.5-0.3-5.3-0.4
  c-0.2,0-0.3,0.1-0.4,0.1c-2.7,1-5.4,0.7-8.1,0.2c-2-0.3-4,0.1-6.1,0.4c-1.7-0.5-3.5-0.3-5.4,0.3c-1.6,0.5-3.3,0.4-5,0.5
  c-1.2,0-2.5,0-3.7,0c-0.3,0-0.7,0.1-1.5,0.3c0.5,0.3,0.7,0.5,0.9,0.5c2.6-0.1,5.2-0.3,7.8-0.5c0.9-0.1,1.9-0.4,2.8-0.5
  c1.2-0.1,2.5,0,3.7,0c0.4,0,0.9,0,1.4,0c1-0.1,2-0.2,3-0.3c1.2-0.1,2.5-0.1,3.7,0.3c1.4,0.4,2.9,0.4,4.3,0.2
  c3.1-0.4,6.1-0.2,9.1,0.5c0.6,0.2,1.2,0.2,1.8,0.2c1.2,0,2.5-0.1,3.7,0.3c0.1,0.1,0.3,0.1,0.5,0.1c2.4-0.6,4.9,0,7.3-0.1
  c0.5,0,1.1-0.2,1.6-0.2C96.1,103.1,96.5,103.2,97,103.2"/>
<path class="st0" d="M97,103.2c0,0.5,0.2-4.3,0.6-2.8c-0.4,0.8-0.8,0.9-1.3,1c-1.1,0.2-2.3,0.5-3.5,0.6c-0.5,0-0.9-0.1-1.4-0.2
  c-1.3-0.3-2.6-0.4-3.9-0.2c-0.9,0.1-1.9,0-2.8-0.2c-0.8-0.1-1.6-0.3-2.3-0.1c-0.9,0.2-1.9,0.1-2.8,0c-1.7-0.2-3.5-0.3-5.3-0.4
  c-0.2,0-0.3,0.1-0.4,0.1c-2.7,1-5.4,0.7-8.1,0.2c-2-0.3-4,0.1-6.1,0.4c-1.7-0.5-3.5-0.3-5.4,0.3c-1.6,0.5-3.3,0.4-5,0.5
  c-1.2,0-2.5,0-3.7,0c-0.3,0-0.7,0.1-1.5,0.3c0.5,0.3,0.7,0.5,0.9,0.5c2.6-0.1,5.2-0.3,7.8-0.5c0.9-0.1,1.9-0.4,2.8-0.5
  c1.2-0.1,2.5,0,3.7,0c0.4,0,0.9,0,1.4,0c1-0.1,2-0.2,3-0.3c1.2-0.1,2.5-0.1,3.7,0.3c1.4,0.4,2.9,0.4,4.3,0.2
  c3.1-0.4,6.1-0.2,9.1,0.5c0.6,0.2,1.2,0.2,1.8,0.2c1.2,0,2.5-0.1,3.7,0.3c0.1,0.1,0.3,0.1,0.5,0.1c2.4-0.6,4.9,0,7.3-0.1
  c0.5,0,1.1-0.2,1.6-0.2C96.1,103.1,96.5,103.2,97,103.2"/>
</g>
<polygon class="st1" points="168,70 167.9,119.3 115.8,132 66.8,122.6 63.5,72 110.8,76.3 "/>
<g>
<path d="M37.8,67.8c2.5-0.5,4.8-1,7-1.4c1.7-0.3,3.3-0.4,5-0.4c3,0,6.1,0,9.1,0.1c2,0,4,0.2,5.9-0.8c0-0.5,0-1,0-1.5
  c-1.2-6.2-2.4-12.5-3.6-18.7c-0.3-1.1-0.7-2.3-1.2-3.3c-0.2-0.5-0.3-1-0.2-1.5c0.4-0.4,1-0.7,1.6-0.6c7.4,3,15.3,1.9,22.9,2.7
  c2.6,0.3,5.2,0.5,7.9,0.6c6.1,0.2,12.1,0.2,18.2,0.4c1.3,0,2.5,0.2,3.8,0.3c3.2,0.2,6.4,0.6,9.5,0.7c1.2-0.1,2.4-0.2,3.5-0.5
  c0.5,1.7-0.8,1.7-1.8,1.9c0.3,4.2,1.8,7.9,3.1,11.9c0.2-0.4,0.3-0.9,0.4-1.3c0-3.3,0-6.7,0.1-10c0-2.5,0.2-2.5,2.6-2.4
  c3.9,0.1,7.8,0,11.7,0.3c6.8,0.6,13.5-0.9,20.3-0.7c2.5,0,5.1-0.2,7.6-0.4c0.9-0.2,1.9-0.4,2.8-0.7c0.6,0.3,0.9,1,0.7,1.6
  c-0.4,2.7-0.9,5.5-1.2,8.2c-0.1,0.6-0.1,1.3,0,1.9c0.1,0.6,0.2,1.3,0.1,1.9c-1,2.3-0.1,4.6-0.2,6.8c0,1.6-0.4,3.3-0.7,5.3
  c3,0.6,6.4,1.2,9.7,1.8c1.5,0.3,2.9,0.8,4.4,1.2c0.8,0.3,1.7,0.5,2.5,0.6s1.4,0.2,1.6,1.1c0.1,1-0.4,1.9-1.3,2.2
  c-1.1,0.3-2.2,0.5-3.3,0.5c-4.5,0.3-9.1,1-13.5,2.1c-2.4,0.6-4.9,0.5-7.3,1c-4.6,0.9-9.2,1.9-13.8,3c-2.3,0.5-4.6,1.3-6.9,1.9
  c-0.9,0.2-1.9,0.3-2.8,0.4c-1.9,0.3-2,0.3-3,1.5c-3.5-0.7-6.8-1.4-10.1-2.1c-2.6-0.6-5.1-1.4-7.6-2.1c-0.6-0.2-1.2-0.3-1.9-0.4
  c-2.5-0.3-5.1-0.3-7.4-2.7c0,1.7-0.3,2.8,0,3.6c1,2.7,1,5.5,1.1,8.3c0.3,6.9,0.4,13.9,0.7,20.8c0.1,1.1,0.3,2.2,0.5,3.3
  c0.4,1.8,0.7,3.6,1.2,5.4c0.6,2.5,0.3,4.9,0.2,7.4c0,1.3,0,2.5,0,3.8c0.2,0.1,0.4,0.1,0.6,0.1c4.6-1.3,9.2-2.7,13.8-3.8
  c2.9-0.6,5.8-1,8.7-1.2c2-0.1,3.9-0.7,5.7-1.6c3.5-2,7.5-2.5,11.4-3.4c2.6-0.6,5.2-1,7.8-1.5c2.2-0.5,2.8-1.1,2.9-3.4
  c0-1.1-0.1-2.2-0.1-3.3c0-0.5-0.1-1,0-1.4c0.2-2.9,0.3-5.7,0.5-8.6c0.2-2.6,0.4-5.2,0.6-7.8c0.1-2.3,0.3-4.6,0.3-6.9
  c0-1.6-0.6-3.3-0.7-4.9s0.4-2.1,2.2-2.5c0,5.1,0.1,10.1,0,15.2c-0.1,4.9-0.3,9.7-0.6,14.5c-0.2,1.9-0.2,3.8-0.1,5.7
  c0,1,0.5,1.8,1.3,2.3c-0.2,0.2-0.3,0.4-0.5,0.6c-1,1.5-2.4,1.9-4.3,2.2c-5.8,0.9-11.5,1.7-17,3.7c-0.5,0.1-1.1,0.3-1.5,0.6
  c-1.8,1.6-4,1.9-6.2,2.1c-4.9,0.3-9.7,1.2-14.3,2.7c-2.3,0.8-4.8,1.1-7.2,1.8c-0.9,0.1-1.7,0.6-2,1.5c-0.6,0.6-1.4,0.8-2.2,0.6
  c-4.3-2-9-2-13.4-3.6c-6-2.1-12.2-3-18.4-4c-4.1-0.7-8.1-1.8-12.1-2.7c-1.4-0.3-2.7-0.8-4.1-1.2c-1.1-0.2-1.9-1.2-1.7-2.4
  c0-0.1,0-0.2,0.1-0.3c0.5-2.2,0.6-4.4,0.2-6.6c-0.1-0.8,0-1.6,0.1-2.3c0.3-2,0.1-4-0.6-5.9c-0.2-0.4-0.3-0.9-0.4-1.4
  c-0.4-3.1-0.6-6.3-0.6-9.5c0-4.3-0.2-8.6-0.6-12.9c-0.1-2.2-0.5-4.4-0.7-6.7c1.2,0.1,2.2,1.1,2.3,2.3c0.9,6.5,0.8,13,0.8,19.5
  c-0.1,2.9,0.2,5.9,1,8.7c0.5,1.8,0.7,3.6,0.7,5.4c0.1,2.3-0.1,4.6,0,6.9s0.6,2.9,3,3.6c6.8,2.2,13.9,3.4,21,4.6c3,0.5,6,1.7,9,2.5
  c4.2,1.1,8.4,2.1,12.5,3.1c0.4,0,0.8,0,1.2,0c0.1-0.8,0.3-1.5,0.3-2.2c0.1-2,0.2-4,0.3-6c0-0.5-0.1-1.1-0.3-1.6
  c-0.2-1.2-0.3-2.4-0.5-3.5c0-0.6-0.1-1.1-0.3-1.6c-1.6-3-1.4-6.2-1.3-9.4c0.2-3.7,0-7.5-0.6-11.2c-0.1-0.3-0.1-0.7,0-1
  c0.7-2.5,0.1-4.9-0.2-7.4c-0.3-2.8-0.8-5.6-1.3-8.7c-1.2-0.2-2.4-0.2-3.6-0.2c-4.5,0.5-9,1.1-13.5,1.8c-2,0.3-3.9,0.6-5.9,0.8
  c-0.7-0.1-1.3-0.4-1.8-0.9s-1-0.9-1.6-1.2c-4.4-1.3-8.9-2.5-13.4-3.7c-2.3-0.6-4.6-1.2-7-1.7c-6.3-1.2-12.6-2.3-18.8-3.4
  c-1.2-0.2-2.4-0.3-3.6-0.3C39.5,69.9,38.3,69.1,37.8,67.8z M67,65.3c1.9-0.4,3.5-0.8,5.1-1.2c1.5-0.5,3.1-0.5,4.7-0.2
  c2.3,0.4,4.6,0.6,6.9,0.7c2.1,0.1,4.1,0.2,6.2,0.2c2.5,0,4.9-0.2,7.4-0.4c1-0.1,2-0.2,3.1-0.3c5.4-0.3,10.9,0.6,16.2-0.5
  c3.6-0.8,7.5,0,11-1.9c0-0.2,0-0.5,0-0.7c-1-3.8-2.1-7.7-3-11.5c-0.3-1.8-1.7-3.1-3.5-3.4c-0.4-0.1-0.8-0.1-1.2-0.1
  c-2.5-0.3-4.9-0.6-7.4-0.8c-1-0.1-2.1-0.1-3.1-0.1c-3.1,0-6.2,0.2-9.3,0.1c-6.3-0.3-12.6-0.8-18.9-1.1c-2.6-0.2-5.3-0.3-7.9-0.5
  c-3.5-0.3-6.9-0.6-10.8-1L67,65.3z M130.8,62.6c2.6-0.2,5.1,0.4,7.4,1.8c0.2,0.1,0.5,0.1,0.7,0.1c3.9,0.4,7.8,0.7,11.7,1
  c2.1,0.2,4.3,0.4,6.4,0.4c2.9-0.1,5.9,0.2,8.8,0.8c1.5,0.4,3.1,1,4.7,0.1c1.7-7.3,1-14.8,2.2-22.4l-3,0.2l-11.5,0.7
  c-1.8,0.1-3.5,0.3-5.2,0.3c-2.3,0.1-4.6,0.2-6.9,0.1c-3.5,0-7-0.2-10.5-0.3c-1.6,0-3.3,0.2-4.7,0.4L130.8,62.6L130.8,62.6z
   M165.7,68.9v-0.6c-2.2-0.4-4.4-1.1-6.5-1c-4.6,0.2-9.3-0.1-13.9-0.6c-3.3-0.4-6.7-0.2-9.9-1.7c-1.9-0.9-3.9-0.6-5.9-0.4
  c-0.2,1-0.4,1.9-0.6,2.8s-0.1,2-1.5,2.6c0.1-2.1,0.9-4,0-5.9c-1.8,0.1-3.5,0.2-5.3,0.5c-5.3,0.9-10.6,1.3-16,1.1
  c-3.9-0.2-7.8,0.6-11.7,0.6c-6.2,0-12.5,0.2-18.6-0.9c-2.3-0.3-4.6,0.1-6.7,1.1c4.8,1,9.5,1.9,14.2,2.8c0.5,0.1,0.9,0.2,1.4,0.3
  c4.5,1.6,9.2,2.7,13.9,3.2c1.9,0.2,3.7,1,5.5,1.3c2.9,0.6,5.7,2,9,1.1c2.9-0.6,5.8-1,8.8-1.1c6.7-0.7,13.3-1.3,20-2
  c2.3-0.2,4.6-0.5,6.9-0.8c2-0.2,3.9-0.6,5.9-0.9c2.1-0.3,4.2-0.8,6.3-1.1C162.6,69.2,164.1,69.1,165.7,68.9L165.7,68.9z
   M186.5,73.4v-0.7c-1.5-0.5-3-0.9-4.6-1.1c-4-0.3-7.8-2.4-12-1.6c-0.1,0-0.3-0.1-0.4-0.2c-0.8-0.1-1.7-0.1-2.5,0
  c-1.7,0.3-3.4,0.7-5.1,1c-2.1,0.4-4.2,0.8-6.3,1.1s-4.4,0.8-6.6,1c-4.4,0.5-8.8,0.8-13.1,1.3c-7,0.8-14,1.6-20.9,2.4
  c-0.5,0.1-0.9,0.2-1.4,0.4c0.7,0.6,1.5,1,2.4,1.2c3.1,0.7,6.3,1.2,9.4,1.9c4.7,1.1,9.3,2.9,14.2,1.8c0.4,0,0.8,0,1.2,0.1
  c0.7,0,1.4-0.1,2.1-0.2c3.2-0.8,6.5-1.6,9.8-2.4c4.1-0.9,8.2-1.9,12.4-2.7c2.5-0.5,5-0.7,7.6-1.1c3.2-0.5,6.5-1,9.7-1.6
  C183.7,74.1,185.1,73.7,186.5,73.4L186.5,73.4z M45.8,68.3c0.3,0.1,0.6,0.3,0.9,0.3c5.6,1,11.3,2,16.9,3.1c2.3,0.5,4.6,1.1,7,1.6
  c4.7,1.1,9.1,3.2,14,4c3.2,0.6,6.1,1.5,9.4,0.6s6.6-0.8,10-1.1c0.4-0.1,0.8-0.3,1.2-0.6c-3.6-1.4-7.3-2.2-11.2-2.4
  c-1.2-0.1-2.4-0.3-3.5-0.7c-4.2-1.5-8.5-2.7-12.9-3.4c-1.6-0.2-3.3-0.7-4.9-1.1S69.6,68,68,67.7c-1.6-0.2-3.1-0.2-4.7-0.2
  C57.4,67.6,51.6,66.7,45.8,68.3L45.8,68.3z"/>
<path class="st1" d="M67,65.3l-4.5-22.8c3.8,0.4,7.3,0.7,10.8,1c2.6,0.2,5.2,0.3,7.9,0.5c6.3,0.4,12.6,0.9,18.9,1.1
  c3.1,0.1,6.2-0.1,9.3-0.1c1,0,2.1,0,3.1,0.1c2.5,0.2,4.9,0.6,7.4,0.8c0.4,0,0.8,0.1,1.2,0.1c1.8,0.2,3.2,1.6,3.5,3.4
  c0.9,3.9,2,7.7,3,11.5c0,0.2,0,0.5,0,0.7c-3.4,1.9-7.3,1.1-11,1.9c-5.4,1.1-10.8,0.2-16.2,0.5c-1,0-2,0.2-3.1,0.3
  c-2.5,0.2-4.9,0.3-7.4,0.4c-2.1,0-4.1,0-6.2-0.2c-2.3-0.1-4.6-0.3-6.9-0.7c-1.6-0.3-3.2-0.2-4.7,0.2C70.5,64.5,68.9,64.8,67,65.3z"
  />
<path class="st1" d="M130.8,62.5V45.8c1.5-0.1,3.1-0.4,4.7-0.4c3.5,0,7,0.2,10.5,0.3c2.3,0,4.6-0.1,6.9-0.1
  c1.8-0.1,3.5-0.2,5.2-0.3l11.5-0.7l3-0.2c-1.2,7.6-0.5,15.1-2.2,22.4c-1.6,0.9-3.2,0.3-4.7-0.1c-2.9-0.6-5.8-0.9-8.8-0.8
  c-2.1,0-4.3-0.2-6.4-0.4c-3.9-0.3-7.8-0.7-11.7-1c-0.2,0-0.5,0-0.7-0.1C136,63,133.4,62.3,130.8,62.5z"/>
<path class="st1" d="M186.5,73.4c-1.4,0.3-2.9,0.7-4.3,0.9c-3.2,0.6-6.5,1.1-9.7,1.6c-2.5,0.4-5.1,0.6-7.6,1.1
  c-4.1,0.8-8.3,1.7-12.4,2.7c-3.3,0.7-6.5,1.6-9.8,2.4c-0.7,0.1-1.4,0.2-2.1,0.2c-0.4,0-0.8-0.1-1.2-0.1c-5,1-9.5-0.8-14.2-1.8
  c-3.1-0.7-6.2-1.3-9.4-1.9c-0.9-0.2-1.7-0.6-2.4-1.2c0.4-0.2,0.9-0.3,1.4-0.4c7-0.8,13.9-1.7,20.9-2.4c4.4-0.5,8.8-0.8,13.1-1.3
  c2.2-0.2,4.4-0.7,6.6-1s4.2-0.8,6.3-1.1c1.7-0.3,3.4-0.7,5.1-1c0.8-0.1,1.7-0.1,2.5,0c0.1,0.1,0.3,0.1,0.4,0.2
  c4.2-0.8,8,1.3,12,1.6c1.6,0.2,3.1,0.6,4.6,1.1L186.5,73.4z"/>
<path class="st1" d="M45.8,68.3c5.9-1.7,11.7-0.7,17.4-0.5c1.6,0,3.1,0,4.7,0.2c1.6,0.3,3.1,0.5,4.7,0.9s3.2,0.9,4.9,1.1
  c4.4,0.7,8.7,1.8,12.9,3.4c1.1,0.4,2.3,0.6,3.5,0.7c3.8,0.2,7.6,1,11.2,2.4c-0.4,0.2-0.8,0.4-1.2,0.6c-3.3,0.4-6.8,0.3-10,1.1
  s-6.3,0-9.4-0.6c-4.8-0.9-9.3-2.9-14-4c-2.3-0.5-4.6-1.2-7-1.6c-5.6-1.1-11.3-2.1-16.9-3.1C46.3,68.6,46,68.5,45.8,68.3z"/>
</g>
    </g>
  </defs>
</svg>
