<svg version="1.1"
   xmlns="http://www.w3.org/2000/svg" xmlns:xlink="http://www.w3.org/1999/xlink" x="0px" y="0px" viewBox="0 0 236 180.8"
   style="enable-background:new 0 0 236 180.8;display:none;" xml:space="preserve">
<style type="text/css">
  .st0{fill:#1D1D1B;}
  .st1{fill:#FFFFFF;}
  .st2{opacity:0.35;enable-background:new;}
</style>
  <defs>
    <g id="32">
<path class="st0" d="M167.6,100.4c0.5,0,0.9,0.1,1.2,0c0.5,0,1-0.2,1.5-0.2c2.3-0.1,4.7,0.5,7-0.1c0.2,0,0.3,0,0.5,0.1
c1.2,0.4,2.4,0.3,3.6,0.3c0.6,0,1.1,0,1.7,0.2c2.9,0.7,5.8,0.9,8.7,0.5c1.4-0.2,2.8-0.2,4.1,0.2c1.2,0.4,2.4,0.4,3.6,0.3
c1-0.1,1.9-0.2,2.9-0.3c0.5,0,0.9,0,1.4,0c1.2,0,2.4,0.1,3.6,0c0.9-0.1,1.8-0.4,2.7-0.5c2.5-0.2,5-0.4,7.5-0.5
c0.2,0,0.4,0.2,0.9,0.5c-0.7,0.2-1.1,0.3-1.5,0.3c-1.2,0-2.4,0-3.6,0c-1.6,0.1-3.2,0-4.8,0.5c-1.8,0.6-3.6,0.8-5.2,0.3
c-2,0.3-3.9,0.7-5.8,0.4c-2.6-0.5-5.2-0.8-7.8,0.2c-0.1,0-0.2,0.1-0.3,0.1c-1.7-0.1-3.4-0.2-5.1-0.4c-0.9-0.1-1.8-0.2-2.7,0
c-0.7,0.2-1.5,0-2.2-0.1c-0.9-0.2-1.8-0.3-2.7-0.2c-1.3,0.2-2.5,0.1-3.7-0.2c-0.4-0.1-0.9-0.2-1.3-0.2c-1.1,0.1-2.3,0.4-3.4,0.6
c-0.5,0.1-0.9,0.2-1.3,1C167.4,104.7,167.6,99.9,167.6,100.4"/>
<path class="st0" d="M73,100.4c-0.5,0-0.9,0.1-1.3,0c-0.5,0-1.1-0.2-1.6-0.2c-2.4-0.1-4.9,0.5-7.3-0.1c-0.2,0-0.4,0-0.5,0.1
c-1.2,0.4-2.5,0.3-3.7,0.3c-0.6,0-1.2,0-1.8,0.2c-3,0.7-6,0.9-9.1,0.5c-1.4-0.2-2.9-0.2-4.3,0.2c-1.2,0.4-2.5,0.4-3.7,0.3
c-1-0.1-2-0.2-3-0.3c-0.5,0-1,0-1.4,0c-1.2,0-2.5,0.1-3.7,0c-0.9-0.1-1.9-0.4-2.8-0.5c-2.6-0.2-5.2-0.4-7.8-0.5
c-0.2,0-0.4,0.2-0.9,0.5c0.8,0.2,1.2,0.3,1.5,0.3c1.2,0,2.5,0,3.7,0c1.7,0.1,3.4,0,5,0.5c1.9,0.6,3.7,0.8,5.4,0.3
c2.1,0.3,4.1,0.7,6.1,0.4c2.7-0.5,5.4-0.8,8.1,0.2c0.1,0,0.2,0.1,0.4,0.1c1.8-0.1,3.6-0.2,5.3-0.4c0.9-0.1,1.9-0.2,2.8,0
c0.7,0.2,1.5,0,2.3-0.1c0.9-0.2,1.9-0.3,2.8-0.2c1.3,0.2,2.6,0.1,3.9-0.2c0.5-0.1,0.9-0.2,1.4-0.2c1.2,0.1,2.4,0.4,3.5,0.6
c0.5,0.1,0.9,0.2,1.3,1C73.2,104.7,73,99.9,73,100.4"/>
<g>
<path d="M184.3,87.8l-11.1,3.4c-0.3,2.6-0.5,5.2-0.8,7.7c0,0.6-0.1,1.3-0.3,1.9c-1.4,4.5-2.3,9.1-2.5,13.8c0,1.3,0.3,2.5,0.6,3.7
  c0.2,1.4,0,1.8-1.3,2.3c-5,2-10.3,3.5-15.6,4.4c-5.3,0.8-10.3,2.7-15.5,3.9c-3.4,0.8-6.9,1.1-10.4,1.8c-3,0.5-5.9,1.2-8.9,1.9
  c-1.1,0.4-2.1,0.9-3.1,1.5c-0.7-1-1.7-1.1-3-0.5c-0.4,0.1-0.8,0.1-1.1-0.1c-2.8-2-6.2-2-9.3-2.7c-5.6-1.2-11.3-2.3-16.9-3.1
  c-4.2-0.6-8-2.2-12-3.1c-1.6-0.3-3.1-0.5-4.7-0.5c-1.8,0-2.5-0.4-2.4-2.3c0.2-4.6,0.6-9.2,0.6-13.9c0-3.4-0.4-6.9-0.6-10.3
  c-0.1-1.6-0.4-3.1-0.6-4.9c-2.5-0.3-4.8-0.5-7.1-0.8c-1.8-0.3-3.6-0.6-5.4-1c-0.5-0.2-1-0.5-1.4-0.9c0.8-2,1.6-3.6,2.2-5.3
  c1.8-4.7,3.2-9.5,6-13.8c0.6-1.2,1.2-2.4,1.7-3.7c-2.8-3.4-5.2-7.1-7.1-11.1c-0.7-1.7-2-3.1-3.7-4c-0.7-0.1-1.1-0.8-0.9-1.4
  c0-0.1,0-0.2,0.1-0.3c0.3-0.6,1-0.9,1.6-0.6c0.1,0,0.1,0.1,0.2,0.1c0.3,0.2,0.7,0.3,1.1,0.2c1.6-1,3.3-0.6,4.9-0.6
  c6.2,0,12.4,0.2,18.6,0.4c1.5,0.1,3,0.3,4.5,0.5c4.7,0.7,9.4,0,14.1-0.1c3.8-0.1,7.6-0.5,11.4-0.7c2.5-0.1,5.1-0.1,7.6,0
  c0.8,0.1,1.5,0.5,2,1.1c2,2.3,3.9,4.8,6,7.2c1.3,1.5,2.8,2.8,4.1,4.1c2.4-1.3,4.5-2.4,6-4.3c0.8-0.8,1.7-1.4,2.7-1.9
  c2.3-1.5,4.7-3,6.9-4.6c1.2-0.9,2.9-1.2,4.4-0.7c4.6,1,9.3,1.7,13.9,2.4c2.7,0.4,5.4,0.9,8.1,1c5.1,0.3,10.1,0.4,15.2,0.5
  c0.5,0,1.1,0.1,1.6,0.3c0.8,0.3,1.8,0.5,1.8,1.6s-1,1-1.7,1.3c-0.8,0.4-1.7,0.9-2.5,1.5c-1.8,1.2-3.5,2.6-5.3,3.7
  c-1.2,0.7-2.7,0.9-3.9,1.6c-2.2,1.3-2.3,2.3-0.8,4.4c2.7,3.8,5.2,7.6,7.8,11.4c0.8,1.3,1.7,2.5,2.7,3.7
  C184.1,84.9,184.6,86.4,184.3,87.8z M128.9,101c-1.5,1.2-1.4,1.1-2.1-0.5c-1-2.6-2.3-5.1-3.8-7.4c-2.3-3.4-4.9-6.6-7.5-9.9
  c-0.8-0.9-1.4-2.2-3-1.9c-0.4-0.3-0.7-0.6-1-1.1c-0.7,0.5-1.7,1-2,1.7c-1.7,4.1-3.3,8.3-4.9,12.5c-0.4,1-0.5,2-0.8,3
  c-0.8,2.1-2.1,2.8-4.2,2.1c-0.9-0.3-1.8-0.6-2.8-0.8c-4-0.8-7.9-1.7-11.9-2.4c-4.4-0.8-8.8-1.4-13.2-2.1c-1.3-0.4-2.7-0.5-4.1-0.2
  c0.2,2.6,0.7,5,0.7,7.5c0,5.9-0.2,11.8-0.4,17.7c-0.1,2.2,0.5,2.9,2.7,3.5c3.2,0.8,6.3,1.6,9.5,2.4c1.9,0.5,3.8,1.1,5.8,1.4
  c4.2,0.8,8.5,1.5,12.7,2.2s8.3,1.4,12.6,2.1c0.3-2.6,0.7-5.1,0.9-7.7c0.1-0.9-0.6-2-0.4-2.8c0.7-2.1,0.3-4.3,0.2-6.4
  s-0.5-4.2-0.8-6.4c-0.2-0.6-0.2-1.2,0-1.9c0.6-1.3,0.8-2.8,0.4-4.2c-0.1-0.6-0.1-1.3,0.1-1.9c0.5-3.5,0.5-7.1,0.1-10.7
  c-0.3-2.1,0-4.2,0.9-6.2c0.4,1.9,0.7,3.9,0.8,5.8c0.1,1.8-0.1,3.6,0,5.5c0.1,2.1,0,4.3-0.3,6.4c-0.2,2.2,0,4.4-0.5,6.6
  c0,0.5,0.1,0.9,0.3,1.4c0.2,1.7,0.4,3.5,0.4,5.2c0.1,2.5,0,5.1,0,7.6c0,1.6,0,3.2-0.1,4.8s-0.3,3.3-0.4,4.9c1.6,0.5,3.3,0.5,4.9,0
  c3.7-0.8,7.3-1.7,11-2.1c5-0.6,9.9-1.7,14.7-3.3c1.7-0.5,3.4-1,5.1-1.4c3.3-0.8,6.5-1.4,9.8-2.1c1.8-0.4,3.6-0.8,5.3-1.3
  c1.5-0.4,3.1-0.8,4.3-2.2c-0.8-1-0.9-2.4-0.1-3.5c0.2-0.5,0.2-0.9,0.1-1.4c0-1.7,0.1-3.3,0.4-5c0.6-3.2,1.6-6.4,2.3-9.5
  c0.7-2.5,0.9-5.1,0.5-7.6c-0.4,0-0.9,0.1-1.3,0.2c-5.2,1.7-10.4,3.5-15.7,5.1c-3,1-6.1,1.9-9.1,2.8c-2.3,0.6-4.7,1-7,1.7
  s-4.7,1.6-7,2.5c-1.1,0.4-2.1,0.7-2.8-0.8c0.5-0.3,0.8-0.6,1.2-0.8c0.5-0.3,1-0.5,1.5-0.7c5.1-1.5,10.1-3.5,15.4-3.9
  c0.7-0.1,1.4-0.3,2.1-0.5c5.3-1.9,10.5-3.8,15.8-5.6c1.6-0.6,3.3-1.1,5.1-1.4c3.5-0.5,6.8-1.7,10.1-2.6c1.2-0.2,2.1-1.1,2.2-2.3
  c-1.9-2.9-3.8-5.8-5.8-8.7c-1.3-2-2.8-3.9-4.2-5.9c-1.5-2.2-3.2-3.5-6.8-1.9c-1.3,0.7-2.6,1.2-4,1.6c-4.1,1.1-8.2,2-12.4,2.6
  c-4.8,0.6-9.6,1.6-14.2,2.9c-1.4,0.4-2.7,1-4.1,1.2c-4.9,1-9.9,1.9-14.8,2.8c-0.2,0.2-0.3,0.3-0.4,0.5c2.8,3.7,5.6,7.4,8.4,11.2
  c1.3,1.5,2.4,3.1,3.5,4.8C127.8,97.9,128.4,99.4,128.9,101L128.9,101z M101.1,98.3l7-18.4l-7.6-1.5c-2.2-0.4-4.4-0.9-6.5-1.3
  c-5.8-1-11.6-1.9-17.4-3.1c-3.2-0.7-6.6-1.1-9.6-2.8c-1.8-1.1-4-1.3-6-0.7l-7.4,19.2c3,0.4,5.8,0.7,8.6,1.1c5,0.8,9.9,1.8,14.8,2.7
  c4.1,0.7,8.2,1.2,12.3,1.9c2.4,0.4,4.8,1,7.2,1.6C98,97.3,99.4,97.8,101.1,98.3L101.1,98.3z M53.4,51.8c0.5,0.5,0.9,1.1,1.3,1.7
  c1,1.8,2,3.6,3,5.4c1.7,2.8,3.5,5.5,5.2,8.3c0.5,0.7,1.3,1,2.1,0.8c5.5-0.4,11-0.7,16.5-1c0.7,0,1.4-0.1,2.1-0.1
  c3.3,0.2,6.5,0.2,9.8,0c5.9-0.6,11.7-1.6,17.5-2.4c1.9-0.3,3.8-0.6,5.6-0.9c2.3-0.3,4.7-0.5,7.2-0.8c-0.2-0.3-0.4-0.6-0.6-0.9
  c-2.2-2.4-4.8-4.5-6.5-7.2c-1.5-2.3-3.5-2.5-5.7-2.6c-3.5-0.1-7-0.1-10.6-0.2c-0.6,0-1.5-0.3-1.8,0c-1.4,1.1-2.9,0.6-4.4,0.5
  c-1.4-0.2-2.8-0.2-4.2,0c-2.6,0.8-5.1,0.3-7.6,0.2c-2-0.1-4.1-0.4-6.1-0.8c-3.5-0.6-7-0.3-10.5-0.3C61.8,51.5,57.7,51.7,53.4,51.8z
   M68.3,69.6c0.3,0.2,0.7,0.4,1.1,0.6c2.5,0.7,4.9,1.5,7.4,1.9c8.2,1.6,16.5,3,24.7,4.5c0.3,0.1,0.7,0.1,1,0.1
  c2.4-0.1,4.8,0.3,7,1.4c0.2,0.1,0.4,0.2,0.6,0.2c2-0.8,4.1-0.1,6.1-0.4c3.2-0.5,6.5-1,9.6-1.7c4.9-1.1,9.8-2.4,14.7-3.5
  c4-0.8,8-1.2,12-2c3-0.6,5.9-1.4,8.8-2.1c0.6-0.3,1.1-0.6,1.5-1c-3.5-0.4-6.5-0.8-9.5-1.2c-4.6-0.5-9.2-1.1-13.8-1.6
  c-3.9-0.4-7.9-1.2-12.1-0.5v10.8c-0.5-0.4-0.9-0.9-1.3-1.4c-1.2-2.9-0.2-6-0.5-8.8c-1,0-1.9,0-2.8,0c-0.7-0.1-1.4-0.1-2.1-0.1
  c-2.4,0.3-4.8,0.6-7.1,0.9c-4.6,0.6-9.2,1.3-13.8,2c-3.2,0.4-6.3,1-9.5,1.1c-7.1,0.3-14.2,0.5-21.3,0.7
  C68.9,69.4,68.6,69.5,68.3,69.6z M130.8,61.8c0.3,0.1,0.5,0.2,0.8,0.3c7.4,0.9,14.9,1.8,22.3,2.6c3.7,0.4,7.5,1,11.2,1.2
  c2.1,0.1,4.4,0,5.8-2.2c0.6-0.9,1.5-1.6,2.6-1.9c3.8-0.2,6-2.9,8.7-4.9c-0.7-0.3-1.5-0.5-2.3-0.6c-1-0.1-2.1-0.1-3.1-0.2
  c-4.8-0.4-9.5-1-14.3-1.2c-4.7-0.4-9.3-1.1-13.9-2.1c-2-0.4-4.2-0.8-6,0.5C138.6,55.9,134.2,57.9,130.8,61.8z"/>
<path d="M116.9,48.7l2,1.3C117.4,50.3,117.4,50.3,116.9,48.7z"/>
<path d="M183.7,52.5c1.3-0.5,1.3-0.5,1.6,0.8L183.7,52.5z"/>
<path d="M53,45.5l1.5-0.3C53.7,46,53.7,46,53,45.5z"/>
<path class="st1" d="M128.9,101c-0.4-1.6-1-3.1-1.7-4.6c-1.1-1.7-2.2-3.3-3.5-4.8c-2.8-3.8-5.6-7.5-8.4-11.2
  c0.1-0.2,0.2-0.4,0.4-0.5c4.9-0.9,9.9-1.8,14.8-2.8c1.4-0.3,2.7-0.9,4.1-1.2c4.7-1.3,9.4-2.3,14.2-2.9c4.2-0.6,8.3-1.5,12.4-2.6
  c1.4-0.4,2.7-1,4-1.6c3.6-1.5,5.2-0.3,6.8,1.9c1.4,2,2.8,3.9,4.2,5.9c2,2.9,3.9,5.9,5.8,8.7c-0.1,1.2-1,2.1-2.2,2.3
  c-3.4,0.9-6.6,2.1-10.1,2.6c-1.7,0.3-3.4,0.7-5.1,1.4c-5.3,1.8-10.5,3.7-15.8,5.6c-0.7,0.3-1.4,0.5-2.1,0.5
  c-5.4,0.4-10.4,2.3-15.4,3.9c-0.5,0.2-1,0.4-1.5,0.7c-0.4,0.2-0.8,0.5-1.2,0.8c0.6,1.5,1.7,1.2,2.8,0.8c2.3-0.9,4.6-1.8,7-2.5
  s4.7-1.1,7-1.7c3.1-0.9,6.1-1.8,9.1-2.8c5.2-1.7,10.4-3.4,15.7-5.1c0.4-0.1,0.8-0.2,1.3-0.2c0.4,2.5,0.2,5.1-0.5,7.6
  c-0.7,3.2-1.6,6.3-2.3,9.5c-0.2,1.7-0.4,3.3-0.4,5c0.1,0.5,0,1-0.1,1.4c-0.8,1.1-0.7,2.5,0.1,3.5c-1.2,1.4-2.8,1.8-4.3,2.2
  c-1.8,0.5-3.5,0.9-5.3,1.3c-3.3,0.7-6.5,1.4-9.8,2.1c-1.7,0.4-3.4,0.8-5.1,1.4c-4.8,1.6-9.7,2.7-14.7,3.3c-3.7,0.5-7.4,1.4-11,2.1
  c-1.6,0.5-3.3,0.5-4.9,0c0.1-1.6,0.3-3.3,0.4-4.9s0.1-3.2,0.1-4.8c0-2.5,0.1-5.1,0-7.6c0-1.7-0.2-3.5-0.4-5.2
  c-0.2-0.4-0.3-0.9-0.3-1.4c0.6-2.2,0.3-4.4,0.5-6.6c0.3-2.1,0.3-4.3,0.3-6.4c-0.1-1.8,0-3.6,0-5.5c-0.1-2-0.4-3.9-0.8-5.8
  c-0.9,1.9-1.2,4.1-0.9,6.2c0.5,3.5,0.4,7.1-0.1,10.7c-0.2,0.6-0.2,1.3-0.1,1.9c0.3,1.4,0.2,2.9-0.4,4.2c-0.2,0.6-0.2,1.2,0,1.9
  c0.2,2.1,0.7,4.2,0.8,6.4s0.5,4.2-0.2,6.4c-0.3,0.8,0.5,1.9,0.4,2.8c-0.2,2.5-0.6,5-0.9,7.7c-4.3-0.7-8.4-1.4-12.6-2.1
  s-8.5-1.4-12.7-2.2c-2-0.4-3.9-1-5.8-1.4c-3.2-0.8-6.3-1.7-9.5-2.4c-2.2-0.5-2.8-1.3-2.7-3.5c0.2-5.9,0.4-11.8,0.4-17.7
  c0-2.5-0.4-4.9-0.7-7.5c1.4-0.2,2.8-0.2,4.1,0.2c4.4,0.7,8.8,1.4,13.2,2.1c4,0.7,8,1.5,11.9,2.4c0.9,0.2,1.8,0.5,2.8,0.8
  c2.1,0.7,3.4,0.1,4.2-2.1c0.4-1,0.4-2,0.8-3c1.6-4.2,3.1-8.3,4.9-12.5c0.3-0.7,1.4-1.1,2-1.7c0.3,0.4,0.6,0.8,1,1.1
  c1.6-0.3,2.3,1,3,1.9c2.6,3.2,5.2,6.4,7.5,9.9c1.5,2.4,2.7,4.8,3.8,7.4C127.4,102.1,127.4,102.2,128.9,101z M130.5,95.5
  c0.3,0.7,0.6,1.3,1,1.9c0.3,0.3,0.8,0.4,1.2,0.4c0.3-0.2,0.5-0.5,0.5-0.9c-0.1-0.4-0.4-0.7-0.8-0.9
  C131.8,95.8,131.2,95.6,130.5,95.5L130.5,95.5z"/>
<path class="st1" d="M101.1,98.3c-1.6-0.5-3-1-4.5-1.4c-2.4-0.6-4.8-1.2-7.2-1.6c-4.1-0.7-8.2-1.2-12.3-1.9
  c-4.9-0.8-9.9-1.8-14.8-2.7c-2.8-0.5-5.6-0.7-8.6-1.1l7.4-19.2c2-0.6,4.2-0.3,6,0.7c3,1.7,6.3,2.1,9.6,2.8
  c5.8,1.2,11.6,2.1,17.4,3.1c2.2,0.4,4.4,0.9,6.5,1.3l7.6,1.5L101.1,98.3z"/>
<path class="st1" d="M53.4,51.8c4.2-0.1,8.4-0.3,12.5-0.3c3.5,0,7-0.4,10.5,0.3c2,0.4,4.1,0.7,6.1,0.8c2.5,0.1,5,0.6,7.6-0.2
  c1.4-0.2,2.8-0.2,4.2,0c1.5,0.1,3,0.6,4.4-0.5c0.4-0.3,1.2,0,1.8,0c3.5,0.1,7,0.1,10.6,0.2c2.2,0.1,4.2,0.3,5.7,2.6
  c1.8,2.7,4.3,4.8,6.5,7.2c0.2,0.3,0.4,0.6,0.6,0.9c-2.5,0.3-4.9,0.5-7.2,0.8c-1.9,0.2-3.8,0.6-5.6,0.9c-5.8,0.8-11.7,1.8-17.5,2.4
  c-3.3,0.2-6.5,0.2-9.8,0c-0.7,0-1.4,0-2.1,0.1c-5.5,0.3-11,0.7-16.5,1c-0.8,0.2-1.6-0.1-2.1-0.8c-1.7-2.8-3.5-5.5-5.2-8.3
  c-1.1-1.8-2-3.6-3-5.4C54.4,52.9,53.9,52.3,53.4,51.8z"/>
<path class="st1" d="M130.8,61.8c3.4-3.9,7.9-5.9,11.8-8.6c1.8-1.3,4-0.9,6-0.5c4.6,1,9.3,1.7,13.9,2.1c4.8,0.2,9.5,0.8,14.3,1.2
  c1,0.1,2.1,0.1,3.1,0.2c0.8,0.1,1.6,0.2,2.3,0.6c-2.8,2-5,4.7-8.7,4.9c-1.1,0.2-2,0.9-2.6,1.9c-1.5,2.2-3.7,2.3-5.8,2.2
  c-3.7-0.2-7.5-0.7-11.2-1.2c-7.4-0.9-14.9-1.7-22.3-2.6C131.3,62,131.1,61.9,130.8,61.8z"/>
<path d="M130.5,95.5c0.7,0.1,1.3,0.2,2,0.5c0.4,0.2,0.6,0.5,0.8,0.9c0,0.4-0.2,0.7-0.5,0.9c-0.4,0-0.9-0.1-1.2-0.4
  C131.2,96.8,130.8,96.2,130.5,95.5z"/>
</g>
    </g>
  </defs>
</svg>
