<?xml version="1.0" encoding="iso-8859-1"?>
<!-- Generator: Adobe Illustrator 19.2.1, SVG Export Plug-In . SVG Version: 6.00 Build 0)  -->
<svg version="1.1" id="Scan_x5F_A4-150dpi_x5F_SW_x5F_0002-11_xA0_Bild_1_"
	 xmlns="http://www.w3.org/2000/svg" xmlns:xlink="http://www.w3.org/1999/xlink" x="0px" y="0px" viewBox="0 0 236.013 181.502"
	 style="enable-background:new 0 0 236.013 181.502;" xml:space="preserve">
<polygon style="fill:#FFFFFF;" points="195.613,92.038 49.113,81.538 63.28,94.705 179.78,98.871 "/>
<g>
	<path style="fill:#FFFFFF;" d="M50.514,85.12c-3.076,0.203-6.813,2.714-7.338,4.786c1.325,0.353,2.64,0.692,3.949,1.054
		c2.825,0.782,5.639,1.607,8.473,2.356c1.978,0.522,4.086,0.701,5.94,1.492c1.526,0.651,2.663,0.586,4.197-0.47
		c-4.272-4.04-9.401-6.764-13.939-10.824c1.103,0.064,1.811,0.083,2.515,0.149c6.583,0.614,13.155,1.433,19.751,1.795
		c5.614,0.308,11.257,0.181,16.885,0.087c12.273-0.205,24.501,0.784,36.747,1.269c0.891,0.035,1.776,0.209,2.667,0.292
		c4.626,0.434,9.25,0.88,13.879,1.28c2.848,0.246,5.706,0.375,8.553,0.625c6.844,0.603,13.558,2.217,20.503,2.175
		c5.978-0.036,11.96,0.559,17.939,0.896c0.431,0.024,0.853,0.216,1.279,0.331c-0.001,0.153-0.002,0.306-0.004,0.459
		c-4.46,1.543-8.92,3.085-13.405,4.636c-1.647-0.895-3.285-1.143-5.152-0.758c-1.45,0.299-3.024,0.012-4.543-0.036
		c-5.545-0.178-11.093-0.549-16.635-0.486c-3.91,0.044-7.766,0.729-11.749,0.37c-5.694-0.514-11.443-0.411-17.167-0.588
		c-6.802-0.21-13.602-0.462-20.404-0.651c-4.117-0.114-8.239-0.075-12.354-0.228c-6.526-0.243-13.046-0.642-19.572-0.857
		c-1.604-0.053-3.223,0.349-4.835,0.542c3.576,2.305,7.53,1.112,11.325,1.883c1.154,2.574,2.313,5.157,3.486,7.774
		c-0.275,0.406-0.583,0.861-0.856,1.263c0.876,1.145,1.86,0.855,2.843,0.743c1.236-0.141,2.499-0.368,3.721-0.251
		c4.271,0.411,8.528,0.971,12.795,1.435c0.845,0.092,1.709,0.013,2.564,0.013c-0.014-0.115-0.028-0.23-0.042-0.345
		c-1.227-0.26-2.454-0.52-3.681-0.781c0.687-0.401,1.308-0.39,1.93-0.403c11.013-0.224,22.04-0.17,33.032-0.775
		c7.32-0.403,14.41,0.951,21.68,1.286c-0.293,0.968-0.513,1.695-0.825,2.726c1.62-1.375,2.88-2.445,4.205-3.57
		c0.923-3.164,3.109-5.549,5.624-7.781c5.34,0.603,10.695,0.415,15.675,2.508c1.6-1.77,1.745-1.775,3.92-1.95
		c4.006-0.322,8.005-0.725,12.006-1.097c1.916-0.178,3.831-0.364,5.994-0.571c0.089-0.257,0.275-0.795,0.471-1.361
		c-1.536-0.731-3.251-0.679-4.414-1.95c0.981-0.625,2.367-0.55,2.328-2.106c-1.31-1.302-3.017-1.136-4.548-1.009
		c-2.576,0.214-4.531-0.547-6.046-2.655c-0.51-0.709-1.278-1.244-1.969-1.809c-2.066-1.693-4.153-3.363-6.357-5.143
		c0.656-3.676,1.226-7.377,1.99-11.037c1.096-5.248,2.278-14.165,3.542-19.375c0.408-1.684,1.188-3.279,1.737-4.752
		c1.089-0.128,1.804-0.213,2.517-0.297c-0.047-0.411-0.016-0.706-0.094-0.738c-7.873-3.271-16.318-4.811-24.182-8.3
		c-0.586,0.827-1.027,1.449-1.524,2.15c-4.077,0-8.178,0.109-12.27-0.027c-5.186-0.173-10.369-0.478-15.545-0.848
		c-5.438-0.389-10.866-0.929-16.299-1.391c-4.809-0.409-9.644-0.621-14.424-1.251c-5.5-0.725-10.942-1.415-16.54-1.012
		c-3.796,0.273-7.654-0.316-11.571-0.524c-0.677,1.522-2.287,1.425-3.604,1.643c-4.596,0.761-9.143,1.647-13.296,3.69
		c-1.574-1.007-1.574-1.007-3.264-0.267c0,1.785-0.131,3.657,0.026,5.505c0.386,4.542,0.932,12.756,1.36,17.295
		c0.403,4.268,0.765,8.54,1.086,12.814c0.103,1.377,0.016,2.768,0.016,3.73c-1.631,0.597-2.917,0.957-4.099,1.531
		c-1.277,0.62-2.456,1.441-3.901,2.309c-1.879-0.39-3.938-0.816-6.435-1.334c-0.797,0.347-2.045,0.89-3.241,1.41
		c0.207,1.262,1.04,1.188,1.704,1.149c2.124-0.125,3.818,0.677,5.225,2.204L50.514,85.12z"/>
	<path d="M50.468,85.164c-1.407-1.527-3.101-2.33-5.225-2.204c-0.664,0.039-1.497,0.113-1.704-1.149
		c1.196-0.52,2.444-1.063,3.241-1.41c2.497,0.518,4.556,0.945,6.435,1.334c1.445-0.867,2.624-1.689,3.901-2.309
		c1.182-0.574,2.468-0.934,4.099-1.531c0-0.962,0.087-2.353-0.016-3.73c-0.32-4.275-0.683-8.546-1.086-12.814
		c-0.428-4.539-0.975-12.752-1.36-17.295c-0.157-1.848-0.026-3.72-0.026-5.505c1.69-0.74,1.69-0.74,3.264,0.267
		c4.154-2.043,8.7-2.929,13.296-3.69c1.317-0.218,2.927-0.121,3.604-1.643c3.917,0.208,7.775,0.797,11.571,0.524
		c5.598-0.403,11.039,0.287,16.54,1.012c4.78,0.63,9.615,0.842,14.424,1.251c5.433,0.462,10.861,1.002,16.299,1.391
		c5.176,0.37,10.359,0.676,15.545,0.848c4.093,0.136,8.194,0.027,12.27,0.027c0.497-0.701,0.938-1.323,1.524-2.15
		c7.864,3.488,16.31,5.029,24.182,8.3c0.078,0.032,0.047,0.327,0.094,0.738c-0.713,0.084-1.429,0.168-2.517,0.297
		c-0.549,1.473-1.329,3.067-1.737,4.752c-1.263,5.21-2.446,14.127-3.542,19.375c-0.764,3.661-1.335,7.362-1.99,11.037
		c2.205,1.781,4.291,3.45,6.357,5.143c0.69,0.566,1.459,1.1,1.969,1.809c1.515,2.108,3.47,2.869,6.046,2.655
		c1.531-0.127,3.237-0.293,4.548,1.009c0.039,1.556-1.347,1.481-2.328,2.106c1.163,1.271,2.878,1.219,4.414,1.95
		c-0.196,0.566-0.382,1.104-0.471,1.361c-2.163,0.206-4.078,0.392-5.994,0.571c-4.001,0.372-8.001,0.775-12.006,1.097
		c-2.175,0.175-2.32,0.18-3.92,1.95c-4.98-2.093-10.335-1.905-15.675-2.508c-2.515,2.232-4.701,4.617-5.624,7.781
		c-1.325,1.125-2.585,2.195-4.205,3.57c0.312-1.031,0.532-1.759,0.825-2.726c-7.271-0.335-14.361-1.688-21.68-1.286
		c-10.992,0.605-22.02,0.551-33.032,0.775c-0.621,0.013-1.243,0.002-1.93,0.403c1.227,0.26,2.454,0.52,3.681,0.781
		c0.014,0.115,0.028,0.23,0.042,0.345c-0.855,0-1.719,0.079-2.564-0.013c-4.267-0.465-8.524-1.024-12.795-1.435
		c-1.222-0.118-2.485,0.11-3.721,0.251c-0.982,0.112-1.966,0.403-2.843-0.743c0.272-0.402,0.581-0.857,0.856-1.263
		c-1.173-2.617-2.332-5.2-3.486-7.774c-3.794-0.771-7.749,0.422-11.325-1.883c1.612-0.193,3.231-0.595,4.835-0.542
		c6.526,0.215,13.047,0.614,19.572,0.857c4.115,0.154,8.237,0.114,12.354,0.228c6.802,0.189,13.603,0.441,20.404,0.651
		c5.725,0.177,11.474,0.074,17.167,0.588c3.982,0.36,7.839-0.326,11.749-0.37c5.542-0.063,11.09,0.308,16.635,0.486
		c1.518,0.049,3.092,0.335,4.543,0.036c1.867-0.385,3.505-0.137,5.152,0.758c4.485-1.551,8.945-3.094,13.405-4.636
		c0.001-0.153,0.002-0.306,0.004-0.459c-0.426-0.114-0.848-0.306-1.279-0.331c-5.979-0.337-11.961-0.932-17.939-0.896
		c-6.945,0.042-13.659-1.572-20.503-2.175c-2.847-0.251-5.705-0.38-8.553-0.625c-4.629-0.399-9.253-0.846-13.879-1.28
		c-0.89-0.083-1.775-0.257-2.667-0.292c-12.247-0.484-24.474-1.474-36.747-1.269c-5.628,0.094-11.272,0.221-16.885-0.087
		c-6.597-0.362-13.168-1.181-19.751-1.795c-0.704-0.066-1.412-0.085-2.515-0.149c4.538,4.06,9.667,6.785,13.939,10.824
		c-1.534,1.056-2.671,1.121-4.197,0.47c-1.854-0.791-3.963-0.97-5.94-1.492c-2.834-0.749-5.648-1.573-8.473-2.356
		c-1.309-0.362-2.625-0.701-3.949-1.054c0.525-2.072,4.262-4.583,7.338-4.786c0.115,0.902-0.179,1.495-1.071,1.91
		c-1.093,0.508-2.098,1.205-3.644,2.117c5.03,1.744,9.78,2.126,14.525,2.768c-2.006-1.663-4.077-3.17-6.201-4.598
		C52.951,86.53,51.689,85.877,50.468,85.164z M186.036,47.042c-2.643-1.525-2.646-1.476-5.349-1.641
		c-5.623-0.343-11.243-0.732-16.863-1.129c-1.245-0.088-2.479-0.358-3.724-0.419c-4.912-0.238-9.828-0.397-14.74-0.638
		c-6.875-0.338-13.747-0.768-20.624-1.071c-3.217-0.142-6.446,0.012-9.663-0.129c-5.444-0.239-10.88-0.694-16.325-0.891
		c-4.025-0.146-8.061-0.077-12.09-0.007c-2.769,0.048-5.535,0.323-8.304,0.381c-3.196,0.067-6.395,0.487-9.576-0.449
		c-2.623-0.772-5.21,0.15-8.093,0.337c0,1.154-0.046,2.027,0.007,2.894c0.364,5.884,0.739,15.452,1.135,21.333
		c0.078,1.155,0.245,2.306,0.402,3.454c0.409,2.983,1.571,5.85,1.064,8.979c-0.256,1.582-0.045,3.239-0.045,5.117
		c6.447,0.306,12.602,0.746,18.762,0.853c8.504,0.148,17.013,0.041,25.519,0.055c1.164,0.002,2.33,0.027,3.491,0.111
		c4.188,0.303,8.374,0.652,12.562,0.947c1.607,0.113,3.226,0.062,4.83,0.201c7.745,0.669,15.487,1.363,23.227,2.081
		c2.401,0.223,4.79,0.573,7.189,0.823c4.086,0.426,8.172,0.863,12.265,1.212c4.098,0.35,8.203,0.621,12.307,0.884
		c2.154,0.138,4.318,0.286,7.075,0.026c-2.396-1.831-3.528-4.255-6.244-4.243c-1.193-1.522-1.193-1.522-2.798-1.921
		c-0.668,1.668,0.152,3.771-1.582,5.493c-0.586-0.569-1.091-1.06-1.655-1.607c1.369-2.021,1.729-3.945,0.902-6.048
		c-0.169-0.43,0.016-1.049,0.164-1.544c0.531-1.781,1.263-3.514,1.653-5.323C182.671,67.046,184.332,55.223,186.036,47.042z
		 M161.713,98.185c-4.184,0-7.926-0.044-11.666,0.017c-2.046,0.033-4.094,0.409-6.132,0.345c-8.035-0.254-16.064-0.678-24.099-0.93
		c-7.949-0.249-15.902-0.352-23.852-0.558c-1.603-0.042-3.199-0.317-4.803-0.384c-3.091-0.129-6.189-0.451-9.518-0.15
		c0.15,1.97,0.278,3.652,0.447,5.871c0.216,0.344,0.731,1.164,1.316,2.097c3.264,0.182,6.502,0.368,9.74,0.542
		c1.87,0.101,3.745,0.306,5.612,0.253c7.053-0.201,14.104-0.491,21.156-0.744c4.374-0.157,8.749-0.469,13.121-0.424
		c6.876,0.071,13.753,0.325,20.624,0.629c2.061,0.091,3.688-0.516,4.923-2.064C159.63,101.372,160.513,99.926,161.713,98.185z
		 M67.33,38.694c3.897,1.173,7.572,1.265,11.319,1.184c8.676-0.188,17.359-0.309,26.035-0.194c6.791,0.09,13.576,0.591,20.366,0.873
		c2.235,0.093,4.48-0.002,6.713,0.122c8.212,0.455,16.424,0.932,24.631,1.466c5.436,0.354,10.862,0.859,16.297,1.223
		c3.475,0.233,6.959,0.332,10.983,0.516c-0.761-0.527-1.013-0.812-1.322-0.898c-3.437-0.954-6.878-1.892-10.329-2.792
		c-0.499-0.13-1.057-0.073-1.585-0.044c-1.496,0.081-2.99,0.262-4.486,0.271c-1.606,0.01-3.212-0.139-4.819-0.203
		c-6.613-0.267-13.234-0.405-19.838-0.822c-9.368-0.591-18.725-1.366-28.083-2.107c-2.579-0.204-5.144-0.578-7.717-0.852
		c-3.196-0.34-6.409-1.027-9.587-0.899c-4.764,0.192-9.466,0.22-14.141-0.793c-0.243-0.053-0.52,0.049-0.813,0.083
		c-0.265,0.454-0.527,0.902-0.807,1.383C76.004,37.195,71.601,36.858,67.33,38.694z M198.064,96.19
		c-1.139-0.957-1.954-1.641-2.839-2.384c-2.872,0.962-5.674,1.9-8.476,2.838C190.433,97.323,193.963,96.536,198.064,96.19z
		 M61.031,80.488c-1.025,0.178-1.82,0.266-2.587,0.464c-0.778,0.201-1.529,0.51-2.291,0.772c0.014,0.143,0.029,0.287,0.043,0.43
		c1.787,0.189,3.574,0.378,5.607,0.594C61.513,81.898,61.316,81.321,61.031,80.488z"/>
	<path style="fill:#FFFFFF;" d="M186.036,47.042c-1.704,8.181-3.365,20.003-5.117,28.121c-0.39,1.809-1.123,3.542-1.653,5.323
		c-0.147,0.495-0.333,1.114-0.164,1.544c0.827,2.102,0.467,4.026-0.902,6.048c0.564,0.548,1.069,1.038,1.655,1.607
		c1.734-1.722,0.914-3.825,1.582-5.493c1.605,0.399,1.605,0.399,2.798,1.921c2.716-0.013,3.848,2.411,6.244,4.243
		c-2.758,0.26-4.922,0.111-7.075-0.026c-4.105-0.262-8.209-0.534-12.307-0.884c-4.093-0.35-8.179-0.787-12.265-1.212
		c-2.399-0.25-4.788-0.6-7.189-0.823c-7.74-0.718-15.483-1.412-23.227-2.081c-1.604-0.139-3.223-0.088-4.83-0.201
		c-4.189-0.295-8.374-0.645-12.562-0.947c-1.16-0.084-2.327-0.109-3.491-0.111c-8.507-0.013-17.015,0.094-25.519-0.055
		c-6.16-0.107-12.315-0.548-18.762-0.853c0-1.878-0.211-3.535,0.045-5.117c0.507-3.129-0.655-5.996-1.064-8.979
		c-0.158-1.148-0.324-2.299-0.402-3.454c-0.396-5.881-0.771-15.449-1.135-21.333c-0.054-0.867-0.007-1.74-0.007-2.894
		c2.883-0.187,5.47-1.108,8.093-0.337c3.181,0.936,6.38,0.516,9.576,0.449c2.77-0.058,5.535-0.334,8.304-0.381
		c4.029-0.069,8.065-0.139,12.09,0.007c5.445,0.197,10.881,0.652,16.325,0.891c3.217,0.141,6.446-0.012,9.663,0.129
		c6.877,0.303,13.748,0.733,20.624,1.071c4.912,0.242,9.828,0.401,14.74,0.638c1.245,0.06,2.479,0.331,3.724,0.419
		c5.619,0.397,11.24,0.785,16.863,1.129C183.39,45.566,183.393,45.517,186.036,47.042z"/>
	<path style="fill:#FFFFFF;" d="M161.713,98.185c-1.2,1.741-2.083,3.186-3.131,4.5c-1.235,1.548-2.861,2.155-4.923,2.064
		c-6.871-0.304-13.747-0.558-20.624-0.629c-4.372-0.045-8.747,0.267-13.121,0.424c-7.052,0.253-14.103,0.543-21.156,0.744
		c-1.867,0.053-3.742-0.152-5.612-0.253c-3.238-0.174-6.475-0.36-9.74-0.542c-0.585-0.932-1.1-1.753-1.316-2.097
		c-0.169-2.219-0.297-3.901-0.447-5.871c3.328-0.301,6.426,0.021,9.518,0.15c1.603,0.067,3.199,0.342,4.803,0.384
		c7.95,0.206,15.904,0.308,23.852,0.558c8.035,0.252,16.064,0.676,24.099,0.93c2.038,0.064,4.086-0.311,6.132-0.345
		C153.788,98.142,157.529,98.185,161.713,98.185z"/>
	<path style="fill:#FFFFFF;" d="M67.33,38.694c4.271-1.836,8.673-1.499,12.817-2.483c0.281-0.481,0.543-0.929,0.807-1.383
		c0.292-0.034,0.569-0.135,0.813-0.083c4.675,1.013,9.377,0.986,14.141,0.793c3.179-0.128,6.392,0.558,9.587,0.899
		c2.574,0.274,5.139,0.648,7.717,0.852c9.358,0.741,18.715,1.516,28.083,2.107c6.604,0.417,13.225,0.555,19.838,0.822
		c1.607,0.065,3.213,0.213,4.819,0.203c1.496-0.009,2.99-0.19,4.486-0.271c0.528-0.028,1.086-0.086,1.585,0.044
		c3.451,0.9,6.893,1.838,10.329,2.792c0.308,0.086,0.561,0.371,1.322,0.898c-4.025-0.184-7.509-0.283-10.983-0.516
		c-5.435-0.364-10.861-0.869-16.297-1.223c-8.207-0.534-16.419-1.011-24.631-1.466c-2.233-0.124-4.477-0.029-6.713-0.122
		c-6.789-0.283-13.575-0.784-20.366-0.873c-8.676-0.115-17.359,0.006-26.035,0.194C74.902,39.96,71.227,39.867,67.33,38.694z"/>
	<path style="fill:#FFFFFF;" d="M50.468,85.164c1.221,0.713,2.483,1.366,3.654,2.153c2.124,1.428,4.195,2.935,6.201,4.598
		c-4.744-0.642-9.495-1.024-14.525-2.768c1.546-0.912,2.551-1.608,3.644-2.117c0.892-0.415,1.186-1.008,1.071-1.91L50.468,85.164z"
		/>
	<path style="fill:#FFFFFF;" d="M198.064,96.19c-4.101,0.346-7.631,1.133-11.315,0.454c2.802-0.938,5.603-1.876,8.476-2.838
		C196.11,94.549,196.925,95.233,198.064,96.19z"/>
	<path style="fill:#FFFFFF;" d="M61.031,80.488c0.285,0.833,0.482,1.41,0.772,2.26c-2.033-0.215-3.82-0.404-5.607-0.594
		c-0.014-0.143-0.029-0.287-0.043-0.43c0.763-0.262,1.513-0.571,2.291-0.772C59.211,80.754,60.006,80.666,61.031,80.488z"/>
</g>
</svg>
