<?xml version="1.0" encoding="iso-8859-1"?>
<!-- Generator: Adobe Illustrator 19.2.1, SVG Export Plug-In . SVG Version: 6.00 Build 0)  -->
<svg version="1.1" id="Scan_x5F_A4-150dpi_x5F_SW_x5F_0002-10_xA0_Bild_1_"
	 xmlns="http://www.w3.org/2000/svg" xmlns:xlink="http://www.w3.org/1999/xlink" x="0px" y="0px" viewBox="0 0 236.013 181.502"
	 style="enable-background:new 0 0 236.013 181.502;" xml:space="preserve">
<path style="fill:#FFFFFF;" d="M179.78,41.705l0.5,39.5L65.113,77.038l-1.757-38.889l34.424-1.778L179.78,41.705z"/>
<g>
	<path d="M207.361,86.112c-0.771,0.634-0.999,0.892-1.283,1.044c-2.597,1.392-5.248,2.689-7.797,4.161
		c-5.032,2.906-10.012,5.902-15.007,8.871c-0.612,0.364-1.342,0.669-1.755,1.204c-1.182,1.53-2.639,1.512-4.34,1.229
		c-1.487-0.247-3.039-0.326-4.542-0.208c-4.545,0.358-9.079,0.848-13.592,1.284c-2.215,5.3-3.218,10.851-4.037,16.886
		c-2.025-2.558-4.508-2.645-7.145-2.721c-4.724-0.137-9.435-0.673-14.158-0.893c-3.045-0.142-6.03-0.618-9.04-0.983
		c-2.798-0.339-5.695,0.167-8.549,0.273c-3.758,0.138-7.477,0.098-11.186-0.854c-1.775-0.456-3.737-0.175-5.614-0.248
		c-2.228-0.087-4.455-0.217-6.683-0.286c-0.798-0.025-1.609,0.007-2.397,0.126c-2.207,0.333-4.399,0.779-6.612,1.061
		c-0.629,0.08-1.31-0.247-1.95-0.384c0.571-3.682-1.935-9.689-5.773-13.966c-1.929-0.26-4.048-0.541-6.166-0.832
		c-2.122-0.292-4.243-0.593-6.316-0.884c-2.53-4.538-6.438-7.696-10.179-10.971c-2.893-2.532-6.007-4.811-9.004-7.226
		c-0.827-0.667-1.584-1.419-2.763-2.484c0.909-0.087,1.485-0.327,1.728-0.138c4.588,3.564,9.165,7.144,13.679,10.802
		c1.595,1.292,3.013,2.802,4.52,4.203c0.292,0.272,0.623,0.503,1.439,1.153c-2.723-6.527-5.411-12.326-9.283-17.498
		c-0.364-0.486-0.909-0.864-1.431-1.196c-0.96-0.611-1.013-1.37-0.484-2.409c4.089,0,8.217,0,12.504,0
		c-0.189-1.546-0.16-3.089-0.602-4.482c-0.569-1.794-0.289-3.536-0.265-5.311c0.014-1.067-0.144-2.135-0.175-3.203
		c-0.063-2.217-0.097-4.434-0.134-6.652c-0.015-0.886,0.037-1.774-0.012-2.657c-0.084-1.503-0.591-3.09-0.263-4.486
		c0.65-2.762,0.442-5.505,0.471-8.264c0.003-0.263,0.095-0.525,0.192-1.023c0.561-0.12,1.197-0.256,2.145-0.459
		c0.163,0.958,0.655,1.946,0.351,2.4c-1.217,1.818-0.831,3.817-0.934,5.74c-0.214,4.016-0.326,8.04-0.389,12.061
		c-0.017,1.058,0.18,2.157,0.488,3.174c0.518,1.706,0.5,3.342-0.003,4.471c0.14,1.413,0.311,2.321,0.304,3.229
		c-0.016,1.973,0.017,3.922,0.945,5.842c0.535,0.094,1.049,0.245,1.569,0.266c4.919,0.196,9.843,0.302,14.757,0.575
		c3.207,0.178,6.399,0.602,9.6,0.895c2.851,0.26,5.7,0.542,8.556,0.725c7.766,0.498,15.534,0.969,23.303,1.403
		c1.603,0.089,3.217-0.018,4.826-0.057c0.804-0.019,1.606-0.119,2.41-0.13c2.766-0.036,5.537,0.046,8.297-0.09
		c6.488-0.32,12.848,0.671,19.187,1.795c6.477,1.149,12.969,1.329,19.5,0.73c0.166-0.015,0.322-0.145,0.561-0.259
		c1.282-1.683,0.368-3.753,0.766-5.633c0.289-1.364,0.202-2.822,0.18-4.236c-0.061-3.93-0.173-7.859-0.273-11.788
		c-0.011-0.444-0.227-0.939-0.095-1.323c1.038-3.02-0.018-6.04,0.039-9.056c0.015-0.772-0.054-1.816-0.528-2.269
		c-0.935-0.893-0.566-1.759-0.338-2.949c-0.79-0.168-1.535-0.385-2.296-0.478c-4.346-0.53-8.696-1.03-13.044-1.541
		c-0.267-0.031-0.531-0.099-0.798-0.111c-4.911-0.22-9.845-0.213-14.729-0.701c-6.849-0.684-13.78,0.148-20.59-1.362
		c-2.055-0.455-4.284-0.091-6.431-0.165c-3.127-0.108-6.254-0.252-9.378-0.42c-3.207-0.173-6.48-0.054-9.602-0.673
		c-4.503-0.893-8.922,0.06-13.377-0.019c-6.963-0.123-13.931,0.048-20.897,0.085c-0.952,0.005-0.952-0.018-1.483-1.436
		c1.965-0.573,3.832-1.005,5.983-0.86c4.098,0.276,8.229,0.091,12.345,0.032c4.113-0.059,8.224-0.259,12.337-0.276
		c1.779-0.008,3.56,0.285,5.34,0.446c7.035,0.637,14.069,1.187,21.147,1.099c2.484-0.031,4.973,0.405,7.46,0.626
		c1.686,0.15,3.369,0.362,5.058,0.438c6.967,0.313,13.945,0.447,20.901,0.913c5.966,0.4,11.904,1.196,17.861,1.743
		c1.598,0.147,3.22,0.022,4.913,0.022c0.778,0.681,1.572,1.376,2.386,2.088c-0.221,2.595-0.473,5.139-0.64,7.688
		c-0.076,1.156,0.021,2.324,0.032,3.486c0.01,0.976,0.142,1.973-0.01,2.924c-0.787,4.918-0.297,9.745,0.692,14.587
		c0.295,1.443,0.048,3.016-0.077,4.518c-0.132,1.585-0.613,3.175,0.419,4.713c2.739,0.728,5.456,0.031,8.555-0.285
		c-0.103,0.838-0.001,1.571-0.289,2.087c-1.56,2.796-3.214,5.54-4.84,8.3c-1.579,2.68-3.163,5.357-5.006,8.478
		c1.668-0.561,3.088-0.804,4.263-1.475c5.198-2.973,10.314-6.09,15.487-9.108c1.618-0.944,3.3-1.786,5-2.572
		C205.678,85.807,206.276,86.035,207.361,86.112z M55.335,76.672c2.425,4.854,4.755,9.181,6.756,13.654
		c1.152,2.575,1.786,5.378,4.345,6.633c3.439,0,6.648-0.006,9.856,0.006c0.534,0.002,1.074,0.047,1.6,0.139
		c4.362,0.77,8.746,0.649,13.076-0.046c3.649-0.586,7.288-0.738,10.957-0.644c5.177,0.132,10.353,0.332,15.531,0.423
		c1.782,0.031,3.576-0.335,5.351-0.249c5.171,0.251,10.335,0.656,15.504,0.969c5.707,0.346,11.414,0.685,17.124,0.97
		c2.053,0.102,4.124-0.092,6.168,0.078c4.094,0.34,8.173,0.857,12.262,1.26c1.75,0.173,3.537,0.483,4.856-0.353
		c3.249-5.446,6.487-10.52,8.656-16.292c-0.653-0.212-0.98-0.403-1.311-0.412c-3.745-0.102-7.537-0.577-11.226-0.155
		c-4.701,0.537-9.263,0.229-13.863-0.551c-6.768-1.148-13.475-2.548-20.461-1.91c-4.616,0.422-9.305,0.073-13.96,0.04
		c-1.699-0.012-3.4-0.061-5.094-0.173c-3.832-0.255-7.658-0.589-11.49-0.838c-4.644-0.302-9.295-0.507-13.937-0.828
		c-7.847-0.543-15.684-1.299-23.538-1.667C66.813,76.457,61.107,76.672,55.335,76.672z M83.493,113.738
		c2.259-0.292,4.263-0.558,6.27-0.806c0.877-0.108,1.762-0.275,2.638-0.248c2.857,0.088,5.715,0.217,8.568,0.403
		c1.957,0.128,3.907,0.372,5.859,0.574c1.772,0.183,3.541,0.534,5.313,0.54c4.027,0.015,8.054-0.155,12.082-0.204
		c0.979-0.012,1.96,0.147,2.94,0.233c3.999,0.352,7.997,0.708,11.996,1.058c1.504,0.132,3.008,0.265,4.514,0.372
		c2.932,0.208,5.865,0.399,8.969,0.608c0.797-2.854,2.451-5.406,1.425-8.63c1.338-0.487,2.02-1.448,1.839-2.827
		c-6.148-1.801-12.302-2.006-18.466-1.923c-6.796,0.091-13.591,0.32-20.386,0.528c-1.669,0.051-3.404-0.228-4.926,0.866
		c-0.301,0.216-0.874,0.093-1.317,0.065c-3.57-0.225-7.136-0.505-10.708-0.69c-4.909-0.255-9.82-0.563-14.732-0.586
		c-1.596-0.007-3.41-0.001-5.04,1.281C81.344,107.361,82.361,110.379,83.493,113.738z M167.011,101.419
		c-0.007-0.124-0.015-0.248-0.022-0.372c-2.076-0.198-4.148-0.504-6.229-0.573c-4.708-0.156-9.42-0.15-14.128-0.3
		c-2.492-0.079-4.978-0.348-7.466-0.527c-0.625-0.045-1.261-0.012-1.874-0.12c-4.42-0.782-8.873-0.983-13.355-0.953
		c-6.707,0.045-13.416,0.004-20.123-0.055c-1.871-0.016-3.756-0.431-5.608-0.296c-3.289,0.24-6.549,0.88-9.838,1.127
		c-3.114,0.234-6.315,0.598-9.358,0.128c-2.792-0.431-5.451-0.101-8.182-0.065c3.138,0.743,6.274,1.526,9.449,1.743
		c7.487,0.51,14.991,0.974,22.491,1.04c8.223,0.072,16.465-0.068,24.67-0.587c8.247-0.521,16.446,0.054,24.665,0.252
		c0.441,0.011,0.894,0.076,1.318,0.197c2.527,0.717,5.075,0.606,7.632,0.231C163.039,101.998,165.025,101.709,167.011,101.419z
		 M154.616,115.298c-0.172-0.065-0.343-0.131-0.515-0.196c-0.137,0.504-0.274,1.007-0.411,1.51c0.154,0.048,0.308,0.095,0.462,0.143
		C154.307,116.27,154.461,115.784,154.616,115.298z"/>
	<path style="fill:#FFFFFF;" d="M55.335,76.672c5.772,0,11.478-0.215,17.162,0.052c7.855,0.369,15.691,1.125,23.538,1.667
		c4.643,0.321,9.293,0.526,13.937,0.828c3.832,0.249,7.658,0.583,11.49,0.838c1.694,0.113,3.395,0.161,5.094,0.173
		c4.656,0.033,9.344,0.381,13.96-0.04c6.986-0.638,13.692,0.763,20.461,1.91c4.6,0.78,9.162,1.088,13.863,0.551
		c3.688-0.422,7.48,0.054,11.226,0.155c0.332,0.009,0.658,0.2,1.311,0.412c-2.169,5.772-5.407,10.847-8.656,16.292
		c-1.319,0.836-3.106,0.526-4.856,0.353c-4.089-0.404-8.168-0.921-12.262-1.26c-2.044-0.17-4.116,0.025-6.168-0.078
		c-5.71-0.285-11.417-0.624-17.124-0.97c-5.169-0.313-10.332-0.718-15.504-0.969c-1.775-0.086-3.569,0.28-5.351,0.249
		c-5.178-0.091-10.354-0.291-15.531-0.423c-3.668-0.094-7.308,0.059-10.957,0.644c-4.33,0.695-8.714,0.816-13.076,0.046
		c-0.525-0.093-1.066-0.137-1.6-0.139c-3.209-0.013-6.417-0.006-9.856-0.006c-2.559-1.255-3.193-4.058-4.345-6.633
		C60.09,85.853,57.76,81.526,55.335,76.672z"/>
	<path style="fill:#FFFFFF;" d="M83.493,113.738c-1.132-3.359-2.149-6.377-3.162-9.385c1.63-1.282,3.443-1.289,5.04-1.281
		c4.912,0.023,9.823,0.332,14.732,0.586c3.572,0.185,7.138,0.465,10.708,0.69c0.444,0.028,1.017,0.151,1.317-0.065
		c1.522-1.095,3.257-0.815,4.926-0.866c6.794-0.208,13.589-0.436,20.386-0.528c6.164-0.083,12.318,0.122,18.466,1.923
		c0.182,1.378-0.5,2.34-1.839,2.827c1.026,3.224-0.629,5.776-1.425,8.63c-3.104-0.209-6.037-0.4-8.969-0.608
		c-1.506-0.107-3.01-0.241-4.514-0.372c-3.999-0.35-7.998-0.706-11.996-1.058c-0.98-0.086-1.961-0.245-2.94-0.233
		c-4.028,0.05-8.055,0.219-12.082,0.204c-1.772-0.007-3.541-0.357-5.313-0.54c-1.952-0.202-3.902-0.446-5.859-0.574
		c-2.853-0.186-5.71-0.314-8.568-0.403c-0.876-0.027-1.761,0.14-2.638,0.248C87.756,113.179,85.752,113.446,83.493,113.738z"/>
	<path style="fill:#FFFFFF;" d="M154.616,115.298c-0.155,0.486-0.309,0.972-0.464,1.457c-0.154-0.048-0.308-0.095-0.462-0.143
		c0.137-0.503,0.274-1.007,0.411-1.51C154.273,115.168,154.444,115.233,154.616,115.298z"/>
</g>
</svg>
