<?xml version="1.0" encoding="utf-8"?>
<!-- Generator: Adobe Illustrator 19.2.1, SVG Export Plug-In . SVG Version: 6.00 Build 0)  -->
<svg version="1.1" id="Ebene_1" xmlns="http://www.w3.org/2000/svg" xmlns:xlink="http://www.w3.org/1999/xlink" x="0px" y="0px"
	 viewBox="0 0 236 181.5" style="enable-background:new 0 0 236 181.5;" xml:space="preserve">
<style type="text/css">
	.st0{fill:#FFFFFF;}
</style>
<g id="doc00073520160814150808-27.psd_Bild">
	<title>SK_Website-Animation_Einzelbilder</title>
	<path class="st0" d="M85.8,54.5c-1.1,1-2.2,1.9-3.4,2.8c-3.2,2.2-6.6,4.2-9.8,6.3c-2.3,1.5-4.6,3.1-6.9,4.7
		c-0.8,0.6-0.7,1.3-0.5,2.1c0.4,1.6,0.7,3.3,0.8,4.9c0.1,6,0,12,0.1,17.9c0.1,5,0.4,10,0.6,15c0.1,2.8,0.5,5.5-0.1,8.3
		c-0.4,0.9,0.1,2,1,2.3c0.2,0.1,0.4,0.1,0.6,0.1c1.9,0.4,3.9,0.6,5.8,1.1c4,0.9,8.1,1.8,12.1,2.7c2.4,0.6,4.8,1.3,7.1,2.1
		c1.6,0.5,3.2,1.4,4.8,2c5.5,2.2,11.1,4,16.9,5.2c0.4,0.1,0.8,0.4,1.1,0.7c1.5,1.8,2.1,1.7,4.1,0.5c1.5-1,3.2-1.7,5-2.2
		c7.8-1.6,15.5-3.6,23.2-5.9c4.4-1.3,8.9-2.7,13.3-4c1-0.3,2-0.9,3.1-1.2c2.5-0.6,4.5-2.7,7.3-2.6c1.7,0,2-1.2,1.3-2.8
		c-0.8-1.7-1.4-3.5-1.7-5.4c-0.1-1.9,0-3.8,0.2-5.7c0-2.3,0-4.6,0-6.9c0.1-2.8,0.1-5.5,0.3-8.3c0.1-2.4,0.4-4.9,0.5-7.3
		s-0.3-5,0.6-7.1c1.1-2.4,1-4.5,0.7-6.9c-0.2-2.3-0.8-4.5-1.7-6.7c-1.4-3.4-2.1-7-2-10.7c-0.1-0.7-0.4-1.3-1-1.6c-0.8-0.5-2-1-2.6,0
		c-0.8,1.2-1.9,1-3,1.1c-3.6,0.4-7.3,0.3-10.9,1.1c-3.9,0.8-7.8,1.4-11.8,1.8c-1.1,0.1-2.2,0.4-3.3,0.5c-3.7,0.4-7.4,0.8-11.1,1.3
		c-5.2,0.6-10.3,2.2-15.7,1.1c-1.2-0.2-1.7,0.7-1.2,1.8c0.2,0.5,0.5,1,0.9,1.8c-0.6,0-1.3,0-2,0c-2-0.3-4.1-0.7-6.1-0.8
		C97,57.6,91.5,56,85.8,54.5z"/>
	<path d="M85.8,54.5c5.7,1.5,11.2,3,16.9,3.2c2,0.1,4.1,0.5,6.1,0.8c0.6,0,1.3,0,2,0c-0.4-0.7-0.7-1.2-0.9-1.8
		c-0.5-1.1,0-2.1,1.2-1.8c5.3,1,10.5-0.5,15.7-1.1c3.7-0.4,7.4-0.8,11.1-1.3c1.1-0.1,2.2-0.4,3.3-0.5c3.9-0.4,7.9-1,11.8-1.8
		c3.5-0.8,7.2-0.7,10.9-1.1c1.1-0.1,2.1,0.1,3-1.1c0.6-1,1.8-0.4,2.6,0c0.6,0.4,0.9,1,1,1.6c-0.1,3.7,0.6,7.3,2,10.7
		c0.9,2.1,1.5,4.4,1.7,6.7c0.3,2.4,0.4,4.5-0.7,6.9c-0.9,2-0.5,4.7-0.6,7.1s-0.4,4.9-0.5,7.3c-0.1,2.8-0.2,5.5-0.3,8.3
		c0,2.3,0,4.6,0,6.9c-0.2,1.9-0.3,3.8-0.2,5.7c0.3,1.9,0.9,3.7,1.7,5.4c0.7,1.6,0.3,2.8-1.3,2.8c-2.8-0.1-4.8,2-7.3,2.6
		c-1.1,0.3-2,0.9-3.1,1.2c-4.4,1.4-8.8,2.7-13.3,4c-7.6,2.3-15.4,4.3-23.2,5.9c-1.8,0.4-3.5,1.2-5,2.2c-2,1.2-2.6,1.3-4.1-0.5
		c-0.3-0.3-0.7-0.6-1.1-0.7c-5.8-1.2-11.4-3-16.9-5.2c-1.6-0.6-3.2-1.5-4.8-2c-2.3-0.8-4.7-1.5-7.1-2.1c-4-1-8.1-1.9-12.1-2.7
		c-1.9-0.4-3.9-0.7-5.8-1.1c-1,0-1.8-0.9-1.7-1.9c0-0.2,0-0.4,0.1-0.6c0.6-2.8,0.2-5.6,0.1-8.3c-0.1-5-0.5-10-0.6-15
		c-0.1-6,0-12-0.1-17.9c-0.1-1.7-0.4-3.3-0.8-4.9c-0.2-0.8-0.3-1.6,0.5-2.1c2.3-1.6,4.5-3.2,6.9-4.7c3.3-2.1,6.6-4.1,9.8-6.3
		C83.6,56.5,84.7,55.5,85.8,54.5z M113.8,78.3c-0.1-5.7-0.9-11.4-2.5-17c-2-0.5-4.1-1.1-6.3-1.5c-2.3-0.4-4.7-0.5-7.1-0.9
		c-3.4-0.6-6.7-1.3-10.1-2c-1.2-0.3-2.4,0-3.3,0.9c-2,1.6-4.2,3.2-6.4,4.6c-1.7,1.1-3.6,2-5.3,3.2s-3.2,2.8-4.7,4.2
		c0.1,0.1,0.2,0.3,0.3,0.4c5.2,0.6,10.1,2.6,15.5,2.9c6.2,0.4,12.3,2,18.4,3.1c0.3,0.1,0.6,0.1,0.9,0.2l-0.5,0.7
		c-1.2-0.1-2.4-0.1-3.5-0.2c-4.5-0.6-9-1.3-13.5-1.9c-4.5-0.5-9-1.4-13.4-2.6c-1.6-0.5-3.3-1.1-5.1-0.5c0.2,3,0.4,5.9,0.5,8.8
		c0.1,2.6,0,5.2,0,7.9c0,2.2-0.2,4.5-0.3,6.7c0,0.8,0.1,1.6,0.2,2.4s0.3,1.6,0.3,2.4c0.1,3.6,0.1,7.1,0.2,10.7
		c0,0.9,0.1,1.8,0.2,2.6c0.5,3.3,1.3,4.3,4.6,5.1c2.9,0.7,6,1.1,8.9,1.9c5.6,1.6,11.3,2.7,16.6,5.2c3.1,1.3,6.3,2.4,9.5,3.4
		c2.9,1,5.8,1.6,8.8,1.8c0-2.1,0-4,0-5.8c0-0.5-0.2-1.1-0.2-1.7c-0.1-1.7-0.1-3.5-0.4-5.2c-0.3-2.1,0.6-4.3-0.6-6.4
		c-0.1-0.4-0.1-0.8-0.1-1.2c0.1-2.5,0-4.9-0.2-7.4c-0.4-2.6-0.4-5.3,0-7.9c0.3-1.9,0-3.9-0.8-5.6c-0.4-0.7-0.5-1.5-0.5-2.3
		c0.4-2.3-0.3-4.4-0.9-6.6c-1.2-0.5-2.4-0.8-3.6-1.3s-2.5-0.2-3.3-1.7C109,77.3,111.1,79,113.8,78.3L113.8,78.3z M115.9,80.7
		c0,1.8-0.1,3.5,0,5.1c0.1,1.3,0.3,2.7,0.6,4c0.4,1.4,0.6,2.9,0.6,4.4c-0.3,4-0.3,8.1,0,12.1s0.9,8,0.8,12c-0.1,3.3,0.3,6.7,0.5,10
		c0,1.2,0.7,2.3,1.7,2.9c1.3-0.6,2.7-1.1,4.1-1.5c6.4-1.5,12.7-2.9,19.1-4.5c3.8-0.9,7.5-2.1,11.2-3.3c3.6-1.1,7.1-2.4,10.6-3.7
		c1.2-0.4,2.2-1.3,3.4-1.7c2.7-1,2.9-1.2,2.2-3.9c-0.2-0.4-0.3-0.8-0.4-1.1c-0.2-2-0.4-4-0.5-6.1c0-1.7,0.3-3.5,0.3-5.2
		c0-2-0.1-4,0-6c0.4-6.8,0.9-13.7,1.4-20.5c-0.1-0.8-0.3-1.5-0.6-2.2c-2,0.5-3.6,0.9-5.2,1.2c-5,1.1-10.1,2.2-15.1,3.3
		c-2.7,0.8-5.4,1.4-8.2,1.8c-3.8,0.4-7.6,0.7-11.4,1.3C126.1,79.7,121.2,80.1,115.9,80.7L115.9,80.7z M172.1,68.9
		c0.1-3.2-0.5-6.3-1.9-9.2c-1.1-2.1-1.7-4.5-1.7-6.9c0.1-1.1-0.7-2-1.8-2.1h-0.1c-0.6-0.1-1.3-0.2-1.9-0.1c-2.7,0.6-5.5,0.5-8.2,0.9
		c-1.2,0.2-2.3,0.5-3.5,0.6c-1.7,0.1-3.3,0.3-5,0.6c-1.8,0.5-3.4,1.3-5.3,0.6c-0.5-0.1-1,0-1.4,0.1c-2.3,0.4-4.6,1.1-7,0.8
		c-0.9,0-1.7,0.2-2.5,0.5c-0.5,0.1-0.9,0.2-1.4,0.2l-5.2,0.7c-1,0.1-2,0.3-3.1,0.4c-1.1,0-2.2,0.1-3.3,0.2c-1.9,0.4-3.8,1.1-5.9,0.5
		c-0.4,0-0.7,0.1-1,0.3c0.8,3.7,1.7,7.3,2.4,10.9s1,7.5,1.6,11.3c3-0.4,5.9-0.8,8.7-1.1c2.3-0.3,4.6-0.5,6.9-0.8
		c0.5,0,0.9-0.1,1.4-0.2c1.7-0.3,3.4-0.6,5.2-0.8c0.9-0.1,1.8,0.1,2.6-0.1c4.8-1,9.6-2.1,14.5-3.2c1.9-0.4,3.8-1.1,5.8-1.4
		C164.7,71,168.5,70.6,172.1,68.9L172.1,68.9z"/>
	<path class="st0" d="M113.8,78.3c-2.7,0.8-4.9-1-7.5-0.7c0.8,1.4,2.2,1.2,3.3,1.7s2.4,0.9,3.6,1.3c0.6,2.2,1.2,4.3,0.9,6.6
		c-0.1,0.8,0.1,1.6,0.5,2.3c0.8,1.8,1.1,3.7,0.8,5.6c-0.4,2.6-0.4,5.3,0,7.9c0.2,2.5,0.3,4.9,0.2,7.4c-0.1,0.4,0,0.8,0.1,1.2
		c1.2,2,0.3,4.2,0.6,6.4c0.2,1.7,0.2,3.5,0.4,5.2c0,0.6,0.2,1.1,0.2,1.7c0,1.9,0,3.8,0,5.8c-3-0.2-6-0.8-8.9-1.8
		c-3.2-0.9-6.4-2.1-9.5-3.4c-5.3-2.5-11-3.6-16.6-5.2c-2.9-0.8-5.9-1.2-8.9-1.9c-3.3-0.8-4.1-1.8-4.6-5.1c-0.1-0.9-0.2-1.7-0.2-2.6
		c-0.1-3.6-0.1-7.1-0.2-10.7c0-0.8-0.2-1.6-0.3-2.4c-0.1-0.8-0.2-1.6-0.2-2.4c0-2.2,0.2-4.5,0.3-6.7c0.1-2.6,0.1-5.3,0-7.9
		c-0.1-2.9-0.3-5.8-0.5-8.8c1.8-0.6,3.6,0.1,5.1,0.5c4.4,1.2,8.9,2,13.4,2.5c4.5,0.6,9,1.3,13.5,1.9c1.2,0.2,2.4,0.2,3.5,0.2
		l0.5-0.7c-0.3-0.1-0.6-0.2-0.9-0.2c-6.1-1.1-12.2-2.7-18.4-3.1c-5.3-0.4-10.2-2.3-15.5-2.9c-0.1-0.1-0.3-0.2-0.3-0.4
		c1.5-1.4,3-2.9,4.7-4.2s3.6-2,5.3-3.2c2.2-1.4,4.3-3,6.4-4.6c0.9-0.8,2.1-1.2,3.3-0.9c3.4,0.7,6.7,1.4,10.1,2
		c2.4,0.4,4.8,0.5,7.1,0.9c2.2,0.4,4.3,1,6.3,1.5C112.9,66.8,113.7,72.5,113.8,78.3z M99.2,64.8c-0.3-1.2-0.9-1.2-1.7-0.8
		s-0.7,0.8-0.1,1.4L99.2,64.8z"/>
	<path class="st0" d="M115.9,80.7c5.3-0.6,10.2-1,15-1.7c3.8-0.5,7.6-0.9,11.4-1.3c2.8-0.4,5.5-1,8.2-1.8c5-1.1,10.1-2.2,15.1-3.3
		c1.6-0.4,3.2-0.8,5.2-1.2c0.3,0.7,0.5,1.5,0.6,2.2c-0.4,6.8-0.9,13.7-1.4,20.5c-0.1,2,0.1,4,0,6c0,1.8-0.3,3.5-0.3,5.2
		c0,2,0.3,4.1,0.5,6.1c0.1,0.4,0.2,0.8,0.4,1.1c0.7,2.7,0.5,3-2.2,3.9c-1.2,0.4-2.2,1.2-3.4,1.7c-3.5,1.3-7,2.6-10.6,3.7
		c-3.7,1.2-7.5,2.3-11.2,3.3c-6.3,1.6-12.7,3-19.1,4.5c-1.4,0.4-2.7,0.9-4.1,1.5c-1-0.6-1.7-1.7-1.7-2.9c-0.1-3.3-0.5-6.7-0.5-10
		c0.1-4.1-0.5-8-0.8-12s-0.3-8.1,0-12.1c0-1.5-0.2-3-0.6-4.4c-0.3-1.3-0.5-2.7-0.6-4C115.8,84.2,115.9,82.5,115.9,80.7z"/>
	<path class="st0" d="M172.1,68.9c-3.6,1.6-7.4,2-11.1,2.8c-2,0.4-3.8,1-5.8,1.4c-4.8,1.1-9.6,2.2-14.5,3.2c-0.8,0.2-1.8,0-2.6,0.1
		c-1.7,0.2-3.4,0.5-5.2,0.8c-0.5,0.1-0.9,0.2-1.4,0.2c-2.3,0.3-4.6,0.5-6.9,0.8c-2.8,0.3-5.7,0.7-8.7,1.1c-0.5-3.8-0.9-7.5-1.6-11.3
		s-1.6-7.2-2.4-10.9c0.3-0.2,0.6-0.3,1-0.3c2,0.6,3.9-0.1,5.9-0.5c1.1-0.1,2.2-0.2,3.3-0.2c1-0.1,2-0.2,3.1-0.4l5.2-0.7
		c0.5-0.1,0.9-0.2,1.4-0.2c0.8-0.3,1.7-0.5,2.5-0.5c2.4,0.3,4.7-0.4,7-0.8c0.5-0.2,0.9-0.2,1.4-0.1c1.9,0.6,3.5-0.2,5.3-0.6
		c1.7-0.3,3.3-0.5,5-0.6c1.2-0.2,2.3-0.5,3.5-0.6c2.7-0.4,5.5-0.3,8.2-0.9c0.6-0.1,1.3,0,1.9,0.1c1.1,0,1.9,0.9,1.9,2v0.1
		c0.1,2.4,0.7,4.7,1.7,6.9C171.6,62.6,172.3,65.8,172.1,68.9z M155.1,58c-0.4,2.1,0,2.5,2,2.8L155.1,58z M138.2,59.7l-2.3,0.4
		C136.6,60.7,137.3,61.5,138.2,59.7L138.2,59.7z"/>
	<path d="M99.2,64.8l-1.8,0.5c-0.6-0.6-0.6-1,0.1-1.4C98.2,63.5,98.9,63.5,99.2,64.8z"/>
	<path d="M155.2,58l2,2.8C155.2,60.6,154.8,60.1,155.2,58z"/>
	<path d="M138.2,59.7c-0.9,1.8-1.6,1-2.3,0.4L138.2,59.7z"/>
</g>
</svg>
