<?xml version="1.0" encoding="utf-8"?>
<!-- Generator: Adobe Illustrator 19.2.1, SVG Export Plug-In . SVG Version: 6.00 Build 0)  -->
<svg version="1.1" id="Ebene_1" xmlns="http://www.w3.org/2000/svg" xmlns:xlink="http://www.w3.org/1999/xlink" x="0px" y="0px"
	 viewBox="0 0 236 181.5" style="enable-background:new 0 0 236 181.5;" xml:space="preserve">
<style type="text/css">
	.st0{fill:#1D1D1B;}
	.st1{fill:#FFFFFF;}
</style>
<g>
	<path class="st0" d="M132.2,100.4c0.5,0,0.9,0.1,1.2,0c0.5,0,1-0.2,1.5-0.2c2.3-0.1,4.7,0.5,7-0.1c0.2,0,0.3,0,0.5,0.1
		c1.2,0.4,2.4,0.3,3.6,0.3c0.6,0,1.1,0,1.7,0.2c2.9,0.7,5.8,0.9,8.7,0.5c1.4-0.2,2.8-0.2,4.1,0.2c1.2,0.4,2.4,0.4,3.6,0.3
		c1-0.1,1.9-0.2,2.9-0.3c0.5,0,0.9,0,1.4,0c1.2,0,2.4,0.1,3.6,0c0.9-0.1,1.8-0.4,2.7-0.5c2.5-0.2,5-0.4,7.5-0.5
		c0.2,0,0.4,0.2,0.9,0.5c-0.7,0.2-1.1,0.3-1.5,0.3c-1.2,0-2.4,0-3.6,0c-1.6,0.1-3.2,0-4.8,0.5c-1.8,0.6-3.6,0.8-5.2,0.3
		c-2,0.3-3.9,0.7-5.8,0.4c-2.6-0.5-5.2-0.8-7.8,0.2c-0.1,0-0.2,0.1-0.3,0.1c-1.7-0.1-3.4-0.2-5.1-0.4c-0.9-0.1-1.8-0.2-2.7,0
		c-0.7,0.2-1.5,0-2.2-0.1c-0.9-0.2-1.8-0.3-2.7-0.2c-1.3,0.2-2.5,0.1-3.7-0.2c-0.4-0.1-0.9-0.2-1.3-0.2c-1.1,0.1-2.3,0.4-3.4,0.6
		c-0.5,0.1-0.9,0.2-1.3,1C132,104.7,132.2,99.9,132.2,100.4"/>
	<path class="st0" d="M132.2,100.4c0.5,0,0.9,0.1,1.2,0c0.5,0,1-0.2,1.5-0.2c2.3-0.1,4.7,0.5,7-0.1c0.2,0,0.3,0,0.5,0.1
		c1.2,0.4,2.4,0.3,3.6,0.3c0.6,0,1.1,0,1.7,0.2c2.9,0.7,5.8,0.9,8.7,0.5c1.4-0.2,2.8-0.2,4.1,0.2c1.2,0.4,2.4,0.4,3.6,0.3
		c1-0.1,1.9-0.2,2.9-0.3c0.5,0,0.9,0,1.4,0c1.2,0,2.4,0.1,3.6,0c0.9-0.1,1.8-0.4,2.7-0.5c2.5-0.2,5-0.4,7.5-0.5
		c0.2,0,0.4,0.2,0.9,0.5c-0.7,0.2-1.1,0.3-1.5,0.3c-1.2,0-2.4,0-3.6,0c-1.6,0.1-3.2,0-4.8,0.5c-1.8,0.6-3.6,0.8-5.2,0.3
		c-2,0.3-3.9,0.7-5.8,0.4c-2.6-0.5-5.2-0.8-7.8,0.2c-0.1,0-0.2,0.1-0.3,0.1c-1.7-0.1-3.4-0.2-5.1-0.4c-0.9-0.1-1.8-0.2-2.7,0
		c-0.7,0.2-1.5,0-2.2-0.1c-0.9-0.2-1.8-0.3-2.7-0.2c-1.3,0.2-2.5,0.1-3.7-0.2c-0.4-0.1-0.9-0.2-1.3-0.2c-1.1,0.1-2.3,0.4-3.4,0.6
		c-0.5,0.1-0.9,0.2-1.3,1C132,104.7,132.2,99.9,132.2,100.4"/>
</g>
<g>
	<path class="st0" d="M108.4,100.4c-0.5,0-0.9,0.1-1.3,0c-0.5,0-1.1-0.2-1.6-0.2c-2.4-0.1-4.9,0.5-7.3-0.1c-0.2,0-0.4,0-0.5,0.1
		c-1.2,0.4-2.5,0.3-3.7,0.3c-0.6,0-1.2,0-1.8,0.2c-3,0.7-6,0.9-9.1,0.5c-1.4-0.2-2.9-0.2-4.3,0.2c-1.2,0.4-2.5,0.4-3.7,0.3
		c-1-0.1-2-0.2-3-0.3c-0.5,0-1,0-1.4,0c-1.2,0-2.5,0.1-3.7,0c-0.9-0.1-1.9-0.4-2.8-0.5c-2.6-0.2-5.2-0.4-7.8-0.5
		c-0.2,0-0.4,0.2-0.9,0.5c0.8,0.2,1.2,0.3,1.5,0.3c1.2,0,2.5,0,3.7,0c1.7,0.1,3.4,0,5,0.5c1.9,0.6,3.7,0.8,5.4,0.3
		c2.1,0.3,4.1,0.7,6.1,0.4c2.7-0.5,5.4-0.8,8.1,0.2c0.1,0,0.2,0.1,0.4,0.1c1.8-0.1,3.6-0.2,5.3-0.4c0.9-0.1,1.9-0.2,2.8,0
		c0.7,0.2,1.5,0,2.3-0.1c0.9-0.2,1.9-0.3,2.8-0.2c1.3,0.2,2.6,0.1,3.9-0.2c0.5-0.1,0.9-0.2,1.4-0.2c1.2,0.1,2.4,0.4,3.5,0.6
		c0.5,0.1,0.9,0.2,1.3,1C108.6,104.7,108.4,99.9,108.4,100.4"/>
	<path class="st0" d="M108.4,100.4c-0.5,0-0.9,0.1-1.3,0c-0.5,0-1.1-0.2-1.6-0.2c-2.4-0.1-4.9,0.5-7.3-0.1c-0.2,0-0.4,0-0.5,0.1
		c-1.2,0.4-2.5,0.3-3.7,0.3c-0.6,0-1.2,0-1.8,0.2c-3,0.7-6,0.9-9.1,0.5c-1.4-0.2-2.9-0.2-4.3,0.2c-1.2,0.4-2.5,0.4-3.7,0.3
		c-1-0.1-2-0.2-3-0.3c-0.5,0-1,0-1.4,0c-1.2,0-2.5,0.1-3.7,0c-0.9-0.1-1.9-0.4-2.8-0.5c-2.6-0.2-5.2-0.4-7.8-0.5
		c-0.2,0-0.4,0.2-0.9,0.5c0.8,0.2,1.2,0.3,1.5,0.3c1.2,0,2.5,0,3.7,0c1.7,0.1,3.4,0,5,0.5c1.9,0.6,3.7,0.8,5.4,0.3
		c2.1,0.3,4.1,0.7,6.1,0.4c2.7-0.5,5.4-0.8,8.1,0.2c0.1,0,0.2,0.1,0.4,0.1c1.8-0.1,3.6-0.2,5.3-0.4c0.9-0.1,1.9-0.2,2.8,0
		c0.7,0.2,1.5,0,2.3-0.1c0.9-0.2,1.9-0.3,2.8-0.2c1.3,0.2,2.6,0.1,3.9-0.2c0.5-0.1,0.9-0.2,1.4-0.2c1.2,0.1,2.4,0.4,3.5,0.6
		c0.5,0.1,0.9,0.2,1.3,1C108.6,104.7,108.4,99.9,108.4,100.4"/>
</g>
<polygon class="st1" points="128.3,59.9 124.6,43.9 64.7,38.8 66.4,59.7 92.3,67.3 128.6,62.7 "/>
<g id="doc00073520160814150808-31.psd_Bild">
	<title>SK_Website-Animation_Einzelbilder</title>
	<path d="M118.2,133.1c-1.3,0.6-2.7,0.4-3.8-0.5c-0.9-0.6-1.8-1-2.8-1.2c-4.9-1.4-9.4-3.8-14.6-4.3c-4.7-0.5-9.4-1.8-14.1-2.7
		c-0.6-0.1-1.1-0.2-1.6-0.5c-3.1-1.6-6.5-2.1-9.8-3.1c-1.5-0.5-3.2-0.5-4.7,0c-1.1,0.3-1.6-0.2-1.4-1.2c1.3-5.2,0.5-10.5,0.4-15.7
		c-0.2-6.5-0.2-12.9-0.2-19.4c-0.1-5.8-0.1-11.5-0.2-17.2c-0.1-0.6-0.4-1.1-0.8-1.5c-0.6-0.4-1.2-0.7-1.9-0.9
		c-1.6-0.4-3.2-1.1-4.5-2.1c-0.4-0.3-1-0.6-1.5-0.7c-4.9-1.4-9.6-3.5-14.8-3.8c-1.7-0.1-2.2-0.8-2.2-2.8c0.6,0,1.2,0,1.8,0
		c5.7,1,11.5,1.8,17.2,3c3.7,0.8,7.4,2.1,11.1,2.9c5,1,10.1,1.6,15.1,2.5c1.5,0.2,3,0.6,4.4,1c0.8,0.2,1.4,0.8,2.2,0.3
		c0.1,0,0.2,0,0.2,0c3,2.5,5.7-0.4,8.6-0.5c3.4-0.1,6.7-1.1,10.1-1.4c4.8-0.5,9.5-0.8,14.3-1.2c0.4,0,0.8-0.1,1.2-0.2
		c0.3-0.1,0.6-0.3,0.8-0.5c-0.4-0.7-1-1.4-1.5-2c-2-1.7-3.2-4-4.5-6.1c-1-1.6-2-3-3.1-4.5c-0.6-0.8-1.1-1.5-0.5-2.6s1.5-1,2.5-1
		c2.2,0.1,4.4,0,6.6,0l0.1-0.6c-0.9-0.2-1.7-0.4-2.6-0.6c-2.5-0.3-4.9-0.5-7.4-0.7c-4.9-0.5-9.8-1.2-14.8-1.6
		c-6-0.6-12.1-0.9-18.1-1.4c-1.6-0.1-3.2-0.4-4.8-0.7c-4.1-0.6-8.2-0.6-12.2-0.1c0.1,0.3,0.1,0.7,0,1c-1.2,1.7-0.6,3.5-0.4,5.3
		c0.5,3.6,1,7.2,1.6,10.9c0.2,0.8,0.5,1.5,0.9,2.1c0.4,0.4,0.4,1,0,1.4c-0.1,0.1-0.3,0.2-0.4,0.2c-1.3-0.8-2.1-2.1-2.2-3.6
		c-0.6-4.7-1-8.2-1.6-12.8c0.1-0.5,0-0.9-0.2-1.4c-1.9-1-0.9-2.8-1.1-4.2c-0.2-0.6,0.1-1.4,0.8-1.6c0.3-0.1,0.6-0.1,0.9,0
		c2.6,0.6,5.2,0.8,7.8,0.7c2.9,0.1,5.9,0.4,8.8,0.9c2,0.2,3.9,0.6,5.9,0.8c5.5,0.4,11,0.6,16.5,1.1c4.6,0.4,9.2,1.1,13.8,1.7
		c2.3,0.3,4.6,0.5,6.9,0.6c0.8,0,1.6-0.2,2.3-0.5c2.4-0.8,3.3,0,2.8,2.5l-0.2,0.9c2.1,0.2,4.1,0.6,6.1,0.6c9.3,0.3,18.6,1.3,28,0.8
		c2.2-0.1,2.3,0,3.1,2.1c0.3,0.9,0.6,1.8,0.8,2.7c0.9,3.7,3.4,6.6,4.9,10c0.3,0.4,0.5,0.8,0.7,1.2c0.3,1.9,1.5,2.2,3.3,2.3
		c2.5,0.1,5,0.7,7.5,1c1.4,0.2,2.9,0.2,4.3,0.3c2.5,0.2,5.1,0.3,7.6,0.5c0.5,0.2,0.9,0.4,1.3,0.8c-1.3,1.2-2.2,2.2-4.1,2
		c-2.2-0.1-4.3,0-6.4,0.4c-4.4,0.6-8.8,1.4-13.2,2.1c-0.5,0.1-1.1,0.3-1.6,0.5c0,2.7,0,5.3,0,7.8c0,1-0.2,2-0.3,3.1
		c-0.1,1.3-0.4,2.5-0.4,3.8c-0.2,4.1-0.5,8.3-0.4,12.4c0.1,4.9,0.5,9.9,0.9,14.8c0,0.3,0.1,0.6,0.2,0.9c0.7,2.5,0.2,3.1-2.3,3.6
		c-1.6,0.3-3.3,0.6-4.9,0.9c-2.7,0.5-5.4,0.8-8,1.4c-2.8,0.6-5.6,1.4-8.3,2.1c-3.3,0.8-6.5,1.9-9.9,2.5c-5.1,1-10,2.5-15,3.9
		c-0.8,0.2-1.5,0.5-2.1,1C119.8,131.6,119,132.3,118.2,133.1z M55.3,59.6L55.3,59.6c1.8,1,3.7,2,5.6,2.9c0.6,0.4,1.3,0.6,2,0.7
		c2.4,0,4.4,0.9,6.5,1.8c1.3,0.4,2.7,0.7,4,0.9c1.3,0.4,2.7,0.8,3.2,2.5c-2.8-1.1-5.7-1.8-8.7-1.9c-1.2,2.5-1.5,3-1.2,4.8
		c0.4,3.9,0.6,7.8,0.4,11.7c-0.1,2.8,0.2,5.6,0.2,8.4c0,4.5-0.1,8.9,0,13.3s0.5,8.8,0.8,13.1c0.1,0.3,0.2,0.5,0.3,0.8l2.2,0.5
		c3.6,0.8,7.2,1.2,10.5,3c1.6,0.7,3.3,1.1,5,1.4c3.6,0.8,7.2,1.5,10.8,2.2c1.3,0.3,2.7,0.4,4,0.7c1.5,0.3,3.1,0.7,4.6,1.2
		c1.5,0.5,3.3,1.1,5,1.6c0.7,0.1,1.4,0.3,2,0.6c1.1,0.7,2.5,0.6,3.5-0.1c-0.1-0.8-0.1-1.6-0.2-2.5c-0.1-1.5-0.3-3-0.5-4.5
		c0.1-0.5,0.1-1.1,0-1.6c-0.9-1.7-0.4-3.6-0.5-5.4c-0.2-3.1,0.1-6.2,0.2-9.3c0-2.7-0.4-5.5,0-8.1c0.4-2.8-0.2-5.6-0.2-8.3
		c-0.1-1.4-0.3-2.8-0.6-4.2c-0.6-2.9-1.2-5.7-1.8-8.6c-0.5-0.1-1.1-0.1-1.8-0.2c-8.8-2.1-17.7-4.2-26.5-6.3
		c-1.5-0.4-2.9-0.8-4.3-1.4c-0.8-0.1-1.4-0.9-1.3-1.7c0-0.1,0-0.2,0.1-0.3L110,75l0.2-0.6c-0.7-0.3-1.4-0.5-2.1-0.8
		c-1.3-0.5-2.5-1-3.8-1.5c-3.5-1.4-6.9-3.2-10.5-4c-2.1-0.5-4.2-0.9-6.3-1.4c-4.4-1.2-8.9-1.8-13.4-2.6c-1.8-0.3-3.6-0.5-5.4-1
		c-2.9-0.7-5.7-1.6-8.5-2.3C58.7,60.3,57,60,55.3,59.6L55.3,59.6z M114.4,77.6c0.5,2.3,1,4.5,1.4,6.6c1.1,4.8,1.9,9.7,1.1,14.7
		c-0.1,1.2-0.1,2.4,0.1,3.6c0,0.8,0.2,1.6,0.2,2.4c0.1,6.7,0.2,13.4,0.4,20.1c0.1,1.6,0.4,3.1,0.7,4.6c1.9-0.6,3.6-1.3,5.4-1.8
		c3.9-1,7.9-2,11.8-3s8-2.2,12-3.2c2.3-0.6,4.6-1.2,7-1.7c3.4-0.7,6.9-1.3,10.3-2.1c1.5-0.5,2.9-1.1,4.2-1.8
		c-0.2-4-0.4-7.8-0.6-11.5c-0.1-2.3-0.3-4.6-0.3-6.9c0-3.4,0.2-6.8,0.3-10.2c0-0.8,0.1-1.6,0.3-2.4c0.7-4,0.3-7.9-0.2-12.1l-18.6,4
		c-3,0.6-5.9,1.2-8.9,1.9c-0.9,0.3-1.8,0.6-2.7,1c-1,0.3-2,0.2-2.9-0.2c-1.3-0.7-2.8-1.1-4.3-1c-3.6-0.1-7.2-0.2-10.8-0.6
		C118.5,77.7,116.7,77,114.4,77.6L114.4,77.6z M120.8,47.3c-1,1.2-0.6,2.3,0.2,3.4c1,1.4,2,2.9,2.9,4.4c1.9,3.4,5.2,5.8,9.1,6.4
		c4.3,0.7,8.7,1.2,13.1,1.5c5.6,0.4,11.2,0.4,16.7,0.6c1.8,0.1,3.6,0.3,5.5,0.4c0.9,0.1,1.8,0,3,0c-0.4-0.9-0.7-1.5-1-2.2
		c-1.8-3.4-3.9-6.5-4.9-10.3c-0.6-2.5-1.2-2.7-4-2.8c-5.2-0.2-10.4-0.3-15.5-0.6c-4.2-0.2-8.4-0.7-12.6-0.8S124.9,46.3,120.8,47.3
		L120.8,47.3z M114.4,74.3c2.3-1.4,4.7-2.5,7.6-2c0.6,0,1.1,0,1.7-0.1c1.7-0.1,3.3-0.2,5-0.5c2.8-0.5,5.8,0.4,8.5-1.3
		c0.1,0,0.3,0,0.4,0.1c0.5,1.3,1.5,0.7,2.2,0.6c3.8-0.6,7.5-1.5,11.3-2.2c4.2-0.8,8.5-1.6,12.7-2.4c1.2,0,2.3-0.5,3.2-1.2
		c-5.4-0.1-10.5-0.2-15.6-0.4c-3.5-0.1-7-0.3-10.5-0.6c-2.5-0.2-5-0.8-7.6-1.2c-2.1-0.3-2.6,0-2.9,2.1c-0.1,0.2-0.1,0.5-0.1,0.7
		c0.3,1.1-0.5,2.4,0.8,3.3c0.1,0.5,0,1-0.3,1.4c-0.7,0.3-0.9-0.2-1-0.9c-0.1-0.9-0.9-1.4-0.7-2.5s-0.3-2.3-0.5-3.5
		c-10.5-0.1-20.6,1.7-30.8,4L114.4,74.3z M114.9,75.5c2.7,0.3,5.4,0.7,8,0.9c4.5,0.4,9,0.7,13.6,1c1.1,0.1,2.2,0.1,3.3-0.1
		c2.6-0.4,5.2-0.9,7.7-1.5c3.2-0.7,6.3-1.6,9.5-2.2c3.7-0.7,7.4-1.3,11-1.9c6.1-1,12.3-2,18.4-3c0.2,0,0.4-0.1,1-0.3
		c-3.3-0.5-6-0.8-8.6-1.2c-1.6-0.3-3.2-0.9-4.9,0.1c-0.4,0.2-0.9,0.3-1.4,0.1c-2.1-1-4-0.2-6.1,0.1c-6.2,0.9-12.4,2.1-18.5,3.6
		c-3.7,0.8-7.5,1.3-11.4,1.6c-4.6,0.5-9.2,0.1-13.8,1.3c-0.2,0-0.5,0-0.7,0C119.6,73.7,117.1,74.3,114.9,75.5L114.9,75.5z"/>
	<path d="M195.2,61.7c0.4-1.3,0.4-1.3,1.7-0.6L195.2,61.7z"/>
	<path d="M47.7,49.2l-1-1.4C48.1,47.9,48.1,47.9,47.7,49.2z"/>
	<path d="M101.1,59.4l1.3,0.7c-0.1,0.2-0.2,0.3-0.3,0.5C101.2,60.7,100.6,60.6,101.1,59.4z"/>
	<path d="M50,47.8c0.3,0.2,0.5,0.5,0.7,0.8c-0.1,0.3-0.3,0.5-0.5,0.6c-0.2-0.1-0.4-0.2-0.5-0.4C49.7,48.5,49.8,48.1,50,47.8z"/>
	<path d="M131.8,42.9l1-0.6l0.3,0.6l-1,0.5L131.8,42.9z"/>
	<path class="st1" d="M55.3,59.6c1.7,0.4,3.4,0.6,5.1,1.1c2.9,0.7,5.7,1.6,8.5,2.3c1.8,0.4,3.6,0.6,5.4,1c4.5,0.8,9,1.4,13.4,2.6
		c2.1,0.6,4.2,0.9,6.3,1.4c3.6,0.9,7,2.6,10.5,4c1.3,0.5,2.5,1,3.8,1.5c0.7,0.3,1.4,0.5,2.1,0.8l-0.2,0.6l-31.4-7.7
		c-0.2,0.8,0.2,1.6,1,1.9c0.1,0,0.2,0,0.3,0.1c1.4,0.5,2.9,1,4.3,1.4c8.8,2.1,17.7,4.2,26.5,6.3c0.6,0.1,1.2,0.2,1.8,0.2
		c0.6,2.9,1.2,5.8,1.8,8.6c0.3,1.4,0.5,2.8,0.6,4.2c0,2.8,0.6,5.5,0.2,8.3c-0.4,2.6,0,5.4,0,8.1c0,3.1-0.4,6.2-0.2,9.3
		c0.1,1.8-0.4,3.6,0.5,5.4c0.1,0.5,0.1,1.1,0,1.6c0.1,1.5,0.3,3,0.5,4.5c0.1,0.9,0.1,1.7,0.2,2.5c-1.1,0.8-2.5,0.8-3.6,0.1
		c-0.6-0.3-1.3-0.5-2-0.6c-1.7-0.5-3.3-1.1-5-1.6c-1.7-0.5-3.1-0.8-4.6-1.2c-1.3-0.3-2.7-0.5-4-0.7c-3.6-0.7-7.2-1.4-10.8-2.2
		c-1.7-0.2-3.4-0.7-5-1.4c-3.3-1.8-7-2.2-10.5-3l-2.2-0.5c-0.1-0.3-0.2-0.5-0.3-0.8c-0.3-4.4-0.7-8.7-0.8-13.1s0-8.9,0-13.3
		c0-2.8-0.3-5.6-0.2-8.4c0.2-3.9,0-7.8-0.4-11.7c-0.2-1.9,0-2.3,1.2-4.8c3,0.1,5.9,0.7,8.7,1.9c-0.5-1.6-1.9-2.1-3.2-2.5
		c-1.3-0.2-2.7-0.5-4-0.9c-2.1-0.9-4.2-1.8-6.5-1.8c-0.7-0.1-1.4-0.3-2-0.7C59.2,61.5,57.3,60.5,55.3,59.6L55.3,59.6z"/>
	<path class="st1" d="M114.4,77.6c2.2-0.6,4.1,0,6,0.2c3.6,0.4,7.2,0.5,10.8,0.6c1.5-0.1,3,0.3,4.3,1c0.9,0.4,1.9,0.5,2.9,0.2
		c0.9-0.4,1.8-0.7,2.7-1c3-0.7,5.9-1.2,8.9-1.9l18.6-4c0.5,4.3,0.9,8.2,0.2,12.1c-0.2,0.8-0.3,1.6-0.3,2.4
		c-0.1,3.4-0.3,6.8-0.3,10.2c0,2.3,0.2,4.6,0.3,6.9c0.2,3.7,0.4,7.5,0.6,11.5c-1.4,0.8-2.8,1.4-4.3,1.9c-3.4,0.8-6.9,1.4-10.3,2.1
		c-2.3,0.5-4.7,1.1-7,1.7c-4,1.1-8,2.2-12,3.2s-7.9,1.9-11.8,3c-1.8,0.5-3.5,1.1-5.4,1.8c-0.4-1.5-0.6-3.1-0.7-4.6
		c-0.2-6.7-0.3-13.4-0.4-20.1c0-0.8-0.1-1.6-0.2-2.4c-0.2-1.2-0.2-2.4-0.1-3.6c0.9-5,0-9.9-1.1-14.7
		C115.4,82.1,114.9,79.9,114.4,77.6z"/>
	<path class="st1" d="M120.8,47.2c4.1-1,8.2,0,12.4,0.1s8.4,0.6,12.6,0.8c5.2,0.2,10.4,0.4,15.5,0.6c2.8,0.1,3.3,0.3,4,2.8
		c1,3.8,3.1,6.9,4.9,10.3c0.3,0.6,0.6,1.3,1,2.2c-1.2,0-2.1,0-3,0c-1.8-0.1-3.6-0.4-5.5-0.4c-5.6-0.2-11.2-0.2-16.7-0.6
		c-4.4-0.3-8.7-0.8-13.1-1.5c-3.8-0.6-7.2-2.9-9.1-6.4c-0.9-1.5-1.8-3-2.9-4.4C120.2,49.5,119.8,48.4,120.8,47.2z M156.3,55.8
		l-0.2,0.4c0.4,0.4,0.8,0.8,1.3,1.2c0.3,0,0.7-0.1,1-0.2c0-0.4-0.1-0.7-0.3-1C157.6,56,157,55.9,156.3,55.8z"/>
	<path class="st1" d="M114.9,75.5c2.2-1.3,4.7-1.8,7.3-1.6c0.2,0,0.5,0,0.7,0c4.5-1.2,9.2-0.8,13.8-1.3c3.8-0.3,7.6-0.8,11.4-1.6
		c6.1-1.5,12.3-2.7,18.5-3.6c2-0.3,4-1.1,6.1-0.1c0.5,0.2,1,0.1,1.4-0.1c1.6-0.9,3.2-0.4,4.9-0.1c2.6,0.5,5.3,0.8,8.6,1.2
		c-0.6,0.2-0.8,0.3-1,0.3c-6.1,1-12.3,2-18.4,3c-3.7,0.6-7.4,1.2-11,1.9c-3.2,0.6-6.3,1.5-9.5,2.2c-2.6,0.6-5.1,1-7.7,1.5
		c-1.1,0.2-2.2,0.2-3.3,0.1c-4.5-0.3-9-0.6-13.6-1C120.2,76.2,117.6,75.8,114.9,75.5z"/>
	<path d="M156.3,55.8c0.6,0.1,1.2,0.2,1.8,0.4c0.2,0.3,0.3,0.6,0.3,1c-0.3,0.2-0.7,0.2-1,0.2c-0.5-0.4-0.9-0.8-1.3-1.2L156.3,55.8z"
		/>
</g>
</svg>
