<?xml version="1.0" encoding="utf-8"?>
<!-- Generator: Adobe Illustrator 19.2.1, SVG Export Plug-In . SVG Version: 6.00 Build 0)  -->
<svg version="1.1" id="Ebene_1" xmlns="http://www.w3.org/2000/svg" xmlns:xlink="http://www.w3.org/1999/xlink" x="0px" y="0px"
	 viewBox="0 0 236 181.5" style="enable-background:new 0 0 236 181.5;" xml:space="preserve">
<style type="text/css">
	.st0{fill:#FFFFFF;}
</style>
<g id="doc00073520160814150808-16.psd_Bild">
	<title>SK_Website-Animation_Einzelbilder</title>
	<path class="st0" d="M161.1,75.5c-0.3-1.7-0.3-1.7-2.3-0.8L161.1,75.5l0.6,2.7c0.4-0.1,0.7-0.2,1-0.4c0.4-0.4,0.6-1,0.7-1.5
		c-0.3-0.4-0.7-0.7-1.2-0.9C161.9,75.3,161.5,75.3,161.1,75.5z M92,56.5c-0.5,2.4-1,4.5-1.4,6.6c-0.6,2.5-0.9,5-1.1,7.5
		c0.1,2-0.3,4-1,5.8c-0.5,1.1-0.8,2.3-0.8,3.5c-0.3,4.9-1.7,9.6-2.8,14.3c-1.4,5.9-3.4,11.6-5.2,17.4c-0.7,2.4-0.1,3.4,2.4,3.6
		c1.2,0,2.4,0.1,3.6,0.2c3.5,0.6,6.9,1.4,10.3,2.1c5.4,1.2,10.8,1,16.2,1c1.9,0,4-0.3,5.7,1.2c0.5,0.4,1.1,0.6,1.8,0.6
		c2,0.3,4,0.9,5.9,1.6c5.6,1.7,11.4,3.2,17.1,4.7c1.4,0.5,2.9,0.6,4.2,0.1c-0.1-0.9-0.3-1.8-0.6-2.6c-0.6-1.5-0.8-3.2-0.4-4.9
		c0.6-3.6,1-7.2,1.2-10.9c0.2-2.7,0.3-5.4,1.4-7.9c1.8-4.2,3-8.7,3.5-13.3c0.2-1.5,0.6-3,1.1-4.4c0.4-1.4,0.8-2.7,1.3-4.1
		c0.9-2.9,1.3-5.9,3.1-8.7c-0.7-0.7-1.5-1.2-2.4-1.6c-2.9-0.7-5.8-1.1-8.7-1.6c-2-0.3-4.2-0.2-6.2-0.7c-3.3-0.7-6.6-1.8-9.9-2.6
		c-1.6-0.4-3.3-0.7-4.9-0.9c-5.6-0.4-11.1-1.4-16.4-3.2c-2.5-0.7-5.1-1.3-7.7-1.7c-2-0.4-4.1-0.8-6.1-1.2C94,56.1,92.8,55.8,92,56.5
		L92,56.5z M79.9,103.3c-0.5-1.9-0.7-2-2.3-2.1C77.2,103.1,79,102.7,79.9,103.3L79.9,103.3z M106.7,50.7c-0.8-1-1.4-0.7-2.2,0
		l1.1,1.4L106.7,50.7z M134.6,130.4c-0.3-0.6-0.5-1.1-0.9-1.6c-0.3,0-0.5,0.1-0.7,0.3C133,129.8,133.3,130.3,134.6,130.4
		L134.6,130.4z M104,55c-0.3-0.2-0.6-0.4-1-0.6c-0.2,0-0.4,0.1-0.6,0.3c0.1,0.2,0.3,0.5,0.5,0.6C103.2,55.2,103.6,55.1,104,55
		L104,55z"/>
	<path d="M92,56.5c0.8-0.6,1.9-0.4,3.1-0.1c2,0.4,4.1,0.8,6.1,1.2c2.6,0.4,5.2,1,7.7,1.7c5.3,1.8,10.8,2.8,16.4,3.2
		c1.7,0.1,3.3,0.4,4.9,0.9c3.3,0.8,6.6,1.9,9.9,2.6c2,0.4,4.1,0.4,6.2,0.7c2.9,0.4,5.8,0.9,8.7,1.6c0.9,0.4,1.7,1,2.5,1.7
		c-1.8,2.8-2.2,5.9-3.1,8.7c-0.4,1.4-0.9,2.7-1.3,4.1c-0.5,1.4-0.8,2.9-1.1,4.4c-0.5,4.6-1.7,9.1-3.6,13.3c-1.1,2.5-1.2,5.2-1.4,7.9
		c-0.2,3.6-0.6,7.3-1.2,10.9c-0.4,1.6-0.2,3.3,0.4,4.9c0.3,0.9,0.5,1.8,0.6,2.6c-1.4,0.5-2.9,0.4-4.2-0.1
		c-5.7-1.5-11.4-2.9-17.1-4.7c-1.9-0.7-3.9-1.3-5.9-1.6c-0.6,0-1.3-0.3-1.8-0.6c-1.7-1.5-3.8-1.2-5.7-1.2c-5.4,0.1-10.8,0.2-16.2-1
		c-3.4-0.8-6.9-1.5-10.3-2.1c-1.2-0.1-2.4-0.2-3.6-0.2c-2.5-0.2-3.1-1.2-2.4-3.6c1.8-5.8,3.8-11.5,5.2-17.4
		c1.1-4.7,2.5-9.4,2.8-14.3c0.1-1.2,0.4-2.4,0.8-3.5c0.7-1.8,1.1-3.8,1-5.8c0.2-2.5,0.5-5.1,1.1-7.5C91.1,60.9,91.5,58.9,92,56.5z
		 M144,125.1c0.1-1.1,0.1-1.8,0.2-2.5c0.1-1.9,0.1-3.8,0.3-5.7c0.4-3,1.1-6,1.2-9c0.1-4.1,0.9-8.1,2.6-11.8c0.6-1.5,1.1-3.2,1.3-4.8
		c0.4-2.3,0.6-4.7,1-7.1c0.1-0.5,0.3-0.9,0.5-1.3c1.2-3.7,2.3-7.4,3.5-11.2c0.1-0.4,0.1-0.9,0.2-1.4c-2.5-0.6-4.8-1.1-7.2-1.7
		c-0.8-0.2-1.6-0.2-2.4-0.4c-2.2-0.8-4.5-1-6.8-0.7c-0.6,0.1-1.3,0-1.9-0.3c-2.8-1.3-5.8-2.1-8.9-2.5c-1.5-0.2-2.9-0.8-4.4-0.8
		c-4.2-0.1-8.4-0.9-12.4-2.2c-3.9-1.2-7.7-2.7-11.9-2.3c-0.4,0-0.8,0-1.2-0.2c-1.4-0.5-2.9-0.4-4.3,0.2c-0.5,1.7-0.9,3.5-1.5,5.2
		c-0.7,2.5-0.9,5-0.7,7.6c0,1.3-0.2,2.5-0.6,3.7c-0.3,1.3-1.1,2.5-1.1,3.9c-0.3,5.4-2,10.5-3.3,15.7c-1.3,5.5-3.1,11-4.8,16.5
		c1.8,1.1,3.8,1.2,5.7,1.6c3.6,0.7,7.1,1.7,10.7,2.5c0.3,0.1,0.6,0.1,1,0.1c3.8,0.1,7.7,0.1,11.5,0.2c1.4,0,2.9,0.2,4.3,0.5
		c6.8,1.8,13.5,3.8,20.3,5.7C137.7,123.4,140.6,124.2,144,125.1L144,125.1z"/>
	<path d="M161.1,75.5c0.4-0.1,0.7-0.2,1.1-0.1c0.5,0.1,0.9,0.4,1.2,0.9c-0.1,0.6-0.3,1.1-0.7,1.5c-0.3,0.2-0.6,0.4-1,0.4L161.1,75.5
		L161.1,75.5z"/>
	<path d="M79.9,103.3c-0.9-0.5-2.7-0.1-2.3-2.1C79.2,101.2,79.4,101.4,79.9,103.3z"/>
	<path d="M106.7,50.7l-1.2,1.4l-1.1-1.4C105.3,50,105.9,49.7,106.7,50.7z"/>
	<path d="M161.2,75.4l-2.3-0.7C160.9,73.8,160.9,73.8,161.2,75.4L161.2,75.4z"/>
	<path d="M134.6,130.4c-1.3,0-1.6-0.5-1.6-1.3c0.2-0.2,0.4-0.3,0.7-0.3C134.1,129.3,134.4,129.8,134.6,130.4z"/>
	<path d="M104,55c-0.4,0.2-0.7,0.3-1.1,0.3c-0.2-0.2-0.4-0.4-0.5-0.6c0.2-0.1,0.4-0.2,0.6-0.3C103.3,54.5,103.7,54.7,104,55z"/>
	<path class="st0" d="M144,125.1c-3.4-0.9-6.3-1.7-9.2-2.5c-6.8-1.9-13.5-3.8-20.3-5.7c-1.4-0.3-2.8-0.5-4.3-0.5
		c-3.8-0.1-7.6-0.1-11.5-0.2c-0.3,0-0.6,0-1-0.1c-3.6-0.8-7.1-1.8-10.7-2.5c-1.9-0.4-3.9-0.6-5.7-1.6c1.6-5.5,3.5-11,4.8-16.5
		c1.2-5.2,2.9-10.3,3.2-15.7c0.1-1.3,0.8-2.5,1.1-3.9c0.3-1.2,0.5-2.5,0.6-3.7c-0.2-2.5,0.1-5.1,0.7-7.6c0.5-1.7,1-3.5,1.5-5.2
		c1.4-0.6,2.9-0.6,4.3-0.2c0.4,0.1,0.8,0.2,1.2,0.2c4.2-0.4,8,1.1,11.9,2.3c4,1.4,8.2,2.1,12.4,2.2c1.5,0,2.9,0.7,4.4,0.8
		c3.1,0.4,6.1,1.3,8.9,2.5c0.6,0.3,1.2,0.4,1.9,0.3c2.3-0.3,4.6,0,6.8,0.7c0.8,0.2,1.6,0.2,2.4,0.4c2.4,0.5,4.7,1.1,7.2,1.7
		c0,0.5-0.1,0.9-0.2,1.4c-1.2,3.7-2.3,7.4-3.5,11.2c-0.2,0.4-0.4,0.9-0.5,1.3c-0.4,2.4-0.6,4.7-1,7.1c-0.2,1.6-0.7,3.3-1.3,4.8
		c-1.6,3.7-2.5,7.7-2.6,11.8c-0.1,3-0.9,6-1.2,9c-0.2,1.9-0.2,3.8-0.3,5.7C144.1,123.3,144.1,124,144,125.1z"/>
</g>
</svg>
