<svg id="Ebene_1" xmlns="http://www.w3.org/2000/svg" viewBox="0 0 236 181.5">
    <path fill="#1d1d1b" d="M84 100.4c0-.5.3 4.3.7 2.8-.5-.8-1.1-.9-1.7-1-1.5-.2-3.1-.5-4.6-.6-.5 0-1.2.1-1.7.2-1.6.3-3.2.4-5 .2-1.2-.1-2.4 0-3.6.2-.9.1-2 .3-2.9.1-1.2-.2-2.4-.1-3.6 0-2.3.2-4.6.3-6.8.4-.1 0-.3-.1-.4-.1-3.5-1-7-.7-10.5-.2-2.5.3-5.1-.1-7.8-.4-2.1.5-4.6.3-7-.3-2.1-.5-4.3-.4-6.4-.5h-4.8c-.5 0-1.1-.1-2-.3.7-.3.9-.5 1.2-.5 3.4.1 6.7.3 10.1.5 1.2.1 2.4.4 3.6.5 1.6.1 3.2 0 4.8 0h1.9c1.3.1 2.5.2 3.9.3 1.6.1 3.2.1 4.8-.3 1.7-.4 3.6-.4 5.5-.2 3.9.4 7.8.2 11.7-.5.8-.2 1.5-.2 2.3-.2 1.6 0 3.2.1 4.8-.3.3-.1.4-.1.7-.1 3.1.6 6.3 0 9.4.1.7 0 1.3.2 2 .2.2.1.7 0 1.4 0m66.5-.1c0-.5-.3 4.7-.8 3 .5-.9 1.1-1 1.8-1.1 1.5-.2 3.1-.5 4.8-.7.7 0 1.2.1 1.9.2 1.8.3 3.6.4 5.3.2 1.2-.1 2.6 0 3.8.2 1.1.1 2.2.3 3.1.1 1.2-.2 2.6-.1 3.8 0 2.3.2 4.8.3 7.2.4.3 0 .4-.1.5-.1 3.7-1.1 7.4-.8 11.1-.2 2.7.3 5.5-.1 8.3-.4 2.3.5 4.8.3 7.4-.3 2.2-.5 4.5-.4 6.8-.5h5.1c.4 0 1-.1 2.1-.3-.7-.3-1-.5-1.2-.5-3.6.1-7.1.3-10.7.5-1.2.1-2.6.4-3.8.5-1.6.1-3.4 0-5.1 0H200c-1.4.1-2.7.2-4.1.3-1.6.1-3.4.1-5.1-.3-1.9-.4-4-.4-5.9-.2-4.2.4-8.3.2-12.4-.5-.8-.2-1.6-.2-2.5-.2-1.6 0-3.4.1-5.1-.3-.1-.1-.4-.1-.7-.1-3.3.7-6.7 0-10 .1-.7 0-1.5.2-2.2.2-.3.1-.8 0-1.5 0"/>
        <path fill="#1d1d1b" d="M71.4 132.2c-.5-1.4-.6-2.9-.3-4.4.4-5.1.3-10.2.5-15.2.1-1.2 0-2.4 0-3.6-.2-4.8-.3-9.4-.5-14.2-.1-1-2.1-2.7-3.1-2.9-2.4-.4-3.5-1.9-2.1-4 2.6-3.9 3.5-8.5 5.6-12.6-2.2 2.2-5.1 3.1-7.5 4.8-2 1.6-3.7 3.3-5.3 5.3-.2.6-.4 1.3-.2 1.9-.1 1.2-.5 1.6-1.5 1.4l-.9-.3c-.9 0-1.7-.8-1.8-1.7 0-.9.4-1.6 1-2.3 4.2-3.1 7.9-6.8 12.6-9.2 2.1-1.2 4-2.6 6-4.1.5-.4 1.1-.6 1.7-.6 7.9 1 16 1.3 24.1 1 4.3-.1 8.7.2 13.1.2 4.1 0 8.2-.2 12.3-.4 4.3-.2 8.5-.5 12.9-.8 3.7-.2 7.4-.2 11.1-.3 4.8-.1 9.7-.3 14.5-.5 1.4-.2 2.7.5 3.1 1.8.3.6.6 1.2 1.1 1.6 3.3 3.8 6.6 7.5 10.8 10.2.5.2.9.6 1.3 1.1.2.4.2.9 0 1.3-.3.3-.9.4-1.3.3-.4-.2-.8-.4-1.2-.9-2.7-2.1-5.2-4.4-7.5-7-1.2-1.3-2.6-2.4-4-3.6l-.4.3c.1.5.1 1.1.1 1.6.2 2.4.4 4.8.6 7.1.1 1.3.3 2.6.3 3.8.1 1 .1 2.2-.4 2.9-.7 1-1.8.4-2.7-.1h-.6c.3 1.2-.8 2.8 1.1 3.3-1.1 1.2-1.7 2.7-1.6 4.3 0 .5.3 1 .2 1.5-.1 3.6-.3 7.2-.4 10.8-.1 2.1-.3 4.1-.4 6.2-.1 2.8-.4 5.7-.4 8.5 0 1.8.5 3.6.6 5.3.1.9 0 1.6.1 2.8-.8.1-1.6.1-2.4 0-2.5-1-5.1-1.3-7.8-1.1-2.6.1-5.3-.3-8-.3h-19.9c-3.6 0-7-.3-10.5-.4-6.4-.1-12.7-.3-19.1-.2-5.8 0-11.6.2-17.4.4-1 .1-1.8.2-2.8.4-.8.1-1.7.2-2.4.3l-.3.3zm88.7-41.5c-28.9-2.2-57.6-.5-86.1.8-.8 1.4-1.1 3-.8 4.5.6 4.5.8 9.1.5 13.6 0 .9.1 1.7.1 2.6.1 3.1 0 6.2.1 9.2 0 2.6-.1 5.3-.2 8 1 .2 1.8.4 2.5.4 1 .1 2 .1 3 .1 13.3-.5 26.5-.8 39.7 0 6 .3 12.1 0 18.1 0h20.4c1.8 0 2.1-.2 1.9-1.8-.3-3-.2-6.2 0-9.3.2-4.9.3-9.7.4-14.7.1-3.5.2-6.9.4-10.4.1-.9 0-2 0-3zm2.1-18.9v-.5c-1.1 0-2.1-.2-3.1-.1-4.6.2-9.2.5-13.8.8-4.6.2-9.4.4-14.1.6-2.2.1-4.5.5-6.8.6-5.8.1-11.6.1-17.3-.1-5.1-.2-10.3.5-15.6.1-4.6-.3-9.4 0-14.1-.1-1-.1-2.2.4-2.8 1.3-.8 1.1-1.5 2.2-2 3.3-.7 1.8-1.3 3.8-1.9 5.7s-1.1 3.9-1.8 5.9c.5.2 1.1.3 1.7.4 5.5-.2 10.9-.5 16.3-.8 2-.1 4-.3 6-.4 6.6-.1 13.2 0 19.9-.3 8.3-.3 16.6-.6 24.9-.2 4.3.2 8.7.1 13 .2 3.8 0 7.6.1 11.2.1 1.5 0 1.7-.3 1.9-1.8.3-2.1.4-4.1.4-6.2-.2-2.2-.6-4.3-1.1-6.5-.2-.4-.5-.8-.8-1l-1.6 1.1c-.9-1.6.5-1.7 1.5-2.1z"/>
        <path fill="#1d1d1b" d="M168.9 95.9l-.8-1.5c1.3.3 1.3.3.8 1.5zm-97.6 36.3l1.5.9v.3l-2.5-.3 1-.9z"/>
        <path fill="#fff" d="M160.1 90.8c.1 1 .2 2.1.2 3.1-.1 3.5-.2 6.9-.4 10.4-.1 4.9-.2 9.7-.4 14.7-.3 3.1-.3 6.2 0 9.3.2 1.6-.2 1.8-1.9 1.8h-20.4c-6.1 0-12.1.3-18.1 0-13.2-.8-26.5-.5-39.7 0-1.1 0-2 0-3-.1-.7-.1-1.5-.2-2.5-.4 0-2.7.2-5.3.2-8 .1-3.1 0-6.2-.1-9.2 0-.9-.2-1.7-.1-2.6.3-4.5.1-9.2-.5-13.6-.3-1.5-.1-3.1.8-4.5 28.3-1.4 57-3.2 85.9-.9zm2.1-19c-1 .4-2.3.5-1.3 2.3l1.6-1.1c.3.3.6.6.8 1 .5 2.2.9 4.3 1.1 6.5 0 2.1-.1 4.1-.4 6.2-.1 1.5-.4 1.8-1.9 1.8-3.8 0-7.6-.1-11.2-.1-4.3 0-8.7 0-13-.2-8.3-.4-16.6-.1-24.9.2-6.6.3-13.3.2-19.9.3-2 0-4 .3-6 .4-5.5.3-10.9.5-16.3.8-.6-.1-1.1-.2-1.7-.4.6-2.1 1.1-4 1.8-5.9s1.1-3.8 1.9-5.7c.6-1.2 1.2-2.3 2-3.3.7-1 1.8-1.5 2.8-1.3 4.7.1 9.5-.2 14.1.1 5.2.4 10.4-.3 15.6-.1 5.8.2 11.6.1 17.3.1 2.2 0 4.5-.5 6.8-.6l14.1-.6c4.7-.2 9.2-.5 13.8-.8 1.1 0 2.1.1 3.1.1l-.2.3z"/>
</svg>
