<svg id="Ebene_1" xmlns="http://www.w3.org/2000/svg" viewBox="0 0 236 181.5">
        <path fill="#fff" d="M171.1 68.6c-2.5-.3-4.6-.7-6.7-.9-3.2-.3-6.5-.3-9.7-.6-2.5-.2-5-.5-7.4-.9-1.3-.2-2.5-.7-3.9-.9-3.9-.6-7.7-1.2-11.6-1.7-.3-.1-.6-.1-.9-.1-4 .3-7.9.6-11.9.8-4.3.2-8.7.2-13 .3l-6 .1c-3 .1-6.1.1-9 .2-4 .1-7.9.3-12 .3-2.7 0-5.4-.4-8.3-.5-2.3-.1-3.5.9-3.5 3.2 0 2.5.4 5 .5 7.4.1 1.8.2 3.5.1 5.2 0 2.1-.2 4.2-.3 6.3-.1 2.2 0 4.5-.1 6.8-.3 4.3-.3 8.7-.3 13 0 2.3.7 4.6-.3 6.9-.3.8.3 1.7 1.5 2 2.1.5 4.2 1.2 6.3 1.6 3.8.7 7.2 3.2 11.3 2.9l1.2.3c.9.2 1.9.4 2.8.7 1.2.2 2.3.6 3.3.9 2.5 1 5 2.2 7.5 3.2 1.4.4 2.7.9 4 1.5 1.4.8 2.5 1.4 4.1.3.6-.4 1.5-.5 2.2-.5 6.3.2 12.4-1.4 18.7-1.9 4.9-.4 9.8-.8 14.7-1.3 2.4-.1 4.8-.4 7.2-.7 5.1-1 10.1-2.6 15.5-2.5 2 0 2.6-.9 2.4-2.9-.2-2-.3-4-.3-6 0-1.7.2-3.3.2-5s0-3.3.2-5c.5-3.2.6-6.5.2-9.7-.2-1-.1-2.2.2-3.2 1-3.5.5-7 .3-10.5-.2-1.9-.1-3.9.4-5.6.1-1 .3-2.2.4-3.5z"/>
        <path fill="#1d1d1b" d="M171.1 68.6c-.1 1.3-.2 2.5-.5 3.8-.4 1.9-.6 3.8-.4 5.6.2 3.5.7 7-.3 10.5-.3 1-.3 2.2-.2 3.2.4 3.2.3 6.5-.2 9.7-.2 1.7-.1 3.3-.2 5-.1 1.7-.3 3.3-.2 5 0 2 .1 4 .3 6s-.4 2.9-2.4 2.9c-5.3-.1-10.4 1.5-15.5 2.5-2.4.4-4.8.6-7.2.7-4.9.4-9.8.8-14.7 1.3-6.3.4-12.3 2.1-18.7 1.9-.7-.1-1.5.1-2.2.5-1.6 1-2.7.5-4.1-.3-1.3-.6-2.6-1.2-4-1.5-2.5-1-5-2.2-7.5-3.2-1-.4-2.2-.7-3.3-.9-.9-.2-1.9-.5-2.8-.7-.4-.2-.7-.3-1.2-.3-4.1.3-7.4-2.2-11.3-2.9-2.1-.4-4.2-1-6.3-1.6-1.2-.2-1.8-1.2-1.5-2 1-2.3.3-4.6.3-6.9 0-4.3 0-8.7.3-13 .2-2.2 0-4.5.1-6.8l.3-6.3c0-1.8 0-3.5-.1-5.2-.1-2.5-.5-5-.5-7.4 0-2.3 1.2-3.3 3.5-3.2 2.7.1 5.5.5 8.3.5 4 0 7.9-.2 12-.3 3-.1 6.1-.1 9-.2l6-.1c4.3-.1 8.7-.1 13-.3 4-.2 7.9-.5 11.9-.8.3 0 .6 0 .9.1 3.9.5 7.7 1 11.6 1.7 1.3.2 2.5.7 3.9.9 2.5.4 4.9.7 7.4.9 3.2.3 6.5.3 9.7.6 2.2-.1 4.1.2 6.8.6zm-19 1.6c-3.5.1-6.7.5-9.9.3-5.6-.5-11.2.2-16.7.9-4.3.5-8.6.6-13 1-1.5 0-2.9.3-4.3.8-1 .5-2.3.5-3.3.1-2.2-.7-4.5-1.7-7-1.2-.8.1-1.7 0-2.5-.3-8.4-1.5-16.7-4.1-25.4-4-1.2 1.5-.6 3.1-.6 4.7 0 2 .4 4 .3 6-.1 4.6-.4 9.2-.5 13.7 0 .8.1 1.7.1 2.5-.1 5.1-.3 10.2-.5 15.7 1.7 0 2.3.8 2.1 2.1-.2 1.7.8 2.1 2.1 2.5 2.6.7 5.2 1.7 7.8 2.5 1 .4 2.2.6 3.3.8 4.1.6 7.9 1.6 11.8 2.9 1 .3 2 .7 3 1.2 2 .9 4.1 1.9 6.4 2.9.2-1.3.4-2.5.4-3.8-.1-2.3-.4-4.7-.4-7 0-5.8.1-11.5 0-17.3 0-3.9-.3-7.6-.4-11.5-.1-1.7-.1-3.5 0-5.1.1-.4.4-.7.7-1h.5c.1.7.3 1.6.3 2.3.2 3 .3 6.2.4 9.2.1 5.5.5 11 .3 16.5-.2 4.7.4 9.4.5 14.1 0 .9.1 1.8.2 2.9.8.1 1.7.2 2.5.2 3.7-.2 7.3-.5 11-.8 6.3-.6 12.3-1.7 18.7-1.9 3.9-.2 7.8-.6 11.7-1.3 3.2-.5 6.6-1.3 9.8-1.8 1.6-.2 2.9-1 4.5-1.2.5-.3.7-.7.8-1.4-.6-2.9-.1-5.8.1-8.7.4-4.7.3-9.5.5-14.2.1-3.1.1-6.3.1-9.4l.3-11c.1-.4 0-.8-.2-1.2-1.3-1.3-2.4-2.7-4.6-2.4-3.7.4-7.3-.3-11-.9h-.7l.8 1.6zm-69.9-2.9v.3c.3.1.6.2.9.2 5.3.8 10.5 2.6 15.9 2.9 2.2.1 4.3.4 6.5.5.9 0 2-.5 2.9-.4 4 .6 7.8-.4 11.7-.2.9 0 1.9 0 2.7-.2 5.6-.9 11.3-2 17.2-1.7 1.5.1 2.8.2 4.3.2 1.9 0 3.8-.2 5.6-.3-2.2-.7-4.4-.9-6.6-1.6-2.9-.7-6.2.1-9-1.5h-.5c-2.3.2-4.5.2-6.8.1-3.9 0-7.8.4-11.7.4-4.8.1-9.6 0-14.4.1-5.4.1-10.9.4-16.2.5-1 .5-1.8.6-2.5.7z"/>
        <path fill="#fff" d="M152 70.2l-.2-1.8h.7c3.7.5 7.2 1.3 11 .9 2.1-.2 3.3 1.2 4.6 2.4.2.3.3.7.2 1.2l-.3 11c-.1 3.1-.1 6.3-.1 9.4-.1 4.7-.1 9.5-.5 14.2-.2 2.9-.7 5.8-.1 8.7 0 .5-.3 1-.8 1.4-1.6.1-2.9.9-4.5 1.2-3.2.5-6.6 1.3-9.8 1.8-3.9.6-7.7 1-11.7 1.3-6.3.2-12.4 1.3-18.7 1.9-3.7.4-7.3.6-11 .8-.8 0-1.7-.1-2.5-.2-.1-1-.2-2-.2-2.9-.1-4.7-.7-9.4-.5-14.1.2-5.4-.1-11-.3-16.5-.1-3-.2-6.2-.4-9.2 0-.7-.2-1.6-.3-2.3h-.5c-.3.3-.5.6-.7 1v5.1c.1 3.9.4 7.6.4 11.5.1 5.8-.1 11.5 0 17.3 0 2.3.4 4.7.4 7-.1 1.3-.2 2.5-.4 3.8-2.3-1-4.3-2-6.4-2.9-.9-.4-2-.8-3-1.2-3.9-1.4-7.7-2.4-11.8-3-1.2-.2-2.3-.4-3.3-.8-2.6-.8-5.2-1.8-7.8-2.5-1.4-.4-2.3-.8-2.1-2.5.2-1.3-.5-2.1-2.1-2.1.2-5.3.4-10.5.5-15.7 0-.8-.1-1.7-.1-2.5.2-4.6.4-9.2.5-13.7 0-2-.4-4-.3-6 0-1.6-.5-3.1.6-4.7 8.7-.1 16.9 2.6 25.3 4.2.8.2 1.7.3 2.5.3 2.5-.5 4.8.4 7 1.2 1 .5 2.3.4 3.3-.1 1.4-.5 2.8-.8 4.3-.8 4.3-.3 8.6-.4 13-1 5.5-.7 11.1-1.5 16.7-.9 2.7.4 6-.1 9.4-.2zm8.9.1c2 .8 2.5.8 4 0h-4z"/>
        <path fill="#fff" d="M82.2 67.3c.8-.1 1.6-.2 2.3-.3 5.4-.2 10.9-.4 16.2-.5 4.8-.1 9.6 0 14.4-.1 4-.1 7.8-.4 11.7-.4 2.3.1 4.5.1 6.8-.1h.5c2.8 1.6 6.1.7 9 1.5 2.2.5 4.4.8 6.6 1.6-1.9.1-3.8.2-5.6.3-1.5 0-2.8-.1-4.3-.2-5.8-.3-11.4.7-17.2 1.7-.9.1-1.8.2-2.7.2-3.9-.2-7.8.9-11.7.2-.9-.1-2 .4-2.9.4-2.2-.1-4.3-.4-6.5-.5-5.4-.2-10.6-2.1-15.9-2.9-.3-.1-.6-.2-.9-.2l.2-.7z"/>
        <path fill="#1d1d1b" d="M160.9 70.3h4c-1.5.8-2 .9-4 0z"/>
</svg>
