<svg id="Ebene_1" xmlns="http://www.w3.org/2000/svg" viewBox="0 0 236 181.5">
    <path fill="#1d1d1b" d="M64.3 100.4c0-.5.2 4.3.5 2.8-.4-.8-.8-.9-1.2-1-1-.2-2.2-.5-3.2-.6-.4 0-.9.1-1.2.2-1.1.3-2.3.4-3.5.2-.9-.1-1.7 0-2.6.2-.7.1-1.4.3-2.1.1-.9-.2-1.7-.1-2.6 0-1.6.2-3.2.3-4.9.4-.1 0-.2-.1-.3-.1-2.5-1-5-.7-7.4-.2-1.8.3-3.6-.1-5.5-.4-1.5.5-3.2.3-5-.3-1.5-.5-3-.4-4.6-.5h-3.4c-.4 0-.8-.1-1.4-.3.5-.3.7-.5.9-.5 2.4.1 4.8.3 7.1.5.9.1 1.7.4 2.6.5 1.1.1 2.3 0 3.4 0h1.3c1 .1 1.8.2 2.8.3 1.1.1 2.3.1 3.4-.3 1.2-.4 2.6-.4 3.9-.2 2.8.4 5.5.2 8.3-.5.6-.2 1-.2 1.6-.2 1.1 0 2.3.1 3.4-.3.2-.1.3-.1.5-.1 2.2.6 4.5 0 6.7.1.5 0 1 .2 1.4.2.2.1.6 0 1.1 0m103.4-.1c0-.5-.2 4.7-.6 3 .4-.9.8-1 1.4-1.1 1.1-.2 2.4-.5 3.6-.7.5 0 .9.1 1.5.2 1.4.3 2.7.4 4.1.2.9-.1 2 0 2.9.2.8.1 1.7.3 2.4.1.9-.2 2-.1 2.9 0 1.8.2 3.6.3 5.5.4.2 0 .3-.1.4-.1 2.8-1.1 5.6-.8 8.4-.2 2.1.3 4.2-.1 6.4-.4 1.8.5 3.6.3 5.6-.3 1.7-.5 3.4-.4 5.2-.5h3.9c.3 0 .7-.1 1.6-.3-.5-.3-.7-.5-.9-.5-2.7.1-5.4.3-8.1.5-.9.1-2 .4-2.9.5-1.2.1-2.6 0-3.9 0h-1.5c-1 .1-2.1.2-3.1.3-1.2.1-2.6.1-3.9-.3-1.5-.4-3-.4-4.5-.2-3.2.4-6.4.2-9.5-.5-.6-.2-1.2-.2-1.9-.2-1.2 0-2.6.1-3.9-.3-.1-.1-.3-.1-.5-.1-2.5.7-5.1 0-7.6.1-.5 0-1.1.2-1.7.2-.3.1-.8 0-1.3 0"/>
        <path fill="#1d1d1b" d="M50.4 139.8l-.8 2c-1.2.5-2.6.4-3.7-.4-.9-.8-1.3-2.1-.7-3.2 1.9-3 3.9-6.1 5.9-9 4.9-3 7.3-8.5 11.8-11.8.2-.3.4-.6.5-1-3.8 1.6-7.1 3.1-9.7 6-.8 1-1.9 1.9-3 2.5-.5.3-1.2.7-1.6 1.2-.6.4-1.3.7-1.8 1-1.6-1.2-2.4-3-2.1-4.9.2-3.8.3-7.5.1-11.3 0-5.6 0-11.4-.1-17.1-.2-6.2-.5-12.3-.8-18.5-.1-1.7-.3-3.3-1.9-4.4.1-1 .8-2 1.9-2.3 3.5-1.2 5.6-4 8.5-6.1 1-.8 2-1.8 3-2.6 2.2-1.7 4.6-3.3 6.8-5-.7-3 .6-4.6 2.9-6.3 2.4-1.8 4.4-4.1 5.8-6.8.6-1.4 1.4-2.7 2.1-4 .3-.8 1.3-1.3 2.1-.9.1.1.3.1.4.2 1.2.5 2.4.8 3.7.8 4.7.3 9.3.6 14 .7 4.3.2 8.6-.1 12.8.4 5.9.6 11.6 0 17.5-.4 4-.2 8.1-.2 12 0 6.4.2 12.9.6 19.2.8 1.5 0 3-.9 4.6.5l-.9 1.9c0 .2.1.3.2.4 2.9 2.7 4.7 6.3 7.1 9.3.9 1.2 2.1 2.4 2.4 3.8.3 1.7 1.7 2.3 2.3 3.6.7 1.4 1.6 2.7 2.5 4s2 2.5 3 3.7c1 1.3 2.1 2.4 3.2 3.5 1.7 1.5 2.8 3.3 5 4.4 1.3.6 2 2.5 2.9 4-1.2.1-1.2.1-2.8-1.3-.1 1.4-.3 2.4-.3 3.6 0 3.6.3 7 .2 10.6-.2 6.3-.6 12.6-.8 18.7-.1 4.1 0 8.2.1 12.2v.2c-.7 3.3 1.6 4.9 3.9 6.4.9.6 1.3 1.3.6 2.3-1.5.7-2.3-.3-3.3-1.2-.6.5-1.3 1.7-2.2.8-.6-.5-.8-1.4-.8-2.2 1-1.8-.3-2.5-1.3-3.2-2.6-2-5.2-3.9-8.1-5.5.4.6.8 1.2 1.3 1.7 1.6 1.7 3.1 3.2 4.7 4.8 1.2 1.2 2.6 2.2 2.3 4.2.1.4.3.7.6 1 1.2 1.8 2.4 3.7 3.6 5.4.3.5.5 1 .7 1.6.5 1.5 0 2.1-1.5 2.1h-2.5c-10.3-.3-20.5-.6-30.9-.8-7-.1-14 .2-21 .1-8.1-.1-16-.5-24.1-.8-2.3-.1-4.7 0-7 0s-4.8-.2-7.2-.3c-2.9-.1-5.9-.6-8.8-.3-7.3.7-14.5.1-21.9.5-2.3.1-4.6.6-6.9.8-1.1.2-2.5.1-3.7-.1zM152 116.2c0-.8.1-1.2.1-1.5-.1-3-.1-6.2-.2-9.2 0-1.4 0-2.6-.1-4s-.2-2.5-.2-3.8c.1-5.6.2-11.4.3-17.1 0-1.5 0-3-.2-4.5-.2-1.8-.5-2-2.3-2-11.5.2-23 .2-34.5-.4-5.5-.3-11-.7-16.5-.9-4.3-.1-8.5.1-12.8 0-1.7-.1-3.5.1-5.1.6-1.3 7.4-.4 14.8.2 22 .4 5.4 1 11 .6 16.4 0 1 .1 2.1.3 3.1 2.4.1 4.7.3 6.9.2 9.9-.1 19.9-.5 29.8-.4 7.2.1 14.5.7 21.8 1 3.9.6 7.8.5 11.9.5zM48.3 137.5c3.1.1 5.9.2 8.6.2 3.3 0 6.7-.1 10-.2 6.8-.2 13.7-.5 20.5-.5 3.5 0 6.8.4 10.3.5 5.4.2 10.9.1 16.3.4 8.2.4 16.3.6 24.6.3 3-.1 6-.3 9-.2 3.2 0 6.5.3 9.7.4 7.5.2 15.1.4 22.5.6.8 0 1.8-.1 2.6-.2-.2-3.6-2.1-6-4.1-8.4-.2-.2-.3-.5-.3-.8.8-1-.1-1.5-.5-2-2.5-2.9-5-5.9-7.4-8.8-.3-.4-.7-.6-1.2-.7-2.5-.2-5-.5-7.4-.4-3.6 0-7.2.3-10.8.4-8.4.3-16.7-.3-25.1-.7-8.4-.4-16.5-.4-24.8-.5-4.7 0-9.5.3-14.3.4-5.5 0-11-.1-16.5 0-1.6-.1-3.1.3-4.6 1-1.9 1.3-3.6 2.8-5 4.5-1.7 1.8-2.8 4.1-4.6 5.5-2.2 1.9-3.9 4.2-5.8 6.3-.7.9-1.2 1.9-1.7 2.9zm104-91.4c4.3 1.9 8.4 4.1 12.2 6.7-1.9-4.6-5.8-7.2-7.6-11.3-1.3-.1-2.4-.2-3.6-.3-4-.1-7.8-.1-11.8-.2-5.3-.1-10.7-.3-16-.4-.9 0-1.8.2-2.7.2-4.3.2-8.5.5-12.8.6-2.4.1-4.8-.2-7.2-.3H101c-5.1-.2-10.4-.3-15.5-.5-3.7-.2-7.4-.4-10.8-.7L66.5 52c2 2.1 2 2.2 4.8 2.4.5 0 1.2-.1 1.8 0 2.5.2 5.1.6 7.6 1.3 1.2.4 2.3.6 3.6.4 1.2-.1 2.3-.2 3.5-.2 1 0 2 .2 3 .2 7.1.2 14.1.3 21.2.5 1.6.1 3.1.1 4.7 0 3.3-.4 6.7-.4 9.9 0 6.3.4 12.4.4 18.7.6.4 0 .8 0 1.3-.1 4.9-.9 9.8-.5 14.8-.1 1.5.1 2.9.5 4.4-.5-3.3-5.2-9.1-6.9-13.5-10.4zM71 59.1c3.1 3.7 6.3 7.2 9.5 10.9.5.5 1.2.8 1.9.8 2.5.1 5 .1 7.5.1 5.5.1 11.2.2 16.7.4 6.7.3 13.3.8 20 1s13.2.1 19.8 0c2.5 0 5.2.4 7.2-1.9l1.6 1.3c3.3-4.1 7-7.6 9.9-12.3-2.2-.2-4.1-.4-6-.4-3.5-.1-7-.1-10.5-.1h-8.3c-1-.1-2.2-.1-3.2 0-3.9.4-7.8.3-11.7-.3-2.3-.2-4.6-.3-7-.3-2.9 0-5.9.2-8.8.2h-2.5c-5.4-.1-10.9-.1-16.2-.2-3-.1-6-.4-9-.6-1.5-.1-2.9-.2-4.4-.4-1.7-.2-3.5-.5-5.1-.7L71 59.1zm-6.6-3.2c-.9.7-1.9 1.4-2.6 2-2.9 2.4-6.5 4.2-8.8 7.4-.4.4-.9.7-1.5 1-1.8 1.4-3.5 2.8-5 4.4-.6.8-.9 1.8-.8 2.7.1 6.1.4 12.1.6 18.3.1 2.1.3 4.2.4 6.3.2 7.5.3 15.2.5 22.8.1 1 .3 2 .6 3 1.7-.8 3.2-1.8 4.8-2.8 2-1.8 4.2-3.2 6.6-4.4 1.7-.8 3.3-1.8 4.8-2.6-.2-1.2-.3-2.3-.3-3.6 0-3.1.2-6.3.3-9.4.1-4.3.1-8.7.2-13s0-8.7.1-13c0-1 .1-2.2.1-3.2 0-1.4.1-2.8.1-4.2 0-.5-.1-.9-.1-1.5 0-1.8 0-3.7-.1-5.4.1-1.5.1-2.9.1-4.8zM168 60c.2 4.6.5 9 .5 13.5 0 2.7-.8 5.4-.7 8.2.1 6.9-1.5 13.7.2 20.7.7 3 .5 6.3.6 9.5-.1 1.4.4 2.6 1.5 3.6 1.8 1.5 3.2 3.1 5 4.5s3.8 2.9 6 4.6c.3-.6.5-1.3.6-2 0-5.4.2-10.9.7-16.2.3-4 .4-8.1.3-12 0-5.9-.1-11.7-.1-17.6 0-1.2-.4-2.3-1.3-3-3.3-3.5-6.6-7.1-9.8-10.7-1-1.2-2.3-2.3-3.5-3.1zM67.3 57.3l-.5.1c-.1 3.3-.4 6.6-.3 9.9.2 2 .1 4-.4 6-.1.4-.2.8-.2 1.3.3 3.6.3 7.1.1 10.8-.1 3.8.2 7.5.1 11.3-.1 5-.3 9.9-.4 15 .1 1.2.2 2.2.4 3.3 4.7 1.3 9.3-.2 14 .3-.2-1.5-.7-2.8-.5-4 .8-4.5.2-9-.1-13.4-.3-5.5-.6-11.1-.8-16.7-.1-3.7.9-7.4-1.8-10.6-.7-4.2-4.2-6.5-6.2-9.5-2.2.3-1 2.4-2.2 3.5-1.3-2.5-.4-5.1-1.2-7.3zm86.7 58.4h10.1c2.6 0 2.9-.3 2.8-2.9-.1-3.2-.4-6.5-.6-9.7-.2-2.9-.6-5.9-.6-8.8 0-3.6.2-7 .3-10.5 0-1.2.2-2.3.3-3.5.1-1.5.3-2.8.4-4.2.1-.9.2-2 .1-3-.1-3.7-.2-7.3-.4-11-.1-.3-.3-.6-.5-.8-1.6 1.9-3.2 3.7-4.7 5.6-2.2 2.9-5.2 5.2-6.5 8.8-1.4.6-1.4 2-1.5 3.2-.1 3-.3 6.1-.3 9 .1 4.8.3 9.6.4 14.5.3 4.4.5 8.8.7 13.3z"/>
        <path fill="rgba(29,29,27,0.45)" d="M152 116.1c-4.1 0-8.1.1-11.9 0-7.2-.3-14.5-1.1-21.8-1.1-9.9-.1-19.9.2-29.8.4-2.2 0-4.5-.1-6.9-.2-.2-1.1-.3-2.1-.3-3.2.5-5.6-.1-11.1-.6-16.6-.6-7.4-1.5-14.8-.2-22.1 1.7-.5 3.3-.8 5.1-.6 4.3.1 8.5-.2 12.8 0 5.5.2 11 .6 16.5.9 11.5.6 23 .6 34.5.4 1.7 0 2 .1 2.3 2 .2 1.5.2 3.1.2 4.5l-.3 17.2c0 1.3.2 2.5.2 3.8s.1 2.6.1 4c.1 3.1.1 6.2.2 9.3-.1 0-.1.3-.1 1.3z"/>
        <path fill="#fff" d="M48.3 137.5c.5-1 1-2 1.8-2.9 1.9-2.1 3.5-4.4 5.8-6.3 1.9-1.5 3-3.8 4.6-5.5 1.5-1.7 3.1-3.2 5-4.5 1.4-.7 3-1.2 4.6-1 5.5-.1 11 .1 16.5 0 4.7 0 9.5-.4 14.3-.4 8.3 0 16.5 0 24.8.5s16.7 1 25.1.7c3.6-.1 7.2-.4 10.8-.4 2.5 0 5 .2 7.4.4.4.1.8.4 1.2.7 2.5 2.9 5 5.9 7.4 8.8.5.6 1.4 1 .5 2 0 .3.1.6.3.8 2 2.3 3.9 4.7 4.1 8.4-.8.1-1.8.2-2.6.2-7.5-.2-15.1-.4-22.5-.6-3.2-.1-6.5-.4-9.7-.4-3 0-6 .1-9 .2-8.2.4-16.3.1-24.6-.3-5.4-.2-10.9-.2-16.3-.4-3.5-.1-6.8-.5-10.3-.5-6.8.1-13.7.3-20.5.5-3.3.1-6.7.2-10 .2-2.9 0-5.6-.1-8.7-.2zm105.6-14c0-1.6 0-1.6-.8-1.6l.8 1.6zm14.3 12c-.1-.3-.3-.5-.5-.7-.2 0-.4 0-.6.1l.4 1 .7-.4zm-15.9-89.4c4.5 3.3 10.3 5.2 13.4 10.6-1.5 1-3 .6-4.4.5-4.9-.4-9.8-.8-14.8.1-.4.1-.8.1-1.3.1-6.3-.2-12.6-.1-18.7-.6-3.3-.4-6.7-.4-9.9 0-1.6.1-3.1.1-4.7 0-7.1-.2-14.1-.3-21.2-.5-1 0-2-.2-3-.2-1.2 0-2.3 0-3.5.2-1.2.1-2.4 0-3.6-.4-2.5-.6-5-1-7.6-1.3-.5-.1-1.2.1-1.8 0-2.8-.2-2.8-.2-4.8-2.4L74.6 40c3.5.2 7.1.5 10.8.7 5.1.2 10.4.4 15.5.5h1.8c2.4.1 4.8.3 7.2.3 4.3-.1 8.5-.4 12.8-.6.9 0 1.9-.2 2.7-.2 5.3.1 10.7.3 16 .4 4 .1 7.8.1 11.8.2 1.2 0 2.3.2 3.6.3 1.9 4.1 5.8 6.7 7.6 11.3-3.8-2.6-7.9-4.9-12.1-6.8z"/>
        <path fill="rgba(29,29,27,0.45)" d="M71 58.9l1.5-2.7c1.7.2 3.3.5 5.1.8 1.5.2 2.9.3 4.4.4 3 .2 6 .6 9 .6 5.4.1 10.9.1 16.2.2.8 0 1.7.1 2.5 0 2.9-.1 5.9-.2 8.8-.2 2.3 0 4.7 0 7 .3 3.9.6 7.8.6 11.7.3 1-.1 2.2-.1 3.2 0h8.3c3.5 0 7 0 10.5.1 1.9 0 3.8.3 6 .4-2.9 5-6.6 8.9-9.9 13.2l-1.6-1.4c-2 2.5-4.7 1.9-7.2 2-6.6.1-13.2.1-19.8 0-6.6-.1-13.3-.8-20-1.1-5.5-.2-11.2-.3-16.7-.4-2.5 0-5 0-7.5-.1-.7 0-1.4-.3-1.9-.9-3.5-3.6-6.5-7.6-9.6-11.5z"/>
        <path fill="#fff" d="M64.4 55.9v4.6c0 1.8 0 3.7.1 5.4 0 .5.1 1 .1 1.5 0 1.4 0 2.8-.1 4.2 0 1-.1 2.2-.1 3.2 0 4.3 0 8.7-.1 13s-.1 8.7-.2 13c-.1 3.1-.2 6.3-.3 9.4 0 1.2.1 2.4.3 3.6-1.6.8-3.1 1.8-4.8 2.6-2.4 1.2-4.6 2.7-6.6 4.4-1.5 1.2-3.1 2.1-4.8 2.9-.3-.9-.5-2-.6-3-.2-7.5-.3-15.2-.5-22.8 0-2.1-.3-4.2-.4-6.3-.2-6.1-.5-12.1-.6-18.3-.1-.9.2-2 .8-2.7 1.6-1.6 3.3-3 5-4.4.5-.3.9-.6 1.5-1 2.3-3.2 5.8-5 8.8-7.4.6-.5 1.4-1 2.5-1.9zM168 60c1.3.9 2.4 1.9 3.5 2.9 3.3 3.6 6.5 7.2 9.8 10.7.8.8 1.4 1.9 1.3 3 0 5.9.1 11.7.1 17.6.1 4 0 8.1-.3 12-.6 5.4-.7 10.9-.7 16.2-.1.6-.3 1.4-.6 2-2.2-1.7-4.1-3-6-4.6s-3.2-3.1-5-4.5c-1-.8-1.6-2.2-1.5-3.6-.1-3.1.1-6.5-.6-9.5-1.7-6.9-.1-13.8-.2-20.7 0-2.7.7-5.4.7-8.2.1-4.3-.2-8.8-.5-13.3z"/>
        <path fill="rgba(29,29,27,0.45)" d="M67.3 56.3c.8 2.3-.1 5 1.3 7.3 1.2-1.1 0-3.3 2.3-3.6 2.1 3.2 5.6 5.6 6.4 9.9 2.8 3.3 1.8 7.2 1.9 11 .1 5.8.4 11.6.8 17.4.3 4.5.9 9.3.1 13.9-.2 1.2.3 2.5.5 4.1-4.8-.5-9.6 1-14.4-.3-.2-1.2-.4-2.3-.4-3.5.1-5.3.3-10.4.4-15.5 0-3.9-.2-7.8-.1-11.7.3-3.7.2-7.4-.1-11.2 0-.4 0-.8.2-1.3.5-2 .6-4.1.4-6.2-.1-3.4.2-6.9.3-10.4l.4.1zm86.5 59.9c-.2-4.7-.3-9.2-.5-13.6-.2-5-.4-9.9-.4-15 0-3.2.1-6.2.3-9.3.1-1.3.1-2.5 1.5-3.4 1.3-3.7 4.4-6 6.6-9.1 1.5-1.9 3.1-3.8 4.8-5.8.2.2.4.5.5.8.1 3.8.3 7.5.4 11.3 0 1.1 0 2-.1 3.2-.1 1.5-.2 3-.4 4.3-.1 1.2-.2 2.3-.3 3.6-.1 3.7-.4 7.2-.3 10.8 0 3.1.4 6 .6 9.1.2 3.4.5 6.7.6 10 .1 2.6-.2 3.1-2.9 3.1h-10.4z"/>
        <path fill="#1d1d1b" d="M153.9 123.5l-.8-1.6c.8 0 .8 0 .8 1.6zm14.3 12l-.7.4-.4-1c.2-.1.4-.1.6-.1.1.2.3.5.5.7z"/>
</svg>
