<svg id="Ebene_1" xmlns="http://www.w3.org/2000/svg" viewBox="0 0 236 181.5">
    <path fill="#1d1d1b" d="M82.7 100.4c0-.5.3 4.3.7 2.8-.5-.8-1.1-.9-1.7-1-1.4-.2-3-.5-4.5-.6-.5 0-1.2.1-1.7.2-1.6.3-3.2.4-4.9.2-1.2-.1-2.4 0-3.6.2-.9.1-2 .3-2.9.1-1.2-.2-2.4-.1-3.6 0-2.2.2-4.5.3-6.7.4-.1 0-.3-.1-.4-.1-3.4-1-6.8-.7-10.3-.2-2.5.3-5-.1-7.6-.4-2.1.5-4.5.3-6.8-.3-2.1-.5-4.2-.4-6.3-.5h-4.7c-.5 0-1.1-.1-2-.3.7-.3.9-.5 1.2-.5 3.3.1 6.6.3 9.9.5 1.2.1 2.4.4 3.6.5 1.6.1 3.2 0 4.7 0h1.8c1.3.1 2.5.2 3.8.3 1.6.1 3.2.1 4.7-.3 1.7-.4 3.6-.4 5.4-.2 3.8.4 7.6.2 11.4-.5.8-.2 1.4-.2 2.2-.2 1.6 0 3.2.1 4.7-.3.3-.1.4-.1.7-.1 3 .6 6.2 0 9.2.1.7 0 1.3.2 2 .2.6.1 1.1 0 1.7 0m70.4-.1c0-.5-.3 4.7-.8 3 .5-.9 1.1-1 1.7-1.1 1.4-.2 3-.5 4.6-.7.7 0 1.2.1 1.8.2 1.7.3 3.4.4 5.1.2 1.2-.1 2.5 0 3.7.2 1.1.1 2.1.3 3 .1 1.2-.2 2.5-.1 3.7 0 2.2.2 4.6.3 7 .4.3 0 .4-.1.5-.1 3.6-1.1 7.1-.8 10.7-.2 2.6.3 5.3-.1 8-.4 2.2.5 4.6.3 7.1-.3 2.1-.5 4.3-.4 6.6-.5h4.9c.4 0 .9-.1 2-.3-.7-.3-.9-.5-1.2-.5-3.4.1-6.9.3-10.3.5-1.2.1-2.5.4-3.7.5-1.6.1-3.3 0-4.9 0h-1.8c-1.3.1-2.6.2-4 .3-1.6.1-3.3.1-4.9-.3-1.8-.4-3.8-.4-5.7-.2-4.1.4-8 .2-12-.5-.8-.2-1.6-.2-2.4-.2-1.6 0-3.3.1-4.9-.3-.1-.1-.4-.1-.7-.1-3.2.7-6.5 0-9.6.1-.7 0-1.4.2-2.1.2-.2.1-.7 0-1.4 0"/>
        <path fill="#1d1d1b" d="M143.8 130.4c-3.6 0-7.3 0-10.9.1-2.5 0-4.9.2-7.4.2-7.4 0-14.9.1-22.3 0-4.5-.1-9.1-.4-13.6-.6-5.4-.4-10.9-.3-16.3.3-.4.1-.8.1-1.2 0-.3-.1-.7-.2-1-.4.1-.5.3-1 .4-1.4.5-2 .9-3.9 1.4-5.8s1.2-3.7.2-5.6c0-.1-.1-.1-.1-.2.1-3.2.1-6.5.2-9.9 0-.3.1-.6.1-1 0-3.2-.2-6.3-.6-9.6-.5-3.2-.7-6.5-.7-9.7 0-1.3-.3-2.5-.4-4-2.2 0-4.5.1-6.8 0-1.4-.1-2.9.2-4.1-.7-.3-.3-.6-.6-.8-1l8.6-5.1c-.6-.1-1.1-.2-1.7-.3-5.7 0-11.3 0-17-.1-1.4-.1-2.7-.4-4-.8-.5-.2-.8-1-1.4-1.7l6.2-2.2c5.7-2 11.3-4 17-6 .6-.4 1.4-.3 1.9.3.7 1 2.1 1.3 3.3.5.5-.2 1-.2 1.6-.1 3.3.2 6.5.5 9.8.8 3 .2 6-.4 8.7-1.9 3.6-1.8 7.3-3 11.3-2.3 1.7.3 3.5-.3 5.2-.3 8.1-.1 16.3.1 24.4.9 1 .1 2.1.1 3.1 0 4.5-.5 8.9.8 13.4.7 4.4-.1 8.8.1 13.1.6.5 0 .9 0 1.4-.1 2.3-.5 2.3-.5 4.8.7.2 1.2-.6 1.6-1.5 1.7-1.6.3-3.1 1.1-4.2 2.2 3.6-.4 7.1 1.2 10.8 0 .4-.1.8-.1 1.2-.1 3.5.3 7 .1 10.5-.5 1-.1 2-.4 3.3-.7L191 69c-4.2 2.6-8.3 5.1-11.5 8-1 .4-2 .8-3.1 1.3-1.1.6-2.3 1.4-3.3 2.1-.9.7-2.1.8-3.1.3-1.8-.7-3.6-1-5.6-.8-1.6.1-3.2-.1-4.9-.2l-.3 1.2c.2 3.5.4 7 .6 10.6.1.8.1 1.6.1 2.4-.1 3.5-.2 7-.2 10.6 0 2.3.2 4.6.1 6.9 0 2-.2 4.1-.4 6.2-.2 1.2-.7 1.5-2.2 1.3-2.4 2.7-4.3 5.8-5.6 9.2-.3.8-.6 1.7-.6 2.5.1.8-.5 1.5-1.3 1.6h-.4c-1.6 0-3.2-.2-4.9-.3v-.6c1.1 0 2.2-.2 3.2-.6-1-.1-2.2-1.4-3.8-.3zM74.1 83c0 1-.1 2-.1 3 0 2.2-.1 4.5 0 6.7.3 4.4.6 8.9.9 13.4.2 4.2.4 8.4.5 12.7-.1 1-.2 1.9-.4 2.8-.3 1.7-.7 3.4-1 5.4 1 .4 2 .7 3 .9 1.6 0 3.1-.1 4.7 0 6.6.5 13.2.8 19.7 1.2h1.7l19.4-.3c2.6 0 5.3 0 7.9-.1 1.4 0 2.7-.4 4-.4 4.7 0 9.5-.4 13.9 1.5h.4c1.4-1.3 1.4-3 1.2-4.8-.1-1.9-.4-3.8-.5-5.7-.1-1.3.3-2.6 1.2-3.6l.7 10.5c2.6-3.5 3.6-7.8 7.2-10.2.1-1.2.1-2.3.2-3.3.1-1.8.4-3.7.3-5.5-.1-3.6-.6-7.1-.5-10.8.2-3.1.2-6.2.1-9.3 0-2.5-.4-4.9-1.3-7.2l-5.9-.6c0 2 .1 3.8.1 5.6-.1 4.9-.1 10-.3 14.9-.1 4 0 8.1-.1 12.2-.1 1.1.3 2.4-1.2 3.7 0-6.4.4-12.5-.1-18.3s.9-12-.2-17.9c-.3.1-.6.3-.8.5-1.5 2-3.6 3.4-5.9 4.2-.4.1-.7.4-.9.7-.6 1.2-1.4 1.1-2.4.9-1.5-.4-3.1-.6-4.7-.6-5.5-.1-11 0-16.5-.2-7.3-.4-14.5-1.3-21.9-1.6-7.3-.5-14.5-.3-21.7-.4-.3-.1-.5-.1-.7 0zm2.5-8.5c2.9-.6 5.6 0 8.3.5h1c4.3.3 8.6.6 12.9.8 6.9.3 13.7.7 20.6.8 8.7.1 17.4-.1 26.1 0 2.4.2 4.8-.6 6.7-2.3 1.6-1.2 3.3-2.3 5-3.3-2.4-.2-4.3-.5-6.3-.5-5 0-10 .2-15.1.2-6.9 0-13.7-.3-20.4-1-7.3-.7-14.5-1-21.9-1.6-2.9-.2-4.1 1.1-4.6 3.8-.1.5-.3 1-.4 1.5-1.7-.6-.5-2.3-1.4-3.2-3.7 1.2-7.5 1.7-10.5 4.3zm-9.8 6.6h6.7c4.9 0 9.9-.1 14.8.1 4 .1 8 .5 11.9.7 4.8.3 9.6.7 14.4.9 4.4.2 8.8.2 13.2.3 3.3.1 6.5.3 9.8.2 1.7 0 3.3-.4 5-1 1.4-.8 2.9-1.7 4.1-2.8.4-.5.8-1 1-1.5h-2c-9.7 0-19.3.1-29 .1-10 0-20-.5-29.8-1.5-3.3-.3-6.5-.4-9.8-.5-1.1 0-2.2.4-3.3.3-2.2-.3-4.3.8-5.4 2.8-.6.5-.9.9-1.6 1.9zm25.9-14.4c3.5.2 6.6.4 9.7.5 8.4.3 16.5 1.9 24.9 2 7.2.1 14.4.1 21.5.2 3.9.1 7.8-1.5 11.6-.8.7.1 1.6-.7 2.7-1.2l-1.2-1c.2-.1.4-.3.6-.5.2-.2.3-.4.4-.7-.8 0-1.5-.1-2.1-.1-3.8-.1-7.7 0-11.5-.2-5-.2-10-.6-14.9-1.1-11-1-22.1-1.1-33.3-.3-3.1.1-6 1.2-8.4 3.2zm68.4 4.1c-.9 2.3-.9 2.3-3.5 2.1h-.5c-2.1.9-4.1 2.1-6 3.7 1 .7 2 1.1 3.2 1 5.8.3 11.6.7 17.3 1 .6 0 1.3-.1 1.9-.4 2.3-1.2 4.4-2.4 6.6-3.7 1.5-1 2.9-2.1 4.3-3.3.3-.3.5-.6.6-.9l-23.9.5zM49 73.3l.1.5H63c2.4 0 4.8.2 7.2.2 1-.1 2-.3 3-.7.3-.2.7-.3 1-.4 1.3.5 2.1-.4 3.1-.9 1.3-.6 2.7-1.1 4.1-1.6s2.7-.9 4.2-1.4c.5-.3.9-.7 1.3-1.1-2.9-.3-5.5-.6-8-.8-1.3-.1-2.6-.9-3.7.6-.3.2-.6.3-.9.2-1.7 0-3.3-.2-4.9-.6-1.2-.4-2.5-.4-3.7.1-4.2 1.4-8.2 2.9-12.3 4.4L49 73.3z"/>
        <path fill="#fff" d="M143.8 130.4c1.6-1.1 2.8.2 4.2.3-1 .4-2.1.6-3.2.6l-1-.9z"/>
        <path fill="#1d1d1b" d="M161.9 130.6l-1.8.3c.7-.9.7-.9 1.8-.3z"/>
        <path fill="#fff" d="M74.1 83c.2-.1.4-.2.6-.2 7.2 0 14.4-.1 21.6.2 7.3.3 14.5 1.2 21.9 1.6 5.5.3 11 .1 16.5.2 1.6.1 3.2.3 4.7.6 1.1.2 1.9.3 2.4-.9.2-.3.5-.6.9-.7 2.3-.7 4.4-2.2 5.9-4.2.3-.2.5-.4.8-.5 1.1 6-.2 12.1.2 17.9s.1 12 .1 18.3c1.5-1.3 1.2-2.6 1.2-3.7.1-4 .1-8.1.1-12.2.1-4.9.2-10 .3-14.9 0-1.8 0-3.6-.1-5.6l5.9.6c.9 2.3 1.4 4.7 1.3 7.2 0 3.1.2 6.2-.1 9.3-.2 3.5.3 7.1.5 10.8 0 1.8-.2 3.7-.3 5.5-.1 1-.1 2.1-.2 3.3-3.6 2.3-4.6 6.6-7.2 10.2l-.7-10.5c-.9 1-1.3 2.3-1.2 3.6.1 1.9.4 3.8.5 5.7.1 1.7.2 3.5-1.2 4.8h-.4c-4.4-1.9-9.2-1.4-13.9-1.5-1.4 0-2.7.4-4 .4-2.6.1-5.3.1-7.9.1l-19.4.3c-.6 0-1.1.1-1.7 0-6.6-.4-13.2-.7-19.7-1.2-1.6-.1-3.1 0-4.7 0-1-.2-2-.5-3-.9.4-2 .7-3.7 1-5.4.2-.9.4-1.9.4-2.8-.1-4.2-.2-8.4-.5-12.7-.3-4.4-.6-8.9-.9-13.4-.1-2.2 0-4.5 0-6.7.1-.6.3-1.6.3-2.6z"/>
        <path fill="#fff" d="M66.8 81.1c.7-1 1.1-1.5 1.3-2 1.1-2 3.4-3.1 5.4-2.8 1.1.1 2.2-.3 3.3-.3 3.3.1 6.5.2 9.8.5 10 .9 19.8 1.5 29.8 1.5 9.7 0 19.3 0 29-.1h2c-.2.5-.6 1-1 1.5-1.3 1.1-2.7 2.1-4.1 2.8-1.5.6-3.3 1-5 1-3.3.1-6.5-.1-9.8-.2-4.4-.1-8.8-.1-13.2-.3-4.8-.2-9.6-.6-14.4-.9-4-.2-7.9-.6-11.9-.7-4.7-.1-9.7-.1-14.6-.1l-6.6.1zm65.6 1v.6l4.7-.3v-.3h-4.7zM92.6 66.7c2.4-2 5.4-3.1 8.5-3.1 11.1-.7 22.2-.6 33.2.3 5 .4 10 .8 14.9 1.1 3.8.2 7.7.1 11.5.2.6 0 1.2 0 2.1.1-.1.2-.2.5-.4.7s-.4.3-.6.5l1.2 1c-.9.5-1.9 1.3-2.7 1.2-4-.7-7.7.8-11.6.8-7.2-.1-14.4-.2-21.5-.2-8.4-.1-16.5-1.6-24.9-2-3.2-.2-6.3-.4-9.7-.6zm68.5 4.1l24.1-.5c-.2.3-.4.7-.6.9-1.4 1.2-2.8 2.3-4.3 3.3-2.2 1.4-4.3 2.5-6.6 3.7-.6.3-1.2.4-1.9.4-5.8-.3-11.6-.6-17.3-1-1.2.1-2.4-.3-3.2-1 1.8-1.5 3.8-2.8 6-3.7h.5c2.4.2 2.4.2 3.3-2.1zM49 73.3l4.3-1.5c4.1-1.5 8.3-3 12.3-4.4 1.2-.5 2.5-.6 3.7-.1 1.6.4 3.3.6 4.9.6.3.1.6 0 .9-.2 1.2-1.4 2.4-.7 3.7-.6 2.5.2 5 .5 8 .8-.3.4-.8.8-1.3 1.1-1.3.5-2.7.9-4.2 1.4s-2.8 1-4.1 1.6c-1 .5-1.9 1.3-3.1.9-.4.1-.7.2-1 .4-1 .4-2 .6-3 .7-2.4 0-4.8-.1-7.2-.2H49.1l-.1-.5z"/>
        <path fill="#1d1d1b" d="M132.4 82h4.7v.3l-4.7.3V82z"/>
</svg>
