<svg id="Ebene_1" xmlns="http://www.w3.org/2000/svg" viewBox="0 0 236 181.5">
        <path fill="#fff" d="M72.9 88.5c.7.5 1.3.8 1.9 1.2 1.5 1.1 2.9 2.3 4.3 3.4 3 2.2 5.7 4.6 7.3 8 .5 1.1 1.2 2.1 2 2.9 3 2.5 5.6 5.5 7.8 8.7.2.4.6.8 1 1 3.6 1.6 6 4.9 9.1 7.1 1.6 1.2 2.7 3.1 4.9 3.6.3.1.6.3.8.6 1.4 2.7 5.1 3.7 5.6 7.2 0 .4 1.1.8 1.7.9.5-.4.7-.9.8-1.4.3-2.1 1.3-4.1 3-5.5.9-.9 1.8-1.8 2.6-2.7 1.3-1.4 2.5-2.9 3.8-4.3 1.7-1.8 3.7-3.3 5.2-5.2 2.1-2.3 4.4-4.4 6.9-6.3 1.7-1.3 3.2-2.8 4.6-4.5 2.3-2.8 4.4-5.9 6.7-8.7 1.3-1.6 2.9-3 4.3-4.5 1.2-1.5 3-2.5 4.9-2.7.5 0 .9-.2 1.4-.4 1.3-.6 1.4-1.8.2-2.6-.5-.3-1-.5-1.5-.6-.9-.3-1.8-.5-2.7-.9-1.9-.8-3.8-1.7-5.6-2.7-3.6-1.9-7.2-3.9-9.7-7.2-2-2.7-4.7-4.8-7.8-6.2-1.7-.7-3.4-1.5-4.9-2.4-5-3.3-9.5-7.1-12.2-12.5-.5-.9-1.2-1.6-2.3-.8-.5.4-1.2.4-1.7 0-1-.6-1.7-.1-2.5.7-1.1 1.2-2.3 2.3-3.6 3.4-2.4 1.9-4.8 3.6-7.2 5.4-.3.2-.5.6-.8.9-1.5 1.4-2.9 2.7-4.4 4-.9.7-1.8 1.4-2.6 2.1C90.7 71.4 87 75 83 78.3c-3.1 2.5-6.4 4.9-9.7 7.3l-.4-.3v3.2zm-7.4-1.6c-.7-.4-1.6-.2-2.1.5-.1.1-.1.2-.1.3-.5 1 .4 1.4.9 2 .6.8 1.2.3 1.7-.1l-.4-2.7zm103.9 6.7l.8-.2-.6-2.1-.7.2.5 2.1z"/>
        <path fill="#1d1d1b" d="M72.9 88.5v-3.2l.4.3c3.2-2.4 6.5-4.8 9.7-7.3 4-3.3 7.7-6.9 11.2-10.8.8-.7 1.7-1.5 2.6-2.1 1.5-1.3 2.9-2.7 4.4-4 .3-.3.5-.6.8-.9 2.4-1.8 4.9-3.6 7.2-5.4 1.3-1 2.5-2.1 3.6-3.4.8-.8 1.5-1.3 2.5-.7.5.4 1.2.4 1.7 0 1.1-.8 1.9-.1 2.3.8 2.8 5.4 7.3 9.2 12.2 12.5 1.6.9 3.2 1.7 4.9 2.4 3.1 1.4 5.7 3.5 7.8 6.2 2.5 3.4 6.1 5.4 9.7 7.2 1.8 1 3.7 1.8 5.6 2.7.9.4 1.8.6 2.7.9.5.1 1.1.3 1.5.6 1.2.9 1 2-.2 2.6-.4.2-.9.3-1.4.4-1.9.2-3.7 1.2-4.9 2.7-1.4 1.6-3 2.9-4.3 4.5-2.3 2.9-4.4 5.9-6.7 8.7-1.4 1.7-2.9 3.2-4.6 4.5-2.5 1.8-4.8 3.9-6.9 6.3-1.5 1.9-3.5 3.5-5.2 5.2-1.3 1.4-2.5 2.9-3.8 4.3-.9.9-1.7 1.8-2.6 2.7-1.7 1.4-2.7 3.3-3 5.5-.1.6-.4 1.1-.8 1.4-.6-.1-1.7-.5-1.7-.9-.5-3.5-4.2-4.5-5.6-7.2-.2-.3-.4-.5-.8-.6-2.2-.5-3.2-2.4-4.9-3.6-3.2-2.2-5.5-5.5-9.1-7.1-.4-.2-.8-.6-1-1-2.2-3.2-4.8-6.2-7.8-8.7-.8-.8-1.5-1.8-2-2.9-1.7-3.4-4.4-5.8-7.3-8-1.5-1.1-2.9-2.2-4.3-3.4-.6-.4-1.3-.7-1.9-1.2zm87.7-3.3c-.5-.4-1-.7-1.6-1-4.4-1.8-8.6-4.1-12.4-7-1.2-1-2.2-2-3.2-3.2-1-1.1-1.9-2.5-3.1-3.3-2.3-1.5-4.7-2.6-7.1-3.9-.8-.3-1.6-.7-2.4-1.1-3.2-2.7-6.9-4.9-9.4-8.4-.5-.7-1.1-1.4-1.6-2.1-.6-1.1-2-1.5-3.1-1-.6.2-1.2.3-1.8.2-1.2-.3-2.4.1-3.2 1-.5.5-1.1 1-1.7 1.3-2.5 1.7-4.8 3.5-7.1 5.5-2.4 2-4.6 4.3-7.2 6.1-.5.4-.9.9-1.3 1.4-1.9 2-3.6 4.2-5.7 6.1-2.4 2.2-5 4.2-7.6 6.2-1 .9-2.1 1.7-3.3 2.3-1.5.7-.8 2.5-2 3.4v.6c.6.7 1.3 1.4 2 2l5.1 3.9c1.7 1.3 3.1 3.1 4 5 .7 1.3 1.6 2.6 2.6 3.7 2.4 2.7 4.9 5.3 7.3 7.9.5.6 1 1.2 1.6 1.7 4.5 2.7 7.6 7 12.3 9.4.2.2.3.5.5.8l6.6 5.1c.2.2.6.1.4.1 1.6-1.2 2.8-2.2 4-3.1.6-.3 1.1-.6 1.6-1 3.5-3.7 7-7.4 10.3-11.3 2.1-2.4 4.5-4.6 7.1-6.3.9-.5 1.7-1.2 2.3-2 1.6-1.9 3-3.9 4.5-5.9 3.6-5.1 7.3-9.8 12.6-13.1zm-95.1 1.7l.4 2.7c-.5.4-1.1.9-1.7.1-.4-.6-1.3-1-.9-2 .3-.8 1.1-1.2 1.9-.9.1 0 .2 0 .3.1zm103.9 6.7l-.5-2.1.7-.2.6 2.1-.8.2z"/>
        <path fill="#fff" d="M160.6 85.2c-5.3 3.3-8.9 8-12.5 12.8-1.5 2-3 4-4.5 5.9-.7.8-1.5 1.5-2.3 2-2.7 1.7-5.1 3.9-7.1 6.3-3.3 3.9-6.8 7.5-10.3 11.3-.5.4-1 .7-1.6 1-1.2.9-2.4 1.9-4 3.1.2 0-.2.1-.4-.1l-6.6-5.1c-.1-.3-.3-.5-.5-.8-4.6-2.4-7.8-6.7-12.3-9.4-.6-.5-1.2-1.1-1.6-1.7-2.4-2.6-4.9-5.2-7.3-7.9-1-1.1-1.9-2.4-2.6-3.7-1-1.9-2.3-3.7-4-5s-3.5-2.5-5.1-3.9c-.7-.6-1.4-1.3-2-2v-.6c1.1-.8.4-2.6 2-3.4 1.2-.7 2.3-1.4 3.3-2.3 2.6-2 5.2-4 7.6-6.2 2-1.9 3.8-4.1 5.7-6.1.4-.5.8-1 1.3-1.4 2.6-1.8 4.8-4.1 7.2-6.1 2.2-2 4.6-3.8 7.1-5.5.6-.4 1.2-.8 1.7-1.3.8-.9 2.1-1.3 3.2-1 .6.1 1.2 0 1.8-.2 1.1-.5 2.5-.1 3.1 1 .5.7 1.1 1.4 1.6 2.1 2.5 3.5 6.2 5.7 9.4 8.4.7.5 1.5.9 2.4 1.1 2.4 1.2 4.9 2.4 7.1 3.9 1.2.8 2 2.2 3.1 3.3 1 1.2 2 2.2 3.2 3.2 3.8 2.9 8 5.2 12.4 7 .5.4 1 .9 1.5 1.3zM114.1 58l2.1 1.1c-.2-1.5-.8-1.6-2.1-1.1z"/>
        <path fill="#1d1d1b" d="M114.1 58c1.3-.5 1.9-.4 2.1 1.1l-2.1-1.1z"/>
</svg>
