<svg xmlns="http://www.w3.org/2000/svg" viewBox="0 0 236.013 181.502">
    <path d="M172.775 89.535l-.235-.194c.204-1.882.722-3.793.547-5.639-.35-3.694-.388-7.459-.923-11.064-.845-5.687.181-11.228.243-16.813.072-6.521 1.305-13.029 2.061-19.779-1.197-1.134-2.766-1.812-4.657-1.732-1.801.076-3.606.089-5.403.219-4.651.335-9.349.015-13.944 1.173a21.458 21.458 0 0 1-5.049.624c-3.32.024-6.641-.161-9.962-.239-2.664-.063-5.33-.093-7.995-.143-2.944-.056-5.89-.095-8.833-.184-2.376-.072-4.749-.2-7.124-.315-1.893-.091-3.784-.241-5.677-.291a580.157 580.157 0 0 0-11.425-.208c-4.282-.027-8.57-.118-12.845.069-4.878.212-9.726.127-14.527-.736-1.392-.25-2.61-.248-4.126.571.093 1.735.073 3.609.314 5.449.654 5.002 1.516 9.973.957 15.063-.218 1.978-.197 3.998-.11 5.992.284 6.478.779 12.95.936 19.431.094 3.865-.298 7.741-.46 11.613-.171 4.085-.284 8.173-.506 12.255-.133 2.446-.426 4.883-.639 7.232 1.204 1.697 2.58.707 4.045.199.471.981.876 1.818 1.276 2.657.369.773.443 1.941 1.922 1.426l-.35-3.572c1.92-.404 3.565-.903 5.243-1.061 1.689-.159 3.422-.096 5.114.08 3.024.316 6.021.923 9.049 1.16 3.027.236 6.17.665 9.1.126 5.546-1.021 11-.575 16.504-.109 2.174.184 4.356.29 6.536.386 2.094.092 4.19.15 6.286.177 1.802.023 3.635.187 5.399-.08 2.698-.409 5.342-.278 7.907.454 3.098.884 6.179.852 9.346.649 6.737-.433 13.483-1.006 20.237-.321.126 2.571.126 2.571 2.191 2.351l.546-2.398 3.319 1.036c.878-1.59.628-2.961.3-4.362-.346-1.477-.833-2.968-.861-4.461-.048-2.622-.647-5.035-1.598-7.467-.683-1.748-.823-3.706-1.234-5.563-.27-1.226-.594-2.441-.895-3.661z" fill="#fff"/>
    <path d="M172.775 89.535c.301 1.22.624 2.435.896 3.661.411 1.858.551 3.816 1.234 5.563.951 2.432 1.55 4.845 1.598 7.467.027 1.492.515 2.984.861 4.461.328 1.401.578 2.772-.3 4.362l-3.319-1.036-.546 2.398c-2.065.22-2.065.22-2.191-2.351-6.754-.685-13.5-.112-20.237.321-3.167.204-6.248.236-9.346-.649-2.565-.732-5.209-.862-7.907-.454-1.764.267-3.597.104-5.399.08a202.712 202.712 0 0 1-6.286-.177c-2.18-.096-4.362-.202-6.536-.386-5.504-.466-10.958-.912-16.504.109-2.93.539-6.073.11-9.1-.126-3.028-.237-6.025-.844-9.049-1.16-1.692-.177-3.425-.239-5.114-.08-1.678.158-3.323.657-5.243 1.061l.35 3.572c-1.479.515-1.554-.653-1.922-1.426-.4-.839-.805-1.676-1.276-2.657-1.465.508-2.842 1.498-4.045-.199.213-2.35.506-4.787.639-7.232.222-4.082.336-8.17.506-12.255.162-3.872.554-7.748.46-11.613-.157-6.481-.652-12.952-.936-19.431-.087-1.993-.108-4.013.11-5.992.56-5.09-.302-10.061-.957-15.063-.241-1.84-.221-3.715-.314-5.449 1.516-.819 2.735-.821 4.126-.571 4.8.862 9.649.948 14.527.736 4.275-.186 8.563-.096 12.845-.069 3.809.024 7.617.109 11.425.208 1.894.049 3.785.199 5.677.291 2.374.114 4.748.243 7.124.315 2.943.089 5.889.128 8.833.184 2.665.05 5.33.08 7.995.143 3.321.078 6.642.264 9.962.239a21.464 21.464 0 0 0 5.049-.624c4.595-1.158 9.293-.838 13.944-1.173 1.797-.129 3.602-.143 5.403-.219 1.891-.079 3.46.599 4.657 1.732-.756 6.75-1.989 13.258-2.061 19.779-.062 5.585-1.088 11.126-.243 16.813.535 3.604.574 7.37.923 11.064.175 1.846-.343 3.757-.547 5.639l.234.194zm-.834-52.144c-6.969-.947-13.496-.559-20.014.521-2.243.372-4.57 1.042-6.757.767-3.722-.468-7.401-.419-11.116-.314-2.18.062-4.368-.13-6.552-.185-2.661-.067-5.324-.092-7.985-.171-2.946-.087-5.89-.202-8.834-.334-.756-.034-1.514-.297-2.259-.255-5.624.312-11.238.117-16.853-.226-2.086-.128-4.273-.524-6.253-.081-4.294.96-8.539.392-12.804.226-2.242-.087-4.478-.334-7.13-.54.079 2.099.11 3.778.211 5.453.247 4.087.663 8.168.76 12.258.119 5.044-.072 10.094-.012 15.14.019 1.607.579 3.208.597 4.814.057 5.037-.029 10.076-.045 15.115-.001.17.155.34.257.547 1.174 1.042 2.644.806 4.057.82 3.521.035 7.117-.381 10.546.198 4.81.812 9.607.569 14.569.757-.339.246-.55.532-.777.544-3.421.185-6.846.506-10.265.444-3.324-.06-6.636-.629-9.963-.769-2.76-.116-5.43.582-8.14 1.312-.97 5.633-1.254 11.065-1.04 16.609 1.937-.103 3.566-.006 5.116-.309 3.897-.761 7.741-.768 11.603.165 1.106.267 2.253.465 3.388.499 4.926.147 9.829.673 14.784-.153 5.11-.852 10.264-.194 15.383.44 1.977.245 3.976.426 5.966.432 5.141.016 10.282-.087 15.422-.124a7.102 7.102 0 0 1 1.702.183c4.496 1.081 9.012 1.117 13.616.758 4.739-.369 9.518-.194 14.277-.346 1.924-.062 3.978-.02 4.987-2.175.985.658.909 2.426 2.508 1.915-.721-5.502-.691-11.088-3.323-16.167-4.996-1.505-10.13-2.197-15.439-1.733-2.642.231-5.352.275-7.978-.037-7.48-.888-14.967-.938-22.474-.693a66.293 66.293 0 0 1-5.424-.051c-3.985-.197-7.968-.454-11.95-.708-.398-.025-.787-.19-1.757-.438.87-.404 1.166-.646 1.478-.67 3.804-.292 7.607-.604 11.402.178 1.016.209 2.077.256 3.118.268 3.227.038 6.454-.001 9.681.038 3.334.04 6.667.141 10.001.207 4.565.09 9.135.346 13.694.205 3.724-.115 7.421-.379 11.121.286.903.162 1.852.062 2.767.083.229-.561.426-.893.501-1.252.86-4.124 1.459-8.249.557-12.47-.295-1.379-.246-2.834-.322-4.255-.066-1.231-.092-2.463-.128-3.695-.057-1.987-.173-3.974-.141-5.96.031-1.899.224-3.796.338-5.694.176-2.942.336-5.885.519-8.827.256-4.081.526-8.162.809-12.55z" fill="#1d1d1b"/>
    <path d="M171.941 37.391c-.283 4.388-.553 8.468-.807 12.55-.183 2.942-.343 5.885-.519 8.827-.114 1.898-.307 3.795-.338 5.694-.032 1.985.084 3.973.141 5.96.035 1.232.061 2.465.128 3.695.077 1.422.028 2.877.322 4.255.903 4.221.303 8.346-.557 12.47-.075.358-.272.691-.501 1.252-.915-.02-1.865.079-2.767-.083-3.7-.665-7.397-.401-11.121-.286-4.558.141-9.129-.114-13.694-.205-3.334-.066-6.667-.167-10.001-.207-3.227-.039-6.454.001-9.681-.038-1.042-.012-2.103-.059-3.118-.268-3.795-.782-7.598-.47-11.402-.178-.312.024-.608.266-1.478.67.97.247 1.359.412 1.757.438 3.982.253 7.965.51 11.95.708 1.805.089 3.618.11 5.424.051 7.507-.246 14.994-.196 22.474.693 2.627.312 5.337.268 7.978.037 5.309-.464 10.443.228 15.439 1.733 2.631 5.079 2.602 10.665 3.323 16.167-1.599.511-1.524-1.257-2.508-1.915-1.009 2.154-3.063 2.113-4.987 2.175-4.759.152-9.538-.023-14.277.346-4.604.358-9.12.322-13.616-.758a7.153 7.153 0 0 0-1.702-.183c-5.141.037-10.282.14-15.422.124-1.99-.006-3.989-.187-5.966-.432-5.119-.634-10.273-1.292-15.383-.44-4.955.826-9.858.3-14.784.153-1.134-.034-2.281-.232-3.388-.499-3.862-.934-7.706-.926-11.603-.165-1.55.303-3.179.206-5.116.309-.214-5.544.069-10.976 1.04-16.609 2.71-.731 5.38-1.428 8.14-1.312 3.326.14 6.638.709 9.963.769 3.418.061 6.844-.259 10.265-.444.226-.012.438-.298.777-.544-4.962-.188-9.759.055-14.569-.757-3.429-.579-7.025-.163-10.546-.198-1.413-.014-2.883.222-4.057-.82-.101-.207-.257-.377-.257-.547.016-5.038.102-10.077.045-15.115-.018-1.607-.578-3.207-.597-4.814-.059-5.046.131-10.097.012-15.14-.096-4.09-.512-8.171-.76-12.258-.101-1.675-.132-3.353-.211-5.453 2.652.207 4.888.453 7.13.54 4.266.166 8.51.735 12.804-.226 1.981-.443 4.167-.047 6.253.081 5.615.344 11.229.539 16.853.226.746-.041 1.503.221 2.259.255 2.944.132 5.889.247 8.834.334 2.661.079 5.323.104 7.985.171 2.185.055 4.372.247 6.552.185 3.715-.105 7.394-.154 11.116.314 2.187.275 4.514-.395 6.757-.767 6.517-1.08 13.044-1.467 20.012-.521z" fill="#fff"/>
</svg>
