<svg xmlns="http://www.w3.org/2000/svg" viewBox="0 0 236.013 181.502">
    <path fill="#fff" d="M171.889 89.705l2.48 26.1-.089 1.4-39.334-2-42.333-3-32.833.666-.5-2.333 3.166-20.833 1.447-2.726 2.22-29.441-1.82-22.182 2.487-.485 14.333 1.667 34.102.317 57.731 2.85z"/>
    <path d="M63.893 86.979c1.429-.023 1.638-.661 1.547-1.609-.094-.975-.161-1.962-.13-2.94.139-4.373.303-8.745.492-13.115.05-1.155.125-2.325.358-3.452 1.057-5.113 1.358-10.267 1.098-15.475-.205-4.109-.324-8.223-.448-12.336-.021-.678.126-1.362.207-2.158 3.207.27 6.22.508 9.231.782 2.843.259 5.68.76 8.524.785 3.719.033 7.441-.34 11.164-.46 3.578-.115 7.159-.149 10.739-.183 2.848-.027 5.709-.174 8.541.038 6.325.473 12.637 1.111 18.949 1.738 2.39.237 4.766.62 7.145.957 1.326.188 2.639.499 3.971.617 5.516.489 11.034.959 16.557 1.358 1.501.109 3.028.026 4.53-.109 1.954-.175 3.884-.289 6.13.267.077 1.907.246 3.757.211 5.603-.147 7.872-.355 15.742-.538 23.613-.046 1.969-.032 3.941-.137 5.907a402.458 402.458 0 0 1-.682 10.417c-.16 2.016-.215 4.073-1.186 6.074-2.49-.156-4.884-.356-7.282-.447-6.078-.231-12.164-.306-18.236-.645-6.783-.379-13.546-1.217-20.331-1.433-10.55-.335-21.112-.302-31.669-.451-2.934-.042-5.851.372-8.81-.056-1.817-.263-3.76-.279-5.619.366.364.362.741.577 1.13.601 6.423.391 12.843.838 19.272 1.1 3.736.152 7.486.079 11.225-.037 8.247-.256 16.446.523 24.66.997 2.413.139 4.835.122 7.249.257 5.166.288 10.325.768 15.495.905 4.391.116 8.721.486 13.074 1.426 2.351 6.409 2.033 13.245 4.046 19.927-1.794 0-3.19.034-4.585-.014-.709-.024-1.411-.259-2.121-.29-4.829-.21-9.659-.372-14.487-.587-7.863-.351-15.725-.73-23.587-1.099-.179-.008-.357-.036-.535-.047-8.481-.497-16.957-1.162-25.445-1.438-7.873-.256-15.761-.033-23.641-.139-4.826-.065-9.649-.369-14.474-.531-1.668-.056-3.34-.009-4.912-.009l3.318-22.32c4.444.454 6.023.281 6.976-.949l-9.285-.823c-.426 8.265-.845 16.493-3.509 24.298l2.317 2.168c4.074-.112 7.91-.307 11.746-.306 9.761.002 19.524.036 29.284.171 4.74.065 9.48.334 14.215.603 4.723.268 9.44.662 14.16.983 3.297.224 6.597.409 9.895.631 1.065.072 2.125.263 3.19.304 4.199.161 8.406.186 12.598.445 5.44.336 10.867.867 16.303 1.268 1.301.096 2.615.014 4.018.014.058-.783.088-1.212.122-1.64.274-3.448-1.284-6.607-1.543-9.997-.298-3.906-1.112-7.77-1.585-11.667-.146-1.206.134-2.457.139-3.688.013-3.036-.289-6.1.029-9.1.444-4.186.818-8.354.827-12.57.008-3.658.301-7.315.421-10.974.064-1.968-.054-3.943.057-5.907.225-3.986.549-7.966.83-11.929-1.312-.592-2.455-1.242-3.682-1.614-.81-.245-1.742-.135-2.617-.107-2.311.074-4.633.382-6.93.248-4.01-.234-8.007-.71-12.006-1.121-3.547-.364-7.09-.778-10.635-1.167-2.659-.292-5.315-.629-7.98-.859-4.72-.406-9.444-.764-14.17-1.105-2.671-.192-5.346-.389-8.022-.434-1.961-.033-3.926.211-5.891.274-6.33.205-12.677-.217-18.995.532-.788.093-1.607-.029-2.407-.105a104.505 104.505 0 0 1-3.986-.458c-1.499-.202-2.989-.469-4.488-.667-3.089-.408-6.185-.819-9.007 1.267.025.57.014 1.097.077 1.616.226 1.856.553 3.703.701 5.564.17 2.14.313 4.295.25 6.437-.134 4.536-.385 9.068-.638 13.6-.134 2.403-.366 4.801-.569 7.2-.075.89-.242 1.774-.282 2.664-.196 4.438-.38 8.878-.515 13.318-.009.388.361.784.579 1.227z" fill="#fff"/>
    <path d="M63.893 86.979c-.218-.443-.588-.839-.577-1.223.135-4.441.319-8.88.515-13.318.039-.891.207-1.775.282-2.664.203-2.399.435-4.797.569-7.2.253-4.531.504-9.064.638-13.6.063-2.142-.08-4.297-.25-6.437-.148-1.862-.474-3.708-.701-5.564-.063-.519-.052-1.046-.077-1.616 2.822-2.086 5.918-1.675 9.007-1.267 1.499.198 2.989.464 4.488.667 1.325.179 2.655.33 3.986.458.8.077 1.619.199 2.407.105 6.317-.75 12.664-.327 18.995-.532 1.965-.064 3.929-.307 5.891-.274 2.676.045 5.351.242 8.022.434 4.725.341 9.45.699 14.17 1.105 2.665.229 5.32.567 7.98.859 3.545.389 7.087.803 10.635 1.167 3.999.41 7.995.887 12.006 1.121 2.297.134 4.618-.174 6.93-.248.875-.028 1.807-.138 2.617.107 1.227.372 2.37 1.022 3.682 1.614-.282 3.963-.606 7.943-.83 11.929-.111 1.964.007 3.939-.057 5.907-.12 3.659-.412 7.316-.421 10.974-.009 4.215-.383 8.383-.827 12.57-.318 3-.017 6.064-.029 9.1-.005 1.231-.286 2.482-.139 3.688.473 3.896 1.286 7.761 1.585 11.667.259 3.39 1.818 6.549 1.543 9.997-.034.428-.064.857-.122 1.64-1.403 0-2.717.082-4.018-.014-5.436-.402-10.864-.932-16.303-1.268-4.193-.259-8.399-.284-12.598-.445-1.066-.041-2.125-.232-3.19-.304-3.297-.222-6.597-.407-9.895-.631-4.721-.321-9.437-.714-14.16-.983-4.735-.269-9.475-.538-14.215-.603-9.76-.135-19.523-.168-29.284-.171-3.836-.001-7.672.194-11.746.306l-2.317-2.168c2.664-7.806 3.083-16.034 3.509-24.298l9.285.823c-.954 1.23-2.532 1.403-6.976.949l-3.318 22.32c1.573 0 3.244-.047 4.912.009 4.825.162 9.648.466 14.474.531 7.88.106 15.767-.117 23.641.139 8.488.276 16.964.941 25.445 1.438.179.01.356.038.535.047 7.862.368 15.724.748 23.587 1.099 4.828.215 9.659.377 14.487.587.71.031 1.412.265 2.121.29 1.394.048 2.791.014 4.585.014-2.013-6.681-1.695-13.518-4.046-19.927-4.354-.939-8.683-1.31-13.074-1.426-5.169-.137-10.329-.617-15.495-.905-2.414-.135-4.836-.118-7.249-.257-8.214-.474-16.413-1.253-24.66-.997-3.739.116-7.49.189-11.225.037-6.428-.261-12.849-.709-19.272-1.1-.389-.024-.766-.239-1.13-.601 1.859-.645 3.802-.629 5.619-.366 2.959.429 5.877.014 8.81.056 10.557.15 21.118.116 31.669.451 6.785.216 13.548 1.053 20.331 1.433 6.072.34 12.158.414 18.236.645 2.398.091 4.793.291 7.282.447.971-2.001 1.026-4.058 1.186-6.074.276-3.469.497-6.942.682-10.417.105-1.966.091-3.938.137-5.907.184-7.871.391-15.741.538-23.613.034-1.846-.134-3.695-.211-5.603-2.245-.556-4.176-.441-6.13-.267-1.503.134-3.03.217-4.53.109a1042.1 1042.1 0 0 1-16.557-1.358c-1.331-.118-2.644-.429-3.971-.617-2.379-.337-4.755-.719-7.145-.957-6.312-.627-12.625-1.265-18.949-1.738-2.832-.212-5.693-.065-8.541-.038-3.58.034-7.161.068-10.739.183-3.723.12-7.444.492-11.164.46-2.843-.025-5.681-.526-8.524-.785-3.01-.274-6.024-.512-9.231-.782-.081.796-.228 1.479-.207 2.158.124 4.113.243 8.227.448 12.336.26 5.207-.04 10.362-1.098 15.475-.233 1.128-.308 2.298-.358 3.452-.19 4.371-.353 8.743-.492 13.115-.031.978.036 1.964.13 2.94.09.943-.12 1.581-1.549 1.605z" fill="#1d1d1b"/>
</svg>
