<svg id="Ebene_1" xmlns="http://www.w3.org/2000/svg" viewBox="0 0 236 181.5">
        <path fill="#fff" d="M162.9 69c-2.3-.1-4.6-.3-6.9-.6-4.8-.8-9.5-1.8-14.3-2.6h-.9c-3.5.4-7 .6-10.5.6-9.7-.2-19.5 0-29.2-.1-6.9-.1-13.7-.4-20.6-.5-1 .1-2-.4-2.6-1.3-.2-.2-.5-.3-.8-.4l-1.2 1.7c-2.6-1.2-4.4-1.3-6.1-.3 0 .4.2.7.4 1 1.2.6 1.1 1.7 1.3 2.8.8 4.8-.4 9.5-.8 14.3-.3 4-1.2 7.9-1.7 11.8-.1 1-.1 1.9.1 2.9.8 3.7 1.1 7.6.8 11.4-.1.7.2 1.3.7 1.8 1.5.4 2.5 2 4.3 1.7.2 0 .4 0 .6.2.1 1.5 1.1.9 1.9.9.9 0 1.7.1 2.6.4 2.8 1 5.5 2 8.3 3 3.7 1.3 7.6 2.2 10.9 4.9.9-1.2 2-1.3 3.2-1.2 1.3 0 2.5 0 3.8-.1 4.7-.4 9.4-.9 14.1-1.1 3.8-.2 7.7-.1 11.5-.1 1.3 0 2.5.1 3.8.2 3.3.2 6.7.6 10 .7 2-.1 4-.3 5.9-.7 1.5-.2 3.1-.5 4.8-.7l-.5 1.4c.7.4 1.2.5 1.1-.5-.1-.5.3-1.1.8-1.2h.3c.7 0 1.4 0 2.1.1 1.2.2 2.5.4 4.1.7 0-.6 0-1.1-.1-1.7-.8-1.3-.5-2.6-.4-4 .2-.8.3-1.6.3-2.4 0-3.9.9-7.7.3-11.6 0-.6 0-1.3.1-1.9 0-1.4-.1-2.9-.1-4.3-.2-2.9-.6-5.7-.5-8.6.2-2.4.5-4.7 1-7 .3-2.1.7-4.2 1-6.4s-1-3.1-2.9-3.2z"/>
        <path fill="#1d1d1b" d="M163.9 119.9c-1.6-.3-2.8-.5-4.1-.7-.7-.1-1.4-.1-2.1-.1-.5-.1-1.1.3-1.1.9v.3c.1.9-.4.9-1.1.5l.5-1.4c-1.6.2-3.2.5-4.8.7-2 .4-3.9.6-5.9.7-3.3-.1-6.7-.4-10-.7-1.3-.1-2.5-.2-3.8-.2-3.8 0-7.7-.1-11.5.1-4.7.2-9.4.8-14.1 1.1-1.3.1-2.5.2-3.8.1-1.2-.1-2.4 0-3.2 1.2-3.2-2.7-7.1-3.6-10.9-4.9-2.8-1-5.5-2-8.3-3-.8-.3-1.7-.4-2.6-.4-.8 0-1.8.6-1.9-.9-.2-.1-.4-.2-.6-.2-1.8.4-2.8-1.2-4.3-1.7-.5-.5-.7-1.1-.7-1.8.3-3.8.1-7.7-.8-11.4-.2-.9-.2-1.9-.1-2.9.5-3.9 1.4-7.9 1.7-11.8.4-4.8 1.6-9.5.8-14.3-.2-1.1-.1-2.2-1.3-2.8-.2-.3-.4-.6-.4-1 1.8-1 3.5-.9 6.1.3l1.2-1.7c.3.1.6.2.8.4.6.9 1.6 1.4 2.6 1.3 6.9.1 13.7.5 20.6.5 9.7.1 19.5-.2 29.2.1 3.5.1 7-.1 10.5-.6h.9c4.8.9 9.5 1.8 14.3 2.6 2.3.3 4.6.6 6.9.6 2 .1 2.8 1 2.6 3s-.7 4.2-1 6.4c-.5 2.3-.8 4.6-1 7-.1 2.9.3 5.7.5 8.6.1 1.4.1 2.9.1 4.3-.1.6-.1 1.3-.1 1.9.5 3.9-.3 7.8-.3 11.6 0 .8-.2 1.6-.3 2.4-.2 1.3-.4 2.7.4 4 .3.7.4 1.3.4 1.9zm-63.6-.4c3.2-.2 6.2-.3 9.2-.5 3.5-.2 7-.6 10.5-.8 2.5-.1 5.1.2 7.6 0 3.9-.2 7.8 0 11.7.5 2.7.3 5.4.3 8.1-.1 3.7-.7 7.4-1.2 11.1-1.6 1.2 0 2.3-.8 2.6-2 .3-.8.5-1.7.5-2.6.1-4.4.8-8.9.5-13.3-.4-4.8-.5-9.7-.3-14.5.1-3.8.9-7.6 1.4-11.4-.6-1.3-2-2.1-3.5-2-4.9.1-9.7-.1-14.5.9-.4.1-.8.1-1.2.1-3.2-.1-6.4-.3-9.5-.4-4.5-.2-9.1-.4-13.6-.4-2.9 0-5.9.2-8.8.2-1.7 0-3.5-.1-5.2-.2-.6.1-1.1-.3-1.2-.9 0-.2 0-.3.1-.5.8.1 1.5.1 2.3.2 1.5 0 3 .1 4.5.1 2.5-.1 4.9-.2 7.4-.3h3.8c4.2 0 8.5-.2 12.6.2 4.4.3 8.9.3 13.3-.2l2.5-.2c-3.1-.3-6.1-1.9-9.4-.9-.7.3-1.6.2-2.3-.1-1.4-1.4-3-.6-4.5-.7-4.6-.2-9.2-.2-13.8-.3-2.3 0-4.6-.1-6.9-.1h-8.1c-2.5.1-5.1.3-7.6.3-3 0-6-.2-9.1-.3-.9 0-1.9.1-3.1.2.2.2.4.4.7.5 2.9.4 5.7.8 8.5 1.1.4 0 .8 0 1.1-.2 1.6-.8 3-.1 4.5.3-.6 1.8-1 3.6-1.3 5.4-.2 2.3-.1 4.6-.1 7-.1 5.1-.1 10.2-.3 15.3-.2 4.9-.6 9.9-.8 14.8.1 2.2.4 4.6.6 7.4zm-27.2-52c.1 1.9.2 3.5.2 5.1.1 1.2.2 2.4.1 3.6-.6 4.9-1.5 9.8-2.1 14.6-.4 2.4-.5 4.9-.5 7.4.1 3.4.7 6.8 1 10.2.1.5.2.9.3 1.4 1.2.4 2.1.7 3.1 1.1 2.1.8 4.1 1.7 6.2 2.4 4.6 1.7 9.5 2.8 13.9 5.1.9.3 1.8.6 2.8.8v-2.5c0-4.5-.3-9.1.1-13.6.6-7.5.9-15 .9-22.5v-8.9c-1.9-.5-3.8-.9-5.7-1.1-2.7-.2-5.4-.8-7.9-1.7-3.9-1.4-8-1.4-12.4-1.4z"/>
        <path fill="#fff" d="M100.3 119.5c-.2-2.8-.6-5.2-.5-7.7.1-4.9.6-9.9.8-14.8.2-5.1.2-10.2.3-15.3 0-2.3-.1-4.6.1-7 .3-1.8.7-3.6 1.3-5.4-1.5-.4-2.9-1.1-4.5-.3-.4.2-.7.2-1.1.2-2.9-.3-5.7-.7-8.5-1.1-.2-.1-.5-.3-.7-.5 1.2-.1 2.1-.2 3.1-.2 3 .1 6 .3 9.1.3 2.5 0 5.1-.2 7.6-.3h8.1c2.3 0 4.6.1 6.9.1 4.6.1 9.2.1 13.8.3 1.5.1 3.1-.7 4.5.7.7.4 1.5.4 2.3.1 3.3-1 6.2.6 9.4.9l-2.5.2c-4.4.5-8.9.6-13.3.2-4.2-.4-8.4-.2-12.6-.2-1.3 0-2.5-.1-3.8 0-2.5.1-4.9.3-7.4.3-1.5 0-3 0-4.5-.1-.8 0-1.5-.1-2.3-.2-.2.6.1 1.2.7 1.3.2.1.3.1.5.1 1.7.1 3.5.2 5.2.2 2.9 0 5.9-.2 8.8-.2 4.5.1 9.1.2 13.6.4 3.2.1 6.4.3 9.5.4.4 0 .8 0 1.2-.1 4.8-1.1 9.7-.8 14.5-.9 1.5-.1 2.9.7 3.5 2-.5 3.8-1.3 7.6-1.4 11.4-.1 4.9 0 9.7.3 14.5.3 4.5-.4 8.9-.5 13.3 0 .9-.2 1.8-.5 2.6-.4 1.2-1.4 2-2.6 2-3.7.4-7.5.9-11.1 1.6-2.7.4-5.4.5-8.1.1-3.9-.5-7.8-.7-11.7-.5-2.5.2-5.1-.1-7.6 0-3.5.2-7 .5-10.5.8-3.1.5-6.2.6-9.4.8z"/>
        <path fill="#fff" d="M73.1 67.5c4.4.1 8.5 0 12.5 1.3 2.5.9 5.2 1.5 7.9 1.7 1.9.2 3.8.6 5.7 1.1v8.9c0 7.5-.3 15-.9 22.5-.4 4.5-.1 9.1-.1 13.6v2.5c-.9-.2-1.9-.5-2.8-.8-4.4-2.3-9.3-3.4-13.9-5.1-2.1-.8-4.1-1.6-6.2-2.4-.9-.4-1.9-.7-3.1-1.1-.1-.5-.2-.9-.3-1.4-.4-3.4-.9-6.8-1-10.2 0-2.5.1-4.9.5-7.4.6-4.9 1.5-9.8 2.1-14.6.1-1.2 0-2.4-.1-3.6-.2-1.5-.2-3.1-.3-5z"/>
</svg>
