<svg id="Ebene_1" xmlns="http://www.w3.org/2000/svg" viewBox="0 0 236 181.5">
    <path fill="#1d1d1b" d="M174.3 100.4c.5 0 .9.1 1.1 0 .5 0 1-.2 1.4-.2 2.2-.1 4.5.5 6.7-.1.2 0 .3 0 .5.1 1.1.4 2.3.3 3.4.3.6 0 1 0 1.6.2 2.8.7 5.5.9 8.3.5 1.3-.2 2.7-.2 3.9.2 1.1.4 2.3.4 3.4.3 1-.1 1.8-.2 2.8-.3h1.3c1.1 0 2.3.1 3.4 0 .9-.1 1.7-.4 2.6-.5 2.4-.2 4.8-.4 7.1-.5.2 0 .4.2.9.5-.7.2-1 .3-1.4.3h-3.4c-1.5.1-3 0-4.6.5-1.7.6-3.4.8-5 .3-1.9.3-3.7.7-5.5.4-2.5-.5-5-.8-7.4.2-.1 0-.2.1-.3.1-1.6-.1-3.2-.2-4.9-.4-.9-.1-1.7-.2-2.6 0-.7.2-1.4 0-2.1-.1-.9-.2-1.7-.3-2.6-.2-1.2.2-2.4.1-3.5-.2-.4-.1-.9-.2-1.2-.2-1 .1-2.2.4-3.2.6-.5.1-.9.2-1.2 1 .4 1.5.5-3.3.5-2.8m-110.9-.1c-.4 0-.8.1-1.2 0-.4 0-1-.2-1.4-.2-2.2-.1-4.4.5-6.6-.1-.2 0-.4 0-.4.1-1.1.4-2.2.3-3.3.3-.5 0-1.1 0-1.6.2-2.7.8-5.4 1-8.2.5-1.3-.2-2.6-.2-3.9.2-1.1.4-2.2.4-3.3.3l-2.7-.3h-1.3c-1.1 0-2.2.1-3.3 0-.8-.1-1.7-.4-2.5-.5-2.3-.2-4.7-.4-7-.5-.2 0-.4.2-.8.5.7.2 1.1.3 1.3.3h3.3c1.5.1 3.1 0 4.5.5 1.7.7 3.3.9 4.9.3 1.9.3 3.7.8 5.5.4 2.4-.5 4.9-.9 7.3.2.1 0 .2.1.4.1 1.6-.1 3.2-.2 4.8-.4.8-.1 1.7-.2 2.5 0 .6.2 1.3 0 2.1-.1.8-.2 1.7-.3 2.5-.2 1.2.2 2.3.1 3.5-.2.4-.1.8-.2 1.3-.2 1.1.1 2.2.4 3.1.7.4.1.8.2 1.2 1.1-.5 1.7-.7-3.6-.7-3"/>
    <path fill="#fff" d="M63.9 62l-26.6-.6.2 10.3-.7 38.8-.7 15.5-2.3 5 3 .3 26.4-5.7.1-32.1z"/>
        <path fill="rgba(29,29,27,0.45)" d="M168 116.9c-.6-7.3-1.2-14.5-.5-21.9.6-6.7.8-13.4 1.1-20.1.1-3 0-6 0-9l-1-.7c-3.5 2.2-7.2 3.6-10.4 6.3-.4.3-.8.8-1 1.2-1 2.3-2.9 2.4-5 2.5-5.6.2-11.3.3-16.7.6-5.4.3-10.8.5-16.4.6-4.1.1-8.3-.3-12.4.7-.9.1-1.8.2-2.7.2-5.9.2-11.8.2-17.7.3-.6.1-1.2 0-1.8-.1-.3-.2-.7-.6-.7-1s.3-.8.7-.9c2.1-.3 4.2-.5 6.3-.6 6.4.1 12.8.7 19.3-.7.7-.1 1.2-.1 1.9-.1 6.8-.1 13.4-.2 20.1-.4 6.3-.1 12.7-.6 19-.9 1.2-.1 2.5 0 4 0 .7-2 2-3.6 3.9-4.7 1.8-1.2 3.8-2.3 5.7-3.5l-.1-.6c-2 0-4.1-.2-6.2-.1-4.2.1-8.5.3-12.7.3-8.5-.2-17.1-.3-25.7-1-6.7-.5-13.5-1.5-20.4-.6-2.2.3-4.4.4-6.6.5-6.1.3-12.1.4-18 .7-1.9.1-3.9.4-6.2.7 1 1 1.5 1.8 2.2 2.5 1.1 1.1 2.3 2.2 3.4 3.3l4.5 4.2.2.2.3.3c2.4.1 2.2 2 2.2 3.7 0 3.3-.3 6.5-.3 9.8-.1 2.7-.1 5.4 0 8.2-.1 2.3.1 4.6.4 6.9.6 3.1.3 6.4-.8 9.4-1.6-1.2-1.7-2-1.3-4 .5-1.4.6-3 .5-4.4-.8-3.9-1-7.9-.4-11.8v-.8c0-3.3.2-7.4.1-9.8-.1-1.7.1-3.6-.4-5-1.7-4.1-5.4-5.8-5.6-6l-9-8h-.4c-.1.7-.2 1.4-.2 2.1.2.1.4.2.6.4.9 19 .5 38.2.5 57.3 2-1.1 4-2.4 6.3-3.4s4.9-1.6 7.3-2.5l-.8-1.9 5.8-.7c.1 0 .2 0 .2.1.9 1.1 2.1.7 3.2.7 7.3.1 14.5.1 21.8 0 11 0 21.9-.1 32.9-.1 5 .1 10 .3 15.2.5-.2 1.8 1 2.6 2.2 3.5 1.8 1.2 3.4 2.5 5.2 3.7 1.2.8 2.4 1.6 4.1 2.6.2-1.2.5-2.4.6-3.8 0-1.4-.2-3.2-.3-4.9z"/>
        <path fill="#1d1d1b" d="M58.4 127.6c-3.1.7-6.1 1.5-9.2 2.2-1.2.3-2.3.6-3.5.7-3.1.1-6.1.9-8.8 2.4-1.2.6-2.7.4-3.8-.4-.3-.2-.5-.7-.5-1.1 1-1.4 0-3.5 1.8-4.7.2-.2.3-.5.3-.9v-2.9c-.1-4.5.8-9 1.3-13.4.1-1.9.2-3.6 0-5.5 0-.8-.3-1.6-.2-2.3.4-7.9.8-15.7 1.2-23.6.2-4.1.2-8.3.3-12.4.1-1.3-.5-2.7-1.8-3.2-.4-.3-.8-.8-1.1-1.2 1.7-.9 3-2.2 4.9-.7.7.3 1.5.5 2.3.4 1.9 0 3.7-.2 5.5-.2 4.2 0 8.4.1 12.7 0 .8-.1 1.7-.2 2.4-.5.1-2.4-.3-5-1-7.3-.4-1.3-.4-2.8-.7-4.1-.8-3.3-1.9-6.6-2.8-9.9-.4-1.6-.6-3.1-.7-4.7-.1-1.2.8-2.1 1.8-1.5 3.8 2 8 1.1 12 1.2 7.3.3 14.7.2 22 .1 7.3 0 14.5-.4 21.7-.4 7.5-.1 15 .1 22.6-.1 8 0 15.8-.4 23.8-.4 3.5 0 7.1.5 10.5.7.8 0 1.6-.1 2.2-.4 1.7-.4 3.4 1 2.7 2.5-1.2 2.3-.5 4.6-1.1 7-.9 3.5-1.6 7.2-2.8 10.7-.8 2.9-1.4 5.7-1.8 8.6 3.4-.2 6.8-.3 10-.4 1.2 0 2.4 0 3.8-.1 1.6-.2 3.2.4 4.3-1.3.2-.2.4-.3.7-.3 2-.1 4-.3 6-.4 1.1-.1 2.1-.1 2.6-1.4.2-.4.8-.8 1.3-.8.6.2.9.7 1 1.2.5 2.9.6 5.8.2 8.6-.7 4.9-1.3 9.8-1.8 14.7-.4 3.3-.5 6.6-1.1 9.9-.6 3.9-.2 7.7-.1 11.6.1 2.3.1 4.8-.2 7.2-.6 6.1-1.6 12-2.3 18.1 0 1.1.1 2.3.3 3.4.4 2.4-.1 3.2-2.6 2.6-2.9-.7-5.7-1.7-8.4-3-2.6-1.2-5.7-1.7-8.6-2.5-1.7-.5-3.3-.7-5.5-1.3 1 1.7 2.4 3 4.2 3.9 3.3 2.3 6.8 4.2 9.9 6.6 2.7 2.1 5.7 3.9 8.8 5.4 1.8.8 3.3 2 4.5 3.5-.1 1.2-1.1 2.1-2.3 2.2-2.6.5-5.1.8-7.6 1-10 .2-19.9.4-30 .4-6.6-.1-13.3-.6-19.9-.8-7-.2-13.9-.4-20.9-.5-3.4 0-6.9-.3-10.4-.2-6-.1-11.8.1-17.7 0H72.9c-4.6.1-9.4.2-14.1.3-4 .1-8.1.1-12.2-.1-1.7-.2-3.2-.6-4.9-1.1-.8-.1-1.8-.4-1.6-1.2s.6-2.3 1.1-2.4c3.7-1.1 5.6-4.1 8-6.5 3.4-3.4 6.5-6.9 9.7-10.4l-.5-.6zm109.9-61.9l-.7-.5c-3.5 2.2-7.2 3.6-10.4 6.3-.4.3-.8.8-1 1.2-1 2.3-2.9 2.4-5 2.5-5.5.2-11.1.4-16.7.6-5.6.2-11 .5-16.4.6-4.2.1-8.3-.4-12.4.7-.9.2-1.8.2-2.7.2-5.9.2-11.8.2-17.7.3-.7.1-1.2 0-1.8-.1-.3-.2-.7-.6-.7-1 .1-.4.3-.8.7-.9 2.1-.3 4.2-.5 6.3-.6 6.4.1 12.9.7 19.3-.7.7-.1 1.2-.1 1.9-.1 6.8-.1 13.4-.2 20.1-.4 6.4-.3 12.7-.6 19-.9 1.2-.1 2.5 0 4 0 .7-2 2-3.6 3.9-4.7 1.9-1.2 3.8-2.3 5.7-3.5l-.1-.6c-2.1 0-4.2 0-6.2-.1-4.2.1-8.5.5-12.7.3-8.6-.2-17.1-.3-25.7-1-6.7-.5-13.5-1.5-20.4-.6-2.2.3-4.4.4-6.6.5-6 .3-12.1.4-18 .7-1.9.1-3.8.4-6.2.7 1 1.1 1.5 1.8 2.2 2.5 2.7 2.6 5.4 5.2 8.1 7.6.1.1.2.3.3.3 2.4.2 2.3 2 2.2 3.7 0 3.3-.3 6.5-.3 9.8v8.2c0 2.3.1 4.5.4 6.9.5 3.1.3 6.4-.8 9.4-1.6-1.3-1.7-2.1-1.3-4 .5-1.4.6-3 .5-4.4-.8-3.9-1-7.9-.4-11.8V92c0-3.3-.1-6.5.1-9.8.3-3.5-.6-6.4-3.6-8.6-.9-.7-1.8-1.5-2.5-2.4l-9-8c-1.3.1-2.4.5-3.3.1-2.3-.9-4.5-.5-6.7-.4-1.2.1-2.4.1-3.7.1-3.7 0-7.3-.1-11.1-.1 0 1.8 0 3.2-.1 4.8-.3 6-.6 11.9-.8 18-.2 4.2-.1 8.5-.1 12.7 0 2.8-.1 5.6-.1 8.4 0 2.3-.3 4.5-.5 6.9 0 .6-.2 1-.2 1.5 0 3.4-.2 6.9-.1 10.3 0 1.4.1 2.9-1.7 3.7 1 .2 2.1.2 3.2 0 1.4-.2 2.9-.9 4.3-.9 5.5-.5 11-2.1 16.4-3.1 1.3-.1 2.3-1.1 2.4-2.4.2-2.2.8-4.4.9-6.5.1-6.1-.1-12.2 0-18.3.1-10.4.2-20.7.4-31 0-.6.1-1.1.2-1.7.2.1.4.2.7.5.9 19.2.4 38.2.5 57.3 2-1.1 4-2.4 6.3-3.4s4.9-1.6 7.3-2.5l-.8-1.9 5.8-.7c.1 0 .1.1.2.1.9 1.1 2.1.7 3.2.7 7.3.1 14.5.1 21.8 0 11 0 21.9-.2 32.9-.1 5 .1 10 .3 15.2.5-.2 1.8 1 2.7 2.2 3.5 1.8 1.2 3.4 2.5 5.2 3.7 1.2.8 2.4 1.6 4.1 2.6.2-1.2.5-2.5.6-3.8 0-1.8-.2-3.5-.3-5.3-.6-7.3-1.2-14.6-.5-21.9.6-6.6.8-13.4 1.1-20.1-.2-2.8-.4-5.8-.3-8.8zm-.5-3.6c.2-.4.3-.8.5-1.2 1-5.5 2.8-10.9 4.4-16.3 1-2.8 1-5.7 0-8.5-1.3-.1-2.7-.3-3.9-.4-4.3-.3-8.6-.7-12.9-.7-6.5-.1-13.1.1-19.6.1-2.7 0-5.3-.1-8-.1-8 .1-15.9.1-23.8.4-2.8.1-5.6.6-8.4.6-5.2-.1-10.4-.2-15.6-.4-7-.1-13.9-.2-21.1-.2.3 1.3.5 2.4.8 3.6.3 1.2.6 2.6 1 3.8.3 1.2.6 2.8.9 4.1.2.8.4 1.6.6 2.3.5 3 1 6.1 1.6 9.1.1.4.2.9.4 1.2.5 1 1.2 1.5 2.3.5l-.1 1.5c.2.1.4.2.8.2 3.1 0 6.2.1 9.3 0 7.6-.2 15.2-.6 22.8-.8 3.5-.1 7.1-.4 10.6-.1 7.2.3 14.3 1.1 21.4 1.4 9 .3 18 .9 27 .1 2.6-.4 5.7-.2 9-.2zm-121 85.4c.8.2 1.4.3 2.2.4 6.3.1 12.6.1 18.8.1 12.8-.1 25.7 0 38.5-.1 2.5 0 5.1-.1 7.7.1 8.4.2 16.8.5 25.2.8 5.9.2 11.6.4 17.5.4 5.9.1 11.4-.4 17.2-.1 5.9.2 11.8 0 17.7-.7.7-.1 1.2-.3 1.9-.5-.3-.4-.8-.8-1.2-1.1-4.9-2.6-9.1-6.3-13.6-9.6l-.2-.2c-2.9-1.8-5.7-3.6-8.5-5.5-1.8-1.1-3.9-1.8-6-1.7-2.9 0-5.9.3-8.7.5-6.5.3-13.1.8-19.6.7-15.8-.4-31.6-1.1-47.4-1.7-5.1-.2-10.2-1.4-15.3.3h-.6c-2.2-.2-4.5-.7-6.7-.9-2.5-.3-4.9.2-6.6 2.2-1.2 1.5-2.8 3-4.1 4.5-2.8 3.2-5.5 6.4-8.5 10 3.2-.2 6.4.3 9.5 1.4-3.4 1.3-6.3-1-9.2.7zm123.3-21.4c1.8.6 3.9 1.4 6.1 2 4.1 1.2 8.3 1.6 12.1 3.5 1.2.7 2.8.6 3.9-.1.2-1.1.6-2.3.7-3.5.8-6.1 1.6-12 2.4-18.1v-1.1c.1-5.6-.5-11.3.2-16.9.4-3.3.6-6.6 1-10.1.4-4 .9-7.8 1.2-11.8.3-2.8 1.3-5.5-.1-8.6l-2.2 1.1c-.4.3-1.1.5-1.7.6-2.4-.6-4.5.7-7 .7-3.5 0-7 .5-10.5.4-2.2-.1-4.3.4-6.2 1.5 0 .8-.1 1.4-.1 2-.3 8.3-.6 16.6-1.1 24.9-.4 5.9-.4 11.6 0 17.5.5 5 .9 10.2 1.3 16zm-105.6-.7l.2.8c2.7.3 5.2.5 7.8.6 7 .2 13.9.2 20.9.5 8.6.3 17.1 1 25.7 1.2 10.3.2 20.5.7 30.8 0 5.1-.3 10.3-.3 15.8-1.1-.9-.7-1.3-1.1-1.9-1.5-1.9-1.2-3.6-2.6-5.3-3.9-2.5-2.6-5.9-3.9-9.5-4l-24.1-.3c-3.5 0-7.1.2-10.6.2-5.8 0-11.5 0-17.3-.1h-3.2c-3.9 0-7.7-.2-11.6-.2-1.1 0-2.2.2-3.3.6-3 1.2-6.1 2.4-9 3.9-1.8.8-3.7 2-5.4 3.3z"/>
        <path fill="#fff" d="M168.2 62.2c-3.2 0-6.3-.3-9.4-.1-9 .8-18 .2-27-.1-7.2-.3-14.3-1.1-21.4-1.4-3.5-.2-7.1 0-10.6.1-7.6.2-15.2.6-22.8.8-3.1.1-6.2 0-9.3 0-.2 0-.6-.1-.8-.2l.1-1.5c-1.1 1-1.8.5-2.3-.5-.2-.3-.3-.8-.4-1.2-.5-3-1-6.1-1.6-9.1-.1-.8-.4-1.6-.6-2.3-.3-1.3-.6-2.8-.9-4.1-.3-1.3-.6-2.6-1-3.8-.2-1.1-.5-2.1-.8-3.6 7.3.1 14.3.2 21.1.2 5.2.1 10.4.3 15.6.4 2.8 0 5.6-.5 8.4-.6 8-.1 15.9-.3 23.8-.4 2.7-.1 5.3.1 8 .1 6.5 0 13.1-.2 19.6-.1 4.3.1 8.6.4 12.9.7 1.3.1 2.7.3 3.9.4 1 2.8 1 5.8 0 8.5-1.6 5.4-3.4 10.7-4.4 16.3.3.7.1 1.1-.1 1.5zM46.8 147.5c2.9-1.6 5.7.5 9.2-.9-3-1.1-6.3-1.7-9.5-1.4 3-3.6 5.7-6.8 8.5-10 1.3-1.5 2.9-2.8 4.1-4.5 1.8-2.2 4.1-2.5 6.6-2.2 2.3.2 4.5.6 6.7.9h.6c5.1-1.7 10.2-.4 15.3-.3 15.8.4 31.6 1.3 47.4 1.7 6.5.2 13.1-.4 19.6-.7 2.9-.1 5.9-.5 8.7-.5 2.1 0 4.2.6 6 1.7 2.7 1.9 5.6 3.7 8.5 5.5l.2.1c4.5 3.3 8.7 7 13.6 9.6.4.3.8.7 1.2 1.1-.6.2-1.2.4-1.9.5-5.9.6-11.8.9-17.7.7-5.8-.2-11.5.2-17.3.1-5.8-.1-11.6-.2-17.5-.4-8.4-.2-16.8-.5-25.2-.8-2.5 0-5.1-.1-7.7-.1-12.8.1-25.7 0-38.5.1-6.3 0-12.6 0-18.8-.1-.7.2-1.3.1-2.1-.1zM165 137.2c2.2 0 3.7-.6 4-1.8.1-1.4-.4-2.8-1.4-3.8-1.2-.9-3-1-4.3-.3.6 2 4.3.8 4 4l-2.3 1.9zm19.9 9.6l2.9 1.4c-.1-.7-.3-1.4-.6-2-.7-.6-1.5-.6-2.3.6zm-119.5-.3c1 1.1 1.5 1 2.8.1l-2.8-.1zm104.7-20.4c-.5-5.9-.8-11.1-1.2-16.3-.4-5.8-.4-11.6 0-17.5.4-8.3.7-16.6 1.1-24.9 0-.7.1-1.2.1-2 1.9-1.1 4-1.6 6.2-1.5 3.5 0 7-.5 10.5-.4 2.3 0 4.6-1.3 7-.7.6-.1 1.2-.3 1.7-.6l2.2-1.1c1.4 3.1.5 5.9.1 8.6-.4 4-.9 7.8-1.2 11.8-.4 3.3-.5 6.6-1 10.1-.6 5.6-.1 11.3-.2 16.9v1.1c-.7 6.1-1.6 12-2.4 18.1-.1 1.2-.5 2.4-.7 3.5-1.2.6-2.7.7-3.9.1-3.8-1.9-8.2-2.4-12.1-3.5-2.2-.3-4.4-1.1-6.2-1.7z"/>
        <path fill="rgba(29,29,27,0.45)" d="M63.6 125.8c1.8-1.5 3.8-2.8 5.7-3.9 2.9-1.6 6.1-3 9.1-4.4 1.1-.4 2.2-.7 3.4-.7 4 0 7.8.1 11.8.2h3.2c5.9.1 11.7 0 17.6.1 3.6 0 7.2-.2 10.8-.2 8.2.1 16.2.2 24.5.3 3.6 0 7.1 1.6 9.6 4.5 1.6 1.7 3.5 3.1 5.4 4.4.5.4 1.1.9 1.9 1.7-5.6.9-10.9 1-16 1.2-10.5.8-20.8.2-31.3 0-8.7-.2-17.4-1-26.1-1.3-7.1-.2-14.1-.3-21.2-.6-2.7 0-5.3-.4-7.9-.7l-.5-.6z"/>
        <path fill="#1d1d1b" d="M154.9 113.7c-.9-1.2-1.1-2.9-.6-4.3.9-3.6 1.2-7.5.7-11.3-.3-2.9-.7-5.8-.8-8.6-.2-3.4-.1-6.9-.1-10.3 0-1.1.2-2.1.8-3.1.1.4.2.9.2 1.2.1 5.1.1 10.2.3 15.4.1 2 .3 3.9.6 5.8.4 3.1.4 6.2-.1 9.2-.2 1.8-.3 3.5-.4 5.2-.3.2-.4.5-.6.8zM68.3 86.2c-.3.2-.6.5-1 .7-.2-.2-.4-.4-.5-.7.2-.1.4-.2.7-.3.3.1.6.1.8.3zm96.7 51l2.5-1.9c.3-3.1-3.4-1.9-4-4 1.3-.8 3-.7 4.3.3 1 1 1.5 2.5 1.4 3.8-.6 1.1-2 1.9-4.2 1.8zm19.8 9.6c.9-1.2 1.7-1.2 2.2-.6.3.7.5 1.3.6 2l-2.8-1.4zm-119.4-.3l2.8.1c-1.3.9-1.8 1-2.8-.1z"/>
</svg>
