<svg xmlns="http://www.w3.org/2000/svg" viewBox="0 0 236.013 181.502">
    <path fill="#fff" d="M172.446 38.705l-33-1.834-27.5-.833-28.642 2.7-19.358-2.033 2 22.5-1.586 29.823-1.247 2.177-2.5 22.5 1.167 1.333 64.5-1.5 51.118 2.295-1.118-3.462-4.667-23z"/>
    <path d="M64.36 89.028c1.427-.079 1.611-.724 1.483-1.668-.132-.971-.237-1.954-.244-2.932-.03-4.375-.036-8.75-.016-13.125.005-1.156.035-2.328.224-3.464.858-5.15.959-10.312.498-15.505-.364-4.098-.642-8.205-.925-12.31-.047-.677.073-1.366.123-2.164 3.215.146 6.235.267 9.254.424 2.851.148 5.706.539 8.547.454 3.718-.111 7.422-.628 11.137-.892 3.571-.254 7.148-.426 10.724-.598 2.844-.137 5.698-.395 8.536-.293 6.338.228 12.671.621 19.003 1.003 2.397.145 4.786.435 7.177.679 1.333.137 2.657.396 3.992.463 5.531.275 11.063.531 16.598.716 1.504.05 3.026-.092 4.523-.284 1.946-.25 3.87-.439 6.135.029.151 1.903.391 3.744.428 5.59.158 7.871.255 15.744.376 23.616.03 1.969.12 3.939.091 5.907a399.148 399.148 0 0 1-.279 10.436c-.082 2.02-.057 4.078-.95 6.115-2.494-.06-4.894-.166-7.294-.165-6.083.004-12.167.165-18.248.061-6.792-.116-13.583-.692-20.371-.644-10.555.073-21.108.516-31.662.775-2.933.072-5.832.599-8.806.285-1.826-.193-3.768-.133-5.601.583.378.348.763.548 1.153.557 6.433.142 12.866.34 19.3.353 3.739.007 7.484-.211 11.216-.471 8.231-.575 16.454-.115 24.681.041 2.417.046 4.836-.065 7.253-.024 5.173.088 10.347.368 15.518.304 4.392-.054 8.733.148 13.12.918 2.598 6.313 2.545 13.157 4.815 19.755-1.792.069-3.187.157-4.582.163-.71.003-1.42-.204-2.131-.207-4.833-.023-9.666.003-14.499-.025-7.871-.046-15.741-.121-23.612-.184-.179-.001-.358-.022-.537-.026-8.494-.168-16.989-.505-25.482-.452-7.877.049-15.75.578-23.628.777-4.825.122-9.656.005-14.484.03-1.669.009-3.337.12-4.909.181l2.452-22.432c4.458.282 6.029.048 6.934-1.218l-9.31-.462c-.106 8.275-.206 16.513-2.566 24.416l2.399 2.077c4.066-.27 7.892-.613 11.725-.76 9.754-.376 19.51-.72 29.269-.963 4.739-.118 9.486-.033 14.228.052 4.73.085 9.458.296 14.188.434 3.303.096 6.608.153 9.912.248 1.067.031 2.133.181 3.2.18 4.202-.002 8.407-.14 12.606-.043 5.449.125 10.893.445 16.34.636 1.304.046 2.614-.087 4.016-.141.028-.785.041-1.214.058-1.643.141-3.456-1.539-6.553-1.929-9.93-.449-3.891-1.412-7.721-2.035-11.596-.193-1.199.039-2.46-.004-3.691-.105-3.034-.525-6.084-.323-9.094.282-4.201.494-8.38.34-12.592-.133-3.656.017-7.321-.005-10.982-.012-1.969-.206-3.938-.172-5.904.07-3.992.24-7.982.368-11.952-1.334-.54-2.501-1.146-3.742-1.47-.819-.214-1.746-.068-2.619-.006-2.307.164-4.614.561-6.915.516-4.016-.078-8.028-.4-12.04-.655-3.559-.226-7.115-.503-10.672-.754-2.669-.189-5.335-.423-8.007-.549-4.732-.223-9.467-.398-14.202-.556-2.677-.089-5.357-.182-8.033-.123-1.961.043-3.915.362-5.876.502-6.317.45-12.676.274-18.96 1.267-.783.124-1.607.034-2.409-.012-1.335-.076-2.67-.176-4.001-.303-1.505-.144-3.005-.352-4.51-.492-3.102-.288-6.212-.579-8.951 1.615.047.568.056 1.096.139 1.612.298 1.846.696 3.679.915 5.533.253 2.132.48 4.28.499 6.423.042 4.537-.034 9.077-.111 13.614-.041 2.407-.18 4.812-.29 7.217-.041.892-.174 1.782-.179 2.673-.024 4.443-.036 8.886.001 13.328.006.382.391.764.627 1.198z" fill="#fff"/>
    <path d="M64.36 89.028c-.235-.434-.621-.815-.624-1.2a970.697 970.697 0 0 1-.001-13.328c.005-.891.138-1.781.179-2.673.11-2.405.249-4.81.29-7.217.078-4.538.153-9.077.111-13.614-.02-2.143-.246-4.291-.499-6.423-.22-1.854-.617-3.687-.915-5.533-.083-.516-.092-1.043-.139-1.612 2.739-2.194 5.849-1.903 8.951-1.615 1.506.14 3.005.348 4.51.492 1.331.127 2.666.227 4.001.303.802.046 1.626.136 2.409.012 6.284-.994 12.642-.817 18.96-1.267 1.961-.14 3.914-.459 5.876-.502 2.676-.059 5.356.034 8.033.123 4.735.157 9.47.333 14.202.556 2.672.126 5.338.36 8.007.549 3.557.252 7.113.528 10.672.754 4.012.255 8.024.577 12.04.655 2.3.045 4.608-.352 6.915-.516.873-.062 1.801-.208 2.619.006 1.241.324 2.408.929 3.742 1.47-.128 3.97-.298 7.96-.368 11.952-.035 1.966.16 3.936.172 5.904.022 3.661-.129 7.326.005 10.982.154 4.212-.058 8.392-.34 12.592-.202 3.01.218 6.061.323 9.094.042 1.23-.189 2.492.004 3.691.624 3.875 1.586 7.705 2.035 11.596.39 3.377 2.07 6.474 1.929 9.93-.017.429-.031.859-.058 1.643-1.402.054-2.712.187-4.016.141-5.448-.191-10.892-.511-16.34-.636-4.199-.096-8.404.041-12.606.043-1.066 0-2.132-.15-3.2-.18-3.304-.094-6.608-.151-9.912-.248-4.729-.138-9.457-.348-14.188-.434-4.742-.085-9.488-.17-14.228-.052-9.758.243-19.514.588-29.269.963-3.833.148-7.659.491-11.725.76l-2.399-2.077c2.36-7.903 2.46-16.141 2.566-24.416l9.31.462c-.905 1.266-2.476 1.5-6.934 1.218l-2.452 22.432c1.572-.061 3.24-.173 4.909-.181 4.828-.025 9.659.092 14.484-.03 7.878-.199 15.751-.727 23.628-.777 8.493-.053 16.988.284 25.482.452.179.003.358.024.537.026 7.871.064 15.741.139 23.612.184 4.833.028 9.666.002 14.499.025.711.003 1.421.211 2.131.207 1.395-.006 2.789-.094 4.582-.163-2.27-6.599-2.217-13.442-4.815-19.755-4.387-.77-8.728-.972-13.12-.918-5.171.064-10.345-.216-15.518-.304-2.417-.041-4.837.07-7.253.024-8.227-.156-16.449-.617-24.681-.041-3.732.261-7.477.479-11.216.471-6.434-.012-12.867-.211-19.3-.353-.389-.009-.775-.209-1.153-.557 1.833-.717 3.775-.776 5.601-.583 2.974.314 5.873-.213 8.806-.285 10.554-.259 21.107-.702 31.662-.775 6.788-.047 13.579.528 20.371.644 6.08.104 12.165-.057 18.248-.061 2.4-.002 4.8.105 7.294.165.893-2.037.868-4.095.95-6.115.142-3.477.227-6.956.279-10.436.029-1.968-.061-3.938-.091-5.907-.121-7.872-.218-15.745-.376-23.616-.037-1.846-.277-3.688-.428-5.59-2.265-.468-4.19-.279-6.135-.029-1.496.193-3.019.335-4.523.284a1044.93 1044.93 0 0 1-16.598-.716c-1.335-.066-2.659-.326-3.992-.463-2.391-.245-4.779-.535-7.177-.679-6.332-.382-12.664-.775-19.003-1.003-2.838-.102-5.692.156-8.536.293-3.576.173-7.153.345-10.724.598-3.716.264-7.42.78-11.137.892-2.842.085-5.697-.306-8.547-.454-3.019-.157-6.039-.278-9.254-.424-.05.798-.17 1.487-.123 2.164.284 4.105.561 8.211.925 12.31.462 5.193.361 10.355-.498 15.505-.189 1.136-.219 2.308-.224 3.464-.02 4.375-.014 8.75.016 13.125.007.978.112 1.961.244 2.932.125.945-.06 1.591-1.486 1.67z" fill="#1d1d1b"/>
</svg>
