<svg xmlns="http://www.w3.org/2000/svg" viewBox="0 0 236.013 181.502">
    <path fill="#fff" d="M170.196 49.621l5.875 25.125-111.625-3.125 4.5-24.375z"/>
    <path d="M158.706 127.665c-1.086 2.231-.041 4.605-.714 6.957l-1.055-4.595c-.95-.334-2.015.529-2.971-.472-.498-.522-1.684-.458-2.57-.525-3.747-.282-7.496-.68-11.248-.732-9.405-.132-18.813.001-28.217-.167-7.243-.13-14.48-.553-21.72-.852-2.681-.111-5.361-.265-8.043-.345-.606-.018-1.218.19-1.832.295l-.771 2.553c-1.927-.422-.479-1.927-1.313-2.857l-4.034-.821.05-.502h4.625c-.348-6.359-.889-12.442-1.866-18.657-3.894-1.306-7.288-3.976-11.673-3.038-.991-.57-1.981-1.112-2.94-1.704-.443-.273-.917-.575-1.223-.98-4.31-5.706-8.584-11.441-12.888-17.152-2.632-3.493-5.257-6.994-7.985-10.411-.695-.871-1.772-1.437-2.895-2.318.062-.994-1.454-2.228.125-3.833.7.756 1.324 1.451 1.97 2.125 2.348 2.446 4.65 4.905 7.501 6.845 4.65 3.164 9.14 6.563 13.973 10.063.555-2.835.316-5.476.492-8.083.179-2.649.49-5.289.747-7.98l2.874-.53c1.363-7.873 3.273-15.781 3.095-23.997 2.394.264 4.579.593 6.776.731 5.261.331 10.526.61 15.793.826 1.331.055 2.679-.345 4.011-.298 5.807.204 11.611.51 17.418.747 1.517.062 3.039.018 4.559.012 2.946-.012 5.892.005 8.837-.059 2.324-.05 4.648-.327 6.968-.289 7.873.132 15.745.336 23.616.565 2.403.07 4.801.323 7.203.459.802.045 1.611.021 2.414-.031 1.74-.114 3.477-.268 5.251-.408l1.542 3.64c-.982 3.442.351 6.709.868 10.037.356 2.291.962 4.543 1.417 6.821.146.731.164 1.487-.058 2.285-2.927-6.399-3.031-13.579-5.448-19.967-7.749-.962-15.225-1.306-22.727-1.312-3.213-.003-6.424-.342-9.638-.39-2.679-.04-5.361.107-8.041.201-1.25.043-2.498.21-3.748.225-3.222.038-6.447.101-9.666.008-3.663-.106-7.32-.463-10.983-.542-4.267-.092-8.54.091-12.807-.014-5.002-.122-10-.424-14.999-.649-1.865-.084-3.729-.171-5.601-.257-1.51 2.209-.84 4.797-1.797 7.048-.925 2.175-1.066 4.688-1.511 7.061-.46 2.455-.872 4.92-1.369 7.744 1.155.005 2.336.054 3.513.008 3.567-.139 7.132-.405 10.7-.452 4.385-.058 8.778-.057 13.158.13 3.654.156 7.291.691 10.945.918 2.571.16 5.164.219 7.734.08 3.33-.18 6.6.154 9.877.62 1.236.175 2.484.278 3.73.369 6.595.482 13.202.836 19.784 1.45 9.107.849 18.208.937 27.326.469l.914-1.457 3.236 1.431 2.886 17.438c1.916-1.222 3.51-2.188 5.051-3.232 5.918-4.008 12.055-7.723 17.072-12.937.669-.695 1.689-1.341 3.232-.612-1.111 1.575-2.106 3.069-3.185 4.5-3.339 4.428-7.015 8.564-10.934 12.487-1.954 1.956-3.815 4.011-5.838 5.891-1.618 1.504-2.927 3.135-3.342 5.232-1.682 1.175-3.435 1.491-5.329 1.703-3.543.397-7.048 1.131-10.567 1.733-1.494.256-2.991.496-4.473.809-1.724.364-3.432.801-5.236 1.227-.531 3.41-.236 6.621-.036 9.808.168 2.671.647 5.322.947 7.987.094.836.189 1.613 1.092 1.974l-.031-.055zm16.821-51.673c-1.483-.098-2.791-.266-4.096-.246-1.246.02-2.493.374-3.734.342a1085.54 1085.54 0 0 1-18.219-.615c-2.319-.098-4.631-.37-6.944-.589-3.105-.294-6.201-.704-9.311-.898-4.19-.261-8.42-.112-12.577-.606-3.931-.467-7.833-.463-11.76-.432a47.754 47.754 0 0 1-5.086-.25c-2.395-.237-4.778-.829-7.169-.845-11.227-.076-22.463-.209-33.722 1.119 0 6.539-.04 13.041.029 19.542.017 1.593.25 3.217.631 4.766.661 2.685 2.49 3.998 5.239 4.067 1.784.045 3.569.089 5.348.209 3.289.222 6.574.68 9.863.71 4.647.042 9.296-.274 13.945-.325 3.129-.034 6.26.119 9.39.201 1.601.042 3.211.25 4.801.14 3.825-.264 7.637-.7 11.459-1.013 8.997-.737 17.991-1.516 27.03-1.545 4.92-.016 9.839-.111 14.758-.18 3.663-.051 7.326-.121 10.988-.174 1.103-.016 2.206-.002 3.44-.002-.988-7.975-2.042-15.538-4.303-23.376zm-95.182 49.494c.664.153 1.003.292 1.346.303 9.028.29 18.054.661 27.084.825 15.03.272 30.078-.41 45.09.896.831.072 1.689-.176 2.712-.296-.101-1.07-.156-1.855-.253-2.635-.275-2.216-.613-4.425-.838-6.646-.244-2.399-.385-4.809-.578-7.214-.203-2.533-1.276-3.459-3.85-3.319-.446.024-.888.11-1.333.141-3.914.272-7.827.542-11.742.798-.353.023-.712-.064-1.069-.094-1.954-.16-3.907-.364-5.864-.463-1.786-.09-3.595.085-5.364-.118-4.293-.494-8.564-.558-12.854 0-1.053.137-2.14.026-3.211.002-2.68-.059-5.36-.217-8.038-.181-3.4.045-6.798.224-10.196.38-3.214.148-6.427.322-9.637.53-.603.039-1.192.293-2.091.526-.489 5.51-.001 10.956.686 16.565zm97.099-23.269l-.044-.819c-2.916-.169-5.833-.49-8.748-.473-5.361.031-10.722.42-16.08.371-7.707-.07-15.356.733-23.028 1.192-4.106.245-8.211.546-12.303.958-4.815.485-9.614.914-14.44.14-.876-.14-1.787-.082-2.681-.081-7.063.009-14.127.054-21.19.023-2.11-.009-4.219-.222-6.451-.348 2.056 1.343 4.507 2.018 6.789 2.088 1.397.487 2.811.947 4.258 1.105 1.226.134 2.49-.098 3.739-.135 6.346-.188 12.696-.584 19.036-.464 3.666.069 7.312.225 10.966-.13.355-.035.716-.008 1.074-.023 4.454-.179 8.896.988 13.359.129.341-.066.713.034 1.071.046 4.374.143 8.747.302 13.122.406.791.019 1.585-.215 2.381-.295 2.749-.276 5.531-.907 8.238-.676 1.907.162 3.704.018 5.534-.205a106.67 106.67 0 0 0 6.603-1.029c2.94-.549 5.864-1.183 8.795-1.78zM60.923 97.859l.612-.193c-.118-2.13-.417-4.27-.297-6.386.098-1.72-.436-2.953-1.692-3.977-.969-.789-1.938-1.583-2.954-2.309a703.645 703.645 0 0 0-7.675-5.38c-.366-.254-.795-.417-1.706-.885 4.387 7.032 8.742 13.305 13.712 19.13zm120.556.532c4.971-4.126 15.311-15.124 16.125-17.041l-17.037 10.994.912 6.047z" fill="#1d1d1b"/>
    <path d="M158.738 127.718c.815-.726 1.64-.708 2.737-.086-1.102.934-1.936.57-2.768.033l.031.053z" fill="#1d1d1b"/>
    <path d="M175.527 75.992c2.261 7.838 3.315 15.401 4.302 23.378-1.234 0-2.337-.013-3.44.002-3.663.053-7.326.123-10.988.174-4.919.069-9.839.164-14.758.18-9.039.029-18.033.808-27.03 1.545-3.822.313-7.634.749-11.459 1.013-1.589.109-3.199-.099-4.801-.14-3.13-.082-6.261-.235-9.39-.201-4.649.051-9.298.367-13.945.325-3.289-.03-6.573-.488-9.863-.71-1.779-.12-3.565-.164-5.348-.209-2.749-.069-4.578-1.382-5.239-4.067-.381-1.549-.614-3.173-.631-4.766-.069-6.501-.029-13.004-.029-19.542 11.26-1.328 22.495-1.195 33.722-1.119 2.391.016 4.774.608 7.169.845 1.688.167 3.391.264 5.086.25 3.928-.032 7.83-.035 11.76.432 4.157.494 8.387.345 12.577.606 3.11.194 6.207.604 9.311.898 2.313.219 4.625.491 6.944.589 6.071.257 12.145.459 18.219.615 1.241.032 2.488-.323 3.734-.342 1.307-.022 2.615.147 4.097.244zm-95.182 49.494c-.687-5.61-1.175-11.056-.686-16.565.899-.233 1.488-.487 2.091-.526 3.21-.208 6.423-.382 9.637-.53 3.397-.156 6.796-.335 10.196-.38 2.678-.036 5.358.122 8.038.181 1.071.024 2.158.135 3.211-.002 4.29-.559 8.561-.494 12.854 0 1.769.203 3.578.028 5.364.118 1.958.098 3.91.303 5.864.463.357.029.716.117 1.069.094 3.915-.256 7.829-.526 11.742-.798.445-.031.888-.117 1.333-.141 2.574-.139 3.646.786 3.85 3.319.193 2.405.334 4.814.578 7.214.226 2.221.564 4.43.838 6.646.097.78.152 1.565.253 2.635-1.022.12-1.881.368-2.712.296-15.011-1.306-30.06-.624-45.09-.896-9.03-.163-18.057-.535-27.084-.825-.343-.011-.682-.149-1.346-.303zM60.923 97.859c-4.97-5.825-9.325-12.098-13.712-19.129.911.467 1.34.631 1.706.885a668.138 668.138 0 0 1 7.675 5.38c1.016.726 1.985 1.52 2.954 2.309 1.256 1.023 1.79 2.257 1.692 3.977-.121 2.116.179 4.256.297 6.386l-.612.192zm120.556.532l-.912-6.047 17.037-10.994c-.814 1.918-11.154 12.916-16.125 17.041z" fill="#fff"/>
</svg>
