<svg width="47px" height="50px" viewBox="0 0 47 50" version="1.1" xmlns="http://www.w3.org/2000/svg" xmlns:xlink="http://www.w3.org/1999/xlink">
      <g id="modal1-close-icon" stroke="none" stroke-width="1" fill="none" fill-rule="evenodd">
        <g id="modal1-Desktop-HD" transform="translate(-1330.000000, -838.000000)">
            <g id="modal1-X" transform="translate(1330.000000, 837.000000)">
                <g id="modal1-Group-3" transform="translate(0.000000, 0.228785)">
                    <mask id="modal1-mask-2" fill="white">
                        <polygon id="modal1-path-1" points="0.000640223029 49.8461538 46.6964664 49.8461538 46.6964664 0.926307692 0.000640223029 0.926307692"></polygon>
                    </mask>
                    <g id="modal1-Clip-2"></g>
                    <path d="M23.2084331,20.6263385 C16.476726,17.4943385 12.3806343,11.8824923 8.82518166,5.68910769 C7.49986509,3.38787692 6.15202189,1.30264615 3.49012544,0.924646154 C0.437767456,1.58510769 -0.0953627219,3.99433846 0.0135159763,7.24264615 C3.16724379,12.1234154 6.94796272,16.7134154 11.4570426,20.5806462 C13.3830692,22.2297231 15.0913385,24.1197231 14.5056462,27.6131077 C11.494587,32.2529538 6.35476154,34.7577231 2.81057219,38.8368 C2.08221124,40.7351077 2.04466686,42.2761846 3.71539172,44.0208 C4.74035325,44.0789538 6.17830296,44.1620308 7.42853077,44.2326462 C12.1441047,40.3238769 16.6269036,36.6061846 20.9745426,33.0006462 C27.4471935,38.2095692 33.2928533,43.2731077 37.4302438,49.7115692 C40.3249154,50.2308 42.1270456,49.2463385 43.1107083,46.9118769 C43.4260811,46.1600308 42.9980751,45.0177231 42.9868118,44.9014154 C37.5241047,38.7454154 32.5382112,33.1335692 27.383368,27.3264923 C32.4405959,20.8091077 38.7217704,16.6552615 45.8026402,14.5617231 C47.4245574,8.79203077 47.1992911,8.31433846 42.0744834,6.48249231 C36.0824006,10.9728 29.9138592,15.5960308 23.2084331,20.6263385" id="modal1-Fill-1" fill="#FFFFFF" mask="url(#modal1-mask-2)"></path>
                </g>
                <g id="Group-6" transform="translate(0.000000, 0.228785)">
                    <mask id="modal1-mask-4" fill="white">
                        <polygon id="modal1-path-3" points="0.000640223029 49.8461538 46.6964664 49.8461538 46.6964664 0.926307692 0.000640223029 0.926307692"></polygon>
                    </mask>
                    <g id="modal1-Clip-5"></g>
                    <path d="M23.2084331,20.6263385 C29.9138592,15.5960308 36.0824006,10.9728 42.0744834,6.48249231 C47.1992911,8.31433846 47.4245574,8.79203077 45.8026402,14.5617231 C38.7217704,16.6552615 32.4405959,20.8091077 27.383368,27.3264923 C32.5382112,33.1335692 37.5241047,38.7454154 42.9868118,44.9014154 C42.9980751,45.0177231 43.4260811,46.1600308 43.1107083,46.9118769 C42.1270456,49.2463385 40.3249154,50.2308 37.4302438,49.7115692 C33.2928533,43.2731077 27.4471935,38.2095692 20.9745426,33.0006462 C16.6269036,36.6061846 12.1441047,40.3238769 7.42853077,44.2326462 C6.17830296,44.1620308 4.74035325,44.0789538 3.71539172,44.0208 C2.04466686,42.2761846 2.08221124,40.7351077 2.81057219,38.8368 C6.35476154,34.7577231 11.494587,32.2529538 14.5056462,27.6131077 C15.0913385,24.1197231 13.3830692,22.2297231 11.4570426,20.5806462 C6.94796272,16.7134154 3.16724379,12.1234154 0.0135159763,7.24264615 C-0.0953627219,3.99433846 0.437767456,1.58510769 3.49012544,0.924646154 C6.15202189,1.30264615 7.49986509,3.38787692 8.82518166,5.68910769 C12.3806343,11.8824923 16.476726,17.4943385 23.2084331,20.6263385" id="modal1-Fill-4" fill="#000000" mask="url(#modal1-mask-4)"></path>
                </g>
            </g>
        </g>
    </g>
</svg>
