<?xml version="1.0" encoding="utf-8"?>
<!-- Generator: Adobe Illustrator 19.2.1, SVG Export Plug-In . SVG Version: 6.00 Build 0)  -->
<svg version="1.1" id="Ebene_1" xmlns="http://www.w3.org/2000/svg" xmlns:xlink="http://www.w3.org/1999/xlink" x="0px" y="0px"
	 viewBox="0 0 236 181.5" style="enable-background:new 0 0 236 181.5;" xml:space="preserve">
<style type="text/css">
	.st0{fill:#1D1D1B;}
	.st1{fill:#FFFFFF;}
</style>
<path class="st0" d="M154.9,100.4c0.5,0,0.9,0.1,1.2,0c0.5,0,1-0.2,1.5-0.2c2.3-0.1,4.7,0.5,7-0.1c0.2,0,0.3,0,0.5,0.1
	c1.2,0.4,2.4,0.3,3.6,0.3c0.6,0,1.1,0,1.7,0.2c2.9,0.7,5.8,0.9,8.7,0.5c1.4-0.2,2.8-0.2,4.1,0.2c1.2,0.4,2.4,0.4,3.6,0.3
	c1-0.1,1.9-0.2,2.9-0.3c0.5,0,0.9,0,1.4,0c1.2,0,2.4,0.1,3.6,0c0.9-0.1,1.8-0.4,2.7-0.5c2.5-0.2,5-0.4,7.5-0.5
	c0.2,0,0.4,0.2,0.9,0.5c-0.7,0.2-1.1,0.3-1.5,0.3c-1.2,0-2.4,0-3.6,0c-1.6,0.1-3.2,0-4.8,0.5c-1.8,0.6-3.6,0.8-5.2,0.3
	c-2,0.3-3.9,0.7-5.8,0.4c-2.6-0.5-5.2-0.8-7.8,0.2c-0.1,0-0.2,0.1-0.3,0.1c-1.7-0.1-3.4-0.2-5.1-0.4c-0.9-0.1-1.8-0.2-2.7,0
	c-0.7,0.2-1.5,0-2.2-0.1c-0.9-0.2-1.8-0.3-2.7-0.2c-1.3,0.2-2.5,0.1-3.7-0.2c-0.4-0.1-0.9-0.2-1.3-0.2c-1.1,0.1-2.3,0.4-3.4,0.6
	c-0.5,0.1-0.9,0.2-1.3,1C154.7,104.7,154.9,99.9,154.9,100.4"/>
<path class="st0" d="M85.7,100.4c-0.5,0-0.9,0.1-1.3,0c-0.5,0-1.1-0.2-1.6-0.2c-2.4-0.1-4.9,0.5-7.3-0.1c-0.2,0-0.4,0-0.5,0.1
	c-1.2,0.4-2.5,0.3-3.7,0.3c-0.6,0-1.2,0-1.8,0.2c-3,0.7-6,0.9-9.1,0.5c-1.4-0.2-2.9-0.2-4.3,0.2c-1.2,0.4-2.5,0.4-3.7,0.3
	c-1-0.1-2-0.2-3-0.3c-0.5,0-1,0-1.4,0c-1.2,0-2.5,0.1-3.7,0c-0.9-0.1-1.9-0.4-2.8-0.5c-2.6-0.2-5.2-0.4-7.8-0.5
	c-0.2,0-0.4,0.2-0.9,0.5c0.8,0.2,1.2,0.3,1.5,0.3c1.2,0,2.5,0,3.7,0c1.7,0.1,3.4,0,5,0.5c1.9,0.6,3.7,0.8,5.4,0.3
	c2.1,0.3,4.1,0.7,6.1,0.4c2.7-0.5,5.4-0.8,8.1,0.2c0.1,0,0.2,0.1,0.4,0.1c1.8-0.1,3.6-0.2,5.3-0.4c0.9-0.1,1.9-0.2,2.8,0
	c0.7,0.2,1.5,0,2.3-0.1c0.9-0.2,1.9-0.3,2.8-0.2c1.3,0.2,2.6,0.1,3.9-0.2c0.5-0.1,0.9-0.2,1.4-0.2c1.2,0.1,2.4,0.4,3.5,0.6
	c0.5,0.1,0.9,0.2,1.3,1C85.9,104.7,85.7,99.9,85.7,100.4"/>
<g id="doc00073520160814150808-34.psd_Bild">
	<title>SK_Website-Animation_Einzelbilder</title>
	<path d="M65.6,86.2c-3.3-0.7-6.7-1.1-9.8-2.1c-3.1-1.1-6.4-1.6-9.7-1.6c-1.1-2.6-1-2.5,1-3.6s4.2-2.6,6.2-4
		c2.9-2.1,5.8-4.3,8.6-6.5c0.5-0.4,1-0.8,1.4-1.2c0-1-1.4-2.1,0-3c0-0.4-0.1-0.7-0.3-1.1c-1.2-3.1-2.4-6.2-3.7-9.3
		c-0.5-1.1-1.2-2.1-1.6-3.2c-0.9-2.4-1.8-4.8-2.7-7.2c0.6-1.3,1.4-2.1,3.1-1.4c0.7,0.3,0.8,0.1,2.4-1.2l0.6,1.5
		c2.3,0.3,4.7,0.8,7.2,1c4.3,0.5,8.6,0.9,12.9,1.2c1.9,0.1,3.8-0.1,5.7-0.1c3.3-0.1,6.5-0.1,9.8-0.2c4.2-0.2,8.4,0.5,12.6,0.9
		c3.2,0.3,6.5,0.2,9.8,0.3c1.8,0,2,0.2,2.7,1.7c1.2,2.6,2.5,5.1,3.7,7.8c0.9,1.9,1.6,3.9,2.4,5.8l11.6-15.9c0.6,0,1.3,0,2,0
		c3.5,0.4,7,0.9,10.4,1.4c5,0.6,10,1.1,15,1.7c4.5,0.7,9.1,0.7,13.6,0.1c1.5-0.2,2.9-0.3,4.4-0.3s2.1,1.2,1.2,2.5
		c-0.3,0.5-0.7,0.9-1.1,1.3c-3.9,3.4-7.5,7.1-10.8,11.1c-1.1,1.4-2.4,2.7-3.9,4.3c1.5,0.9,2.8,1.5,3.9,2.3c2.9,2,6.2,3.3,9.2,5
		c0.5,0.3,0.9,0.6,1.4,1c1.6,1.4,3.6,2.3,5.8,2.6c0.3,2.4,0,2.8-2.1,3.1c-0.9,0.1-1.9,0.1-2.9,0.1c-3.5,0.1-6.8,1.3-10.1,2.5
		c-1.6,0.6-3.2,1-4.6,1.4c-1,11.4-1.4,22.8-1.1,34.2c-0.8,0.6-1.8,1.4-3.2,0.7c-0.5,0-0.9,0.1-1.3,0.4c-3.5,1.5-7,3-10.6,4.4
		c-0.7,0.3-1.5,0.5-2.3,0.7c-0.6,0-1.1,0.1-1.6,0.3c-1.7,1.1-3.8,1.1-5.7,1.5c-3.6,0.8-7.1,2.3-10.8,3s-7.4,2.2-11.1,3.4
		c-1.4,0.5-2.9,0.9-4.3,1.3c-0.7,0.2-1.4,0.3-2.1,0.2c-1.7-0.5-3.4-0.5-5.1-1.3c-2.4-1-5-1.7-7.5-2.1c-8.5-1.6-17-3.7-25.3-6.3
		c-2.5-0.8-5-1.5-7.6-2.1c-0.9-0.1-1.9-0.1-2.8,0.1c-1.9,0.2-2.4-0.3-2.1-2.2c0.2-0.9,0.3-1.9,0.1-2.8c-0.9-2.5-0.3-5-0.2-7.5
		c0.3-4.5,0.2-9.1-0.4-13.6C65.7,93.2,65.8,89.9,65.6,86.2z M114,82.6c0.3,0.6,0.5,1.2,0.7,1.9c0.2,1.2,0.3,2.3,0.4,3.5
		c0.1,2,0.2,4.1,0.3,6.1c0.1,3,0.2,6,0.3,9c0.1,2.3,0.5,4.6,0.6,6.9c0.2,5.9,0.2,11.8,0.4,17.7c0,1.6,0.1,3.2,1.5,4.5
		c0.7,0,1.5-0.2,2.2-0.3c3.3-0.9,6.6-2,9.9-2.9c5.7-1.6,11.5-3.2,17.2-4.8c1.4-0.4,2.8-0.6,4.2-1c5.1-1.6,9.6-4.5,14.9-5.6
		c1.3-0.3,1.7-1.4,1.6-2.8c-0.1-1.7-0.2-3.4-0.2-5c0.1-3.5,0.3-7,0.4-10.5c-0.1-2.1,0-4.1,0.2-6.2c0.4-2.6,0.3-5.3-0.4-7.9
		c-5.6,1.2-11,2.3-16.5,3.6c-2.1,0.5-4.1,1.2-6.2,1.7c-3.2,0.8-6.5,1.4-9.8,2.1c-0.4,0.1-0.8,0-1.1-0.2c-2.2-1-4.4-1.9-6.5-3
		c-3.2-1.7-6.3-3.6-9.5-5.5c-1-0.6-2.1-1.1-3.2-1.6c-1.7-0.8-3.3-1.2-4.5,0.9c-0.2,0.2-0.5,0.4-0.8,0.6c-2.5,2-5.7,3.1-8.2,5.3
		c-0.8,0.7-1.7,1.4-2.6,2c-0.3,0.3-0.8,0.5-1.2,0.6c-1.4,0-2.8,0.5-4.1-0.4c-0.9-0.4-1.8-0.6-2.7-0.6c-1.9-0.3-3.8-0.4-5.6-0.8
		c-3.7-0.7-7.3-1.7-11-2.4c-2.1-0.4-4.2-0.5-6.6-0.8c-0.1,3.2-0.6,6.2-0.2,9.1c0.8,5.3,0.3,10.6,0.2,16c-0.1,2.8,0.1,5.6,0.7,8.3
		c15.4,4.3,30.5,8.9,46.2,11.2c-0.3-2.3-0.4-4.6-0.3-6.9c0.2-2.9-0.7-5.6-0.2-8.5c0.3-2.3,0.4-4.6,0.2-6.9
		c-0.2-4.3-0.6-8.6-0.8-12.9c-0.1-1.7,0.3-3.4-0.1-5c-0.7-2.6-0.1-5.2-0.3-7.8C113.6,83.1,113.8,82.8,114,82.6z M66.6,66.2
		c3.4-0.3,6.5-0.5,9.6-0.8c4.8-0.5,9.7-0.9,14.5-1.4c1.4-0.1,2.9-0.3,4.3-0.4c1-0.1,1.9,0,2.9,0c1.1,0,2.2,0.1,3.3,0
		c3.2-0.2,6.4-0.4,9.6-0.6c2.9-0.2,5.9-0.6,8.8-0.7c2.1-0.1,4.2-0.8,6.7,0.3c-0.2-1.8-0.6-3.7-1.1-5.4c-1.2-2.8-2.6-5.4-4.1-8.1
		c-0.3-0.6-0.7-1-1.3-1.3c-1.3-0.3-2.7-0.5-4-0.7c-3.3-0.4-6.6-0.9-9.9-1.3c-1.9-0.4-3.9-0.5-5.9-0.5c-2.5,0.3-4.9,0.3-7.4,0
		c-0.5,0-1,0-1.4,0c-2.9,0.1-5.9,0.3-8.8,0.3c-1.8,0-3.5-0.3-5.2-0.5c-3.5-0.3-7-0.6-10.5-0.9c-2.8-0.2-5.5-0.4-8.5-0.7
		C59.9,51.8,63.2,59,66.6,66.2L66.6,66.2z M115.4,79l-0.3,0.6c0.5,0.5,1.1,1,1.7,1.4c1,0.6,2.1,1.1,3.1,1.7c4.3,3.1,9,5.5,14,7
		c0.8,0.3,1.7,0.5,2.6,0.5c3.1-0.4,6.2-0.9,9.2-1.6s6.1-1.9,9.2-2.6c3.4-0.8,6.9-1.3,10.3-2c1.3-0.2,2.8,0,3.5-1.5
		c0.2-0.1,0.4-0.2,0.6-0.2c0.7,0,1.3-0.1,2-0.3c3.4-0.9,6.7-1.9,10.1-2.8c1.8-0.5,3.6-0.9,5.8-1.3c-2-1.2-3.6-2.6-5.5-3.1
		c-3.9-1.2-6.8-4-10.4-5.7c-1.1-0.6-2.5-0.9-3.8-0.7c-0.9,0.2-1.9,0.4-2.8,0.7c-4.2,1.2-8.4,2.6-12.8,3c-2,0.1-4,0.4-5.9,0.8
		c-6.3,1.2-12.7,2.4-19,3.7C123.2,77.4,119.3,78.3,115.4,79L115.4,79z M112.3,79.4c-1.2-0.6-2.4-1.1-3.6-1.6
		c-2.9-0.9-5.9-1.4-8.7-2.5c-2.5-0.8-5.1-1.3-7.7-1.2c-2.3-0.1-4.6-0.3-6.9-0.5c-2.2-0.2-4.4-0.5-6.6-1c-3.9-0.9-7.7-1.9-11.5-3.2
		c-1.4-0.6-3-0.4-4.2,0.6c-3,2.3-6,4.5-9,6.7c-1.6,1.2-3.2,2.3-4.8,3.5c0.5,0.2,1,0.4,1.6,0.5c3.8,1,7.5,2,11.3,2.9
		c2.9,0.7,5.9,1.4,8.8,2c2.3,0.5,4.7,0.6,7.1,1.1c5.1,1.1,10.3,1.9,15.5,2.7c3.1,0.5,5.3-0.6,7.6-2.3c0.6-0.4,1.2-0.8,1.8-1.1
		C106.4,84.6,109.1,82.2,112.3,79.4L112.3,79.4z M130.6,61c2.1,0.4,3.8,0.7,5.6,1c0.9,0.2,1.9,0.2,2.9,0.3c4.6,0.7,9.4,0.3,14,1.5
		c0.5,0.1,1,0.1,1.4,0.1c3.1,0.1,6.2-0.6,9.2,0.6c1.1,0.3,2.2,0.4,3.3,0.4c0.7,0,1.4-0.2,1.9-0.5c1.9-1.6,3.6-3.3,5.4-5.1
		c1.9-2,3.2-4.6,5.6-6.1c1.3-1,2.5-2.1,3.6-3.2c-2-0.1-3.5-0.3-5.1-0.3c-1,0-2,0.2-3,0.1c-2.5-0.2-5.1-0.4-7.6-0.7
		c-4.7-0.5-9.3-0.9-14-1.4c-4.3-0.5-8.5-1-12.5-1.4C137.2,50.7,133.6,55.7,130.6,61L130.6,61z M127.1,64.1c-1.9,0-3.7,0-5.5,0
		c-3,0.1-5.9,0.2-8.8,0.4c-1.8,0.1-3.5,0.1-5.3,0.3c-3.2,0.2-6.4,0.7-9.6,0.5c-3.8-0.1-7.6,0.1-11.4,0.5c-4.5,0.3-9,0.9-13.6,1.4
		c-1.4,0.2-2.8,0.5-4.2,0.7c2.5,1.1,5.1,2,7.8,2.5c5.1,0.9,10.2,1.9,15.4,1.9c2.5,0.1,5.1,0.4,7.5,1c1.7,0.3,3.4,1,5,1.4
		c2.4,0.5,4.6,1.6,7.2,1.6c0.2,0,0.5,0.1,0.7,0.2c1.6,0.7,3.3,0.8,5,0.4c3.5-0.7,7-1.6,10.1-2.3L127.1,64.1z M165.7,66.4l-8.7-0.8
		c-3.2-0.3-6.5-0.5-9.7-0.8c-4.4-0.5-8.7-1.1-13.1-1.5c-1.7-0.1-3.3-0.1-5,0.1v10.8l1.6-0.3c5.1-1,10.1-2.2,15.2-2.8
		c4.7-0.4,9.3-1.2,13.9-2.3C162,68.3,163.9,67.5,165.7,66.4L165.7,66.4z"/>
	<path d="M125.3,44.7l-1,1.9l-1.5-0.5C123.1,44.5,124.3,45.2,125.3,44.7z"/>
	<path d="M43.7,75.9c-0.1-0.4-0.1-0.8,0-1.2c0.2-0.4,0.5-0.7,0.8-0.9c0.8,0.3,0.5,0.8,0.1,1.3C44.3,75.5,44,75.7,43.7,75.9z"/>
	<path d="M181.5,46l-1.1-0.5l0.3-0.5l1.1,0.5L181.5,46z"/>
	<path d="M192.9,73.7l-0.6-0.5c0.2-0.2,0.4-0.4,0.6-0.5c0.2,0.1,0.4,0.2,0.5,0.4C193.2,73.3,193.1,73.5,192.9,73.7z"/>
	<path class="st1" d="M114,82.6c-0.2,0.3-0.4,0.6-0.6,0.9c0.2,2.6-0.4,5.2,0.3,7.8c0.4,1.6,0,3.3,0.1,5c0.2,4.3,0.6,8.6,0.8,12.9
		c0.2,2.3,0.1,4.6-0.2,6.9c-0.5,2.9,0.4,5.7,0.2,8.5c0,2.3,0.1,4.6,0.3,6.9c-15.6-2.3-30.8-6.9-46.2-11.2c-0.6-2.7-0.8-5.5-0.7-8.3
		c0-5.3,0.5-10.6-0.2-16c-0.4-2.9,0.1-5.9,0.2-9.1c2.4,0.3,4.5,0.4,6.6,0.8c3.7,0.7,7.3,1.6,11,2.4c1.9,0.4,3.8,0.5,5.6,0.8
		c0.9,0,1.9,0.3,2.7,0.6c1.4,0.9,2.8,0.5,4.1,0.4c0.5-0.1,0.9-0.3,1.2-0.6c0.9-0.7,1.8-1.3,2.6-2c2.5-2.2,5.6-3.2,8.2-5.3
		c0.3-0.1,0.5-0.3,0.8-0.6c1.2-2.1,2.8-1.7,4.5-0.9c1.1,0.5,2.2,1,3.2,1.6c3.2,1.8,6.3,3.7,9.5,5.5c2.1,1.1,4.3,2,6.5,3
		c0.4,0.2,0.8,0.2,1.1,0.2c3.3-0.7,6.5-1.3,9.8-2.1c2.1-0.5,4.1-1.3,6.2-1.7c5.5-1.2,10.9-2.4,16.5-3.6c0.6,2.6,0.8,5.2,0.4,7.9
		c-0.2,2.1-0.3,4.1-0.2,6.2c-0.1,3.5-0.3,7-0.4,10.5c0,1.7,0.1,3.4,0.2,5c0.1,1.4-0.3,2.5-1.6,2.8c-5.3,1.1-9.9,4-14.9,5.6
		c-1.4,0.4-2.8,0.7-4.2,1c-5.7,1.6-11.5,3.2-17.2,4.8c-3.3,0.9-6.6,2-9.9,2.9c-0.7,0.2-1.5,0.3-2.2,0.3c-1.4-1.3-1.5-2.9-1.5-4.5
		c-0.1-5.9-0.2-11.8-0.4-17.7c-0.1-2.3-0.5-4.6-0.6-6.9c-0.2-3-0.2-6-0.3-9c-0.1-2-0.2-4.1-0.3-6.1c-0.1-1.2-0.2-2.4-0.4-3.5
		C114.5,83.8,114.3,83.2,114,82.6z"/>
	<path class="st1" d="M66.6,66.2c-3.4-7.1-6.7-14.4-8.5-22.5c3,0.2,5.8,0.4,8.5,0.7c3.5,0.3,7,0.6,10.5,0.9c1.8,0.1,3.5,0.5,5.2,0.5
		c2.9,0,5.9-0.2,8.8-0.3c0.5,0,1,0,1.4,0c2.5,0.3,4.9,0.3,7.4,0c2,0,4,0.2,5.9,0.5c3.3,0.4,6.6,0.8,9.9,1.3c1.3,0.1,2.7,0.4,4,0.7
		c0.6,0.2,1,0.7,1.3,1.3c1.4,2.7,2.9,5.3,4.1,8.1c0.5,1.8,0.9,3.6,1.1,5.4c-2.5-1.1-4.6-0.4-6.7-0.3c-2.9,0.1-5.9,0.5-8.8,0.7
		c-3.2,0.2-6.4,0.4-9.6,0.6c-1.1,0.1-2.2,0-3.3,0c-1,0-1.9,0-2.9,0c-1.4,0.1-2.9,0.2-4.3,0.4c-4.8,0.5-9.7,1-14.5,1.4
		C73.1,65.7,70.1,65.9,66.6,66.2z"/>
	<path class="st1" d="M115.4,79c3.9-0.8,7.8-1.6,11.7-2.4c6.3-1.2,12.7-2.5,19-3.7c2-0.4,3.9-0.6,5.9-0.8c4.4-0.3,8.6-1.7,12.8-3
		c0.9-0.3,1.8-0.5,2.8-0.7c1.3-0.2,2.6,0.1,3.8,0.7c3.6,1.7,6.5,4.5,10.4,5.7c1.8,0.6,3.4,1.9,5.5,3.1c-2.1,0.5-4,0.9-5.8,1.3
		c-3.4,0.9-6.7,1.9-10.1,2.8c-0.7,0.1-1.3,0.2-2,0.3c-0.2,0-0.4,0.1-0.6,0.2c-0.8,1.5-2.2,1.3-3.5,1.5c-3.4,0.6-6.9,1.2-10.3,2
		c-3.1,0.7-6.1,1.9-9.2,2.6s-6.1,1.2-9.2,1.6c-0.9,0-1.7-0.1-2.6-0.5c-5-1.6-9.7-4-14-7c-1-0.7-2.1-1.1-3.1-1.7
		c-0.6-0.4-1.1-0.9-1.7-1.4L115.4,79z"/>
	<path class="st1" d="M112.3,79.4c-3.2,2.8-5.9,5.1-9.2,6.6c-0.6,0.3-1.3,0.7-1.8,1.1c-2.3,1.7-4.5,2.7-7.6,2.3
		c-5.2-0.8-10.4-1.6-15.5-2.7c-2.3-0.5-4.7-0.6-7.1-1.1c-3-0.6-5.9-1.2-8.8-2c-3.8-0.9-7.5-1.9-11.3-2.9c-0.5-0.1-1-0.3-1.6-0.5
		c1.6-1.2,3.2-2.3,4.8-3.5c3-2.2,6-4.4,9-6.7c1.2-1,2.8-1.2,4.2-0.6c3.8,1.2,7.6,2.2,11.5,3.2c2.2,0.5,4.4,0.8,6.6,1
		c2.3,0.3,4.6,0.4,6.9,0.5c2.6,0,5.2,0.4,7.7,1.2c2.8,1.1,5.8,1.6,8.7,2.5C109.9,78.2,111.1,78.8,112.3,79.4z M90.9,84.7l-0.1,0.4
		l0.9,0.4l0.2-0.6L90.9,84.7z"/>
	<path class="st1" d="M130.6,61c3-5.3,6.5-10.3,10.6-14.8c4,0.5,8.3,1,12.5,1.4c4.7,0.5,9.3,1,14,1.4c2.5,0.2,5.1,0.5,7.6,0.7
		c1,0.1,2-0.1,3-0.1c1.5,0,3.1,0.2,5.1,0.3c-1.1,1.2-2.3,2.2-3.6,3.2c-2.4,1.6-3.7,4.1-5.6,6.1c-1.7,1.8-3.5,3.5-5.4,5.1
		c-0.6,0.4-1.3,0.6-1.9,0.5c-1.1,0.1-2.2,0-3.3-0.4c-3-1.2-6.1-0.5-9.2-0.6c-0.5,0-1,0-1.4-0.1c-4.6-1.2-9.3-0.8-14-1.5
		c-1-0.1-1.9-0.2-2.9-0.3C134.4,61.7,132.6,61.4,130.6,61z"/>
	<path d="M90.9,84.7l1,0.2l-0.2,0.6l-0.9-0.4L90.9,84.7z"/>
</g>
</svg>
