<?xml version="1.0" encoding="utf-8"?>
<!-- Generator: Adobe Illustrator 19.2.1, SVG Export Plug-In . SVG Version: 6.00 Build 0)  -->
<svg version="1.1" id="Ebene_1" xmlns="http://www.w3.org/2000/svg" xmlns:xlink="http://www.w3.org/1999/xlink" x="0px" y="0px"
	 viewBox="0 0 236 181.5" style="enable-background:new 0 0 236 181.5;" xml:space="preserve">
<style type="text/css">
	.st0{opacity:0.45;enable-background:new    ;}
	.st1{fill:#1D1D1B;}
	.st2{fill:#FFFFFF;}
</style>
<path class="st0" d="M167.9,62.4l-0.4,4.7l-0.1,26l1.3,34.2l-3,0.8l-64-0.5c0,0-37.2,0-37.2-0.7c-0.1-0.7-0.3-38.3-0.3-38.6
	S63.5,63,63.5,63l27.7,1.2l37.3-0.7L167.9,62.4z"/>
<path class="st1" d="M174.3,100.4c0.5,0,0.9,0.1,1.1,0c0.5,0,1-0.2,1.4-0.2c2.2-0.1,4.5,0.5,6.7-0.1c0.2,0,0.3,0,0.5,0.1
	c1.1,0.4,2.3,0.3,3.4,0.3c0.6,0,1,0,1.6,0.2c2.8,0.7,5.5,0.9,8.3,0.5c1.3-0.2,2.7-0.2,3.9,0.2c1.1,0.4,2.3,0.4,3.4,0.3
	c1-0.1,1.8-0.2,2.8-0.3c0.5,0,0.9,0,1.3,0c1.1,0,2.3,0.1,3.4,0c0.9-0.1,1.7-0.4,2.6-0.5c2.4-0.2,4.8-0.4,7.1-0.5
	c0.2,0,0.4,0.2,0.9,0.5c-0.7,0.2-1,0.3-1.4,0.3c-1.1,0-2.3,0-3.4,0c-1.5,0.1-3,0-4.6,0.5c-1.7,0.6-3.4,0.8-5,0.3
	c-1.9,0.3-3.7,0.7-5.5,0.4c-2.5-0.5-5-0.8-7.4,0.2c-0.1,0-0.2,0.1-0.3,0.1c-1.6-0.1-3.2-0.2-4.9-0.4c-0.9-0.1-1.7-0.2-2.6,0
	c-0.7,0.2-1.4,0-2.1-0.1c-0.9-0.2-1.7-0.3-2.6-0.2c-1.2,0.2-2.4,0.1-3.5-0.2c-0.4-0.1-0.9-0.2-1.2-0.2c-1,0.1-2.2,0.4-3.2,0.6
	c-0.5,0.1-0.9,0.2-1.2,1C174.2,104.7,174.3,99.9,174.3,100.4"/>
<path class="st1" d="M63.4,100.3c-0.4,0-0.8,0.1-1.2,0c-0.4,0-1-0.2-1.4-0.2c-2.2-0.1-4.4,0.5-6.6-0.1c-0.2,0-0.4,0-0.4,0.1
	c-1.1,0.4-2.2,0.3-3.3,0.3c-0.5,0-1.1,0-1.6,0.2c-2.7,0.8-5.4,1-8.2,0.5c-1.3-0.2-2.6-0.2-3.9,0.2c-1.1,0.4-2.2,0.4-3.3,0.3
	c-0.9-0.1-1.8-0.2-2.7-0.3c-0.4,0-0.9,0-1.3,0c-1.1,0-2.2,0.1-3.3,0c-0.8-0.1-1.7-0.4-2.5-0.5c-2.3-0.2-4.7-0.4-7-0.5
	c-0.2,0-0.4,0.2-0.8,0.5c0.7,0.2,1.1,0.3,1.3,0.3c1.1,0,2.2,0,3.3,0c1.5,0.1,3.1,0,4.5,0.5c1.7,0.7,3.3,0.9,4.9,0.3
	c1.9,0.3,3.7,0.8,5.5,0.4c2.4-0.5,4.9-0.9,7.3,0.2c0.1,0,0.2,0.1,0.4,0.1c1.6-0.1,3.2-0.2,4.8-0.4c0.8-0.1,1.7-0.2,2.5,0
	c0.6,0.2,1.3,0,2.1-0.1c0.8-0.2,1.7-0.3,2.5-0.2c1.2,0.2,2.3,0.1,3.5-0.2c0.4-0.1,0.8-0.2,1.3-0.2c1.1,0.1,2.2,0.4,3.1,0.7
	c0.4,0.1,0.8,0.2,1.2,1.1C63.6,105,63.4,99.7,63.4,100.3"/>
<g>
	<path class="st2" d="M167.9,62.4l0.3-3.3l-1.1-14.7l-1.4-11.6l-26.1-1.9l-44.9-0.2l-22.9,1.1l-6.7,1.6l-2.4,0.1l2.2,15.8L64.2,62
		c0,0,17.5,2.8,18.2,2.5s40.6-1.4,40.6-1.4l19.8-0.6l18.7-0.8L167.9,62.4z"/>
	<g id="doc00073520160814150808-52.psd_Bild">
		<title>SK_Website-Animation_Einzelbilder</title>
		<path class="st2" d="M192.4,62c0.9-0.3,1.2-0.8,0.7-1.5c-0.2-0.1-0.4-0.2-0.7-0.1C191.4,60.8,192,61.4,192.4,62L192.4,62z"/>
		<path d="M60.3,127.4c-5.2-0.6-10.5-0.6-15.6,0c-1.8,0.2-3.4,0.5-5.2,0.6c-1.5-0.1-2.6-1.3-2.6-2.9c0-0.2,0.1-0.5,0.1-0.8
			c1.5-4.7,1.3-9.5,1-14.3c-0.2-3.1-0.2-6.2-0.4-9.3c-0.4-6.3-1-12.5-1.3-18.7c-0.2-3.1,0-6.2,0-9.2L32,71.7c0.2-0.5,0.6-1,0.9-1.3
			c2-0.3,3.6-1.7,5.7-1.7c2-0.1,3.9-0.7,5.5-1.7c3.9-2.2,8.1-3.7,12.5-4.5c1.7-0.4,3.3-1.1,5-1.7c0.9-0.2,1.4-1,1.2-1.9
			c0-0.1,0-0.1,0-0.2c-0.1-0.4-0.1-0.9,0.1-1.3c2-4.7,0.9-9.5,0.6-14.3c-0.2-3-0.3-5.9-1.8-8.7c-0.4-0.4-0.4-1.1,0.1-1.5
			c0.2-0.2,0.4-0.3,0.7-0.3c1-0.1,1.3,0.5,1.4,1.4c0.6,6.2,1.3,12.5,1.9,18.6c0.2,3,0,5.9,0,9.1c2.1,0.2,4.4,0.4,6.6,0.6
			c8.7,0.8,17.4,1.1,26.1,0.9c5-0.2,10,0.1,15-0.1c7.6-0.3,15.3-0.9,22.9-1.3c0.4,0,0.9,0,1.3,0c7.2,0.6,14.2-0.6,21.3-1l8.5-0.4
			c-1.9-8.7-1.3-17.5-2.1-26.6c-1.2-0.2-2.6-0.5-4-0.6c-6.7-0.5-13.4-1.1-20.2-1.4c-6.3-0.3-12.7-0.1-18.9-0.1
			c-6.7,0.1-13.5,0.2-20.2,0.4c-7.2,0.2-14.2,0.2-21.3,0.2c-3.3,0.1-6.6,0.3-10,0.4c-1-0.1-1.9,0.3-2.4,1.2
			c-1.2,1.9-2.1,1.7-3.1-0.5c-0.1-0.2-0.2-0.4-0.3-0.7c1.5-2,3.5-2.2,5.8-2c1.9,0,3.6-0.2,5.5-0.4c0.4-0.1,0.9-0.1,1.3-0.1
			c3.5,0.7,7,0.1,10.5,0.1c2.3,0,4.5,0.4,6.8,0.4c2.8,0,5.4-0.2,8.1-0.3c6.7-0.2,13.5-0.4,20.2-0.6c8-0.1,16-0.5,24,0.3
			c6.2,0.6,12.3,0.9,18.4,1.3c1.9,0.1,2.1,0.3,1.7,2.2c-0.1,0.3-0.2,0.7-0.2,1c0.3,4.3,0.8,8.5,1.1,12.8c0,0.6,0,1.1,0,1.5
			c-0.4,3.5,0,7,1.4,10.3c-0.6,2.2,1.4,2.9,2.5,3.3c4.8,1.9,9.7,3.5,14.7,4.9c1.9,0.5,3.9,0.1,5.8,0.8c0.2,0,0.3,0,0.6,0
			c2.6-0.2,2.4-0.2,2.3,2.2c-0.2,3.5-0.4,7-0.4,10.6c0,6.2,0.2,12.3,0.3,18.5c0.2,8,0.3,16.2,0.6,24.2c0,2.8,0,5.6,0,8.1
			c-1.4,1.1-3.3,1.6-5.1,1.3c-3.3-0.6-6.6-1.2-9.9-1.9c-2.8-0.6-5.6-1.3-8.6-1.6c0.6,0.6,1.2,1,1.9,1.4c4.2,2.7,8.4,5.3,12.5,7.9
			c2.5,1.6,5.1,3.2,7.6,4.8c1,0.7,1.3,1.9,1,3c-0.4,1-1.1,2-1.8,3c-2.9-1-5.7-1.8-8.6-2.5c-1.9-0.3-3.9,0.1-5.8,0.1l0.3,1.7
			c-1.1,0.2-2.2,0.3-3.3,0.4c-13.3-0.4-26.7-0.8-40.1-1.6c-3.9-0.3-7.8-1-11.8-1.2c-6.9-0.4-13.9-0.2-20.8,0.3
			c-3.5,0.2-7-0.3-10.6-0.3c-5.5,0-11.1,0.3-16.6,0.2c-6.3-0.1-12.5-0.3-18.7-0.7c-4.8-0.3-9.7-0.6-14.4,0.1c-1.4,0.1-2.8,0-4.2-0.4
			c-1.4-0.3-1.9-2.5-0.6-3.6c1.3-1.1,2.4-3,4.7-3.2c1-0.1,2-1.1,2.9-1.7c4.5-3.2,9-6.2,13.5-9.3C59.8,127.8,60,127.6,60.3,127.4z
			 M157.3,120.6c-1-0.2-2-0.5-3.1-0.6c-1.5-0.2-2-0.8-1.7-2.3c0.2-0.7,0.3-1.3,0.3-2.1c0.2-5.8,0.4-11.8,0.6-17.6
			c0.2-7.2,0.4-14.2,0.6-21.4c0-2.9-1.8-4.2-4.5-3.9c-3.1,0.3-6.2,0.6-9.2,0.8c-2.2,0.1-4.4-0.1-6.6-0.1c-5.1,0.2-10.1,0.6-15.3,0.9
			c-3.2,0.2-6.3,0.3-9.5,0.5c-4.6,0.3-9.2,0.6-13.9,1c-2.6,0.2-5.2,0.6-7.8,0.9c-2.6,0.3-5.2,0.5-8,0.8c-0.1-2.1-1.7-2.8-3.1-3.7
			c-1.2-0.8-2.3-1.7-3.4-2.6l0.3-0.5l4.1,2.1l4.2,2.2c1.7,0.1,3.2,0.1,4.8,0c3.9-0.6,7.8-1,11.8-1.1c5-0.2,10-0.9,15-1.2
			c6.5-0.4,13-0.7,19.5-0.9c4.4-0.2,8.8-0.3,13.1-0.4c2-0.1,3.9-0.4,5.7-0.7c0.2,0,0.4-0.1,0.7-0.2l0.6-1.9c1.5-0.9,2.6-1.5,3.9-2.1
			c1.4-0.6,3-1.1,4.4-1.7c0.2,0,0.3-0.1,0.4-0.2c0.3-0.4,0.7-0.9,1.2-1.6c-3.6,0.2-6.7,0.4-9.9,0.5c-4,0.2-8,1-12.1,0.3
			c-1.3-0.1-2.6-0.1-4,0c-2.8,0.2-5.4,0.4-8.1,0.6c-3.7,0.2-7.5,0.3-11.3,0.3c-5.4,0.2-10.9,0.2-16.3,0.4c-4.8,0.1-9.7,0.2-14.5,0.1
			c-4.5,0-8.9-0.5-13.4-0.8l-3.3-0.2c1.7,1.4,2.8,2.3,3.9,3.3s2.4,1.9,3.2,3.3c-0.2,0.1-0.3,0.2-0.6,0.3c-2.3-1.9-4.5-3.8-6.9-5.9
			c-1.5,1.6-2.4-1-4.2-0.8c0,1,0,2,0,2.9c-0.2,3.6-0.8,7.4-0.6,11c0.3,7.7,1,15.4,1.3,23.1c0.2,4.7,0.2,9.5,0.2,14.2
			c0,3.1,0,6.1,0,9c1.8,0.7,2.8-0.4,3.7-1.2c1.9-1.5,3.6-3.3,5.6-4.8c1.3-1,2.2-2.5,2.4-4.2c0.1-1.9,0.1-3.6,0-5.5
			c0-2.1-0.2-4.2,0-6.3c0.1-1.9,0.8-3.8,0.9-5.7C78.6,91,78.6,85,76.5,79c-0.1-0.6-0.1-1.1-0.1-1.7c2.1,0.1,2.1,0.1,2.2,1.8
			c0,0.4,0.1,0.9,0.2,1.3c0.9,5.4,1.1,10.9,0.7,16.3c-0.8,5.2-0.9,10.5-0.3,15.7c0.1,0.6,0.1,1.1,0.1,1.7c3.6,0.5,7.2,1.2,10.7,1.2
			c9,0.5,18.2,0.4,27.1-0.4c2.1-0.3,4.2,0,6.2,0.9c-0.7,0.2-1.3,0.3-2,0.4c-3.9,0.2-7.7,0.5-11.6,0.4c-5.1,0.1-10.2,0-15.3,0
			c-4.2-0.1-8.5-0.5-12.7-0.7c-1.2-0.2-2.5,0.3-3.2,1.4c-1,1.1-2.1,2.1-3.3,2.9c-1.9,1.6-4.2,2.7-5.7,5.2c4,0.1,7.6,0.5,11.2,0.5
			c3.1,0,6.2-0.2,9.2-0.1c3.3,0,6.5,0.4,9.8,0.5c7.8,0.3,15.6,0.5,23.4,1c8.8,0.5,17.6,0.6,26.4,0.6c4.7-0.1,9.5-0.4,14.2-0.6
			c0.3-0.1,0.7-0.2,1-0.4c-1.7-1.1-3.1-2-4.5-2.9C158.8,123.4,157.7,122.1,157.3,120.6l5.1,3.2c1.3,0.9,2.6,1.8,4,2.6
			c0.4,0.2,1,0.4,1.4,0.7c0-1.7,0-3.1,0-4.4c-0.1-3.3-0.4-6.5-0.3-9.7c0-4.1-0.9-8.3-0.1-12.3c0-0.2,0-0.3,0-0.6
			c-0.6-3.9-0.8-7.7-0.4-11.6c0.2-2.4,0.2-4.8,0-7.3c-0.4-4.2-0.4-8.3,0-12.4c0-1.4-0.1-2.9-0.3-4.3c-0.8,0.3-1.4,0.8-2,1.3
			c-0.4,0.7-0.7,1.3-0.9,2.1l-1-1.3l-3.1,2.7c-0.7,0.7-1.3,1.3-2.1,2c-1.9,1.3-2.6,4.2-1.1,5.9c0.7,0.8,0.9,1.9,0.8,2.9
			c0,5,0,9.8,0,14.8c0,2.2-0.2,4.3-0.2,6.5h-0.3L156,84.8c-0.3,0.3-0.6,0.9-0.4,1.3c-0.4,8.1-0.8,16.3-1.3,24.4
			c-0.2,1.9,0.1,3.6,0.7,5.4c0.4,0.7,0.9,1.3,1.4,1.9c1.8-1.5-0.6-3.3,0.8-4.8l2,4.3L157.3,120.6z M191.2,145.6l0.2-0.7
			c-2.6-1.8-5.2-3.6-7.8-5.2c-3.5-2.2-7-4.4-10.6-6.6c-0.8-0.4-1.5-0.9-2.3-1.2c-0.9-0.2-1.7-0.7-2.3-1.2c-1.2-1.6-2.9-1.6-4.5-1.5
			c-4.7,0.3-9.5,0.8-14.2,0.8c-9.1-0.1-18.3-0.5-27.4-0.8c-4.3-0.1-8.6-0.3-12.9-0.6c-2.9-0.1-5.8-0.5-8.7-0.4
			c-3.2,0.1-6.4,0.2-9.7-0.1c-4.7-0.4-9.5-0.1-14.2,0c-0.9,0-1.8,0.1-2.6,0.1c-2.9,0-5.8-0.2-8.7-0.3c-0.2,0-0.3,0.1-0.4,0.2
			c-2.6,1.7-5.5,3.1-8,5.1c-4.3,3.3-8.9,6-13.4,9c-0.6,0.5-1.1,1.1-1.5,1.6c1.8,0.1,3.2,0.5,4.5,0.5c4.8,0.2,9.7,0.2,14.4,0.2
			c5.7,0.2,11.4,0.3,17.2,0.4c7.7,0.1,15.4,0.1,23.2,0.2c10.8,0.1,21.6,0.2,32.5,0.3c7.9,0.1,15.8,0.5,23.7,0.4
			C168.7,145.8,180,145.6,191.2,145.6L191.2,145.6z M193.5,70.5c-0.2-0.1-0.4-0.1-0.7-0.2c-6.1-1.7-12-3.3-18-4.9
			c-1.3-0.3-2.8-0.6-4.2-0.8c-1.8-0.2-2.4,0.4-2.3,2.2c0,1,0.3,2.1,0.3,3.1c0.1,2.9,0.2,5.7,0.1,8.7c0,4.1-0.3,8-0.3,12.1
			c0,2.2,0.2,4.4,0.2,6.6c0,2.3,0,4.7,0.1,7c0,1.4,0.1,2.8,0.2,4.2c0.1,1.4,0.2,3,0.3,4.4c0.2,4.5,0.3,9.1,0.6,13.4
			c0.2,0.2,0.4,0.3,0.8,0.4c4.2,1.1,8.5,2.4,12.7,3.5c2.8,0.8,5.5,1.2,8.4,1c2.2-0.3,2.4-0.5,2.5-2.6c0.2-4.1,0.6-8.3,0.4-12.3
			c-0.1-7-0.7-14.2-1-21.3c-0.1-3.1-0.1-6.2-0.1-9.3C193.5,80.7,193.5,75.7,193.5,70.5L193.5,70.5z M63.6,124.9
			c0.1-1.7,0.2-2.9,0.2-4.1c0-4.3,0-8.6-0.1-12.9c-0.3-7.9-0.7-15.8-1.1-23.7c-0.2-4.2-0.7-8.4,0.1-12.7c0.2-2.3,0.2-4.5,0-6.8
			c-0.1-0.6-0.3-1.1-0.7-1.7c-0.8,0.1-1.7,0.2-2.4,0.4c-3.6,0.8-7.3,1.9-10.8,3.3c-2.9,1.3-5.5,3-8.7,3.7c-1.3,0.2-2.3,1.4-2.2,2.7
			c0,1.4,0,2.9-0.1,4.2c-0.7,5.5,0,11,0.8,16.5c0.2,1.9,0.4,3.6,0.6,5.5c0.2,4.7-0.1,9.5,0.9,14.2c0.1,1.3,0.1,2.6,0,4
			c0,2.6,0.1,5.2,0.1,7.6L63.6,124.9z M142.2,147.3l0.1,0.3l15.2,0.1v-0.3L142.2,147.3z M154.8,69.3c2.4,0,2.8-0.1,3.3-2.3
			L154.8,69.3z M174.8,147.7L174.8,147.7l2.5,0.2v-0.4L174.8,147.7z"/>
		<path d="M192.4,62c-0.4-0.6-0.9-1.2,0-1.7c0.2-0.1,0.4,0,0.7,0.1C193.5,61.2,193.2,61.7,192.4,62z"/>
		<path class="st2" d="M191.2,145.6c-11.2,0.1-22.4,0.2-33.7,0.2c-7.9-0.1-15.8-0.4-23.7-0.4c-10.8-0.1-21.6-0.2-32.5-0.3
			c-7.7-0.1-15.4-0.1-23.2-0.2c-5.7-0.1-11.4-0.2-17.2-0.4c-4.8,0-9.7-0.2-14.4-0.2c-1.3,0-2.8-0.2-4.5-0.5c0.4-0.5,1-1.1,1.5-1.6
			c4.5-3,9.1-5.8,13.4-9c2.5-2,5.4-3.4,8-5.1c0.1-0.1,0.3-0.2,0.4-0.2c2.9,0.1,5.8,0.2,8.7,0.3c0.9,0,1.8-0.1,2.6-0.1
			c4.7-0.1,9.5-0.4,14.2,0c3.3,0.2,6.5,0.2,9.7,0.1c2.9-0.1,5.7,0.3,8.7,0.4c4.3,0.1,8.6,0.4,12.9,0.6c9.1,0.3,18.3,0.7,27.4,0.8
			c4.7,0,9.5-0.5,14.2-0.8c1.7-0.1,3.3-0.1,4.5,1.5c0.7,0.6,1.4,1,2.3,1.2c0.8,0.4,1.5,0.8,2.3,1.2c3.5,2.2,7,4.4,10.6,6.6
			c2.6,1.7,5.3,3.5,7.8,5.2L191.2,145.6z"/>
		<path class="st2" d="M193.5,70.5c0,5.2,0,10.2,0,15.3c0,3.1,0,6.2,0.1,9.3c0.3,7.1,0.8,14.2,1,21.3c0.1,4.1-0.2,8.3-0.4,12.3
			c-0.1,2.1-0.3,2.3-2.5,2.6c-2.9,0.2-5.6-0.1-8.4-1c-4.3-1.1-8.5-2.3-12.7-3.5c-0.2-0.1-0.6-0.3-0.8-0.4c-0.2-4.3-0.3-8.9-0.6-13.4
			c-0.1-1.5-0.2-3-0.3-4.4s-0.1-2.8-0.2-4.2c0-2.3,0-4.7-0.1-7c0-2.2-0.2-4.4-0.2-6.6c0-4.1,0.3-8,0.3-12.1c0-2.9,0-5.7-0.1-8.7
			c0-1-0.3-2.1-0.3-3.1c-0.1-1.8,0.6-2.4,2.3-2.2c1.4,0.1,2.8,0.4,4.2,0.8c6.1,1.6,12,3.3,18,4.9C193.2,70.4,193.4,70.4,193.5,70.5z
			"/>
		<path class="st2" d="M63.6,124.9L40,125.3c0-2.4-0.1-5.1-0.1-7.6c0.1-1.3,0.1-2.6,0-4c-1-4.7-0.7-9.5-0.9-14.2
			c-0.1-1.9-0.3-3.6-0.6-5.5c-0.7-5.5-1.3-11-0.8-16.5c0.1-1.4,0.1-2.9,0.1-4.2c-0.1-1.3,0.9-2.5,2.2-2.7c3.2-0.6,5.8-2.4,8.7-3.7
			c3.5-1.3,7.2-2.5,10.8-3.3c0.9-0.2,1.7-0.3,2.5-0.4c0.3,0.4,0.7,1,0.8,1.7c0.2,2.3,0.2,4.5,0,6.8c-0.8,4.3-0.3,8.4-0.1,12.7
			c0.3,7.9,0.8,15.8,1.1,23.7c0.1,4.3,0.1,8.6,0.1,12.9C63.9,122.1,63.7,123.3,63.6,124.9z"/>
		<path class="st2" d="M142.2,147.3l15.3,0.1v0.3l-15.2-0.1L142.2,147.3z"/>
		<path class="st2" d="M174.8,147.7l2.5-0.2v0.4L174.8,147.7L174.8,147.7L174.8,147.7z"/>
		<path d="M145.4,115.3c1.8-0.3,3.6-0.8,5.5-1.1c0.7-0.1,1.3,0.5,1.3,1.2c0,0.1,0,0.2,0,0.4c-0.1,0.9-0.8,1-1.5,0.9
			c-1.2-0.1-2.3-0.2-3.5-0.4c-0.6,0-1.1-0.2-1.7-0.3L145.4,115.3z"/>
		<path d="M136.7,116.5c-2.2,1-3.9,0.1-5.6-0.1C132.7,115.3,134.1,115.3,136.7,116.5z"/>
	</g>
</g>
</svg>
