<?xml version="1.0" encoding="iso-8859-1"?>
<!-- Generator: Adobe Illustrator 19.2.1, SVG Export Plug-In . SVG Version: 6.00 Build 0)  -->
<svg version="1.1" id="Scan_x5F_A4-150dpi_x5F_SW_x5F_0002-6_xA0_Bild_1_"
	 xmlns="http://www.w3.org/2000/svg" xmlns:xlink="http://www.w3.org/1999/xlink" x="0px" y="0px" viewBox="0 0 236.013 181.502"
	 style="enable-background:new 0 0 236.013 181.502;" xml:space="preserve">
<g>
	<path d="M167.971,127.039c2.06,2.15,4.08,4.341,6.194,6.437c1.766,1.751,3.607,3.433,5.492,5.056
		c0.635,0.547,1.508,0.818,2.406,1.285c1.738,2.899,1.742,4.141-0.129,5.983c-5.594-1.619-11.388-1.499-17.171-1.491
		c-3.671,0.005-7.344,0.102-11.013,0.01c-2.499-0.062-4.992-0.384-7.488-0.582c-1.867-0.148-3.733-0.329-5.603-0.417
		c-8.399-0.395-16.816-0.561-25.194-1.218c-4.814-0.378-9.601-0.881-14.443-0.88c-2.669,0.001-5.333-0.581-8.008-0.691
		c-3.469-0.142-6.95-0.173-10.42-0.067c-2.489,0.076-4.979,0.387-7.451,0.721c-1.848,0.25-3.657,0.928-5.504,1.026
		c-5.331,0.284-10.672,0.379-16.01,0.531c-2.155,0.061-4.213,0.33-6.185,1.386c-1.237,0.662-2.709,0.675-4.21,0.017
		c0.16-0.982,0.291-1.829,0.438-2.674c0.36-2.066,1.387-2.48,3.139-1.26c0.288,0.2,0.539,0.453,0.962,0.813
		c0.552-0.651,1.027-1.274,1.566-1.834c0.863-0.897,1.669-1.897,2.675-2.601c2.915-2.039,5.898-3.984,8.893-5.906
		c2.028-1.302,4.125-2.498,6.181-3.757c0.366-0.224,0.682-0.529,0.976-1.024c-7.932-0.025-17.881-5.244-25.608-5.332
		c-1.006,0.81-1.801,1.668-2.783,2.136c-0.4,0.191-1.203-0.463-1.631-0.649c-0.144-0.484-0.278-0.68-0.233-0.819
		c1.245-3.871-0.882-7.559-0.63-11.345c0.299-4.488-0.388-1.912-1.365-6.259c-0.745-3.316-1.61-6.541-2.62-9.781
		c-1.135-3.64-1.628-7.48-2.397-11.233c-0.089-0.436-0.044-0.944-0.256-1.303c-2.549-4.321-2.216-9.528-4.322-13.984
		c-0.255-0.54-0.289-1.183-0.324-1.337c0.961-1.911,1.721-3.421,2.441-4.852c0.331-0.031,0.546-0.121,0.676-0.052
		c3.314,1.745,6.943,2.186,10.578,2.694c1.488,0.208,2.938,0.763,4.373,1.256c4.132,1.419,8.246,2.893,12.372,4.33
		c0.503,0.175,1.039,0.256,1.741,0.424c0.702-4.255,1.451-8.451,2.056-12.668c0.2-1.39,0.029-2.833,0.029-4.251
		c0-0.332-0.02-0.668,0.017-0.997c0.423-3.713,0.958-7.418,1.234-11.142c0.113-1.528-0.331-3.097-0.561-4.962
		c-0.003,0.002,0.367-0.476,0.689-0.445c2.277,0.216,4.544,0.535,6.814,0.825c0.266,0.034,0.528,0.139,0.791,0.139
		c6.345-0.016,12.581,1.689,18.979,1.099c2.104-0.194,4.266,0.22,6.4,0.383c4.901,0.375,9.795,0.952,14.702,1.115
		c10.823,0.36,21.653,0.529,32.48,0.747c5.377,0.108,10.713-0.403,16.053-1.02c2.744-0.317,5.542-0.144,8.314-0.244
		c3.125-0.113,6.247-0.295,9.371-0.424c0.964-0.04,1.93-0.006,3.25-0.006c-0.13,0.81-0.07,1.537-0.364,2.069
		c-0.993,1.799-1.265,3.69-1.145,5.704c0.17,2.844,0.271,5.692,0.391,8.538c0.026,0.626,0.142,1.289-0.015,1.873
		c-0.716,2.671-0.392,5.309,0.006,7.979c0.354,2.376,0.522,4.78,0.793,7.371c1.584-0.727,3.094-1.454,4.632-2.115
		c1.295-0.556,2.628-1.025,3.937-1.55c0.663-0.266,1.384-0.467,1.952-0.874c3.243-2.325,6.964-3.443,10.754-4.428
		c0.675-0.175,1.307-0.58,1.908-0.96c1.412-0.896,2.966-0.539,4.431-0.421c1.205,0.097,1.722,1.433,0.921,2.485
		c-1.726,2.265-1.857,4.957-2.387,7.56c-0.248,1.221-0.53,2.44-0.885,3.634c-1.039,3.496-2.023,7.013-3.218,10.455
		c-1.111,3.201-2.41,6.341-3.734,9.463c-0.836,1.971-1.632,3.899-2.07,6.042c-0.532,2.6-1.74,5.053-2.488,7.618
		c-1.296,4.446-1.231,1.381-1.914,5.961c-0.355,2.381-0.084,3.059,1.319,6.019c-0.221,0.36-0.495,0.798-0.76,1.241
		c-0.273,0.456-0.538,0.916-0.922,1.572c-0.561-0.134-1.207-0.134-1.666-0.426c-2.144-1.363-4.34-1.729-6.866-1.133
		c-2.673,0.63-5.418,1.17-8.153-0.047c-0.765-0.34-8.273,2.75-9.12,2.547C163.936,124.247,168.065,126.913,167.971,127.039z
		 M73.835,72.324c-1.639-0.552-3.255-1.277-5.048-0.673c1.63,0.746,3.362,0.667,5.091,0.619c1.889,0.445,3.845,0.708,5.65,1.379
		c2.242,0.834,4.555,0.553,6.795,0.639c4.003,0.153,8.025-0.297,12.042-0.393c9.478-0.227,18.958-0.393,28.438-0.585
		c2.146-0.044,4.297-0.014,6.436-0.159c3.211-0.217,6.41-0.641,9.623-0.816c1.947-0.107,3.912-0.159,5.815,0.676
		c0.74,0.324,1.748,0.162,2.608,0.041c0.595-0.084,1.132-0.521,1.723-0.718c0.47-0.157,0.981-0.191,1.473-0.28
		c-0.706-0.509-1.389-0.709-2.082-0.753c-3.025-0.193-6.052-0.408-9.081-0.492c-6.08-0.168-12.162-0.247-18.243-0.379
		c-4.274-0.093-8.548-0.238-12.823-0.308c-1.506-0.025-3.019,0.051-4.521,0.176c-1.511,0.126-3.007,0.427-4.517,0.553
		c-4.525,0.375-9.129-0.014-13.543,1.436c-0.328,0.108-0.71,0.066-1.067,0.065C83.681,72.345,78.758,72.334,73.835,72.324z
		 M158.764,75.022c-1.557-1.08-2.792-0.396-3.931,0.813c1.323-0.287,2.646-0.574,3.969-0.861c-0.511,0.334-0.981,0.835-1.541,0.975
		c-3.036,0.764-3.519,3.14-3.876,5.727c-0.619,4.484-1.135,9.001-2.116,13.41c-0.626,2.811-0.729,5.627-1.134,8.422
		c-0.41,2.829,0.798,4.804,2.134,6.898c0.285,0.447,0.702,0.807,1.041,1.222c1.861,2.281,3.717,4.567,5.573,6.852
		c0.365,0.45,0.723,0.905,1.409,1.766c0.451-2.009,1.115-3.563,1.075-5.1c-0.073-2.773,0.667-5.286,1.61-7.808
		c1.094-2.925,2.428-5.803,3.117-8.825c0.751-3.294,1.992-6.257,3.844-9.035c0.484-0.726,0.874-1.574,1.072-2.421
		c0.871-3.732,1.664-7.483,2.467-11.232c0.142-0.662,0.195-1.343,0.341-2.381c-2.933,0.182-5.57,0.263-8.188,0.534
		C163.329,74.217,161.051,74.667,158.764,75.022z M60.428,68.881c3.071,0.245,5.813,0.45,8.552,0.688
		c1.148,0.1,2.293,0.255,3.435,0.412c1.669,0.23,3.33,0.639,5.003,0.693c2.68,0.086,5.373,0.043,8.049-0.125
		c4.715-0.295,9.422-0.724,14.132-1.103c0.266-0.021,0.526-0.127,0.792-0.142c4.274-0.239,8.547-0.547,12.824-0.667
		c1.953-0.055,3.915,0.368,5.875,0.39c5.19,0.057,10.387-0.131,15.571,0.05c5.443,0.19,10.908-0.415,16.334,0.516
		c2.017,0.346,4.078,0.453,6.123,0.621c3.643,0.3,7.298,0.482,10.932,0.868c2.888,0.307,5.598-0.239,8.649-0.998
		c-0.305-2.884-0.268-5.615-0.951-8.151c-0.738-2.742,0.583-5.319,0.141-7.676c-0.642-0.603-1.087-1.022-1.327-1.248
		c1.066-4.538,0.788-8.725,0.859-12.913c-0.578-0.172-0.915-0.365-1.247-0.356c-5.535,0.153-11.072,0.257-16.602,0.529
		c-4.01,0.197-8.012,0.92-12.012,0.882c-8.124-0.076-16.252,0.316-24.377-0.435c-4.798-0.443-9.645-0.429-14.471-0.458
		c-4.665-0.028-9.251-0.756-13.874-1.168c-5.331-0.475-10.71-0.53-16.068-0.529c-3.298,0.001-6.513-0.665-9.79-0.816
		c-1.312-0.06-2.403-0.113-3.538,0.725c-1.002,9.277-2.013,18.587-3.004,27.899C60.363,67.064,60.428,67.774,60.428,68.881z
		 M147.986,106.048c0.226-1.636,0.426-3.125,0.639-4.613c0.705-4.931,1.413-9.861,2.131-14.79c0.038-0.26,0.206-0.498,0.266-0.758
		c0.862-3.699,1.211-7.429,0.827-11.367c-2.489-0.176-4.794-0.502-7.096-0.473c-8.581,0.109-17.161,0.339-25.742,0.512
		c-2.326,0.047-4.654-0.001-6.978,0.087c-7.313,0.276-14.625,0.587-21.936,0.904c-2.136,0.092-4.229,0.369-5.989,2.006
		c0.227,4.061,0.349,8.143,1.396,12.16c1.168,4.479,2.814,8.861,2.919,13.581c0.017,0.747,0.443,1.484,0.733,2.39
		c3.168,0,6.202-0.055,9.233,0.01c8.754,0.189,17.506,0.437,26.259,0.642c4.824,0.113,9.648,0.213,14.473,0.263
		C141.964,106.631,144.838,107.033,147.986,106.048z M50.243,141.043c4.075,0,8.069-0.037,12.062,0.012
		c2.957,0.036,5.904,0.084,8.781-0.755c5.919-1.724,12.008-1.596,18.071-1.557c5.606,0.036,11.129,1.165,16.807,0.903
		c4.772-0.22,9.596,0.782,14.403,1.155c4.193,0.325,8.393,0.692,12.593,0.745c5.458,0.069,10.909,0.029,16.343,0.693
		c5.614,0.686,11.23,0.521,16.865,0.079c2.467-0.194,4.982,0.176,7.473,0.337c2.126,0.137,4.263,0.482,6.371-0.625
		c-1.241-2.081-2.63-3.86-4.457-5.382c-2.115-1.762-4.04-3.764-5.956-5.749c-1.98-2.051-3.794-4.274-6.406-5.395
		c-0.894,0.209-1.645,0.384-2.475,0.578c-0.249-0.693-0.447-1.247-0.57-1.589c-0.966-0.059-1.751-0.102-2.536-0.154
		c-2.133-0.143-4.267-0.397-6.4-0.398c-1.413-0.001-2.823,0.498-4.24,0.534c-7.867,0.202-15.738,0.299-23.605,0.497
		c-5.186,0.13-10.367,0.452-15.553,0.525c-2.578,0.036-5.16-0.398-7.743-0.435c-5.013-0.072-10.029-0.013-15.043-0.01
		c-3.575,0.002-7.151,0-10.633,0c-0.738,0.78-1.345,1.421-1.951,2.063c-1.577,0.207-3.035,0.628-4.329,1.344
		c-4.143,2.292-8.379,4.483-11.735,7.925c-0.774,0.793-1.485,1.422-2.61,1.702C52.172,138.482,50.946,139.483,50.243,141.043z
		 M69.156,123.784c-0.278-1.02-0.609-1.861-0.728-2.732c-0.655-4.789-1.78-9.458-3.371-14.021c-0.381-1.092-0.718-2.206-0.967-3.334
		c-2.111-9.578-3.151-19.319-4.341-29.035c-0.138-1.126-0.465-1.745-1.544-2.456c-2.514-1.656-5.317-1.967-8.096-2.535
		c-1.85-0.378-3.702-0.742-5.828-1.166c0.605-0.449,0.862-0.64,1.108-0.822c-3.912-2.815-8.568-2.642-12.441-3.358
		c-1.859,1.04-3.214,1.799-4.734,2.649c0.108,0.71,0.182,1.397,0.322,2.071c0.397,1.913,0.794,3.827,1.247,5.727
		c0.206,0.861,0.555,1.687,0.821,2.535c0.613,1.952,1.388,3.873,1.781,5.869c0.601,3.056,0.985,6.132,2.039,9.109
		c1.067,3.013,1.789,6.151,2.604,9.25c0.52,1.98,1.009,3.974,1.376,5.986c0.431,2.362,0.358-1.955,0.287,0.441
		c-0.102,3.43,0.6,6.701,1.387,10.129C49.173,118.822,60.023,124.048,69.156,123.784z M175.495,74.389
		c-0.483,1.575-1.07,3.176-1.456,4.824c-0.652,2.781-1.238,5.581-1.732,8.393c-0.334,1.902-1.143,3.466-2.292,5.024
		c-0.968,1.312-1.454,3.003-2.036,4.569c-0.429,1.157-0.589,2.412-1.008,3.574c-1.06,2.939-2.273,5.824-3.268,8.783
		c-0.419,1.245-0.474,2.62-0.641,3.942c-0.267,2.117-0.488,4.24-0.733,6.36c-0.088,0.764-0.187,1.527-0.28,2.283
		c3.908,1.46,9.71-2.747,13.501-1.801c0.756,0.188,1.597,0.114,2.391,0.055c2.911-0.219,5.819-0.483,9.128-0.764
		c0.645-2.781,1.386-5.782,2.025-8.803c0.351-1.66-0.606,4.041-0.101,2.421c1.087-3.49,2.27-6.951,3.382-10.433
		c0.786-2.46,1.38-4.991,2.307-7.394c1.861-4.824,4.172-9.478,5.117-14.631c0.239-1.302,0.778-2.565,1.301-3.794
		c1.485-3.485,2.186-7.165,2.789-10.869c0.109-0.668,0.015-1.37,0.015-2.027c-1.164-0.063-2.321-0.478-3.008-0.081
		c-1.082,0.625-2.172,0.647-3.283,0.905c-1.635,0.379-3.357,0.79-4.772,1.639c-4.462,2.676-9.377,4.326-14.051,6.512
		C177.827,73.525,176.814,73.867,175.495,74.389z M158.835,121.549c-1.412-3.999-4.637-6.581-7.055-9.758
		c-2.238-2.941-5.294-3.801-8.685-3.902c-4.73-0.14-9.465-0.118-14.197-0.188c-9.126-0.135-18.252-0.291-27.379-0.424
		c-2.236-0.033-4.495,0.177-6.703-0.076c-1.644-0.188-3.149-0.05-4.575,0.296c-0.629,1.599-1.192,3.028-1.803,4.582
		c-1.293,0.572-2.666,1.179-4.04,1.787c-1.6,1.318-3.069,2.882-4.434,4.533c-1.357,1.64-2.609,3.366-3.97,5.135
		c6.539-0.076,12.788-0.155,19.038-0.215c1.341-0.013,2.684,0.007,4.023,0.073c2.941,0.144,5.884,0.517,8.819,0.453
		c6.065-0.132,12.124-0.575,18.189-0.727c6.607-0.165,13.22-0.141,19.83-0.211c0.714-0.008,1.43-0.072,2.142-0.144
		c1.665-0.168,3.329-0.352,4.992-0.539C154.953,122.005,156.876,121.777,158.835,121.549z M71.769,124.39
		c1.641-1.728,2.934-2.75,3.782-4.06c1.391-2.146,3.339-3.7,5.095-5.465c1.192-1.198,2.35-2.43,3.544-3.625
		c2.449-2.451,2.93-5.34,2.203-8.647c-0.764-3.479-1.24-7.02-1.958-10.51c-0.951-4.62-1.763-9.286-3.827-13.602
		c-0.222-0.465-0.131-1.08-0.185-1.626c0.148-0.061,0.296-0.122,0.444-0.183c0.474,0.486,0.948,0.971,1.423,1.458
		c0.238-0.25,0.327-0.304,0.356-0.38c0.091-0.239,0.159-0.486,0.295-0.914c-2.455-1.9-5.311-2.474-8.432-2.49
		c0.645,0.547,1.289,1.094,2.06,1.748c-0.476,0.09-0.645,0.161-0.803,0.142c-0.17-0.02-0.384-0.078-0.488-0.198
		c-1.39-1.607-3.121-2.268-5.246-2.112c-0.574,0.042-1.181-0.346-1.771-0.538c-1.993-0.65-3.986-1.301-5.931-1.936
		c-1.242,2.304-1.014,4.505-0.332,6.829c0.443,1.51,0.418,3.162,0.562,4.754c0.112,1.241,0.085,2.499,0.258,3.73
		c0.209,1.482,0.589,2.94,0.852,4.416c0.716,4.029,1.251,8.098,2.158,12.083c0.787,3.46,2.055,6.808,2.974,10.243
		c0.575,2.15,0.827,4.385,1.362,6.548C70.472,121.309,71.054,122.496,71.769,124.39z M156.082,71.717
		c1.597,1.265,3.392,1.415,6.543,0.445C160.564,72.022,158.503,71.882,156.082,71.717z"/>
	<path d="M56.743,53.147c-0.184-0.264-0.368-0.529-0.552-0.793c0.114-0.074,0.227-0.147,0.341-0.221
		c0.17,0.273,0.341,0.547,0.511,0.82C56.943,53.018,56.843,53.082,56.743,53.147z"/>
	<path style="fill:#FFFFFF;" d="M60.428,68.881c0-1.107-0.064-1.817,0.01-2.512c0.991-9.312,2.002-18.621,3.004-27.899
		c1.135-0.837,2.227-0.785,3.538-0.725c3.276,0.151,6.492,0.817,9.79,0.816c5.358-0.001,10.738,0.054,16.068,0.529
		c4.622,0.412,9.209,1.14,13.874,1.168c4.826,0.029,9.674,0.015,14.471,0.458c8.125,0.751,16.254,0.359,24.377,0.435
		c4.001,0.037,8.002-0.686,12.012-0.882c5.529-0.271,11.067-0.376,16.602-0.529c0.331-0.009,0.668,0.184,1.247,0.356
		c-0.071,4.188,0.207,8.375-0.859,12.913c0.24,0.225,0.686,0.644,1.327,1.248c0.441,2.357-0.88,4.933-0.141,7.676
		c0.683,2.537,0.646,5.267,0.951,8.151c-3.051,0.759-5.761,1.305-8.649,0.998c-3.634-0.386-7.289-0.568-10.932-0.868
		c-2.045-0.168-4.106-0.275-6.123-0.621c-5.426-0.931-10.891-0.327-16.334-0.516c-5.185-0.181-10.381,0.008-15.571-0.05
		c-1.96-0.022-3.922-0.445-5.875-0.39c-4.278,0.121-8.55,0.428-12.824,0.667c-0.266,0.015-0.526,0.121-0.792,0.142
		c-4.71,0.379-9.416,0.808-14.132,1.103c-2.676,0.168-5.369,0.211-8.049,0.125c-1.673-0.054-3.334-0.463-5.003-0.693
		c-1.142-0.157-2.287-0.313-3.435-0.412C66.241,69.331,63.499,69.126,60.428,68.881z"/>
	<path style="fill:#FFFFFF;" d="M50.243,141.043c0.703-1.56,1.929-2.56,3.526-2.959c1.125-0.281,1.836-0.909,2.61-1.702
		c3.356-3.442,7.592-5.633,11.735-7.925c1.294-0.716,2.752-1.137,4.329-1.344c0.607-0.641,1.213-1.282,1.951-2.063
		c3.482,0,7.057,0.002,10.633,0c5.015-0.003,10.03-0.062,15.043,0.01c2.583,0.037,5.165,0.471,7.743,0.435
		c5.186-0.073,10.368-0.394,15.553-0.525c7.868-0.198,15.738-0.295,23.605-0.497c1.417-0.036,2.827-0.535,4.24-0.534
		c2.133,0.001,4.267,0.255,6.4,0.398c0.785,0.053,1.57,0.096,2.536,0.154c0.123,0.342,0.321,0.896,0.57,1.589
		c0.83-0.194,1.581-0.369,2.475-0.578c2.612,1.121,4.427,3.345,6.406,5.395c1.917,1.985,3.842,3.987,5.956,5.749
		c1.826,1.522,3.216,3.301,4.457,5.382c-2.108,1.107-4.245,0.762-6.371,0.625c-2.49-0.16-5.006-0.53-7.473-0.337
		c-5.635,0.442-11.251,0.607-16.865-0.079c-5.434-0.664-10.885-0.625-16.343-0.693c-4.201-0.053-8.401-0.419-12.593-0.745
		c-4.807-0.373-9.631-1.375-14.403-1.155c-5.679,0.262-11.201-0.867-16.807-0.903c-6.063-0.039-12.152-0.167-18.071,1.557
		c-2.877,0.838-5.824,0.791-8.781,0.755C58.312,141.006,54.318,141.043,50.243,141.043z M161.48,132.001
		c0.465,0.736,0.703,1.112,1.068,1.691C163.03,132.641,162.999,132.139,161.48,132.001z"/>
	<path style="fill:#FFFFFF;" d="M69.156,123.784c-9.133,0.264-19.983-4.962-29.077-5.692c-0.786-3.427-1.489-6.698-1.387-10.129
		c0.071-2.397,0.144,1.921-0.287-0.441c-0.367-2.012-0.856-4.007-1.376-5.986c-0.815-3.099-1.537-6.237-2.604-9.25
		c-1.054-2.977-1.438-6.053-2.039-9.109c-0.393-1.996-1.168-3.917-1.781-5.869c-0.266-0.848-0.616-1.674-0.821-2.535
		c-0.453-1.9-0.85-3.814-1.247-5.727c-0.14-0.674-0.214-1.361-0.322-2.071c1.52-0.85,2.875-1.609,4.734-2.649
		c3.873,0.717,8.53,0.543,12.441,3.358c-0.246,0.182-0.503,0.373-1.108,0.822c2.125,0.425,3.978,0.789,5.828,1.166
		c2.779,0.568,5.582,0.879,8.096,2.535c1.079,0.711,1.407,1.33,1.544,2.456c1.19,9.716,2.231,19.457,4.341,29.035
		c0.249,1.128,0.586,2.243,0.967,3.334c1.591,4.563,2.715,9.232,3.371,14.021C68.547,121.923,68.878,122.764,69.156,123.784z
		 M57.953,79.281c-0.383,1.196-0.753,2.05-0.142,3.188C58.963,81.551,59.023,80.709,57.953,79.281z"/>
	<path style="fill:#FFFFFF;" d="M175.495,74.389c1.319-0.522,2.332-0.864,3.295-1.314c4.674-2.186,9.59-3.835,14.051-6.512
		c1.415-0.849,3.137-1.26,4.772-1.639c1.112-0.258,2.202-0.279,3.283-0.905c0.687-0.397,1.844,0.018,3.008,0.081
		c0,0.657,0.093,1.359-0.015,2.027c-0.603,3.704-1.304,7.384-2.789,10.869c-0.523,1.229-1.062,2.493-1.301,3.794
		c-0.946,5.153-3.256,9.807-5.117,14.631c-0.927,2.404-1.521,4.934-2.307,7.394c-1.112,3.483-2.295,6.943-3.382,10.433
		c-0.505,1.62,0.452-4.081,0.101-2.421c-0.639,3.022-1.379,6.022-2.025,8.803c-3.309,0.281-6.216,0.545-9.128,0.764
		c-0.794,0.06-1.635,0.134-2.391-0.055c-3.791-0.946-9.593,3.261-13.501,1.801c0.093-0.756,0.192-1.519,0.28-2.283
		c0.244-2.12,0.465-4.243,0.733-6.36c0.167-1.322,0.222-2.697,0.641-3.942c0.995-2.959,2.209-5.844,3.268-8.783
		c0.419-1.161,0.579-2.417,1.008-3.574c0.581-1.567,1.068-3.257,2.036-4.569c1.149-1.558,1.958-3.123,2.292-5.024
		c0.494-2.813,1.08-5.613,1.732-8.393C174.425,77.565,175.012,75.964,175.495,74.389z"/>
	<path d="M161.48,132.001c1.519,0.139,1.549,0.64,1.068,1.691C162.183,133.113,161.945,132.737,161.48,132.001z"/>
	<path d="M57.953,79.281c1.07,1.428,1.01,2.271-0.142,3.188C57.2,81.33,57.57,80.477,57.953,79.281z"/>
</g>
<g style="opacity:0.35;">
	<path d="M147.986,106.048c-3.147,0.986-6.022,0.583-8.865,0.554c-4.825-0.05-9.649-0.151-14.473-0.263
		c-8.753-0.204-17.506-0.452-26.259-0.642c-3.031-0.066-6.065-0.01-9.233-0.01c-0.289-0.906-0.716-1.643-0.733-2.39
		c-0.104-4.72-1.75-9.102-2.919-13.581c-1.048-4.017-1.169-8.098-1.396-12.16c1.761-1.637,3.853-1.913,5.989-2.006
		c7.311-0.316,14.623-0.628,21.936-0.904c2.324-0.088,4.652-0.04,6.978-0.087c8.581-0.173,17.161-0.403,25.742-0.512
		c2.301-0.029,4.607,0.297,7.096,0.473c0.384,3.938,0.035,7.668-0.827,11.367c-0.06,0.259-0.229,0.498-0.266,0.758
		c-0.718,4.929-1.425,9.859-2.131,14.79C148.412,102.922,148.212,104.412,147.986,106.048z"/>
	<path d="M158.835,121.549c-1.959,0.227-3.882,0.455-5.806,0.672c-1.663,0.188-3.327,0.371-4.992,0.539
		c-0.712,0.072-1.427,0.136-2.142,0.144c-6.61,0.07-13.222,0.046-19.83,0.211c-6.065,0.152-12.124,0.595-18.189,0.727
		c-2.935,0.064-5.878-0.309-8.819-0.453c-1.339-0.065-2.683-0.086-4.023-0.073c-6.25,0.06-12.5,0.14-19.038,0.215
		c1.36-1.769,2.613-3.495,3.97-5.135c1.365-1.65,2.833-3.215,4.434-4.533c1.373-0.607,2.747-1.215,4.04-1.787
		c0.611-1.553,1.174-2.983,1.803-4.582c1.426-0.345,2.931-0.484,4.575-0.296c2.208,0.253,4.467,0.043,6.703,0.076
		c9.126,0.133,18.252,0.29,27.379,0.424c4.732,0.07,9.467,0.048,14.197,0.188c3.392,0.1,6.447,0.961,8.685,3.902
		C154.198,114.968,157.423,117.55,158.835,121.549z"/>
	<path d="M71.769,124.39c-0.715-1.894-1.297-3.081-1.607-4.335c-0.534-2.163-0.786-4.398-1.362-6.548
		c-0.919-3.434-2.187-6.782-2.974-10.243c-0.907-3.985-1.442-8.054-2.158-12.083c-0.262-1.476-0.643-2.933-0.852-4.416
		c-0.173-1.231-0.146-2.489-0.258-3.73c-0.144-1.592-0.119-3.244-0.562-4.754c-0.682-2.323-0.91-4.525,0.332-6.829
		c1.944,0.635,3.937,1.286,5.931,1.936c0.591,0.193,1.197,0.581,1.771,0.538c2.126-0.156,3.856,0.505,5.246,2.112
		c0.104,0.12,0.317,0.178,0.488,0.198c0.158,0.019,0.327-0.052,0.803-0.142c-0.771-0.654-1.416-1.201-2.06-1.748
		c3.121,0.017,5.977,0.59,8.432,2.49c-0.135,0.428-0.204,0.675-0.295,0.914c-0.029,0.077-0.118,0.131-0.356,0.38
		c-0.475-0.487-0.949-0.973-1.423-1.458c-0.148,0.061-0.296,0.122-0.444,0.183c0.054,0.545-0.037,1.161,0.185,1.626
		c2.065,4.316,2.877,8.982,3.827,13.602c0.718,3.49,1.194,7.031,1.958,10.51c0.727,3.307,0.246,6.196-2.203,8.647
		c-1.194,1.196-2.352,2.427-3.544,3.625c-1.756,1.765-3.704,3.319-5.095,5.465C74.702,121.64,73.41,122.662,71.769,124.39z"/>
	<path d="M158.764,75.022c2.288-0.356,4.566-0.805,6.866-1.042c2.617-0.27,5.254-0.351,8.188-0.534
		c-0.146,1.038-0.199,1.719-0.341,2.381c-0.803,3.748-1.595,7.499-2.467,11.232c-0.198,0.847-0.588,1.695-1.072,2.421
		c-1.852,2.778-3.093,5.742-3.844,9.035c-0.689,3.022-2.023,5.9-3.117,8.825c-0.943,2.523-1.683,5.035-1.61,7.808
		c0.04,1.536-0.624,3.091-1.075,5.1c-0.687-0.861-1.044-1.317-1.409-1.766c-1.856-2.285-3.712-4.571-5.573-6.852
		c-0.338-0.415-0.756-0.775-1.041-1.222c-1.335-2.095-2.544-4.069-2.134-6.898c0.405-2.795,0.509-5.611,1.134-8.422
		c0.981-4.409,1.497-8.926,2.116-13.41c0.357-2.587,0.84-4.963,3.876-5.727c0.56-0.141,1.029-0.641,1.541-0.975L158.764,75.022z"/>
	<path d="M73.835,72.324c4.923,0.01,9.846,0.021,14.768,0.028c0.357,0,0.739,0.042,1.067-0.065c4.414-1.45,9.018-1.062,13.543-1.436
		c1.511-0.125,3.007-0.427,4.517-0.553c1.502-0.125,3.015-0.2,4.521-0.176c4.275,0.07,8.548,0.215,12.823,0.308
		c6.081,0.132,12.163,0.211,18.243,0.379c3.029,0.084,6.056,0.299,9.081,0.492c0.693,0.044,1.376,0.244,2.082,0.753
		c-0.493,0.089-1.004,0.123-1.473,0.28c-0.59,0.198-1.127,0.634-1.723,0.718c-0.86,0.121-1.868,0.283-2.608-0.041
		c-1.903-0.835-3.867-0.783-5.815-0.676c-3.213,0.176-6.411,0.599-9.623,0.816c-2.139,0.145-4.29,0.116-6.436,0.159
		c-9.479,0.192-18.959,0.358-28.438,0.585c-4.017,0.096-8.039,0.547-12.042,0.393c-2.24-0.086-4.553,0.195-6.795-0.639
		c-1.805-0.671-3.761-0.935-5.65-1.379L73.835,72.324z"/>
	<path d="M156.082,71.717c2.421,0.165,4.482,0.305,6.543,0.445C159.475,73.132,157.68,72.982,156.082,71.717z"/>
	<path d="M73.879,72.27c-1.729,0.048-3.461,0.127-5.091-0.619c1.793-0.604,3.409,0.121,5.048,0.673L73.879,72.27z"/>
	<path d="M158.801,74.974c-1.323,0.287-2.646,0.574-3.969,0.861c1.139-1.209,2.374-1.893,3.931-0.813L158.801,74.974z"/>
</g>
</svg>
