<?xml version="1.0" encoding="utf-8"?>
<!-- Generator: Adobe Illustrator 19.2.1, SVG Export Plug-In . SVG Version: 6.00 Build 0)  -->
<svg version="1.1" id="Ebene_1" xmlns="http://www.w3.org/2000/svg" xmlns:xlink="http://www.w3.org/1999/xlink" x="0px" y="0px"
	 viewBox="0 0 236 181.5" style="enable-background:new 0 0 236 181.5;" xml:space="preserve">
<style type="text/css">
	.st0{fill:#1D1D1B;}
	.st1{fill:#FFFFFF;}
	.st2{opacity:0.45;enable-background:new    ;}
</style>
<path class="st0" d="M174.3,100.4c0.5,0,0.9,0.1,1.1,0c0.5,0,1-0.2,1.4-0.2c2.2-0.1,4.5,0.5,6.7-0.1c0.2,0,0.3,0,0.5,0.1
	c1.1,0.4,2.3,0.3,3.4,0.3c0.6,0,1,0,1.6,0.2c2.8,0.7,5.5,0.9,8.3,0.5c1.3-0.2,2.7-0.2,3.9,0.2c1.1,0.4,2.3,0.4,3.4,0.3
	c1-0.1,1.8-0.2,2.8-0.3c0.5,0,0.9,0,1.3,0c1.1,0,2.3,0.1,3.4,0c0.9-0.1,1.7-0.4,2.6-0.5c2.4-0.2,4.8-0.4,7.1-0.5
	c0.2,0,0.4,0.2,0.9,0.5c-0.7,0.2-1,0.3-1.4,0.3c-1.1,0-2.3,0-3.4,0c-1.5,0.1-3,0-4.6,0.5c-1.7,0.6-3.4,0.8-5,0.3
	c-1.9,0.3-3.7,0.7-5.5,0.4c-2.5-0.5-5-0.8-7.4,0.2c-0.1,0-0.2,0.1-0.3,0.1c-1.6-0.1-3.2-0.2-4.9-0.4c-0.9-0.1-1.7-0.2-2.6,0
	c-0.7,0.2-1.4,0-2.1-0.1c-0.9-0.2-1.7-0.3-2.6-0.2c-1.2,0.2-2.4,0.1-3.5-0.2c-0.4-0.1-0.9-0.2-1.2-0.2c-1,0.1-2.2,0.4-3.2,0.6
	c-0.5,0.1-0.9,0.2-1.2,1C174.2,104.7,174.3,99.9,174.3,100.4"/>
<path class="st0" d="M63.4,100.3c-0.4,0-0.8,0.1-1.2,0c-0.4,0-1-0.2-1.4-0.2c-2.2-0.1-4.4,0.5-6.6-0.1c-0.2,0-0.4,0-0.4,0.1
	c-1.1,0.4-2.2,0.3-3.3,0.3c-0.5,0-1.1,0-1.6,0.2c-2.7,0.8-5.4,1-8.2,0.5c-1.3-0.2-2.6-0.2-3.9,0.2c-1.1,0.4-2.2,0.4-3.3,0.3
	c-0.9-0.1-1.8-0.2-2.7-0.3c-0.4,0-0.9,0-1.3,0c-1.1,0-2.2,0.1-3.3,0c-0.8-0.1-1.7-0.4-2.5-0.5c-2.3-0.2-4.7-0.4-7-0.5
	c-0.2,0-0.4,0.2-0.8,0.5c0.7,0.2,1.1,0.3,1.3,0.3c1.1,0,2.2,0,3.3,0c1.5,0.1,3.1,0,4.5,0.5c1.7,0.7,3.3,0.9,4.9,0.3
	c1.9,0.3,3.7,0.8,5.5,0.4c2.4-0.5,4.9-0.9,7.3,0.2c0.1,0,0.2,0.1,0.4,0.1c1.6-0.1,3.2-0.2,4.8-0.4c0.8-0.1,1.7-0.2,2.5,0
	c0.6,0.2,1.3,0,2.1-0.1c0.8-0.2,1.7-0.3,2.5-0.2c1.2,0.2,2.3,0.1,3.5-0.2c0.4-0.1,0.8-0.2,1.3-0.2c1.1,0.1,2.2,0.4,3.1,0.7
	c0.4,0.1,0.8,0.2,1.2,1.1C63.6,105,63.4,99.7,63.4,100.3"/>
<g id="doc00073520160814150808-54.psd_Bild">
	<title>SK_Website-Animation_Einzelbilder</title>
	<path d="M34.6,136.9c-0.2-1.4-0.4-2.4-0.6-3.4c-0.1-0.9-0.1-1.8,0.1-2.7c0.7-2.4,0.9-5.1,0.7-7.7c0-0.2,0-0.6,0-0.8
		c1-5.5,0.2-10.9,0-16.5c-0.1-4.7,0-9.5,0.2-14.1c0.4-7.7,1.1-15.2,0.3-22.8c-0.2-2.2,0-4.5,0-6.7c0-2,0-3.9-0.1-5.9
		c0.1-0.8-0.3-1.6-1-2c-0.4-0.4-0.7-1.1-0.6-1.8c0.3-0.4,0.9-0.7,1.4-0.8c1-0.4,2.2-0.1,2.8,0.9c0.6,0.7,1.3,1.1,2.1,1.4
		c6.1,2.2,12.1,4.5,18.3,6.7c0.7,0.3,1.4,0.6,2.2,0.8c0.7,0,1.2,0,1.9-0.1c-0.4-1.7-0.6-3-1.1-4.3c-2-5.6-2.4-11.6-5.2-17
		c-0.8-1.6-1-3.3-3.2-3.8c-0.4-0.1-0.7-0.9-1-1.4C53,34,54.6,33.6,56,34c4.3,1,8.8,1.4,13.2,1.1c6.7-0.7,13.2-1,19.9-1
		c6.2,0.1,12.5,0,18.7,0.2c4.9,0.1,9.8,0.8,14.7,0.9c5.6,0.1,11.1,0,16.8,0c5,0,10,0,14.9,0.1c5.8,0.1,11.6,0.7,17.2-0.6
		c2.2-0.6,4.6-0.7,6.8-1c1-0.2,2,0.3,2.4,1.2c0.4,1-0.2,1.4-0.9,1.9c-0.4,0.3-0.7,0.9-0.9,1.4c-1.7,5-3.3,10.1-5,15.1
		c-0.6,1.6-1.1,3-1.7,4.5c-0.2,0.4-0.3,1-0.4,1.6c-0.2,2,0.3,2.7,2.3,2.4c1.7-0.2,3.3-0.6,5-1c2.1-0.7,4.1-1.7,6.2-2.3
		c0.9-0.3,1.9-0.4,2.8-0.8c3.1-1.1,6.1-2.2,9.2-3.2c1.2-0.3,2.4-0.6,3.7-0.7c0.2,0.6,0.4,1.1,0.6,1.7c-0.4,5.1-1.1,10.2-1.6,15.4
		c-0.2,3-0.4,6-0.4,9c0.1,5.6-0.3,11.1-1.3,16.7c-0.6,3.6-0.9,7-1,10.6c0,0.3,0,0.7,0,1.1c-0.7,4.5-0.9,9-0.7,13.6
		c0.1,3.3,0,6.6-0.1,9.9c0,1.1-0.1,2,1.2,2.6c1.1,0.4,1,1.8,0,2.6c-0.1,0-0.2,0-0.2,0.1c-2.3,1.3-2.7,2.3-3.4-1.6
		c-7-3.2-14.5-5.3-22.1-6.3c0.6,0.7,1.1,1.2,1.8,1.8c4,3,8,6.1,12.2,8.9c2.8,1.9,5.9,3.3,8.8,5c1,0.6,1.9,1.3,2.6,2.2
		c0.8,0.9,0.4,1.7-0.6,2.1l-0.2,0.1c-2.2,0.8-4.8-0.6-6.8,1.3c-2.4,0.2-4.8,0.2-7.2,0c-6.9-1-13.8-1.4-20.7-1.3
		c-6.7,0-13.4-0.2-20-0.3c-5.5-0.1-10.8-0.6-16.2-0.7c-4.1-0.1-8.1,0.1-12.2,0.2c-2.4,0-5,0.1-7.5,0c-7.2-0.1-14.4-0.3-21.6-0.4
		c-4.1,0-8.2,0.4-12.2,0.1c-6.1-0.3-12.1,0.1-18.1,0.3c-2.1,0-4.3,0-6.5,0.2c-1,0.2-2,0.4-2.9,0.9c-1.7-1.7-3.9-1.1-6-0.8
		c-0.9,0.3-2,0-2.4-0.8c0.3-3.7,3.2-4.8,5.8-6.2c3.6-1.8,7-3.9,10.1-6.3c2-1.6,4.3-2.8,6.5-4.2l2.4-1.6c-2.9,0.2-5.8,0.9-8.5,1.9
		c-1.2,0.4-2.6,0.9-3.8,1.1c-1.8,0.2-3.4,0.8-5.1,1.4c-1.9,0.9-4,1.1-5.8,2.4C37,137.1,35.6,136.9,34.6,136.9z M158.1,118L158.1,118
		c2.8,3.6,6.8,5.7,10.8,8.8c1-10.3,0.6-20.1,0.4-30c-0.1-9.9,0.8-19.6-0.4-30.2c-4.5,3.4-9.5,5-13.2,7.8c0.3,1.1,0.6,2.2,0.7,3.3
		c0,1.6-0.2,3.2-0.2,4.8c0,4.6,0,9-0.1,13.6c-0.1,3.4,0.2,6.9,0.9,10.3c0.3,2.1,0.6,4.2,0.6,6.3c-0.1,0.6-0.3,1.1-0.6,1.6
		c-1.3-0.7-0.9-1.7-1-2.4c0.1-1.6,0.1-3-0.1-4.6c-1.1-4.2-0.9-8.5-0.9-12.7c0-5.9-0.1-11.7-0.2-17.7c-1,0-1.7-0.1-2.4-0.1
		c-6.1,0-12.2,0-18.4,0.1c-4.6,0.1-9.2,0.4-13.9,0.6c-5.7,0.1-11.4-0.1-17-0.1c-6,0-11.9,0-17.8,0c-2.2,0-4.5-0.1-6.6-0.3
		c-0.3-0.2-0.7-0.6-0.8-0.9c0.4-0.2,0.9-0.3,1.4-0.4c1.8,0,3.6,0,5.3,0c2.9,0,5.9,0.1,8.8,0.1c1.4,0,2.8-0.3,4.2-0.3
		c2.1,0,4.2,0.2,6.3,0.3c4.3,0.1,8.7,0.1,13.1,0.2c2,0,3.9,0,5.9-0.1c3.3-0.1,6.6-0.2,9.9-0.3c6.3-0.1,12.6-0.2,18.9-0.3
		c1.6,0,3-0.6,4-1.7c1.4-1.2,2.9-2.2,4.6-3.1c2.7-1.7,5.6-3,7.6-5.3c-3.2,0-6.6,0.1-9.8,0c-6.9-0.3-13.8-0.7-20.7-1.4
		c-2.8-0.3-5.7-0.6-8.5-0.6c-1.4,0-2.9,0-4.2,0c-4.6,0-9-0.1-13.6,0c-4.2,0-8.5,0.3-12.8,0.4c-4.6,0.1-9-0.1-13.6,0.1
		c-5.2,0.4-10.5,0.4-15.7,0c-0.6,0-1.1,0-2.3,0c3.8,3.9,7.2,7.3,9.3,12.4c-2.2-1.1-2.7-3.1-3.8-4.3c-1.1-1.2-2.4-2.8-3.8-4.1
		c-1.2-1.4-2.8-2.4-4.6-2.9c0,1.8,0,3.3,0,4.9s0.3,3.2,0.3,4.8c0.2,4.1,0.3,8.1,0.4,12.2c0.1,0.8,0.2,1.6,0.4,2.3
		c1.4,5.8,0.9,11.7,1.7,17.5c0,0.2,0,0.3,0,0.6c-0.1,2.9-0.2,5.8-0.4,8.8c-0.1,2.8-0.4,5.5-0.7,8.2c0,0.4,0.1,0.8,0.1,1.2
		c0.3,0,0.7-0.1,1-0.2c3.2-1.9,6.3-3.9,9.6-5.8c0.6-0.3,0.9-0.8,1-1.4c0.2-2.1,0.3-4.2,0.3-6.3c0-1.1-0.2-2.1-0.2-3.2
		c0.1-5.8-0.8-11.6-0.1-17.2c0-0.1,0-0.2,0-0.2c-0.1-3.1-0.2-6.2-0.3-9.3c0-1-0.3-2.2,1.1-2.7c0.7,0.8,1,1.9,0.9,2.9
		c0.2,10,0.3,20,0.6,30c0,0.8,0.1,1.6,0.2,2.6c1,0.3,2,0.6,3.1,0.7c5.9,0.4,11.9,0.9,17.8,1.2c9.7,0.6,19.4,0.9,29,0.8
		c6.5-0.1,12.9-0.1,19.5-0.7c1.8-0.1,3.6-0.2,5.3-0.2c0.4,0.1,0.8,0.3,1.1,0.6c-0.1,0.4-0.3,0.9-0.7,1.2c-0.8,0.2-1.6,0.2-2.3,0.2
		c-1.8,0-3.6-0.2-5.3-0.1c-10.1,0.6-20.3,0.8-30.4,0.3c-2.8-0.1-5.6-0.2-8.2-0.3c-5.3-0.2-10.7-0.2-16-0.9
		c-4.2-0.7-8.5-0.8-12.7-0.3c-0.3,0.9-0.9,1.7-1.6,2.3c-3.6,2.8-7.3,5.3-10.9,8c-0.6,0.4-1,1-1.4,1.4c2.7,0.2,4.8,0.4,7,0.6
		c2.7,0.1,5.3-0.1,8-0.1c3.4,0,6.9,0,10.3,0c8.1,0,16.1-0.1,24.3,0c8.1,0.1,16.1,0.8,24.3,0.8c6.7,0,13.4-0.6,19.9-1
		c2.2-0.1,4.5-0.7,7.1-1c-3.6-3.3-7.9-5-9.9-9.3L158.1,118z M57,36.4l7.5,24.5c1.1,0.1,2,0.2,2.9,0.3c5.5,0.1,10.8,0.3,16.2,0.3
		c4,0,8-0.3,11.9-0.3c2.6,0,5.1,0.1,7.7,0c3.2-0.1,6.3-0.3,9.6-0.4c0.4,0,0.9,0,1.3,0c4.9,0.1,9.8,0.3,14.7,0.2
		c2.8-0.2,5.7,0,8.5,0.6c1.2,0.3,2.4,0.4,3.7,0.6c5,0.3,9.9,0.6,14.9,0.8c4.6,0.2,9.1,1.2,13.9-0.6c1.6-8.5,6.2-16.1,7.2-25.3
		c-1.2-0.1-2.1-0.1-3-0.1c-4.5,0.1-8.9,0.4-13.4,0.4c-5.7,0-11.4-0.3-17-0.3c-6.8-0.1-13.5,0.1-20.3-0.1c-5.5-0.1-10.8-0.8-16.2-1
		c-3.7-0.1-7.2,0.1-10.9,0c-7.3-0.2-14.8-0.1-22.1,0.6c-4.1,0.3-8.3,0.8-12.5,0.1C60,36.3,58.5,36.3,57,36.4z M40,146.2
		c1.8,1,3.1,0.4,4.5,0.3c4,0,8.1,0,12.2,0c11.2,0,22.4-0.2,33.6-0.2c5.6,0,11.2,0.7,16.8,0.3c8.5-0.6,16.9,0,25.4,0
		c3.3,0,6.8,0,10.1,0c4.8,0,9.6-0.2,14.4-0.1c5.2,0.2,10.5,0.8,15.7,0.6c6.3-0.2,12.8,0.1,19.1,0.1c0.8-0.1,1.6-0.1,2.4-0.3
		c-1-0.7-1.3-1-1.8-1.2c-6.9-4.2-13.5-8.9-19.8-13.9c-2.1-1.7-4.2-2.9-7.2-2.2c-2.6,0.6-5.3,0.1-7.9,0.8c-1.9,0.6-4,0.9-6,0.9
		c-8.8,0-17.6-0.2-26.4-0.2c-11,0-22-1.1-33.1-0.3c-2.7,0.2-5.3-0.2-7.9-0.2c-4.2-0.1-8.6,0-12.8,0.3c-2.7,0.3-5.5,0.3-8.1,0
		c-4,2.4-8.5,3.8-12,6.9S43.9,143.4,40,146.2z M37.3,55.7c-0.1,0.6-0.2,1.2-0.2,1.8c0,1.9,0,3.8,0,5.6c0,2.7,0.2,5.3,0.2,8
		c0.1,4,0.4,8,0.3,12c-0.2,6.5-1.7,12.8-1.1,19.4c0.4,4.1,0.3,8.3,0.6,12.5c0.1,3.2,0.6,6.3-0.3,9.6c-0.2,1.2-0.3,2.4-0.2,3.7
		c0,1.7,0,3.2,0,5c0.6,0.1,1.1,0.1,1.6,0c4.1-1.1,8.2-2.2,12.4-3.3c4.1-1.1,7.9-2.1,11.9-3c1.1,0,2-1,2-2.1v-0.1
		c0-1.2,0.1-2.4,0.2-3.7c0.1-2.8,0.3-5.7,0.4-8.5c0.1-1.8,0.1-3.6,0.2-5.3c0.1-1.4,0.1-2.8,0-4.2c-0.8-5,0.1-10.1-1.9-15
		c-0.1-0.3-0.1-0.8-0.1-1.1c-0.3-6.8-0.8-13.5-1.1-20.3c0.1-1.4-0.8-2.8-2.2-3.1c-4.5-1.4-8.9-3.1-13.4-4.6
		C43.4,57.7,40.4,56.7,37.3,55.7L37.3,55.7z M171,126.4c4.2,1.1,8.1,2.4,12,3.2s7.7,3.1,11.8,3.4c0.2-2.2,0.3-4.6,0.3-6.8
		c-0.3-5.9-0.2-11.9,0.4-17.8c0.6-4.9,1.1-9.7,1.6-14.6c0.6-3.7,0.8-7.5,0.9-11.1c-0.1-6.5,0.4-12.9,1.4-19.4c0.2-1.4,0.2-3,0.2-4.6
		c-0.1-0.7-0.2-1.3-0.4-2c-3,0.9-5.9,1.9-8.8,2.7c-2,0.6-4,1.2-5.9,2c-2.3,0.9-4.9,1.7-7.3,2.1c-1.4,0.3-3.1,0-3.8,1.8
		c-0.2,0.2-0.6,0.3-0.9,0.3c-1.7-0.1-1.8,0.9-1.8,2.2c0.1,4,0.3,8,0.3,12c0,6.7-0.3,13.5-0.3,20.3c0,4.1,0.2,8.1,0.2,12.2
		C171,117,171,121.6,171,126.4z M186.4,149.4v-0.6l-4.1,0.3v0.2h4.1V149.4z"/>
	<path class="st1" d="M57,36.4c1.6-0.1,3-0.1,4.6,0c4.2,0.7,8.3,0.2,12.5-0.1c7.3-0.6,14.7-0.8,22.1-0.6c3.7,0.1,7.3-0.1,10.9,0
		c5.5,0.2,10.8,0.9,16.2,1c6.8,0.2,13.5,0,20.3,0.1c5.7,0.1,11.4,0.3,17,0.3c4.5,0,8.9-0.3,13.4-0.4c0.9,0,1.9,0.1,3,0.1
		c-1,9.1-5.7,16.9-7.2,25.3c-4.7,1.8-9.3,0.8-13.9,0.6c-5-0.2-9.9-0.4-14.9-0.8c-1.2-0.1-2.4-0.2-3.7-0.6c-2.8-0.6-5.7-0.8-8.5-0.6
		c-4.9,0.1-9.8-0.1-14.7-0.2c-0.4,0-0.9,0-1.3,0c-3.2,0.1-6.3,0.3-9.6,0.4c-2.6,0.1-5.1,0-7.7,0c-4,0.1-8,0.3-11.9,0.3
		c-5.5,0-10.8-0.2-16.2-0.3c-0.9,0-1.8-0.2-2.9-0.3L57,36.4z"/>
	<path class="st1" d="M40,146c3.9-2.8,7.8-5.2,11.2-8.2s8-4.5,12-6.9c2.7,0.3,5.5,0.3,8.1,0c4.2-0.3,8.6-0.4,12.8-0.3
		c2.7,0,5.3,0.4,7.9,0.2c11-0.8,22,0.3,33.1,0.3c8.8,0,17.6,0.2,26.4,0.2c2,0,4-0.3,6-0.9c2.4-0.7,5.3-0.2,7.9-0.8
		c3-0.7,5,0.6,7.2,2.2c6.3,5.1,12.9,9.7,19.8,13.9c0.4,0.2,0.9,0.6,1.8,1.2c-0.8,0.1-1.6,0.2-2.4,0.3c-6.5-0.1-12.8-0.4-19.1-0.1
		c-5.2,0.2-10.5-0.3-15.7-0.6c-4.8-0.2-9.6,0-14.4,0.1c-3.3,0-6.8-0.1-10.1,0c-8.5,0-16.9-0.4-25.4,0c-5.6,0.3-11.2-0.3-16.8-0.3
		c-11.2,0-22.4,0.1-33.6,0.2c-4,0-8.1-0.1-12.2,0C43.1,146.5,41.7,147,40,146z"/>
	<path class="st1" d="M37.2,55.7c3.2,1.1,6.2,2,9.2,3.1c4.5,1.6,8.9,3.2,13.4,4.6c1.4,0.3,2.3,1.7,2.2,3.1
		c0.3,6.8,0.7,13.5,1.1,20.3c0,0.3,0,0.8,0.1,1.1c1.9,4.9,1.1,10,1.9,15c0.1,1.4,0.1,2.8,0,4.2c0,1.8-0.1,3.6-0.2,5.3
		c-0.1,2.8-0.3,5.7-0.4,8.5c-0.1,1.2-0.2,2.4-0.2,3.7c0.1,1.1-0.8,2.1-1.9,2.2h-0.1c-4,0.9-7.9,1.9-11.9,3s-8.2,2.2-12.4,3.3
		c-0.6,0.1-1.1,0.1-1.6,0c0-1.8,0-3.3,0-5c-0.1-1.2,0-2.4,0.2-3.7c0.9-3.2,0.4-6.3,0.3-9.6c-0.2-4.2-0.1-8.3-0.6-12.5
		c-0.7-6.6,0.9-12.9,1.1-19.4c0.1-4-0.1-8-0.3-12c-0.1-2.7-0.2-5.3-0.2-8c0-1.9,0-3.8,0-5.6C37.1,56.9,37.1,56.3,37.2,55.7z"/>
	<path class="st1" d="M171,126.4c0-4.7,0-9.3,0-13.9c0-4.1-0.3-8.1-0.2-12.2c0-6.7,0.3-13.5,0.3-20.3c0-4-0.1-8-0.3-12
		c0-1.3,0.1-2.3,1.8-2.2c0.3,0,0.7-0.1,0.9-0.3c0.7-1.9,2.3-1.4,3.8-1.8c2.6-0.4,5-1.2,7.3-2.1c1.9-0.9,3.9-1.6,5.9-2
		c2.9-0.8,5.8-1.7,8.8-2.7c0.2,0.7,0.3,1.3,0.4,2c0,1.6,0,3-0.2,4.6c-1,6.3-1.6,12.8-1.4,19.3c-0.1,3.7-0.3,7.5-0.9,11.1
		c-0.4,4.9-1,9.7-1.6,14.6c-0.7,5.9-0.8,11.9-0.4,17.8c0,2.3-0.1,4.6-0.3,6.8c-4.2-0.2-7.8-2.7-11.8-3.4
		C179,128.7,175.2,127.5,171,126.4z"/>
	<path class="st1" d="M186.4,149.4h-4v-0.2l4.1-0.3L186.4,149.4z"/>
	<path d="M158.1,118.2l-0.9-1.3c1.6-1.2,1.8,0.2,2.8,1.3H158.1L158.1,118.2z"/>
	<path class="st2" d="M169.7,64.1h-21.4l-22.2-2.2l-62.2,1l-1.2,1.7l1,21.8l1.5,8.6l0.6,16.1l-1.4,17.8l3,1.4c0,0,35.6-0.4,37.5-0.4
		s47.7,1.1,48,0.9c0.2-0.2,15.5-2.3,15.5-2.3l1.8-1.3L170,89.7c0,0-0.3-23-0.3-23.3"/>
</g>
</svg>
