<?xml version="1.0" encoding="iso-8859-1"?>
<!-- Generator: Adobe Illustrator 19.2.1, SVG Export Plug-In . SVG Version: 6.00 Build 0)  -->
<svg version="1.1" id="Scan_x5F_A4-150dpi_x5F_SW_x5F_0002-8_xA0_Bild_1_"
	 xmlns="http://www.w3.org/2000/svg" xmlns:xlink="http://www.w3.org/1999/xlink" x="0px" y="0px" viewBox="0 0 236.013 181.502"
	 style="enable-background:new 0 0 236.013 181.502;" xml:space="preserve">
<g>
	<path style="fill:#FFFFFF;" d="M177.066,48.039c0.865-0.499,1.206-1.096,0.468-1.725c-0.251-0.214-1.133-0.151-1.304,0.087
		C175.7,47.146,176.106,47.698,177.066,48.039z M168.298,134.811c-1.383-0.115-1.634,0.478-1.22,1.383
		c0.126,0.276,0.64,0.374,1.316,0.735C168.351,135.992,168.325,135.396,168.298,134.811z M60.445,48.058
		c0.237-0.052,0.474-0.104,0.71-0.156c-0.12-0.381-0.239-0.762-0.359-1.143c-0.158,0.029-0.315,0.058-0.472,0.087
		C60.365,47.25,60.405,47.654,60.445,48.058z M57.697,136.055c-1.064,0.023-1.064,0.023-0.8,1.109
		C57.194,136.752,57.408,136.455,57.697,136.055z"/>
	<path d="M54.421,92.783c0.252-0.066,0.504-0.133,0.983-0.259c-1.243-2.594-2.129-5.241-4.043-7.446
		c-1.025-1.181-1.834-2.67-2.344-4.156c-2.38-6.937-5.259-13.645-8.667-20.137c-1.036-1.974-1.899-4.039-2.969-6.338
		c0.461-0.485,1.042-1.096,1.7-1.787c1.467,1.214,2.407,2.382,3.153,4.024c1.359,2.991,3.266,5.742,5.039,8.532
		c2.539,3.996,5.161,7.939,7.758,11.898c0.18,0.274,0.446,0.49,0.913,0.993c-0.136-3.371-0.278-6.377-0.371-9.384
		c-0.097-3.123-0.056-6.252-0.244-9.369c-0.179-2.975-0.575-5.937-0.897-9.118c4.709-0.488,9.086,1.082,13.658,0.515
		c1.523-3.446,3.192-6.884,4.539-10.443c0.504-1.331,0.261-2.945,0.374-4.676c2.356-0.495,4.818-0.558,7.303-0.288
		c0.8,0.087,1.595,0.282,2.394,0.298c10.646,0.21,21.291,0.47,31.938,0.546c3.116,0.022,6.232-0.577,9.357-0.738
		c3.393-0.175,6.795-0.198,10.193-0.242c8.245-0.108,16.449,0.451,24.611,1.61c0.869,0.123,1.718,0.381,2.62,0.586
		c0.768,4.711,2.861,8.714,5.146,12.764c1.858,0,3.636,0,5.642,0c0.66-0.33,1.56-0.779,2.757-1.376
		c0.43,1.11,0.933,1.887,1.013,2.706c0.267,2.743,0.306,5.509,0.58,8.251c0.248,2.482,0.7,4.944,1.042,7.417
		c0.379,2.739,0.714,5.485,1.113,8.221c0.112,0.769,0.383,1.514,0.736,2.864c1.7-2.219,3.15-3.964,4.438-5.822
		c2.54-3.663,4.992-7.387,7.476-11.09c0.596-0.889,1.102-1.849,1.776-2.673c0.686-0.839,1.251-2.028,2.851-1.651
		c0.284,1.122,0.004,2.143-0.577,3.019c-6.615,9.976-13.234,19.951-19.907,29.888c-3.748,5.582-8.268,10.534-13,15.282
		c-1.109,1.113-2.566,1.879-4.121,2.99c-0.491,1.241-0.299,2.719,0.197,4.337c1.071,3.493,1.976,7.028,2.449,10.69
		c0.316,2.446,1.33,4.801,2.031,7.197c0.324,1.107,0.648,2.214,1.059,3.622c-0.706,0.247-1.367,0.732-1.934,0.64
		c-9.142-1.484-18.351-1.095-27.548-1.124c-6.623-0.021-13.247-0.317-19.868-0.248c-5.615,0.058-11.226,0.488-16.841,0.705
		c-4.023,0.155-8.049,0.3-12.075,0.323c-4.278,0.024-8.557-0.12-12.836-0.154c-2.658-0.022-5.355-0.302-8.165,1.54
		c-0.078-1.217-0.295-1.908-0.133-2.493c1.573-5.67,3.139-11.344,4.863-16.969c0.692-2.26,0.468-4.114-1.045-5.965
		c-3.112-3.807-6.086-7.727-9.179-11.55c-0.699-0.863-1.652-1.521-2.431-2.221c-0.832-1.282-1.644-2.533-2.456-3.784L54.421,92.783z
		 M173.43,52.658c-2.094-0.235-4.203-0.512-6.319-0.684c-0.596-0.048-1.276,0.441-1.816,0.298c-4.13-1.09-8.149,0.607-12.245,0.407
		c-2.574-0.126-5.163,0.074-7.746,0.104c-1.777,0.02-3.554-0.022-5.331-0.002c-5.784,0.065-11.552,0.841-17.357-0.186
		c-3.057-0.541-6.234-0.534-9.357-0.535c-4.381-0.001-8.761,0.266-13.143,0.337c-9.384,0.153-18.782-0.514-28.154,0.494
		c-0.974,0.105-1.973,0.086-2.953,0.016c-3.633-0.257-7.262-0.584-10.896-0.812c-0.459-0.029-0.945,0.374-1.532,0.626
		c0.174,9.793,0.025,19.492,2.122,29.186c0.861,0.044,1.747,0.154,2.629,0.124c4.469-0.156,8.941-0.553,13.405-0.47
		c4.518,0.084,8.922-0.686,13.304-1.421c5.944-0.998,11.934-1.16,17.897-1.316c7.772-0.203,15.561,0.227,23.343,0.411
		c6.841,0.162,13.681,0.439,20.523,0.523c8.148,0.1,16.298,0.054,24.448,0.054c0.956,0,1.912-0.112,2.929-0.177
		c0.135-0.648,0.34-1.084,0.294-1.491c-0.832-7.314-2.397-14.531-2.868-21.896C174.541,55.221,173.961,54.225,173.43,52.658z
		 M72.691,108.847c1.176,1.536,2.309,2.183,4.083,2.002c2.021-0.205,4.089,0.038,6.135,0.11c3.932,0.138,7.864,0.392,11.797,0.41
		c3.574,0.017,7.149-0.205,10.722-0.337c4.648-0.172,9.296-0.341,13.942-0.548c3.036-0.135,6.069-0.325,9.102-0.511
		c2.499-0.153,4.995-0.42,7.496-0.49c6.252-0.174,12.531,0.076,18.695-1.398c0-0.565,0.03-1.174-0.014-1.778
		c-0.018-0.252-0.169-0.506-0.298-0.738c-3.737-6.666-6.031-13.909-8.48-21.092c-0.339-0.994-0.849-1.931-1.208-2.733
		c-21.036-1.626-41.804-2.424-62.787,1.097c-0.733,2.609-1.321,5.216-2.198,7.722C77.531,96.699,75.938,103.044,72.691,108.847z
		 M69.539,132.458c4.305,0.146,8.768,0.498,13.221,0.405c8.041-0.169,16.075-0.739,24.116-0.893
		c8.504-0.163,17.015,0.004,25.522-0.051c4.383-0.028,8.766-0.354,13.147-0.308c4.639,0.049,9.276,0.379,13.667,0.576
		c0.537-1.118,0.993-2.068,1.571-3.271c-0.443-1.512-1.332-3.284-1.421-5.095c-0.22-4.47-1.92-8.522-2.945-12.567
		c-1.317-1.434-2.838-1.348-4.379-1.234c-2.491,0.185-4.983,0.363-7.477,0.508c-4.018,0.234-8.039,0.438-12.058,0.658
		c-5.716,0.312-11.431,0.636-17.148,0.933c-1.519,0.079-3.043,0.061-4.565,0.113c-5.448,0.186-10.895,0.506-16.344,0.543
		c-6.621,0.045-13.244-0.16-19.866-0.218c-0.861-0.008-1.725,0.214-2.473,0.314c-1.615,5.812-3.16,11.373-4.65,16.737
		C68.216,130.647,68.823,131.479,69.539,132.458z M70.237,50.869c2.428,0,4.479,0.005,6.529-0.001
		c11.994-0.037,23.988-0.125,35.982-0.089c4.016,0.012,8.031,0.328,12.046,0.517c2.408,0.114,4.814,0.334,7.222,0.352
		c2.143,0.016,4.287-0.275,6.431-0.269c8.491,0.023,16.962-0.242,25.513-1.433c-1.533-3.922-2.79-7.983-5.607-11.649
		c-0.831-0.108-1.877-0.297-2.931-0.369c-3.569-0.245-7.143-0.416-10.71-0.673c-6.964-0.502-13.915-0.615-20.883,0.079
		c-6.657,0.663-13.331,0.988-20.038,0.66c-6.697-0.328-13.405-0.435-20.11-0.597c-2.561-0.062-5.125-0.01-7.691-0.01
		C73.389,41.575,72.085,46.095,70.237,50.869z M156.864,107.003c1.06-1.218,2.001-2.264,2.9-3.345
		c0.683-0.821,1.172-1.875,1.997-2.494c2.206-1.657,3.113-4.028,4.092-6.438c0.488-1.201,1.305-2.286,2.076-3.349
		c0.888-1.224,1.852-2.398,2.853-3.533c0.988-1.12,2.099-2.133,3.09-3.251c0.921-1.039,1.755-2.156,2.99-3.689
		c-10.345,0.334-20.088-0.196-29.821,0.797C147.887,86.355,154.917,104.741,156.864,107.003z M79.532,82.917
		c-7.109,0.508-13.986,0.999-20.926,1.494c0.104,0.452,0.12,0.73,0.229,0.964c2.704,5.812,5.377,11.639,8.152,17.417
		c0.953,1.984,2.012,3.953,3.813,5.5C74.685,100.253,77.21,91.893,79.532,82.917z M64.22,102.284c0.163-0.1,0.327-0.2,0.49-0.3
		c-0.284-0.61-0.588-1.213-0.849-1.833c-0.581-1.378-1.145-2.762-1.707-4.148c-0.435-1.075-0.787-2.189-1.294-3.227
		c-2.106-4.314-4.173-8.652-6.426-12.89c-1.249-2.349-2.822-4.527-4.274-6.767c-2.537-3.915-5.092-7.818-7.823-12.008
		c-0.074,0.608-0.163,0.806-0.104,0.94c0.287,0.652,0.624,1.282,0.925,1.928c2.476,5.319,5.72,10.303,7.036,16.132
		c0.113,0.5,0.486,0.943,0.743,1.41c2.017,3.67,4.048,7.333,6.048,11.012c0.762,1.401,1.264,2.986,2.225,4.224
		C60.73,98.716,62.536,100.453,64.22,102.284z M165.686,99.841c1.405-1.602,2.81-3.205,4.164-4.749
		c0.111-2.249,0.116-2.243,1.684-3.373c0.504-0.363,1.088-0.688,1.446-1.171c1.961-2.642,3.864-5.327,5.773-8.007
		c0.019-0.026-0.162-0.195-0.26-0.31C173.57,87.63,167.733,92.336,165.686,99.841z M161.848,102.646
		c0.201,0.209,0.403,0.419,0.604,0.628c0.432-0.51,0.865-1.019,1.297-1.529c-0.08-0.063-0.159-0.126-0.239-0.189
		C162.956,101.919,162.402,102.283,161.848,102.646z"/>
	<path d="M177.066,48.039c-0.96-0.341-1.366-0.893-0.836-1.637c0.17-0.239,1.052-0.302,1.304-0.087
		C178.272,46.944,177.932,47.541,177.066,48.039z"/>
	<path d="M168.298,134.811c0.026,0.584,0.053,1.181,0.096,2.118c-0.676-0.361-1.19-0.459-1.316-0.735
		C166.664,135.289,166.915,134.697,168.298,134.811z"/>
	<path d="M54.47,92.737c-0.664-0.614-1.568-1.072-1.12-2.364c0.357,0.803,0.714,1.606,1.07,2.41L54.47,92.737z"/>
	<path d="M60.445,48.058c-0.04-0.404-0.081-0.808-0.121-1.212c0.157-0.029,0.315-0.058,0.472-0.087
		c0.12,0.381,0.239,0.762,0.359,1.143C60.919,47.954,60.682,48.006,60.445,48.058z"/>
	<path d="M57.697,136.055c-0.289,0.4-0.503,0.697-0.8,1.109C56.633,136.078,56.633,136.078,57.697,136.055z"/>
	<path style="fill:#FFFFFF;" d="M173.43,52.658c0.53,1.567,1.111,2.563,1.177,3.592c0.471,7.366,2.036,14.583,2.868,21.896
		c0.046,0.407-0.158,0.842-0.294,1.491c-1.017,0.064-1.973,0.177-2.929,0.177c-8.149,0-16.299,0.046-24.448-0.054
		c-6.842-0.084-13.682-0.361-20.523-0.523c-7.781-0.184-15.571-0.615-23.343-0.411c-5.963,0.156-11.953,0.319-17.897,1.316
		c-4.383,0.736-8.786,1.505-13.304,1.421c-4.464-0.083-8.936,0.314-13.405,0.47c-0.882,0.031-1.769-0.08-2.629-0.124
		c-2.097-9.694-1.948-19.393-2.122-29.186c0.587-0.252,1.073-0.654,1.532-0.626c3.635,0.228,7.263,0.555,10.896,0.812
		c0.98,0.069,1.979,0.089,2.953-0.016c9.371-1.009,18.769-0.341,28.154-0.494c4.382-0.072,8.762-0.339,13.143-0.337
		c3.123,0.001,6.3-0.006,9.357,0.535c5.805,1.027,11.573,0.251,17.357,0.186c1.777-0.02,3.554,0.022,5.331,0.002
		c2.583-0.029,5.172-0.229,7.746-0.104c4.096,0.2,8.114-1.497,12.245-0.407c0.54,0.142,1.22-0.346,1.816-0.298
		C169.228,52.146,171.336,52.423,173.43,52.658z"/>
	<path style="fill:#FFFFFF;" d="M69.539,132.458c-0.715-0.979-1.322-1.811-2.081-2.85c1.49-5.364,3.035-10.925,4.65-16.737
		c0.748-0.1,1.611-0.321,2.473-0.314c6.622,0.058,13.245,0.263,19.866,0.218c5.449-0.037,10.896-0.357,16.344-0.543
		c1.521-0.052,3.045-0.034,4.565-0.113c5.717-0.297,11.432-0.621,17.148-0.933c4.019-0.219,8.04-0.423,12.058-0.658
		c2.494-0.145,4.986-0.324,7.477-0.508c1.541-0.114,3.062-0.2,4.379,1.234c1.025,4.045,2.725,8.097,2.945,12.567
		c0.089,1.811,0.977,3.583,1.421,5.095c-0.578,1.203-1.034,2.153-1.571,3.271c-4.391-0.196-9.027-0.527-13.667-0.576
		c-4.381-0.046-8.764,0.28-13.147,0.308c-8.507,0.054-17.017-0.112-25.522,0.051c-8.041,0.154-16.075,0.724-24.116,0.893
		C78.306,132.956,73.844,132.604,69.539,132.458z M71.363,118.342c0.69,0.91,1.359,1.185,2.029-0.133
		C72.502,118.268,71.932,118.305,71.363,118.342z M154.785,114.372c-0.052,0.206-0.105,0.412-0.157,0.618
		c0.424,0.103,0.848,0.205,1.272,0.308c0.05-0.196,0.099-0.391,0.149-0.587C155.628,114.598,155.207,114.485,154.785,114.372z"/>
	<path style="fill:#FFFFFF;" d="M70.237,50.869c1.848-4.775,3.152-9.294,5.752-13.483c2.565,0,5.129-0.052,7.691,0.01
		c6.704,0.163,13.413,0.269,20.11,0.597c6.706,0.328,13.38,0.003,20.038-0.66c6.968-0.694,13.919-0.581,20.883-0.079
		c3.568,0.257,7.142,0.429,10.71,0.673c1.054,0.072,2.1,0.262,2.931,0.369c2.817,3.666,4.074,7.727,5.607,11.649
		c-8.551,1.191-17.023,1.456-25.513,1.433c-2.143-0.006-4.288,0.285-6.431,0.269c-2.408-0.018-4.814-0.239-7.222-0.352
		c-4.015-0.189-8.03-0.506-12.046-0.517c-11.994-0.035-23.988,0.052-35.982,0.089C74.716,50.875,72.665,50.869,70.237,50.869z"/>
	<path style="fill:#FFFFFF;" d="M64.22,102.284c-1.684-1.831-3.49-3.568-5.009-5.527c-0.96-1.238-1.463-2.824-2.225-4.224
		c-2.001-3.679-4.031-7.342-6.048-11.012c-0.257-0.467-0.63-0.91-0.743-1.41c-1.316-5.83-4.56-10.813-7.036-16.132
		c-0.301-0.646-0.638-1.276-0.925-1.928c-0.059-0.133,0.03-0.332,0.104-0.94c2.731,4.19,5.286,8.093,7.823,12.008
		c1.451,2.24,3.025,4.418,4.274,6.767c2.253,4.238,4.32,8.575,6.426,12.89c0.507,1.039,0.859,2.153,1.294,3.227
		c0.561,1.386,1.126,2.77,1.707,4.148c0.261,0.62,0.565,1.223,0.849,1.833C64.547,102.084,64.384,102.184,64.22,102.284z"/>
	<path style="fill:#FFFFFF;" d="M165.686,99.841c2.046-7.505,7.884-12.211,12.806-17.61c0.098,0.115,0.279,0.283,0.26,0.31
		c-1.908,2.681-3.812,5.365-5.773,8.007c-0.358,0.483-0.942,0.808-1.446,1.171c-1.568,1.13-1.573,1.124-1.684,3.373
		C168.496,96.637,167.091,98.239,165.686,99.841z"/>
	<path style="fill:#FFFFFF;" d="M161.848,102.646c0.554-0.363,1.109-0.727,1.663-1.09c0.08,0.063,0.159,0.126,0.239,0.189
		c-0.433,0.51-0.865,1.019-1.297,1.529C162.25,103.065,162.049,102.856,161.848,102.646z"/>
	<path d="M88.304,92.221c0.251,0.043,0.503,0.086,1.039,0.178c-0.417,0.65-0.753,1.176-1.176,1.834
		c-0.503-0.466-0.864-0.801-1.24-1.15c0.559-0.357,0.993-0.634,1.427-0.911L88.304,92.221z"/>
	<path d="M88.354,92.172c-0.497-0.195-0.994-0.389-1.678-0.657c1.338-0.77,1.338-0.77,1.628,0.706L88.354,92.172z"/>
	<path d="M71.363,118.342c0.57-0.037,1.139-0.075,2.029-0.133C72.721,119.528,72.053,119.252,71.363,118.342z"/>
	<path d="M154.785,114.372c0.421,0.113,0.842,0.226,1.264,0.339c-0.05,0.196-0.099,0.391-0.149,0.587
		c-0.424-0.103-0.848-0.205-1.272-0.308C154.681,114.784,154.733,114.578,154.785,114.372z"/>
</g>
<g style="opacity:0.15;">
	<path d="M72.691,108.847c3.247-5.803,4.84-12.149,6.987-18.284c0.877-2.506,1.465-5.113,2.198-7.722
		c20.983-3.522,41.751-2.724,62.787-1.097c0.359,0.802,0.869,1.738,1.208,2.733c2.449,7.183,4.744,14.427,8.48,21.092
		c0.13,0.231,0.28,0.485,0.298,0.738c0.044,0.604,0.014,1.213,0.014,1.778c-6.164,1.474-12.443,1.224-18.695,1.398
		c-2.501,0.07-4.997,0.337-7.496,0.49c-3.033,0.186-6.066,0.376-9.102,0.511c-4.646,0.207-9.294,0.376-13.942,0.548
		c-3.574,0.132-7.149,0.354-10.722,0.337c-3.933-0.019-7.864-0.273-11.797-0.41c-2.047-0.072-4.115-0.315-6.135-0.11
		C75,111.03,73.866,110.383,72.691,108.847z M88.304,92.221c-0.29-1.476-0.29-1.476-1.628-0.706
		c0.684,0.268,1.181,0.463,1.678,0.657c-0.434,0.277-0.868,0.554-1.427,0.911c0.377,0.349,0.737,0.684,1.24,1.15
		c0.422-0.659,0.759-1.184,1.176-1.834C88.806,92.307,88.555,92.264,88.304,92.221z"/>
	<path d="M156.864,107.003c-1.947-2.262-8.977-20.648-9.823-25.302c9.733-0.993,19.476-0.463,29.821-0.797
		c-1.235,1.533-2.069,2.65-2.99,3.689c-0.991,1.118-2.101,2.13-3.09,3.251c-1.001,1.135-1.965,2.309-2.853,3.533
		c-0.771,1.063-1.588,2.148-2.076,3.349c-0.979,2.41-1.886,4.781-4.092,6.438c-0.824,0.619-1.313,1.673-1.997,2.494
		C158.864,104.739,157.923,105.785,156.864,107.003z"/>
	<path d="M79.532,82.917c-2.322,8.976-4.847,17.336-8.731,25.375c-1.801-1.547-2.86-3.516-3.813-5.5
		c-2.775-5.778-5.448-11.605-8.152-17.417c-0.109-0.234-0.125-0.512-0.229-0.964C65.545,83.916,72.422,83.425,79.532,82.917z"/>
</g>
</svg>
