<?xml version="1.0" encoding="utf-8"?>
<!-- Generator: Adobe Illustrator 19.2.1, SVG Export Plug-In . SVG Version: 6.00 Build 0)  -->
<svg version="1.1" id="Ebene_1" xmlns="http://www.w3.org/2000/svg" xmlns:xlink="http://www.w3.org/1999/xlink" x="0px" y="0px"
	 viewBox="0 0 236 181.5" style="enable-background:new 0 0 236 181.5;" xml:space="preserve">
<style type="text/css">
	.st0{fill:#FFFFFF;}
</style>
<polygon class="st0" points="193.2,89.2 194.3,86 186.7,84.5 164.5,83.9 126.2,85.4 91.5,87.2 59.8,86.9 49,90 49.5,91 66.4,91.5 
	92.1,92.5 122.9,91.1 149.1,88.9 172.4,88.4 "/>
<g id="doc00073520160814150808-9.psd_Bild">
	<title>SK_Website-Animation_Einzelbilder</title>
	<path class="st0" d="M196,86.7c-2.6-0.8-4.9-2.7-7.4-2.7c-2,0-3.9-0.1-5.8-0.1c-2.5,0-4.9,0.3-7.4,0.2c-3-0.1-5.9-0.7-8.9-0.8
		c-3.7-0.2-7.4,0-11.1,0.1c-2.6,0.1-5.2,0.1-7.9,0.3c-4.6,0.4-9.1,0.8-13.7,1.2c-5.1,0.4-10.2,0.7-15.3,1c-3.8,0.2-7.6,0.7-11.4,0.7
		c-4.2,0.1-8.4-0.3-12.6-0.1c-6.6,0.1-13.1,0.6-19.7,0.2c-5-0.3-10.1,0.1-15.1,0.2c-2.2,0.2-4.5,0.7-6.8,1.3
		c-3.9,0.7-7.7,1.6-11.8,0.3c-2.3-0.6-4.7-0.7-7.1-0.3c-2.4,0.4-4.9,0.3-7.3,0.4c-1.8,0.1-3.6,0.4-5.3,0.5c-2.5,0.1-4.9,0-7.4,0
		c-0.4,0-0.9-0.2-1.1,0.9c0.6,0.3,1.2,0.5,1.7,0.5c3.3-0.1,6.7-0.4,10-0.5c1.5-0.1,2.9,0,4.4,0c1.3,0.1,2.5,0.2,3.8,0.1
		c3-0.3,6.1-0.7,9.1-0.1c2.3,0.5,4.6,0.1,7,0.1c1.3,0.1,2.6,0,4-0.3c2.6-0.9,5.4-1.3,8.1-1.2c4.9,0.1,9.8-0.1,14.8-0.1
		c6.8,0,13.6-0.5,20.5-0.3c8.3,0.2,16.6-0.2,25-1.1c6.9-0.8,13.8-1,20.7-1.4c5-0.3,10-0.6,15-0.8c4.2-0.3,8.3-0.2,12.6,0.3
		c3.8,0.8,7.6,0.9,11.4,0.7c1.3-0.2,2.5-0.3,3.8-0.3c1.7,0.1,3.4,0.4,5.1,0.8c1,0.3,2.1,0.2,3.4,1.4c-0.7,0.1-1.1,0.3-1.6,0.4
		c-2.8,0.1-5.5,0.3-8.3,0.3c-2.3,0.1-4.5,0-6.7,0.1c-4.9,0.1-9.9,0.2-14.9,0.3c-2.4,0.1-4.7,0.3-7.1,0.3c-1.8,0.1-3.6-0.2-5.4,0
		c-6.1,0.3-12.2,0.7-18.3,1c-4.9,0.3-9.7,0.7-14.6,0.8c-4.1,0.3-8.2,0.4-12.2,0.5c-3.7,0-7.5,0-11.3,0c-6.5-0.1-12.9,0-19.5-0.1
		c-3.3-0.1-6.6-0.3-9.9-0.2c-4,0-8,0.5-12-0.3c-0.6-0.1-1.3,0-1.9,0.4c-0.3,0.3-0.6,0.7-0.8,1.1c1.2,0.4,2.4,0.5,3.6,0.7
		c2.3,0,4.6-0.2,6.9-0.3c3.2-0.1,6.3-0.2,9.5-0.2c3.3,0,6.5,0.3,9.8,0.2c4.6,0,9.1-0.2,13.7-0.2c6,0,11.9,0.1,17.8,0
		c1.1,0,2.1-0.1,3.2-0.2c5.4-0.3,10.8-0.8,16.2-1c3.5-0.1,7.1-0.1,10.7-0.3c4-0.2,8-0.5,12.1-0.8c4.9-0.3,9.9-0.5,14.9-0.7
		c2.2-0.1,4.4,0,6.6,0.1c5.5,0,11-0.1,16.5-0.1c1.8,0,3.5,0,5.3,0.3c4.2,0.4,8.4,0.5,12.7,0.2c0.8-0.1,1.6-0.2,2.5-0.1
		c2.6,0.4,5.2,0.9,7.9,1.3c0.6,0.1,1.4,0.3,2-1.1c-0.5-0.3-1.1-0.5-1.5-0.6c-0.8-0.2-1.6-0.1-2.3-0.3c-3.8-0.9-7.6-1-11.4-0.7
		c-3.2,0.3-6.3-0.3-9.5-0.1c-0.5-0.1-1-0.2-1.5-0.4C194.8,87.2,195.7,88.6,196,86.7z M228.5,91c-0.9-1.2-1.7-0.9-2.5-0.9
		c-0.2,0.2-0.4,0.5-0.5,0.9c0.1,0.3,0.2,0.6,0.5,0.8C226.7,92.2,227.7,91.9,228.5,91z M4.5,89.7c1.3,1.2,1.8,1,2.7-0.3
		C6.2,89.2,5.3,89.2,4.5,89.7z M222.8,90.5c-0.1-0.3-0.2-0.5-0.3-0.7c-0.3-0.6-0.9-0.6-1.2,0l-0.1,0.1c0,0.3-0.1,0.7,0,1
		c0.4,0.1,0.8,0.2,1.2,0.2C222.6,90.9,222.7,90.7,222.8,90.5L222.8,90.5z M10.8,89.4c0.8,1.5,0.8,1.5,1.7,0.5
		C12,89.2,11.4,89,10.8,89.4L10.8,89.4z M233.7,91.1c-0.7-0.3-1.2-0.4-1.5,0.8C232.8,92.4,233.2,92.2,233.7,91.1L233.7,91.1z"/>
	<path d="M196,86.7c-0.3,1.9-1.1,0.4-1.8,1.3c0.5,0.2,1,0.4,1.5,0.4c3.2-0.1,6.3,0.5,9.5,0.1c3.8-0.4,7.6-0.2,11.4,0.7
		c0.8,0.2,1.5,0.1,2.3,0.3c0.6,0.2,1.1,0.4,1.5,0.6c-0.6,1.4-1.3,1.2-2,1.1c-2.6-0.4-5.2-0.9-7.9-1.3c-0.9-0.1-1.6,0-2.5,0.1
		c-4.2,0.3-8.5,0.2-12.7-0.2c-1.7-0.2-3.5-0.3-5.3-0.3c-5.5,0-11,0.1-16.5,0.1c-2.2,0-4.4-0.1-6.6-0.1c-4.9,0.2-9.9,0.4-14.9,0.7
		c-4,0.3-8,0.5-12.1,0.8c-3.5,0.1-7.1,0.1-10.7,0.3c-5.4,0.3-10.8,0.7-16.2,1c-1.1,0-2.1,0.2-3.2,0.2c-6,0-11.9-0.1-17.8,0
		c-4.6,0.1-9.1,0.2-13.7,0.2c-3.3,0-6.5-0.3-9.8-0.2c-3.2,0-6.3,0.1-9.5,0.2c-2.3,0.1-4.6,0.3-6.9,0.3c-1.2-0.2-2.4-0.3-3.6-0.7
		c0.2-0.5,0.5-0.8,0.8-1.1c0.6-0.2,1.2-0.3,1.9-0.4c4,0.8,8,0.2,12,0.3c3.3,0,6.6,0.3,9.9,0.2c6.5,0.1,12.9,0.1,19.5,0.1
		c3.7,0.1,7.5,0.1,11.3,0c4.1-0.1,8.2-0.3,12.2-0.5c4.9-0.3,9.7-0.6,14.6-0.8c6.1-0.3,12.2-0.8,18.3-1c1.8-0.1,3.6,0.1,5.4,0
		c2.4-0.1,4.7-0.3,7.1-0.3c4.9-0.1,9.9-0.2,14.9-0.3c2.3,0,4.5,0,6.7-0.1c2.8-0.1,5.5-0.2,8.3-0.3c0.4,0,0.8-0.1,1.6-0.4
		c-1.3-1.2-2.4-1.1-3.4-1.4c-1.7-0.4-3.4-0.7-5.1-0.8c-1.3,0-2.5,0.1-3.8,0.3c-3.8,0.2-7.6,0.1-11.4-0.7c-4.2-0.5-8.4-0.6-12.6-0.3
		c-5,0.2-10,0.5-15,0.8c-6.9,0.4-13.8,0.6-20.7,1.4c-8.3,0.9-16.7,1.3-25,1.1c-6.8-0.1-13.6,0.3-20.5,0.3c-4.9,0-9.8,0.2-14.8,0.1
		c-2.8-0.2-5.4,0.2-8.1,1.2C51.7,90,50.4,90,49,90c-2.3,0-4.7,0.4-7-0.1c-3.1-0.7-6.1-0.2-9.1,0.1c-1.3,0.1-2.5-0.1-3.8-0.1
		c-1.5,0-2.9-0.1-4.4,0c-3.3,0.1-6.7,0.4-10,0.5c-0.6-0.1-1.2-0.3-1.7-0.5c0.3-1.1,0.8-0.9,1.1-0.9c2.5,0,4.9,0.1,7.4,0
		c1.8-0.1,3.6-0.3,5.3-0.5c2.4-0.2,4.9,0,7.3-0.4c2.4-0.5,4.7-0.4,7.1,0.3c3.9,1.3,7.9,0.3,11.8-0.3c2.2-0.6,4.5-1,6.8-1.2
		c5-0.1,10-0.5,15.1-0.2c6.6,0.5,13.2-0.1,19.7-0.2c4.2-0.1,8.4,0.3,12.6,0.1c3.8,0,7.6-0.5,11.4-0.7c5.1-0.3,10.2-0.6,15.3-1
		c4.6-0.4,9.1-0.8,13.7-1.2c2.6-0.2,5.2-0.2,7.9-0.3c3.7,0,7.4-0.2,11.1-0.1c3,0.1,5.9,0.7,8.9,0.8c2.5,0.1,4.9-0.2,7.4-0.2
		c1.9-0.1,3.9,0.1,5.9,0.1C191.1,84,193.4,86,196,86.7z"/>
	<path d="M228.5,91c-0.7,0.9-1.7,1.2-2.6,0.7c-0.2-0.1-0.4-0.4-0.5-0.8c0-0.4,0.3-0.7,0.5-0.9C226.7,90,227.6,89.8,228.5,91z"/>
	<path d="M4.5,89.7c0.8-0.4,1.7-0.6,2.7-0.3C6.2,90.8,5.8,90.9,4.5,89.7z"/>
	<path d="M222.8,90.5c-0.1,0.2-0.2,0.4-0.4,0.5c-0.4,0-0.8-0.1-1.2-0.2c-0.1-0.3-0.1-0.7,0-1c0.3-0.6,0.8-0.7,1.2-0.2l0.1,0.1
		C222.6,90,222.7,90.2,222.8,90.5z"/>
	<path d="M10.8,89.4c0.6-0.4,1.3-0.1,1.7,0.5C11.6,90.8,11.6,90.9,10.8,89.4z"/>
	<path d="M233.7,91.1c-0.4,1.1-0.9,1.3-1.5,0.8C232.5,90.7,233,90.8,233.7,91.1z"/>
</g>
</svg>
