<?xml version="1.0" encoding="utf-8"?>
<!-- Generator: Adobe Illustrator 19.2.1, SVG Export Plug-In . SVG Version: 6.00 Build 0)  -->
<svg version="1.1" id="Ebene_1" xmlns="http://www.w3.org/2000/svg" xmlns:xlink="http://www.w3.org/1999/xlink" x="0px" y="0px"
	 viewBox="0 0 236 181.5" style="enable-background:new 0 0 236 181.5;" xml:space="preserve">
<style type="text/css">
	.st0{fill:#1D1D1B;}
	.st1{fill:#FFFFFF;}
</style>
<path class="st0" d="M153.5,100.4c0.5,0,0.9,0.1,1.2,0c0.5,0,1-0.2,1.5-0.2c2.3-0.1,4.7,0.5,7-0.1c0.2,0,0.3,0,0.5,0.1
	c1.2,0.4,2.4,0.3,3.6,0.3c0.6,0,1.1,0,1.7,0.2c2.9,0.7,5.8,0.9,8.7,0.5c1.4-0.2,2.8-0.2,4.1,0.2c1.2,0.4,2.4,0.4,3.6,0.3
	c1-0.1,1.9-0.2,2.9-0.3c0.5,0,0.9,0,1.4,0c1.2,0,2.4,0.1,3.6,0c0.9-0.1,1.8-0.4,2.7-0.5c2.5-0.2,5-0.4,7.5-0.5
	c0.2,0,0.4,0.2,0.9,0.5c-0.7,0.2-1.1,0.3-1.5,0.3c-1.2,0-2.4,0-3.6,0c-1.6,0.1-3.2,0-4.8,0.5c-1.8,0.6-3.6,0.8-5.2,0.3
	c-2,0.3-3.9,0.7-5.8,0.4c-2.6-0.5-5.2-0.8-7.8,0.2c-0.1,0-0.2,0.1-0.3,0.1c-1.7-0.1-3.4-0.2-5.1-0.4c-0.9-0.1-1.8-0.2-2.7,0
	c-0.7,0.2-1.5,0-2.2-0.1c-0.9-0.2-1.8-0.3-2.7-0.2c-1.3,0.2-2.5,0.1-3.7-0.2c-0.4-0.1-0.9-0.2-1.3-0.2c-1.1,0.1-2.3,0.4-3.4,0.6
	c-0.5,0.1-0.9,0.2-1.3,1C153.3,104.7,153.5,99.9,153.5,100.4"/>
<path class="st0" d="M87.1,100.4c-0.5,0-0.9,0.1-1.3,0c-0.5,0-1.1-0.2-1.6-0.2c-2.4-0.1-4.9,0.5-7.3-0.1c-0.2,0-0.4,0-0.5,0.1
	c-1.2,0.4-2.5,0.3-3.7,0.3c-0.6,0-1.2,0-1.8,0.2c-3,0.7-6,0.9-9.1,0.5c-1.4-0.2-2.9-0.2-4.3,0.2c-1.2,0.4-2.5,0.4-3.7,0.3
	c-1-0.1-2-0.2-3-0.3c-0.5,0-1,0-1.4,0c-1.2,0-2.5,0.1-3.7,0c-0.9-0.1-1.9-0.4-2.8-0.5c-2.6-0.2-5.2-0.4-7.8-0.5
	c-0.2,0-0.4,0.2-0.9,0.5c0.8,0.2,1.2,0.3,1.5,0.3c1.2,0,2.5,0,3.7,0c1.7,0.1,3.4,0,5,0.5c1.9,0.6,3.7,0.8,5.4,0.3
	c2.1,0.3,4.1,0.7,6.1,0.4c2.7-0.5,5.4-0.8,8.1,0.2c0.1,0,0.2,0.1,0.4,0.1c1.8-0.1,3.6-0.2,5.3-0.4c0.9-0.1,1.9-0.2,2.8,0
	c0.7,0.2,1.5,0,2.3-0.1c0.9-0.2,1.9-0.3,2.8-0.2c1.3,0.2,2.6,0.1,3.9-0.2c0.5-0.1,0.9-0.2,1.4-0.2c1.2,0.1,2.4,0.4,3.5,0.6
	c0.5,0.1,0.9,0.2,1.3,1C87.3,104.7,87.1,99.9,87.1,100.4"/>
<g id="doc00073520160814150808-33.psd_Bild">
	<title>SK_Website-Animation_Einzelbilder</title>
	<path d="M129.2,60.2l3.9-9.7c0.4-1.1,0.9-2.2,1.4-3.3c0.6-0.9,0.7-1.9,0.4-2.9c-0.3-0.8,0.1-1.8,0.9-2.1c0.3-0.1,0.7-0.1,1.1,0
		c3.1,1.2,6.3,0.6,9.5,0.9c4.6,0.3,9.2,0.7,13.9,0.9c1.5,0.1,3-0.1,4.5-0.1c4.8,0,9.6,0,14.3,0c0.7,0,1.4,0.2,2.1,0.5
		c0.7,0.2,1.1,0.9,0.9,1.6c-0.1,0.3-0.3,0.6-0.6,0.7c-1.5,1-1.9,2.6-2.4,4c-0.8,2.2-1.9,4.2-3.2,6.1c-1,1.6-1.9,3.3-2.6,5.1
		c-0.8,1.8-0.7,4-2.8,5.2c0.8,0.9,2,1.4,3.2,1.6c2.6,0.4,5.1,1,7.7,1.5c3.5,0.8,6.9,1.8,10.6,1.5c0.5-0.1,1.1,0.1,1.5,0.5
		c0.7,0.8,0.6,1.9-0.1,2.7c-5.2-0.1-10.2,1.3-15.2,2.6c-1.3,0.4-2.7,0.4-4,0.6c-1.8,0.3-3.6,0.6-5.2,0.9c0.1,2.8,0.2,5.4,0.4,8
		c0.1,2.3,0.2,4.6,0.3,6.9c0,0.3,0,0.7,0,1c-0.6,3.3,0.5,6.7,0,10c-0.6,3.5,0.4,6.8,0.5,10.2c0.1,0.7,0.3,1.4,0.5,2
		c0.4,1.3-0.2,2.3-1.4,2.1c-2.4-0.4-4.5,0.8-6.7,1.3c-4.3,1-8.5,2.6-12.8,3.8c-6,1.7-12,3.2-18,4.9c-2.4,0.7-4.6,1.8-6.9,2.5
		c-1.1,0.3-2.3,0.4-3.5,0.3c-1.4-0.2-2.9,0-4.1,0.7c-1.5,0.8-3.3,0.9-4.9,0.3c-2.7-0.8-5.4-1.4-8.1-2.1l-4.6-1.2
		c-1.3-0.4-2.6-0.8-3.9-1c-4.7-0.4-9.2-2-13.8-3.1c-3.5-0.8-6.7-2.5-10-3.8c-1.1-0.5-2.3-0.6-3.5-0.2c-0.7,0.2-2,0.5-2.1,0.2
		c-0.5-0.8-0.8-1.8-0.8-2.8c0.3-2.2,0.3-4.5-0.1-6.8c-0.4-1.7-0.1-3.6-0.2-5.4c-0.2-3.4-0.5-6.8-0.6-10.2c-0.2-3.8-0.3-7.6-0.4-11.4
		c0-1.3-0.1-2.5-0.2-3.9c-1.7-0.3-3.4-0.6-5-1.1c-5.1-1.6-10.3-2.8-15.6-3.6c-0.9-0.3-1.7-0.8-2.5-1.4c1.2-2.2,3.3-2.5,5.1-3.3
		c4.8-2.1,9.7-4,14.5-6c1.3-0.6,2-1.9,1.9-3.3c0-2-0.2-4-0.5-5.9c-0.5-3.6-1.2-7.2-1.9-10.8c-0.2-1.2-1-2.3-1.4-3.6
		c-0.2-0.7-0.1-1.4,0.2-2c0.6-0.4,1.2-0.5,1.9-0.4c4.2,0.7,8.3,1.5,12.5,2.3c1.7,0.2,3.5,0.5,5.1,1c3.2,1.2,6.5,0.4,9.7,0.8
		c5.1,0.6,10.2,0.2,15.3,0.2c4.4-0.1,8.8,0.5,13.1,0.8c2.1,0.1,4.3,0.5,6.3-0.6c0.6-0.3,1.4-0.4,2-0.1c0.7,0.4,1,1.3,0.6,2
		c0,0,0,0.1-0.1,0.1c-0.2,0.6-0.3,1.2-0.1,1.9C126.1,52.1,126.8,56.2,129.2,60.2z M114.5,79.2c-0.2,2.2-0.3,4.1-0.7,5.9
		c-0.4,2.1-0.4,4.3,0,6.4c0.1,0.8,0.2,1.6,0.2,2.3c0,1-0.2,1.9-0.2,2.8c-0.2,2.9,0.9,5.7,0.2,8.6c0,0.4,0,0.8,0.1,1.2
		c0.2,3.2,0.8,6.3,0.7,9.5c-0.2,4.8,0.3,9.6,1.7,14.3c1.4-0.1,2.7-0.2,4.1-0.2c2.1-0.1,4.1,0,6-1.2c0.7-0.4,1.5-0.7,2.2-0.9
		c2.7-0.7,5.4-1.4,8-2.1c1.1-0.3,2.3-0.6,3.5-0.9c5.1-1.5,10.1-2.9,15.2-4.4c3.5-1,7.1-2,10.6-3c0.8-0.3,1.6-0.6,2.4-1
		c-0.1-0.8-0.1-1.4-0.1-2c-0.1-2.1-0.7-4.2-0.7-6.4c0-3.5,1-7-0.2-10.5c0-0.3,0-0.6,0.1-0.9c0-2.5,0.1-5.1,0.1-7.6
		c0-2.4-0.2-4.8-0.3-7.2c0-0.8-0.1-1.6-0.1-2.5c-4.5,0.8-8.8,1.4-13,2.4c-5.7,1.4-11.6,2-17,4.7c-0.9,0.5-1.7,0.7-2.2-0.7
		c-0.4-0.6-1-1-1.6-1.1c-2.8-0.8-5.5-1.4-8.3-2.1c-1.1-0.3-2.1-0.6-3.2-1C119.3,80.6,117,79.8,114.5,79.2L114.5,79.2z M111.5,79.3
		c-1.1,0.3-2.2,0.5-3.2,0.9c-4.2,1.6-8.5,3.3-12.7,5c-1.5,0.7-3.1,0.8-4.7,0.5c-1.6-0.4-3.3-0.7-4.9-0.9c-1.2-0.2-2.4-0.1-3.6-0.3
		C77,83.7,71.6,82.9,66,82c0,0.9-0.1,1.7-0.1,2.4c0.1,2.9,0.2,5.9,0.4,8.8c0.2,3.6,0.4,7.3,0.5,11c0.2,4.2,0.3,8.4,0.4,12.6
		c0,0.6,0.1,1.1,0.2,1.7c3,1.1,5.9,2.1,8.8,3.2c2.2,0.8,4.2,1.9,6.5,2.5c4.5,1.2,8.9,2.3,13.5,3.1c3.6,0.6,6.8,3,10.6,2.2
		c0.1,0,0.2,0,0.2,0.1l6.5,1.6c1.1-1.3,1.2-3,0.4-4.5c-0.9-2-1.3-4.3-1.1-6.5c0.1-2.1,0.2-4.1,0.1-6.2c-0.1-3.2-0.5-6.4-0.6-9.5
		c-0.1-3.4,0-6.9,0-10.3c0-1.1,0-2.2-0.2-3.3c-0.5-2.3-0.5-4.6,0-6.9C112.6,82.5,112.3,80.7,111.5,79.3L111.5,79.3z M126.9,60.7
		c-0.4-1.2-0.8-2.2-1.1-3.3c-0.8-2.9-1.6-5.7-2.2-8.6c-0.1-1.2-1.2-2.1-2.5-2.1c-1.3-0.1-2.5-0.2-3.8-0.3c-4.5-0.3-9.1-0.7-13.6-0.9
		c-4.4-0.1-8.8,0-13.2,0c-1.9,0-3.8-0.2-5.7-0.3c-2.5-0.2-4.9-0.4-7.3-0.8c-4.8-0.8-9.6-1.8-14.4-2.5c-2.2-0.4-2.6,0.2-2.1,2.4
		c0.6,2.4,1.2,4.8,1.7,7.2c0.4,1.9,0.8,3.7,1.2,5.6c0.5,2.6,1,5.3,1.5,8.1c1.5-0.1,3.1-0.4,4.8-0.4c10.1-0.1,20.3-0.2,30.4-0.4
		c2.1,0,4.1-0.1,6.2-0.4c4.6-0.5,9.2-1.2,13.8-1.8C122.6,61.9,124.8,61.8,126.9,60.7L126.9,60.7z M131,61c2.2,0.6,4.5,1.2,6.8,1.6
		c5.6,0.7,11.2,1.3,16.9,1.9c0.4,0,0.8,0,1.2,0c3.2,0.4,6.4,0.4,9.4,1.2c1.6,0.7,3.5,0.1,4.5-1.4c0.4-0.5,0.7-1.1,1-1.6
		c0.6-1.5,1.3-2.9,2.1-4.3c2.2-3.4,4-7,5.6-10.8c0.2-0.5,0.3-1.1,0.4-1.6c-0.4-0.1-0.9-0.1-1.3-0.2c-4.9-0.1-9.7-0.6-14.5-0.1
		c-0.7,0-1.4,0-2.1-0.1l-15.3-0.8c-2.2-0.1-4.5-0.2-6.7-0.4c-1-0.3-2,0.2-2.4,1.2c-0.8,2-1.5,4-2.2,6C133.1,54.7,132.1,57.7,131,61
		L131,61z M110,77.8c-3.5-2.2-7.4-3.7-11.5-4.5c-1.8-0.3-3.6-0.9-5.3-1.3c-2.4-0.6-4.8-1.3-7.2-1.7c-3.6-0.6-7.3-0.9-10.9-1.4
		c-2.2-0.3-4.4-0.6-6.6-1.1S64,68.6,62,67.1c-0.2,0-0.3,0-0.5,0.1c-1.4,0.6-2.8,1.1-4.2,1.7c-1,0.5-2,1-3,1.4
		c-3,0.8-5.9,2.1-8.4,3.9c-0.4,0.4-0.7,0.8-1,1.2l2.8,0.4c1.3,0.1,2.5,0.3,3.8,0.6c2.6,0.7,5.2,1.5,7.8,2.3s5.4,0.8,8,1.8
		s5.6,1.1,8.5,1.5c3.9,0.5,7.7,1,11.6,1.3c3.2,0.3,6.5,1.2,9.6-0.4c1.3-0.6,2.6-1.1,4-1.5L110,77.8z M163.6,67.1
		c-1.3-0.4-2.6-0.7-3.9-0.9c-4.1-0.5-8.3-0.7-12.4-1.2c-4.6-0.5-9.2-0.2-13.7-1.8c-1.1-0.4-2.5-1.1-3.9-0.3c-0.2,3,0.3,5.9-0.4,9.1
		c-1.9-1.2-1.7-2.8-1.7-4.3s0-3,0-4.7c-2,0.2-3.6,0.3-5.3,0.5c-4.2,0.5-8.4,1-12.6,1.4c-2.7,0.3-5.4,0.8-8,0.9
		c-4.2,0.2-8.5,0-12.7,0.1c-5.1,0-10.2,0.1-15.3,0.2c-1,0-2,0.2-3,0.3c0.9,0.5,2,0.8,3,0.9c2.9,0.4,5.7,0.6,8.5,1.1
		c3.4,0.6,6.7,1,10,1.9c5.7,1.6,11.5,2.5,16.9,4.8c1.3,0.6,2.7,0.9,4.1,0.8c3.7-0.4,7.4-1.1,11-1.8c1.6-0.3,3.1-0.8,4.7-1
		c5.9-0.8,11.9-1.5,17.8-2.3c2.4-0.3,4.7-1,7-1.4c2.7-0.5,5.5-1,8.2-1.6C162.6,67.7,163.1,67.4,163.6,67.1L163.6,67.1z M188.2,73.3
		c-0.1-0.1-0.3-0.2-0.5-0.3c-3.1-0.5-6.4-0.6-9.3-2c-0.4-0.1-0.8-0.2-1.2-0.2c-2.6-0.4-5.4,0-7.8-1.6c-0.4-0.1-0.8-0.1-1.2,0
		c-0.5,0.1-0.9,0-1.4-0.1c-1.3-0.8-2.4-0.4-3.6,0.1c-0.6,0.3-1.3,0.5-2,0.6c-2.3,0.5-4.5,0.9-6.8,1.3c-4.5,0.8-8.9,1.6-13.4,2.3
		c-3.7,0.6-7.4,1-11.1,1.5c-3.4,0.5-6.8,1-10.1,1.6c-1.2,0.2-2.4,0.5-3.7,0.8c3.8,1.8,7.5,3.8,11.7,4c1.1,0,2.2,0.2,3.2,0.7
		c2.7,1.8,6.1,2.3,9.3,1.5c4-0.9,7.9-2.4,12-2.8c0.2,0,0.5-0.1,0.7-0.2c5-1,10-2.1,15-3.1c4.1-0.8,8.1-1.6,12.2-2.4
		C182.8,74.6,185.4,74,188.2,73.3L188.2,73.3z"/>
	<path class="st1" d="M114.5,79.2c2.5,0.7,4.9,1.5,7.2,2.4c1,0.4,2.1,0.7,3.2,1c2.8,0.7,5.6,1.4,8.3,2.1c0.7,0.1,1.3,0.5,1.6,1.1
		c0.5,1.4,1.3,1.1,2.2,0.7c5.3-2.7,11.3-3.3,17-4.7c4.2-1,8.4-1.6,13-2.4c0,0.9,0.1,1.7,0.1,2.5c0.1,2.4,0.3,4.8,0.3,7.2
		c0,2.5-0.1,5.1-0.1,7.6c-0.1,0.3-0.1,0.6-0.1,0.9c1.2,3.5,0.2,7,0.2,10.5c0,2.2,0.5,4.2,0.7,6.4c0,0.6,0.1,1.3,0.1,2
		c-0.8,0.4-1.6,0.7-2.4,1c-3.5,1-7.1,2-10.6,3c-5.1,1.5-10.1,2.9-15.2,4.4c-1.1,0.3-2.3,0.6-3.5,0.9c-2.7,0.7-5.4,1.4-8,2.1
		c-0.8,0.2-1.5,0.5-2.2,0.9c-1.9,1.1-3.9,1.1-6,1.2c-1.3,0-2.6,0.1-4.1,0.2c-1.3-4.6-1.9-9.5-1.7-14.3c0.2-3.1-0.4-6.3-0.7-9.5
		c-0.1-0.4-0.1-0.8-0.1-1.2c0.8-2.9-0.4-5.7-0.2-8.6c0.1-1,0.2-1.9,0.2-2.8c0-0.8,0-1.6-0.2-2.3c-0.5-2.1-0.5-4.3,0-6.4
		C114.2,83.3,114.3,81.3,114.5,79.2z"/>
	<path class="st1" d="M111.5,79.3c0.9,1.4,1.2,3.1,0.7,4.8c-0.5,2.3-0.5,4.6,0,6.9c0.2,1.1,0.2,2.2,0.2,3.3c0,3.4-0.1,6.9,0,10.3
		c0.1,3.2,0.5,6.4,0.6,9.5c0.1,2.1,0,4.1-0.1,6.2c-0.2,2.2,0.2,4.4,1.1,6.5c0.8,1.4,0.7,3.2-0.4,4.5l-6.5-1.6
		c-0.1,0-0.1-0.1-0.2-0.1c-3.8,0.7-7-1.6-10.6-2.2c-4.5-0.8-9-1.9-13.5-3.1c-2.2-0.6-4.3-1.7-6.5-2.5c-2.9-1.1-5.8-2.1-8.8-3.2
		c-0.1-0.6-0.2-1.1-0.2-1.7c-0.1-4.2-0.2-8.4-0.4-12.6c-0.1-3.6-0.4-7.3-0.5-11c-0.1-2.9-0.2-5.9-0.4-8.8c0-0.8,0.1-1.6,0.1-2.4
		c5.6,0.9,11,1.7,16.4,2.5c1.2,0.2,2.4,0.1,3.6,0.3c1.6,0.2,3.3,0.6,4.9,0.9s3.2,0.2,4.7-0.5c4.2-1.7,8.4-3.4,12.7-5
		C109.3,79.8,110.4,79.6,111.5,79.3z"/>
	<path class="st1" d="M126.9,60.7c-2.1,1.1-4.3,1.1-6.4,1.4c-4.6,0.6-9.2,1.3-13.8,1.8c-2.1,0.2-4.1,0.4-6.2,0.4
		c-10.1,0.1-20.3,0.2-30.4,0.4c-1.7,0-3.3,0.3-4.8,0.4c-0.5-2.8-1-5.5-1.5-8.1c-0.4-1.9-0.8-3.7-1.2-5.6c-0.5-2.4-1.1-4.8-1.7-7.2
		c-0.5-2.1-0.1-2.7,2.1-2.4c4.8,0.8,9.6,1.8,14.4,2.5c2.4,0.4,4.9,0.6,7.3,0.8c1.9,0.2,3.8,0.3,5.7,0.3c4.4,0,8.8-0.1,13.2,0
		c4.5,0.2,9.1,0.6,13.6,0.9c1.3,0.1,2.5,0.2,3.8,0.3c1.2-0.1,2.3,0.8,2.5,2.1c0.6,2.9,1.4,5.7,2.2,8.6
		C126,58.5,126.4,59.5,126.9,60.7z"/>
	<path class="st1" d="M131,60.9c1.1-3.2,2.1-6.3,3.2-9.3c0.7-2,1.4-4.1,2.2-6c0.4-0.9,1.4-1.4,2.4-1.2c2.2,0.2,4.4,0.3,6.7,0.4
		l15.3,0.8c0.7,0.1,1.4,0.1,2.1,0.1c4.9-0.5,9.7,0.1,14.5,0.1c0.4,0,0.9,0.1,1.3,0.2c-0.1,0.6-0.2,1.1-0.4,1.6
		c-1.5,3.8-3.4,7.4-5.6,10.8c-0.8,1.4-1.5,2.8-2.1,4.3c-0.3,0.6-0.6,1.1-1,1.6c-1,1.4-2.8,2-4.4,1.3c-3-0.9-6.3-0.9-9.4-1.2
		c-0.4,0-0.8,0-1.2,0c-5.6-0.6-11.3-1.1-16.9-1.9C135.5,62.1,133.2,61.6,131,60.9z"/>
	<path class="st1" d="M109.9,77.8l-9,3.4c-1.4,0.4-2.7,0.9-4,1.5c-3.2,1.6-6.4,0.7-9.6,0.4c-3.9-0.3-7.8-0.8-11.6-1.3
		c-2.8-0.4-5.8-0.5-8.5-1.5s-5.4-1-8-1.8s-5.2-1.6-7.8-2.3c-1.2-0.3-2.5-0.5-3.8-0.6l-2.8-0.4c0.3-0.4,0.6-0.8,1-1.2
		c2.6-1.7,5.4-3,8.4-3.9c1-0.4,2-0.8,3-1.4c1.4-0.6,2.8-1.1,4.2-1.7c0.1-0.1,0.3-0.1,0.5-0.1c2,1.5,4.4,0.2,6.5,0.7s4.4,0.9,6.6,1.1
		c3.6,0.5,7.3,0.8,10.9,1.4c2.4,0.4,4.8,1.1,7.2,1.7c1.8,0.4,3.5,1,5.3,1.3C102.6,74.1,106.4,75.7,109.9,77.8z M89.1,81.8
		c-0.3-1.6-0.3-1.6-1.2-1.5c-0.2,0.1-0.5,0.3-0.6,0.5L89.1,81.8z M87.4,77.6L87.2,77l-1.1,0.4c0.1,0.2,0.2,0.4,0.4,0.5
		C86.8,78,87.1,77.9,87.4,77.6L87.4,77.6z"/>
	<path class="st1" d="M188.2,73.3c-2.8,0.6-5.4,1.2-8,1.8c-4,0.8-8.1,1.6-12.2,2.4c-5,1-10,2-15,3.1c-0.2,0.1-0.5,0.1-0.7,0.2
		c-4.1,0.4-8,1.9-12,2.8c-3.2,0.8-6.5,0.3-9.3-1.5c-1-0.5-2.1-0.7-3.2-0.7c-4.2-0.2-7.9-2.2-11.7-4c1.2-0.3,2.4-0.6,3.7-0.8
		c3.4-0.6,6.8-1.1,10.1-1.6c3.7-0.5,7.4-0.9,11.1-1.5c4.5-0.7,9-1.5,13.4-2.3c2.3-0.4,4.5-0.8,6.8-1.3c0.7-0.1,1.4-0.3,2-0.6
		c1.2-0.5,2.4-0.9,3.6-0.1c0.4,0.1,0.9,0.2,1.4,0.1c0.4-0.1,0.8-0.1,1.2,0c2.4,1.7,5.1,1.2,7.8,1.6c0.4,0,0.8,0.1,1.2,0.2
		c3,1.3,6.2,1.4,9.3,2C187.8,73.1,188,73.2,188.2,73.3z"/>
	<path d="M89.1,81.9l-1.8-1.1c0.2-0.2,0.4-0.4,0.6-0.5C88.8,80.3,88.8,80.3,89.1,81.9z"/>
	<path d="M87.4,77.7c-0.3,0.2-0.6,0.3-0.9,0.4c-0.2-0.2-0.3-0.3-0.4-0.5l1.1-0.4L87.4,77.7z"/>
</g>
</svg>
