<?xml version="1.0" encoding="utf-8"?>
<!-- Generator: Adobe Illustrator 19.2.1, SVG Export Plug-In . SVG Version: 6.00 Build 0)  -->
<svg version="1.1" id="Ebene_1" xmlns="http://www.w3.org/2000/svg" xmlns:xlink="http://www.w3.org/1999/xlink" x="0px" y="0px"
	 viewBox="0 0 236 181.5" style="enable-background:new 0 0 236 181.5;" xml:space="preserve">
<style type="text/css">
	.st0{fill:#FFFFFF;}
</style>
<g id="doc00073520160814150808-23.psd_Bild">
	<title>SK_Website-Animation_Einzelbilder</title>
	<path class="st0" d="M171.1,68.6c-2.5-0.3-4.6-0.7-6.7-0.9c-3.2-0.3-6.5-0.3-9.7-0.6c-2.5-0.2-5-0.5-7.4-0.9
		c-1.3-0.2-2.5-0.7-3.9-0.9c-3.9-0.6-7.7-1.2-11.6-1.7c-0.3-0.1-0.6-0.1-0.9-0.1c-4,0.3-7.9,0.6-11.9,0.8c-4.3,0.2-8.7,0.2-13,0.3
		l-6,0.1c-3,0.1-6.1,0.1-9,0.2c-4,0.1-7.9,0.3-12,0.3c-2.7,0-5.4-0.4-8.3-0.5c-2.3-0.1-3.5,0.9-3.5,3.2c0,2.5,0.4,5,0.5,7.4
		c0.1,1.8,0.2,3.5,0.1,5.2c0,2.1-0.2,4.2-0.3,6.3c-0.1,2.2,0,4.5-0.1,6.8c-0.3,4.3-0.3,8.7-0.3,13c0,2.3,0.7,4.6-0.3,6.9
		c-0.3,0.8,0.3,1.7,1.5,2c2.1,0.5,4.2,1.2,6.3,1.6c3.8,0.7,7.2,3.2,11.3,2.9c0.4,0.1,0.8,0.2,1.2,0.3c0.9,0.2,1.9,0.4,2.8,0.7
		c1.2,0.2,2.3,0.6,3.3,0.9c2.5,1,5,2.2,7.5,3.2c1.4,0.4,2.7,0.9,4,1.5c1.4,0.8,2.5,1.4,4.1,0.3c0.6-0.4,1.5-0.5,2.2-0.5
		c6.3,0.2,12.4-1.4,18.7-1.9c4.9-0.4,9.8-0.8,14.7-1.3c2.4-0.1,4.8-0.4,7.2-0.7c5.1-1,10.1-2.6,15.5-2.5c2,0,2.6-0.9,2.4-2.9
		c-0.2-2-0.3-4-0.3-6c0-1.7,0.2-3.3,0.2-5s0-3.3,0.2-5c0.5-3.2,0.6-6.5,0.2-9.7c-0.2-1-0.1-2.2,0.2-3.2c1-3.5,0.5-7,0.3-10.5
		c-0.2-1.9-0.1-3.9,0.4-5.6C170.8,71.1,171,69.9,171.1,68.6z"/>
	<path d="M171.1,68.6c-0.1,1.3-0.2,2.5-0.5,3.8c-0.4,1.9-0.6,3.8-0.4,5.6c0.2,3.5,0.7,7-0.3,10.5c-0.3,1-0.3,2.2-0.2,3.2
		c0.4,3.2,0.3,6.5-0.2,9.7c-0.2,1.7-0.1,3.3-0.2,5c-0.1,1.7-0.3,3.3-0.2,5c0,2,0.1,4,0.3,6s-0.4,2.9-2.4,2.9
		c-5.3-0.1-10.4,1.5-15.5,2.5c-2.4,0.4-4.8,0.6-7.2,0.7c-4.9,0.4-9.8,0.8-14.7,1.3c-6.3,0.4-12.3,2.1-18.7,1.9
		c-0.7-0.1-1.5,0.1-2.2,0.5c-1.6,1-2.7,0.5-4.1-0.3c-1.3-0.6-2.6-1.2-4-1.5c-2.5-1-5-2.2-7.5-3.2c-1-0.4-2.2-0.7-3.3-0.9
		c-0.9-0.2-1.9-0.5-2.8-0.7c-0.4-0.2-0.7-0.3-1.2-0.3c-4.1,0.3-7.4-2.2-11.3-2.9c-2.1-0.4-4.2-1-6.3-1.6c-1.2-0.2-1.8-1.2-1.5-2
		c1-2.3,0.3-4.6,0.3-6.9c0-4.3,0-8.7,0.3-13c0.2-2.2,0-4.5,0.1-6.8c0.1-2.1,0.2-4.2,0.3-6.3c0-1.8,0-3.5-0.1-5.2
		c-0.1-2.5-0.5-5-0.5-7.4c0-2.3,1.2-3.3,3.5-3.2c2.7,0.1,5.5,0.5,8.3,0.5c4,0,7.9-0.2,12-0.3c3-0.1,6.1-0.1,9-0.2l6-0.1
		c4.3-0.1,8.7-0.1,13-0.3c4-0.2,7.9-0.5,11.9-0.8c0.3,0,0.6,0,0.9,0.1c3.9,0.5,7.7,1,11.6,1.7c1.3,0.2,2.5,0.7,3.9,0.9
		c2.5,0.4,4.9,0.7,7.4,0.9c3.2,0.3,6.5,0.3,9.7,0.6C166.5,67.9,168.4,68.2,171.1,68.6z M152.1,70.2c-3.5,0.1-6.7,0.5-9.9,0.3
		c-5.6-0.5-11.2,0.2-16.7,0.9c-4.3,0.5-8.6,0.6-13,1c-1.5,0-2.9,0.3-4.3,0.8c-1,0.5-2.3,0.5-3.3,0.1c-2.2-0.7-4.5-1.7-7-1.2
		c-0.8,0.1-1.7,0-2.5-0.3c-8.4-1.5-16.7-4.1-25.4-4c-1.2,1.5-0.6,3.1-0.6,4.7c0,2,0.4,4,0.3,6c-0.1,4.6-0.4,9.2-0.5,13.7
		c0,0.8,0.1,1.7,0.1,2.5c-0.1,5.1-0.3,10.2-0.5,15.7c1.7,0,2.3,0.8,2.1,2.1c-0.2,1.7,0.8,2.1,2.1,2.5c2.6,0.7,5.2,1.7,7.8,2.5
		c1,0.4,2.2,0.6,3.3,0.8c4.1,0.6,7.9,1.6,11.8,2.9c1,0.3,2,0.7,3,1.2c2,0.9,4.1,1.9,6.4,2.9c0.2-1.3,0.4-2.5,0.4-3.8
		c-0.1-2.3-0.4-4.7-0.4-7c0-5.8,0.1-11.5,0-17.3c0-3.9-0.3-7.6-0.4-11.5c-0.1-1.7-0.1-3.5,0-5.1c0.1-0.4,0.4-0.7,0.7-1h0.5
		c0.1,0.7,0.3,1.6,0.3,2.3c0.2,3,0.3,6.2,0.4,9.2c0.1,5.5,0.5,11,0.3,16.5c-0.2,4.7,0.4,9.4,0.5,14.1c0,0.9,0.1,1.8,0.2,2.9
		c0.8,0.1,1.7,0.2,2.5,0.2c3.7-0.2,7.3-0.5,11-0.8c6.3-0.6,12.3-1.7,18.7-1.9c3.9-0.2,7.8-0.6,11.7-1.3c3.2-0.5,6.6-1.3,9.8-1.8
		c1.6-0.2,2.9-1,4.5-1.2c0.5-0.3,0.7-0.7,0.8-1.4c-0.6-2.9-0.1-5.8,0.1-8.7c0.4-4.7,0.3-9.5,0.5-14.2c0.1-3.1,0.1-6.3,0.1-9.4
		c0.1-3.7,0.2-7.3,0.3-11c0.1-0.4,0-0.8-0.2-1.2c-1.3-1.3-2.4-2.7-4.6-2.4c-3.7,0.4-7.3-0.3-11-0.9c-0.2,0-0.5,0-0.7,0L152.1,70.2z
		 M82.2,67.3v0.3c0.3,0.1,0.6,0.2,0.9,0.2c5.3,0.8,10.5,2.6,15.9,2.9c2.2,0.1,4.3,0.4,6.5,0.5c0.9,0,2-0.5,2.9-0.4
		c4,0.6,7.8-0.4,11.7-0.2c0.9,0,1.9,0,2.7-0.2c5.6-0.9,11.3-2,17.2-1.7c1.5,0.1,2.8,0.2,4.3,0.2c1.9,0,3.8-0.2,5.6-0.3
		c-2.2-0.7-4.4-0.9-6.6-1.6c-2.9-0.7-6.2,0.1-9-1.5c-0.2,0-0.3,0-0.5,0c-2.3,0.2-4.5,0.2-6.8,0.1c-3.9,0-7.8,0.4-11.7,0.4
		c-4.8,0.1-9.6,0-14.4,0.1c-5.4,0.1-10.9,0.4-16.2,0.5C83.7,67.1,82.9,67.2,82.2,67.3L82.2,67.3z"/>
	<path class="st0" d="M152,70.2l-0.2-1.8c0.2,0,0.5,0,0.7,0c3.7,0.5,7.2,1.3,11,0.9c2.1-0.2,3.3,1.2,4.6,2.4
		c0.2,0.3,0.3,0.7,0.2,1.2c-0.1,3.7-0.2,7.3-0.3,11c-0.1,3.1-0.1,6.3-0.1,9.4c-0.1,4.7-0.1,9.5-0.5,14.2c-0.2,2.9-0.7,5.8-0.1,8.7
		c0,0.5-0.3,1-0.8,1.4c-1.6,0.1-2.9,0.9-4.5,1.2c-3.2,0.5-6.6,1.3-9.8,1.8c-3.9,0.6-7.7,1-11.7,1.3c-6.3,0.2-12.4,1.3-18.7,1.9
		c-3.7,0.4-7.3,0.6-11,0.8c-0.8,0-1.7-0.1-2.5-0.2c-0.1-1-0.2-2-0.2-2.9c-0.1-4.7-0.7-9.4-0.5-14.1c0.2-5.4-0.1-11-0.3-16.5
		c-0.1-3-0.2-6.2-0.4-9.2c0-0.7-0.2-1.6-0.3-2.3h-0.5c-0.3,0.3-0.5,0.6-0.7,1c0,1.7,0,3.5,0,5.1c0.1,3.9,0.4,7.6,0.4,11.5
		c0.1,5.8-0.1,11.5,0,17.3c0,2.3,0.4,4.7,0.4,7c-0.1,1.3-0.2,2.5-0.4,3.8c-2.3-1-4.3-2-6.4-2.9c-0.9-0.4-2-0.8-3-1.2
		c-3.9-1.4-7.7-2.4-11.8-3c-1.2-0.2-2.3-0.4-3.3-0.8c-2.6-0.8-5.2-1.8-7.8-2.5c-1.4-0.4-2.3-0.8-2.1-2.5c0.2-1.3-0.5-2.1-2.1-2.1
		c0.2-5.3,0.4-10.5,0.5-15.7c0-0.8-0.1-1.7-0.1-2.5c0.2-4.6,0.4-9.2,0.5-13.7c0-2-0.4-4-0.3-6c0-1.6-0.5-3.1,0.6-4.7
		c8.7-0.1,16.9,2.6,25.3,4.2c0.8,0.2,1.7,0.3,2.5,0.3c2.5-0.5,4.8,0.4,7,1.2c1,0.5,2.3,0.4,3.3-0.1c1.4-0.5,2.8-0.8,4.3-0.8
		c4.3-0.3,8.6-0.4,13-1c5.5-0.7,11.1-1.5,16.7-0.9C145.3,70.8,148.6,70.3,152,70.2z M160.9,70.3c2,0.8,2.5,0.8,4,0H160.9z"/>
	<path class="st0" d="M82.2,67.3c0.8-0.1,1.6-0.2,2.3-0.3c5.4-0.2,10.9-0.4,16.2-0.5c4.8-0.1,9.6,0,14.4-0.1c4-0.1,7.8-0.4,11.7-0.4
		c2.3,0.1,4.5,0.1,6.8-0.1c0.2,0,0.3,0,0.5,0c2.8,1.6,6.1,0.7,9,1.5c2.2,0.5,4.4,0.8,6.6,1.6c-1.9,0.1-3.8,0.2-5.6,0.3
		c-1.5,0-2.8-0.1-4.3-0.2c-5.8-0.3-11.4,0.7-17.2,1.7c-0.9,0.1-1.8,0.2-2.7,0.2c-3.9-0.2-7.8,0.9-11.7,0.2c-0.9-0.1-2,0.4-2.9,0.4
		c-2.2-0.1-4.3-0.4-6.5-0.5c-5.4-0.2-10.6-2.1-15.9-2.9C82.6,68.1,82.3,68,82,68L82.2,67.3z"/>
	<path d="M160.9,70.3h4C163.4,71.1,162.9,71.2,160.9,70.3z"/>
</g>
</svg>
