<?xml version="1.0" encoding="iso-8859-1"?>
<!-- Generator: Adobe Illustrator 19.2.1, SVG Export Plug-In . SVG Version: 6.00 Build 0)  -->
<svg version="1.1" id="Scan_x5F_A4-150dpi_x5F_SW_x5F_0002-21_xA0_Bild_1_"
	 xmlns="http://www.w3.org/2000/svg" xmlns:xlink="http://www.w3.org/1999/xlink" x="0px" y="0px" viewBox="0 0 236.013 181.502"
	 style="enable-background:new 0 0 236.013 181.502;" xml:space="preserve">
<g>
	<path style="fill:#FFFFFF;" d="M171.484,116.381c-0.373-0.905-0.608-1.459-0.831-2.017c-0.695-1.737-1.737-3.424-2.003-5.225
		c-0.491-3.327-1.932-6.311-2.945-9.435c-1.031-3.183-2.152-6.254-1.278-9.651c0.065-0.251,0.043-0.539,0.001-0.8
		c-0.499-3.109-0.238-6.173-0.029-9.314c0.361-5.42,1.239-10.859,0.563-16.331c-0.095-0.773,0.151-1.587,0.234-2.382
		c0.452-4.335,0.909-8.669,1.349-13.005c0.135-1.334-0.06-2.782,0.403-3.982c0.572-1.485,0.432-2.749-0.2-4.433
		c-1.318-0.049-2.719-0.135-4.119-0.14c-0.887-0.003-1.777,0.191-2.662,0.167c-3.038-0.082-6.079-0.378-9.111-0.304
		c-5.902,0.145-11.797,0.577-17.699,0.727c-10.118,0.257-19.775,0.728-29.891,0.974c-5.434,0.132-10.902-0.28-16.325-0.768
		c-4.799-0.431-9.553-1.339-14.335-1.975c-2.773-0.369-5.393,0.475-7.933,0.887c-0.004,1.654-0.089,2.962,0.006,4.257
		c0.256,3.475-0.094,5.316,0.039,8.798c0.141,3.666-0.009,7.352,0.318,10.998c0.205,2.287,0.242,4.41-0.67,6.559
		c-0.319,0.751-0.182,1.714-0.172,2.58c0.007,0.619,0.244,1.241,0.217,1.854c-0.279,6.174,0.089,12.414-1.88,18.418
		c-0.418,1.274-0.636,2.626-1.154,3.854c-2.156,5.117-3.197,10.545-4.531,15.891c-0.023,0.091,0.21,0.246,0.324,0.37
		c1.904-0.931,2.808-2.23,2.622-4.414c-0.098-1.154,0.121-2.084,0.623-3.064c0.321-0.626,0.446-1.351,0.678-2.025
		c1.044-3.024,2.095-6.046,3.348-9.658c0.739,5.006-0.096,9.32-0.393,13.632c-0.157,2.274,0.093,4.429,0.495,6.678
		c0.881,0.5,1.722,0.978,2.57,1.459c0.949-0.253,1.826-0.433,2.665-0.721c1.515-0.52,3.022-0.52,4.43,0.196
		c1.964,0.999,3.984,0.892,6.027,0.517c2.415-0.444,4.784-0.399,7.189,0.152c1.379,0.316,2.84,0.467,4.253,0.41
		c3.479-0.141,6.949-0.463,10.425-0.68c4.108-0.257,8.24-0.298,12.321-0.773c3.673-0.428,7.293-0.656,10.946,0.005
		c2.126,0.385,4.233,0.346,6.398,0.027c1.834-0.27,3.749-0.035,5.626,0.037c1.34,0.052,2.675,0.281,4.014,0.295
		c2.4,0.025,4.802-0.124,7.2-0.067c2.676,0.064,5.352,0.233,8.022,0.441c1.77,0.138,3.549,0.328,5.285,0.684
		c0.998,0.205,1.9,0.539,2.762-0.256c1.086-2.284,0.358-4.548-0.114-6.799c-0.64-3.058-1.216-6.113-0.808-9.881
		c0.825,2.591,1.523,4.583,2.092,6.612c0.795,2.834,1.444,5.709,2.261,8.536c0.261,0.902,0.857,1.706,1.323,2.6
		C170.14,116.717,170.631,116.595,171.484,116.381z"/>
	<path d="M171.484,116.381c-0.853,0.213-1.344,0.336-2.057,0.514c-0.466-0.893-1.062-1.698-1.323-2.6
		c-0.817-2.827-1.467-5.702-2.261-8.536c-0.569-2.029-1.266-4.021-2.092-6.612c-0.408,3.769,0.168,6.824,0.808,9.881
		c0.471,2.251,1.199,4.515,0.113,6.799c-0.861,0.796-1.763,0.461-2.761,0.257c-1.736-0.356-3.514-0.546-5.285-0.684
		c-2.669-0.208-5.345-0.377-8.022-0.441c-2.398-0.057-4.801,0.092-7.2,0.067c-1.339-0.014-2.674-0.243-4.014-0.295
		c-1.877-0.072-3.791-0.307-5.626-0.037c-2.165,0.319-4.272,0.358-6.398-0.027c-3.653-0.661-7.272-0.433-10.946-0.005
		c-4.082,0.475-8.213,0.516-12.321,0.773c-3.476,0.217-6.947,0.539-10.425,0.68c-1.413,0.057-2.873-0.094-4.253-0.41
		c-2.405-0.551-4.774-0.596-7.189-0.152c-2.042,0.375-4.063,0.483-6.027-0.517c-1.408-0.716-2.915-0.717-4.43-0.196
		c-0.839,0.288-1.715,0.468-2.665,0.721c-0.848-0.481-1.689-0.959-2.57-1.459c-0.402-2.249-0.652-4.404-0.495-6.678
		c0.297-4.313,1.132-8.626,0.393-13.632c-1.253,3.612-2.304,6.634-3.348,9.658c-0.233,0.674-0.357,1.399-0.678,2.025
		c-0.502,0.98-0.721,1.91-0.623,3.064c0.186,2.184-0.719,3.483-2.622,4.414c-0.114-0.125-0.346-0.28-0.324-0.371
		c1.335-5.346,2.376-10.774,4.531-15.891c0.518-1.229,0.736-2.58,1.154-3.854c1.969-6.004,1.601-12.244,1.88-18.418
		c0.028-0.613-0.21-1.235-0.217-1.854c-0.01-0.866-0.147-1.829,0.172-2.58c0.913-2.149,0.876-4.272,0.67-6.559
		c-0.327-3.646-0.177-7.332-0.318-10.998c-0.134-3.482,0.217-5.323-0.039-8.798c-0.095-1.295-0.01-2.603-0.006-4.257
		c2.539-0.412,5.159-1.255,7.933-0.887c4.782,0.635,9.537,1.543,14.335,1.975c5.424,0.488,10.891,0.9,16.325,0.768
		c10.116-0.246,19.772-0.717,29.891-0.974c5.902-0.15,11.797-0.582,17.699-0.727c3.033-0.075,6.073,0.222,9.111,0.304
		c0.885,0.024,1.775-0.17,2.662-0.167c1.401,0.005,2.801,0.091,4.119,0.14c0.632,1.684,0.773,2.948,0.2,4.433
		c-0.463,1.2-0.268,2.648-0.403,3.982c-0.44,4.336-0.897,8.67-1.349,13.005c-0.083,0.796-0.329,1.61-0.234,2.382
		c0.676,5.473-0.202,10.911-0.563,16.331c-0.209,3.141-0.47,6.205,0.029,9.314c0.042,0.261,0.064,0.549-0.001,0.8
		c-0.873,3.397,0.247,6.468,1.278,9.651c1.012,3.124,2.454,6.109,2.945,9.435c0.266,1.801,1.308,3.488,2.003,5.225
		C170.876,114.922,171.111,115.476,171.484,116.381z M66.985,41.956c-0.025,0.928-0.154,1.82-0.055,2.686
		c0.623,5.421,0.278,9.297-0.341,14.752c-0.088,0.777,0.154,1.589,0.23,2.386c0.281,2.932,0.773,5.866-0.571,8.709
		c-0.295,0.623-0.408,1.393-0.393,2.091c0.091,4.289,0.212,8.578,0.397,12.864c0.04,0.932,0.383,1.851,0.626,2.955
		c8.759,0.873,17.317,1.726,25.875,2.58c-0.341,0.524-0.72,0.725-1.085,0.702c-5.528-0.345-11.051-0.783-16.582-1.058
		c-2.645-0.132-5.305,0.033-7.961,0.063c-0.122,0.436-0.241,0.681-0.252,0.93c-0.148,3.295-0.291,6.589-0.415,9.885
		c-0.08,2.141,0.122,4.327-0.255,6.412c-0.408,2.258-0.121,4.219,1.096,6.226c0.346-0.085,0.697-0.116,0.999-0.254
		c2.459-1.124,4.914-1.424,7.524-0.391c0.86,0.34,1.929,0.242,2.896,0.203c3.301-0.135,6.597-0.547,9.883,0.253
		c0.762,0.186,1.606,0.122,2.404,0.064c2.761-0.198,5.516-0.504,8.28-0.66c5.089-0.286,10.182-0.49,15.273-0.742
		c0.624-0.031,1.243-0.213,1.864-0.218c2.846-0.024,5.693-0.058,8.538,0.008c1.778,0.041,3.552,0.358,5.329,0.361
		c2.581,0.004,5.162-0.242,7.743-0.236c2.679,0.006,5.361,0.32,8.036,0.252c2.858-0.073,5.676-0.117,8.529,0.321
		c2.617,0.401,5.3,0.371,8.244,0.549c0.244-5.521-1.567-10.703-1.415-16.03c0.024-0.83-0.405-1.674-0.696-2.78
		c-1.975-0.117-3.821-0.294-5.669-0.323c-8.05-0.127-16.101-0.184-24.151-0.328c-2.588-0.047-5.171-0.364-7.759-0.421
		c-6.798-0.149-13.597-0.213-20.395-0.342c-0.502-0.009-1-0.259-1.5-0.396c0.027-0.22,0.054-0.44,0.081-0.66
		c0.852-0.01,1.705-0.014,2.557-0.03c5.103-0.099,10.206-0.235,15.309-0.286c2.863-0.029,5.731,0.004,8.59,0.15
		c4.013,0.204,8.018,0.725,12.03,0.774c6.355,0.077,12.713-0.116,19.07-0.214c2.514-0.039,3.362-0.796,3.532-3.334
		c0.095-1.423-0.071-2.862-0.081-4.294c-0.009-1.245-0.006-2.492,0.061-3.734c0.28-5.164,0.613-10.326,0.87-15.491
		c0.102-2.052-0.144-4.138,0.122-6.163c0.754-5.746,1.584-11.477,1.228-17.417c-0.29-0.071-0.622-0.212-0.96-0.225
		c-5.243-0.201-10.471-1.361-15.739-0.266c-0.428,0.089-0.893-0.009-1.34-0.001c-8.85,0.162-17.706,0.191-26.55,0.528
		c-9.381,0.358-18.199,1.396-27.586,0.295c-1.924-0.226-3.912,0.101-5.838-0.114c-3.365-0.376-6.695-1.058-10.058-1.456
		C73.379,40.712,70.16,40.352,66.985,41.956z"/>
	<path style="fill:#FFFFFF;" d="M66.985,41.956c3.174-1.605,6.394-1.244,9.571-0.869c3.363,0.397,6.693,1.08,10.058,1.456
		c1.926,0.215,3.914-0.111,5.838,0.114c9.387,1.101,18.205,0.064,27.586-0.295c8.844-0.338,17.699-0.366,26.55-0.528
		c0.447-0.008,0.912,0.09,1.34,0.001c5.268-1.095,10.496,0.065,15.739,0.266c0.338,0.013,0.67,0.154,0.96,0.225
		c0.356,5.94-0.475,11.671-1.228,17.417c-0.265,2.024-0.02,4.11-0.122,6.163c-0.258,5.165-0.59,10.327-0.87,15.491
		c-0.067,1.242-0.071,2.489-0.061,3.734c0.011,1.432,0.177,2.871,0.081,4.294c-0.17,2.538-1.018,3.295-3.532,3.334
		c-6.357,0.098-12.715,0.291-19.07,0.214c-4.012-0.049-8.017-0.57-12.03-0.774c-2.859-0.145-5.727-0.178-8.59-0.15
		c-5.103,0.051-10.206,0.188-15.309,0.286c-0.852,0.016-1.705,0.02-2.557,0.03c-0.027,0.22-0.054,0.44-0.081,0.66
		c0.5,0.138,0.998,0.387,1.5,0.396c6.798,0.128,13.597,0.193,20.395,0.342c2.588,0.057,5.171,0.374,7.759,0.421
		c8.05,0.145,16.101,0.201,24.151,0.328c1.848,0.029,3.694,0.206,5.669,0.323c0.29,1.106,0.719,1.949,0.696,2.78
		c-0.152,5.327,1.659,10.508,1.415,16.03c-2.944-0.178-5.627-0.148-8.244-0.549c-2.853-0.437-5.671-0.393-8.529-0.321
		c-2.675,0.068-5.357-0.246-8.036-0.252c-2.581-0.006-5.162,0.24-7.743,0.236c-1.776-0.003-3.55-0.32-5.329-0.361
		c-2.845-0.065-5.692-0.032-8.538-0.008c-0.622,0.005-1.241,0.187-1.864,0.218c-5.091,0.252-10.184,0.456-15.273,0.742
		c-2.763,0.155-5.518,0.461-8.28,0.66c-0.798,0.057-1.641,0.121-2.404-0.064c-3.286-0.8-6.582-0.388-9.883-0.253
		c-0.968,0.039-2.037,0.138-2.896-0.203c-2.61-1.033-5.065-0.733-7.524,0.391c-0.302,0.138-0.652,0.169-0.999,0.254
		c-1.217-2.007-1.504-3.967-1.096-6.226c0.376-2.084,0.174-4.271,0.255-6.412c0.124-3.296,0.267-6.59,0.415-9.885
		c0.011-0.249,0.13-0.493,0.252-0.93c2.656-0.03,5.316-0.195,7.961-0.063c5.531,0.275,11.054,0.713,16.582,1.058
		c0.365,0.023,0.744-0.178,1.085-0.702c-8.558-0.853-17.116-1.706-25.875-2.58c-0.243-1.103-0.585-2.022-0.626-2.955
		c-0.185-4.286-0.307-8.575-0.397-12.864c-0.015-0.698,0.099-1.468,0.393-2.091c1.345-2.843,0.853-5.777,0.571-8.709
		c-0.077-0.797-0.319-1.61-0.23-2.386c0.619-5.455,0.964-9.33,0.341-14.752C66.831,43.776,66.96,42.884,66.985,41.956z"/>
</g>
</svg>
