<?xml version="1.0" encoding="utf-8"?>
<!-- Generator: Adobe Illustrator 19.2.1, SVG Export Plug-In . SVG Version: 6.00 Build 0)  -->
<svg version="1.1" id="doc00073520160814150808-6.psd_Bild"
	 xmlns="http://www.w3.org/2000/svg" xmlns:xlink="http://www.w3.org/1999/xlink" x="0px" y="0px" viewBox="0 0 236 180.8"
	 style="enable-background:new 0 0 236 180.8;" xml:space="preserve">
<style type="text/css">
	.st0{fill:#1D1D1B;}
</style>
<title>SK_Website-Animation_Einzelbilder</title>
<path class="st0" d="M156.3,88.8c-1.5-0.1-3,0-4.5-0.4c-0.7-0.3-1.5-0.4-2.2-0.5c-0.6,0-1.1,0-1.7,0c-0.3,0.1-0.6,0.1-0.9,0.2
	c-0.6-0.1-1.2-0.2-1.7-0.3c-0.5,0-1,0-1.5,0c-1.1,0.2-2.1,0.2-3.1,0.1c-1.5,0.3-2.9,0.5-4.4,0.2h-0.1c-2.4,0.1-4.7,0-7.1-0.1
	c-0.7,0.1-1.5,0.1-2.2,0c-0.7-0.2-1.4,0-2,0.1c-0.8,0.2-1.7,0.3-2.5,0.2c-1.2-0.2-2.3-0.1-3.4,0.3c-0.4,0.1-0.8,0.2-1.2,0.2
	c-0.9-0.1-1.9-0.3-2.8-0.5c-0.4,0.1-0.8,0.1-1.2,0.1c0,0.5,0.1,1,0.1,1.4c3.7,0,7.4,0,11.1,0.1c0.6,0,1.1,0,1.7-0.1
	c0.6,0,1,0,1.6-0.2c2.7-0.7,5.4-1,8.1-0.6c1.3,0.2,2.6,0.2,3.8-0.3c1.1-0.4,2.2-0.4,3.3-0.4c0.9,0.1,1.8,0.2,2.7,0.3h1.3
	c1.1,0,2.2-0.1,3.3-0.1c0.8,0.1,1.7,0.4,2.5,0.5c2.3,0.2,4.6,0.3,7,0.4c0.2,0,0.4-0.2,0.8-0.5c-0.8-0.3-1.1-0.4-1.5-0.4L156.3,88.8z
	"/>
<path class="st0" d="M84.2,90.4c1,0.5,2.1,0.7,3,0.7c0.2,0,0.4-0.1,0.6-0.1c0.3-0.1,0.6-0.2,0.9-0.3c0.3,0.1,0.7,0.1,1,0.2
	c1.9,0,3.7-0.1,5.6-0.2c1.2-0.3,2.5-0.4,3.7-0.1c3.6-0.1,7.2-0.3,10.8-0.2c0.2,0,0.4,0,0.5,0c0.5-0.1,1.1-0.2,1.8-0.1
	c1.1,0.2,2.2,0.1,3.3-0.3c0.4-0.1,0.8-0.3,1.2-0.3c0.5,0.1,1,0.2,1.5,0.3c0.5-0.1,1-0.1,1.6-0.1h0.7c0-0.4-0.1-0.7-0.1-1.1
	c-0.5,0.1-0.9,0.1-1.4,0.1c-4.6,0-9.1,0.1-13.7,0.2c-2.1,0.5-4.2,0.7-6.3,0.4c-1.2-0.2-2.5-0.2-3.7,0.3c-1,0.5-2.1,0.5-3.1,0.4
	c-0.9-0.1-1.7-0.2-2.6-0.3h-1.2c-1,0-2.1,0.2-3.1,0.1c-0.8-0.1-1.6-0.5-2.4-0.6c-2.2-0.2-4.4-0.4-6.6-0.5c-0.2,0-0.3,0.3-0.8,0.6
	c0.7,0.2,1,0.4,1.3,0.4l3.1-0.1C81.3,89.9,82.8,89.8,84.2,90.4z"/>
<path class="st0" d="M151.4,88.2l-2,0.1c-7.7,0.3-7.7-0.1-15.5-0.2c-9,0.1-18,0.3-27,0.6c-1.7,0.5-3.4,0.5-5.1,0.2
	c-0.1,0-0.2,0-0.4,0c-0.8,0.1-1.7,0.3-2.5,0.4c-2.8,0.5-7.7-0.1-9.7,0.4c-1.4,0.3-2.9,0.4-4.3,0.2c0,0.2,0.1,0.3,0.1,0.5
	c2.4,0,2.4,0,2.4,0l15.5-0.2c7.7-0.3,23.2-0.8,31-0.3c0,0,0.3,0,0.4,0.1c7.4-0.3,14.7-0.6,21.9-0.9C154.6,88.8,153,88.5,151.4,88.2z
	"/>
</svg>
