<?xml version="1.0" encoding="utf-8"?>
<!-- Generator: Adobe Illustrator 19.2.1, SVG Export Plug-In . SVG Version: 6.00 Build 0)  -->
<svg version="1.1" id="Ebene_1" xmlns="http://www.w3.org/2000/svg" xmlns:xlink="http://www.w3.org/1999/xlink" x="0px" y="0px"
	 viewBox="0 0 236 181.5" style="enable-background:new 0 0 236 181.5;" xml:space="preserve">
<style type="text/css">
	.st0{fill:#FFFFFF;}
</style>
<g id="doc00073520160814150808-21.psd_Bild">
	<title>SK_Website-Animation_Einzelbilder</title>
	<path class="st0" d="M156.4,67.4c-3.1,0-6-0.9-9.2-0.3c-1,0-1.9,0-2.8-0.4c-2.2-0.5-4.4-1-6.8-1.5c-1.2-0.2-2.3-0.2-3.5-0.1
		c-1.5,0-3,0.1-4.5,0.1c-5.5-0.2-11.1-0.6-16.6-0.5c-8.3,0.1-16.6,0.8-24.8,0.3c-2.6-0.1-5.2-0.4-7.9-0.6c-0.4-0.1-0.7-0.3-1-0.6
		l0.8-1.6c-2.1-0.8-1.4,1.6-2.3,2c-2.4-0.5-2.5-0.5-4.1,1.8c0.3,1,0.5,2,0.6,3.1c0,3.2-0.2,6.3-0.1,9.5c0.1,7.2,0,14.4-0.1,21.5
		c0,2.5-0.2,5.1-0.3,7.6c-0.1,1.4,0,2.8-0.2,4.2c-0.2,1.7,0.9,3.3,2.6,3.6c1.6,0.4,3.3,0.9,5,1.5c1,0.5,2,0.9,3.1,1.6l0.5-0.9
		c0.4,0.4,1,0.8,1.5,0.9c1.3,0.2,2.6,0.8,3.6,1.8c0.6,0.3,1.3,0.4,2,0.1c1.2-0.1,2.5-0.6,3.7-0.7c4.9-0.3,9.7-0.5,14.5-0.7
		c2.7-0.1,5.4,0.1,8.1,0.2c1.4,0.1,2.9,0,4.3,0.1c3.8,0,7.6-0.1,11.5,0c4.9,0,9.9,0.4,14.8,0.2c2.9-0.1,5.8-0.9,8.6,0
		c1-0.5,1.3-1.6,1-2.6c-0.7-1.5-0.2-2.8-0.1-4.1c0.1-1.9,0.3-3.8,0.2-5.7c0-2.5-0.2-4.9-0.2-7.4c0.1-4.7,0.6-9.3,0.6-14
		c0-5.9-0.2-11.8,0.4-17.9C158.4,67.6,157.4,67.5,156.4,67.4z"/>
	<path d="M84.8,117.8l-0.5,0.9c-1-0.6-2-1.1-3.1-1.6c-1.6-0.5-3.3-1-5-1.5c-1.7-0.3-2.8-1.9-2.6-3.6c0.2-1.4,0.1-2.8,0.2-4.2
		c0.1-2.5,0.3-5.1,0.3-7.6c0.1-7.2,0.2-14.4,0.1-21.5c-0.1-3.2,0.1-6.3,0.1-9.5c-0.1-1-0.3-2.1-0.6-3.1c1.6-2.5,1.7-2.5,4.1-1.8
		c0.9-0.4,0.2-2.7,2.3-2l-0.8,1.6c0.3,0.3,0.6,0.5,1,0.6c2.6,0.2,5.2,0.5,7.9,0.6c8.3,0.4,16.5-0.3,24.8-0.3
		c5.6-0.1,11.1,0.2,16.6,0.5c1.5,0,3,0,4.5-0.1c1.2,0,2.4,0,3.5,0.1c2.2,0.4,4.5,1,6.8,1.5c0.9,0.3,1.9,0.4,2.8,0.4
		c3.1-0.6,6.1,0.3,9.2,0.3c1,0.1,2,0.2,3,0.5c-0.7,6.1-0.4,12-0.4,17.9c0,4.7-0.5,9.3-0.6,14c-0.1,2.5,0.1,4.9,0.2,7.4
		c0,1.9-0.2,3.8-0.2,5.7c-0.1,1.4-0.6,2.7,0.1,4.1c0.3,1,0,2.1-1,2.6c-2.8-0.9-5.7-0.1-8.6,0c-4.9,0.2-9.9-0.2-14.8-0.2
		c-3.8-0.1-7.6,0-11.5,0c-1.4,0-2.9,0-4.3-0.1c-2.7,0-5.4-0.3-8.1-0.2c-4.9,0.2-9.7,0.4-14.5,0.7c-1.2,0-2.5,0.6-3.7,0.7
		c-0.7,0.2-1.3,0.1-2-0.1c-0.9-1-2.3-1.5-3.6-1.8C85.8,118.5,85.3,118.3,84.8,117.8z M156.8,116.2c-0.1-2-0.2-4.1-0.2-6.3
		c0.1-3.9,0.1-7.8,0.2-11.7c0.1-1.4,0.4-2.7,0.5-4c0.1-2,0.1-4.1,0.1-6.2c0-4.9,0.2-9.9,0.1-14.8c-0.1-1.2-0.3-2.5-0.6-3.7l-1.6,0.1
		c-6.2,0.2-12.5,0.5-18.7,0.5c-7.3-0.1-14.6-0.6-22-0.8c-7.2-0.1-14.3,0.1-21.5,0.2c-0.9,0.1-1.9,0.3-2.8,0.5
		c-0.1,0.3-0.2,0.5-0.2,0.8c0.3,5.1,0.5,10.3,0.7,15.4c0.2,3.8,0.4,7.6,0.6,11.4c0.1,2.3,0.3,4.6,0.2,6.9c0.1,4.5,0,9,0.1,13.5
		c2.5-0.1,4.8-0.1,7.1-0.2c6.7-0.5,13.4-0.7,20.1-0.4c5.1,0.1,10.2,0.1,15.3,0.2c3.3,0.1,6.7,0.4,10,0.4c1.8,0,3.7,0,5.5-0.4
		C151.9,117.5,154.2,116.8,156.8,116.2L156.8,116.2z M88.5,68.9c3.4-0.2,6.7-0.5,10-0.7c1.4,0,2.7,0.1,4,0.1
		c5.7-0.1,11.3-0.5,17-0.1c8.4,0.5,16.9,0.6,25.3,0.8c1.8,0,3.6-0.2,5.5-0.4c-2.8-0.4-5.6-0.5-8.3-0.8c-2.4-0.3-5,0-7.3-1
		c-0.3-0.1-0.7-0.1-1-0.1c-5.9-0.2-11.8-0.5-17.7-0.5c-5.7,0-11.3,0.2-17,0.3c-2.4,0.1-4.8,0.3-7.2,0.1c-2.6-0.1-5.2-0.4-7.8-0.6
		c-1.2-0.1-2.4-0.2-3.6-0.4L80.3,66l5.7,2l-0.1,0.5c-3.1,0-6.1-1.7-9.3-1.1c-0.2,1-0.3,2.1-0.5,3.1c-0.2,3.3-0.3,6.6-0.4,10
		c0,5-0.1,10-0.1,15.1c0,3.1,0,6.2,0,9.3c0.1,1.6-0.1,3.2,0.1,4.8c0,1.4,0.2,3,2.1,3.2c0.2,0.1,0.3,0.3,0.4,0.5c0,0.9,0.7,1,1.4,1.5
		c2.8,1.9,6,2,9.2,2.2c1.1-1.4,0.8-3.1,0.8-4.6c0-1.8,0-3.7,0-5.5c0-2.5,0.1-4.9,0-7.4c-0.1-2.7-0.5-5.4-0.6-8.1
		c-0.3-5.6-0.5-11.3-0.7-17C88.2,72.6,87.6,70.8,88.5,68.9z"/>
	<path d="M152.1,121.3l-2.2,0.1C150.6,119.9,150.6,119.9,152.1,121.3z"/>
	<path d="M153.1,65.2c0.4,0.1,0.9,0.2,1.3,0.3c0,0.1,0,0.3-0.1,0.4c-0.4,0.1-0.9,0.1-1.3,0.1L153.1,65.2z"/>
	<path class="st0" d="M156.7,116.2c-2.6,0.6-4.9,1.2-7.1,1.6c-1.8,0.3-3.7,0.4-5.5,0.4c-3.3-0.1-6.7-0.3-10-0.4
		c-5.1-0.1-10.2-0.1-15.3-0.2c-6.7-0.3-13.4-0.1-20.1,0.4c-2.3,0.2-4.6,0.2-7.1,0.2c-0.1-4.6,0-9-0.1-13.5c-0.1-2.3-0.2-4.6-0.2-6.9
		c-0.1-3.8-0.4-7.6-0.6-11.4C90.4,81.3,90.2,76.1,90,71c0-0.3,0.1-0.6,0.2-0.8c0.9-0.2,1.8-0.5,2.8-0.5c7.2-0.1,14.4-0.3,21.5-0.2
		c7.3,0.1,14.6,0.6,22,0.8c6.2,0.1,12.5-0.3,18.7-0.5l1.6-0.1c0.3,1.2,0.5,2.4,0.6,3.7c0.1,4.9-0.1,9.9-0.1,14.8
		c0,2.1,0,4.1-0.1,6.2c-0.1,1.4-0.4,2.7-0.5,4c-0.2,3.9-0.2,7.8-0.2,11.7C156.5,112.1,156.6,114.2,156.7,116.2z"/>
	<path class="st0" d="M88.5,68.9c-0.9,1.9-0.3,3.7-0.2,5.5c0.2,5.6,0.4,11.3,0.7,17c0.1,2.7,0.5,5.4,0.6,8.1c0.1,2.5,0,4.9,0,7.4
		c0,1.8,0,3.7,0,5.5c0.1,1.6,0.2,3.2-0.8,4.6c-3.2-0.3-6.4-0.3-9.2-2.2c-0.6-0.4-1.3-0.5-1.4-1.5c0-0.2-0.2-0.4-0.4-0.5
		c-1.9-0.2-2.1-1.8-2.1-3.2c-0.1-1.6,0-3.2-0.1-4.8c0-3.1,0-6.2,0-9.3c0-5,0.1-10,0.1-15.1c0.1-3.3,0.2-6.7,0.4-10
		c0.1-1,0.2-2.1,0.5-3.1c3.3-0.6,6.2,1.2,9.3,1.1l0.1-0.5L80.1,66l0.1-0.4c1.2,0.2,2.4,0.2,3.6,0.4c2.6,0.2,5.2,0.5,7.8,0.6
		c2.4,0.1,4.8-0.2,7.2-0.1c5.7-0.1,11.3-0.4,17-0.3c5.9,0,11.8,0.3,17.7,0.5c0.3,0,0.7,0,1,0.1c2.3,0.9,4.9,0.7,7.3,1
		c2.7,0.3,5.5,0.4,8.3,0.8c-1.8,0.2-3.6,0.4-5.5,0.4c-8.4-0.2-16.9-0.3-25.3-0.8c-5.7-0.3-11.3,0-17,0.1c-1.4,0-2.7-0.2-4-0.1
		C95.1,68.4,91.8,68.7,88.5,68.9z"/>
</g>
</svg>
