<?xml version="1.0" encoding="iso-8859-1"?>
<!-- Generator: Adobe Illustrator 19.2.1, SVG Export Plug-In . SVG Version: 6.00 Build 0)  -->
<svg version="1.1" id="Scan_x5F_A4-150dpi_x5F_SW_x5F_0002-15_xA0_Bild_1_"
	 xmlns="http://www.w3.org/2000/svg" xmlns:xlink="http://www.w3.org/1999/xlink" x="0px" y="0px" viewBox="0 0 236.013 181.502"
	 style="enable-background:new 0 0 236.013 181.502;" xml:space="preserve">
<polygon style="fill:#FFFFFF;" points="172.446,38.705 139.446,36.871 111.946,36.038 83.304,38.738 63.946,36.705 65.946,59.205 
	64.36,89.028 63.113,91.205 60.613,113.705 61.78,115.038 126.28,113.538 177.398,115.833 176.28,112.371 171.613,89.371 "/>
<g>
	<path style="fill:#FFFFFF;" d="M64.36,89.028c1.427-0.079,1.611-0.724,1.483-1.668c-0.132-0.971-0.237-1.954-0.244-2.932
		c-0.03-4.375-0.036-8.75-0.016-13.125c0.005-1.156,0.035-2.328,0.224-3.464c0.858-5.15,0.959-10.312,0.498-15.505
		c-0.364-4.098-0.642-8.205-0.925-12.31c-0.047-0.677,0.073-1.366,0.123-2.164c3.215,0.146,6.235,0.267,9.254,0.424
		c2.851,0.148,5.706,0.539,8.547,0.454c3.718-0.111,7.422-0.628,11.137-0.892c3.571-0.254,7.148-0.426,10.724-0.598
		c2.844-0.137,5.698-0.395,8.536-0.293c6.338,0.228,12.671,0.621,19.003,1.003c2.397,0.145,4.786,0.435,7.177,0.679
		c1.333,0.137,2.657,0.396,3.992,0.463c5.531,0.275,11.063,0.531,16.598,0.716c1.504,0.05,3.026-0.092,4.523-0.284
		c1.946-0.25,3.87-0.439,6.135,0.029c0.151,1.903,0.391,3.744,0.428,5.59c0.158,7.871,0.255,15.744,0.376,23.616
		c0.03,1.969,0.12,3.939,0.091,5.907c-0.051,3.479-0.137,6.959-0.279,10.436c-0.082,2.02-0.057,4.078-0.95,6.115
		c-2.494-0.06-4.894-0.166-7.294-0.165c-6.083,0.004-12.167,0.165-18.248,0.061c-6.792-0.116-13.583-0.692-20.371-0.644
		c-10.555,0.073-21.108,0.516-31.662,0.775c-2.933,0.072-5.832,0.599-8.806,0.285c-1.826-0.193-3.768-0.133-5.601,0.583
		c0.378,0.348,0.763,0.548,1.153,0.557c6.433,0.142,12.866,0.34,19.3,0.353c3.739,0.007,7.484-0.211,11.216-0.471
		c8.231-0.575,16.454-0.115,24.681,0.041c2.417,0.046,4.836-0.065,7.253-0.024c5.173,0.088,10.347,0.368,15.518,0.304
		c4.392-0.054,8.733,0.148,13.12,0.918c2.598,6.313,2.545,13.157,4.815,19.755c-1.792,0.069-3.187,0.157-4.582,0.163
		c-0.71,0.003-1.42-0.204-2.131-0.207c-4.833-0.023-9.666,0.003-14.499-0.025c-7.871-0.046-15.741-0.121-23.612-0.184
		c-0.179-0.001-0.358-0.022-0.537-0.026c-8.494-0.168-16.989-0.505-25.482-0.452c-7.877,0.049-15.75,0.578-23.628,0.777
		c-4.825,0.122-9.656,0.005-14.484,0.03c-1.669,0.009-3.337,0.12-4.909,0.181c0.835-7.638,1.644-15.038,2.452-22.432
		c4.458,0.282,6.029,0.048,6.934-1.218c-3.136-0.156-6.124-0.304-9.31-0.462c-0.106,8.275-0.206,16.513-2.566,24.416
		c1.013,0.877,1.813,1.569,2.399,2.077c4.066-0.27,7.892-0.613,11.725-0.76c9.754-0.376,19.51-0.72,29.269-0.963
		c4.739-0.118,9.486-0.033,14.228,0.052c4.73,0.085,9.458,0.296,14.188,0.434c3.303,0.096,6.608,0.153,9.912,0.248
		c1.067,0.031,2.133,0.181,3.2,0.18c4.202-0.002,8.407-0.14,12.606-0.043c5.449,0.125,10.893,0.445,16.34,0.636
		c1.304,0.046,2.614-0.087,4.016-0.141c0.028-0.785,0.041-1.214,0.058-1.643c0.141-3.456-1.539-6.553-1.929-9.93
		c-0.449-3.891-1.412-7.721-2.035-11.596c-0.193-1.199,0.039-2.46-0.004-3.691c-0.105-3.034-0.525-6.084-0.323-9.094
		c0.282-4.201,0.494-8.38,0.34-12.592c-0.133-3.656,0.017-7.321-0.005-10.982c-0.012-1.969-0.206-3.938-0.172-5.904
		c0.07-3.992,0.24-7.982,0.368-11.952c-1.334-0.54-2.501-1.146-3.742-1.47c-0.819-0.214-1.746-0.068-2.619-0.006
		c-2.307,0.164-4.614,0.561-6.915,0.516c-4.016-0.078-8.028-0.4-12.04-0.655c-3.559-0.226-7.115-0.503-10.672-0.754
		c-2.669-0.189-5.335-0.423-8.007-0.549c-4.732-0.223-9.467-0.398-14.202-0.556c-2.677-0.089-5.357-0.182-8.033-0.123
		c-1.961,0.043-3.915,0.362-5.876,0.502c-6.317,0.45-12.676,0.274-18.96,1.267c-0.783,0.124-1.607,0.034-2.409-0.012
		c-1.335-0.076-2.67-0.176-4.001-0.303c-1.505-0.144-3.005-0.352-4.51-0.492c-3.102-0.288-6.212-0.579-8.951,1.615
		c0.047,0.568,0.056,1.096,0.139,1.612c0.298,1.846,0.696,3.679,0.915,5.533c0.253,2.132,0.48,4.28,0.499,6.423
		c0.042,4.537-0.034,9.077-0.111,13.614c-0.041,2.407-0.18,4.812-0.29,7.217c-0.041,0.892-0.174,1.782-0.179,2.673
		c-0.024,4.443-0.036,8.886,0.001,13.328C63.739,88.212,64.124,88.594,64.36,89.028z"/>
	<path d="M64.36,89.028c-0.235-0.434-0.621-0.815-0.624-1.2c-0.037-4.442-0.025-8.885-0.001-13.328
		c0.005-0.891,0.138-1.781,0.179-2.673c0.11-2.405,0.249-4.81,0.29-7.217c0.078-4.538,0.153-9.077,0.111-13.614
		c-0.02-2.143-0.246-4.291-0.499-6.423c-0.22-1.854-0.617-3.687-0.915-5.533c-0.083-0.516-0.092-1.043-0.139-1.612
		c2.739-2.194,5.849-1.903,8.951-1.615c1.506,0.14,3.005,0.348,4.51,0.492c1.331,0.127,2.666,0.227,4.001,0.303
		c0.802,0.046,1.626,0.136,2.409,0.012c6.284-0.994,12.642-0.817,18.96-1.267c1.961-0.14,3.914-0.459,5.876-0.502
		c2.676-0.059,5.356,0.034,8.033,0.123c4.735,0.157,9.47,0.333,14.202,0.556c2.672,0.126,5.338,0.36,8.007,0.549
		c3.557,0.252,7.113,0.528,10.672,0.754c4.012,0.255,8.024,0.577,12.04,0.655c2.3,0.045,4.608-0.352,6.915-0.516
		c0.873-0.062,1.801-0.208,2.619,0.006c1.241,0.324,2.408,0.929,3.742,1.47c-0.128,3.97-0.298,7.96-0.368,11.952
		c-0.035,1.966,0.16,3.936,0.172,5.904c0.022,3.661-0.129,7.326,0.005,10.982c0.154,4.212-0.058,8.392-0.34,12.592
		c-0.202,3.01,0.218,6.061,0.323,9.094c0.042,1.23-0.189,2.492,0.004,3.691c0.624,3.875,1.586,7.705,2.035,11.596
		c0.39,3.377,2.07,6.474,1.929,9.93c-0.017,0.429-0.031,0.859-0.058,1.643c-1.402,0.054-2.712,0.187-4.016,0.141
		c-5.448-0.191-10.892-0.511-16.34-0.636c-4.199-0.096-8.404,0.041-12.606,0.043c-1.066,0-2.132-0.15-3.2-0.18
		c-3.304-0.094-6.608-0.151-9.912-0.248c-4.729-0.138-9.457-0.348-14.188-0.434c-4.742-0.085-9.488-0.17-14.228-0.052
		c-9.758,0.243-19.514,0.588-29.269,0.963c-3.833,0.148-7.659,0.491-11.725,0.76c-0.586-0.508-1.386-1.2-2.399-2.077
		c2.36-7.903,2.46-16.141,2.566-24.416c3.186,0.158,6.174,0.307,9.31,0.462c-0.905,1.266-2.476,1.5-6.934,1.218
		c-0.808,7.394-1.617,14.793-2.452,22.432c1.572-0.061,3.24-0.173,4.909-0.181c4.828-0.025,9.659,0.092,14.484-0.03
		c7.878-0.199,15.751-0.727,23.628-0.777c8.493-0.053,16.988,0.284,25.482,0.452c0.179,0.003,0.358,0.024,0.537,0.026
		c7.871,0.064,15.741,0.139,23.612,0.184c4.833,0.028,9.666,0.002,14.499,0.025c0.711,0.003,1.421,0.211,2.131,0.207
		c1.395-0.006,2.789-0.094,4.582-0.163c-2.27-6.599-2.217-13.442-4.815-19.755c-4.387-0.77-8.728-0.972-13.12-0.918
		c-5.171,0.064-10.345-0.216-15.518-0.304c-2.417-0.041-4.837,0.07-7.253,0.024c-8.227-0.156-16.449-0.617-24.681-0.041
		c-3.732,0.261-7.477,0.479-11.216,0.471c-6.434-0.012-12.867-0.211-19.3-0.353c-0.389-0.009-0.775-0.209-1.153-0.557
		c1.833-0.717,3.775-0.776,5.601-0.583c2.974,0.314,5.873-0.213,8.806-0.285c10.554-0.259,21.107-0.702,31.662-0.775
		c6.788-0.047,13.579,0.528,20.371,0.644c6.08,0.104,12.165-0.057,18.248-0.061c2.4-0.002,4.8,0.105,7.294,0.165
		c0.893-2.037,0.868-4.095,0.95-6.115c0.142-3.477,0.227-6.956,0.279-10.436c0.029-1.968-0.061-3.938-0.091-5.907
		c-0.121-7.872-0.218-15.745-0.376-23.616c-0.037-1.846-0.277-3.688-0.428-5.59c-2.265-0.468-4.19-0.279-6.135-0.029
		c-1.496,0.193-3.019,0.335-4.523,0.284c-5.534-0.186-11.067-0.442-16.598-0.716c-1.335-0.066-2.659-0.326-3.992-0.463
		c-2.391-0.245-4.779-0.535-7.177-0.679c-6.332-0.382-12.664-0.775-19.003-1.003c-2.838-0.102-5.692,0.156-8.536,0.293
		c-3.576,0.173-7.153,0.345-10.724,0.598c-3.716,0.264-7.42,0.78-11.137,0.892c-2.842,0.085-5.697-0.306-8.547-0.454
		c-3.019-0.157-6.039-0.278-9.254-0.424c-0.05,0.798-0.17,1.487-0.123,2.164c0.284,4.105,0.561,8.211,0.925,12.31
		c0.462,5.193,0.361,10.355-0.498,15.505c-0.189,1.136-0.219,2.308-0.224,3.464c-0.02,4.375-0.014,8.75,0.016,13.125
		c0.007,0.978,0.112,1.961,0.244,2.932C65.971,88.303,65.786,88.949,64.36,89.028z"/>
</g>
</svg>
