<?xml version="1.0" encoding="utf-8"?>
<!-- Generator: Adobe Illustrator 19.2.1, SVG Export Plug-In . SVG Version: 6.00 Build 0)  -->
<svg version="1.1" id="Ebene_1" xmlns="http://www.w3.org/2000/svg" xmlns:xlink="http://www.w3.org/1999/xlink" x="0px" y="0px"
	 viewBox="0 0 236 181.5" style="enable-background:new 0 0 236 181.5;" xml:space="preserve">
<style type="text/css">
	.st0{fill:#1D1D1B;}
	.st1{fill:#FFFFFF;}
</style>
<path class="st0" d="M82.7,100.4c0-0.5,0.3,4.3,0.7,2.8c-0.5-0.8-1.1-0.9-1.7-1c-1.4-0.2-3-0.5-4.5-0.6c-0.5,0-1.2,0.1-1.7,0.2
	c-1.6,0.3-3.2,0.4-4.9,0.2c-1.2-0.1-2.4,0-3.6,0.2c-0.9,0.1-2,0.3-2.9,0.1c-1.2-0.2-2.4-0.1-3.6,0c-2.2,0.2-4.5,0.3-6.7,0.4
	c-0.1,0-0.3-0.1-0.4-0.1c-3.4-1-6.8-0.7-10.3-0.2c-2.5,0.3-5-0.1-7.6-0.4c-2.1,0.5-4.5,0.3-6.8-0.3c-2.1-0.5-4.2-0.4-6.3-0.5
	c-1.6,0-3.2,0-4.7,0c-0.5,0-1.1-0.1-2-0.3c0.7-0.3,0.9-0.5,1.2-0.5c3.3,0.1,6.6,0.3,9.9,0.5c1.2,0.1,2.4,0.4,3.6,0.5
	c1.6,0.1,3.2,0,4.7,0c0.7,0,1.2,0,1.8,0c1.3,0.1,2.5,0.2,3.8,0.3c1.6,0.1,3.2,0.1,4.7-0.3c1.7-0.4,3.6-0.4,5.4-0.2
	c3.8,0.4,7.6,0.2,11.4-0.5c0.8-0.2,1.4-0.2,2.2-0.2c1.6,0,3.2,0.1,4.7-0.3c0.3-0.1,0.4-0.1,0.7-0.1c3,0.6,6.2,0,9.2,0.1
	c0.7,0,1.3,0.2,2,0.2C81.6,100.5,82.1,100.4,82.7,100.4"/>
<path class="st0" d="M153.1,100.3c0-0.5-0.3,4.7-0.8,3c0.5-0.9,1.1-1,1.7-1.1c1.4-0.2,3-0.5,4.6-0.7c0.7,0,1.2,0.1,1.8,0.2
	c1.7,0.3,3.4,0.4,5.1,0.2c1.2-0.1,2.5,0,3.7,0.2c1.1,0.1,2.1,0.3,3,0.1c1.2-0.2,2.5-0.1,3.7,0c2.2,0.2,4.6,0.3,7,0.4
	c0.3,0,0.4-0.1,0.5-0.1c3.6-1.1,7.1-0.8,10.7-0.2c2.6,0.3,5.3-0.1,8-0.4c2.2,0.5,4.6,0.3,7.1-0.3c2.1-0.5,4.3-0.4,6.6-0.5
	c1.6,0,3.3,0,4.9,0c0.4,0,0.9-0.1,2-0.3c-0.7-0.3-0.9-0.5-1.2-0.5c-3.4,0.1-6.9,0.3-10.3,0.5c-1.2,0.1-2.5,0.4-3.7,0.5
	c-1.6,0.1-3.3,0-4.9,0c-0.5,0-1.2,0-1.8,0c-1.3,0.1-2.6,0.2-4,0.3c-1.6,0.1-3.3,0.1-4.9-0.3c-1.8-0.4-3.8-0.4-5.7-0.2
	c-4.1,0.4-8,0.2-12-0.5c-0.8-0.2-1.6-0.2-2.4-0.2c-1.6,0-3.3,0.1-4.9-0.3c-0.1-0.1-0.4-0.1-0.7-0.1c-3.2,0.7-6.5,0-9.6,0.1
	c-0.7,0-1.4,0.2-2.1,0.2C154.3,100.4,153.8,100.3,153.1,100.3"/>
<g id="doc00073520160814150808-45.psd_Bild">
	<title>SK_Website-Animation_Einzelbilder</title>
	<path d="M143.8,130.4c-3.6,0-7.3,0-10.9,0.1c-2.5,0-4.9,0.2-7.4,0.2c-7.4,0-14.9,0.1-22.3,0c-4.5-0.1-9.1-0.4-13.6-0.6
		c-5.4-0.4-10.9-0.3-16.3,0.3c-0.4,0.1-0.8,0.1-1.2,0c-0.3-0.1-0.7-0.2-1-0.4c0.1-0.5,0.3-1,0.4-1.4c0.5-2,0.9-3.9,1.4-5.8
		s1.2-3.7,0.2-5.6c0-0.1-0.1-0.1-0.1-0.2c0.1-3.2,0.1-6.5,0.2-9.9c0-0.3,0.1-0.6,0.1-1c0-3.2-0.2-6.3-0.6-9.6
		C72.2,93.3,72,90,72,86.8c0-1.3-0.3-2.5-0.4-4c-2.2,0-4.5,0.1-6.8,0c-1.4-0.1-2.9,0.2-4.1-0.7c-0.3-0.3-0.6-0.6-0.8-1l8.6-5.1
		c-0.6-0.1-1.1-0.2-1.7-0.3c-5.7,0-11.3,0-17-0.1c-1.4-0.1-2.7-0.4-4-0.8c-0.5-0.2-0.8-1-1.4-1.7l6.2-2.2c5.7-2,11.3-4,17-6
		c0.6-0.4,1.4-0.3,1.9,0.3c0.7,1,2.1,1.3,3.3,0.5c0.5-0.2,1-0.2,1.6-0.1c3.3,0.2,6.5,0.5,9.8,0.8c3,0.2,6-0.4,8.7-1.9
		c3.6-1.8,7.3-3,11.3-2.3c1.7,0.3,3.5-0.3,5.2-0.3c8.1-0.1,16.3,0.1,24.4,0.9c1,0.1,2.1,0.1,3.1,0c4.5-0.5,8.9,0.8,13.4,0.7
		c4.4-0.1,8.8,0.1,13.1,0.6c0.5,0,0.9,0,1.4-0.1c2.3-0.5,2.3-0.5,4.8,0.7c0.2,1.2-0.6,1.6-1.5,1.7c-1.6,0.3-3.1,1.1-4.2,2.2
		c3.6-0.4,7.1,1.2,10.8,0c0.4-0.1,0.8-0.1,1.2-0.1c3.5,0.3,7,0.1,10.5-0.5c1-0.1,2-0.4,3.3-0.7L191,69c-4.2,2.6-8.3,5.1-11.5,8
		c-1,0.4-2,0.8-3.1,1.3c-1.1,0.6-2.3,1.4-3.3,2.1c-0.9,0.7-2.1,0.8-3.1,0.3c-1.8-0.7-3.6-1-5.6-0.8c-1.6,0.1-3.2-0.1-4.9-0.2
		c-0.1,0.4-0.2,0.8-0.3,1.2c0.2,3.5,0.4,7,0.6,10.6c0.1,0.8,0.1,1.6,0.1,2.4c-0.1,3.5-0.2,7-0.2,10.6c0,2.3,0.2,4.6,0.1,6.9
		c0,2-0.2,4.1-0.4,6.2c-0.2,1.2-0.7,1.5-2.2,1.3c-2.4,2.7-4.3,5.8-5.6,9.2c-0.3,0.8-0.6,1.7-0.6,2.5c0.1,0.8-0.5,1.5-1.3,1.6
		c-0.1,0-0.3,0-0.4,0c-1.6,0-3.2-0.2-4.9-0.3v-0.6c1.1,0,2.2-0.2,3.2-0.6C146.6,130.6,145.4,129.3,143.8,130.4z M74.1,83
		c0,1-0.1,2-0.1,3c0,2.2-0.1,4.5,0,6.7c0.3,4.4,0.6,8.9,0.9,13.4c0.2,4.2,0.4,8.4,0.5,12.7c-0.1,1-0.2,1.9-0.4,2.8
		c-0.3,1.7-0.7,3.4-1,5.4c1,0.4,2,0.7,3,0.9c1.6,0,3.1-0.1,4.7,0c6.6,0.5,13.2,0.8,19.7,1.2c0.6,0,1.1,0,1.7,0l19.4-0.3
		c2.6,0,5.3,0,7.9-0.1c1.4,0,2.7-0.4,4-0.4c4.7,0,9.5-0.4,13.9,1.5c0.1,0,0.3,0,0.4,0c1.4-1.3,1.4-3,1.2-4.8
		c-0.1-1.9-0.4-3.8-0.5-5.7c-0.1-1.3,0.3-2.6,1.2-3.6l0.7,10.5c2.6-3.5,3.6-7.8,7.2-10.2c0.1-1.2,0.1-2.3,0.2-3.3
		c0.1-1.8,0.4-3.7,0.3-5.5c-0.1-3.6-0.6-7.1-0.5-10.8c0.2-3.1,0.2-6.2,0.1-9.3c0-2.5-0.4-4.9-1.3-7.2l-5.9-0.6c0,2,0.1,3.8,0.1,5.6
		c-0.1,4.9-0.1,10-0.3,14.9c-0.1,4,0,8.1-0.1,12.2c-0.1,1.1,0.3,2.4-1.2,3.7c0-6.4,0.4-12.5-0.1-18.3s0.9-12-0.2-17.9
		c-0.3,0.1-0.6,0.3-0.8,0.5c-1.5,2-3.6,3.4-5.9,4.2c-0.4,0.1-0.7,0.4-0.9,0.7c-0.6,1.2-1.4,1.1-2.4,0.9c-1.5-0.4-3.1-0.6-4.7-0.6
		c-5.5-0.1-11,0-16.5-0.2c-7.3-0.4-14.5-1.3-21.9-1.6C89.2,82.9,82,83.1,74.8,83C74.5,82.9,74.3,82.9,74.1,83L74.1,83z M76.6,74.5
		c2.9-0.6,5.6,0,8.3,0.5c0.3,0,0.7,0,1,0c4.3,0.3,8.6,0.6,12.9,0.8c6.9,0.3,13.7,0.7,20.6,0.8c8.7,0.1,17.4-0.1,26.1,0
		c2.4,0.2,4.8-0.6,6.7-2.3c1.6-1.2,3.3-2.3,5-3.3c-2.4-0.2-4.3-0.5-6.3-0.5c-5,0-10,0.2-15.1,0.2c-6.9,0-13.7-0.3-20.4-1
		c-7.3-0.7-14.5-1-21.9-1.6c-2.9-0.2-4.1,1.1-4.6,3.8c-0.1,0.5-0.3,1-0.4,1.5c-1.7-0.6-0.5-2.3-1.4-3.2
		C83.4,71.4,79.6,71.9,76.6,74.5L76.6,74.5z M66.8,81.1h6.7c4.9,0,9.9-0.1,14.8,0.1c4,0.1,8,0.5,11.9,0.7c4.8,0.3,9.6,0.7,14.4,0.9
		c4.4,0.2,8.8,0.2,13.2,0.3c3.3,0.1,6.5,0.3,9.8,0.2c1.7,0,3.3-0.4,5-1c1.4-0.8,2.9-1.7,4.1-2.8c0.4-0.5,0.8-1,1-1.5h-2
		c-9.7,0-19.3,0.1-29,0.1c-10,0-20-0.5-29.8-1.5c-3.3-0.3-6.5-0.4-9.8-0.5c-1.1,0-2.2,0.4-3.3,0.3c-2.2-0.3-4.3,0.8-5.4,2.8
		C67.8,79.7,67.5,80.1,66.8,81.1L66.8,81.1z M92.7,66.7c3.5,0.2,6.6,0.4,9.7,0.5c8.4,0.3,16.5,1.9,24.9,2c7.2,0.1,14.4,0.1,21.5,0.2
		c3.9,0.1,7.8-1.5,11.6-0.8c0.7,0.1,1.6-0.7,2.7-1.2l-1.2-1c0.2-0.1,0.4-0.3,0.6-0.5c0.2-0.2,0.3-0.4,0.4-0.7
		c-0.8,0-1.5-0.1-2.1-0.1c-3.8-0.1-7.7,0-11.5-0.2c-5-0.2-10-0.6-14.9-1.1c-11-1-22.1-1.1-33.3-0.3C98,63.6,95.1,64.7,92.7,66.7
		L92.7,66.7z M161.1,70.8c-0.9,2.3-0.9,2.3-3.5,2.1c-0.2,0-0.3,0-0.5,0c-2.1,0.9-4.1,2.1-6,3.7c1,0.7,2,1.1,3.2,1
		c5.8,0.3,11.6,0.7,17.3,1c0.6,0,1.3-0.1,1.9-0.4c2.3-1.2,4.4-2.4,6.6-3.7c1.5-1,2.9-2.1,4.3-3.3c0.3-0.3,0.5-0.6,0.6-0.9
		L161.1,70.8z M49,73.3l0.1,0.5h1.7c4.1,0,8.1,0,12.2,0c2.4,0,4.8,0.2,7.2,0.2c1-0.1,2-0.3,3-0.7c0.3-0.2,0.7-0.3,1-0.4
		c1.3,0.5,2.1-0.4,3.1-0.9c1.3-0.6,2.7-1.1,4.1-1.6s2.7-0.9,4.2-1.4c0.5-0.3,0.9-0.7,1.3-1.1c-2.9-0.3-5.5-0.6-8-0.8
		c-1.3-0.1-2.6-0.9-3.7,0.6c-0.3,0.2-0.6,0.3-0.9,0.2c-1.7,0-3.3-0.2-4.9-0.6c-1.2-0.4-2.5-0.4-3.7,0.1c-4.2,1.4-8.2,2.9-12.3,4.4
		L49,73.3z"/>
	<path class="st1" d="M143.8,130.4c1.6-1.1,2.8,0.2,4.2,0.3c-1,0.4-2.1,0.6-3.2,0.6L143.8,130.4z"/>
	<path d="M161.9,130.6l-1.8,0.3C160.8,130,160.8,130,161.9,130.6z"/>
	<path class="st1" d="M74.1,83c0.2-0.1,0.4-0.2,0.6-0.2c7.2,0,14.4-0.1,21.6,0.2c7.3,0.3,14.5,1.2,21.9,1.6c5.5,0.3,11,0.1,16.5,0.2
		c1.6,0.1,3.2,0.3,4.7,0.6c1.1,0.2,1.9,0.3,2.4-0.9c0.2-0.3,0.5-0.6,0.9-0.7c2.3-0.7,4.4-2.2,5.9-4.2c0.3-0.2,0.5-0.4,0.8-0.5
		c1.1,6-0.2,12.1,0.2,17.9s0.1,12,0.1,18.3c1.5-1.3,1.2-2.6,1.2-3.7c0.1-4,0.1-8.1,0.1-12.2c0.1-4.9,0.2-10,0.3-14.9
		c0-1.8,0-3.6-0.1-5.6l5.9,0.6c0.9,2.3,1.4,4.7,1.3,7.2c0,3.1,0.2,6.2-0.1,9.3c-0.2,3.5,0.3,7.1,0.5,10.8c0,1.8-0.2,3.7-0.3,5.5
		c-0.1,1-0.1,2.1-0.2,3.3c-3.6,2.3-4.6,6.6-7.2,10.2l-0.7-10.5c-0.9,1-1.3,2.3-1.2,3.6c0.1,1.9,0.4,3.8,0.5,5.7
		c0.1,1.7,0.2,3.5-1.2,4.8c-0.1,0-0.3,0-0.4,0c-4.4-1.9-9.2-1.4-13.9-1.5c-1.4,0-2.7,0.4-4,0.4c-2.6,0.1-5.3,0.1-7.9,0.1l-19.4,0.3
		c-0.6,0-1.1,0.1-1.7,0c-6.6-0.4-13.2-0.7-19.7-1.2c-1.6-0.1-3.1,0-4.7,0c-1-0.2-2-0.5-3-0.9c0.4-2,0.7-3.7,1-5.4
		c0.2-0.9,0.4-1.9,0.4-2.8c-0.1-4.2-0.2-8.4-0.5-12.7c-0.3-4.4-0.6-8.9-0.9-13.4c-0.1-2.2,0-4.5,0-6.7C73.9,85,74.1,84,74.1,83z"/>
	<path class="st1" d="M66.8,81.1c0.7-1,1.1-1.5,1.3-2c1.1-2,3.4-3.1,5.4-2.8c1.1,0.1,2.2-0.3,3.3-0.3c3.3,0.1,6.5,0.2,9.8,0.5
		c10,0.9,19.8,1.5,29.8,1.5c9.7,0,19.3,0,29-0.1h2c-0.2,0.5-0.6,1-1,1.5c-1.3,1.1-2.7,2.1-4.1,2.8c-1.5,0.6-3.3,1-5,1
		c-3.3,0.1-6.5-0.1-9.8-0.2c-4.4-0.1-8.8-0.1-13.2-0.3c-4.8-0.2-9.6-0.6-14.4-0.9c-4-0.2-7.9-0.6-11.9-0.7C83.3,81,78.3,81,73.4,81
		L66.8,81.1L66.8,81.1z M132.4,82.1v0.6l4.7-0.3v-0.3L132.4,82.1L132.4,82.1z"/>
	<path class="st1" d="M92.6,66.7c2.4-2,5.4-3.1,8.5-3.1c11.1-0.7,22.2-0.6,33.2,0.3c5,0.4,10,0.8,14.9,1.1c3.8,0.2,7.7,0.1,11.5,0.2
		c0.6,0,1.2,0,2.1,0.1c-0.1,0.2-0.2,0.5-0.4,0.7s-0.4,0.3-0.6,0.5l1.2,1c-0.9,0.5-1.9,1.3-2.7,1.2c-4-0.7-7.7,0.8-11.6,0.8
		c-7.2-0.1-14.4-0.2-21.5-0.2c-8.4-0.1-16.5-1.6-24.9-2C99.1,67.1,96,66.9,92.6,66.7z"/>
	<path class="st1" d="M161.1,70.8l24.1-0.5c-0.2,0.3-0.4,0.7-0.6,0.9c-1.4,1.2-2.8,2.3-4.3,3.3c-2.2,1.4-4.3,2.5-6.6,3.7
		c-0.6,0.3-1.2,0.4-1.9,0.4c-5.8-0.3-11.6-0.6-17.3-1c-1.2,0.1-2.4-0.3-3.2-1c1.8-1.5,3.8-2.8,6-3.7c0.2,0,0.3,0,0.5,0
		C160.2,73.1,160.2,73.1,161.1,70.8z"/>
	<path class="st1" d="M49,73.3l4.3-1.5c4.1-1.5,8.3-3,12.3-4.4c1.2-0.5,2.5-0.6,3.7-0.1c1.6,0.4,3.3,0.6,4.9,0.6
		c0.3,0.1,0.6,0,0.9-0.2c1.2-1.4,2.4-0.7,3.7-0.6c2.5,0.2,5,0.5,8,0.8c-0.3,0.4-0.8,0.8-1.3,1.1c-1.3,0.5-2.7,0.9-4.2,1.4
		s-2.8,1-4.1,1.6c-1,0.5-1.9,1.3-3.1,0.9c-0.4,0.1-0.7,0.2-1,0.4c-1,0.4-2,0.6-3,0.7c-2.4,0-4.8-0.1-7.2-0.2c-4.1,0-8.1,0-12.2,0
		h-1.6L49,73.3z"/>
	<path d="M132.4,82h4.7v0.3l-4.7,0.3V82z"/>
</g>
</svg>
