<?xml version="1.0" encoding="utf-8"?>
<!-- Generator: Adobe Illustrator 19.2.1, SVG Export Plug-In . SVG Version: 6.00 Build 0)  -->
<svg version="1.1" id="Ebene_1" xmlns="http://www.w3.org/2000/svg" xmlns:xlink="http://www.w3.org/1999/xlink" x="0px" y="0px"
	 viewBox="0 0 236 181.5" style="enable-background:new 0 0 236 181.5;" xml:space="preserve">
<style type="text/css">
	.st0{fill:#FFFFFF;}
</style>
<g id="doc00073520160814150808-12.psd_Bild">
	<title>SK_Website-Animation_Einzelbilder</title>
	<path class="st0" d="M197.1,96.7c-0.8-0.9-1.8-1.4-2.9-1.5c-3.6-0.6-7.1-1.8-10.4-3.5c-3.9-2-7.9-3.8-11.2-7
		c-1.3-1-2.8-1.8-4.4-2.2c-3.7-1.4-7.4-2.5-10.7-4.8c-1.8-1.1-3.6-2.1-5.4-2.9c-1.8-0.8-3.5-1.7-5.2-2.8c-1.6-1.3-3.4-2.3-5.4-2.9
		c-1.4-0.5-2.7-1.3-3.9-2.2c-1.2-0.8-1.7-0.9-2.4,0.2c-1,1.6-2.5,1.9-4,2.3c-1.4,0.4-2.7,0.7-4.1,1c-1.1,0.3-2.3,0.6-3.5,0.8
		c-2.8,0.4-5.6,1.1-8.3,2c-3.7,1.3-7.3,2.3-11.1,3c-5.5,0.9-11.2,1.4-16.6,3c-3.6,1-7.3,1.3-11,2.1c-3.2,0.7-6.3,1.6-9.4,2.4
		c-2,0.5-3.9,1.2-5.8,1.6c-2.3,0.4-4.4,0.7-6.7,0.9c-1.1,0.1-2.3,0.1-3.5-0.2c-2-0.6-4.1,0.1-6.2,0.1c-0.9,0.1-1.8,0.8-2,1.8
		c0.9-0.1,1.9-0.1,2.8,0c0.8,0.4,1.7,0.9,2.4,1.4c0.5,0.1,1,0.2,1.5,0.2s0.9,0,1.3,0.1c3,1.5,6.1,3,9.1,4.7c2.4,1.5,4.8,3.2,7.6,4
		c1,0.4,2.1,0.9,3,1.6c1.9,1.2,3.6,2.6,5.5,3.7c2.4,1.4,5.1,2.4,7.5,3.7c0.8,0.4,1.4,0.9,2.1,1.4c1,0.7,2.2,1.4,3.3,2
		c2.3,1.1,4.9,2,6.4,4.6c0.4,0.5,0.8,0.9,1.4,1.2c0.6,0.6,1.5,0.7,2.1,0.1c0.1-0.1,0.1-0.1,0.2-0.2c0.6-0.7,1.4-1.2,2.3-1.2
		c2.5-0.5,5.2-1.1,7.6-1.8c2.5-0.5,5.1-1.3,7.5-2.4c1.7-0.8,3.5-1.4,5.3-1.8c1.2-0.3,2.4-0.6,3.7-1c4.1-1.2,8.3-2.4,12.4-3.5
		c2.7-0.7,5.5-1.4,8.4-1.9c3.6-0.7,7.2-1.3,10.8-1.7c3-0.3,6.2-0.1,9.2-0.4c3.9-0.4,7.9-1.1,11.7-1.8c6-1,11.8-2.9,18-1.7
		C196.5,97,196.9,96.9,197.1,96.7z M206.5,97.8c0.2-0.2,0.4-0.4,0.5-0.6c-0.1-0.2-0.2-0.4-0.4-0.5c-0.2,0.2-0.4,0.4-0.5,0.6
		C206.2,97.5,206.3,97.7,206.5,97.8L206.5,97.8z"/>
	<path d="M197.1,96.7c-0.3,0.2-0.7,0.4-1,0.5c-6.1-1.2-12,0.7-18,1.7c-3.9,0.7-7.9,1.4-11.7,1.8c-3,0.3-6.2,0.1-9.2,0.4
		c-3.7,0.4-7.2,1-10.8,1.7c-2.8,0.5-5.6,1.1-8.4,1.9c-4.1,1.1-8.3,2.4-12.4,3.5c-1.2,0.4-2.4,0.7-3.7,1c-1.8,0.4-3.6,1-5.3,1.8
		c-2.4,1.1-5,1.9-7.5,2.4c-2.5,0.7-5.1,1.2-7.6,1.8c-0.9,0.1-1.7,0.5-2.3,1.2c-0.5,0.7-1.4,0.8-2.1,0.2c-0.1,0-0.1-0.1-0.2-0.2
		c-0.5-0.3-0.9-0.7-1.4-1.2c-1.4-2.6-3.9-3.5-6.4-4.6c-1.1-0.6-2.2-1.3-3.3-2c-0.7-0.5-1.4-1-2.1-1.4c-2.5-1.2-5.1-2.3-7.5-3.7
		c-1.9-1.1-3.7-2.5-5.5-3.7c-0.9-0.7-2-1.2-3-1.6c-2.8-0.8-5.2-2.6-7.6-4c-2.9-1.7-6-3.2-9.1-4.7c-0.5-0.1-0.8-0.2-1.3-0.1
		c-0.6,0-1,0-1.5-0.2c-0.8-0.5-1.6-1-2.4-1.4c-0.9-0.1-1.9-0.2-2.8,0c0.3-1,1-1.7,2-1.8c2.1,0,4.1-0.6,6.2-0.1
		c1.1,0.3,2.3,0.3,3.5,0.2c2.3-0.2,4.5-0.5,6.7-0.9c2-0.4,3.9-1.1,5.8-1.6c3.1-0.8,6.2-1.7,9.4-2.4c3.7-0.8,7.4-1.1,11-2.1
		c5.4-1.6,11.1-2.1,16.6-3c3.8-0.7,7.5-1.7,11.1-3c2.7-0.9,5.4-1.6,8.3-2c1.1-0.2,2.3-0.5,3.5-0.8c1.4-0.3,2.7-0.6,4.1-1
		c1.5-0.4,3-0.7,4-2.3c0.8-1.2,1.2-1,2.4-0.2c1.2,0.9,2.5,1.7,3.9,2.2c1.9,0.6,3.8,1.6,5.4,2.9c1.7,1.1,3.4,2,5.2,2.8
		c1.9,0.9,3.7,1.8,5.4,2.9c3.3,2.3,7,3.5,10.7,4.8c1.6,0.4,3.1,1.2,4.4,2.2c3.3,3.1,7.3,5,11.2,7c3.3,1.7,6.9,2.9,10.4,3.5
		C195.3,95.3,196.4,95.9,197.1,96.7z M52.6,88.6c2.1,1,3.8,1.8,5.4,2.7c3,1.7,5.8,3.5,8.8,5.1c2.3,1.2,4.8,2.2,7,3.9
		c1.5,1.2,3.1,2.2,4.9,3c3.2,1.3,6.3,3,9.1,5.1c0.7,0.4,1.3,0.7,2,1c1.5,0.8,3.1,1.5,4.6,2.3c2.4,1.4,4.8,2.7,7.6,1.2
		c0.4-0.1,0.8-0.2,1.1-0.2c2.7-0.7,5.4-1.2,8.1-2.1c2.9-1.1,5.8-2,8.8-2.6c1.5-0.3,2.9-0.7,4.3-1.2c2.3-0.7,4.6-1.5,6.9-2.1
		c5.6-1.4,11.2-2.8,16.8-4.1c2.1-0.5,4.1-0.7,6.2-0.9c4.1-0.3,8.3-0.4,12.3-0.5c4.5-0.3,8.9-1,13.3-2.2c2.5-0.6,5-1.1,8-1.7
		c-1.3-0.5-2.3-0.8-3.1-1.3c-2.8-1.5-5.7-3.1-8.6-4.7c-1.4-0.6-2.6-1.4-3.9-2.4c-2.3-2.4-5-3.5-7.9-4.2c-2-0.5-3.9-1.3-5.5-2.4
		c-2.7-1.8-5.6-3.2-8.6-4.8c-1.9-1-3.8-2-5.5-3c-1.6-1-3.3-1.9-5.1-2.6c-1.4-0.4-2.8-0.4-4.2-0.1c-4.2,0.9-8.4,2-12.5,3
		c-1.3,0.3-2.7,0.4-3.9,0.9c-5.8,2-11.6,3.8-17.7,4.5c-4,0.4-8.1,1.5-12.1,2.3c-3.4,0.7-6.8,1.3-10.1,2.1c-0.9,0.2-1.8,0.8-2.7,1
		c-3.1,0.7-6.2,1.1-9.3,1.9c-1.8,0.4-3.4,1.2-5.2,1.5C59.1,87.5,56.1,88,52.6,88.6L52.6,88.6z"/>
	<path d="M206.5,97.8c-0.2-0.1-0.3-0.3-0.4-0.5c0.2-0.2,0.3-0.4,0.5-0.6c0.2,0.1,0.3,0.3,0.4,0.5C206.8,97.5,206.7,97.7,206.5,97.8z
		"/>
	<path class="st0" d="M52.6,88.6c3.5-0.6,6.5-1.1,9.5-1.7c1.8-0.4,3.4-1.2,5.2-1.5c3.1-0.7,6.2-1.2,9.3-1.9c0.9-0.2,1.8-0.8,2.7-1
		c3.4-0.7,6.8-1.4,10.1-2.1c4-0.8,8.1-1.9,12.1-2.3c6.1-0.7,11.8-2.5,17.7-4.5c1.3-0.4,2.6-0.5,3.9-0.9c4.1-1,8.3-2.1,12.5-3
		c1.4-0.3,2.8-0.3,4.2,0.1c1.8,0.7,3.5,1.6,5.1,2.6c1.9,1,3.8,2,5.5,3c2.8,1.6,5.8,3,8.6,4.8c1.7,1.1,3.7,1.9,5.5,2.4
		c2.9,0.8,5.6,1.9,7.9,4.2c1.1,1,2.4,1.8,3.9,2.4c2.8,1.6,5.6,3.2,8.6,4.7c0.8,0.5,1.8,0.7,3.1,1.3c-2.9,0.6-5.4,1.1-8,1.7
		c-4.3,1.2-8.8,1.9-13.3,2.1c-4.1,0.1-8.3,0.3-12.3,0.5c-2.1,0.1-4.1,0.4-6.2,0.9c-5.6,1.3-11.3,2.7-16.8,4.1
		c-2.3,0.6-4.6,1.4-6.9,2.1c-1.4,0.5-2.9,0.9-4.3,1.2c-3,0.6-6,1.5-8.8,2.6c-2.6,1-5.4,1.5-8.1,2.1c-0.4,0-0.8,0.1-1.1,0.2
		c-2.8,1.5-5.2,0.1-7.6-1.2c-1.5-0.8-3.1-1.5-4.6-2.3c-0.7-0.3-1.4-0.6-2-1c-2.9-2-5.9-3.7-9.1-5.1c-1.7-0.8-3.4-1.8-4.9-3
		c-2.2-1.7-4.6-2.7-7-3.9c-3-1.6-5.9-3.5-8.8-5.1C56.4,90.4,54.7,89.6,52.6,88.6z"/>
</g>
</svg>
