<?xml version="1.0" encoding="utf-8"?>
<!-- Generator: Adobe Illustrator 19.2.1, SVG Export Plug-In . SVG Version: 6.00 Build 0)  -->
<svg version="1.1" id="Ebene_1" xmlns="http://www.w3.org/2000/svg" xmlns:xlink="http://www.w3.org/1999/xlink" x="0px" y="0px"
	 viewBox="0 0 236 181.5" style="enable-background:new 0 0 236 181.5;" xml:space="preserve">
<style type="text/css">
	.st0{fill:#1D1D1B;}
	.st1{fill:#FFFFFF;}
</style>
<path class="st0" d="M88.6,100.4c0-0.5,0.3,4.3,0.7,2.8c-0.6-0.8-1.1-0.9-1.9-1c-1.6-0.2-3.3-0.5-4.9-0.6c-0.6,0-1.3,0.1-1.9,0.2
	c-1.7,0.3-3.4,0.4-5.3,0.2c-1.3-0.1-2.6,0-3.9,0.2c-1,0.1-2.1,0.3-3.1,0.1c-1.3-0.2-2.6-0.1-3.9,0c-2.4,0.2-4.9,0.3-7.3,0.4
	c-0.1,0-0.3-0.1-0.4-0.1c-3.7-1-7.4-0.7-11.1-0.2c-2.7,0.3-5.4-0.1-8.3-0.4c-2.3,0.5-4.9,0.3-7.4-0.3c-2.3-0.5-4.6-0.4-6.9-0.5
	c-1.7,0-3.4,0-5.1,0c-0.6,0-1.1-0.1-2.1-0.3c0.7-0.3,1-0.5,1.3-0.5c3.6,0.1,7.1,0.3,10.7,0.5c1.3,0.1,2.6,0.4,3.9,0.5
	c1.7,0.1,3.4,0,5.1,0c0.7,0,1.3,0,2,0c1.4,0.1,2.7,0.2,4.1,0.3c1.7,0.1,3.4,0.1,5.1-0.3c2-0.4,4-0.4,6-0.2c4.1,0.4,8.3,0.2,12.4-0.5
	c0.9-0.2,1.6-0.2,2.4-0.2c1.7,0,3.4,0.1,5.1-0.3c0.3-0.1,0.4-0.1,0.7-0.1c3.3,0.6,6.7,0,10,0.1c0.7,0,1.4,0.2,2.1,0.2
	C87.3,100.5,87.8,100.4,88.6,100.4"/>
<path class="st0" d="M144.3,100.3c0-0.5-0.3,4.7-0.9,3c0.6-0.9,1.2-1,1.9-1.1c1.6-0.2,3.4-0.5,5.2-0.7c0.7,0,1.3,0.1,2.1,0.2
	c1.9,0.3,3.9,0.4,5.8,0.2c1.3-0.1,2.8,0,4.2,0.2c1.2,0.1,2.4,0.3,3.4,0.1c1.3-0.2,2.8-0.1,4.2,0c2.5,0.2,5.2,0.3,7.9,0.4
	c0.3,0,0.4-0.1,0.6-0.1c4-1.1,8-0.8,12-0.2c3,0.3,5.9-0.1,9-0.4c2.5,0.5,5.2,0.3,8-0.3c2.4-0.5,4.9-0.4,7.4-0.5c1.8,0,3.7,0,5.5,0
	c0.4,0,1-0.1,2.2-0.3c-0.7-0.3-1-0.5-1.3-0.5c-3.9,0.1-7.7,0.3-11.6,0.5c-1.3,0.1-2.8,0.4-4.2,0.5c-1.8,0.1-3.7,0-5.5,0
	c-0.6,0-1.3,0-2.1,0c-1.5,0.1-3,0.2-4.4,0.3c-1.8,0.1-3.7,0.1-5.5-0.3c-2.1-0.4-4.3-0.4-6.4-0.2c-4.6,0.4-9,0.2-13.5-0.5
	c-0.9-0.2-1.8-0.2-2.7-0.2c-1.8,0-3.7,0.1-5.5-0.3c-0.1-0.1-0.4-0.1-0.7-0.1c-3.6,0.7-7.3,0-10.8,0.1c-0.7,0-1.6,0.2-2.4,0.2
	C145.7,100.4,145.1,100.3,144.3,100.3"/>
<g id="doc00073520160814150808-48.psd_Bild">
	<title>SK_Website-Animation_Einzelbilder</title>
	<path d="M72.2,68.2c5,0.2,10.1,0.4,15.4,0.6c4.5,0.1,9.2,0.1,13.7,0.2c8.1,0.2,16.2,0.5,24.2,0.6c4.8,0.1,9.8-0.2,14.7-0.2
		c1.1,0,2.3,0.1,3.3,0.1c2-0.1,4.1-0.1,6.2-0.3c1.3-0.1,2.6,0,3.9-0.1c1,0,1.9-0.1,2.8,0c1.8,0.2,3.5,0.3,5.4,0.6
		c0.5,0.2,0.8,0.8,1,1.3c1.8,4.8,3.5,9.7,5.4,14.5c0.9,2.5,1.4,5.1,2.9,7.4c0.5,0.7,0.4,1.5-0.3,2c-0.1,0.1-0.2,0.1-0.3,0.2
		c-1,0.3-2-0.3-2.3-1.2v-0.1c-0.3-1-0.4-2.1-0.7-3c-1.3-4.6-2.9-9-4.6-13.5c0,0.4,0,1,0.1,1.4c0.7,3.7,1.4,7.3,2.1,10.8
		c0.1,1.3,0.2,2.6,0,3.9c0,1-0.4,1.7-2,1.1c0.1,6.1,0.2,12,0.2,17.8c0,2.7-0.5,5.3-0.4,8c0,2.9-0.5,5.8,0.7,8.6
		c0.1,0.8,0.1,1.5-0.1,2.3c-0.6,0-1.4-0.1-2-0.4c-2-0.9-4.4-1.2-6.6-0.7c-1.1,0.2-2.1-0.3-3.3-0.2c-4.4,0-8.9,0.1-13.5,0.1
		c-4,0-8-0.2-11.9-0.2s-7.8,0.3-11.7,0.5c-2,0.1-4.1-0.1-6.3,0c-2.7,0-5.3,0.1-8,0.1c-0.3,0-0.6,0.1-1.1,0.1
		c-7-0.1-13.9-0.2-20.9-0.3c-2.3-0.1-4.5,0.2-6.9,0.3c-1.7,0.1-1.7,0.1-3-2.3c0.4-0.1,0.9-0.3,1.2-0.6c1-1.1,1.9-2.2,1.4-3.8
		c-0.1-0.4-0.1-0.9-0.1-1.3c0-7.4-0.1-14.8,0-22.2c0-2.7,0.1-5.5,0.2-8.6c-0.7,0.3-1.4,0.6-2.2,0.8c-0.5,0.2-1.2,0.2-1.8,0
		c-0.4-0.5-0.6-1.3-0.5-2.1c1-0.9,0.7-2,0.8-3.1c0.2-1.3,0.7-2.5,1.2-3.6c0.7-1.8,1.5-3.6,2.2-5.6c0.2-0.7,0.3-1.6,0.1-2.4
		c-1.8,2.5-3.4,5.3-4.6,8.1c-1,2.6-2.1,5.1-3.2,7.6c-0.1,0.3-0.2,0.6-0.5,1c-0.3,0.5-1.1,0.7-1.6,0.4c-0.3-0.1-0.4-0.4-0.5-0.8
		c-0.2-0.7-0.2-1.3,0-1.9c2.9-6,6.1-11.7,9.5-17.4C71.1,71.1,71.6,69.7,72.2,68.2z M160.4,128.4c0.1-0.3,0.2-0.6,0.3-1
		c0.1-4.1,0.1-8.1,0.2-12.1c0.1-3.4,0.1-6.9,0-10.3c-0.2-1.6-0.1-3.2,0-4.8c0.6-2.5,0.4-5.1-0.5-7.4c-3-0.1-6-0.1-9-0.2
		c-4.4-0.2-8.7-0.2-13.1,0c-4.4,0.3-8.9-0.3-13.5-0.4c-6.7-0.2-13.5-0.2-20.1-0.3c-2.8-0.2-5.5-0.1-8.3,0.1c-3.3,0.3-6.7,0.5-10,0.4
		c-4.3-0.2-8.5-0.2-12.6-0.3c-1.5,12-0.8,23.8-0.7,35.8c0.6,0.1,1.3,0.2,1.9,0.3c5.4,0.1,10.8,0.4,16.2,0.4
		c7.5,0.1,15.1-0.1,22.7-0.1c6.6-0.1,13.3,0,19.8,0.1c1.9,0,4,0.1,5.9,0.1c6,0,12,0,18-0.1C158.8,128.4,159.7,128.4,160.4,128.4
		L160.4,128.4z M163.1,90.8c-0.1-1.1-0.1-1.9-0.3-2.7c-0.8-4.5-1.4-9-2.1-13.5c-0.1-1.8-1.4-3.3-3.1-3.6c-1-0.2-2-0.4-3.1-0.3
		c-6.3,0-12.4,0-18.5,0.1c-3.9,0-7.8,0.1-11.6,0.1c-6.8-0.2-13.6-0.3-20.4-0.5c-4-0.1-8-0.1-11.9-0.1c-5.7,0.2-11.4-1.6-17.2,0.1
		c-0.7,1.3-1.2,2.6-1.8,3.9c-0.6,1.5-0.8,3.2-1.2,4.7c-0.5,1.8-1.1,3.6-1.4,5.5c-0.4,1.8-1.6,3.3-0.7,5.2c2.7,0.2,5.3,0.3,8,0.5
		c5.7,0.2,11.3,0.9,17,0.4c5.9-0.6,11.9-0.7,17.8-0.3c5.8,0.5,11.7,0.5,17.6,0.5c5.4,0,10.8-0.2,16.2-0.1c4.3,0,8.7,0.2,13.1,0.3
		C160.4,91.1,161.6,90.9,163.1,90.8L163.1,90.8z"/>
	<path d="M172.3,99.4l-1.9-1.1C171.6,97.5,171.8,98.3,172.3,99.4z"/>
	<path class="st1" d="M160.4,128.4c-0.8,0-1.6,0-2.5-0.1c-6,0-12,0-18,0.1c-1.9,0-4-0.1-5.9-0.1c-6.6-0.1-13.3,0-19.8-0.1
		c-7.5,0-15.1,0.1-22.7,0.1c-5.4,0-10.8-0.3-16.2-0.4c-0.6,0-1.3-0.1-1.9-0.3c-0.1-12-0.7-23.7,0.7-35.8c4.1,0.1,8.3,0.1,12.6,0.3
		c3.3,0.2,6.7,0.1,10-0.4c2.7-0.1,5.5-0.2,8.3-0.1c6.7,0.1,13.5,0.1,20.1,0.3c4.4,0.1,8.9,0.8,13.5,0.4c4.4-0.2,8.7-0.2,13.1,0
		c3,0.1,5.9,0.1,9,0.2c0.9,2.4,1.1,5,0.5,7.4c-0.1,1.6-0.2,3.2,0,4.8c0,3.4,0,6.9,0,10.3c0,4.1-0.1,8.1-0.2,12.1
		C160.8,127.8,160.6,128.1,160.4,128.4z"/>
	<path class="st1" d="M163.1,90.8c-1.5,0.1-2.7,0.4-3.9,0.3c-4.4-0.1-8.7-0.2-13.1-0.3c-5.4,0-10.8,0.2-16.2,0.1
		c-5.8,0-11.7-0.1-17.6-0.5s-11.8-0.3-17.8,0.3c-5.7,0.5-11.3-0.2-17-0.4c-2.6-0.1-5.3-0.3-8-0.5c-0.9-1.9,0.3-3.4,0.7-5.2
		c0.4-1.7,1-3.6,1.4-5.5c0.5-1.6,0.6-3.2,1.2-4.7c0.6-1.4,1.1-2.7,1.8-3.9c5.9-1.7,11.6,0.1,17.2-0.1c4-0.1,8,0,11.9,0.1
		c6.8,0.2,13.6,0.4,20.4,0.5c3.9,0.1,7.8,0,11.6-0.1c6.3-0.1,12.4-0.1,18.5-0.1c1.1,0,2,0.2,3.1,0.3c1.7,0.3,3.1,1.8,3.1,3.6
		c0.6,4.5,1.4,9,2.1,13.5C163,88.9,163,89.7,163.1,90.8z"/>
</g>
</svg>
