<svg id="Ebene_1" xmlns="http://www.w3.org/2000/svg" viewBox="0 0 236 181.5">
        <path fill="#fff" d="M192.2 51.7c-.5-.8-1.2-1.5-2.4-1-1.4.6-2.8 1.1-4.2 1.6-5 1.6-10.3 1.9-15.3 3.5-.6.2-1.3.2-1.9.2-1.1 0-2.2-.3-3.3-.2-3.4.2-6.8.6-10.2.9-.8.2-1.6.3-2.4.3-3.1-.5-5.9.6-8.8 1.6-2.3.7-4.7 1.6-7.2.7-.9-.3-2 .1-2.5.9-.6.7-1.4 1.3-2 1.9-.6.8-1.6.9-2.4.4-.2-.1-.3-.2-.4-.4 1.8-2.6 3.5-5 5.1-7.6.9-1.5 1.6-3.1 3.3-3.9.8-.4.9-2.5.5-3.6-.4-1-1.5-1.5-2.6-1.2-1.4.1-2.8.2-4.2.1-3.9-.2-7.8-.9-11.7-.5-.8 0-1.6 0-2.4-.2-1.8-.1-3.5-.3-5.3-.3-2.9-.1-5.7-.1-8.6-.3-2.4-.1-4.7-.6-7.1-.7-2-.1-4 .2-5.9-.7-.4-.1-.8-.1-1.2-.1-2.3 0-4.6 0-6.9-.1-2.6-.2-3.6.3-4.6 2.6-1.7-.1-3.4-.1-5-.3-3.5-.3-7-.7-10.4-1.2-1.1-.1-2 .3-2 1.3.1 1.1.2 2.2.5 3.3.5 2.3 1.9 4.4 1 7 0 .5.1.9.3 1.4.2.8.5 1.7.6 2.5.3 1.7.4 3.5.9 5.2.7 2.9 1 6 .9 9 0 3.3.1 6.7.1 10 0 1.4.1 2.9 0 4.3-.1 3.3-.5 6.6-.5 10 0 2.7.6 5.4.7 8.1.1 2.3.1 4.6-.1 6.9-.2 1.9-.7 3.7-1 5.6.1.5.3 1 .8 1.3.4.2.9.2 1.2 0 .9-1.3 2-.8 3-.6 2 .4 4 .9 6 1.5 2.3.6 4.6 1.4 6.8 2.4 2.5 1.1 4.8 2.4 7.6 2.8 1.7.3 3.4.7 5.1 1.2s3.2 1.3 4.9 1.7c4.4 1.1 8.8 2.1 13.1 3.1.4.2.7.5 1 .8.4.4.7.8 1.1 1.2 1.2-.6 2.7-.9 3.4-1.7 1.2-1.6 3.2-2.4 5.2-2.1.5.1 1 .1 1.4 0 4.2-.8 8.4-1.6 12.6-2.5 1.9-.4 3.8-1.3 5.7-1.8 3.5-.9 7.1-1.5 10.7-2.4 3.2-.8 6.3-1.6 9.5-2.5 2.7-.8 5.2-1.9 7.9-2.7 2.2-.6 2.9-1.9 1.8-4-.3-.5-.5-1.1-.6-1.7-.2-2.5-.4-5.1-.6-7.6-.2-2.4-.6-4.8-.8-7.1-.3-3.6-.7-7.3-.8-10.9-.1-3.2-.2-6.5 1-9.6.1-.3.1-.6.1-1-.1-2.1-1-4.2.4-6.2-.5-1.4.5-2 1.4-2.7 2.3-2 4.8-4 6.9-6.2 2.7-2.8 5.6-5.3 9.4-6.6.8-.3 1.7-.4 2.5-.6.7-.1 1.2-.8 1.1-1.5 0-.6-.1-.8-.2-1zm-70.5 20.7c-.1.1-.2.2-.4.3-1.8 1-3.3 2.2-4.8 3.6-1.3 1.1-3.3.4-3.4-1.4-.1-1.9-.1-3.7.1-5.6.1-1.1.8-2 2-2 2.2 0 4.2 1.5 6.4 1.2 1.1-.1 2 1 2 2-.1 1-.9 1.7-1.9 1.9z"/>
        <path fill="#1d1d1b" d="M114.2 134c-.4-.4-.7-.8-1.1-1.2-.3-.4-.6-.6-1-.8-4.4-1.1-8.8-2-13.1-3.1-1.7-.4-3.2-1.2-4.9-1.7-1.7-.5-3.4-.9-5.1-1.2-2.7-.4-5.1-1.7-7.6-2.8-2.2-.9-4.5-1.7-6.8-2.4-2-.6-4-1.1-6-1.5-1-.2-2.2-.7-3 .6-.4.2-.9.2-1.2 0-.4-.3-.7-.8-.8-1.3.2-1.9.8-3.7 1-5.6.2-2.3.2-4.6.1-6.9-.1-2.7-.7-5.4-.7-8.1 0-3.3.4-6.6.5-10 .1-1.4 0-2.9 0-4.3 0-3.3-.2-6.7-.1-10 .2-3-.1-6.1-.9-9-.5-1.7-.6-3.5-.9-5.2-.2-.9-.4-1.7-.6-2.5-.2-.4-.3-.9-.3-1.4.9-2.5-.5-4.7-1-7-.3-1.1-.5-2.2-.5-3.3s.9-1.5 2-1.3c3.5.5 6.9.8 10.4 1.2 1.6.2 3.3.2 5 .3 1-2.2 2-2.7 4.6-2.6 2.3.2 4.6.1 6.9.1.4 0 .8 0 1.2.1 1.9.9 3.9.6 5.9.7 2.4.1 4.7.6 7.1.7 2.9.2 5.7.2 8.6.3 1.8.1 3.5.2 5.3.3.8.1 1.6.2 2.4.2 3.9-.4 7.8.3 11.7.5 1.4.1 2.8 0 4.2-.1 1-.3 2.1.2 2.6 1.2.5 1.1.3 3.2-.5 3.6-1.7.8-2.4 2.4-3.3 3.9-1.5 2.6-3.3 5-5.1 7.6.6.8 1.6.9 2.4.4.2-.1.3-.2.4-.4.7-.7 1.4-1.2 2-1.9.5-.8 1.6-1.2 2.5-.9 2.5.8 4.9 0 7.2-.7 2.9-.9 5.7-2 8.8-1.6.8 0 1.6-.1 2.4-.3 3.4-.3 6.8-.7 10.2-.9 1.1-.1 2.2.2 3.3.2.6 0 1.3 0 1.9-.2 5-1.6 10.3-1.9 15.3-3.5 1.4-.5 2.8-1 4.2-1.6 1.2-.5 1.8.2 2.4 1 .5.6.4 1.4-.1 1.9-.2.2-.5.3-.7.3-.8.2-1.7.4-2.5.6-3.8 1.3-6.7 3.8-9.4 6.6-2.1 2.2-4.6 4.2-6.9 6.2-.8.7-1.9 1.3-1.4 2.7-1.4 2-.5 4.1-.4 6.2 0 .3 0 .6-.1 1-1.2 3.1-1.1 6.4-1 9.6.1 3.6.5 7.3.8 10.9.2 2.4.6 4.8.8 7.1.2 2.5.4 5.1.6 7.6.1.6.3 1.2.6 1.7 1.1 2.1.5 3.3-1.8 4-2.7.8-5.2 1.9-7.9 2.7-3.1.9-6.3 1.8-9.5 2.5-3.5.9-7.1 1.5-10.7 2.4-1.9.5-3.7 1.4-5.7 1.8-4.2.9-8.4 1.7-12.6 2.5-.5.1-1 .1-1.4 0-2-.2-3.9.6-5.2 2.1-.8 1.2-2.3 1.4-3.5 2zM93.3 74.7l-.1.5c-.9.1-1.8 0-2.6-.3-4-.8-8-1.6-12-2.3-3-.5-6.1-.8-9-2.3s-3.8-.6-4 2.4v1c0 4.3.1 8.6.1 12.9 0 4.5-.1 9.1.1 13.6.3 5.1 1 10.3-.2 15.4-.1.5-.1.9 0 1.4 1.2.4 2.2.7 3.2 1 4 1.1 8.1 1.8 11.9 3.4.6.1 1.2.3 1.8.5 2.3 1.7 5 2.3 7.7 2.9 3.2.7 6.6.9 9.5 2.7.3.1.6.2.9.2l11 2.3c1.3.4 2.7.2 3.8-.5-.1-2.1-.3-4.2-.4-6.2 0-.4-.2-.8-.2-1.2-.3-2.6-.8-5.2-.8-7.8-.1-6.2.7-12.4-.5-18.6V95c0-2-.1-4 0-6 .2-3.2-.2-6.4.8-9.3-.7-.8-1.7-1.4-1.8-2.1-.3-3.3-.4-6.5-.3-9.8.2-3.2.6-6.3-.3-9.4-.3-1.1-.4-2.2-.5-3.3 0-1.5-1.3-2.7-2.7-2.6-.2 0-.5 0-.7.1-1.1.2-2.2.3-3.3.1-3.6-.8-7.2-1.9-10.8-2.6-4.7-1-9.4-1.7-14.1-2.5-.5-.1-1.4-.4-1.6-.2-1 1.1-2.2.3-3.1 0-1.3-.6-2.8-.7-4.1-.4-.3 0-.6 0-.9-.1l-7.9-1.1c.5 2.6 1.1 5 1.5 7.3s.6 5 1 7.5.7 4.8 1 6.8c2.9 1.2 5.3 2.1 7.7 3.1.4.1.8.2 1.2.2 5.7 1.1 11.4 2.3 17.1 3.5.5.1 1 .3 1.6.5zm23.8 54.7c2.2-.5 4.5-.9 6.8-1.2 3.3-.2 6.7-.8 9.8-1.8 1.6-.6 3.5-.6 5.1-1 2.1-.6 4.2-1.4 6.4-2 1.5-.4 3.1-.6 4.7-1 2.9-.7 5.7-1.4 8.6-2.1 3.5-.9 7.1-1.7 10.3-3.7 1.2-.7 1.8-2.1 1.5-3.4-.6-4.7-1-9.3-1.5-14-.7-5.9-1-11.9-1-17.9 0-.9.2-1.7.5-2.5.6-1.1.8-2.4.6-3.7-.3-1.4-.4-2.8-.6-3.9-1.4-1.5-2.6-.5-3.8-.4-2.5.4-5 .7-7.5 1.3-3.7.7-7.5 1.2-11.4 1.4-.1-.1-.3-.3-.4-.5 1.3-.7 2.6-1.1 4-1.3 2.4-.3 4.7-.9 7-1.3 1.8-.5 3.7-.8 5.6-1.1 3.4-.2 6.3-1.8 9-3.5 2.5-1.5 4.5-3.7 6.7-5.6 1.9-1.6 3.8-3.2 5.6-4.8.3-.3.5-.6.8-.9-1.4.2-2.7.5-4 .9-1.9.4-4 .4-5.8 1-3 1.1-6.2 1.5-9.4 1-.6 0-1.3.1-1.9.2-.7.1-1.4.1-2.1.2l-4.5.4c-1.2.2-2.4.4-3.5.4-2.9-.2-5.9.4-8.6 1.6-3 1.2-6.2.9-9.1 2.3-1.5-.5-2.4.6-3.3 1.4l-4.5 4.2c-1.5 1.4-2.8 2.8-4.2 4.2-.6.6-1.2 1-2 1.3-1.4.5-2.2 1.4-3.2 3 4.1-.8 7.7-1.4 11.2-2.1 2.2-.5 4.4-1 6.7-.1-1.1.5-2.2.8-3.3 1l-4.2.9c-1.2.3-2.5.6-3.7.8-2.1.3-4.3.5-6.4.7-1.2 0-2.2.6-2.9 1.5-.1 4-.3 8.1-.4 12.1 0 1.8.2 3.7.3 5.5.2 3 .6 6 .4 9-.2 4.3-.6 8.6.4 12.8.1.6.1 1.1.1 1.7.6 3.1.9 6.1 1.1 9zm18-81c-2.8-.4-5.6-.9-8.4-1.2-3.6-.3-7.3-.2-11-.4-4.8-.2-9.5-.4-14.3-.7-1.7-.1-3.3-.5-5-.6-1.3-.1-2.7.3-4 .1-3.7-.3-7.4-.8-11.2-1.2l-.4 1.6c2 .5 3.8 1.3 5.7 1.3 4.6.1 8.9 1.4 13.4 2.3 3.9.8 7.9 1.1 11.9.9.9-.1 1.8.3 2.4 1l.4 14 10.6-1.4c.2-1.5.8-2.5 2.3-2.7.6-.3 1.1-.7 1.3-1.3l3.9-6c.6-.8 1.1-1.7 1.6-2.6.3-1 .6-2.1.8-3.1zm-12.2 21.8c-3-1-5.7-2.1-9-2 .4 2.8-.2 5.5 1.1 8 1.6.2 2.1-1 3-1.8.6-.7 1.3-1.3 2.1-1.7 1.2-.5 2.2-1.4 2.8-2.5zm5.4-5.5l-8.7 2.3c1.1.6 2.3 1 3.5 1.3 1 .4 2.1 0 2.7-.9.9-.9 1.7-1.8 2.5-2.7z"/>
        <path fill="#1d1d1b" d="M181.9 48.2l-1.6 1.8c.1-1.5.1-1.5 1.6-1.8zm-1.2-1.1c-.3.2-.6.4-1 .5-.2-.1-.4-.2-.5-.4.1-.2.3-.4.5-.6.4.1.7.3 1 .5zm-24.1.8l1.3.1v.5h-1.4l.1-.6z"/>
        <path fill="#fff" d="M135.1 48.3c-.2 1.1-.5 2.2-.9 3.3-.5.9-1 1.8-1.6 2.6l-3.9 6c-.3.6-.8 1-1.3 1.3-1.5.2-2.1 1.2-2.3 2.7l-10.6 1.4-.4-14c-.6-.7-1.5-1.1-2.4-1-4 .2-8-.1-11.9-.9-4.4-.8-8.8-2.2-13.4-2.3-1.9 0-3.7-.8-5.7-1.3l.4-1.6c3.8.4 7.5.9 11.2 1.2 1.3.1 2.7-.2 4-.1 1.7.1 3.3.5 5 .6 4.8.3 9.5.5 14.3.7 3.7.1 7.3.1 11 .4 2.9.1 5.7.6 8.5 1zm-12.2 5.6c-.3-.3-.5-.5-.9-.7-.2 0-.4.2-.5.3 0 .3.2.5.4.7.4.1.8-.1 1-.3zm5.4 10.8c-.9.9-1.6 1.8-2.4 2.7-.6.9-1.7 1.3-2.7.9-1.2-.3-2.4-.7-3.5-1.3l8.6-2.3z"/>
        <path fill="#1d1d1b" d="M122.9 53.9c-.3.2-.6.3-.9.4-.2-.2-.4-.4-.4-.7.1-.2.3-.3.5-.3.3.1.6.4.8.6z"/>
</svg>
