<svg xmlns="http://www.w3.org/2000/svg" viewBox="0 0 236.013 181.502">
    <path fill="#fff" d="M195.613 92.038l-146.5-10.5L63.28 94.705l116.5 4.166z"/>
    <path d="M50.514 85.12c-3.076.203-6.813 2.714-7.338 4.786 1.325.353 2.64.692 3.949 1.054 2.825.782 5.639 1.607 8.473 2.356 1.978.522 4.086.701 5.94 1.492 1.526.651 2.663.586 4.197-.47-4.272-4.04-9.401-6.764-13.939-10.824 1.103.064 1.811.083 2.515.149 6.583.614 13.155 1.433 19.751 1.795 5.614.308 11.257.181 16.885.087 12.273-.205 24.501.784 36.747 1.269.891.035 1.776.209 2.667.292 4.626.434 9.25.88 13.879 1.28 2.848.246 5.706.375 8.553.625 6.844.603 13.558 2.217 20.503 2.175 5.978-.036 11.96.559 17.939.896.431.024.853.216 1.279.331l-.004.459-13.405 4.636c-1.647-.895-3.285-1.143-5.152-.758-1.45.299-3.024.012-4.543-.036-5.545-.178-11.093-.549-16.635-.486-3.91.044-7.766.729-11.749.37-5.694-.514-11.443-.411-17.167-.588-6.802-.21-13.602-.462-20.404-.651-4.117-.114-8.239-.075-12.354-.228-6.526-.243-13.046-.642-19.572-.857-1.604-.053-3.223.349-4.835.542 3.576 2.305 7.53 1.112 11.325 1.883l3.486 7.774-.856 1.263c.876 1.145 1.86.855 2.843.743 1.236-.141 2.499-.368 3.721-.251 4.271.411 8.528.971 12.795 1.435.845.092 1.709.013 2.564.013l-.042-.345-3.681-.781c.687-.401 1.308-.39 1.93-.403 11.013-.224 22.04-.17 33.032-.775 7.32-.403 14.41.951 21.68 1.286l-.825 2.726 4.205-3.57c.923-3.164 3.109-5.549 5.624-7.781 5.34.603 10.695.415 15.675 2.508 1.6-1.77 1.745-1.775 3.92-1.95 4.006-.322 8.005-.725 12.006-1.097 1.916-.178 3.831-.364 5.994-.571l.471-1.361c-1.536-.731-3.251-.679-4.414-1.95.981-.625 2.367-.55 2.328-2.106-1.31-1.302-3.017-1.136-4.548-1.009-2.576.214-4.531-.547-6.046-2.655-.51-.709-1.278-1.244-1.969-1.809-2.066-1.693-4.153-3.363-6.357-5.143.656-3.676 1.226-7.377 1.99-11.037 1.096-5.248 2.278-14.165 3.542-19.375.408-1.684 1.188-3.279 1.737-4.752l2.517-.297c-.047-.411-.016-.706-.094-.738-7.873-3.271-16.318-4.811-24.182-8.3l-1.524 2.15c-4.077 0-8.178.109-12.27-.027-5.186-.173-10.369-.478-15.545-.848-5.438-.389-10.866-.929-16.299-1.391-4.809-.409-9.644-.621-14.424-1.251-5.5-.725-10.942-1.415-16.54-1.012-3.796.273-7.654-.316-11.571-.524-.677 1.522-2.287 1.425-3.604 1.643-4.596.761-9.143 1.647-13.296 3.69-1.574-1.007-1.574-1.007-3.264-.267 0 1.785-.131 3.657.026 5.505.386 4.542.932 12.756 1.36 17.295.403 4.268.765 8.54 1.086 12.814.103 1.377.016 2.768.016 3.73-1.631.597-2.917.957-4.099 1.531-1.277.62-2.456 1.441-3.901 2.309l-6.435-1.334-3.241 1.41c.207 1.262 1.04 1.188 1.704 1.149 2.124-.125 3.818.677 5.225 2.204l.045-.047z" fill="#fff"/>
    <path d="M50.468 85.164c-1.407-1.527-3.101-2.33-5.225-2.204-.664.039-1.497.113-1.704-1.149l3.241-1.41 6.435 1.334c1.445-.867 2.624-1.689 3.901-2.309 1.182-.574 2.468-.934 4.099-1.531 0-.962.087-2.353-.016-3.73-.32-4.275-.683-8.546-1.086-12.814-.428-4.539-.975-12.752-1.36-17.295-.157-1.848-.026-3.72-.026-5.505 1.69-.74 1.69-.74 3.264.267 4.154-2.043 8.7-2.929 13.296-3.69 1.317-.218 2.927-.121 3.604-1.643 3.917.208 7.775.797 11.571.524 5.598-.403 11.039.287 16.54 1.012 4.78.63 9.615.842 14.424 1.251 5.433.462 10.861 1.002 16.299 1.391 5.176.37 10.359.676 15.545.848 4.093.136 8.194.027 12.27.027l1.524-2.15c7.864 3.488 16.31 5.029 24.182 8.3.078.032.047.327.094.738l-2.517.297c-.549 1.473-1.329 3.067-1.737 4.752-1.263 5.21-2.446 14.127-3.542 19.375-.764 3.661-1.335 7.362-1.99 11.037 2.205 1.781 4.291 3.45 6.357 5.143.69.566 1.459 1.1 1.969 1.809 1.515 2.108 3.47 2.869 6.046 2.655 1.531-.127 3.237-.293 4.548 1.009.039 1.556-1.347 1.481-2.328 2.106 1.163 1.271 2.878 1.219 4.414 1.95l-.471 1.361c-2.163.206-4.078.392-5.994.571-4.001.372-8.001.775-12.006 1.097-2.175.175-2.32.18-3.92 1.95-4.98-2.093-10.335-1.905-15.675-2.508-2.515 2.232-4.701 4.617-5.624 7.781l-4.205 3.57.825-2.726c-7.271-.335-14.361-1.688-21.68-1.286-10.992.605-22.02.551-33.032.775-.621.013-1.243.002-1.93.403l3.681.781.042.345c-.855 0-1.719.079-2.564-.013-4.267-.465-8.524-1.024-12.795-1.435-1.222-.118-2.485.11-3.721.251-.982.112-1.966.403-2.843-.743l.856-1.263-3.486-7.774c-3.794-.771-7.749.422-11.325-1.883 1.612-.193 3.231-.595 4.835-.542 6.526.215 13.047.614 19.572.857 4.115.154 8.237.114 12.354.228 6.802.189 13.603.441 20.404.651 5.725.177 11.474.074 17.167.588 3.982.36 7.839-.326 11.749-.37 5.542-.063 11.09.308 16.635.486 1.518.049 3.092.335 4.543.036 1.867-.385 3.505-.137 5.152.758l13.405-4.636.004-.459c-.426-.114-.848-.306-1.279-.331-5.979-.337-11.961-.932-17.939-.896-6.945.042-13.659-1.572-20.503-2.175-2.847-.251-5.705-.38-8.553-.625-4.629-.399-9.253-.846-13.879-1.28-.89-.083-1.775-.257-2.667-.292-12.247-.484-24.474-1.474-36.747-1.269-5.628.094-11.272.221-16.885-.087-6.597-.362-13.168-1.181-19.751-1.795-.704-.066-1.412-.085-2.515-.149 4.538 4.06 9.667 6.785 13.939 10.824-1.534 1.056-2.671 1.121-4.197.47-1.854-.791-3.963-.97-5.94-1.492-2.834-.749-5.648-1.573-8.473-2.356-1.309-.362-2.625-.701-3.949-1.054.525-2.072 4.262-4.583 7.338-4.786.115.902-.179 1.495-1.071 1.91-1.093.508-2.098 1.205-3.644 2.117 5.03 1.744 9.78 2.126 14.525 2.768-2.006-1.663-4.077-3.17-6.201-4.598-1.171-.784-2.433-1.437-3.654-2.15zm135.568-38.122c-2.643-1.525-2.646-1.476-5.349-1.641a1760.59 1760.59 0 0 1-16.863-1.129c-1.245-.088-2.479-.358-3.724-.419-4.912-.238-9.828-.397-14.74-.638-6.875-.338-13.747-.768-20.624-1.071-3.217-.142-6.446.012-9.663-.129-5.444-.239-10.88-.694-16.325-.891-4.025-.146-8.061-.077-12.09-.007-2.769.048-5.535.323-8.304.381-3.196.067-6.395.487-9.576-.449-2.623-.772-5.21.15-8.093.337 0 1.154-.046 2.027.007 2.894.364 5.884.739 15.452 1.135 21.333.078 1.155.245 2.306.402 3.454.409 2.983 1.571 5.85 1.064 8.979-.256 1.582-.045 3.239-.045 5.117 6.447.306 12.602.746 18.762.853 8.504.148 17.013.041 25.519.055 1.164.002 2.33.027 3.491.111 4.188.303 8.374.652 12.562.947 1.607.113 3.226.062 4.83.201 7.745.669 15.487 1.363 23.227 2.081 2.401.223 4.79.573 7.189.823 4.086.426 8.172.863 12.265 1.212 4.098.35 8.203.621 12.307.884 2.154.138 4.318.286 7.075.026-2.396-1.831-3.528-4.255-6.244-4.243-1.193-1.522-1.193-1.522-2.798-1.921-.668 1.668.152 3.771-1.582 5.493l-1.655-1.607c1.369-2.021 1.729-3.945.902-6.048-.169-.43.016-1.049.164-1.544.531-1.781 1.263-3.514 1.653-5.323 1.756-8.117 3.417-19.94 5.121-28.121zm-24.323 51.143c-4.184 0-7.926-.044-11.666.017-2.046.033-4.094.409-6.132.345-8.035-.254-16.064-.678-24.099-.93-7.949-.249-15.902-.352-23.852-.558-1.603-.042-3.199-.317-4.803-.384-3.091-.129-6.189-.451-9.518-.15l.447 5.871 1.316 2.097c3.264.182 6.502.368 9.74.542 1.87.101 3.745.306 5.612.253 7.053-.201 14.104-.491 21.156-.744 4.374-.157 8.749-.469 13.121-.424 6.876.071 13.753.325 20.624.629 2.061.091 3.688-.516 4.923-2.064 1.048-1.313 1.931-2.759 3.131-4.5zM67.33 38.694c3.897 1.173 7.572 1.265 11.319 1.184 8.676-.188 17.359-.309 26.035-.194 6.791.09 13.576.591 20.366.873 2.235.093 4.48-.002 6.713.122 8.212.455 16.424.932 24.631 1.466 5.436.354 10.862.859 16.297 1.223 3.475.233 6.959.332 10.983.516-.761-.527-1.013-.812-1.322-.898a684.119 684.119 0 0 0-10.329-2.792c-.499-.13-1.057-.073-1.585-.044-1.496.081-2.99.262-4.486.271-1.606.01-3.212-.139-4.819-.203-6.613-.267-13.234-.405-19.838-.822-9.368-.591-18.725-1.366-28.083-2.107-2.579-.204-5.144-.578-7.717-.852-3.196-.34-6.409-1.027-9.587-.899-4.764.192-9.466.22-14.141-.793-.243-.053-.52.049-.813.083l-.807 1.383c-4.143.984-8.546.647-12.817 2.483zM198.064 96.19l-2.839-2.384-8.476 2.838c3.684.679 7.214-.108 11.315-.454zM61.031 80.488c-1.025.178-1.82.266-2.587.464-.778.201-1.529.51-2.291.772l.043.43 5.607.594-.772-2.26z" fill="#1d1d1b"/>
    <path d="M186.036 47.042c-1.704 8.181-3.365 20.003-5.117 28.121-.39 1.809-1.123 3.542-1.653 5.323-.147.495-.333 1.114-.164 1.544.827 2.102.467 4.026-.902 6.048l1.655 1.607c1.734-1.722.914-3.825 1.582-5.493 1.605.399 1.605.399 2.798 1.921 2.716-.013 3.848 2.411 6.244 4.243-2.758.26-4.922.111-7.075-.026-4.105-.262-8.209-.534-12.307-.884-4.093-.35-8.179-.787-12.265-1.212-2.399-.25-4.788-.6-7.189-.823-7.74-.718-15.483-1.412-23.227-2.081-1.604-.139-3.223-.088-4.83-.201-4.189-.295-8.374-.645-12.562-.947a49.555 49.555 0 0 0-3.491-.111c-8.507-.013-17.015.094-25.519-.055-6.16-.107-12.315-.548-18.762-.853 0-1.878-.211-3.535.045-5.117.507-3.129-.655-5.996-1.064-8.979-.158-1.148-.324-2.299-.402-3.454-.396-5.881-.771-15.449-1.135-21.333-.054-.867-.007-1.74-.007-2.894 2.883-.187 5.47-1.108 8.093-.337 3.181.936 6.38.516 9.576.449 2.77-.058 5.535-.334 8.304-.381 4.029-.069 8.065-.139 12.09.007 5.445.197 10.881.652 16.325.891 3.217.141 6.446-.012 9.663.129 6.877.303 13.748.733 20.624 1.071 4.912.242 9.828.401 14.74.638 1.245.06 2.479.331 3.724.419 5.619.397 11.24.785 16.863 1.129 2.699.165 2.702.116 5.345 1.641zm-24.323 51.143c-1.2 1.741-2.083 3.186-3.131 4.5-1.235 1.548-2.861 2.155-4.923 2.064-6.871-.304-13.747-.558-20.624-.629-4.372-.045-8.747.267-13.121.424-7.052.253-14.103.543-21.156.744-1.867.053-3.742-.152-5.612-.253-3.238-.174-6.475-.36-9.74-.542l-1.316-2.097-.447-5.871c3.328-.301 6.426.021 9.518.15 1.603.067 3.199.342 4.803.384 7.95.206 15.904.308 23.852.558 8.035.252 16.064.676 24.099.93 2.038.064 4.086-.311 6.132-.345 3.741-.06 7.482-.017 11.666-.017zM67.33 38.694c4.271-1.836 8.673-1.499 12.817-2.483l.807-1.383c.292-.034.569-.135.813-.083 4.675 1.013 9.377.986 14.141.793 3.179-.128 6.392.558 9.587.899 2.574.274 5.139.648 7.717.852 9.358.741 18.715 1.516 28.083 2.107 6.604.417 13.225.555 19.838.822 1.607.065 3.213.213 4.819.203 1.496-.009 2.99-.19 4.486-.271.528-.028 1.086-.086 1.585.044 3.451.9 6.893 1.838 10.329 2.792.308.086.561.371 1.322.898-4.025-.184-7.509-.283-10.983-.516-5.435-.364-10.861-.869-16.297-1.223a2563.828 2563.828 0 0 0-24.631-1.466c-2.233-.124-4.477-.029-6.713-.122-6.789-.283-13.575-.784-20.366-.873-8.676-.115-17.359.006-26.035.194-3.747.082-7.422-.011-11.319-1.184zm-16.862 46.47c1.221.713 2.483 1.366 3.654 2.153 2.124 1.428 4.195 2.935 6.201 4.598-4.744-.642-9.495-1.024-14.525-2.768 1.546-.912 2.551-1.608 3.644-2.117.892-.415 1.186-1.008 1.071-1.91l-.045.044zM198.064 96.19c-4.101.346-7.631 1.133-11.315.454l8.476-2.838 2.839 2.384zM61.031 80.488l.772 2.26-5.607-.594-.043-.43c.763-.262 1.513-.571 2.291-.772.767-.198 1.562-.286 2.587-.464z" fill="#fff"/>
</svg>
