<svg id="Ebene_1" xmlns="http://www.w3.org/2000/svg" viewBox="0 0 236 181.5">
        <path fill="#fff" d="M99.9 57.1c-1.2 2.6-2.4 5-3.6 7.4-.3.6-.6 1.1-1 1.6-.8 1.1-1.5 2.3-2.3 3.3-1 1.4-2 2.7-3.1 3.9-1.8 1.8-3.5 3.5-3.9 6.1 0 .3-.2.6-.4.9-1.6 1.8-2.4 4.1-3.4 6.3-2 4.4-4.3 8.7-6.6 13-1 1.5-1.2 3.4-.7 5.2.8.3 1.9 1.1 2.7.9 2.7-.6 4.6.5 6.6 2 2.5 2.1 5.4 3.7 8.5 4.7 3.3 1 6.4 2.6 9.1 4.7 1.1.8 2.2 1.6 3.4 2.3 3.7 2 7.5 3.8 11.3 5.7 1 .5 2 .9 3 1.4 3.7 1.9 7.3 3.8 11 5.7 1.4.7 3.8-.7 3.5-2.2-.1-.8.1-1.5.6-2.1 1-1.6 2-3.2 2.9-4.9 1.1-2 2.1-4 3.1-5.9.9-1.7 1.8-3.3 2.7-5 .5-1 1.1-1.9 1.6-2.9.6-1.4.9-3 1.8-4.2 3-3.7 4.6-8.2 6.6-12.4s3.9-8.7 7.3-12.2c.5-.4.9-.9 1.1-1.5.2-.7.2-1.5-.2-2.2-.9-1.1-2.1-1.9-3.4-2.4-2-.5-3.9-1.2-5.8-2-2.5-1.1-5-2-7.5-3-6.6-2.7-13.2-5.3-19.8-7.9-.3-.1-.6-.3-.9-.4-3.9-1.9-7.7-3.8-11.6-5.6-1.5-.7-3.1-1.3-4.5-2.1-1.2-.7-2.3-1.7-3.5-2.4s-2.5-.3-2.7.9c-.2 1.8-1.5 2.7-2.4 3.9-.2.3-.3.5-.4.8l.9.6zm18.8-4.3v-2.1c-1.7 1-1.7 1-3.1.5-.5-.2-1-.2-1.5 0-.2.6-.4 1.3-.4 2l5-.4zM73.8 89.1c1.9-1 1-2.8 2-3.8h-2v3.8zm90.6-3.5c-.6-.7-.8-1.9-2-1.2-.4.3-.5.9-.4 1.4.7.8 1.5.8 2.4-.2zm-44.2 43.3l-2.5-.9c.5 1.3 1.2 1.9 2.5.9zm-1.1 1.6l-.6.1.3 1.6c1.1-.7.8-1.2.3-1.7z"/>
        <path fill="#1d1d1b" d="M99.9 57.1l-.9-.9c.1-.3.3-.6.4-.8.9-1.2 2.2-2.1 2.4-3.9.1-1.1 1.5-1.5 2.7-.9s2.3 1.7 3.5 2.4c1.5.8 3 1.4 4.5 2.1 3.9 1.9 7.7 3.8 11.6 5.6.3.1.6.3.9.4 6.6 2.7 13.2 5.3 19.8 7.9 2.5 1 5.1 1.9 7.5 3 1.9.8 3.8 1.5 5.8 2 1.3.5 2.5 1.4 3.4 2.4.3.7.4 1.4.2 2.2-.2.6-.6 1.1-1.1 1.5-3.4 3.5-5.3 7.9-7.3 12.2s-3.5 8.7-6.6 12.4c-.9 1.1-1.1 2.8-1.8 4.2-.5 1-1.1 1.9-1.6 2.9-.9 1.7-1.8 3.3-2.7 5-1 2-2 4-3.1 5.9-.9 1.7-2 3.3-2.9 4.9-.5.5-.8 1.3-.6 2.1.4 1.5-2 2.9-3.5 2.2-3.7-1.9-7.3-3.8-11-5.7-1-.5-2-.9-3-1.4-3.8-1.9-7.6-3.8-11.3-5.7-1.2-.7-2.3-1.4-3.4-2.3-2.7-2.1-5.8-3.7-9.1-4.7-3.1-1-6-2.6-8.5-4.7-2-1.5-3.9-2.6-6.6-2-.8.2-1.8-.6-2.7-.9-.5-1.7-.2-3.6.7-5.2 2.3-4.2 4.6-8.6 6.6-13 1-2.2 1.8-4.4 3.4-6.3.2-.3.3-.6.4-.9.4-2.6 2.1-4.4 3.9-6.1 1.1-1.2 2.2-2.5 3.1-3.9.8-1.1 1.6-2.2 2.3-3.3.4-.5.7-1 1-1.6 1.2-2.1 2.3-4.5 3.6-7.1zm4.1-3.8c-.5.5-1 1-1.3 1.7-.6 2.4-1.7 4.6-3.3 6.6-.3.4-.6 1-.6 1.5-.3 1.6-1.3 2.9-2.2 4.2-2.3 3.4-4.4 6.9-7.6 9.5-.2.1-.4.3-.4.6-.5 3-2.5 5.2-3.9 7.8-2.3 4.3-4.2 8.7-6.4 13.1-.6 1.3-1.4 2.5-1.1 4.1 1 .5 2 .9 2.9 1.3 2.2 1 4.2 2.2 6.2 3.6 2.2 1.7 4.7 3 7.3 3.9 3.4 1.2 6.6 2.9 9.5 5 3.8 2.5 8 4.6 12.1 6.8 2.1 1.1 4.4 1.9 6.5 3 3 1.5 6 3.4 9.5 4l6-9.3c.9-1.5 1.5-3.2 2.3-4.7.7-1.5 1.5-3 2.4-4.4 1-1.3 1.7-2.7 2.2-4.2s1.2-2.9 2.1-4.2c2-2.9 3.7-6 4.9-9.2 1.1-2.8 2.4-5.6 3.8-8.3.5-1.3 1.3-2.6 2.2-3.7 1.1-1.1 1.7-2.6 1.7-4.1-.9-.7-1.8-1.3-2.8-1.9-3.3-1.5-6.7-3-10.1-4.2-2.8-1-5.6-2.2-8.3-3.6-2-1-4.2-1.9-6.4-2.7-2.4-1-4.9-1.8-7.3-2.9-4.4-2-8.2-5.2-13.2-5.9l-.6-.3-6.1-3.1zm14.7-.5l-5 .4c0-.7.1-1.4.4-2 .5-.2 1-.2 1.5 0 1.5.5 1.4.5 3.1-.5v2.1zM73.8 89.1v-3.8h2c-1 1.1-.1 2.8-2 3.8zm90.6-3.5c-1 1-1.8 1-2.4.2-.1-.5 0-1 .4-1.4 1.2-.7 1.4.5 2 1.2zm-44.2 43.3c-1.3 1-2 .3-2.5-.9l2.5.9zm-1.1 1.6c.5.5.8 1-.3 1.8l-.3-1.6.6-.2z"/>
        <path fill="#fff" d="M104 53.3l5.9 2.8.6.3c5 .7 8.9 3.9 13.2 5.9 2.4 1.1 4.9 1.9 7.3 2.9 2.1.9 4.3 1.7 6.4 2.7 2.7 1.4 5.4 2.6 8.3 3.6 3.5 1.1 6.8 2.7 10.1 4.2 1 .5 1.9 1.2 2.8 1.9 0 1.6-.6 3-1.7 4.1-.9 1.1-1.7 2.3-2.2 3.7-1.4 2.7-2.7 5.4-3.8 8.3-1.2 3.3-2.9 6.4-4.9 9.2-.9 1.3-1.7 2.7-2.1 4.2-.5 1.5-1.3 2.9-2.2 4.2-.9 1.4-1.7 2.9-2.4 4.4-.8 1.6-1.4 3.2-2.3 4.7-1.9 3.1-3.9 6.1-6 9.3-3.5-.6-6.4-2.4-9.5-4-2.1-1.1-4.4-1.9-6.5-3-4.1-2.2-8.2-4.3-12.1-6.8-2.9-2.1-6.1-3.8-9.5-5-2.7-.8-5.1-2.1-7.3-3.9-2-1.4-4-2.6-6.2-3.6-.9-.5-1.9-.9-2.9-1.3-.2-1.5.5-2.8 1.1-4.1 2.1-4.4 4.1-8.8 6.4-13.1 1.4-2.6 3.3-4.8 3.9-7.8.1-.2.2-.4.4-.6 3.2-2.6 5.3-6.1 7.6-9.5.9-1.3 1.9-2.5 2.2-4.2.1-.6.3-1.1.6-1.5 1.6-1.9 2.7-4.2 3.3-6.6.5-.4 1-.9 1.5-1.4z"/>
</svg>
