<svg id="Ebene_1" xmlns="http://www.w3.org/2000/svg" viewBox="0 0 236 181.5">
    <path fill="#1d1d1b" d="M88.6 100.4c0-.5.3 4.3.7 2.8-.6-.8-1.1-.9-1.9-1-1.6-.2-3.3-.5-4.9-.6-.6 0-1.3.1-1.9.2-1.7.3-3.4.4-5.3.2-1.3-.1-2.6 0-3.9.2-1 .1-2.1.3-3.1.1-1.3-.2-2.6-.1-3.9 0-2.4.2-4.9.3-7.3.4-.1 0-.3-.1-.4-.1-3.7-1-7.4-.7-11.1-.2-2.7.3-5.4-.1-8.3-.4-2.3.5-4.9.3-7.4-.3-2.3-.5-4.6-.4-6.9-.5h-5.1c-.6 0-1.1-.1-2.1-.3.7-.3 1-.5 1.3-.5 3.6.1 7.1.3 10.7.5 1.3.1 2.6.4 3.9.5 1.7.1 3.4 0 5.1 0h2c1.4.1 2.7.2 4.1.3 1.7.1 3.4.1 5.1-.3 2-.4 4-.4 6-.2 4.1.4 8.3.2 12.4-.5.9-.2 1.6-.2 2.4-.2 1.7 0 3.4.1 5.1-.3.3-.1.4-.1.7-.1 3.3.6 6.7 0 10 .1.7 0 1.4.2 2.1.2.6.1 1.1 0 1.9 0m55.7-.1c0-.5-.3 4.7-.9 3 .6-.9 1.2-1 1.9-1.1 1.6-.2 3.4-.5 5.2-.7.7 0 1.3.1 2.1.2 1.9.3 3.9.4 5.8.2 1.3-.1 2.8 0 4.2.2 1.2.1 2.4.3 3.4.1 1.3-.2 2.8-.1 4.2 0 2.5.2 5.2.3 7.9.4.3 0 .4-.1.6-.1 4-1.1 8-.8 12-.2 3 .3 5.9-.1 9-.4 2.5.5 5.2.3 8-.3 2.4-.5 4.9-.4 7.4-.5h5.5c.4 0 1-.1 2.2-.3-.7-.3-1-.5-1.3-.5-3.9.1-7.7.3-11.6.5-1.3.1-2.8.4-4.2.5-1.8.1-3.7 0-5.5 0h-2.1c-1.5.1-3 .2-4.4.3-1.8.1-3.7.1-5.5-.3-2.1-.4-4.3-.4-6.4-.2-4.6.4-9 .2-13.5-.5-.9-.2-1.8-.2-2.7-.2-1.8 0-3.7.1-5.5-.3-.1-.1-.4-.1-.7-.1-3.6.7-7.3 0-10.8.1-.7 0-1.6.2-2.4.2-.5.1-1.1 0-1.9 0"/>
    <path fill="#fff" d="M162.4 69.3l1.5 13.2-3.9 1 1.3 36.4v10.8l-13.8.7-35.4-1.8-40 1.2 2.5-14.1.2-30-6.1.4-1.2-5.1 5.3-9.8h55.7l29.6-1.5z"/>
        <path fill="#1d1d1b" d="M141.4 70.8c4.9-.3 9.9-.6 14.8-.9 2.1-.1 4.2-.4 6.2-.5.6-.1 1.4 0 2 .2 4.1 2.4 8.8 3.5 13.1 5.1 1 .4 2.1 1 3.1 1.4 1 .2 2.2.3 3.2.3.3.5.4 1 .4 1.7-.1.7-.6 1.4-1.2 1.8-.7.4-1.4-.2-1.8-.9-1-1.8-3-2-4.6-2.6-3.9-1.7-8.1-3-12.1-4.4-2 1.8-1.2 3.9-1 5.8.3 1.4.7 2.7 1 4.1.2.8.3 1.7.2 2.5l-3.3.5c-.1.8-.3 1.8-.3 2.6-.1 5.8 0 11.5 0 17.3 0 1.4.3 2.6.4 4 .1 2.7.4 5.4.3 8.3-.1 3.9-.2 7.6.9 11.4.2 1.2.1 2.3-.2 3.3-.1.8-1 1.4-1.8 1.2-.1 0-.1 0-.2-.1-5.8-1.2-11.6.1-17.5 0-2.5 0-5-.3-7.5-.4-5-.2-10-.5-15-.7-7.5-.2-15.1-.2-22.6-.4-1.5 0-2.8-.3-4.2-.3-3.1-.1-6.4-.1-9.5-.1s-6.5.3-9.7.5c-.8 0-1.7-.2-2.5-.3-.1-.9.1-1.8.3-2.7 1.1-2 .8-4.2 1.1-6.3.8-4.4-.3-8.6-.1-13 .1-5.8-.3-11.5-.5-17.3-.1-1.5.1-3 .1-4.8l-4.3.3.6 4.1c-.5.1-1.2.6-1.2-.7-.1-.9.1-2.1-1.1-2.7-.2-.3-.3-.7-.2-1.2.1-.4.2-.7.1-1.2-1.8-1.9-.1-3.2.8-4.6 1.3-2 2.3-4.2 3-6.6-3.3 1.3-6.3 2.4-9.3 3.7-3 1.3-5.7 2.5-8.6 3.8-1.2-2.7-1.2-2.8 1.3-3.7 5.2-1.8 10.4-3.5 15.5-5.2 1.3-.4 2.3-1.6 3.5-1.8 1.2-.2 2.5.6 3.7.6 2.8 0 5.7-.4 8.5-.4 8.7-.1 17.4 0 26.1 0 8 0 15.8-.2 23.8-.3 1.2 0 2.4.2 3.7.3v.5c-3.5.2-6.9.4-10.3.5-6 .2-12 .3-18 .4-8 .1-15.9.1-23.9.2-3.2 0-6.5.3-9.7.3-1.7-.1-3.4.8-4.2 2.4-1.4 2.8-2.7 5.8-4.1 9.2 9.9-.1 19.5.3 28.8 1-7.5.2-15 .1-22.6.8-.1 2.2-.2 4.3-.2 6.4 0 3.2.1 6.5.2 9.7.1 3.5.3 7 .5 10.5.3 4.2.2 8.3-.2 12.4-.1 1 .6 2.1.8 3.3h6c4.9-.2 9.8-.1 14.7.3 5 .5 10.1.2 15.3.2 6.9.1 13.8.2 20.8.4 3.9.1 7.7 1 11.5.6 5.2-.5 10.7.6 15.8-1.3 0-4.6.2-9.2.1-13.7 0-2.8-.1-5.6-.3-8.5 0-2-.1-4 0-6-.1-4.9 0-9.8-.2-14.8-.1-1.7-.6-2-2.1-2h-11.3c-3.8 0-7.4-.1-11-.2-5.4-.1-10.9-.4-16.2-.5-2.6-.1-5.4-.4-8 0-3.7.6-7.5.7-11.2 1-1.7.1-3.3 0-4.9-.4.4-.2.8-.4 1.3-.5 4.2-.2 8.3-.6 12.5-1.4 2.8-.4 5.7-.5 8.5-.3l28.1.3h18.4c-.3-1.9-.2-4-1-5.8s-.8-3.6-1.6-5.4c-6.5-.5-13.1-.1-19.6 0l-.1-.3z"/>
        <path fill="#1d1d1b" d="M58.7 87.7c-2-.5-2-.5-1.6-2l1.6 2zm106.2.2c.1.9 0 1.6-1 1.7-.3-.1-.6-.4-.7-.8.1-1 .9-1 1.7-.9z"/>
</svg>
