<svg xmlns="http://www.w3.org/2000/svg" viewBox="0 0 236.013 181.502">
    <path d="M195.998 148.96c-.772 1.306-1.464 1.727-2.654 1.376-.992-.293-2.076-.41-3.114-.382-2.934.08-5.877.515-8.795.375-6.963-.335-13.911-.991-20.872-1.385-5.978-.338-11.967-.477-17.95-.742-1.605-.071-3.201-.356-4.806-.412-2.772-.097-5.548-.073-8.322-.131-6.161-.128-12.348.04-18.474-.495-7.631-.665-15.133.682-22.702.745-2.049.017-4.156.189-6.136-.208-3.922-.787-7.855-.235-11.769-.5-3.564-.242-7.118-.622-10.681-.887-2.587-.193-5.18-.346-7.772-.407-.674-.016-1.357.387-2.038.588-.916.271-1.835.533-2.699.784-1.543-1.525-1.02-3.07-.475-4.748l.86 1.119c.14-.092.403-.179.532-.362 2.005-2.837 3.947-5.721 6.005-8.519 1.056-1.435 2.334-2.705 3.473-4.081.962-1.162 1.869-2.37 3.164-4.021-1.959.319-3.379.645-4.816.763-2.127.175-4.286.422-6.393.229-1.96-.18-3.682.151-5.432.928-.955.424-2.005.669-3.036.877a52.604 52.604 0 0 1-4.219.656c-1.322.156-2.662.352-3.981.285-1.608-.082-2.836-1.561-2.218-2.936.676-1.505.22-2.764-.04-4.087 1.366-2.97 1.397-6.049 1.175-9.176-.082-1.152-.196-2.37.075-3.466.652-2.636.911-5.267.762-7.976-.063-1.145.205-2.309.337-3.462.051-.442.259-.895.2-1.316-.661-4.751.406-9.426.558-14.138.141-4.384.122-8.775.067-13.162-.015-1.231-.495-2.45-.604-3.688-.247-2.832-.397-5.673-.591-8.589l-1.452-.22.123-1.215h1.962c-.13-.489-.158-.93-.353-1.277-1.036-1.846-.957-2.65.59-4.515.997.117 2.105.082 3.1.4 1.997.637 3.933.804 6.049.567 1.516-.17 3.202.34 4.686.889 3.383 1.25 6.81 2.124 10.429 2.253 1.044.037 2.078.356 3.343.588 0-.782.103-1.389-.02-1.946-.328-1.48-.846-2.922-1.116-4.41-.365-2.011-.706-4.044-.806-6.08-.132-2.677-.034-5.326-1.114-7.906-.698-1.667-.912-3.536-1.428-5.666l1.035-1.43c.643.043 1.262.044 1.867.132 2.273.333 4.464.755 6.862.431 2.689-.363 5.491.139 8.245.226 2.505.079 5.013.187 7.517.132 2.79-.061 5.54.061 8.254.776a9.717 9.717 0 0 0 2.384.307c9.565.076 19.107 1.044 28.701.324 3.969-.298 8.012.464 12.025.662 2.501.123 5.013.183 7.515.111 4.556-.132 9.107-.512 13.662-.538 2.66-.015 5.338.349 7.979.737 2.416.355 4.779.559 7.189-.026 2.15-.522 4.48.06 6.567-1.065.289-.156.922.323 1.265.458.64 1.763-.745 2.109-1.744 2.853-.459 2.635-.922 5.349-1.415 8.058-.095.523-.216 1.083-.489 1.524-1.338 2.167-1.439 4.537-1.431 6.992.007 2.13-.389 4.259-.42 6.391-.019 1.294.316 2.592.527 4.149 1.048-.132 2.019-.148 2.93-.388 4.211-1.108 8.663-1.018 12.759-2.768 2.633-1.125 5.474-.661 8.213-.246 2.708.41 5.388 1.009 8.373 1.581.561.451.882 1.146.746 2.321-.224 1.927-.033 3.901-.046 5.855-.024 3.747-.057 7.494-.111 11.241-.017 1.161-.286 2.342-.146 3.478.615 5.007-.182 9.973-.313 14.956-.007.268-.074.541-.039.802.727 5.423-.635 10.619-1.676 15.855-.173.87-.147 1.78-.204 2.672-.147 2.316-.322 4.631-.417 6.949-.036.882.095 1.775.193 2.658.059.53.212 1.05.304 1.577.27 1.552.395 3.2-1.124 4.112-1.421.852-3.179.762-4.573-.042-1.905-1.098-3.819-1.8-6.025-1.996-1.088-.096-2.114-.872-3.171-1.333-.974-.425-1.919-.961-2.935-1.236-2.494-.676-5.018-1.247-7.538-1.825-1.605-.368-2.406-.195-4.309.882.792.979 1.464 2.02 2.339 2.847 1.686 1.593 3.416 3.158 5.259 4.563 2.029 1.547 3.697 3.356 5.016 5.529.405.668.886 1.497 1.536 1.773 2.922 1.245 4.46 4.055 6.867 5.871.649.488.937 1.456 1.385 2.197zm-22.4-115.657c-3.718.639-6.904.648-10.097.092a107.688 107.688 0 0 0-4.766-.702c-4.814-.615-9.645-.323-14.442.055-3.486.275-6.895.369-10.404.052-5.602-.507-11.256-.519-16.89-.573-3.481-.033-6.965.358-10.447.347-3.303-.01-6.605-.283-9.907-.466-1.425-.079-2.858-.142-4.267-.352-3.722-.554-7.44-.991-11.219-.716-1.424.104-2.865.02-4.297-.02-5.006-.14-10.011-.308-15.018-.44-.683-.018-1.37.111-2.252.19.142 1.762-.009 3.439.459 4.92.885 2.806 1.005 5.633.85 8.496-.173 3.191.774 6.131 1.556 8.961l1.605.176c-.649 1.15-1.806 2.032-.31 3.481 1.223 0 2.734-.015 4.244.003 3.131.039 6.269-.023 9.391.175 3.825.242 7.629.825 11.454 1.054 9.281.554 18.565 1.182 27.857 1.408 7.05.172 14.114-.232 21.172-.37.533-.01 1.068.053 1.6.094 1.509.117 3.033.431 4.524.315 1.933-.151 3.856-.997 5.756-.915 4.519.195 9.032.678 13.527 1.211 2.146.254 4.231.459 6.224-.142 1.69-3.577 1.683-7.257 1.495-10.924-.104-2.035.406-3.803 1.117-5.691.697-1.848.649-3.975.955-5.975.038-.249.333-.465.356-.71.089-.935.114-1.877.174-3.034zm-93.133 83.832c1.648-.129 3.153-.259 4.66-.358.52-.034 1.046.016 1.568.013 3.021-.013 6.045.041 9.063-.062 3.749-.128 7.491-.457 11.24-.56 1.867-.051 3.742.301 5.615.313 6.718.041 13.436.011 20.154.016 5.642.004 11.285.043 16.927.012 1.205-.007 2.409-.25 3.739-.399.281-2.907.421-5.463.053-8.045-.289-2.026-.998-4.157-.643-6.079 1.102-5.967.744-11.948.811-17.933.021-1.828-.29-3.503-1.306-4.907-1.212 0-2.393.183-3.496-.032-4.343-.848-8.719-.718-13.103-.708-3.845.009-7.712.098-11.532-.255-6.337-.585-12.662-1.029-19.022-.622-5.992.383-11.975.528-17.969-.093-2.116-.219-4.274-.035-6.289-.035-1.461 1.234-1.918 2.712-1.906 4.406.034 4.837.007 9.674.077 14.511.06 4.108.389 8.219.28 12.32-.072 2.799.18 5.482 1.079 8.497zM51.923 143.96c2.507.429 4.225.773 5.959 1.004 1.236.165 2.492.178 3.739.258 2.669.171 5.335.428 8.007.491 3.919.092 7.848-.469 11.757.361 3.802.808 7.617.571 11.472.166 5.59-.586 11.191-1.279 16.847-.686 2.751.288 5.525.437 8.291.488 5.013.092 10.029.009 15.042.097 6.168.108 12.334.313 18.501.486.534.015 1.067.101 1.6.153 2.927.287 5.849.632 8.781.846 5.159.377 10.327.631 15.485 1.019 3.152.237 6.214.024 9.247-1.139 1.397.915 1.397.915 4.722.358-.526-1.995-1.702-3.535-3.353-4.616-1.928-1.263-3.442-2.81-4.446-4.886-.227-.47-.607-.893-.993-1.257-2.472-2.331-4.908-4.705-7.474-6.929-1.306-1.131-2.62-2.516-4.66-2.149l-.84 1.08-1.141-2.276c-3.9.14-7.632.252-11.363.415-2.767.121-5.528.37-8.295.454-3.39.103-6.784.108-10.176.127a51.902 51.902 0 0 1-3.483-.118c-1.604-.098-3.206-.358-4.806-.341-9.663.107-19.325.378-28.988.386-7.419.007-14.838-.278-22.257-.465-1.428-.036-2.851-.305-4.278-.321-4.017-.046-8.035-.016-12.494-.016-3.72 5.122-7.586 10.442-11.443 15.769-.152.21-.279.476-.305.727-.024.234.102.484.204.895l1.141-.381zm149.193-16.877c.174-2.571.601-4.974.437-7.336-.285-4.089.878-7.981 1.439-11.924.404-2.841.8-5.625.725-8.489-.035-1.338.076-2.681.12-4.021.118-3.569.25-7.138.348-10.708.059-2.145.033-4.292.099-6.436.091-2.942.309-5.882.325-8.824a25.194 25.194 0 0 0-.473-5.054c-.22-1.096-.887-2.102-1.551-3.587-.483-.106-1.415-.315-2.348-.513-.861-.183-1.775-.229-2.579-.552-3.603-1.447-7.13-1.294-10.682.195-1.053.441-2.211.658-3.34.884-4.002.798-8.012 1.555-12.125 2.347 0 .678.004 1.204-.001 1.73-.036 3.842-.041 7.684-.121 11.525-.078 3.744-.338 7.488-.324 11.231.011 3.03.342 6.057.473 9.088.085 1.966-.004 3.94.109 5.903.282 4.898.618 9.794.967 14.688.144 2.018.379 4.029.599 6.324 1.714 0 3.255-.217 4.713.038 5.606.982 10.797 3.495 16.386 4.577.26.05.505.178.76.262 1.337.439 2.672.887 4.017 1.301.222.068.491-.015.875-.036l-.474-1.624c.573-.351 1.164-.709 1.626-.989zM35.124 54.366c-.246.82-.534 1.483-.639 2.174-.67 4.381-.434 8.72.659 13.019.196.77.355 1.582.332 2.369-.081 2.75-.243 5.497-.385 8.245-.258 4.993-.55 9.985-.779 14.979-.183 4.011.151 8.105-.548 12.019-.865 4.839.172 9.608-.561 14.408l2.296.652-2.609 2.35.8 3.097c1.085.218 2.089.691 2.998.552 2.632-.404 5.227-1.048 7.834-1.61 1.032-.223 2.115-.822 3.076-.66 4.832.814 9.363-.194 13.811-1.873-.12-.423-.456-1.07-.315-1.199 1.044-.958.628-2.156.667-3.272.093-2.662.208-5.325.231-7.989.03-3.456-.007-6.914-.039-10.37-.045-4.91-.16-9.82-.145-14.73.005-1.773.45-3.547.428-5.317-.04-3.198-.296-6.393-.435-9.59-.154-3.556-.267-7.113-.423-10.668a4.656 4.656 0 0 0-.178-1.027l-3.565-2.79c-2.683-.599-5.713-.848-8.375-1.97-4.078-1.718-8.322-.536-12.409-1.359-.45-.09-1 .311-1.727.56zm134.606 69.449c-1.707 1.288-2.801.518-3.829.188-3.37-1.084-6.086-3.831-9.866-3.899-2.587-1.958-5.671-1.536-8.599-1.696-1.955-.107-3.931.269-5.895.234-5.188-.092-10.373-.341-15.561-.429-4.386-.074-8.775-.021-13.163-.003-5.718.024-11.454-.433-17.124.82-1.293.286-2.676.212-4.018.218-2.417.01-4.855-.254-7.246-.017-2.909.288-5.897.633-8.634 1.58-2.995 1.036-5.742 2.787-8.806 4.331 8.894.508 17.626 1.014 26.361 1.493.98.054 1.969-.038 2.953-.084 5.807-.268 11.611-.679 17.421-.772 4.905-.078 9.817.342 14.725.309 10.019-.067 20.036-.296 30.054-.447 2.686-.04 5.375-.11 8.06-.041 4.074.105 4.794-1.649 4.733-5.382-.076-4.637-.584-9.265-.861-13.9-.128-2.143-.16-4.292-.22-6.438-.152-5.455-.358-10.91-.423-16.367-.073-6.088-.002-12.177-.031-18.265-.003-.552-.277-1.103-.547-2.104l-14.578 12.692c.38 1.846.87 3.116.855 4.379-.035 2.845-.387 5.684-.489 8.53-.131 3.669.097 7.366-.284 11.004-.295 2.813-.297 5.501.433 8.218.182.676.355 1.473.168 2.107-.459 1.56-.208 2.936.455 4.37.443.958.622 2.037.945 3.149 3.901 2.586 8.073 4.695 13.011 6.222zm-1.221-61.719c-.808-.147-1.126-.234-1.449-.259-2.761-.212-5.523-.413-8.285-.616-2.221-.164-4.467-.62-6.657-.429-4.268.373-8.488.735-12.807.511-6.148-.318-12.326.002-18.489-.087-4.81-.07-9.619-.304-14.424-.548-5.355-.272-10.706-.634-16.058-.962-4-.245-8.047-.203-11.988-.825-4.898-.773-9.735.017-14.904-.403 4.061 6.899 9.35 12.15 14.469 16.783 1.701 0 2.85-.054 3.993.012 2.052.118 4.097.378 6.15.454 4.201.157 8.428.564 12.601.266 7.257-.518 14.474-.145 21.706.193 3.746.175 7.489.425 11.237.52 3.759.095 7.549-.235 11.273.141 2.632.266 5.136.304 7.71-.441l15.922-14.31zm-104.493-.189l-.63.289c.18 4.43.48 8.86.504 13.291.021 3.835-.365 7.671-.405 11.509-.064 6.172.012 12.345.022 18.517.006 4.27.469 8.543-.029 12.807-.222 1.899.375 3.612.814 5.389 4.892-.418 8.655-3.094 12.841-5.262-.564-1.257-.56-2.405.522-3.396.268-.245.305-.83.311-1.261.057-4.017.334-8.052.048-12.046-.262-3.666-.139-7.31-.19-10.964-.047-3.374-.303-6.745-.492-10.116-.063-1.12-.201-2.235-.326-3.573-4.392-6.222-4.018-5.22-5.592-5.497-2.553-3.344-4.975-6.516-7.398-9.687z" fill="#1d1d1b"/>
    <path d="M173.598 33.303c-.06 1.156-.085 2.098-.173 3.035-.023.245-.318.461-.356.71-.306 2-.258 4.127-.955 5.975-.712 1.887-1.222 3.656-1.117 5.691.188 3.667.195 7.347-1.495 10.924-1.993.6-4.078.396-6.224.142-4.496-.533-9.008-1.016-13.527-1.211-1.9-.082-3.822.765-5.756.915-1.491.116-3.015-.197-4.524-.315-.533-.041-1.068-.105-1.6-.094-7.058.138-14.122.542-21.172.37-9.292-.226-18.576-.854-27.857-1.408-3.825-.228-7.629-.811-11.454-1.054-3.121-.198-6.26-.136-9.391-.175-1.51-.019-3.02-.003-4.244-.003-1.496-1.448-.339-2.331.31-3.481l-1.605-.176c-.782-2.83-1.729-5.769-1.556-8.961.155-2.863.035-5.69-.85-8.496-.467-1.481-.316-3.158-.459-4.92.883-.079 1.57-.208 2.252-.19 5.006.131 10.012.299 15.018.44 1.432.04 2.872.124 4.297.02 3.779-.275 7.497.162 11.219.716 1.409.21 2.842.273 4.267.352 3.301.183 6.604.456 9.907.466 3.482.011 6.966-.38 10.447-.347 5.634.054 11.287.066 16.89.573 3.509.318 6.917.223 10.404-.052 4.797-.378 9.628-.671 14.442-.055 1.593.204 3.184.426 4.766.702 3.192.556 6.378.547 10.096-.093zM51.923 143.96l-1.139.382c-.102-.412-.229-.661-.204-.895.026-.251.153-.517.305-.727 3.857-5.327 7.723-10.647 11.443-15.769 4.459 0 8.477-.03 12.494.016 1.427.016 2.85.285 4.278.321 7.418.187 14.838.472 22.257.465 9.663-.009 19.325-.279 28.988-.386 1.601-.018 3.203.243 4.806.341 1.159.071 2.322.124 3.483.118 3.392-.019 6.786-.023 10.176-.127 2.767-.084 5.529-.333 8.295-.454 3.73-.164 7.463-.275 11.363-.415l1.141 2.276.84-1.08c2.04-.367 3.354 1.018 4.66 2.149 2.566 2.223 5.002 4.597 7.474 6.929.386.364.766.786.993 1.257 1.003 2.076 2.518 3.623 4.446 4.886 1.651 1.081 2.827 2.621 3.353 4.616-3.326.557-3.326.557-4.722-.358-3.033 1.163-6.096 1.376-9.247 1.139-5.158-.388-10.326-.642-15.485-1.019-2.932-.214-5.854-.56-8.781-.846-.533-.052-1.066-.138-1.6-.153-6.167-.173-12.333-.378-18.501-.486-5.013-.088-10.029-.005-15.042-.097a96.463 96.463 0 0 1-8.291-.488c-5.656-.593-11.257.1-16.847.686-3.856.404-7.671.641-11.472-.166-3.91-.83-7.838-.269-11.757-.361-2.671-.063-5.338-.32-8.007-.491-1.247-.08-2.503-.093-3.739-.258-1.736-.232-3.454-.576-5.961-1.005zm11.509-14.484l.23.551c.427-.091 1.101-.057 1.226-.302.204-.4.067-.984.028-1.487-.006-.076-.263-.132-.502-.242l-.982 1.48zm137.684-2.393l-1.629.987.474 1.624c-.384.021-.653.105-.875.036-1.345-.414-2.679-.862-4.017-1.301-.255-.084-.499-.211-.76-.262-5.589-1.082-10.78-3.596-16.386-4.577-1.458-.255-2.998-.038-4.713-.038-.22-2.295-.455-4.306-.599-6.324-.35-4.894-.685-9.789-.967-14.688-.113-1.963-.024-3.938-.109-5.903-.131-3.031-.461-6.058-.473-9.088-.014-3.743.246-7.486.324-11.231.08-3.841.085-7.683.121-11.525.005-.526.001-1.052.001-1.73 4.113-.793 8.123-1.55 12.125-2.347 1.129-.225 2.288-.442 3.34-.884 3.553-1.489 7.079-1.642 10.682-.195.804.323 1.718.369 2.579.552.934.198 1.865.407 2.348.513.663 1.486 1.331 2.492 1.551 3.587.332 1.652.482 3.367.473 5.054-.016 2.942-.234 5.882-.325 8.824-.066 2.144-.041 4.292-.099 6.436-.098 3.57-.23 7.139-.348 10.708-.044 1.34-.155 2.683-.12 4.021.075 2.865-.321 5.648-.725 8.489-.561 3.943-1.724 7.835-1.439 11.924.167 2.364-.26 4.768-.434 7.338zM35.124 54.366c.727-.249 1.277-.65 1.728-.56 4.087.823 8.33-.359 12.409 1.359 2.663 1.121 5.692 1.371 8.375 1.97l3.565 2.79c-.002-.009.155.506.178 1.027.155 3.556.269 7.113.423 10.668.138 3.197.394 6.392.435 9.59.022 1.77-.423 3.544-.428 5.317-.015 4.91.1 9.82.145 14.73.032 3.457.069 6.914.039 10.37-.023 2.663-.138 5.326-.231 7.989-.039 1.116.377 2.314-.667 3.272-.14.129.196.776.315 1.199-4.448 1.679-8.979 2.687-13.811 1.873-.96-.162-2.044.438-3.076.66-2.607.562-5.202 1.206-7.834 1.61-.909.14-1.913-.334-2.998-.552l-.8-3.097 2.609-2.35-2.296-.652c.732-4.8-.304-9.569.561-14.408.699-3.914.365-8.008.548-12.019.228-4.994.52-9.986.779-14.979.142-2.748.304-5.495.385-8.245.023-.787-.136-1.599-.332-2.369-1.093-4.299-1.329-8.638-.659-13.019.104-.691.391-1.354.638-2.174z" fill="#fff"/>
    <path d="M152.203 81.569c1.384.514 1.307 1.377.801 2.174-.159.251-1.104.363-1.317.156-.875-.849-.237-1.547.516-2.33zm-70.767-.476h-1.242l-.064-.442 1.223-.282.083.724zm-18.004 48.383l.982-1.479c.239.11.496.166.502.242.04.503.176 1.087-.028 1.487-.125.245-.799.211-1.226.302-.076-.185-.153-.368-.23-.552z" fill="#1d1d1b"/>
        <path d="M80.465 117.135c-.9-3.015-1.152-5.699-1.077-8.498.109-4.101-.22-8.212-.28-12.32-.07-4.836-.043-9.674-.077-14.511-.012-1.695.445-3.172 1.906-4.406 2.015 0 4.173-.184 6.289.035 5.994.621 11.976.476 17.969.093 6.36-.407 12.685.037 19.022.622 3.82.353 7.686.264 11.532.255 4.384-.01 8.76-.14 13.103.708 1.103.215 2.284.032 3.496.032 1.017 1.405 1.327 3.079 1.306 4.907-.067 5.985.29 11.966-.811 17.933-.355 1.922.353 4.053.643 6.079.368 2.582.228 5.138-.053 8.045-1.33.149-2.534.392-3.739.399-5.642.031-11.285-.008-16.927-.012-6.718-.005-13.436.026-20.154-.016-1.873-.011-3.748-.364-5.615-.313-3.749.103-7.491.432-11.24.56-3.018.103-6.042.05-9.063.062-.523.002-1.048-.048-1.568-.013-1.509.101-3.014.231-4.662.359zm71.738-35.566c-.753.783-1.391 1.48-.516 2.33.213.207 1.158.095 1.317-.156.506-.796.584-1.659-.801-2.174zm-70.767-.476l-.084-.724-1.223.282.064.442h1.243z" fill="rgba(29,29,27,0.45)"/>
        <path d="M169.73 123.815c-4.938-1.527-9.11-3.637-13.011-6.221-.323-1.112-.503-2.192-.945-3.149-.663-1.434-.914-2.81-.455-4.37.186-.634.013-1.431-.168-2.107-.73-2.717-.728-5.406-.433-8.218.381-3.638.153-7.336.284-11.004.102-2.846.454-5.685.489-8.53.016-1.263-.475-2.533-.855-4.379l14.578-12.692c.269 1.001.544 1.552.547 2.104.029 6.088-.042 12.177.031 18.265.065 5.456.272 10.911.423 16.367.06 2.147.092 4.295.22 6.438.277 4.635.785 9.263.861 13.9.062 3.733-.659 5.486-4.733 5.382-2.685-.069-5.374 0-8.06.041-10.018.151-20.036.38-30.054.447-4.908.033-9.82-.387-14.725-.309-5.809.093-11.614.504-17.421.772-.984.045-1.973.137-2.953.084-8.734-.479-17.467-.985-26.361-1.493 3.064-1.545 5.812-3.295 8.806-4.331 2.737-.947 5.725-1.292 8.634-1.58 2.391-.236 4.829.028 7.246.017 1.342-.006 2.725.068 4.018-.218 5.67-1.252 11.406-.796 17.124-.82 4.388-.018 8.776-.071 13.163.003 5.188.088 10.373.337 15.561.429 1.963.035 3.94-.341 5.895-.234 2.928.16 6.011-.262 8.599 1.696 3.78.068 6.496 2.814 9.866 3.899 1.028.33 2.122 1.1 3.829-.189z" fill="rgba(29,29,27,0.45)"/>
        <path d="M168.509 62.096l-15.921 14.309c-2.574.745-5.078.706-7.71.441-3.724-.376-7.514-.046-11.273-.141-3.748-.095-7.491-.345-11.237-.52-7.232-.337-14.449-.711-21.706-.193-4.173.298-8.401-.11-12.601-.266-2.053-.077-4.098-.336-6.15-.454-1.143-.066-2.293-.012-3.993-.012-5.119-4.634-10.408-9.884-14.469-16.783 5.169.42 10.006-.37 14.904.403 3.941.622 7.988.58 11.988.825 5.352.328 10.703.691 16.058.962 4.805.244 9.615.478 14.424.548 6.163.09 12.341-.231 18.489.087 4.319.224 8.539-.138 12.807-.511 2.19-.192 4.436.265 6.657.429 2.762.204 5.524.405 8.285.616.322.026.64.113 1.448.26zm-104.493-.189l7.399 9.688c1.573.276 1.199-.725 5.592 5.497.124 1.338.263 2.453.326 3.573.189 3.371.445 6.742.492 10.116.051 3.655-.072 7.298.19 10.964.285 3.994.009 8.029-.048 12.046-.006.431-.043 1.016-.311 1.261-1.082.991-1.086 2.139-.522 3.396-4.186 2.168-7.95 4.844-12.841 5.262-.439-1.777-1.036-3.49-.814-5.389.498-4.265.036-8.538.029-12.807-.009-6.173-.086-12.346-.022-18.517.04-3.837.426-7.673.405-11.509-.024-4.431-.324-8.861-.504-13.291.209-.098.419-.194.629-.29z" fill="rgba(29,29,27,0.45)"/>
</svg>
