<svg xmlns="http://www.w3.org/2000/svg" viewBox="0 0 236.013 181.502">
    <path d="M174.057 123.641c-.613 2.886.645 5.058 1.88 7.228 1.104 1.94 2.171 3.905 3.376 5.782 1.445 2.25 3.034 4.407 4.529 6.626.889 1.318 1.707 2.683 2.578 4.014.613.937.702 1.812-.311 2.762-.584-.034-1.412.155-1.958-.154-2.945-1.666-6.144-1.452-9.324-1.474-4.199-.03-8.398-.034-12.597-.108-6.798-.119-13.595-.348-20.393-.406-3.128-.026-6.262.422-9.386.347-8.225-.198-16.444-.636-24.668-.832-3.654-.087-7.32.33-10.974.25-8.228-.181-16.451-.566-24.678-.797-5.984-.168-11.971-.25-17.958-.301-.948-.008-1.9.349-2.929.552-1.243-.549-1.237-1.48-.75-2.62.38-.888.671-1.814.99-2.727.205-.588.235-1.316.609-1.753 3.038-3.541 3.611-8.297 6.053-12.144.833-1.312 1.045-3.018 1.576-4.653-1.552-.638-3.085-.685-4.702-.539-4.005.36-8.02.6-12.031.896-2.407.178-4.827.271-7.213.607-.881.124-1.761.734-2.487 1.316-.526.422-.797 1.162-1.034 1.529-2.843-.698-.98-2.699-2.278-3.838l2.426-1.978c0-2.223-.093-4.633.03-7.032.095-1.861.596-3.702.674-5.562.153-3.646.169-7.299.181-10.949.009-2.763-.351-5.555-.05-8.28.335-3.038.066-5.91-1.101-8.664-.865-2.042-1.137-4.022-.911-6.249.484-4.767-.023-9.457-1.936-13.929-.549-1.284-.49-1.31.206-3.132l31.327-3.985c.079-1.484.267-2.903.208-4.312-.135-3.212-.572-6.42-.545-9.627.025-3.015.488-6.026.722-8.625l2.973-2.102c3.888.288 7.51.587 11.137.815 2.498.157 5.005.174 7.504.324 4.818.29 9.628.771 14.449.914 6.352.189 12.712.103 19.068.186 5.279.069 10.556.208 15.834.322 4.915.106 9.86.61 14.738.235 6.363-.489 12.619.579 18.934.612 1.657.008 3.567-.134 5.05 1.038-.923 5.038-.259 9.968-.116 14.897.031 1.052.052 2.119-.081 3.159-.297 2.31-.483 4.601.122 6.854 1.281 1.297 2.942.875 4.379 1.052 2.727.337 5.511.211 8.238.546 3.172.389 6.441.128 9.503 1.412.677.284 1.589-.036 2.389.003 2.314.113 4.626.266 6.938.408.929.057 1.507.481 1.523 1.668-1.891 1.186-2.113 3.1-2.028 5.251.059 1.494-.553 3.023-.445 4.505.312 4.272.63 8.563 1.338 12.78.694 4.131.853 8.085-.562 12.127-1.129 3.227-1.061 6.656-.9 10.076.104 2.204-.329 4.428-.346 6.644-.03 3.911.032 7.825.168 11.733.02.582.651 1.142.961 1.65-2.181 2.378-2.494 2.467-4.897 1.127-3.977-2.219-8.148-3.66-12.78-3.447-1.631.075-3.156-.166-4.574-1.172-1.619-1.15-3.545-1.033-5.668-.856zM52.979 142.759c.945.588 1.614 1.075 2.345 1.437.603.299 1.267.58 1.925.64 1.313.121 2.645.026 3.962.127 1.958.15 3.905.499 5.864.577 5.273.208 10.55.359 15.826.455 6.614.121 13.229.141 19.844.248 8.142.133 16.284.3 24.426.477 2.051.044 4.098.229 6.149.257 1.333.018 2.668-.209 4.001-.194 7.517.082 15.033.196 22.549.315 7.514.119 15.028.259 22.542.375.146.002.295-.17.55-.327-.049-.292-.044-.652-.172-.957a43.518 43.518 0 0 0-3.414-6.579c-2.754-4.344-5.744-8.633-7.234-13.689-.223-.757-.937-1.431-1.56-1.992-.608-.547-1.39-.901-2.473-1.575-2.266.2-4.929.426-7.59.671-4.004.369-8.004.798-12.012 1.109-1.949.152-3.915.106-5.873.132-1.162.016-2.327-.047-3.487.004-2.144.094-4.285.337-6.428.354-6.27.051-12.54.037-18.81.018-4.657-.014-9.317.005-13.971-.14-5.171-.161-10.335-.575-15.506-.717-3.121-.086-6.25.181-9.376.212-4.273.042-8.547.011-12.942.011-.721 1.169-1.475 2.167-1.996 3.274-2.163 4.596-3.666 9.499-6.477 13.796-.332.505-.456 1.143-.662 1.681zm100.477-23.702c-.127-1.93-.107-3.615-.371-5.255-.681-4.228-1.487-8.407-.885-12.755.262-1.895-.212-3.889-.315-5.839-.037-.705.046-1.416.053-2.125.012-1.225-.02-2.452.019-3.676.041-1.295.144-2.588.228-4.025l-2.778.274c-.434-1.42-1.549-1.86-3.012-1.918-1.782-.071-3.553-.396-5.335-.495-2.053-.114-4.119-.018-6.169-.159-6.776-.463-13.533-1.167-20.349-.956-2.935.091-5.884-.276-8.828-.393-1.249-.05-2.508-.068-3.753.031-4.799.379-9.575 1.313-14.419.476-.603-.104-1.253-.032-1.869.05-1.731.23-3.456.508-5.354.792-.424 5.89-1.972 11.729-1.551 17.767.074 1.055-.158 2.133-.26 3.199-.068.71-.303 1.438-.212 2.124.487 3.674 1.052 7.338 1.551 10.739l2.311 1.92c23.436 1.009 47.096.219 71.298.224zM66.523 53.579c.807.294 1.528.759 2.267.792 6.873.311 13.749.585 20.626.795 8.136.249 16.27.039 24.418.563 9.459.608 18.969.461 28.457.539 6.716.055 13.396.389 20.032 1.512 2.201.372 4.437.332 6.436-.685.093-1.876.204-3.652.263-5.429.046-1.405.102-2.817.025-4.219-.133-2.402-.782-4.859-.443-7.181.339-2.321-.277-4.173-1.035-6.063-1.964-.624-15.188-1.529-17.438-1.331-2.133.188-4.281.324-6.42.296-2.144-.028-4.283-.401-6.427-.424-9.659-.103-19.319-.124-28.978-.198-8.143-.062-16.277-.248-24.377-1.261-2.111-.264-4.286-.011-6.431-.006-1.862.005-3.73.091-5.585-.03-3.016-.197-6.015-.254-8.924-.071-.843 3.839-.392 19.875.552 22.603 1.103.704 2.148.714 2.982-.202zm-1.657 2.274c.253 2.574 1.56 4.425 2.861 6.221 3.355 4.631 6.844 9.153 9.19 14.442.735 1.656 1.793 3.132 3.78 3.902 1.442.559 2.74.601 4.155.457 1.061-.108 2.177-.518 3.17-.314 4.024.824 8.008.152 12.02.05 6.971-.178 13.95-.025 20.926.001.444.002.886.121 1.332.16 4.451.389 8.899.816 13.354 1.145 3.82.282 7.649.431 11.472.679 1.96.127 3.452-.699 4.693-2.112 1.94-2.21 3.906-4.398 5.795-6.65 3.217-3.836 6.382-7.715 9.568-11.576.6-.727 1.12-1.462.232-2.247-1.127-.14-2.175-.266-3.221-.402-4.245-.554-8.477-1.416-12.739-1.604-8.745-.386-17.506-.386-26.26-.595-4.643-.111-9.283-.353-13.926-.488-3.302-.096-6.606-.122-9.909-.162-2.148-.026-4.299.046-6.444-.038-6.699-.261-13.395-.621-20.095-.85-3.29-.112-6.589-.019-9.954-.019zm-32.683 7.161c.263 3.508.757 6.711.671 9.897-.084 3.094.111 6.06 1.253 8.935.914 2.302.962 4.639.791 7.102-.247 3.556-.311 7.159-.025 10.708.268 3.329.388 6.546-.451 9.834-.7 2.742-1.376 5.577-.132 8.431.257.59.021 1.404-.019 2.113-.038.685-.115 1.368-.202 2.358 1.172 0 2.136.065 3.087-.016 1.242-.106 2.468-.419 3.71-.485 5.263-.28 10.531-.487 15.795-.755 1.473-.075 2.941-.27 4.457-.415.138-1.002.254-1.698.327-2.398.279-2.654.38-5.276.159-7.977-.259-3.169.271-6.399.399-9.605.222-5.537.388-11.076.599-16.613.105-2.76.269-5.518.385-8.278.03-.713.165-1.494-.059-2.134-1.336-3.821-.133-7.795-.784-11.694-.353-2.117-.438-4.186-1.782-6.198-2.193 0-4.528-.224-6.803.046-4.869.579-9.715 1.369-14.556 2.164-2.259.371-4.483.957-6.803 1.463l1.113 2.487-1.13 1.03zm166.09-.268c-3.332.226-6.55.592-9.547-.925-.222-.113-.529-.056-.797-.081-3.379-.313-6.754-.678-10.137-.922-2.104-.152-4.232-.28-6.461.211-.178 1.505-.432 2.821-.475 4.145-.267 8.217-.428 16.438-.737 24.653-.347 9.237.638 18.355 2.095 27.451.385 2.406 1.915 3.544 3.971 4.148 1.869.548 3.868.595 5.545 1.832.505.372 1.383.356 2.082.328 3.661-.147 7.063.754 10.369 2.266 1.407.644 2.854 1.426 4.865 1.068 0-2.347-.024-4.649.008-6.95.023-1.605.095-3.211.196-4.814.123-1.954.474-3.91.417-5.856-.113-3.862-.058-7.683.87-11.464.487-1.981 1.095-3.998 1.133-6.008.047-2.477-.47-4.962-.694-7.448-.409-4.533-1.137-9.078-1.038-13.603.063-2.817-.457-5.256-1.665-8.031zm-45.51 19.652l.391.412c.191 1.123.592 2.257.532 3.366-.148 2.732.918 5.487-.173 8.208-.141.353.154.864.19 1.307.113 1.418.3 2.84.268 4.257-.039 1.695-.563 3.42-.368 5.071.511 4.334 1.298 8.635 1.955 12.816 4.081 1.498 11.509 2.446 15.317 1.577-.294-1.438-.681-2.862-.861-4.312-.308-2.479-.34-4.999-.749-7.459-.99-5.955-.746-11.946-.747-17.933-.001-5.533.906-11.059.117-16.6-.074-.52.017-1.068.07-1.599.23-2.31.501-4.615.693-6.928.046-.553-.153-1.127-.33-2.279-5.677 6.995-10.991 13.546-16.305 20.096zm-89.224 38.434c4.719-.365 9.19-2.186 13.919-3.031.044-.769.124-1.386.102-2-.022-.622-.146-1.24-.223-1.86-.099-.794-.282-1.588-.283-2.381-.008-8.042-.14-16.082 1.354-24.055.629-3.355-.002-6.615-2.204-9.412-.218-.277-.373-.613-.512-.941-1.875-4.403-4.735-8.195-7.476-12.061-1.378-1.943-2.73-3.904-4.094-5.858-.268 1.323.111 2.524.006 3.681-.499 5.525.559 11.009.181 16.556-.516 7.577-.463 15.193-.635 22.793-.053 2.325-.003 4.653-.069 6.978-.103 3.63-.267 7.258-.39 10.888-.006.154.138.313.324.703zm1.555 1.081l.069.421c.775 0 1.552.026 2.326-.005 1.959-.078 3.917-.272 5.875-.254 3.029.028 6.078.463 9.081.235 3.849-.293 7.649.185 11.468.246 5.533.087 11.057.699 16.59.821 6.072.133 12.15-.001 18.225-.087 4.198-.059 8.405-.485 12.588-.296 5.949.27 11.714-1.225 17.602-1.403 1.551-.047 3.096-.282 4.644-.431-2.264-.565-4.541-1.497-6.825-.683-1.797.641-3.472.55-5.242.155a9.488 9.488 0 0 0-2.393-.226c-2.585.099-5.167.386-7.751.382-3.303-.005-6.606-.348-9.907-.321-4.913.04-9.824.32-14.737.415-3.396.065-6.797.053-10.193-.038-7.052-.187-14.121.603-21.162-.451-1.299-.194-2.67.05-4.004.144-1.123.08-2.24.236-3.165.336l-1.387-1.688-11.702 2.728z"/>
    <path d="M36.865 129.327c-.1-1.646.418-1.733 1.533-.718l-1.533.718z"/>
    <path d="M52.979 142.759c.206-.539.331-1.177.66-1.681 2.81-4.297 4.314-9.2 6.477-13.796.521-1.107 1.275-2.105 1.996-3.274 4.395 0 8.668.032 12.942-.011 3.126-.031 6.255-.297 9.376-.212 5.171.142 10.335.556 15.506.717 4.654.145 9.314.125 13.971.14 6.27.019 12.54.033 18.81-.018 2.143-.017 4.284-.261 6.428-.354 1.16-.051 2.325.012 3.487-.004 1.958-.026 3.924.02 5.873-.132 4.009-.312 8.008-.74 12.012-1.109 2.661-.245 5.324-.471 7.59-.671 1.083.674 1.865 1.028 2.473 1.575.623.561 1.337 1.235 1.56 1.992 1.49 5.056 4.48 9.344 7.234 13.689a43.613 43.613 0 0 1 3.414 6.579c.128.305.123.665.172.957-.255.157-.404.33-.55.327-7.514-.117-15.028-.256-22.542-.375-7.516-.119-15.033-.233-22.549-.315-1.333-.015-2.669.212-4.001.194-2.05-.028-4.098-.213-6.149-.257-8.142-.177-16.284-.344-24.426-.477-6.614-.108-13.23-.128-19.844-.248a745.603 745.603 0 0 1-15.826-.455c-1.959-.077-3.906-.426-5.864-.577-1.316-.101-2.648-.006-3.962-.127-.658-.061-1.322-.341-1.925-.64-.729-.362-1.398-.848-2.343-1.437zm13.544-89.18c-.834.916-1.878.906-2.981.205-.944-2.728-1.396-18.764-.552-22.603 2.909-.183 5.908-.126 8.924.071 1.854.121 3.723.035 5.585.03 2.145-.005 4.32-.258 6.431.006 8.1 1.013 16.234 1.199 24.377 1.261 9.659.074 19.319.094 28.978.198 2.143.023 4.283.396 6.427.424 2.139.028 4.287-.108 6.42-.296 2.25-.198 15.473.707 17.438 1.331.758 1.89 1.374 3.742 1.035 6.063-.339 2.321.31 4.778.443 7.181.078 1.402.022 2.813-.025 4.219-.059 1.777-.169 3.552-.263 5.429-1.999 1.016-4.235 1.057-6.436.685-6.636-1.122-13.315-1.456-20.032-1.512-9.489-.078-18.999.068-28.457-.539-8.148-.524-16.282-.314-24.418-.563-6.877-.21-13.753-.485-20.626-.795-.741-.036-1.461-.501-2.268-.795zm-34.34 9.435l1.132-1.031-1.113-2.487c2.32-.506 4.544-1.092 6.803-1.463 4.84-.796 9.686-1.585 14.556-2.164 2.275-.271 4.61-.046 6.803-.046 1.344 2.012 1.428 4.081 1.782 6.198.651 3.899-.552 7.873.784 11.694.224.641.089 1.421.059 2.134-.116 2.76-.28 5.518-.385 8.278-.211 5.537-.377 11.076-.599 16.613-.129 3.206-.659 6.436-.399 9.605.221 2.701.12 5.323-.159 7.977-.074.7-.189 1.396-.327 2.398-1.517.145-2.984.34-4.457.415-5.264.269-10.531.475-15.795.755-1.242.066-2.468.379-3.71.485-.951.081-1.915.016-3.087.016.087-.99.164-1.673.202-2.358.039-.709.276-1.523.019-2.113-1.245-2.854-.569-5.689.132-8.431.84-3.288.72-6.505.451-9.834-.286-3.548-.223-7.152.025-10.708.171-2.463.123-4.8-.791-7.102-1.141-2.875-1.336-5.841-1.253-8.935.084-3.186-.409-6.388-.673-9.896zm2.557.255c-2.115 1.062-2.115 1.062-.751 2.459.932-.508 1.102-1.258.751-2.459zm163.533-.523c1.209 2.775 1.728 5.214 1.667 8.03-.098 4.525.63 9.069 1.038 13.603.224 2.486.741 4.971.694 7.448-.038 2.01-.646 4.027-1.133 6.008-.929 3.781-.984 7.602-.87 11.464.057 1.946-.294 3.902-.417 5.856a99.09 99.09 0 0 0-.196 4.814c-.033 2.301-.008 4.603-.008 6.95-2.011.357-3.458-.425-4.865-1.068-3.306-1.512-6.708-2.413-10.369-2.266-.7.028-1.577.044-2.082-.328-1.678-1.237-3.677-1.284-5.545-1.832-2.057-.603-3.586-1.742-3.971-4.148-1.457-9.097-2.443-18.214-2.095-27.451.309-8.215.47-16.436.737-24.653.043-1.323.296-2.64.475-4.145 2.229-.491 4.357-.363 6.461-.211 3.384.245 6.759.609 10.137.922.267.025.575-.032.797.081 2.995 1.518 6.212 1.152 9.545.926z" fill="#fff"/>
    <path d="M34.74 63.269c.351 1.202.181 1.951-.751 2.459-1.364-1.398-1.364-1.398.751-2.459zm129.565 51.733l-1.065-.48.176-.501 1.181.341c-.096.213-.194.426-.292.64z"/>
    <path d="M153.456 119.057c-24.202-.006-47.862.785-71.298-.223l-2.311-1.92c-.499-3.401-1.065-7.065-1.551-10.739-.091-.686.144-1.414.212-2.124.102-1.066.334-2.144.26-3.199-.42-6.038 1.128-11.877 1.551-17.767 1.898-.284 3.623-.562 5.354-.792.616-.082 1.266-.154 1.869-.05 4.844.837 9.62-.097 14.419-.476 1.244-.098 2.504-.08 3.753-.031 2.944.117 5.892.484 8.828.393 6.816-.211 13.573.493 20.349.956 2.05.14 4.116.045 6.169.159 1.782.099 3.553.423 5.335.495 1.464.059 2.579.498 3.012 1.918l2.778-.274c-.084 1.438-.186 2.73-.228 4.025-.039 1.224-.007 2.451-.019 3.676-.007.709-.09 1.42-.053 2.125.103 1.951.577 3.944.315 5.839-.602 4.348.204 8.527.885 12.755.264 1.639.244 3.324.371 5.254zm-88.59-63.204c3.365 0 6.664-.093 9.957.019 6.7.229 13.396.589 20.095.85 2.145.084 4.296.012 6.444.038 3.303.039 6.607.065 9.909.162 4.643.135 9.283.377 13.926.488 8.753.209 17.515.209 26.26.595 4.261.188 8.493 1.05 12.739 1.604 1.046.137 2.094.262 3.221.402.888.785.368 1.52-.232 2.247-3.186 3.861-6.352 7.74-9.568 11.576-1.889 2.253-3.855 4.441-5.795 6.65-1.241 1.413-2.733 2.24-4.693 2.112-3.823-.248-7.652-.397-11.472-.679-4.455-.329-8.903-.756-13.354-1.145-.445-.039-.888-.158-1.332-.16-6.976-.026-13.955-.179-20.926-.001-4.012.102-7.997.774-12.02-.05-.993-.203-2.109.207-3.17.314-1.414.144-2.713.102-4.155-.457-1.987-.771-3.046-2.247-3.78-3.902-2.347-5.289-5.835-9.811-9.19-14.442-1.304-1.796-2.611-3.647-2.864-6.221zm87.897 26.545l16.303-20.096c.177 1.152.376 1.725.33 2.279-.192 2.312-.463 4.618-.693 6.928-.053.531-.144 1.08-.07 1.599.789 5.541-.119 11.067-.117 16.6.001 5.987-.243 11.978.747 17.933.409 2.46.441 4.979.749 7.459.18 1.45.567 2.874.861 4.312-3.808.869-11.236-.078-15.317-1.577-.656-4.181-1.444-8.482-1.955-12.816-.195-1.652.33-3.376.368-5.071.032-1.416-.155-2.839-.268-4.257-.035-.443-.331-.954-.19-1.307 1.091-2.721.025-5.475.173-8.208.06-1.109-.341-2.243-.532-3.366l-.389-.412zm11.542 32.604l.293-.64-1.181-.341-.176.501 1.064.48zm-100.766 5.83c-.186-.39-.33-.549-.325-.702.123-3.63.287-7.258.39-10.888.066-2.325.016-4.653.069-6.978.172-7.6.119-15.216.635-22.793.378-5.547-.68-11.031-.181-16.556.105-1.157-.274-2.358-.006-3.681 1.364 1.953 2.717 3.914 4.094 5.858 2.741 3.866 5.6 7.658 7.476 12.061.14.328.294.664.512.941 2.203 2.797 2.833 6.057 2.204 9.412-1.494 7.973-1.362 16.013-1.354 24.055.001.794.184 1.588.283 2.381.078.62.201 1.238.223 1.86.022.614-.058 1.231-.102 2-4.728.844-9.199 2.665-13.918 3.03zm1.555 1.081l11.703-2.729 1.387 1.688c.925-.101 2.042-.257 3.165-.336 1.334-.094 2.705-.339 4.004-.144 7.041 1.054 14.11.264 21.162.451 3.396.09 6.797.103 10.193.038 4.913-.094 9.824-.375 14.737-.415 3.301-.027 6.604.316 9.907.321 2.583.004 5.166-.284 7.751-.382a9.488 9.488 0 0 1 2.393.226c1.77.395 3.445.486 5.242-.155 2.283-.815 4.561.118 6.825.683-1.548.149-3.093.384-4.644.431-5.888.179-11.653 1.673-17.602 1.403-4.183-.19-8.39.237-12.588.296-6.075.086-12.153.22-18.225.087-5.534-.121-11.057-.733-16.59-.821-3.82-.06-7.619-.538-11.468-.246-3.003.228-6.052-.207-9.081-.235-1.957-.018-3.916.176-5.875.254-.774.031-1.551.005-2.326.005l-.07-.42z" opacity=".45"/>
</svg>
