<svg id="Ebene_1" xmlns="http://www.w3.org/2000/svg" viewBox="0 0 236 181.5">
    <path fill="#1d1d1b" d="M167.6 100.4c.5 0 .9.1 1.2 0 .5 0 1-.2 1.5-.2 2.3-.1 4.7.5 7-.1.2 0 .3 0 .5.1 1.2.4 2.4.3 3.6.3.6 0 1.1 0 1.7.2 2.9.7 5.8.9 8.7.5 1.4-.2 2.8-.2 4.1.2 1.2.4 2.4.4 3.6.3 1-.1 1.9-.2 2.9-.3h1.4c1.2 0 2.4.1 3.6 0 .9-.1 1.8-.4 2.7-.5 2.5-.2 5-.4 7.5-.5.2 0 .4.2.9.5-.7.2-1.1.3-1.5.3h-3.6c-1.6.1-3.2 0-4.8.5-1.8.6-3.6.8-5.2.3-2 .3-3.9.7-5.8.4-2.6-.5-5.2-.8-7.8.2-.1 0-.2.1-.3.1-1.7-.1-3.4-.2-5.1-.4-.9-.1-1.8-.2-2.7 0-.7.2-1.5 0-2.2-.1-.9-.2-1.8-.3-2.7-.2-1.3.2-2.5.1-3.7-.2-.4-.1-.9-.2-1.3-.2-1.1.1-2.3.4-3.4.6-.5.1-.9.2-1.3 1 .3 1.5.5-3.3.5-2.8m-94.6 0c-.5 0-.9.1-1.3 0-.5 0-1.1-.2-1.6-.2-2.4-.1-4.9.5-7.3-.1-.2 0-.4 0-.5.1-1.2.4-2.5.3-3.7.3-.6 0-1.2 0-1.8.2-3 .7-6 .9-9.1.5-1.4-.2-2.9-.2-4.3.2-1.2.4-2.5.4-3.7.3l-3-.3h-1.4c-1.2 0-2.5.1-3.7 0-.9-.1-1.9-.4-2.8-.5-2.6-.2-5.2-.4-7.8-.5-.2 0-.4.2-.9.5.8.2 1.2.3 1.5.3h3.7c1.7.1 3.4 0 5 .5 1.9.6 3.7.8 5.4.3 2.1.3 4.1.7 6.1.4 2.7-.5 5.4-.8 8.1.2.1 0 .2.1.4.1 1.8-.1 3.6-.2 5.3-.4.9-.1 1.9-.2 2.8 0 .7.2 1.5 0 2.3-.1.9-.2 1.9-.3 2.8-.2 1.3.2 2.6.1 3.9-.2.5-.1.9-.2 1.4-.2 1.2.1 2.4.4 3.5.6.5.1.9.2 1.3 1-.4 1.5-.6-3.3-.6-2.8"/>
        <path fill="#1d1d1b" d="M184.3 87.8l-11.1 3.4c-.3 2.6-.5 5.2-.8 7.7 0 .6-.1 1.3-.3 1.9-1.4 4.5-2.3 9.1-2.5 13.8 0 1.3.3 2.5.6 3.7.2 1.4 0 1.8-1.3 2.3-5 2-10.3 3.5-15.6 4.4-5.3.8-10.3 2.7-15.5 3.9-3.4.8-6.9 1.1-10.4 1.8-3 .5-5.9 1.2-8.9 1.9-1.1.4-2.1.9-3.1 1.5-.7-1-1.7-1.1-3-.5-.4.1-.8.1-1.1-.1-2.8-2-6.2-2-9.3-2.7-5.6-1.2-11.3-2.3-16.9-3.1-4.2-.6-8-2.2-12-3.1-1.6-.3-3.1-.5-4.7-.5-1.8 0-2.5-.4-2.4-2.3.2-4.6.6-9.2.6-13.9 0-3.4-.4-6.9-.6-10.3-.1-1.6-.4-3.1-.6-4.9-2.5-.3-4.8-.5-7.1-.8-1.8-.3-3.6-.6-5.4-1-.5-.2-1-.5-1.4-.9.8-2 1.6-3.6 2.2-5.3 1.8-4.7 3.2-9.5 6-13.8.6-1.2 1.2-2.4 1.7-3.7-2.8-3.4-5.2-7.1-7.1-11.1-.7-1.7-2-3.1-3.7-4-.7-.1-1.1-.8-.9-1.4 0-.1 0-.2.1-.3.3-.6 1-.9 1.6-.6.1 0 .1.1.2.1.3.2.7.3 1.1.2 1.6-1 3.3-.6 4.9-.6 6.2 0 12.4.2 18.6.4 1.5.1 3 .3 4.5.5 4.7.7 9.4 0 14.1-.1 3.8-.1 7.6-.5 11.4-.7 2.5-.1 5.1-.1 7.6 0 .8.1 1.5.5 2 1.1 2 2.3 3.9 4.8 6 7.2 1.3 1.5 2.8 2.8 4.1 4.1 2.4-1.3 4.5-2.4 6-4.3.8-.8 1.7-1.4 2.7-1.9 2.3-1.5 4.7-3 6.9-4.6 1.2-.9 2.9-1.2 4.4-.7 4.6 1 9.3 1.7 13.9 2.4 2.7.4 5.4.9 8.1 1 5.1.3 10.1.4 15.2.5.5 0 1.1.1 1.6.3.8.3 1.8.5 1.8 1.6s-1 1-1.7 1.3c-.8.4-1.7.9-2.5 1.5-1.8 1.2-3.5 2.6-5.3 3.7-1.2.7-2.7.9-3.9 1.6-2.2 1.3-2.3 2.3-.8 4.4 2.7 3.8 5.2 7.6 7.8 11.4.8 1.3 1.7 2.5 2.7 3.7 1.3 1 1.8 2.5 1.5 3.9zM128.9 101c-1.5 1.2-1.4 1.1-2.1-.5-1-2.6-2.3-5.1-3.8-7.4-2.3-3.4-4.9-6.6-7.5-9.9-.8-.9-1.4-2.2-3-1.9-.4-.3-.7-.6-1-1.1-.7.5-1.7 1-2 1.7-1.7 4.1-3.3 8.3-4.9 12.5-.4 1-.5 2-.8 3-.8 2.1-2.1 2.8-4.2 2.1-.9-.3-1.8-.6-2.8-.8-4-.8-7.9-1.7-11.9-2.4-4.4-.8-8.8-1.4-13.2-2.1-1.3-.4-2.7-.5-4.1-.2.2 2.6.7 5 .7 7.5 0 5.9-.2 11.8-.4 17.7-.1 2.2.5 2.9 2.7 3.5 3.2.8 6.3 1.6 9.5 2.4 1.9.5 3.8 1.1 5.8 1.4 4.2.8 8.5 1.5 12.7 2.2s8.3 1.4 12.6 2.1c.3-2.6.7-5.1.9-7.7.1-.9-.6-2-.4-2.8.7-2.1.3-4.3.2-6.4s-.5-4.2-.8-6.4c-.2-.6-.2-1.2 0-1.9.6-1.3.8-2.8.4-4.2-.1-.6-.1-1.3.1-1.9.5-3.5.5-7.1.1-10.7-.3-2.1 0-4.2.9-6.2.4 1.9.7 3.9.8 5.8.1 1.8-.1 3.6 0 5.5.1 2.1 0 4.3-.3 6.4-.2 2.2 0 4.4-.5 6.6 0 .5.1.9.3 1.4.2 1.7.4 3.5.4 5.2.1 2.5 0 5.1 0 7.6 0 1.6 0 3.2-.1 4.8s-.3 3.3-.4 4.9c1.6.5 3.3.5 4.9 0 3.7-.8 7.3-1.7 11-2.1 5-.6 9.9-1.7 14.7-3.3 1.7-.5 3.4-1 5.1-1.4 3.3-.8 6.5-1.4 9.8-2.1 1.8-.4 3.6-.8 5.3-1.3 1.5-.4 3.1-.8 4.3-2.2-.8-1-.9-2.4-.1-3.5.2-.5.2-.9.1-1.4 0-1.7.1-3.3.4-5 .6-3.2 1.6-6.4 2.3-9.5.7-2.5.9-5.1.5-7.6-.4 0-.9.1-1.3.2-5.2 1.7-10.4 3.5-15.7 5.1-3 1-6.1 1.9-9.1 2.8-2.3.6-4.7 1-7 1.7s-4.7 1.6-7 2.5c-1.1.4-2.1.7-2.8-.8.5-.3.8-.6 1.2-.8.5-.3 1-.5 1.5-.7 5.1-1.5 10.1-3.5 15.4-3.9.7-.1 1.4-.3 2.1-.5 5.3-1.9 10.5-3.8 15.8-5.6 1.6-.6 3.3-1.1 5.1-1.4 3.5-.5 6.8-1.7 10.1-2.6 1.2-.2 2.1-1.1 2.2-2.3-1.9-2.9-3.8-5.8-5.8-8.7-1.3-2-2.8-3.9-4.2-5.9-1.5-2.2-3.2-3.5-6.8-1.9-1.3.7-2.6 1.2-4 1.6-4.1 1.1-8.2 2-12.4 2.6-4.8.6-9.6 1.6-14.2 2.9-1.4.4-2.7 1-4.1 1.2-4.9 1-9.9 1.9-14.8 2.8-.2.2-.3.3-.4.5 2.8 3.7 5.6 7.4 8.4 11.2 1.3 1.5 2.4 3.1 3.5 4.8 1 1.7 1.6 3.2 2.1 4.8zm-27.8-2.7l7-18.4-7.6-1.5c-2.2-.4-4.4-.9-6.5-1.3-5.8-1-11.6-1.9-17.4-3.1-3.2-.7-6.6-1.1-9.6-2.8-1.8-1.1-4-1.3-6-.7l-7.4 19.2c3 .4 5.8.7 8.6 1.1 5 .8 9.9 1.8 14.8 2.7 4.1.7 8.2 1.2 12.3 1.9 2.4.4 4.8 1 7.2 1.6 1.5.3 2.9.8 4.6 1.3zM53.4 51.8c.5.5.9 1.1 1.3 1.7l3 5.4c1.7 2.8 3.5 5.5 5.2 8.3.5.7 1.3 1 2.1.8 5.5-.4 11-.7 16.5-1 .7 0 1.4-.1 2.1-.1 3.3.2 6.5.2 9.8 0 5.9-.6 11.7-1.6 17.5-2.4 1.9-.3 3.8-.6 5.6-.9 2.3-.3 4.7-.5 7.2-.8l-.6-.9c-2.2-2.4-4.8-4.5-6.5-7.2-1.5-2.3-3.5-2.5-5.7-2.6-3.5-.1-7-.1-10.6-.2-.6 0-1.5-.3-1.8 0-1.4 1.1-2.9.6-4.4.5-1.4-.2-2.8-.2-4.2 0-2.6.8-5.1.3-7.6.2-2-.1-4.1-.4-6.1-.8-3.5-.6-7-.3-10.5-.3-3.9 0-8 .2-12.3.3zm14.9 17.8c.3.2.7.4 1.1.6 2.5.7 4.9 1.5 7.4 1.9 8.2 1.6 16.5 3 24.7 4.5.3.1.7.1 1 .1 2.4-.1 4.8.3 7 1.4.2.1.4.2.6.2 2-.8 4.1-.1 6.1-.4 3.2-.5 6.5-1 9.6-1.7 4.9-1.1 9.8-2.4 14.7-3.5 4-.8 8-1.2 12-2 3-.6 5.9-1.4 8.8-2.1.6-.3 1.1-.6 1.5-1-3.5-.4-6.5-.8-9.5-1.2-4.6-.5-9.2-1.1-13.8-1.6-3.9-.4-7.9-1.2-12.1-.5v10.8c-.5-.4-.9-.9-1.3-1.4-1.2-2.9-.2-6-.5-8.8h-2.8c-.7-.1-1.4-.1-2.1-.1-2.4.3-4.8.6-7.1.9-4.6.6-9.2 1.3-13.8 2-3.2.4-6.3 1-9.5 1.1-7.1.3-14.2.5-21.3.7-.1-.1-.4 0-.7.1zm62.5-7.8c.3.1.5.2.8.3 7.4.9 14.9 1.8 22.3 2.6 3.7.4 7.5 1 11.2 1.2 2.1.1 4.4 0 5.8-2.2.6-.9 1.5-1.6 2.6-1.9 3.8-.2 6-2.9 8.7-4.9-.7-.3-1.5-.5-2.3-.6-1-.1-2.1-.1-3.1-.2-4.8-.4-9.5-1-14.3-1.2-4.7-.4-9.3-1.1-13.9-2.1-2-.4-4.2-.8-6 .5-4 2.6-8.4 4.6-11.8 8.5z"/>
        <path fill="#1d1d1b" d="M116.9 48.7l2 1.3c-1.5.3-1.5.3-2-1.3zm66.8 3.8c1.3-.5 1.3-.5 1.6.8l-1.6-.8zM53 45.5l1.5-.3c-.8.8-.8.8-1.5.3z"/>
        <path fill="#fff" d="M128.9 101c-.4-1.6-1-3.1-1.7-4.6-1.1-1.7-2.2-3.3-3.5-4.8-2.8-3.8-5.6-7.5-8.4-11.2.1-.2.2-.4.4-.5 4.9-.9 9.9-1.8 14.8-2.8 1.4-.3 2.7-.9 4.1-1.2 4.7-1.3 9.4-2.3 14.2-2.9 4.2-.6 8.3-1.5 12.4-2.6 1.4-.4 2.7-1 4-1.6 3.6-1.5 5.2-.3 6.8 1.9 1.4 2 2.8 3.9 4.2 5.9 2 2.9 3.9 5.9 5.8 8.7-.1 1.2-1 2.1-2.2 2.3-3.4.9-6.6 2.1-10.1 2.6-1.7.3-3.4.7-5.1 1.4-5.3 1.8-10.5 3.7-15.8 5.6-.7.3-1.4.5-2.1.5-5.4.4-10.4 2.3-15.4 3.9-.5.2-1 .4-1.5.7-.4.2-.8.5-1.2.8.6 1.5 1.7 1.2 2.8.8 2.3-.9 4.6-1.8 7-2.5s4.7-1.1 7-1.7c3.1-.9 6.1-1.8 9.1-2.8 5.2-1.7 10.4-3.4 15.7-5.1.4-.1.8-.2 1.3-.2.4 2.5.2 5.1-.5 7.6-.7 3.2-1.6 6.3-2.3 9.5-.2 1.7-.4 3.3-.4 5 .1.5 0 1-.1 1.4-.8 1.1-.7 2.5.1 3.5-1.2 1.4-2.8 1.8-4.3 2.2-1.8.5-3.5.9-5.3 1.3-3.3.7-6.5 1.4-9.8 2.1-1.7.4-3.4.8-5.1 1.4-4.8 1.6-9.7 2.7-14.7 3.3-3.7.5-7.4 1.4-11 2.1-1.6.5-3.3.5-4.9 0 .1-1.6.3-3.3.4-4.9s.1-3.2.1-4.8c0-2.5.1-5.1 0-7.6 0-1.7-.2-3.5-.4-5.2-.2-.4-.3-.9-.3-1.4.6-2.2.3-4.4.5-6.6.3-2.1.3-4.3.3-6.4-.1-1.8 0-3.6 0-5.5-.1-2-.4-3.9-.8-5.8-.9 1.9-1.2 4.1-.9 6.2.5 3.5.4 7.1-.1 10.7-.2.6-.2 1.3-.1 1.9.3 1.4.2 2.9-.4 4.2-.2.6-.2 1.2 0 1.9.2 2.1.7 4.2.8 6.4s.5 4.2-.2 6.4c-.3.8.5 1.9.4 2.8-.2 2.5-.6 5-.9 7.7-4.3-.7-8.4-1.4-12.6-2.1s-8.5-1.4-12.7-2.2c-2-.4-3.9-1-5.8-1.4-3.2-.8-6.3-1.7-9.5-2.4-2.2-.5-2.8-1.3-2.7-3.5.2-5.9.4-11.8.4-17.7 0-2.5-.4-4.9-.7-7.5 1.4-.2 2.8-.2 4.1.2l13.2 2.1c4 .7 8 1.5 11.9 2.4.9.2 1.8.5 2.8.8 2.1.7 3.4.1 4.2-2.1.4-1 .4-2 .8-3 1.6-4.2 3.1-8.3 4.9-12.5.3-.7 1.4-1.1 2-1.7.3.4.6.8 1 1.1 1.6-.3 2.3 1 3 1.9 2.6 3.2 5.2 6.4 7.5 9.9 1.5 2.4 2.7 4.8 3.8 7.4.2 1.4.2 1.5 1.7.3zm1.6-5.5c.3.7.6 1.3 1 1.9.3.3.8.4 1.2.4.3-.2.5-.5.5-.9-.1-.4-.4-.7-.8-.9-.6-.2-1.2-.4-1.9-.5z"/>
        <path fill="#fff" d="M101.1 98.3c-1.6-.5-3-1-4.5-1.4-2.4-.6-4.8-1.2-7.2-1.6-4.1-.7-8.2-1.2-12.3-1.9-4.9-.8-9.9-1.8-14.8-2.7-2.8-.5-5.6-.7-8.6-1.1l7.4-19.2c2-.6 4.2-.3 6 .7 3 1.7 6.3 2.1 9.6 2.8 5.8 1.2 11.6 2.1 17.4 3.1 2.2.4 4.4.9 6.5 1.3l7.6 1.5-7.1 18.5zM53.4 51.8c4.2-.1 8.4-.3 12.5-.3 3.5 0 7-.4 10.5.3 2 .4 4.1.7 6.1.8 2.5.1 5 .6 7.6-.2 1.4-.2 2.8-.2 4.2 0 1.5.1 3 .6 4.4-.5.4-.3 1.2 0 1.8 0 3.5.1 7 .1 10.6.2 2.2.1 4.2.3 5.7 2.6 1.8 2.7 4.3 4.8 6.5 7.2l.6.9c-2.5.3-4.9.5-7.2.8-1.9.2-3.8.6-5.6.9-5.8.8-11.7 1.8-17.5 2.4-3.3.2-6.5.2-9.8 0-.7 0-1.4 0-2.1.1-5.5.3-11 .7-16.5 1-.8.2-1.6-.1-2.1-.8-1.7-2.8-3.5-5.5-5.2-8.3-1.1-1.8-2-3.6-3-5.4-.5-.6-1-1.2-1.5-1.7zm77.4 10c3.4-3.9 7.9-5.9 11.8-8.6 1.8-1.3 4-.9 6-.5 4.6 1 9.3 1.7 13.9 2.1 4.8.2 9.5.8 14.3 1.2 1 .1 2.1.1 3.1.2.8.1 1.6.2 2.3.6-2.8 2-5 4.7-8.7 4.9-1.1.2-2 .9-2.6 1.9-1.5 2.2-3.7 2.3-5.8 2.2-3.7-.2-7.5-.7-11.2-1.2-7.4-.9-14.9-1.7-22.3-2.6-.3 0-.5-.1-.8-.2z"/>
        <path fill="#1d1d1b" d="M130.5 95.5c.7.1 1.3.2 2 .5.4.2.6.5.8.9 0 .4-.2.7-.5.9-.4 0-.9-.1-1.2-.4-.4-.6-.8-1.2-1.1-1.9z"/>
</svg>
