<svg id="Ebene_1" xmlns="http://www.w3.org/2000/svg" viewBox="0 0 236 181.5">
    <path fill="#fff" d="M193.2 89.2l1.1-3.2-7.6-1.5-22.2-.6-38.3 1.5-34.7 1.8-31.7-.3L49 90l.5 1 16.9.5 25.7 1 30.8-1.4 26.2-2.2 23.3-.5z"/>
        <path fill="#fff" d="M196 86.7c-2.6-.8-4.9-2.7-7.4-2.7-2 0-3.9-.1-5.8-.1-2.5 0-4.9.3-7.4.2-3-.1-5.9-.7-8.9-.8-3.7-.2-7.4 0-11.1.1-2.6.1-5.2.1-7.9.3-4.6.4-9.1.8-13.7 1.2-5.1.4-10.2.7-15.3 1-3.8.2-7.6.7-11.4.7-4.2.1-8.4-.3-12.6-.1-6.6.1-13.1.6-19.7.2-5-.3-10.1.1-15.1.2-2.2.2-4.5.7-6.8 1.3-3.9.7-7.7 1.6-11.8.3-2.3-.6-4.7-.7-7.1-.3-2.4.4-4.9.3-7.3.4-1.8.1-3.6.4-5.3.5-2.5.1-4.9 0-7.4 0-.4 0-.9-.2-1.1.9.6.3 1.2.5 1.7.5 3.3-.1 6.7-.4 10-.5 1.5-.1 2.9 0 4.4 0 1.3.1 2.5.2 3.8.1 3-.3 6.1-.7 9.1-.1 2.3.5 4.6.1 7 .1 1.3.1 2.6 0 4-.3 2.6-.9 5.4-1.3 8.1-1.2 4.9.1 9.8-.1 14.8-.1 6.8 0 13.6-.5 20.5-.3 8.3.2 16.6-.2 25-1.1 6.9-.8 13.8-1 20.7-1.4 5-.3 10-.6 15-.8 4.2-.3 8.3-.2 12.6.3 3.8.8 7.6.9 11.4.7 1.3-.2 2.5-.3 3.8-.3 1.7.1 3.4.4 5.1.8 1 .3 2.1.2 3.4 1.4-.7.1-1.1.3-1.6.4-2.8.1-5.5.3-8.3.3-2.3.1-4.5 0-6.7.1-4.9.1-9.9.2-14.9.3-2.4.1-4.7.3-7.1.3-1.8.1-3.6-.2-5.4 0-6.1.3-12.2.7-18.3 1-4.9.3-9.7.7-14.6.8-4.1.3-8.2.4-12.2.5H92.9c-6.5-.1-12.9 0-19.5-.1-3.3-.1-6.6-.3-9.9-.2-4 0-8 .5-12-.3-.6-.1-1.3 0-1.9.4-.3.3-.6.7-.8 1.1 1.2.4 2.4.5 3.6.7 2.3 0 4.6-.2 6.9-.3 3.2-.1 6.3-.2 9.5-.2 3.3 0 6.5.3 9.8.2 4.6 0 9.1-.2 13.7-.2 6 0 11.9.1 17.8 0 1.1 0 2.1-.1 3.2-.2 5.4-.3 10.8-.8 16.2-1 3.5-.1 7.1-.1 10.7-.3 4-.2 8-.5 12.1-.8 4.9-.3 9.9-.5 14.9-.7 2.2-.1 4.4 0 6.6.1 5.5 0 11-.1 16.5-.1 1.8 0 3.5 0 5.3.3 4.2.4 8.4.5 12.7.2.8-.1 1.6-.2 2.5-.1 2.6.4 5.2.9 7.9 1.3.6.1 1.4.3 2-1.1-.5-.3-1.1-.5-1.5-.6-.8-.2-1.6-.1-2.3-.3-3.8-.9-7.6-1-11.4-.7-3.2.3-6.3-.3-9.5-.1-.5-.1-1-.2-1.5-.4.3-.9 1.2.5 1.5-1.4zm32.5 4.3c-.9-1.2-1.7-.9-2.5-.9-.2.2-.4.5-.5.9.1.3.2.6.5.8.7.4 1.7.1 2.5-.8zm-224-1.3c1.3 1.2 1.8 1 2.7-.3-1-.2-1.9-.2-2.7.3zm218.3.8c-.1-.3-.2-.5-.3-.7-.3-.6-.9-.6-1.2 0l-.1.1c0 .3-.1.7 0 1 .4.1.8.2 1.2.2.2-.2.3-.4.4-.6zm-212-1.1c.8 1.5.8 1.5 1.7.5-.5-.7-1.1-.9-1.7-.5zm222.9 1.7c-.7-.3-1.2-.4-1.5.8.6.5 1 .3 1.5-.8z"/>
        <path fill="#1d1d1b" d="M196 86.7c-.3 1.9-1.1.4-1.8 1.3.5.2 1 .4 1.5.4 3.2-.1 6.3.5 9.5.1 3.8-.4 7.6-.2 11.4.7.8.2 1.5.1 2.3.3.6.2 1.1.4 1.5.6-.6 1.4-1.3 1.2-2 1.1-2.6-.4-5.2-.9-7.9-1.3-.9-.1-1.6 0-2.5.1-4.2.3-8.5.2-12.7-.2-1.7-.2-3.5-.3-5.3-.3-5.5 0-11 .1-16.5.1-2.2 0-4.4-.1-6.6-.1-4.9.2-9.9.4-14.9.7-4 .3-8 .5-12.1.8-3.5.1-7.1.1-10.7.3-5.4.3-10.8.7-16.2 1-1.1 0-2.1.2-3.2.2-6 0-11.9-.1-17.8 0-4.6.1-9.1.2-13.7.2-3.3 0-6.5-.3-9.8-.2-3.2 0-6.3.1-9.5.2-2.3.1-4.6.3-6.9.3-1.2-.2-2.4-.3-3.6-.7.2-.5.5-.8.8-1.1.6-.2 1.2-.3 1.9-.4 4 .8 8 .2 12 .3 3.3 0 6.6.3 9.9.2 6.5.1 12.9.1 19.5.1 3.7.1 7.5.1 11.3 0 4.1-.1 8.2-.3 12.2-.5 4.9-.3 9.7-.6 14.6-.8 6.1-.3 12.2-.8 18.3-1 1.8-.1 3.6.1 5.4 0 2.4-.1 4.7-.3 7.1-.3 4.9-.1 9.9-.2 14.9-.3 2.3 0 4.5 0 6.7-.1 2.8-.1 5.5-.2 8.3-.3.4 0 .8-.1 1.6-.4-1.3-1.2-2.4-1.1-3.4-1.4-1.7-.4-3.4-.7-5.1-.8-1.3 0-2.5.1-3.8.3-3.8.2-7.6.1-11.4-.7-4.2-.5-8.4-.6-12.6-.3-5 .2-10 .5-15 .8-6.9.4-13.8.6-20.7 1.4-8.3.9-16.7 1.3-25 1.1-6.8-.1-13.6.3-20.5.3-4.9 0-9.8.2-14.8.1-2.8-.2-5.4.2-8.1 1.2-.9.3-2.2.3-3.6.3-2.3 0-4.7.4-7-.1-3.1-.7-6.1-.2-9.1.1-1.3.1-2.5-.1-3.8-.1-1.5 0-2.9-.1-4.4 0-3.3.1-6.7.4-10 .5-.6-.1-1.2-.3-1.7-.5.3-1.1.8-.9 1.1-.9 2.5 0 4.9.1 7.4 0 1.8-.1 3.6-.3 5.3-.5 2.4-.2 4.9 0 7.3-.4 2.4-.5 4.7-.4 7.1.3 3.9 1.3 7.9.3 11.8-.3 2.2-.6 4.5-1 6.8-1.2 5-.1 10-.5 15.1-.2 6.6.5 13.2-.1 19.7-.2 4.2-.1 8.4.3 12.6.1 3.8 0 7.6-.5 11.4-.7 5.1-.3 10.2-.6 15.3-1 4.6-.4 9.1-.8 13.7-1.2 2.6-.2 5.2-.2 7.9-.3 3.7 0 7.4-.2 11.1-.1 3 .1 5.9.7 8.9.8 2.5.1 4.9-.2 7.4-.2 1.9-.1 3.9.1 5.9.1 2.3 0 4.6 2 7.2 2.7zm32.5 4.3c-.7.9-1.7 1.2-2.6.7-.2-.1-.4-.4-.5-.8 0-.4.3-.7.5-.9.8 0 1.7-.2 2.6 1zm-224-1.3c.8-.4 1.7-.6 2.7-.3-1 1.4-1.4 1.5-2.7.3zm218.3.8c-.1.2-.2.4-.4.5-.4 0-.8-.1-1.2-.2-.1-.3-.1-.7 0-1 .3-.6.8-.7 1.2-.2l.1.1c.1.3.2.5.3.8zm-212-1.1c.6-.4 1.3-.1 1.7.5-.9.9-.9 1-1.7-.5zm222.9 1.7c-.4 1.1-.9 1.3-1.5.8.3-1.2.8-1.1 1.5-.8z"/>
</svg>
