<svg id="doc00073520160814150808-6.psd_Bild" xmlns="http://www.w3.org/2000/svg" viewBox="0 0 236 180.8">
    <path fill="#1d1d1b" d="M156.3 88.8c-1.5-.1-3 0-4.5-.4-.7-.3-1.5-.4-2.2-.5h-1.7c-.3.1-.6.1-.9.2-.6-.1-1.2-.2-1.7-.3h-1.5c-1.1.2-2.1.2-3.1.1-1.5.3-2.9.5-4.4.2h-.1c-2.4.1-4.7 0-7.1-.1-.7.1-1.5.1-2.2 0-.7-.2-1.4 0-2 .1-.8.2-1.7.3-2.5.2-1.2-.2-2.3-.1-3.4.3-.4.1-.8.2-1.2.2-.9-.1-1.9-.3-2.8-.5-.4.1-.8.1-1.2.1 0 .5.1 1 .1 1.4 3.7 0 7.4 0 11.1.1.6 0 1.1 0 1.7-.1.6 0 1 0 1.6-.2 2.7-.7 5.4-1 8.1-.6 1.3.2 2.6.2 3.8-.3 1.1-.4 2.2-.4 3.3-.4l2.7.3h1.3c1.1 0 2.2-.1 3.3-.1.8.1 1.7.4 2.5.5 2.3.2 4.6.3 7 .4.2 0 .4-.2.8-.5-.8-.3-1.1-.4-1.5-.4l-3.3.3z"/>
    <path fill="#1d1d1b" d="M84.2 90.4c1 .5 2.1.7 3 .7.2 0 .4-.1.6-.1l.9-.3c.3.1.7.1 1 .2 1.9 0 3.7-.1 5.6-.2 1.2-.3 2.5-.4 3.7-.1 3.6-.1 7.2-.3 10.8-.2h.5c.5-.1 1.1-.2 1.8-.1 1.1.2 2.2.1 3.3-.3.4-.1.8-.3 1.2-.3l1.5.3c.5-.1 1-.1 1.6-.1h.7c0-.4-.1-.7-.1-1.1-.5.1-.9.1-1.4.1-4.6 0-9.1.1-13.7.2-2.1.5-4.2.7-6.3.4-1.2-.2-2.5-.2-3.7.3-1 .5-2.1.5-3.1.4-.9-.1-1.7-.2-2.6-.3h-1.2c-1 0-2.1.2-3.1.1-.8-.1-1.6-.5-2.4-.6-2.2-.2-4.4-.4-6.6-.5-.2 0-.3.3-.8.6.7.2 1 .4 1.3.4l3.1-.1c1.5.1 3 0 4.4.6z"/>
    <path fill="#1d1d1b" d="M151.4 88.2l-2 .1c-7.7.3-7.7-.1-15.5-.2-9 .1-18 .3-27 .6-1.7.5-3.4.5-5.1.2h-.4c-.8.1-1.7.3-2.5.4-2.8.5-7.7-.1-9.7.4-1.4.3-2.9.4-4.3.2 0 .2.1.3.1.5h2.4l15.5-.2c7.7-.3 23.2-.8 31-.3 0 0 .3 0 .4.1 7.4-.3 14.7-.6 21.9-.9l-4.8-.9z"/>
</svg>
