<svg id="Ebene_1" xmlns="http://www.w3.org/2000/svg" viewBox="0 0 236 181.5">
        <path fill="#fff" d="M150 63.4h-11.3c-5.8-.1-11.6-.3-17.5-.3-6.1-.1-12.3.2-18.4-.5-.8-.1-1.6-.1-2.4 0-6.2.8-12.2 0-18.3-1.1-.5-.1-1.1-.1-1.5.2-.5.9-.9 1.9-1.2 2.9-.2 1-.3 2-.4 3-.2 1.1-.3 2.2-.2 3.3.5 3.9.5 7.8 0 11.7-.2 1.9-.4 3.8-.5 5.7-.1 5.5-.1 11-.2 16.5 0 3.3-.1 6.7-.2 10-.1.5-.3 1-.6 1.5.6 1.9 2.1 1.4 3.4 1.4 4 .1 8.1.2 12.1.4 3.4.1 6.9.5 10.3.5 3.7.1 7.3 0 11 .1 6.6.2 13.2.6 19.8.6 4.9 0 9.9.7 14.8.2.5.2.9.4 1.2.8 1.4-1.6 2 .7 3.3.5.3-.5.5-1 .6-1.6 0-2.3-.1-4.6-.3-6.9-.5-5.7-.4-11.5.3-17.2.3-4 .4-8.1.1-12.1-.1-3.1-.5-6.2-.4-9.3 0-2.5.4-4.9 1-7.3.9-3.2.8-3.6-2.4-3.8l-1-1.9-1.1 2.7zm.6 60.5l-.5-2.5-1.8 1.9 2.3.6zm-65.2-4.6c-.4-1.1-1-.9-1.6-.7-.2.1-.3.3-.3.5.1.2.2.4.4.5l1.5-.3z"/>
        <path fill="#1d1d1b" d="M150 63.4l1.1-2.5 1 1.9c3.2.2 3.3.6 2.4 3.8-.6 2.4-1 4.9-1 7.3-.1 3.1.3 6.2.4 9.3.3 4 .2 8.1-.1 12.1-.7 5.7-.8 11.5-.3 17.2.2 2.3.3 4.6.3 6.9-.1.6-.3 1.1-.6 1.6-1.3.2-1.9-2.2-3.3-.5-.3-.4-.7-.7-1.2-.8-4.9.5-9.9-.1-14.8-.2-6.6 0-13.2-.5-19.8-.6-3.7-.1-7.3 0-11-.1-3.4-.1-6.9-.4-10.3-.5-4-.2-8.1-.2-12.1-.4-1.3 0-2.8.4-3.4-1.4.3-.4.5-.9.6-1.5.1-3.3.2-6.7.2-10 .1-5.5.1-11 .2-16.5 0-1.9.3-3.8.5-5.7.5-3.9.5-7.8 0-11.7-.1-1.1 0-2.2.2-3.3.1-1 .2-2 .4-3 .3-1 .7-2 1.2-2.9.4-.3 1-.4 1.5-.2 6.1 1.1 12.1 1.9 18.3 1.1.8-.1 1.6-.1 2.4 0 6.1.7 12.3.5 18.4.5 5.8 0 11.6.2 17.5.3 3.8-.2 7.5-.2 11.3-.2zm2.7 3.4c-.9-.8-2-1.3-3.2-1.5-1.9-.1-3.8-.2-5.7-.2-3.5.1-7-.3-10.5-.4l-14.8-.3c-1.6 0-3.2.1-4.8.1-5.6-.1-11.2-.3-16.8-.5-3.2-.1-6.3-.3-9.5-.4l-5.7-.3c-.5 1.4-.9 2.9-1.2 4.4-.2 2.2 0 4.5 0 6.7 0 2.7-.2 5.4-.3 8.1-.1 2.1-.5 4.3-.5 6.4-.1 7-.1 14-.1 21.1v5.5c1.8 0 3.3-.1 4.8 0 4.5.4 9 .9 13.6 1.1 4.8.2 9.6.1 14.4.3 6.8.2 13.6.5 20.4.7 1.8 0 3.5-.2 5.2-.2 3.4 0 6.9.2 10.3.2 1.3-.1 2.6-.2 3.9-.4v-7.9c0-4.3-.3-8.7.1-12.9.4-5.1.5-10.2.1-15.3-.1-3.3-.1-6.7-.1-10 0-1.4.1-2.9.4-4.3zm-2.1 57.1l-2.3-.5 1.8-1.9.5 2.4z"/>
        <path fill="#1d1d1b" d="M85.4 119.3l-1.5.3c-.2-.1-.4-.3-.4-.5s.1-.4.3-.5c.6-.2 1.2-.4 1.6.7z"/>
        <path fill="#fff" d="M152.7 66.8c-.2 1.4-.4 2.9-.5 4.3 0 3.3 0 6.7.1 10 .4 5.1.3 10.2-.1 15.3-.5 4.3-.1 8.6-.1 12.9v7.9c-1.3.2-2.6.3-3.9.4-3.4 0-6.9-.2-10.3-.2-1.8 0-3.5.3-5.2.2-6.8-.2-13.6-.5-20.4-.7-4.8-.1-9.6 0-14.4-.3-4.5-.2-9-.8-13.6-1.1-1.5-.1-3 0-4.8 0V110c0-7 0-14 .1-21.1 0-2.1.4-4.3.5-6.4.2-2.7.3-5.4.3-8.1 0-2.2-.2-4.5 0-6.7.3-1.5.7-2.9 1.2-4.4l5.7.3c3.2.1 6.3.3 9.5.4 5.6.2 11.2.4 16.8.5 1.6 0 3.2-.1 4.8-.1 5 .1 9.9.2 14.8.3 3.5.1 7 .5 10.5.4 1.9 0 3.8 0 5.7.2 1.3.2 2.4.7 3.3 1.5z"/>
</svg>
