<svg xmlns="http://www.w3.org/2000/svg" viewBox="0 0 236.013 181.502">
    <path d="M181.331 110.6c-.102-.476-.083-1.048-.333-1.454a333.237 333.237 0 0 0-5.017-7.884c-.365-.557-.925-.987-1.397-1.473-.486-.501-1.011-.97-1.457-1.505-1.466-1.758-1.453-4.054-2.081-6.106-.317-1.034-.192-2.272-.012-3.376.39-2.391.639-4.707.214-7.175-.667-3.87-.949-7.789-.293-11.75.567-3.428.832-6.91 1.152-10.375.336-3.647.548-7.305.874-10.952.214-2.399.619-4.783.779-7.184.113-1.708-.215-2.016-1.836-2.407-.601-.145-1.235-.247-1.849-.228-4.113.126-8.223.34-12.336.425-3.124.064-6.267.167-9.374-.084-4.98-.402-9.94-1.071-14.905-1.65-5.945-.693-11.878-1.503-17.834-2.088-4.621-.454-9.271-.904-13.903-.853-3.21.036-6.38.17-9.605-.127-6.317-.581-12.666-.811-19.001-1.199-.533-.033-1.081-.088-1.587-.246-1.642-.51-3.271-.695-5.141.016-.194 1.48-.619 3.044-.551 4.586.121 2.762.613 5.506.801 8.268.096 1.411.01 2.868-.234 4.263-.746 4.264-.918 8.517-.356 12.82.195 1.495.092 3.04.021 4.557-.104 2.23-.433 4.457-.426 6.684.009 3.139.153 6.259-1.22 9.214-.255.55-.232 1.224-.375 1.831-.568 2.407-.92 4.899-1.794 7.191-.851 2.232-2.166 4.303-3.412 6.364-1.455 2.406-2.181 5.299-4.763 6.991-.504.331-.553 1.357-.899 2.299l2.371.566 10.091-18.102c.154.299.447.603.444.904-.015 1.763.974 3.001 2.042 4.235 1.346 1.554 2.685 3.118 3.939 4.746.631.82 1.124 1.653 1.216 2.862.161 2.13 2.73 3.367 5.211 2.711v-1.685c1.903 0 3.68-.053 5.453.013 2.583.096 5.163.291 7.745.417.983.048 1.978-.061 2.952.043 4.612.49 9.212 1.112 13.83 1.526 5.166.463 10.349.737 15.522 1.126 2.407.181 4.805.601 7.211.638 8.575.135 17.152.152 25.656.213l1.217 1.746c2.085.582 2.143-1.469 3.457-2.033-.598-1.657-.083-2.954 1.055-4.177 1.329-1.429 2.586-2.953 3.679-4.568.909-1.344 1.966-2.212 3.44-2.403 3.502 4.302 7.039 8.343 9.332 13.256.451.969 1.173 1.292 2.287.573z" fill="#fff"/>
    <path d="M181.331 110.6c-1.115.719-1.836.396-2.289-.574-2.293-4.913-5.83-8.954-9.332-13.256-1.473.191-2.531 1.058-3.44 2.403-1.092 1.615-2.349 3.139-3.679 4.568-1.138 1.224-1.653 2.52-1.055 4.177-1.314.564-1.371 2.615-3.457 2.033l-1.217-1.746c-8.505-.061-17.082-.078-25.656-.213-2.406-.038-4.804-.457-7.211-.638-5.173-.39-10.356-.663-15.522-1.126-4.618-.414-9.218-1.037-13.83-1.526-.974-.103-1.97.005-2.952-.043-2.582-.126-5.162-.321-7.745-.417-1.772-.066-3.549-.013-5.453-.013v1.685c-2.48.657-5.05-.58-5.211-2.711-.091-1.209-.585-2.043-1.216-2.862-1.254-1.628-2.593-3.191-3.939-4.746-1.069-1.235-2.058-2.472-2.042-4.235.003-.301-.29-.605-.444-.904L55.55 108.558l-2.371-.566c.346-.942.394-1.968.899-2.299 2.583-1.692 3.309-4.585 4.763-6.991 1.246-2.061 2.562-4.132 3.412-6.364.874-2.292 1.226-4.784 1.794-7.191.143-.608.12-1.282.375-1.831 1.373-2.955 1.229-6.075 1.22-9.214-.007-2.227.322-4.454.426-6.684.071-1.517.174-3.062-.021-4.557-.562-4.303-.39-8.556.356-12.82.244-1.394.33-2.852.234-4.263-.189-2.762-.68-5.506-.801-8.268-.067-1.542.358-3.106.551-4.586 1.87-.71 3.5-.526 5.141-.016.506.157 1.054.213 1.587.246 6.335.387 12.684.617 19.001 1.199 3.225.297 6.395.163 9.605.127 4.632-.052 9.282.399 13.903.853 5.955.585 11.889 1.395 17.834 2.088 4.966.579 9.925 1.247 14.905 1.65 3.107.251 6.25.148 9.374.084 4.113-.084 8.224-.299 12.336-.425.615-.019 1.248.083 1.849.228 1.622.391 1.95.698 1.836 2.407-.159 2.401-.564 4.785-.779 7.184-.326 3.648-.538 7.306-.874 10.952-.32 3.465-.584 6.947-1.152 10.375-.656 3.961-.373 7.881.293 11.75.425 2.468.177 4.783-.214 7.175-.18 1.104-.305 2.342.012 3.376.628 2.052.615 4.347 2.081 6.106.446.535.97 1.004 1.457 1.505.472.486 1.031.916 1.397 1.473a330.913 330.913 0 0 1 5.017 7.884c.253.407.234.979.335 1.455zm-12.898-18.128c.682-4.583 1.503-8.757.665-13.102-.503-2.609-.759-5.299-.257-7.997.408-2.19.671-4.409.952-6.622.224-1.769.427-3.544.55-5.323.215-3.101.328-6.209.548-9.309.202-2.84.444-5.674-.004-8.645-.688-.088-1.289-.232-1.889-.23-3.849.015-7.698.094-11.547.091-3.401-.002-6.815.088-10.2-.171-4.802-.367-9.582-1.024-14.373-1.541-4.877-.526-9.8-.777-14.624-1.608-6.404-1.103-12.816-1.132-19.26-1.046-2.147.029-4.303.051-6.441-.103-8.153-.588-16.301-1.248-24.652-1.898 0 1.788-.158 3.402.029 4.976.576 4.821.821 9.627-.119 14.424-.614 3.13.074 6.24.03 9.356-.067 4.732-.391 9.46-.477 14.192-.038 2.072-.1 4.106-.81 6.071-.47 1.3-.557 2.584.043 3.844.35.072.608.148.87.176 4.973.541 9.948 1.066 14.92 1.618 2.925.325 5.838.785 8.77 1.016 3.742.295 7.498.409 11.247.625 1.375.079 2.741.244 4.514 1.236-1.765.519-2.969.318-4.156.208-3.202-.296-6.399-.646-9.603-.915-1.683-.141-3.381-.101-5.064-.238-6.055-.492-12.106-1.036-18.162-1.526-.661-.053-1.34.116-2.081.19-.111 1.948.687 3.387 1.687 4.603 2.149 2.613 4.465 5.089 6.711 7.621.484 0 .95.089 1.368-.015 1.945-.487 3.84-.405 5.826-.045 2.355.427 4.803.744 7.175.585 4.512-.303 8.892.467 13.316 1.009 3.897.477 7.808.844 11.716 1.233 1.511.15 3.029.241 4.546.331 4.371.26 8.74.591 13.116.737 6.169.206 12.342.335 18.514.358 1.948.007 3.913-.347 5.838-.708.724-.136 1.523-.616 2.004-1.18 2.666-3.124 5.244-6.322 8.151-9.858-3.425-.094-6.44-.248-9.455-.239-2.496.008-4.992.31-7.487.297-3.032-.015-6.064-.314-9.096-.316-2.137-.002-4.272.316-6.412.422-.425.021-.866-.27-1.3-.417 1.358-.509 2.652-.632 3.948-.722 3.114-.216 6.225-.494 9.343-.599 2.86-.097 5.729.07 8.59-.007 2.944-.079 5.884-.299 8.825-.484 1.146-.074 2.285-.22 3.657-.355z" fill="#1d1d1b"/>
    <path d="M168.433 92.472c-1.372.135-2.511.281-3.654.353-2.94.185-5.881.405-8.825.484-2.861.077-5.73-.09-8.59.007-3.118.105-6.23.383-9.343.599-1.296.09-2.591.213-3.948.722.434.147.874.438 1.3.417 2.14-.106 4.275-.423 6.412-.422 3.032.002 6.063.301 9.096.316 2.495.012 4.991-.289 7.487-.297 3.015-.009 6.031.144 9.455.239-2.907 3.536-5.485 6.735-8.151 9.858-.482.564-1.28 1.044-2.004 1.18-1.925.36-3.89.715-5.838.708a624.537 624.537 0 0 1-18.514-.358c-4.375-.146-8.744-.477-13.116-.737-1.516-.09-3.034-.181-4.546-.331-3.908-.388-7.819-.756-11.716-1.233-4.424-.541-8.804-1.311-13.316-1.009-2.372.159-4.82-.158-7.175-.585-1.985-.36-3.88-.442-5.826.045-.418.105-.884.015-1.368.015-2.247-2.531-4.562-5.007-6.711-7.621-1-1.216-1.798-2.655-1.687-4.603.741-.073 1.42-.243 2.081-.19 6.055.49 12.107 1.034 18.162 1.526 1.683.137 3.381.097 5.064.238 3.204.269 6.401.618 9.603.915 1.187.11 2.391.311 4.156-.208-1.774-.992-3.139-1.157-4.514-1.236-3.749-.215-7.505-.33-11.247-.625-2.932-.231-5.845-.691-8.77-1.016-4.972-.552-9.947-1.077-14.92-1.618-.263-.029-.521-.104-.87-.176-.6-1.26-.513-2.544-.043-3.844.711-1.966.772-4 .81-6.071.086-4.732.41-9.46.477-14.192.044-3.115-.644-6.226-.03-9.356.94-4.796.695-9.603.119-14.424-.188-1.573-.029-3.188-.029-4.976 8.35.649 16.499 1.31 24.652 1.898 2.139.154 4.295.132 6.441.103 6.444-.086 12.857-.056 19.26 1.046 4.824.831 9.747 1.082 14.624 1.608 4.791.517 9.571 1.174 14.373 1.541 3.385.258 6.799.168 10.2.171 3.849.003 7.698-.075 11.547-.091.6-.002 1.201.142 1.889.23.447 2.971.206 5.805.004 8.645-.22 3.1-.333 6.208-.548 9.309-.124 1.779-.326 3.554-.55 5.323-.28 2.212-.544 4.431-.952 6.622-.502 2.698-.246 5.388.257 7.997.835 4.346.014 8.52-.668 13.104zm-57.309.444c4.94 1.354 6.178 1.321 7.051-.189-2.226.142-4.328-1.007-7.051.189zm13.381.658l-.143.384c.238.174.465.471.715.492.33.028.679-.16 1.019-.256l-.058-.47-1.533-.15z" fill="#fff"/>
    <path d="M111.124 92.916c2.723-1.196 4.825-.047 7.051-.189-.873 1.51-2.111 1.543-7.051.189zm13.381.658l1.533.15.058.47c-.341.095-.689.284-1.019.256-.25-.021-.478-.318-.715-.492l.143-.384z" fill="#1d1d1b"/>
</svg>
