<svg id="Ebene_1" xmlns="http://www.w3.org/2000/svg" viewBox="0 0 236 181.5">
        <path fill="#fff" d="M76.4 64.1c.5.7.8 1.5 1.1 2.3.1 4.8.3 9.6.1 14.4-.2 5.7-.8 11.3-.2 17 .3 2.6.3 5.3.2 7.9-.1 3.3-.4 6.5-.6 9.8-.2 1.5-.5 3-.8 4.9.6.3 1.2.5 1.8.6 1.8.1 3.7.1 5.5.1H105c7.1 0 14.4.1 21.5.1 3 0 5.9.2 8.9.2 5.3.2 10.5.3 15.8.5 2.2.1 2.5-.2 2.4-2.4 0-.4-.1-.8-.1-1.2-.6-5-.6-10 0-15 .3-2.7.5-5.4.4-8.1 0-5.4-.4-10.9-.4-16.3 0-4.4.6-8.7.9-13.2-.7-.4-1.4-.6-2.2-.8-2.1-.1-4.3.1-6.4.1-4 0-8 0-11.9-.3-9.7-.9-19.4-1.1-29.2-1.1-3.2 0-6.4.1-9.6 0-5.5-.3-11-.4-16.4-.1-.8-.1-1.6.3-2.3.6zm79.2.2c.7.6 1.1 1.6 2.3.9.4-.3.6-.8.6-1.3-.1-.5-.4-1-.9-1.2-1.1-.2-1.7.6-2 1.6zm1.2 53c-.9 1.5-.4 2.2 2 2.3l-2-2.3z"/>
        <path fill="#1d1d1b" d="M76.4 64.1c.7-.4 1.5-.7 2.3-.9 5.5-.2 11 0 16.4.1 3.2.1 6.4 0 9.6 0 9.7.1 19.5.3 29.2 1.1 3.9.3 7.9.3 11.9.3 2.1.1 4.3-.2 6.4-.1.8.2 1.5.4 2.2.8-.3 4.5-.9 8.9-.9 13.2-.1 5.4.3 10.9.4 16.3.1 2.7-.1 5.4-.4 8.1-.6 5-.6 10 0 15 0 .4.1.8.1 1.2.1 2.2-.2 2.5-2.4 2.4-5.2-.2-10.5-.4-15.8-.5-3 0-5.9-.2-8.9-.2-7.2 0-14.4-.2-21.5-.1-7.2 0-14.4-.1-21.5 0-1.8 0-3.7 0-5.5-.1-.6-.1-1.2-.3-1.8-.6.4-1.9.7-3.4.8-4.9.3-3.2.6-6.5.6-9.8.1-2.6.1-5.3-.2-7.9-.6-5.7 0-11.3.2-17 .2-4.8 0-9.6-.1-14.4-.3-.6-.7-1.3-1.1-2zm4.6 18l-.6.1-1-4.2c-.5 1.6-.2 3.2-.4 4.8-.6 5.5-.8 11.1-.3 16.7.2 3.5.1 7 .1 10.5.1 2.9.1 5.9.2 8.9.7.1 1.4.3 2.1.3 4.8.1 9.6.2 14.4.2 5 .1 10.1.1 15.1.1 9.7 0 19.5 0 29.2-.1 2.2 0 4.5.2 6.7.2 1.6.1 3.3.2 5.1.4 0-1.3-.1-2.3-.1-3.4-.1-3.4-.5-6.8 0-10 .8-6.8 1.1-13.7.6-20.5-.2-4.3-.6-8.6 0-12.9.3-2 .6-4.2-.2-6.6l-6-.2c-2.9 0-5.7-.2-8.6-.2-1.8-.1-3.7-.3-5.5-.3s-3.7-1.3-5.5.2c-.2-.1-.4-.1-.6-.3-.5-.3-1.1-.5-1.6-.6-1.1-.2-2.2-.2-3.3-.2-4.3-.2-8.6-.4-12.9-.5-6.7-.1-13.4-.2-20.1-.1-2-.1-4 .1-6.1.1 1.5 1.2 3.3.1 4.8 1.2l-5.5.9v15.5zm-2.1-12.5c.9-2.3.9-2.6-.4-4.2l.4 4.2zm76.7-5.3c.3-1.1.9-1.8 2-1.5.5.2.8.7.9 1.2 0 .5-.2 1-.6 1.3-1.2.7-1.7-.4-2.3-1zm1.2 53.1l2 2.3c-2.4-.2-2.9-.9-2-2.3z"/>
        <path fill="#fff" d="M81 82.1V66.7l5.5-.8c-1.5-1.2-3.4 0-4.8-1.2 2 0 4-.1 6.1-.1 6.7 0 13.4.1 20.1.1 4.3.1 8.6.3 12.9.5 1.1.1 2.2.1 3.3.2.6.1 1.1.3 1.6.6l.6.3c1.8-1.5 3.6-.2 5.5-.2s3.7.2 5.5.3c2.9.1 5.7.2 8.6.2l6 .2c.9 2.3.5 4.5.2 6.6-.5 4.3-.2 8.6 0 12.9.5 6.9.2 13.7-.6 20.5-.4 3.3 0 6.7 0 10 0 1 0 2 .1 3.4-1.9-.2-3.5-.3-5.1-.4-2.2-.2-4.5-.3-6.7-.2-9.7 0-19.5 0-29.2.1-5 0-10.1 0-15.1-.1-4.8 0-9.6-.1-14.4-.2l-2.1-.3c-.1-3.1-.1-6-.2-8.9-.1-3.5 0-7-.1-10.5-.4-5.7-.4-11.3.3-16.8.2-1.5-.1-3.1.4-4.8l1 4.3.6-.3zm-.7 21.2c.3 0 .6-.1.8-.2.3-.9.6-1.8.6-2.7.2-.5-.1-1.1-.6-1.3-.2-.1-.4-.1-.5 0-.3 1.4-1.2 2.7-.3 4.2zm16.4-37.5c-3.3-.6-4-.5-5.1.3 1.6.7 3.5.5 5.1-.3zm-17.8 3.8l-.4-4.2c1.3 1.6 1.4 1.9.4 4.2z"/>
        <path fill="#1d1d1b" d="M80.3 103.3c-.8-1.5 0-2.8.3-4.2.5-.1 1.1.3 1.2.8v.5c-.1.9-.4 1.8-.6 2.7-.3.2-.6.2-.9.2zm16.4-37.5c-1.6.8-3.5 1-5.1.3 1.1-.9 1.8-.9 5.1-.3z"/>
</svg>
