<svg id="Ebene_1" xmlns="http://www.w3.org/2000/svg" viewBox="0 0 236 181.5">
    <path fill="#1d1d1b" d="M199.8 90h-6c-2.7-.1-5.4 0-8.1-.5-3-.6-6-.8-8.7-.3-3.4-.3-6.5-.7-9.7-.4-4.4.5-8.7.8-13.1-.2-.2 0-.3-.1-.5-.1-2.9.1-5.7.2-8.6.4-1.5.1-3 .2-4.5 0-1.2-.2-2.5 0-3.7.1-1.5.2-3 .3-4.5.2-2.2-.2-4.2-.1-6.2.2-.7.1-1.5.2-2.2.2-1.8-.1-3.9-.4-5.7-.6-.6-.1-1.2-.1-1.7-.5.1.7-.1 1.2 0 1.6.3.1.8.6 1.1.7h1.3c.8 0 1.7.2 2.5.2 3.9.1 7.9-.5 11.8.1.3 0 .5 0 .8-.1 2-.4 4-.3 6-.3 1 0 1.8 0 2.9-.2 4.9-.7 9.7-.9 14.6-.5 2.4.2 4.7.2 6.9-.2 2-.4 4-.4 6-.3 1.7.1 3.2.2 4.9.3h2.4c2 0 4-.1 6 0 1.5.1 3 .4 4.5.5 4.2.2 8.4.4 12.6.5.3 0 .7-.2 1.5-.5-1.2-.2-1.9-.3-2.6-.3z"/>
    <path fill="#1d1d1b" d="M111.5 89.7c1.5.1 3.1.4 4.5.6h.5c.6 0 1.2.1 1.7.1-.1-.5-.1-1.1-.2-1.5-.7-.2-1.4-.4-2-.7h-.1c-.8 0-1.7-.3-2.5-.3-3.7-.1-7.5.6-11.2-.1-.3 0-.6 0-.8.1-1.8.5-3.8.4-5.7.4-.9 0-1.8 0-2.8.3-4.6.9-9.2 1.1-14 .6-2.2-.3-4.5-.3-6.6.3-1.8.5-3.8.5-5.7.4-1.5-.1-3.1-.3-4.6-.4h-2c-1.8 0-3.8.1-5.7 0-1.4-.1-2.9-.5-4.3-.6-4-.3-8-.5-12-.6-.3 0-.6.3-1.4.6 1.2.3 1.8.4 2.3.4h5.7c2.6.1 5.2 0 7.7.6 2.9.8 5.7 1 8.3.4 3.2.4 6.3.9 9.4.5 4.2-.6 8.3-1 12.5.3.2 0 .3.1.6.1 2.8-.1 5.5-.3 8.2-.5 1.4-.1 2.9-.3 4.3 0 1.1.3 2.3 0 3.5-.1 1.4-.3 2.9-.4 4.3-.3 2 .3 4 .1 6-.3.8-.2 1.4-.3 2.1-.3z"/>
</svg>
