<svg xmlns="http://www.w3.org/2000/svg" viewBox="0 0 236.013 181.502">
    <path d="M63.631 33.769c0 .781-.012 1.458.002 2.135.052 2.489.043 4.981.188 7.464.151 2.581.569 5.15.663 7.731.15 4.115.145 8.236.17 12.354.007 1.25-.098 2.501-.161 3.751-.116 2.31-.253 4.619-.354 6.93-.046 1.065.027 2.137-.049 3.199-.189 2.643-.434 5.282-.698 8.423-.135.428-.524 1.371-.725 2.352-1.165 5.683-1.041 11.561-2.687 17.189-.471 1.609-.081 3.379.941 5.205l3.517-16.836c1.429 5.056 4.128 9.047 4.836 13.782l-2.5.639.719 1.487c2.837.841 5.552 1.107 8.336.526.591-.123 1.242.043 1.866.081 3.475.21 6.983.815 10.417.532 4.335-.357 8.573.33 12.856.388 1.333.018 2.664.316 3.997.327 10.478.088 20.957.098 31.435.213 5.454.06 10.906.264 16.358.438 4.542.144 9.082.339 14.091.529.574-1.638 1.257-3.687 2.011-5.709.778-2.085.019-4.59 1.867-6.878.532 2.319.98 4.211 1.398 6.109.538 2.444 1.012 4.903 1.61 7.331.104.421.685.725 1.375 1.409.084-.903.199-1.257.133-1.572-.749-3.584-1.571-7.154-2.281-10.746-.553-2.797-1.198-5.603-1.401-8.434-.235-3.278-.087-6.589-.004-9.883.099-3.931.137-7.876.53-11.782.234-2.318.672-4.566.176-6.908-.218-1.028-.092-2.144-.031-3.214.297-5.265.596-10.531.96-15.792.091-1.324.426-2.63.643-3.945.181-1.095.353-2.192.561-3.485-1.902-.391-3.467-.658-5.004-1.041-3.38-.842-6.766-1.674-10.104-2.661-1.031-.305-1.916-1.102-3.081-1.801h-7.952c-7.604.001-15.21.1-22.812-.025-7.063-.116-14.121-.543-21.184-.696-4.136-.089-8.279.181-12.417.122-3.757-.054-7.514-.28-11.264-.534-2.659-.18-5.307-.534-8.19-.834-1.42 1.147-3.311 1.468-5.314 1-1.35-.315-2.483-.196-3.443 1.13z" fill="#fff"/>
    <path d="M63.631 33.769c.961-1.326 2.093-1.445 3.44-1.13 2.003.468 3.894.147 5.314-1 2.883.3 5.531.653 8.19.834 3.75.254 7.507.48 11.264.534 4.138.059 8.281-.211 12.417-.122 7.063.153 14.121.58 21.184.696 7.602.125 15.208.026 22.812.025h7.952c1.165.699 2.05 1.496 3.081 1.801 3.338.988 6.724 1.819 10.104 2.661 1.536.383 3.101.649 5.004 1.041-.208 1.293-.38 2.39-.561 3.485-.217 1.315-.552 2.622-.643 3.945-.364 5.261-.663 10.527-.96 15.792-.06 1.071-.186 2.186.031 3.214.496 2.342.057 4.59-.176 6.908-.393 3.906-.431 7.851-.53 11.782-.083 3.294-.231 6.605.004 9.883.203 2.831.848 5.637 1.401 8.434.71 3.592 1.532 7.162 2.281 10.746.066.315-.049.669-.133 1.572-.689-.684-1.271-.988-1.375-1.409-.598-2.429-1.073-4.887-1.61-7.331-.418-1.899-.866-3.79-1.398-6.109-1.847 2.288-1.088 4.793-1.867 6.878-.754 2.022-1.437 4.07-2.011 5.709-5.009-.19-9.549-.384-14.091-.529-5.452-.173-10.904-.378-16.358-.438-10.478-.115-20.957-.126-31.435-.213-1.333-.011-2.663-.309-3.997-.327-4.284-.058-8.521-.745-12.856-.388-3.435.283-6.942-.323-10.417-.532-.623-.038-1.275-.204-1.866-.081-2.784.58-5.499.315-8.336-.526l-.719-1.487 2.5-.639c-.709-4.735-3.407-8.726-4.836-13.782l-3.517 16.836c-1.022-1.825-1.412-3.596-.941-5.205 1.647-5.628 1.522-11.506 2.687-17.189.201-.981.591-1.924.725-2.352.264-3.141.508-5.78.698-8.423.076-1.062.003-2.134.049-3.199.101-2.311.238-4.62.354-6.93.063-1.25.168-2.501.161-3.751-.025-4.118-.02-8.239-.17-12.354-.094-2.582-.512-5.15-.663-7.731-.145-2.483-.136-4.976-.188-7.464-.011-.677.001-1.355.001-2.135zm107.936 7.823c-.95-.41-1.707-.921-2.528-1.059-3.512-.594-7.034-1.147-10.57-1.577-2.301-.28-4.629-.348-6.947-.465-3.75-.188-7.505-.271-11.251-.519-5.08-.336-10.153-.787-15.229-1.186-1.421-.112-2.843-.282-4.266-.302-4.556-.065-9.113-.117-13.668-.078-1.773.015-3.542.398-5.316.418-2.934.034-5.879-.263-8.802-.108-5.045.267-9.991-.616-14.984-.928-3.996-.25-8.014-.522-11.9.023-1.096 2.069-.971 4.057-.703 6.131.378 2.922.602 5.87.741 8.814.223 4.732.34 9.47.458 14.207.02.79-.206 1.585-.281 2.38-.185 1.946-.419 3.891-.5 5.842-.092 2.215-.025 4.437-.051 6.656-.024 2.09-.71 4.241.585 6.355.822 0 1.621-.043 2.415.008 3.297.212 6.648.153 9.872.761 3.784.713 7.535 1.339 11.388 1.625 5.534.411 11.042.616 16.584.268 2.838-.178 5.7-.122 8.544-.008 2.763.112 5.519.43 8.277.665 2.048.174 4.098.328 6.141.549 1.774.192 3.539.464 5.308.7-5.838.771-11.601-.166-17.389-.371-3.918-.139-7.868-.381-11.758-.045-7.097.612-14.127-.015-21.159-.624-3.104-.269-6.157-1.091-9.245-1.586-3.285-.527-6.554-.375-10.025.389.324 1.768.409 3.463.957 4.991 1.566 4.364 3.317 8.661 5.005 12.98.129.33.263.744.526.92.704.471 1.462 1.138 2.232 1.186 2.932.185 5.879.134 8.818.212 4.558.121 9.117.242 13.672.429 2.232.092 4.457.436 6.688.484 5.179.111 10.36.118 15.541.154 4.834.033 9.669.01 14.503.078 10.111.143 20.221.333 30.332.49.43.007.863-.124 1.417-.21.885-1.646 2.002-3.205 2.589-4.944.765-2.268 1.137-4.672 1.618-7.029.141-.692.118-1.425.107-2.138-.03-2.084-.301-2.584-2.372-2.839-3.893-.48-7.813-.744-11.72-1.119-.524-.05-1.036-.228-1.554-.347l.077-.626c5.006-.322 10.047.02 15.236-.102 1.389-5.636.363-11.167 1.098-16.5.749-5.432.187-10.85.791-16.266.604-5.399.485-10.876.698-16.739zm-55.42-6.57l-.075-.59-41.751-.873c13.905 1.942 27.864 1.741 41.826 1.463zm16.756.197c8.998 2.475 18.249 1.007 27.764 2.158-2.772-1.653-5.444-1.424-8.027-1.754-6.569-.84-13.148-.257-19.737-.404zm-10.357-.22l.019-.258-1.55.071.009.187h1.522z" fill="#1d1d1b"/>
    <path d="M171.567 41.592c-.213 5.863-.094 11.339-.697 16.735-.605 5.416-.043 10.834-.791 16.266-.735 5.333.291 10.865-1.098 16.5-5.189.121-10.23-.22-15.236.102l-.077.626c.518.119 1.029.297 1.554.347 3.907.376 7.827.639 11.72 1.119 2.071.255 2.342.756 2.372 2.839.01.713.034 1.447-.107 2.138-.482 2.357-.853 4.761-1.618 7.029-.587 1.739-1.704 3.298-2.589 4.944-.554.086-.986.217-1.417.21-10.111-.157-20.221-.347-30.332-.49-4.834-.068-9.668-.045-14.503-.078-5.18-.035-10.362-.043-15.541-.154-2.232-.048-4.456-.392-6.688-.484-4.556-.187-9.114-.308-13.672-.429-2.94-.078-5.886-.027-8.818-.212-.77-.048-1.528-.715-2.232-1.186-.264-.176-.397-.59-.526-.92-1.688-4.319-3.439-8.616-5.005-12.98-.548-1.528-.633-3.222-.957-4.991 3.471-.764 6.741-.916 10.025-.389 3.088.495 6.141 1.318 9.245 1.586 7.033.608 14.062 1.236 21.159.624 3.89-.335 7.84-.093 11.758.045 5.787.205 11.551 1.141 17.389.371-1.769-.237-3.534-.509-5.308-.7-2.043-.221-4.093-.375-6.141-.549-2.758-.235-5.513-.553-8.277-.665-2.844-.115-5.706-.17-8.544.008-5.543.348-11.05.142-16.584-.268-3.853-.286-7.605-.912-11.388-1.625-3.224-.608-6.575-.549-9.872-.761-.794-.051-1.594-.008-2.415-.008-1.295-2.113-.609-4.265-.585-6.355.025-2.219-.041-4.44.051-6.656.081-1.951.315-3.896.5-5.842.075-.796.301-1.59.281-2.38-.118-4.737-.235-9.475-.458-14.207-.139-2.944-.363-5.892-.741-8.814-.268-2.073-.393-4.061.703-6.131 3.887-.545 7.904-.273 11.9-.023 4.993.313 9.94 1.196 14.984.928 2.924-.155 5.868.142 8.802.108 1.773-.021 3.543-.403 5.316-.418 4.556-.039 9.112.013 13.668.078 1.423.02 2.845.191 4.266.302 5.076.398 10.149.849 15.229 1.186 3.745.248 7.501.331 11.251.519 2.318.116 4.647.185 6.947.465 3.535.43 7.058.983 10.57 1.577.82.143 1.577.653 2.527 1.063zM148.499 91.21h-7.497c2.575 1.105 4.752 1.084 7.497 0zm-32.352-56.188c-13.962.278-27.921.478-41.826-1.463l41.751.873.075.59zm16.756.197c6.589.147 13.168-.436 19.737.404 2.583.33 5.255.101 8.027 1.754-9.515-1.151-18.766.317-27.764-2.158zm-10.357-.22h-1.522l-.009-.187 1.55-.071-.019.258z" fill="#fff"/>
    <path d="M148.499 91.21c-2.744 1.083-4.921 1.105-7.497 0h7.497z" fill="#1d1d1b"/>
</svg>
