<svg xmlns="http://www.w3.org/2000/svg" viewBox="0 0 236.013 181.502">
    <path d="M202.833 53.592c-.151 3.126-.192 5.781-.425 8.419-.51 5.777-1.486 11.54-1.573 17.319-.074 4.923.092 9.91-.847 14.684-1.303 6.622-1.549 13.31-2.05 19.964-.509 6.762-.112 13.593-.112 20.53 1.187.547 2.512 1.125 1.592 3.016l-2.738 1.596c-1.663-.283-.917-1.872-1.924-2.842-6.748-3.149-14.151-5.306-22.295-6.697.763.883 1.161 1.544 1.734 1.972a317.777 317.777 0 0 0 8.242 5.983 291.903 291.903 0 0 0 8.838 5.962c1.342.867 2.795 1.573 4.24 2.265 1.818.87 2.865 2.023 3.265 3.854-1.73 1.597-3.894.761-5.946 1.004-2.425 1.88-5.337 1.653-8.156 1.332-5.688-.648-11.357-1.367-17.1-1.376-4.196-.007-8.395-.029-12.588-.058-8.224-.058-16.443-.621-24.668-.885-5.619-.181-11.213-.63-16.874-.115-4.966.452-10.009.106-15.017.028-5.546-.086-11.09-.342-16.636-.381-3.306-.023-6.625.458-9.919.305-5.28-.245-10.537-.031-15.801.199-1.854.081-3.669.217-5.57.011-1.941-.21-3.998.651-6.424 1.126-1.344-1.393-3.505-.806-5.593-.748-.928.026-1.86-.044-3.265-.084.915-2.551 1.288-4.597 3.933-5.66 2.611-1.049 4.933-2.817 7.416-4.289l-.943-.702c.978-.796.978-.796 2.319-.206l11.937-8.145-.16-.437c-2.624.761-5.241 1.546-7.874 2.273-1.538.424-3.102.756-4.655 1.125-.777.184-1.575.3-2.329.551a64.237 64.237 0 0 0-3.991 1.476c-.894.365-1.821.727-2.597 1.281-1.354.967-2.742 1.054-4.107.803-.194-1.45-.41-2.625-.489-3.81-.053-.796.08-1.605.144-2.407.209-2.652.429-5.304.634-7.956.151-1.947.44-3.898.4-5.842-.137-6.799-.572-13.596-.537-20.392.024-4.81.635-9.617.959-14.426.102-1.516.167-3.038.173-4.557.026-6.255-1.098-12.485-.333-18.765.158-1.297-.226-2.66-.361-3.999-.934-1.137-2.219-2.153-1.433-4.063l2.901-.613c2.739 3.184 6.751 4.08 10.462 5.485 4.426 1.675 8.95 3.091 13.408 4.685.762.272 1.342.44 1.868-.295-1.893-7.584-3.698-17.388-7.452-24.476-2.344-.873-2.344-.873-2.205-2.783 2.663-.938 5.314.011 7.941.287 4.297.451 8.544.287 12.847.006 6.056-.396 12.112-1.105 18.225-.491 3.372.339 6.801.179 10.202.132 7.439-.103 14.836.419 22.25.988 5.339.409 10.736.056 16.107.042 3.214-.008 6.428-.016 9.642-.026 7.417-.023 14.847.81 22.246-.377 2.461-.395 4.937-.693 7.401-1.071 1.479-.227 2.409.344 2.947 2.032l-1.615 1.44c-1.557 4.75-3.027 9.314-4.555 13.859-.824 2.451-1.821 4.845-2.591 7.311-.327 1.048-.271 2.216-.414 3.561 1.013.113 1.716.345 2.364.239 3.706-.605 7.367-1.388 10.713-3.222a6.436 6.436 0 0 1 1.75-.639 46.625 46.625 0 0 0 11.09-3.837c.954-.479 2.236-.293 3.972-.473zM78.834 79.05l.782 35.616c4.434 1.547 8.801.747 13.012 1.392 4.229.648 8.54.843 12.823 1.036 4.203.19 8.452-.196 12.615.265 4.326.479 8.579-.176 12.854-.044 4.287.133 8.558-.08 12.835-.143 4.183-.061 8.356-.876 12.702-.477-.957 2.058-1.183 2.138-3.149 2.009-1.959-.129-3.926-.229-5.887-.194-2.322.042-4.64.299-6.963.36-3.579.093-7.16.081-10.74.147-2.77.05-5.545.298-8.309.2-7.601-.269-15.198-.634-22.793-1.045-2.578-.139-5.14-.558-7.715-.794-3.647-.334-7.295-.47-10.93.043-.495.863-.756 1.857-1.401 2.352-3.388 2.599-6.874 5.071-10.323 7.591-.686.502-1.358 1.023-2.459 1.855 3.805.534 7.006 1.174 10.301.704.526-.075 1.058-.149 1.588-.158 2.764-.049 5.527-.08 8.291-.112.624-.007 1.25-.021 1.872.016 1.42.084 2.839.296 4.256.277 2.947-.041 5.894-.316 8.839-.285 6.264.066 12.526.257 18.788.413 5.542.138 11.086.246 16.626.458 9.777.374 19.485-.417 29.171-1.61.537-.066 1.038-.416 1.879-.77-1.559-1.193-2.751-2.285-4.108-3.103-2.361-1.423-4.176-3.307-5.495-5.68l.881-3.18 1.626 2.202-.974 1.042c2.887 3.334 6.539 5.405 10.595 8.123 0-3.088-.034-5.482.008-7.874.065-3.754.271-7.507.254-11.26-.029-6.352-.26-12.704-.266-19.056-.005-5.096.276-10.193.275-15.289-.001-2.256-.387-4.513-.629-7.102l-13.357 7.358c.35 1.153.806 1.958.804 2.763-.009 7.075-.181 14.15-.127 21.224.022 2.934.46 5.866.74 8.797.178 1.864.47 3.718.591 5.584.053.817.133 1.794-.854 2.285-1.254-.799-.837-1.928-.852-2.963-.021-1.503.105-3.046-.191-4.499-.845-4.157-.942-8.292-.673-12.529.26-4.09-.109-8.224-.275-12.335-.025-.621-.443-1.225-.699-1.889 1.109-1.02.435-2.337.488-3.708-4.03 0-7.859-.014-11.688.006-1.961.01-3.923.083-5.884.119-3.568.066-7.137.087-10.703.2-2.503.08-5.004.42-7.504.403-8.863-.061-17.725-.27-26.588-.327-3.215-.021-6.431.312-9.647.308-1.279-.001-2.609-.794-3.515.862l-1.816-2.061c.715-1.105 1.701-.792 2.526-.778 3.398.059 6.815.489 10.186.243 7.608-.555 15.207-.158 22.809-.161 2.68-.001 5.369.296 8.039.165 4.191-.207 8.35-.582 12.576-.468 6.336.172 12.688-.194 19.031-.384.746-.022 1.482-.381 2.281-.6l-1.252-2.404 3.142.187c3.795-2.444 8.248-3.939 11.54-7.938-4.319 1.114-8.229.561-12.147.304-4.458-.293-8.925-.456-13.386-.716-1.506-.088-3.007-.288-4.507-.459-2.035-.232-4.063-.639-6.102-.699-6.08-.177-12.164-.222-18.246-.312-.356-.005-.721-.005-1.067.066-2.55.531-5.119.559-7.715.498-2.136-.051-4.277.239-6.417.259-1.333.013-2.674-.333-4.001-.28-4.992.199-9.979.603-14.972.719-3.474.081-6.956-.185-10.435-.287-.759-.022-1.52-.003-2.712-.003 3.247 4.117 7.029 7.32 8.46 12.144a4.196 4.196 0 0 1-1.62-1.501c-1.783-2.82-3.966-5.292-6.404-7.553-1.036-.962-2.12-1.835-3.893-2.155 0 1.087-.045 1.956.007 2.82.318 5.251.651 10.502.996 15.752.134 2.043.035 4.152.523 6.111 1.487 5.969.95 12.091 1.602 18.118.159 1.468-.517 3.009-.486 4.51.094 4.544.254 9.08-.492 13.592-.017.1.22.242.507.538.97-.451 2.051-.856 3.032-1.43 1.697-.993 3.264-2.225 5.011-3.112 2.856-1.451 3.824-3.792 3.649-6.793-.119-2.048-.568-4.123-.363-6.134.287-2.813-.156-5.525-.424-8.275-.052-.529-.184-1.07-.123-1.587.655-5.537.41-11.074.101-16.617-.061-1.09-.485-2.358.792-3.365.389.182.84.398.972.462zm91.373-16.975c.157-.287.326-.509.409-.76 1.823-5.494 3.669-10.981 5.433-16.494.651-2.035 1.144-4.124 1.624-6.208.151-.655.023-1.374.023-2.392-1.515-.025-2.823-.105-4.127-.058-3.571.129-7.142.461-10.711.438-6.257-.039-12.512-.362-18.769-.41-3.923-.03-7.849.352-11.771.32-4.196-.034-8.392-.299-12.585-.531-4.637-.256-9.289-1.001-13.898-.777-5.023.244-10-.274-14.995-.144-5.537.144-11.083.244-16.601.667-4.469.342-8.899.666-13.365.034-1.255-.178-2.556-.027-3.984-.027l7.461 24.832c2.563.238 4.868.605 7.178.637 6.426.089 12.854.044 19.281.035.622-.001 1.242-.16 1.865-.183 1.867-.066 3.735-.122 5.602-.137.709-.005 1.423.203 2.126.162 4.364-.254 8.725-.556 13.088-.828.443-.028.893.027 1.338.056 1.866.122 3.733.368 5.597.348 3.744-.039 7.486-.252 11.23-.326 1.151-.023 2.316.105 3.457.28 1.941.298 3.855.875 5.802 1.001 5.346.347 10.704.523 16.057.76.805.036 1.648-.117 2.41.071 3.579.887 7.098.415 10.825-.366zM39.908 147.369l.22.489c2.834 0 5.667.01 8.501-.002 7.329-.03 14.657-.053 21.986-.109 6.698-.051 13.396-.198 20.094-.196 4.562.002 9.123.236 13.685.275 3.312.028 6.625-.092 9.937-.148 2.495-.042 4.991-.13 7.486-.124 7.787.019 15.574.078 23.361.11 1.068.004 2.14-.112 3.205-.07 6.255.244 12.506.65 18.763.751 8.327.134 16.657.044 24.986.031.745-.001 1.49-.142 2.235-.218-8.841-5.36-16.476-12.123-24.783-17.916-4.695 1.186-9.424.919-14.089 1.867-4.905.998-10.12.577-15.199.583-4.282.004-8.563-.296-12.846-.414-5.181-.143-10.362-.28-15.544-.338-6.532-.074-13.064-.092-19.596-.074-1.677.005-3.355.37-5.028.336-2.134-.044-4.262-.454-6.394-.473-3.128-.027-6.321-.201-9.368.348-2.891.521-5.628.142-8.431-.073-3.825 2.565-8.337 3.918-11.92 7.057-3.496 3.064-7.487 5.562-11.261 8.308zm-3.316-92.125c0 3.109-.062 5.769.014 8.424.127 4.463.237 8.931.544 13.383.372 5.383-.358 10.691-.765 16.026a144.1 144.1 0 0 0-.352 6.667c-.042 1.428.028 2.862.09 4.291.165 3.838.252 7.684.562 11.511.261 3.219.479 6.387-.306 9.582-.334 1.36-.244 2.833-.282 4.256-.042 1.551-.009 3.105-.009 4.922l27.634-7.074c.113-1.635.054-3.082.336-4.459 1.252-6.103.221-12.307.898-18.431.068-.614-.049-1.25-.091-1.875-.151-2.226-.238-4.46-.483-6.676-.224-2.026-.622-4.032-.942-6.047-.182-1.144-.465-2.282-.523-3.432-.249-4.906-.384-9.818-.659-14.723-.139-2.48-.484-4.948-.741-7.468-7.837-3.81-16.376-5.516-24.925-8.877zm163.961 1.219c-3.577 1.071-6.638 1.993-9.703 2.9-1.183.35-2.456.498-3.549 1.026-3.251 1.571-6.611 2.694-10.208 3.089-.611.067-1.554.06-1.752.416-.818 1.471-2.336 1.663-3.732 2.25 0 1.564-.156 3.092.028 4.577.64 5.178.247 10.343.078 15.521-.187 5.718-.16 11.444-.188 17.167-.009 1.788.12 3.576.16 5.364.086 3.819.17 7.638.224 11.458.032 2.293.006 4.587.006 6.749l24.189 7.005c0-2.82-.115-5.399.026-7.964.231-4.192-.792-8.37-.005-12.572.344-1.837.315-3.741.575-5.598.581-4.15.53-8.349 1.345-12.5.945-4.81 1.174-9.722 1.009-14.661-.116-3.474.166-6.976.48-10.446.273-3.022.931-6.007 1.236-9.028.149-1.465-.122-2.974-.219-4.753zm-13.062 93.902l-.009-.16h-4.596l.009.16h4.596zm17.62-88.793c1.205-.232 2.454-.613 3.337.834-1.714 1.411-2.317-.429-3.337-.834zM30.71 59.609c1.322 1.284 1.322 1.284 1.304 2.953-1.291-.239-1.291-.239-1.304-2.953zm170.308 71.688l1.523-1.391c.112.831.382 1.5.188 1.688-.313.301-.932.284-1.422.402l-.289-.699zM29.255 63.646l.105 1.03c-.23.02-.652.085-.66.052-.081-.342-.096-.701-.129-1.054.228-.011.456-.019.684-.028z" fill="#1d1d1b"/>
    <path d="M170.207 62.075c-3.727.78-7.245 1.252-10.822.369-.763-.188-1.606-.036-2.41-.071-5.353-.236-10.711-.413-16.057-.76-1.947-.126-3.861-.704-5.802-1.001-1.141-.175-2.306-.303-3.457-.28-3.744.074-7.486.287-11.23.326-1.864.019-3.731-.226-5.597-.348-.446-.029-.895-.084-1.338-.056-4.363.272-8.724.574-13.088.828-.703.041-1.418-.168-2.126-.162-1.868.014-3.736.07-5.602.137-.623.022-1.243.182-1.865.183-6.427.009-12.855.054-19.281-.035-2.31-.032-4.615-.399-7.178-.637l-7.461-24.832c1.427 0 2.729-.151 3.984.027 4.465.632 8.896.308 13.365-.034 5.519-.423 11.065-.523 16.601-.667 4.995-.13 9.972.388 14.995.144 4.609-.224 9.261.521 13.898.777 4.192.232 8.388.497 12.585.531 3.923.032 7.848-.35 11.771-.32 6.257.048 12.512.371 18.769.41 3.569.022 7.14-.31 10.711-.438 1.304-.047 2.612.033 4.127.058 0 1.017.127 1.737-.023 2.392-.48 2.084-.973 4.173-1.624 6.208-1.764 5.513-3.61 10.999-5.433 16.494-.087.248-.256.471-.412.757zM39.908 147.369c3.774-2.746 7.765-5.244 11.262-8.307 3.584-3.139 8.095-4.492 11.92-7.057 2.804.215 5.54.594 8.431.073 3.046-.549 6.24-.375 9.368-.348 2.133.018 4.261.429 6.394.473 1.673.034 3.351-.331 5.028-.336 6.532-.019 13.065 0 19.596.074 5.182.058 10.363.196 15.544.338 4.283.118 8.564.418 12.846.414 5.079-.005 10.294.415 15.199-.583 4.664-.949 9.394-.681 14.089-1.867 8.307 5.793 15.942 12.556 24.783 17.916-.745.076-1.49.216-2.235.218-8.329.013-16.659.103-24.986-.031-6.257-.101-12.508-.506-18.763-.751-1.066-.042-2.137.074-3.205.07-7.787-.033-15.574-.091-23.361-.11-2.495-.006-4.991.082-7.486.124-3.312.056-6.625.176-9.937.148-4.562-.039-9.123-.274-13.685-.275-6.698-.002-13.396.144-20.094.196-7.328.056-14.657.079-21.986.109-2.833.012-5.667.002-8.501.002l-.221-.49zm143.093-5.25c-1.066.425-2.493-.091-2.253 1.907l3.066.15-.813-2.057zm-134.384 4.602l.342.602 1.102-.743-.24-.401-1.204.542zM36.592 55.244c8.549 3.36 17.088 5.067 24.924 8.876.257 2.519.603 4.988.741 7.468.274 4.905.409 9.817.659 14.723.058 1.15.342 2.289.523 3.432.32 2.015.718 4.021.942 6.047.245 2.216.332 4.45.483 6.676.043.625.159 1.261.091 1.875-.677 6.124.354 12.328-.898 18.431-.282 1.377-.223 2.824-.336 4.459l-27.634 7.074c0-1.817-.032-3.371.009-4.922.038-1.423-.052-2.895.282-4.256.785-3.195.567-6.363.306-9.582-.31-3.827-.397-7.673-.562-11.511-.061-1.429-.132-2.863-.09-4.291.066-2.224.182-4.448.352-6.667.407-5.334 1.137-10.643.765-16.026-.308-4.453-.418-8.92-.544-13.383-.075-2.654-.013-5.313-.013-8.423zm7.405 70.469c-1.247-1.005-1.267-1.034-1.82-.65-.116.08-.017.469-.017 1.035l1.837-.385zm156.556-69.25c.097 1.779.368 3.288.22 4.754-.305 3.02-.963 6.006-1.236 9.028-.314 3.47-.596 6.972-.48 10.446.165 4.939-.065 9.851-1.009 14.661-.815 4.151-.764 8.35-1.345 12.5-.26 1.857-.231 3.761-.575 5.598-.786 4.202.236 8.379.005 12.572-.141 2.565-.026 5.145-.026 7.964l-24.189-7.005c0-2.162.026-4.456-.006-6.749-.054-3.82-.138-7.639-.224-11.458-.04-1.788-.169-3.576-.16-5.364.028-5.723 0-11.449.188-17.167.17-5.178.562-10.343-.078-15.521-.184-1.486-.028-3.013-.028-4.577 1.396-.587 2.914-.779 3.732-2.25.198-.356 1.141-.349 1.752-.416 3.598-.395 6.958-1.518 10.208-3.089 1.093-.528 2.367-.676 3.549-1.026 3.064-.908 6.125-1.83 9.702-2.901zm-12.472 69.652c.42-.751 1.37-1.529.038-2.406-.789.858-.696 1.619-.038 2.406zm-11.21-53.296l1.119-1.685c-1.317.127-1.689.426-1.119 1.685zm-3.713 52.528l.097.418 1.048-.107-.212-.638-.933.327zm14.333 25.018h-4.595l-.009-.16h4.596l.008.16z" fill="#fff"/>
    <path d="M149.884 105.181c.959.689.959.689.141 1.388l-.141-1.388zm33.117 36.938l.813 2.056-3.066-.15c-.24-1.997 1.188-1.48 2.253-1.906zm-134.384 4.602l1.204-.541.24.401-1.102.743a71.738 71.738 0 0 0-.342-.603zm-4.62-21.008l-1.837.385c0-.566-.099-.955.017-1.035.553-.384.574-.354 1.82.65zm144.084.402c-.659-.787-.752-1.549.038-2.406 1.333.877.383 1.655-.038 2.406zm-11.21-53.296c-.57-1.259-.199-1.558 1.119-1.685l-1.119 1.685zm-3.713 52.528l.933-.327.212.638-1.048.107a51.141 51.141 0 0 1-.097-.418z" fill="#1d1d1b"/>
    <path d="M78.834 79.05l-.971-.466c-1.277 1.008-.853 2.275-.792 3.365.309 5.544.554 11.08-.101 16.617-.061.517.072 1.058.123 1.587.268 2.75.711 5.462.424 8.275-.205 2.011.244 4.086.363 6.134.175 3.001-.794 5.343-3.649 6.793-1.746.887-3.313 2.12-5.011 3.112-.982.574-2.062.979-3.032 1.43-.287-.296-.523-.438-.507-.538.745-4.512.585-9.048.492-13.592-.031-1.501.645-3.043.486-4.51-.652-6.027-.115-12.149-1.602-18.118-.488-1.959-.389-4.068-.523-6.111-.345-5.25-.677-10.5-.996-15.752-.052-.863-.007-1.733-.007-2.82 1.772.319 2.856 1.193 3.893 2.155 2.437 2.261 4.621 4.734 6.404 7.553a4.19 4.19 0 0 0 1.62 1.501c-1.432-4.824-5.214-8.027-8.46-12.144 1.193 0 1.953-.019 2.712.003 3.479.101 6.961.368 10.435.287 4.993-.117 9.979-.52 14.972-.719 1.328-.053 2.668.293 4.001.28 2.14-.02 4.282-.31 6.417-.259 2.596.062 5.165.033 7.715-.498.345-.072.711-.072 1.067-.066 6.082.091 12.166.136 18.246.312 2.039.059 4.067.467 6.102.699 1.501.171 3.001.371 4.507.459 4.461.26 8.928.423 13.386.716 3.918.257 7.828.81 12.147-.304-3.292 3.999-7.744 5.494-11.539 7.937l-3.142-.187 1.252 2.404c-.799.219-1.535.578-2.281.6-6.343.19-12.695.555-19.031.384-4.226-.114-8.385.261-12.576.468-2.67.132-5.359-.166-8.039-.165-7.602.003-15.2-.394-22.809.161-3.371.246-6.789-.184-10.186-.243-.825-.014-1.81-.327-2.526.778l1.816 2.061c.907-1.656 2.236-.864 3.515-.862 3.215.003 6.432-.329 9.647-.308 8.863.057 17.725.266 26.588.327 2.5.017 5.001-.324 7.504-.403 3.566-.113 7.136-.134 10.703-.2 1.961-.036 3.923-.109 5.884-.119 3.829-.019 7.658-.006 11.688-.006-.053 1.371.621 2.688-.488 3.708.256.664.674 1.268.699 1.889.165 4.111.535 8.245.275 12.335-.269 4.237-.172 8.372.673 12.529.295 1.453.17 2.996.191 4.499.014 1.035-.403 2.164.852 2.963.987-.491.907-1.468.854-2.285-.122-1.866-.414-3.721-.591-5.584-.279-2.93-.717-5.863-.74-8.797-.054-7.074.118-14.149.127-21.224.001-.804-.455-1.609-.804-2.763l13.357-7.358c.242 2.589.629 4.846.629 7.102.002 5.096-.279 10.193-.275 15.289.006 6.352.237 12.703.266 19.056.017 3.753-.189 7.506-.254 11.26-.041 2.393-.008 4.787-.008 7.874-4.057-2.718-7.708-4.788-10.595-8.123l.974-1.042-1.626-2.202-.881 3.18c1.319 2.373 3.134 4.258 5.495 5.68 1.357.818 2.549 1.91 4.108 3.103-.84.354-1.342.704-1.879.77-9.687 1.193-19.394 1.984-29.171 1.61-5.54-.212-11.083-.32-16.626-.458-6.262-.156-12.525-.347-18.788-.413-2.945-.031-5.892.244-8.839.285-1.417.02-2.837-.193-4.256-.277-.622-.037-1.248-.023-1.872-.016-2.764.032-5.528.063-8.291.112-.53.009-1.061.083-1.588.158-3.295.47-6.496-.17-10.301-.704 1.101-.832 1.773-1.353 2.459-1.855 3.449-2.52 6.935-4.992 10.323-7.591.645-.495.906-1.489 1.401-2.352 3.634-.513 7.283-.378 10.93-.043 2.574.236 5.136.655 7.715.794 7.594.41 15.192.776 22.793 1.045 2.764.098 5.538-.15 8.309-.2 3.58-.065 7.161-.053 10.74-.147 2.323-.061 4.64-.318 6.963-.36 1.961-.035 3.928.066 5.887.194 1.965.129 2.191.049 3.149-2.009-4.346-.4-8.519.416-12.702.477-4.278.062-8.548.276-12.835.143-4.275-.133-8.527.523-12.854.044-4.163-.461-8.413-.075-12.615-.265-4.284-.193-8.594-.389-12.823-1.036-4.21-.645-8.578.155-13.012-1.392-.262-11.824-.52-23.588-.784-35.611zm71.05 26.131l.141 1.388c.818-.699.818-.699-.141-1.388z" fill="rgba(29,29,27,0.45)"/>
</svg>
