<svg id="Ebene_1" xmlns="http://www.w3.org/2000/svg" viewBox="0 0 236 181.5">
        <path fill="#fff" d="M171 118.1v-1.2c-.3-1.2-.5-2.4-.7-3.7-.2-3-.1-5.8-.3-8.8-.2-2.8-.7-5.5-.9-8.2-.1-1.7 0-3.6.2-5.3.1-1 .5-2 .5-3.1.1-2.5 0-5.2-.1-7.9 0-3.2-.3-6.3.5-9.4.3-1.2-.6-2-1.6-2.3-1.1-.4-2.1-.6-3.4-.7-2.4-.2-4.9-.1-7.2-.5-5.7-1-11.4-2.4-17.3-2.9-1.5-.1-3.1-.3-4.6-.4-.9 0-1.7-.3-2.3-1-.7-.9-1.9-1.4-3.1-1.2-2 .2-4.2.3-6.2.5-4 .3-8 .7-11.9.8-7.9.2-15.8.1-23.7.9-2.9.3-5.7-.1-8.6.3-4.1.5-8.3.6-12.4.4-.6-.1-1.2.1-1.6.5-.4 1-1.1 1.9-.9 3.4.6 3.3 1 6.6 1.1 9.9.3 3.9.3 7.8.5 11.7.1.9 0 1.7-.3 2.7-.4 1.4-.5 2.9-.3 4.3.6 5.3 1.7 10.6.2 16-.3.8.2 1.7 1 1.9.1 0 .2 0 .3.1 1.9.5 3.9 1 5.8 1.6 5.2 1.5 10.5 3.1 15.7 4.7 2.9.9 5.6 2 8.6 2.9 3.2.9 6.4 1.6 9.7 2.5 1.6.3 3.2 1.1 4.5 2.2.7.5 1.6.7 2.4.5 2.9-.6 5.6-1.5 8.5-2 6.8-1.3 13.7-2.4 20.4-3.7 1.9-.4 3.8-.8 5.6-1.4 3.5-1 6.8-2.2 10.3-3.1 2.9-.6 5.6-1.5 8.6-1.2l3 .2z"/>
        <path fill="#1d1d1b" d="M171 118.1l-3.2-.3c-3-.3-5.8.6-8.6 1.2-3.5.8-6.8 2-10.3 3.1-1.8.5-3.8 1-5.6 1.4-6.8 1.2-13.7 2.3-20.4 3.7-2.9.5-5.6 1.5-8.5 2-.8.2-1.7 0-2.4-.5-1.2-1.1-2.8-1.9-4.5-2.2-3.2-.9-6.4-1.6-9.7-2.5-2.9-.8-5.6-2-8.6-2.9-5.2-1.6-10.4-3.2-15.7-4.7-1.9-.6-3.9-1-5.8-1.6-.8-.1-1.4-.9-1.3-1.7 0-.1 0-.2.1-.3 1.5-5.3.4-10.7-.2-16-.3-1.4-.2-3 .3-4.3.3-.8.4-1.7.3-2.7-.1-3.9-.2-7.9-.5-11.7-.2-3.4-.6-6.6-1.1-9.9-.3-1.4.4-2.3.9-3.4.4-.4 1.1-.6 1.6-.5 4.2.2 8.3.1 12.4-.4 2.9-.4 5.7 0 8.6-.3 7.9-.8 15.8-.7 23.7-.9 4-.1 8-.5 11.9-.8 2-.1 4.2-.2 6.2-.5 1.1-.2 2.3.2 3.1 1.2.5.7 1.4 1.1 2.3 1 1.5.1 3.1.3 4.6.4 5.8.4 11.5 1.8 17.3 2.9 2.3.4 4.9.3 7.2.5 1.1.1 2.2.3 3.4.7 1 .4 1.9 1.1 1.6 2.3-.7 3.2-.5 6.3-.5 9.4 0 2.5.1 5.2.1 7.9 0 1-.5 2-.5 3.1-.2 1.7-.3 3.6-.2 5.3.2 2.8.7 5.5.9 8.2.2 3 .1 5.8.3 8.8.2 1.2.4 2.4.7 3.7.2.5.1.9.1 1.3zm-5.6-48.9c-.4 0-.9-.1-1.3-.1-1.5 0-3.1 0-4.6-.2-4.5-.7-9-1.6-13.5-2.2-3.9-.5-7.9-1-11.8-1.2-1.7 0-3.5-.5-5.1-1.2-.4-.2-.9-.4-1.3-.4-2.4.1-4.9.2-7.3.4-1.9.1-3.9.3-5.8.3-6 .1-12 .1-18 .2-5.3.1-10.6.5-15.8.7-1 0-2.1.2-3.2.3-1 .1-2 .1-3.1.2 1.2.5 2.5.9 3.9 1 2.5.2 5.2.4 7.8.9 3.6.8 7.1 1.3 10.8 1.5 1.6 0 3.1.8 4.1 2-.4.1-.8.1-1.2.1-2.3-.4-4.6-.8-6.9-1.1-2.5-.4-5.1-.8-7.8-1.1-3.3-.4-6.4-.7-9.7-1-1.6-.2-3.3-.2-5-.3-.2 0-.3-.1-.5-.2-1.4-1-1.9-.8-2.1.7 0 .6 0 1.3.1 1.9.1 2 .3 4.1.4 6.1.1 3.8.3 7.6.3 11.4 0 2-.2 4.1-.2 6.1-.1 1-.1 2 0 3.2.2 3 .6 6 .9 9 .1 1.7.1 3.5.2 5.3 2.2-.5 2.5-.3 2.1 2 1 .4 2 .9 3.2 1.2 6.6 2 13.2 4.1 19.8 6.1 3.8 1.1 7.6 2.1 11.4 3.3.3.1.6.1.9 0 1.1-1 1.8-.6 2.2.7.3.4.7.6 1.1.5.3-.3.6-.7.6-1.1.1-.5-.1-1.1 0-1.7.2-.7.5-1.4.8-2l2.9 6.6c.7 0 1.4-.1 2.2-.2 2.8-.6 5.5-1.3 8.3-1.8 3.9-.7 7.6-1.3 11.5-2 4.8-.9 9.7-1.4 14.3-3.1 5.1-1.8 10.5-2.7 15.9-3.8.5-.1 1-.2 1.5-.4v-3.1c0-3.8.1-7.6-.2-11.4-.4-4.6-1.2-9.1.2-13.6.2-.9.2-1.7.1-2.7-.1-3.4-.1-6.6-.2-10 0-1.1-.2-2.2-.3-3.4-.5-.1-1.1-.1-1.6-.1l-13.2 1.2c-6.7.6-13.5 1.2-20.2 1.6-6 .4-12 .6-17.9.9-1.1.1-1.5-.7-2-1.5.2-.3.5-.5.8-.6 17-.4 34.4-1.7 51.5-3.9z"/>
        <path fill="#fff" d="M165.4 69.1c-17.2 2.2-34.5 3.5-51.8 3.9-.3.1-.6.4-.8.6.5.8.8 1.5 2 1.5 6-.3 12-.5 17.9-.9 6.7-.5 13.5-1.1 20.2-1.6l13.2-1.2c.6 0 1.1 0 1.6.1.1 1.1.3 2.2.3 3.4.1 3.4.2 6.6.2 10 .1.9.1 1.8-.1 2.7-1.3 4.5-.6 9-.2 13.6.4 3.8.2 7.6.2 11.4v3.1c-.5.1-1 .3-1.5.4-5.3 1-10.7 1.8-15.9 3.8-4.6 1.6-9.5 2.1-14.3 3.1-3.9.8-7.6 1.3-11.5 2-2.8.5-5.5 1.2-8.3 1.8-.7.1-1.4.2-2.2.2l-2.9-6.6c-.3.7-.6 1.3-.8 2-.1.5.1 1.1 0 1.7 0 .4-.2.8-.6 1.1-.4 0-.9-.2-1.1-.5-.5-1.3-1.1-1.7-2.2-.7-.3.1-.6.1-.9 0-3.9-1-7.6-2.1-11.4-3.3-6.6-2-13.3-4.1-19.8-6.1-1.1-.3-2.1-.8-3.2-1.2.4-2.3.1-2.5-2.1-2 0-1.8 0-3.6-.2-5.3-.2-3-.6-6-.9-9-.1-1-.1-2 0-3.2.1-2 .3-4.1.2-6.1 0-3.8-.2-7.6-.3-11.4-.1-2-.3-4.1-.4-6.1-.1-.6-.1-1.3-.1-1.9.2-1.5.7-1.7 2.1-.7.1.1.3.2.5.2 1.6.1 3.4.2 5 .3 3.3.3 6.4.6 9.7 1 2.5.3 5.2.7 7.8 1.1 2.3.4 4.6.7 6.9 1.1.4 0 .8 0 1.2-.1-1-1.2-2.4-2-4.1-2-3.7-.2-7.2-.8-10.8-1.5-2.5-.4-5.1-.7-7.8-.9-1.3-.1-2.7-.5-3.9-1 1-.1 2-.1 3.1-.2 1-.1 2.1-.3 3.2-.3 5.3-.3 10.6-.6 15.8-.7 6-.2 12-.1 18-.2 1.9 0 3.9-.2 5.8-.3 2.4-.1 4.9-.3 7.3-.4.5 0 .9.2 1.3.4 1.5.8 3.3 1.2 5.1 1.2 4 .2 7.9.6 11.8 1.2 4.5.6 9 1.5 13.5 2.2 1.5.1 3.1.2 4.6.2.7 0 1.2.1 1.6.1zm-55.5 51c1.7-.2 2.2-.6 2.1-2 0-1-.2-2-.2-3.2-.1-4.1-.3-8.2-.1-12.2.4-8.9 1.5-17.8.3-26.7-.1-.9.5-2.2-1-2.2-1.2 0-.9 1.4-.9 2.1 0 3 .4 5.8.4 8.8-.1 6.2-.1 12.4-.6 18.7-.4 5.5.2 10.9-.1 16.3-.1.2-.1.4.1.4zm-2-48.3l-.1.3c.2.2.4.3.6.4.3 0 .6-.1.9-.3l-.1-.4h-1.3z"/>
        <path fill="#1d1d1b" d="M109.9 120.2c-.1-.1-.2-.2-.2-.4.3-5.4-.3-10.9.1-16.3.5-6.2.5-12.4.6-18.7 0-3-.4-5.8-.4-8.8 0-.8-.3-2.1.9-2.1 1.5-.1.9 1.3 1 2.2 1.2 9 .1 17.8-.3 26.7-.2 4.1 0 8.2.1 12.2 0 1 .2 2 .2 3.2.2 1.4-.2 1.8-2 2zm-2-48.3l1.3.1.1.4-.9.3c-.2-.1-.4-.2-.6-.4l.1-.4z"/>
</svg>
