<svg id="Ebene_1" xmlns="http://www.w3.org/2000/svg" viewBox="0 0 236 181.5">
    <path fill="#fff" d="M212.4 95l-15.7-1.6-11.1-6.3-11.3-8.3-15.5-3.4-25.6 4.7-26.3 2.3-32.9.8L38.9 85l-14.5-1.6 12.9 3.7 8.2 3.8 12.2 8.7 13.6 1.4 17.5-2.1 15.5-3.4 20.4-.5h27.7l25-1 18.9 1.3z"/>
    <path fill="#1d1d1b" d="M224.9 96h-6c-4.7 0-9.4.2-14.2.1-2.8 0-5.6-.3-8.4-.8-2.9-.5-5.8 0-8.6-.1h-2.4c-1.4 0-2.9 0-4.3.1-1.2.2-2.5.4-3.7.3-1.7-.2-3.5.3-5.1.3-1.5 0-3-.3-4.5-.2-1.5.1-3.1.4-4.6.6-1.2.1-2.4 0-3.6 0-2.2 0-4.5.1-6.7.1-1.6 0-3.2-.2-4.8-.3-.4 0-.9-.2-1.4-.2-5.3-.1-10.6-.2-15.8-.4-4.8-.2-9.6 0-14.3.5-2.4.2-5 0-7.4.3-5 .6-10.1 1.5-15.1 2.3-3 .5-6.1 1-9.1 1.5h-.4c-3.6 1.5-7.4.6-11.1 1.8-1.7.5-3.5.1-5.1 0-2.2-.2-4.3-.5-6.5-.9-1.4-.3-2.8-.8-4.2-1.4-1.3-.6-2.6-1.2-3.8-2-.9-.5-1.8-1.2-2.5-2-2.5-2.9-5.7-3.7-8.6-5.1-1.2-.6-2.4-1.1-3.7-1.7.1-.7.5-1.1.9-1h.1c1.4.5 2.7 1.1 4.1 1.6 1 .5 2.1.9 3.1 1.5 1.3.6 2.5 1.4 3.7 2.4 1.9 1.7 3.9 3.1 6.1 4.1 3.7 1.9 7.6 2.7 11.5 2.4 4.9-.3 9.8-.6 14.6-1.1 3.7-.4 7.5-1.3 11.3-1.9 5.7-1 11.4-2.1 17.1-2.3 4.4-.2 8.9-.6 13.3-.6 4.7-.1 9.4.1 14.1.2 6.8.1 13.5.5 20.2.4 6.4-.1 12.9-.6 19.3-1 2.7-.1 5.4-.4 8.1-.4 3.4 0 6.8-.3 10.2.3 4.6.8 9.2.5 13.8.5l9.5.1h1.7c1.3 0 1.9.3 3.2 2zM19.4 83.4h5c2.7 0 5.5-.1 8.3-.2h.7c4.1.7 8.2.8 12.4.5 3.9-.2 7.9 0 11.7-.1 3.2-.1 6.6-.3 9.8-.4 1.7 0 3.5.2 5.2.1 2.3-.1 4.6-.3 6.9-.4 3.9-.2 7.7-.2 11.5-.4 6.4-.3 12.8-.5 19.2-1 4.8-.3 9.7-.8 14.5-1.4 5-.5 10.1-.9 15.1-1.9 3.8-.7 7.6-1.1 11.5-1.6 2-.2 4-.5 6-1 2.7-.5 5.3-.4 7.9.2 2.1.4 4.2.9 6.3 1.4 1.6.3 3.1 1 4.5 2-.4.3-.7.5-1.2.6-.6-.1-1.2-.4-1.9-.5-3.6-.9-7.2-1.9-10.9-2.5-2-.2-4-.1-6 .3-3.5.4-6.8.8-10.3 1.4-3.2.5-6.3 1.2-9.4 1.7-2.7.4-5.5.6-8.3.9-5.8.6-11.5 1.3-17.2 1.7-5.1.4-10.2.4-15.3.6-4.1.2-8.3.6-12.4.8-2.1.1-4.2.1-6.2.1h-7.6c-1.7 0-3.3.3-5 .3-4 0-8.1-.1-12.1 0-3.9.1-7.7.3-11.6.4-1.7 0-3.5-.1-5.2-.2-2.6 0-5.2.2-7.8-.2-2.7 0-5.5.2-8.1-1.2zM189.6 89c-3.7-1.4-7.2-3.7-10.4-6.8l.1-.6c.6.2 1.2.5 1.9.9 2.7 1.8 5.3 3.6 7.9 5.4.2.3.4.7.5 1.1zM33.5 87.6H32c.7-1.3.7-1.3 1.5 0z"/>
</svg>
