<svg id="Ebene_1" xmlns="http://www.w3.org/2000/svg" viewBox="0 0 236 181.5">
    <path fill="#1d1d1b" d="M88.6 100.4c0-.5.3 4.3.7 2.8-.6-.8-1.1-.9-1.9-1-1.6-.2-3.3-.5-4.9-.6-.6 0-1.3.1-1.9.2-1.7.3-3.4.4-5.3.2-1.3-.1-2.6 0-3.9.2-1 .1-2.1.3-3.1.1-1.3-.2-2.6-.1-3.9 0-2.4.2-4.9.3-7.3.4-.1 0-.3-.1-.4-.1-3.7-1-7.4-.7-11.1-.2-2.7.3-5.4-.1-8.3-.4-2.3.5-4.9.3-7.4-.3-2.3-.5-4.6-.4-6.9-.5h-5.1c-.6 0-1.1-.1-2.1-.3.7-.3 1-.5 1.3-.5 3.6.1 7.1.3 10.7.5 1.3.1 2.6.4 3.9.5 1.7.1 3.4 0 5.1 0h2c1.4.1 2.7.2 4.1.3 1.7.1 3.4.1 5.1-.3 2-.4 4-.4 6-.2 4.1.4 8.3.2 12.4-.5.9-.2 1.6-.2 2.4-.2 1.7 0 3.4.1 5.1-.3.3-.1.4-.1.7-.1 3.3.6 6.7 0 10 .1.7 0 1.4.2 2.1.2.6.1 1.1 0 1.9 0m55.7-.1c0-.5-.3 4.7-.9 3 .6-.9 1.2-1 1.9-1.1 1.6-.2 3.4-.5 5.2-.7.7 0 1.3.1 2.1.2 1.9.3 3.9.4 5.8.2 1.3-.1 2.8 0 4.2.2 1.2.1 2.4.3 3.4.1 1.3-.2 2.8-.1 4.2 0 2.5.2 5.2.3 7.9.4.3 0 .4-.1.6-.1 4-1.1 8-.8 12-.2 3 .3 5.9-.1 9-.4 2.5.5 5.2.3 8-.3 2.4-.5 4.9-.4 7.4-.5h5.5c.4 0 1-.1 2.2-.3-.7-.3-1-.5-1.3-.5-3.9.1-7.7.3-11.6.5-1.3.1-2.8.4-4.2.5-1.8.1-3.7 0-5.5 0h-2.1c-1.5.1-3 .2-4.4.3-1.8.1-3.7.1-5.5-.3-2.1-.4-4.3-.4-6.4-.2-4.6.4-9 .2-13.5-.5-.9-.2-1.8-.2-2.7-.2-1.8 0-3.7.1-5.5-.3-.1-.1-.4-.1-.7-.1-3.6.7-7.3 0-10.8.1-.7 0-1.6.2-2.4.2-.5.1-1.1 0-1.9 0"/>
    <path fill="#fff" d="M130.2 65.9l12.5-4 5.6 1.2 19 7.4s4.1 1 3.4 1.4-10.4 3.2-11.4 3.5-6.2 1.6-7.9 1.4-15.2-8.9-16.2-9-5-1.9-5-1.9z"/>
        <path fill="#1d1d1b" d="M168.9 86.5c.3.4.7.6 1 1 .8 1.2.5 2.3-.9 2.4-.6.1-1.2 0-1.8-.3-1-.6-2.3-.8-3.4-.4-.6.1-1.1.1-1.7.1l-8.6.7c-.3 4.7-1 9.2-.7 13.6.4 6.2-.2 12.4-.1 18.6 0 3.1-.7 6.2 1.2 9-.6.8-1.7 1.1-2.6.5-1.6-.7-3.4-.9-5.1-.5-1.2.2-2.4.2-3.6.2-4.4.1-8.8.1-13.2.3-5.7.2-11.4.8-17.2.3-2.9-.2-5.7-.2-8.6 0-1.7 0-3.5.3-5.2.4-3.1.2-4.7-.8-5.6-3-1.2-2.9-2.6-5.7-4.1-8.5-1.1-2.1-2.4-4.2-4.8-5.3-.4-.3-.6-.9-.7-1.4 0-2.3.2-4.5.3-6.8.3-7.4.6-14.8 1-22.8-2.2 1.4-4.7 1.2-5.7 3.5-.2.4-1.2.4-2 .7 0-.2-.1 0-.1.1-.1.8-.4 1.4-1.3 1.3-.8 0-1.4-.6-1.5-1.4 0-1.6-.9-2.9-1.7-4.2-1.3-2.3-2.3-4.8-4.2-6.8-1.6-1.6-3-3.4-4.5-5.1-.7-.8-1.6-1.7-.8-3.2 3 .8 5.9-1.4 9.2-.4l9.4-2.6c-.9-1-1.8-2.1-2.7-3.1-.9-1-1.9-1.9-2.9-3.2-1.1-1.3-.6-2.1.9-2.2 1.2-.1 2.4-.1 3.6-.2 3.3-.2 6.7-.4 10-.7 3.5-.3 7-1 10.5-1.1 4.9-.2 9.7 0 14.6-.1 1.5 0 3-.3 4.5-.4 1.4-.1 2.4 0 3.1 1.6.4 1.2 1.8 2.2 2.7 3.3 1.1 1.4 2.1 2.8 3.5 4.5 3.3-.9 6.9-1.9 10.5-2.9.9-.2 1.6-.7 2.5-.9s1.8-.3 2.2 1.3l-11.8 3.4c.7.6 1.5.9 2.4 1.1.4.1.9.2 1.3.4 5.5 3 10.9 6 15.8 8.7 2.6-.5 4.4-1 6.2-1.3 3.3-.6 6.5-1.1 9.3-2.8-1.8-.8-3.7-1.7-5.5-2.4-5.1-1.9-10.2-3.7-15.2-5.6-.2 0-.3-.1-.5-.2-.8-.5-1.1-1.5-.6-2.2.8.1 1.6.2 2.3.5 2.3 1.1 4.6 2.5 7.1 3.4 5.3 2 10.6 3.7 15.9 5.1 2.1.6 4.3 1.2 6.5 1.9.4.3.7.7.9 1.1-.4.3-.8.6-1.3.8-.4 0-.8-.2-1.1-.4-.4-.3-1-.5-1.5-.6-1.8 0-3.6.1-5.4.4-3.9.7-7.6 1.7-11.5 2.6-.8.3-1.7.5-2.9.8.6.4.8.6 1.1.8l9.9 6.3c.8.6 1.8.9 3.2 1.6-.1.3 0 .7 0 .7zm-19.6 43.3c1.6-2.5 1.4-5.1 1.5-7.3.2-4.7.3-9.4.4-14.1 0-1.6-.3-3.3-.3-5 .1-3.4.3-6.9.6-10.4 0-.7-.1-1.4 0-2.5-2 .1-3.7.3-5.4.5-1.5.1-3 .4-4.5.5-6.8.6-13.7 1-20.4 1.6-3.8.3-7.5.9-11.1 1.3-1 .1-2.1.1-3.1 0-.4-.1-.9-.3-1.2-.6-.9-1.1-1.9-2.2-2.7-3.3-.6-.7-1.2-1.5-1.6-2.3-.4-1.3-1.2-2.4-2.2-3.1-.8-.6-1.6-1.2-2.5-1.8-.6 2.4.3 5.3.2 8.1-.1 2.8.1 5.6.1 8.5s-.4 5.7-.6 8.9c-1.3-1-1.1-2.1-1.1-3-.1-1.7.3-3.4.2-5.2-.1-4.9-.4-9.7-.6-14.6 0-1.2-.1-2.4-.2-3.9l-9.4 2.5c0 2.5.1 5.1.4 7.6.5 3-.1 5.7 0 8.8 0 3.1-.6 6.1-.2 9.1.3 2.5.6 5.1 2.6 7.5 2.4 2.9 4.1 6.5 6.1 9.7.1.3.3.6.5 1 .9-.4-.2-2.1 1.3-1.8l.2.2c.9 3.4.9 3.5 4.6 3.7 8.6.5 17.2.5 25.8 0 6.6-.5 13.3-.4 19.9-.6h2.7zm16.3-42.3c.8-1.2-.1-1.6-.7-1.9-1.9-1.2-4-2.5-5.8-3.7-1.7-1.2-3.6-2.2-5.5-3.4l-1.8 1.4c-1.6-1.7-3.8-1.5-5.8-1.5-5 0-10-.7-15 0-4.1.6-8.4.6-12.6 1-4.7.3-9.4.8-14.1 1.2-1 .1-2.2 0-3.1 0s-1.8.1-3.1.2c.6 1 .9 1.9 1.5 2.3 1.8 1.3 3.2 3 4.3 4.9 1 1.3 2.9 1.6 3.3 3.3 1.1.2 2.1.8 3.4.7 4.2-.4 8.5-.6 12.8-1 4.2-.3 8.3-.7 12.4-1.1 4.5-.4 9-.9 13.4-1.3 1-.1 2.1.1 3.1 0 1.4-.2 2.8-.5 4.2-.7 1.1-.2 2.2-.3 3.3-.4h5.8zm-36.9-10.6c1-2.9.4-5.7.4-8.4v-.2c-.1-.7-.7-1.2-1.4-1.1-3.4 0-6.9-.2-10.3 0-5.6.4-11 1.6-16.6 1.4-1.2 0-2.4.3-3.6.3-3.3.1-6.3.1-9.3.1h-3.1l1.5 1.2c3.6 2 6.4 5 9.1 8 .9.9 1.8 1.6 3.1 1.1.7-.2 1.4-.3 2.1-.3l22.1-1.6 6-.5zm-7.9-19.3c-1.8.1-4 .4-6.2.5-2.5.1-4.9 0-7.4 0-2.7 0-5.4-.1-8.1 0-6.8.4-13.5 1.7-20.4 1.6-.4 0-.7.1-1.1.2l5.5 6.6c4.7 1.5 9.7 1.3 14.6.8 4.7-.5 9.4-.8 14.1-1.2 3.6-.3 7.3-.7 10.9-1 1.4-.1 2.8 0 4.2 0l.3-.6-6.4-6.9zM94.5 79.8c-.7-.9-1.4-1.6-2.1-2.2-.4-.3-.8-.6-1.1-1-2.2-3.1-5.5-4.9-8.5-7.1-.7-.5-1.5-.8-2.4-.7-2.1.1-4.2.6-6.1 1.5-1 .4-2 .9-3.1.1-.3-.1-.7-.1-1.1 0-1.6.5-3.2 1.1-5 1.7 4.3 4.2 7.8 9.1 10.5 14.4.8-.3 1.3-.5 1.9-.7 1.7-.5 3.4-1 4.9-1.6 1.1-.3 2.1-.8 3.1-1.2 1.6-.8 3.2-1.3 5-1.7 1.3-.2 2.7-.7 4-1.5zm54.2-3.1c-6-3.5-11.7-7.2-18.1-9.3-1.2 1.5-.5 3-.4 4.5s.4 3 .6 4.5l17.9.3zm-64.2 45.5c-.9 0-1.5-.7-1.6-1.5v-.1c0-.7.5-1.3 1.2-1.3h.2c.8 0 1.4.6 1.5 1.4v.2c.1.7-.5 1.3-1.3 1.3-.1 0-.1 0 0 0z"/>
        <path fill="#1d1d1b" d="M71.9 89.1c-.3.4-.6.7-1.1.9-.3-.1-.6-.4-.7-.7.3-.6.6-1.1.9-1.5.4.3.7.7.9 1.3zm98.6-5.9l-.7 1.7c-.1-.5-.1-1-.2-1.5.1-.2.4-.4.6-.5l.3.3z"/>
        <path fill="#fff" d="M146.6 129.6c-6.7.2-13.3.1-19.9.6-8.6.5-17.2.5-25.8 0-3.6-.1-3.6-.2-4.6-3.7 0-.1-.1-.2-.2-.2-1.5-.2-.4 1.4-1.3 1.8-.1-.3-.3-.7-.5-1-2-3.3-3.7-6.8-6.1-9.7-1.9-2.3-2.3-4.9-2.6-7.5-.3-3 .1-6.2.2-9.1s.6-5.8 0-8.8c-.3-2.5-.4-5.1-.4-7.6l9.4-2.5c.1 1.5.1 2.7.2 3.9.2 4.9.4 9.7.6 14.6.1 1.7-.2 3.4-.2 5.2-.1.9-.3 2 1.1 3 .2-3.1.6-6.1.6-8.9s-.3-5.7-.1-8.5-.8-5.7-.2-8.1c.7.6 1.5 1.2 2.5 1.8 1 .8 1.9 1.9 2.2 3.1.4.8 1 1.6 1.6 2.3.8 1.1 1.8 2.3 2.7 3.3.3.3.7.5 1.2.6 1 .1 2.1.1 3.1 0 3.8-.4 7.5-1 11.1-1.3 6.8-.6 13.7-1.1 20.4-1.6 1.5-.1 3-.3 4.5-.5 1.7-.1 3.4-.3 5.4-.5 0 1.1.1 1.8 0 2.5-.2 3.4-.4 6.9-.6 10.4-.1 1.6.3 3.3.3 5 0 4.7-.1 9.4-.4 14.1-.2 2.4.1 5-1.6 7.5-.8 0-1.8 0-2.6-.2zm-51.8-14c0 2.1.1 4.1.2 6.2v.3c0 .8.7 1.3 1.4 1.3-.2-3.7-.2-7.3-.2-10.9-.2-.4-.5-.7-.9-1-.3 1.8-.5 3-.5 4.1zm13.5 7.6l-.6 1.4 1.4.6-.8-2z"/>
        <path fill="#fff" d="M160 87.4c-1.1.1-2.2.2-3.3.4-1.4.2-2.8.6-4.2.7-1 .1-2.1-.1-3.1 0-4.5.4-9 .9-13.4 1.3-4.2.3-8.3.7-12.4 1.1-4.2.3-8.5.5-12.8 1-1.3.2-2.3-.5-3.4-.7-.5-1.7-2.4-1.9-3.3-3.3-1.1-1.9-2.5-3.6-4.3-4.9-.6-.4-.9-1.3-1.5-2.3 1.3-.1 2.1-.2 3.1-.2s2.1.1 3.1 0c4.7-.3 9.4-.8 14.1-1.2 4.2-.4 8.4-.4 12.6-1 5-.7 10 0 15 0 1.9 0 4.1-.2 5.8 1.5l1.8-1.4c1.9 1.2 3.8 2.3 5.5 3.4 1.9 1.2 3.9 2.4 5.8 3.7.5.4 1.3.8.6 2-2 0-3.9 0-5.7-.1zm-33.2-22.5c-1.4 0-2.8-.1-4.2 0-3.6.3-7.3.7-10.9 1-4.7.4-9.4.7-14.1 1.2-5 .6-10 .7-14.6-.8l-5.5-6.6c.4-.1.7-.2 1.1-.2 6.9.1 13.7-1.2 20.4-1.6 2.7-.1 5.4 0 8.1 0 2.5 0 4.9.1 7.4 0 2.2-.1 4.4-.3 6.2-.5l6.3 7.1-.2.4zM90.4 81.3c-1.8.4-3.5.9-5 1.7-1.1.3-2.1.8-3.1 1.2-1.7.6-3.3 1.1-4.9 1.6-.6.2-1.2.4-1.9.7-2.7-5.3-6.3-10.1-10.5-14.4 1.9-.7 3.5-1.2 5-1.7.3-.1.7-.1 1.1 0 1.1.9 2.1.4 3.1-.1 1.9-.9 3.9-1.4 6.1-1.5.9-.1 1.7.1 2.4.7 3 2.1 6.3 4 8.5 7.1.4.4.7.7 1.1 1 .6.7 1.3 1.3 2 2.2-1.1.8-2.5 1.3-3.9 1.5z"/>
        <path fill="#1d1d1b" d="M96.1 112.5c.1 3.6.2 7.2.2 10.9H96c-.8-.1-1.2-.8-1.2-1.5-.1-2.1-.2-4.1-.2-6.2.1-1.2.3-2.4.4-4.2.5.3.8.6 1.1 1zm11.5 12.2l.6-1.4.9 1.9-1.5-.5z"/>
</svg>
