<svg width="47" height="50" viewBox="0 0 47 50" xmlns="http://www.w3.org/2000/svg">
    <g fill="none" fill-rule="evenodd">
        <g transform="translate(0 -.771)">
            <mask id="a" fill="#fff">
                <path d="M0 49.846h46.696V.926H.001z"/>
            </mask>
            <path d="M23.208 20.626C16.477 17.494 12.381 11.882 8.825 5.69 7.5 3.388 6.152 1.303 3.49.925.438 1.585-.095 3.995.014 7.243c3.153 4.88 6.934 9.47 11.443 13.338 1.926 1.649 3.634 3.539 3.049 7.032-3.011 4.64-8.151 7.145-11.695 11.224-.729 1.898-.766 3.44.904 5.184l3.714.212L20.975 33c6.472 5.209 12.318 10.272 16.455 16.71 2.895.52 4.697-.465 5.68-2.8.316-.751-.112-1.893-.123-2.01-5.463-6.156-10.449-11.767-15.604-17.575 5.058-6.517 11.339-10.67 18.42-12.764 1.622-5.77 1.396-6.248-3.729-8.08-5.992 4.49-12.16 9.114-18.866 14.144" fill="#FFF" mask="url(#a)"/>
        </g>
        <g transform="translate(0 -.771)">
            <mask id="b" fill="#fff">
                <path d="M0 49.846h46.696V.926H.001z"/>
            </mask>
            <path d="M23.208 20.626c6.706-5.03 2.874-9.653 18.866-14.144 5.125 1.832 5.35 2.31 3.729 8.08-7.081 2.093-13.362 6.247-18.42 12.764 5.155 5.808 10.141 11.42 15.604 17.575.011.117.44 1.259.124 2.01-.984 2.335-2.786 3.32-5.68 2.8-4.138-6.438-9.984-11.501-16.456-16.71-4.348 3.605-8.83 7.323-13.546 11.232l-3.714-.212c-1.67-1.745-1.633-3.286-.904-5.184 3.544-4.08 8.684-6.584 11.695-11.224.585-3.493-1.123-5.383-3.049-7.032C6.948 16.713 3.167 12.123.014 7.243-.096 3.994.438 1.585 3.49.925c2.662.378 4.01 2.463 5.335 4.764 3.556 6.193 7.652 11.805 14.383 14.937" fill="#1d1d1b" mask="url(#b)"/>
        </g>
    </g>
</svg>
