<svg width="96" height="32" viewBox="0 0 96 32" xmlns="http://www.w3.org/2000/svg">
    <title>
        impressum
    </title>
    <g fill="none" fill-rule="evenodd">
        <path d="M92.38 7.71c-1.113.63-1.989.824-2.27 1.341-.698 1.285-1.503 2.697-1.577 4.094-.13 2.458.158 4.954.454 7.412.286 2.388.26 2.517-2.59 2.696l-.486-15.257c-3.096 2.1-3.654 4.757-3.756 7.305-.1 2.53.532 5.087.876 7.895-.962-.05-1.762-.092-2.571-.136-.126-.483-.247-.778-.274-1.08-.42-4.618-.749-9.246-1.27-13.85-.251-2.208-.338-2.394 1.776-3.927l.822 4.244c2.466-.716 1.913-4.483 5.14-4.703.395 1.024.83 2.157 1.336 3.466 1.084-.663 2.105-1.403 3.223-1.946 2-.971 3.571.15 3.697 2.392.216 3.865.55 7.723.822 11.584.038.532.205 1.184-.028 1.577-.34.572-.99.957-1.508 1.422-.438-.53-1.234-1.047-1.252-1.59-.07-2.16.221-4.331.15-6.492-.068-1.999-.428-3.987-.714-6.446M13.951 25.404c-.61-1.14-1.185-1.785-1.286-2.496-.209-1.493-.092-3.027-.247-4.53-.282-2.744-.665-5.477-1.037-8.46-2.381 1.118-3.182 2.36-2.559 4.56.496 1.749.572 3.616.834 5.429.031.214.176.502.087.63-.443.638-.857 1.62-1.45 1.76-1.09.258-1.344-.71-1.38-1.676-.11-2.909-.194-5.822-.427-8.724-.11-1.382-.37-2.799-.843-4.098-.895-2.464-.542-2.963 2.613-2.867l.5 2.635c1.74-1.043 3.62-2.515 4.917.487 1.112-.376 2.091-.802 3.112-1.032 2.136-.48 3.617.474 4.015 2.633.252 1.369.302 2.776.422 4.167.239 2.783.462 5.57.695 8.354.037.43.293.986.112 1.259-.377.566-.914 1.195-1.513 1.377-.33.102-1.153-.561-1.337-1.04-.253-.66-.11-1.471-.142-2.218-.14-3.239-.194-6.487-.488-9.714-.07-.785-.8-1.965-1.451-2.141-1.17-.317-1.86.713-2.27 1.825-.984 2.667-.15 5.316.038 7.964.125 1.77 1.012 3.575-.915 5.916M26.867 21.8c-.23-4.55-1.472-8.919-.676-14.151 3.39 3.2 3.314 6.832 3.453 10.25.062 1.51-.037 3.593-2.777 3.9M30.2 8.041c-.676-1.905-2.677-2.384-4.547-2.63-1.96-.258-2.113 1.367-2.642 2.618-.196.46-.578.842-.514.751.65 1.844 1.387 3.15 1.542 4.52.437 3.864.638 7.756.927 11.639.137 1.83.168 3.673.456 5.478.083.516.895.917 1.373 1.37.4-.436 1.04-.823 1.14-1.32.144-.705-.071-1.498-.2-2.242-.234-1.348-.516-2.689-.789-4.09 2.348-.907 4.38-1.943 4.79-4.324.696-4.043-.196-7.99-1.536-11.77m45.265 13.086c-.322.255-.533.44-.76.599-2.003 1.387-2.832 1.315-3.693-.85-1.074-2.703-1.904-5.514-2.651-8.328-.553-2.075-.819-4.226-1.184-6.348-.215-1.252.548-2.503 1.523-2.41 1.29.123 1.376 1.103 1.381 2.162.034 6.3.216 6.99 3.109 12.66 1.794-2.571 1.957-3.455 1.586-6.052-.306-2.137-.462-4.299-.606-6.455-.06-.914.03-.92 2.043-1.872.233.687.767 1.418.631 1.99-1.018 4.314.314 8.358 1.248 12.454.216.941.465 1.877.667 2.822.268 1.252-.17 2.255-1.433 2.5-1.343.258-1.583-.757-1.6-1.844-.006-.298-.146-.594-.261-1.028M47.48 9.194c.17-.064.76.99 1.543 2.056l-3.55.273-.427-.877c.8-.514 1.563-1.127 2.433-1.452m.167 10.792c-1.91-.963-1.978-3.375-2.535-5.645 1.252-.336 2.342-.721 3.465-.903 1.106-.18 2.247-.154 3.212-.208.896-2.3-.788-3.347-1.44-4.724-.642-1.353-1.868-2.156-3.438-1.815-1.756.382-3.54 1.237-3.747 3.125-.31 2.854-.708 5.746.35 8.638 1.753 4.788 5.759 5.933 10.083 2.268-2.336-.24-4.408.04-5.95-.736M34.807 4.29l1.355 2.388c2.011-.446 4.06-1.317 6.663.085-.76.607-1.19 1.185-1.728 1.319-.7.174-1.502-.111-2.234-.01-1.789.252-2.705 1.14-2.88 2.949-.112 1.162-.007 2.365.157 3.53.269 1.908.721 3.793.994 5.703.279 1.947.091 2.062-2.074 1.914-.759-5.032-1.465-10.019-2.29-14.986-.252-1.525.528-2.14 2.037-2.892M62.76 22.888c.252-.29.471-.62.762-.866 1.77-1.494 1.897-3.346.995-5.277-.724-1.55-1.665-2.999-2.537-4.476-.601-1.02-1.419-1.946-1.838-3.03-.867-2.238.51-4.9 2.543-5.05.55-.042 1.402.236 1.623.638.196.355-.158 1.205-.517 1.62-.378.435-1.052.611-1.908 1.068.854 1.417 1.6 2.686 2.376 3.935 1.319 2.117 2.469 4.234 2.63 6.86.125 2.092-.893 3.499-2.104 4.854-.317.353-1.168.228-1.774.323l-.251-.599M56.81 6.324c1.127 3.13 2.077 6.093 3.266 8.957.717 1.725.871 3.368.146 5.029-.834 1.91-2.653 2.257-4.157.817.812-.61 2.089-1.082 2.298-1.846.28-1.02-.111-2.323-.496-3.403-.863-2.442-1.924-4.812-2.86-7.23-1.003-2.59-.17-4.692 2.112-5.138.576-.111 1.61.173 1.828.591.463.88-.288 1.301-1.127 1.506-.283.068-.51.352-1.01.717M4.822 23.262c-2.344.419-3.057.118-2.832-1.305.746-4.7-.886-9.177-1.095-13.778-.026-.583.035-1.38.395-1.714.385-.357 1.279-.535 1.749-.328.445.194 1.002 1.112.872 1.496-1.049 3.081.347 5.958.573 8.923.172 2.244.23 4.497.338 6.706M0 .699c1.483-1.022 2.534-.978 3.073.495.122.333-.462 1.255-.892 1.402C.236 3.26.646 1.538 0 .699" fill="#1D1C1B"/>
        <path d="M-14-11h122v49H-14z"/>
    </g>
</svg>
