<svg width="75" height="30" viewBox="0 0 75 30" xmlns="http://www.w3.org/2000/svg" xmlns:xlink="http://www.w3.org/1999/xlink">
    <title>
        kontakt
    </title>
    <defs>
        <path id="a" d="M13.572 24.444H0V.697h13.572z"/>
        <path id="c" d="M10.85 27.432V1.027H.705v26.405H10.85z"/>
    </defs>
    <g fill="none" fill-rule="evenodd">
        <g transform="translate(0 4.763)">
            <mask id="b" fill="#fff">
                <use xlink:href="#a"/>
            </mask>
            <path d="M2.59.911v10.265c2.684-1.84 2.585-5.471 5.699-6.005.929 1.055.608 1.794-.2 2.593-.833.824-1.654 1.705-2.285 2.687-1.577 2.447-1.408 3.282.994 5.109 1.885 1.434 3.874 2.732 5.76 4.166.476.361.974.994 1.012 1.533.033.481-.474 1.327-.89 1.433-.594.152-1.687-.003-1.936-.41-1.652-2.72-4.52-3.808-7.327-5.397.396 1.649.703 3.324 1.215 4.935.394 1.239.344 2.207-1.033 2.545-1.372.335-1.918-.417-2.018-1.776C1.082 15.815.496 9.047.008 2.273-.095.83.782.384 2.591.911" fill="#1D1C1B" mask="url(#b)"/>
        </g>
        <path d="M61.576 24.211c-.07-3.634-2.643-4.707-5.71-5.938l.657 3.082c.18.845.453 1.683.512 2.536.079 1.124-.076 2.316-1.551 2.36-1.294.038-1.461-1.046-1.567-2.05-.695-6.545-1.378-13.09-2.09-19.633-.126-1.165-.18-1.163 1.612-2.612 1.26 3.739 1.302 7.582 1.885 11.959.942-1.038 1.528-1.711 2.147-2.354.513-.532.99-1.214 1.628-1.474.441-.181 1.397.07 1.635.442.23.363-.126 1.13-.292 1.702-.047.16-.33.252-.505.375-2.908 2.052-2.924 3.04-.048 5.147 1.214.888 2.388 1.878 3.716 2.553 1.165.592 2.287 1.177 1.814 2.592-.538 1.617-1.932 1.822-3.843 1.313m-39.9-11.923c.75-1.06 1.826-1.592 3.116.093.616-.584 1.083-1.226 1.712-1.586 1.735-.992 3.536-.068 3.758 1.948.311 2.797.455 5.612.762 8.408.21 1.917.575 3.817.883 5.816-.967 1.081-1.999.813-3.271.105.818-4.646.304-9.146-1.267-13.654-.96 2.181-3.268 3.693-2.553 6.534.392 1.559.535 3.181.755 4.781.138 1 .206 2.158-1.102 2.305-1.388.156-1.291-.965-1.389-1.994-.386-4.053-.881-8.095-1.404-12.756" fill="#1D1C1B"/>
        <g transform="translate(63.826 -.669)">
            <mask id="d" fill="#fff">
                <use xlink:href="#c"/>
            </mask>
            <path d="M.705 2.537c.502-.469.865-.875 1.3-1.181.242-.172.604-.176 1.204-.33 1.397 2.728-.492 5.791.869 8.643l3.269.686c.252 2.535.252 2.535-2.677 3.277.18 3.736.546 7.43 2.636 10.95l3.54-2.336c.13 2.542-2.623 5.558-4.59 5.149-.569-.118-1.227-.87-1.431-1.47-.725-2.137-1.528-4.299-1.832-6.515-.633-4.593-.936-9.23-1.442-13.84-.103-.942-.507-1.849-.846-3.033" fill="#1D1C1B" mask="url(#d)"/>
        </g>
        <path d="M37.47 24.722l2.243-.724c.606 1.86-.054 2.943-1.58 3.432-1.391.445-2.64.129-3.023-1.533-.728-3.152-1.39-6.318-2.101-9.474-.27-1.196-.602-2.38-.83-3.275.273-1.49.633-2.777.712-4.082.084-1.4-.074-2.817-.172-4.224-.08-1.146.358-2.068 1.52-1.973 1.119.092.917 1.048.856 2.009-.158 2.47-.053 4.956-.053 7.913 1.42-.453 2.667-.85 3.91-1.244.481 1.974.367 2.076-3.878 3.31.125 3.425 1.078 6.676 2.396 9.865m-19.587-2.289c-2.828-2.43-3.549-5.026-3.64-8.152 2.74-.503 3.295-.374 3.577 1.56.285 1.95.063 3.973.063 6.592m1.335-8.922c-.375-1.908-2.404-1.6-3.527-2.518-.238-.194-.565-.28-1.028-.498-1.99 1.822-2.325 2.576-2.434 4.527-.213 3.843 1.961 6.794 3.717 9.865.689 1.204 2.556.976 3.137-.39.623-1.47 1.197-3.111 1.172-4.669-.034-2.112-.625-4.22-1.037-6.317m29.069 8.894c-.077.7-.778 1.752-1.37 1.887-1.084.25-1.998-.415-2.455-1.602-.914-2.37.53-4.814 3.89-5.787 0 1.917.13 3.727-.065 5.502m2.16-5.052c-.34-2.247-.822-4.476-1.297-6.7-.282-1.314-1.152-2.064-2.507-2.166-1.243-.094-2.41.09-3.097 1.3-.468.825-.86 1.694-1.279 2.53 1.96 2.168 2.403-.649 3.94-1.09l1.775 2.659c-3.073 1.198-4.502 3.364-5.55 5.765-1.425 3.268.248 6.308 3.795 6.636 1.726.162 3.521-.433 5.194-.673-.373-3.228-.596-5.757-.975-8.261" fill="#1D1C1B"/>
        <path d="M-13-6h96v49h-96z"/>
    </g>
</svg>
