<?xml version="1.0" encoding="utf-8"?>
<!-- Generator: Adobe Illustrator 19.2.1, SVG Export Plug-In . SVG Version: 6.00 Build 0)  -->
<svg version="1.1" id="Ebene_1" xmlns="http://www.w3.org/2000/svg" xmlns:xlink="http://www.w3.org/1999/xlink" x="0px" y="0px"
	 viewBox="0 0 236 181.5" style="enable-background:new 0 0 236 181.5;" xml:space="preserve">
<style type="text/css">
	.st0{fill:#1D1D1B;}
	.st1{fill:#FFFFFF;}
</style>
<path class="st0" d="M82.9,100.4c0-0.5,0.3,4.3,0.7,2.8c-0.5-0.8-1.1-0.9-1.7-1c-1.5-0.2-3-0.5-4.5-0.6c-0.5,0-1.2,0.1-1.7,0.2
	c-1.6,0.3-3.2,0.4-4.9,0.2c-1.2-0.1-2.4,0-3.6,0.2c-0.9,0.1-2,0.3-2.9,0.1c-1.2-0.2-2.4-0.1-3.6,0c-2.2,0.2-4.5,0.3-6.7,0.4
	c-0.1,0-0.3-0.1-0.4-0.1c-3.4-1-6.9-0.7-10.3-0.2c-2.5,0.3-5-0.1-7.7-0.4c-2.1,0.5-4.5,0.3-6.9-0.3c-2.1-0.5-4.2-0.4-6.3-0.5
	c-1.6,0-3.2,0-4.7,0c-0.5,0-1.1-0.1-2-0.3c0.7-0.3,0.9-0.5,1.2-0.5c3.3,0.1,6.6,0.3,9.9,0.5c1.2,0.1,2.4,0.4,3.6,0.5
	c1.6,0.1,3.2,0,4.7,0c0.7,0,1.2,0,1.8,0c1.3,0.1,2.5,0.2,3.8,0.3c1.6,0.1,3.2,0.1,4.7-0.3c1.7-0.4,3.6-0.4,5.4-0.2
	c3.8,0.4,7.7,0.2,11.5-0.5c0.8-0.2,1.5-0.2,2.2-0.2c1.6,0,3.2,0.1,4.7-0.3c0.3-0.1,0.4-0.1,0.7-0.1c3,0.6,6.2,0,9.2,0.1
	c0.7,0,1.3,0.2,2,0.2C81.8,100.5,82.3,100.4,82.9,100.4"/>
<path class="st0" d="M150.6,100.4c0-0.5-0.3,4.3-0.8,2.8c0.5-0.8,1.1-0.9,1.8-1c1.5-0.2,3.1-0.5,4.8-0.6c0.7,0,1.2,0.1,1.9,0.2
	c1.8,0.3,3.5,0.4,5.3,0.2c1.2-0.1,2.6,0,3.8,0.2c1.1,0.1,2.2,0.3,3.1,0.1c1.2-0.2,2.6-0.1,3.8,0c2.3,0.2,4.8,0.3,7.2,0.4
	c0.3,0,0.4-0.1,0.5-0.1c3.7-1,7.4-0.7,11.1-0.2c2.7,0.3,5.5-0.1,8.3-0.4c2.3,0.5,4.8,0.3,7.4-0.3c2.2-0.5,4.5-0.4,6.8-0.5
	c1.6,0,3.4,0,5.1,0c0.4,0,1-0.1,2-0.3c-0.7-0.3-1-0.5-1.2-0.5c-3.5,0.1-7.1,0.3-10.6,0.5c-1.2,0.1-2.6,0.4-3.8,0.5
	c-1.6,0.1-3.4,0-5.1,0c-0.5,0-1.2,0-1.9,0c-1.4,0.1-2.7,0.2-4.1,0.3c-1.6,0.1-3.4,0.1-5.1-0.3c-1.9-0.4-4-0.4-5.9-0.2
	c-4.2,0.4-8.3,0.2-12.4-0.5c-0.8-0.2-1.6-0.2-2.5-0.2c-1.6,0-3.4,0.1-5.1-0.3c-0.1-0.1-0.4-0.1-0.7-0.1c-3.3,0.6-6.7,0-10,0.1
	c-0.7,0-1.5,0.2-2.2,0.2C151.8,100.5,151.3,100.4,150.6,100.4"/>
<g>
	<path class="st1" d="M130.2,78.9l-4.7,4.3l-10,10.2L80,87.5c0,0-22.1,0.3-21.5-0.1s10.9-7.7,11.3-8.3c0.4-0.6,6.9-3.8,6.9-3.8
		s11.7-0.3,11.7,0.2c0,0.6,39,3,39,3L130.2,78.9z"/>
	<g id="doc00073520160814150808-39.psd_Bild">
		<title>SK_Website-Animation_Einzelbilder</title>
		<path d="M183.7,81.5c-1.5-1.2-2.9-2.4-4.3-3.7c-0.7-0.6-1.5-1.1-2.3-1.6c-1.1-0.6-2.4-1-3.5-1.7c-1.8-0.8-3.5-1.7-5.3-2.8
			c-1.8-1.1-3.5-2.4-5.1-3.5c-0.1-0.2-0.2-0.4-0.2-0.6c1.5-0.7,2.9-1.4,4.4-1.9c1.6-0.8,3.1-1.9,5.1-1.8c0.6-0.2,1.1-0.5,1.4-0.9
			l0.1-0.1c0.5-0.5,0.5-1.3,0-1.8c0-0.1-0.1-0.1-0.1-0.2c-0.4-0.6-1.2-0.6-1.7-0.2c-0.4,0.3-0.9,0.6-1.5,0.6c-2.7,0-5.4-0.3-8.1-0.7
			c-2.9-0.7-5.8-1.1-8.8-1.1c-2.8,0-5.7-0.1-8.6-0.3c-2.7-0.2-5.4-0.6-8.1-0.9c-0.5,0-1-0.3-1.3-0.7c-0.8-1.4-1.6-1-2.6-0.4
			c-3.4,2-7,3.8-10.7,5.2c-4.2,1.6-8.2,2.1-12.4-0.2c-2.5-1.3-5.2-2.5-7.8-3.4c-1.4-0.3-2.5-1.1-3.4-2.2c-0.7-1-1.5-0.9-2.5-0.4
			c-0.9,0.5-1.8,0.8-2.7,1c-3,0.6-6,1-9.1,1.6c-4,0.6-8,1.3-12,1.9c-2.1,0.3-4.2,0.4-6.2,0.7c-2.5,0.3-5,0.6-7.5,1
			c-1.4,0.2-2.8,0.5-4.2,0.8c-0.5,0.1-0.9,0.5-1.1,1c0.1,0.6,0.4,1.1,0.9,1.5c0.7,0.4,1.4,0.6,2.2,0.8c0.8,0.2,1.5,0.4,2.3,0.6
			c5,2.2,9.9,4.4,15.1,6.6c-0.2,0.1-0.4,0.3-0.2,0.7c-0.5,2-0.5,2-2,2.6c-1.8,0.8-3.5,1.8-5.1,3.2c-2.5,2.2-5.2,4.2-8.6,5
			c-1.6,0.5-3,1.5-4,2.8c-0.6,0.7-0.2,2,0.6,2c1,0.1,2.1-0.1,3.1-0.5c2-1.3,4.2-1.2,6.4-1.3c1.3-0.1,2.7,0,4.1,0
			c1.7-0.1,3.4-0.2,5.2-0.4c0.2,0.7,0.3,1.4,0.4,2.1c0,4.8,0,9.6,0.2,14.5c0,3.9,0.2,7.8,0.3,11.7c0.1,2.5,0.5,5.1,0.3,7.6
			c-0.1,0.8,0,1.7,0.3,2.4c4.1,0.9,7.7,2.2,11.7,2.6c0.1-0.1,0.2-0.1,0.4-0.1c2.5-0.1,5.1,0,7.6,0c3.9,0.1,7.8,0.2,11.7,0.5
			c3.6,0.3,7.1,0.7,10.7,1.1v0.2c3.3,0.4,6.6,0.9,9.8,1.4c1.5-0.1,2.8-0.5,3.9-1.4c0.8-0.7,1.8-0.6,2.5-0.1c0.6-0.2,1.2-0.3,1.8-0.4
			c5.8-1.6,11.7-3.3,17-6.3c2.3-1.4,4.5-3.3,7.6-3c0.1-1,0.2-1.9,0.2-2.9c-0.1-1.8-0.4-3.6-0.4-5.4c0.2-4.3,0.5-8.6,0.7-12.9
			c0.1-2,0.2-4,0-6.2s0.9-3.5,2.9-4.4c4.5-1.8,9.2-3.4,13.9-4.6c1.8-0.5,3.7-0.7,5.6-0.9c0.7,0.1,1.4-0.5,1.5-1.2
			C184,81.9,183.9,81.7,183.7,81.5z M131.7,60.2c1.5-0.6,3-0.8,4.6-0.5c3.6,0.3,7.1,0.7,10.7,1c3.1,0.1,6.2,0.1,9.3,0.4
			c3.7,0.4,7.4,1.2,11.1,1.9c0.3,0.1,0.5,0.4,0.7,0.6c-1.1,0.5-2.1,1.1-3,1.5c-1.5,0.8-3.1,1.6-4.7,2.2c-0.4,0.3-1,0.4-1.5,0.4
			c-4.5-0.2-8.9-0.3-13.4-0.6c-6-0.4-11.9-0.9-17.9-1.5c-1.4-0.2-2.8-0.4-4.2-0.9C126.3,63,128.9,61.4,131.7,60.2z M62.3,66.6
			c-1.4-0.7-3-1.3-4.6-1.8v-0.3c5.9-0.9,11.9-1.7,17.8-2.6c2.9-0.5,5.8-1.1,8.7-1.6c4.1-0.7,8.3-1.3,12.5-1.8c0.6,0,1.2,0.1,1.8,0.4
			c2.6,1.2,5.2,2.6,7.7,3.7c1.6,0.8,3.4,1.4,5.1,2c0.3,0.1,0.6,0.3,0.8,0.5c-2.6,0.4-5.1,0.5-7.6,1.1c-5.7,1.3-11.3,2.9-17.1,4.3
			c-3,0.8-6.1,1.3-9.1,1.8c-0.9,0.1-1.8,0.1-2.6-0.2C71.2,70.7,66.6,68.9,62.3,66.6z M62.6,86.2h-1.5c3-2.1,5.8-3.6,7.9-6
			c1.7-1.9,4.3-2.6,6.8-3c1.2-0.2,1.9-0.5,2-1.6c0.1-0.9,0.8-1.1,1.5-1.3c5.5-1.4,11.1-2.8,16.7-4.2c4.2-1,8.3-2.1,12.5-3
			c1.8-0.5,3.7-1,5.4-0.8c1.1,0.2,2.3-0.1,3.2-0.8c0.5,3.5,0.2,6.7,0.4,9.9c1.9-3,0.6-6.4,1-9.8c0.9,0.1,1.8,0.1,2.6,0.2
			c5.2,1.1,10.6,1.8,15.9,2c4.7,0.1,9.3,0.6,13.9,1c3,0.3,6.1,0.8,9.1,1.1c-3.2,1.7-6.8,2.9-11.1,3.2c-4.6,0.3-8.8,1.9-13.2,3
			c-0.8,0.3-1.6,0.5-2.5,0.7c-1,0.1-2,0.1-3,0c-1.8-0.1-3.7-0.3-5.5-0.3c-7.1-0.2-14.3-0.3-21.5-0.8c-4.1-0.5-8.3-0.6-12.4-0.5
			c-0.8,0.1-1.7-0.3-2.6-0.3c-2.3,0-4.7,0-7.1,0.1c-0.3,0.1-0.6,0.3-0.9,0.5c0.4,0.3,0.8,0.5,1.3,0.6c3.1,0.3,6.2,0.6,9.3,0.9
			c0.7,0.2,1.5,0.5,2.2,0.9c0.5-1.4,1.8-1.4,3.1-1.3c6.7,0.4,13.4,0.8,20.1,1.2c3.3,0.3,6.6,0.4,10,0.6c0.4,0,0.7,0,1,0.1
			c0.6,0.1,1.1,0.4,1.5,0.9c0.1,0.5-0.2,1.1-0.6,1.5c-1.1,1-2.4,1.8-3.6,2.6c-0.4,0.2-0.7,0.4-1,0.7c-0.9,2.1-2.9,3.2-4.3,4.7
			c-0.7,1-1.7,1.7-2.9,1.9c-0.7,0.2-1.3,0.6-1.9,1c-4.6-0.9-9.1-1.9-13.7-2.5c-7.8-0.9-15.5-2.2-23.3-2.9
			C72.5,86.1,67.5,85.6,62.6,86.2z M157.4,113.6c-0.2,1.4-0.1,2.9-0.3,4.5c-1.4,0.2-2.5,0.3-2.9,1.9c-0.1,0.6-1.3,1.1-2,1.6
			c-3.9,2.3-8.2,4.1-12.6,5.1c-3.1,0.8-6.1,1.7-9.3,2.6c0-4.9,0.1-10,0-14.9c0-4.9-1.2-9.6-1.8-14.4c-0.7,4.9,0.6,9.6,0.6,14.5
			l-0.2,14.3c-1.1,1.1-2.6,1.5-4.1,1.2c-8-0.8-16.1-1.6-24.1-2.3c-5.1-0.6-10.1-0.7-15.1-0.6c-1.7,0-3.5-0.3-5.2-0.6
			c-0.4-0.1-0.7-0.3-1-0.6c-0.8-0.8-1.6-1.5-2.4-2.2c-1.8-11.6-1.2-23.3-1.1-35.2c0.6-0.1,1.3-0.1,1.9-0.1
			c6.2,0.8,12.4,0.8,18.5,2.5c0.8,0.2,1.6,0.3,2.4,0.3c5.8,0.3,11.6,1.5,17,3.5c0.3,0.1,0.7,0,0.5,0c1.2-1.1,2.3-1.9,3.2-2.7
			c1.6-1.3,3.1-2.9,4.6-4.4c1.2-1.7,2.9-3.2,4.7-4.2c1,1.8,0.4,3.7,0.6,5.4c0.1,1.7,0.3,3.5,0.7,5.2c1.1-4-0.4-8,0.8-12.3
			c0.9,0.3,1.7,0.7,2.5,1.2c2.2,1.6,4.2,3.5,6.3,5.2c1,0.8,2.1,1.7,3.1,2.6c0.5,0.5,0.9,1.1,1.1,1.7c0.5,1.7,2.1,2.8,3.8,3
			c1.6-0.2,3.1-0.8,4.4-1.6c1.9-1.1,3.8-2.1,6.3-3.4c0.3,2.2,0.5,3.9,0.6,5.7C158.8,101.8,158.4,107.8,157.4,113.6z M180,81.2
			c-3.7,1-7.4,2.2-11.1,3.3c-1.3,0.5-2.6,1-3.8,1.4c-1.6,0.6-3.2,1.2-4.8,1.9c-2.2,0.7-4.3,1.5-6.4,2.5c-2.4,1.3-5,1.9-7.7,2
			c-1.3-2.9-4.5-3.9-6.7-6.1s-4.6-4.1-7.3-6.3c0.5-0.5,1.1-0.9,1.8-1.2c5-1.7,10.1-3,15.5-3.9c3.6-0.7,7.1-1.7,10.6-2.8
			c2.2-0.7,4.6-0.5,6.7,0.5c3.3,1.6,6.5,3.2,9.5,5c1.3,0.9,2.6,1.8,3.8,3L180,81.2z"/>
		<path d="M148.3,131.5c-0.1,0.1-0.1,0.3-0.2,0.4l-2-0.3C147.1,130.5,147.6,131.5,148.3,131.5z"/>
		<path class="st1" d="M128.5,99.9c-0.7,4.9,0.4,9.6,0.5,14.5c0,4.9-0.2,9.7-0.2,14.3c-1.1,1-2.6,1.5-4.1,1.2
			c-8-0.7-16.1-1.5-24.1-2.3c-5-0.5-10-0.6-15.1-0.6c-1.7-0.1-3.5-0.3-5.2-0.6c-0.4-0.1-0.7-0.3-1-0.6c-0.7-0.8-1.5-1.5-2.4-2.2
			c-1.8-11.6-1.1-23.3-1.1-35.2c0.6-0.1,1.3-0.1,1.9-0.1c6.2,0.8,12.5,0.8,18.5,2.5c0.8,0.2,1.6,0.3,2.4,0.3
			c5.8,0.3,11.6,1.5,17,3.5c0.3,0.1,0.6,0,0.5,0c1.3-1.1,2.3-1.9,3.2-2.7c1.6-1.4,3.1-2.9,4.6-4.4c1.3-1.7,2.9-3.2,4.7-4.2
			c1,1.8,0.4,3.6,0.6,5.4c0.2,1.8,0.3,3.5,0.7,5.2c1-3.9-0.4-8,0.8-12.3c0.9,0.3,1.7,0.7,2.5,1.2c2.2,1.6,4.1,3.5,6.3,5.2
			c1,0.9,2.1,1.7,3.1,2.6c0.5,0.5,0.9,1,1.1,1.7c0.6,1.7,2.1,2.8,3.8,3c1.6-0.1,3.1-0.7,4.4-1.6c1.9-1.1,3.9-2.1,6.3-3.4
			c0.3,2.2,0.5,3.9,0.6,5.7c0.1,5.9-0.4,11.8-1.4,17.7c-0.2,1.5-0.1,3-0.3,4.5c-1.5,0.2-2.6,0.3-2.9,1.9c-0.1,0.7-1.3,1.1-2,1.6
			c-3.8,2.3-8.2,4.1-12.6,5.1c-3,0.8-6.1,1.7-9.3,2.6c0-5,0.1-9.9,0-14.9C130.2,109.3,128.9,104.7,128.5,99.9z M152.9,113.1
			c-0.3-0.3-0.6-0.5-1-0.7c-0.2,0.1-0.4,0.3-0.5,0.5c0.1,0.3,0.4,0.6,0.7,0.7C152.3,113.5,152.6,113.3,152.9,113.1z"/>
		<path class="st1" d="M180,81.2c-3.7,1.1-7.4,2.2-11.2,3.3c-1.3,0.4-2.5,1-3.8,1.4c-1.6,0.7-3.2,1.3-4.8,1.9
			c-2.2,0.7-4.3,1.5-6.4,2.5c-2.4,1.3-5,1.9-7.7,2c-1.3-3-4.5-4-6.7-6.1s-4.6-4.1-7.3-6.3c0.6-0.5,1.2-0.9,1.8-1.2
			c5-1.7,10.2-3,15.5-3.9c3.6-0.7,7.1-1.7,10.6-2.8c2.2-0.7,4.6-0.5,6.7,0.5c3.3,1.6,6.5,3.2,9.5,5c1.3,0.9,2.6,1.8,3.8,3L180,81.2
			L180,81.2z M152.8,79.1l0.5-0.3l-0.6-1.2l-0.8,0.6L152.8,79.1z"/>
		<path class="st1" d="M57.8,64.5c6-0.9,12-1.7,17.9-2.7c2.9-0.5,5.8-1.1,8.7-1.6c4.2-0.6,8.4-1.2,12.5-1.8c0.6,0,1.2,0.1,1.8,0.4
			c2.6,1.2,5.1,2.6,7.7,3.7c1.7,0.7,3.4,1.3,5.1,2c0.3,0.1,0.5,0.3,0.8,0.5c-2.6,0.4-5.2,0.5-7.6,1.1c-5.7,1.4-11.4,3-17.1,4.3
			c-3,0.8-6,1.3-9.1,1.8c-0.9,0.1-1.8,0.1-2.6-0.2c-4.7-1.4-9.1-3.2-13.5-5.5c-1.5-0.7-3.1-1.2-4.6-1.8L57.8,64.5L57.8,64.5z"/>
		<path class="st1" d="M168.1,63.6c-1.1,0.6-2.1,1.1-3,1.5c-1.6,0.8-3.1,1.6-4.7,2.2c-0.5,0.2-1,0.4-1.5,0.4
			c-4.5-0.2-8.9-0.3-13.4-0.6c-6-0.4-11.9-1-17.9-1.5c-1.4-0.2-2.8-0.5-4.2-0.9c3-1.7,5.7-3.2,8.4-4.5c1.5-0.5,3.1-0.7,4.6-0.5
			c3.6,0.2,7.2,0.7,10.7,1c3.1,0.2,6.2,0.1,9.3,0.4c3.7,0.5,7.4,1.2,11.1,1.9C167.7,63.1,167.9,63.4,168.1,63.6z"/>
		<path d="M152.9,113.1c-0.2,0.2-0.5,0.4-0.9,0.6c-0.3-0.2-0.5-0.4-0.7-0.7c0.1-0.2,0.3-0.4,0.5-0.5
			C152.2,112.5,152.6,112.8,152.9,113.1z"/>
		<path d="M83,83.2c-0.1-0.3-0.2-0.6-0.2-1c0.1-0.2,0.3-0.3,0.5-0.4c0.1,0.2,0.3,0.5,0.3,0.8C83.4,82.9,83.2,83.1,83,83.2z"/>
		<path d="M152.8,79.1l-0.8-0.9l0.8-0.6l0.6,1.2L152.8,79.1z"/>
	</g>
</g>
</svg>
