<?xml version="1.0" encoding="utf-8"?>
<!-- Generator: Adobe Illustrator 19.2.1, SVG Export Plug-In . SVG Version: 6.00 Build 0)  -->
<svg version="1.1" id="Ebene_1" xmlns="http://www.w3.org/2000/svg" xmlns:xlink="http://www.w3.org/1999/xlink" x="0px" y="0px"
	 viewBox="0 0 236 181.5" style="enable-background:new 0 0 236 181.5;" xml:space="preserve">
<style type="text/css">
	.st0{fill:#1D1D1B;}
	.st1{fill:#FFFFFF;}
</style>
<path class="st0" d="M162,103.2c0,0.5-0.2-4.3-0.5-2.8c0.4,0.8,0.8,0.9,1.3,1c1.1,0.2,2.3,0.5,3.4,0.6c0.4,0,0.9-0.1,1.3-0.2
	c1.2-0.3,2.4-0.4,3.7-0.2c0.9,0.1,1.8,0,2.7-0.2c0.7-0.1,1.5-0.3,2.2-0.1c0.9,0.2,1.8,0.1,2.7,0c1.7-0.2,3.4-0.3,5.1-0.4
	c0.1,0,0.2,0.1,0.3,0.1c2.6,1,5.2,0.7,7.8,0.2c1.9-0.3,3.8,0.1,5.8,0.4c1.6-0.5,3.4-0.3,5.2,0.3c1.6,0.5,3.2,0.4,4.8,0.5
	c1.2,0,2.4,0,3.6,0c0.4,0,0.8,0.1,1.5,0.3c-0.5,0.3-0.7,0.5-0.9,0.5c-2.5-0.1-5-0.3-7.5-0.5c-0.9-0.1-1.8-0.4-2.7-0.5
	c-1.2-0.1-2.4,0-3.6,0c-0.5,0-0.9,0-1.4,0c-1-0.1-1.9-0.2-2.9-0.3c-1.2-0.1-2.4-0.1-3.6,0.3c-1.3,0.4-2.7,0.4-4.1,0.2
	c-2.9-0.4-5.8-0.2-8.7,0.5c-0.6,0.2-1.1,0.2-1.7,0.2c-1.2,0-2.4-0.1-3.6,0.3c-0.2,0.1-0.3,0.1-0.5,0.1c-2.3-0.6-4.7,0-7-0.1
	c-0.5,0-1-0.2-1.5-0.2C162.9,103.1,162.5,103.2,162,103.2"/>
<path class="st0" d="M78.6,103.2c0,0.5,0.2-4.3,0.6-2.8c-0.4,0.8-0.8,0.9-1.3,1c-1.1,0.2-2.3,0.5-3.5,0.6c-0.5,0-0.9-0.1-1.4-0.2
	c-1.3-0.3-2.6-0.4-3.9-0.2c-0.9,0.1-1.9,0-2.8-0.2c-0.8-0.1-1.6-0.3-2.3-0.1c-0.9,0.2-1.9,0.1-2.8,0c-1.7-0.2-3.5-0.3-5.3-0.4
	c-0.2,0-0.3,0.1-0.4,0.1c-2.7,1-5.4,0.7-8.1,0.2c-2-0.3-4,0.1-6.1,0.4c-1.7-0.5-3.5-0.3-5.4,0.3c-1.6,0.5-3.3,0.4-5,0.5
	c-1.2,0-2.5,0-3.7,0c-0.3,0-0.7,0.1-1.5,0.3c0.5,0.3,0.7,0.5,0.9,0.5c2.6-0.1,5.2-0.3,7.8-0.5c0.9-0.1,1.9-0.4,2.8-0.5
	c1.2-0.1,2.5,0,3.7,0c0.4,0,0.9,0,1.4,0c1-0.1,2-0.2,3-0.3c1.2-0.1,2.5-0.1,3.7,0.3c1.4,0.4,2.9,0.4,4.3,0.2
	c3.1-0.4,6.1-0.2,9.1,0.5c0.6,0.2,1.2,0.2,1.8,0.2c1.2,0,2.5-0.1,3.7,0.3c0.1,0.1,0.3,0.1,0.5,0.1c2.4-0.6,4.9,0,7.3-0.1
	c0.5,0,1.1-0.2,1.6-0.2C77.7,103.1,78.1,103.2,78.6,103.2"/>
<g id="doc00073520160814150808-35.psd_Bild">
	<title>SK_Website-Animation_Einzelbilder</title>
	<path d="M128.3,61.6c1.6-1.8,3-3.4,4.4-4.8c1.9-1.9,3.9-3.7,5.9-5.6c0.8-0.8,1.7-1.6,2.5-2.5c0.6-0.8,1.6-1.1,2.5-0.9
		c2.9,0.7,5.7,1.3,8.6,1.9c2.1,0.4,4.2,0.7,6.4,0.9c6.5,0.4,13.1,0.7,19.6,1c2.1,0,4.2-0.2,6.3-0.5c0.8-0.3,1.6,0.1,1.8,0.9v0.1
		c0.3,0.7,0,1.5-0.7,1.8c-0.1,0-0.2,0.1-0.3,0.1c-1.3,0.1-1.7,1-2.4,1.7c-3,2.9-6,5.7-8.9,8.7c-1,1.1-1.9,2.2-2.8,3.4
		c5.5,4.4,10.8,8.5,17.6,11c0.1-0.1,0.3-0.3,0.5-0.4c0.4-0.1,0.8-0.2,1.2-0.3c-0.7,1.5-1.2,2.7-1.7,3.9c-0.2,0.2-0.4,0.3-0.6,0.3
		c-2.6,0.8-5.2,1.5-7.8,2.3c-3.1,1-6.2,2.1-9.3,3.1c-0.4,0.1-0.7,0.3-1.4,0.6c0.3,1.1,0.6,2.2,0.8,3.4c0.3,0.7,0.4,1.5,0.3,2.3
		c-1.1,3.2-0.5,6.5-0.6,9.7c-0.2,5.3-0.3,10.7-0.4,16c0,0.8-0.6,1.5-1.3,1.5c-0.1,0-0.1,0-0.2,0c-0.8,0-1.5,0.2-2.2,0.5
		c-3.7,1.7-7.6,2.9-11.6,3.6c-3.7,0.7-7.4,2-11.1,2.9c-1.6,0.4-3.3,0.8-4.9,1.2c-4.8,1.3-9.5,2.6-14.3,3.9c-1.1,0.3-2.2,0.4-3.3,0.6
		c-1.7,0.3-3.4,0.7-5.5,1.1c-4.8-2.3-10.5-3.2-16.2-4.2c-4.5-0.8-9-2.1-13.5-3.1c-1.6-0.4-3.3-0.8-4.9-0.9c-2.9-0.2-5.8-1-8.5-2.2
		c-1.6-0.7-3-1.1-4.4,0.1c-0.9-0.2-1.5-1.1-1.3-2v-0.1c0.2-2,0.5-4,0.5-6c0.2-2.6,0.1-5.3-0.1-7.9c-0.5-4.8-0.6-9.6-0.4-14.3
		c0-1,0-2,0-3.2c-2-0.4-3.7-0.7-5.4-1c-2.8-0.5-5.6-1.1-8.4-1.7c-0.4-0.2-0.9-0.3-1.4-0.3c-1.6,0.5-2.5-0.5-3.8-1.5
		c0.2-0.6,0.5-1.1,0.9-1.6c4.6-4.6,9.4-9.1,14-13.7c0.5-0.6,1-1.2,1.4-1.9l-2.2-5.2c-0.1-0.5-0.3-0.9-0.6-1.3
		c-2.5-3.1-3.5-6.9-5.3-10.4c-0.8-1.5-1.8-2.8-2.7-4.2c-0.2-0.3-0.5-0.7-0.7-1c-1-2-0.1-3.6,2-3.2c1.2,0.2,2.1-1,3.5-0.3
		c1.2,0.4,2.5,0.6,3.8,0.5c3.1,0.2,6.2,0.4,9.3,0.6c5.2,0.3,10.3,0.7,15.5,0.8c4.5,0,8.9,0.5,13.3,1c5.5,0.6,11.1,0.8,16.7,1.1
		c1,0,1.9,0.4,2.5,1.2c2.6,3.2,5.2,6.2,7.1,9.9C126.9,59.8,127.6,60.7,128.3,61.6z M115.7,132.6c2.7-0.5,4.9-1,7-1.4
		c5.8-1.3,11.6-2.7,17.5-4.1c2.1-0.5,4.2-1.3,6.4-1.9c1.5-0.4,3.1-0.7,4.6-1.1c1.4-0.3,2.8-0.8,4.1-1c3.7-0.6,7.3-1.7,10.7-3.3
		c2.1-1,2.5-2.1,2.4-4.4c-0.2-2.8-0.3-5.5-0.3-8.3s0.3-5.3,0.4-8c0-2.4-0.1-4.9-0.3-7.3c-0.2-1.1-0.4-2.2-0.7-3.3
		c-5.7,1.6-11.2,3.2-16.7,4.7c-4.3,1.2-8.6,2.2-12.9,3.4c-1.2,0.2-2.3,0.6-3.3,1.2c-2,1.3-2,1.4-3.7-0.3c-2.3-2.3-5-4.3-6.7-7.1
		c-0.2-0.3-0.4-0.5-0.7-0.7c-2.4-2-4.9-4.1-7.4-6.1c-1.5-1.4-3.8-1.3-5.2,0.2l-0.1,0.1c-2.1,2.4-4,5-6.1,7.4c-1.9,2.2-3.5,4.7-6,6.2
		c-0.6-0.4-1.3-0.7-2.1-0.8c-2.1,0.2-4-0.7-6-0.9c-3.5-0.3-7.1-1-10.6-1.6c-1.8-0.3-3.6-0.7-5.4-1.1l-6-1.1
		c-0.1,1.4-0.2,2.6-0.2,3.7c-0.1,2.8-0.3,5.6-0.2,8.3c0.1,3.3,0.7,6.5,1,9.8c0,0.8,0,1.5-0.2,2.3c-0.1,1.3-0.3,2.7-0.5,4
		c-0.1,0.8,0.5,1.6,1.3,1.8c4.2,1.6,8.4,3.2,12.9,3.5c1.3,0.1,2.5,0.4,3.8,0.7c1.4,0.3,2.8,0.8,4.1,1.1c3.1,0.8,6.2,1.6,9.3,2.2
		c2.9,0.6,5.9,0.5,8.7,1.4c0.9,0.3,1.9-0.1,2.8,0.1c1.7,0.4,2,0.2,1.9-1.5c-0.2-2.1-0.5-4.3-0.6-6.4c-0.1-5.2-1.2-10.3-0.6-15.5
		c0-0.3,0-0.7,0-1c-0.1-2.6-0.2-5.2-0.3-7.8c0-0.3,0.1-0.6,0.1-1c0-2.8,0.1-5.5,0.1-8.3c0-1.4-0.2-2.7-0.3-4c-0.1-0.9,0.5-1.8,1.5-2
		c1.4,1.1,0.7,2.6,0.7,4c0,0.7-0.2,1.4-0.2,2.1c0.1,2.3,0.3,4.6,0.4,6.8c0,0.2-0.1,0.5-0.1,0.7c-0.1,1.3-0.2,2.5-0.2,3.8
		s0,2.5,0,3.8c0,2.7-0.1,5.4,0,8.1c0.1,2.5,0.5,5.1,0.8,7.6c0.2,1.9,0.2,3.8,0.3,5.7S115.4,130,115.7,132.6L115.7,132.6z M54.8,47
		c1,1.7,2,3,2.7,4.5s1.4,3.2,2.1,4.8s1.5,3,2.3,4.5s1.4,3.4,2.7,4.4c1.3,1,1,3.1,2.5,4.2c1-0.2,2.2-0.4,3.4-0.6
		c3.3-0.6,6.5-1.4,9.9-1.7c4.1-0.4,8.3-0.4,12.4-0.7c2.4-0.2,4.7-0.6,7.1-0.9c2.7-0.3,5.4-0.4,8.1-0.8c5.2-0.6,10.4-1.4,15.6-2.1
		c0.8-0.1,1.7-0.2,2.6-0.3c-1.5-2.6-3-5-4.4-7.3c-2-3.4-4.8-5.4-8.9-5.4c-0.9,0-1.8,0-2.6,0c-6-0.6-12-1.2-18.1-1.8
		c-5.1-0.5-10.2,0-15.3-0.7c-2.8-0.4-5.7-0.4-8.6-0.6c-3.8-0.3-7.6-0.9-11.4-0.2C56.2,46.4,55.5,46.7,54.8,47L54.8,47z M186.1,80.4
		l0.1-0.6c-0.6-0.4-1.1-0.8-1.8-1.1c-3.7-1.8-7.1-4-10.2-6.7c-1.2-1-2.6-1.8-3.9-2.7c-0.7-0.6-1.6-0.7-2.5-0.3
		c-1.8,0.6-3.6,1.2-5.5,1.6c-5.4,1.1-10.8,2.1-16.2,3c-3.5,0.6-7.1,1.1-10.6,1.8c-3.3,0.8-6.7,1.4-10.1,1.7c-1.9,0.2-3.8,0.5-5.6,1
		c-1.5,0.3-3,0.8-4.6,1.2c0.9,1.6,2.1,2.9,3.6,4c2.5,1.9,4.8,3.9,7.1,6.1c1.5,1.8,3.3,3.4,5.1,4.9c1.3,1,3.1,1.3,4.7,0.7
		c2.1-0.7,4.3-1.2,6.5-1.7c3.2-0.8,6.4-1.5,9.5-2.3s6.6-1.9,9.9-2.8c3.6-1,7.3-1.8,10.9-3C177.1,83.7,181.6,82,186.1,80.4
		L186.1,80.4z M66.7,87.4c1,0.7,0.6,1.9,1.9,2.1c4.9,0.8,9.6,2.1,14.5,2.7c4.3,0.5,8.5,1.2,12.7,2.1c0.8,0.2,1.5,0.4,2.6,0.7
		c2.3-2.5,4.8-5,6.9-7.8s5-4.9,6.5-8.5c-1.6-0.3-3-0.7-4.5-0.9s-2.7-0.1-4-0.3c-2.9-0.3-5.8-0.9-8.8-1.1c-6.2-0.3-12.1-1.9-18.2-2.7
		c-0.4-0.1-0.8-0.2-1.1-0.4c-2.4-1.1-5-1.6-7.7-1.4c-1,0.1-2,0-3.5,0L51.5,85.3c1.7,0.6,3.1,1.1,4.4,1.5c2.3,0.5,4.7,0.9,7,1.4
		l3.6,0.7L66.7,87.4z M182.4,53.9c-1.6-0.4-3.3-0.5-5-0.4c-5.8-0.3-11.6-0.7-17.4-1.1c-1.9-0.1-3.8-0.2-5.7-0.5
		c-2.9-0.5-5.8-1.3-8.6-1.8c-1.1-0.3-2.2-0.1-3.2,0.3c-1.7,1.3-3.4,2.7-4.9,4.2c-0.8,0.8-1.6,1.6-2.3,2.4c-1.6,1.8-3.1,3.5-5.1,5.8
		c2.7,0.2,4.7,0.4,6.7,0.6c3,0.2,6,0.4,9.1,0.7l9.3,0.7c4.1,0.3,8.3,0.7,12.4,0.8c1.6,0,3.5,0,4.5-1.9c0.3-0.3,0.6-0.5,0.9-0.8
		L182.4,53.9z M127.8,74.9c0-2.9,0.1-5.8,0.1-8.8c-0.1-0.6-0.5-1.1-1-1.4c-0.7-0.3-1.4-0.3-2.1-0.2c-3.8,0.4-7.6,1-11.4,1.4
		c-4.9,0.5-9.9,1-14.8,1.4c-3.6,0.3-7.1,0.6-10.7,1c-4.5,0.4-9,0.9-13.6,1.4c-0.8,0.2-1.6,0.4-2.3,0.6c0.3,0.4,0.7,0.7,1.1,0.8
		c2.8,0.7,5.5,1.3,8.3,2s5.3,1.2,8,1.6c4.8,0.6,9.7,1.1,14.5,1.6c1.1,0.1,2.2,0,3.3,0c1,0,2,0,3,0.2c2,0.5,4,1,6.2,0.5
		C120.3,76.1,124.1,75.6,127.8,74.9L127.8,74.9z M165.1,67.6c-5.9-0.7-11.8-1.9-17.8-1.9s-12-1.2-18-0.8l0.4,10
		C141.6,72.3,153.6,70.8,165.1,67.6L165.1,67.6z"/>
	<path d="M121.3,47.6l-1.8-0.6l0.6-1l1.5,1L121.3,47.6z"/>
	<path d="M46,81c0.2-0.3,0.5-0.5,0.8-0.7c0.4,0.2,0.7,0.5,0.9,0.9c-0.1,0.2-0.3,0.4-0.5,0.6C46.8,81.6,46.4,81.3,46,81z"/>
	<path d="M114.8,46.6c0.8-1,1.4-0.7,2.3,0H114.8z"/>
	<path class="st1" d="M115.7,132.6c-0.2-2.6-0.5-4.6-0.6-6.7c-0.1-2.1-0.2-3.8-0.3-5.7c-0.2-2.5-0.6-5.1-0.8-7.6
		c-0.1-2.7,0-5.4,0-8.1c0-1.3-0.1-2.5,0-3.8s0.1-2.5,0.2-3.8c0.1-0.2,0.1-0.5,0.1-0.7c-0.1-2.3-0.3-4.6-0.4-6.8
		c0-0.7,0.2-1.4,0.2-2.1c0-1.3,0.7-2.8-0.7-4c-0.9,0.2-1.6,1.1-1.5,2c0.1,1.4,0.3,2.7,0.3,4c0,2.8-0.1,5.5-0.1,8.3
		c0,0.3-0.1,0.6-0.1,1c0.1,2.6,0.2,5.2,0.3,7.8c0,0.3,0,0.7,0,1c-0.5,5.2,0.5,10.3,0.6,15.5c0.1,2.1,0.5,4.3,0.6,6.4
		c0.1,1.7-0.2,1.8-1.9,1.5c-0.9-0.2-1.9,0.1-2.8-0.1c-2.8-0.9-5.8-0.8-8.7-1.4c-3.1-0.6-6.2-1.4-9.3-2.2c-1.4-0.3-2.8-0.8-4.1-1.1
		c-1.2-0.3-2.5-0.6-3.8-0.7c-4.5-0.3-8.7-1.8-12.9-3.5c-0.8-0.2-1.4-0.9-1.3-1.8c0.1-1.3,0.3-2.7,0.5-4c0.1-0.8,0.1-1.6,0.1-2.4
		c-0.3-3.3-0.8-6.5-1-9.8c-0.1-2.8,0.1-5.5,0.2-8.3c0-1.2,0.1-2.3,0.2-3.7l6,1.1c1.8,0.4,3.6,0.8,5.4,1.1c3.5,0.6,7,1.2,10.6,1.6
		c2,0.2,3.9,1.2,6,0.9c0.7,0.1,1.5,0.4,2.1,0.8c2.5-1.5,4.1-4,6-6.2c2.1-2.4,4-5,6.1-7.4c1.3-1.5,3.6-1.7,5.2-0.4l0.1,0.1
		c2.5,2,4.9,4.1,7.4,6.1c0.3,0.2,0.5,0.4,0.7,0.7c1.7,2.9,4.4,4.8,6.7,7.1c1.7,1.7,1.8,1.6,3.7,0.3c1-0.6,2.2-1,3.3-1.2
		c4.3-1.1,8.6-2.2,12.9-3.4c5.5-1.5,11-3.1,16.7-4.7c0.3,1.1,0.5,2.2,0.7,3.3c0.2,2.4,0.3,4.9,0.3,7.3c0,2.7-0.4,5.3-0.4,8
		s0.1,5.5,0.3,8.3c0.1,2.4-0.3,3.4-2.4,4.4c-3.4,1.6-7,2.7-10.7,3.3c-1.4,0.2-2.8,0.7-4.1,1c-1.5,0.4-3.1,0.7-4.6,1.1
		c-2.1,0.6-4.2,1.4-6.4,1.9c-5.8,1.4-11.6,2.8-17.5,4.1C120.6,131.6,118.4,132,115.7,132.6z"/>
	<path class="st1" d="M54.8,47c0.7-0.4,1.5-0.6,2.2-0.9c3.8-0.6,7.6,0,11.4,0.2c2.9,0.2,5.8,0.2,8.6,0.6c5.1,0.8,10.2,0.2,15.3,0.7
		c6,0.7,12,1.3,18.1,1.8c0.9,0,1.8,0,2.6,0c4.1,0,6.9,2,8.9,5.4c1.4,2.4,2.8,4.8,4.4,7.3c-1,0.1-1.8,0.2-2.6,0.3
		c-5.2,0.7-10.4,1.4-15.6,2.1c-2.7,0.3-5.4,0.5-8.1,0.8c-2.4,0.3-4.7,0.7-7.1,0.9c-4.1,0.3-8.3,0.2-12.4,0.7
		c-3.3,0.3-6.6,1.1-9.9,1.7c-1.2,0.2-2.3,0.5-3.4,0.6c-1.6-1.1-1.1-3-2.5-4.2c-1.4-1.2-1.9-2.9-2.7-4.4s-1.5-3-2.3-4.5
		s-1.3-3.2-2.1-4.8S55.8,48.7,54.8,47z"/>
	<path class="st1" d="M186.2,80.4c-4.6,1.6-9.1,3.4-13.7,4.9c-3.6,1.2-7.3,2-10.9,3c-3.3,0.9-6.6,1.9-9.9,2.8s-6.4,1.5-9.5,2.3
		c-2.2,0.5-4.3,1-6.5,1.7c-1.6,0.6-3.4,0.3-4.7-0.7c-1.9-1.4-3.6-3.1-5.1-4.9c-2.2-2.2-4.6-4.2-7.1-6.1c-1.5-1.1-2.7-2.4-3.6-4
		c1.6-0.4,3.1-0.9,4.6-1.2c1.8-0.5,3.7-0.8,5.6-1c3.4-0.3,6.8-0.9,10.1-1.7c3.5-0.7,7.1-1.2,10.6-1.8c5.4-1,10.8-2,16.2-3
		c1.9-0.4,3.7-1,5.5-1.6c0.8-0.4,1.8-0.2,2.5,0.3c1.3,1,2.7,1.7,3.9,2.7c3.1,2.6,6.6,4.9,10.2,6.6c0.6,0.3,1.2,0.7,1.8,1.1
		L186.2,80.4L186.2,80.4z"/>
	<path class="st1" d="M66.8,87.4L66.6,89L63,88.3c-2.3-0.5-4.7-0.9-7-1.4c-1.4-0.3-2.7-0.9-4.4-1.5L64.1,72c1.5,0,2.5,0.1,3.5,0
		c2.6-0.2,5.3,0.2,7.7,1.4c0.4,0.2,0.7,0.3,1.1,0.3c6.1,0.8,12,2.4,18.2,2.7c2.9,0.1,5.9,0.7,8.8,1.1c1.3,0.1,2.7,0.1,4,0.3
		s2.9,0.6,4.5,0.9c-1.5,3.6-4.4,5.7-6.5,8.5s-4.6,5.2-6.9,7.8c-1.1-0.3-1.9-0.5-2.6-0.7c-4.2-0.9-8.4-1.6-12.7-2.1
		c-4.9-0.6-9.7-1.9-14.5-2.7C67.4,89.3,67.8,88.1,66.8,87.4z"/>
	<path class="st1" d="M182.4,53.9l-9.5,8.9c-0.3,0.2-0.7,0.5-0.9,0.8c-1,1.9-2.9,1.9-4.5,1.9c-4.1-0.1-8.3-0.5-12.4-0.8l-9.3-0.7
		c-3-0.2-6-0.4-9.1-0.7c-2-0.2-4.1-0.4-6.7-0.6c2-2.2,3.5-4,5.1-5.8c0.7-0.8,1.5-1.6,2.3-2.4c1.5-1.5,3.2-2.9,4.9-4.2
		c1-0.5,2.1-0.6,3.2-0.3c2.9,0.5,5.8,1.3,8.6,1.8c1.9,0.3,3.8,0.4,5.7,0.5c5.8,0.4,11.6,0.8,17.4,1.1
		C179,53.4,180.7,53.5,182.4,53.9z"/>
</g>
</svg>
