<?xml version="1.0" encoding="utf-8"?>
<!-- Generator: Adobe Illustrator 19.2.1, SVG Export Plug-In . SVG Version: 6.00 Build 0)  -->
<svg version="1.1" id="Ebene_1" xmlns="http://www.w3.org/2000/svg" xmlns:xlink="http://www.w3.org/1999/xlink" x="0px" y="0px"
	 viewBox="0 0 236 181.5" style="enable-background:new 0 0 236 181.5;" xml:space="preserve">
<style type="text/css">
	.st0{fill:#1D1D1B;}
	.st1{fill:#FFFFFF;}
</style>
<path class="st0" d="M84.6,100.4c0-0.5,0.3,4.3,0.7,2.8c-0.5-0.8-1.1-0.9-1.8-1c-1.5-0.2-3.1-0.5-4.6-0.6c-0.5,0-1.2,0.1-1.8,0.2
	c-1.6,0.3-3.2,0.4-5,0.2c-1.2-0.1-2.4,0-3.6,0.2c-0.9,0.1-2,0.3-3,0.1c-1.2-0.2-2.4-0.1-3.6,0c-2.3,0.2-4.6,0.3-6.9,0.4
	c-0.1,0-0.3-0.1-0.4-0.1c-3.5-1-7-0.7-10.5-0.2c-2.6,0.3-5.1-0.1-7.8-0.4c-2.2,0.5-4.6,0.3-7-0.3c-2.2-0.5-4.3-0.4-6.5-0.5
	c-1.6,0-3.2,0-4.9,0c-0.5,0-1.1-0.1-2-0.3c0.7-0.3,0.9-0.5,1.2-0.5c3.4,0.1,6.8,0.3,10.1,0.5c1.2,0.1,2.4,0.4,3.6,0.5
	c1.6,0.1,3.2,0,4.9,0c0.7,0,1.2,0,1.9,0c1.4,0.1,2.6,0.2,3.9,0.3c1.6,0.1,3.2,0.1,4.9-0.3c1.8-0.4,3.6-0.4,5.5-0.2
	c3.9,0.4,7.8,0.2,11.8-0.5c0.8-0.2,1.5-0.2,2.3-0.2c1.6,0,3.2,0.1,4.9-0.3c0.3-0.1,0.4-0.1,0.7-0.1c3.1,0.6,6.4,0,9.5,0.1
	c0.7,0,1.4,0.2,2,0.2C83.4,100.5,83.9,100.4,84.6,100.4"/>
<path class="st0" d="M155.3,101c0-0.4-0.3,3.7-0.8,2.4c0.5-0.7,1-0.8,1.7-0.9c1.4-0.2,2.9-0.4,4.5-0.5c0.6,0,1.1,0.1,1.8,0.2
	c1.7,0.3,3.3,0.3,5,0.2c1.1-0.1,2.4,0,3.6,0.2c1,0.1,2,0.3,2.9,0.1c1.1-0.2,2.4-0.1,3.6,0c2.2,0.2,4.5,0.3,6.8,0.3
	c0.3,0,0.4-0.1,0.5-0.1c3.4-0.9,6.9-0.6,10.3-0.2c2.6,0.3,5.1-0.1,7.8-0.3c2.2,0.4,4.5,0.3,6.9-0.3c2-0.4,4.2-0.3,6.4-0.4
	c1.5,0,3.2,0,4.7,0c0.4,0,0.9-0.1,1.9-0.3c-0.6-0.3-0.9-0.4-1.1-0.4c-3.3,0.1-6.6,0.3-9.9,0.4c-1.1,0.1-2.4,0.3-3.6,0.4
	c-1.5,0.1-3.2,0-4.7,0c-0.5,0-1.1,0-1.8,0c-1.3,0.1-2.6,0.2-3.8,0.3c-1.5,0.1-3.2,0.1-4.7-0.3c-1.8-0.3-3.7-0.3-5.5-0.2
	c-4,0.3-7.8,0.2-11.6-0.4c-0.8-0.2-1.5-0.2-2.3-0.2c-1.5,0-3.2,0.1-4.7-0.3c-0.1-0.1-0.4-0.1-0.6-0.1c-3.1,0.5-6.2,0-9.3,0.1
	c-0.6,0-1.4,0.2-2,0.2C156.5,101.1,156,101,155.3,101"/>
<g>
	<path class="st1" d="M170.2,70.7c0,3.2-1.1,15-1.1,15l-0.6,3.5l1.3,6.2l-1.1,5.7l-0.6,18.8l-29,8l-16,3.9l-27-7.1l-19.2-4.8
		l-8.4-1.4l-0.9-3.6L66.9,104l-2.2-24l-14-2.8l-6.1-1L66,65.4l6.9-0.5l36.5,7.5l13.6,1.2l10.2-1.6l26.1-3.6l10.9-2.2V70.7z"/>
	<g id="doc00073520160814150808-43.psd_Bild">
		<title>SK_Website-Animation_Einzelbilder</title>
		<path d="M47.9,76.3c0.5,0.2,1,0.2,1.5,0.2c2-0.3,3.8,0.4,5.7,0.7c2.8,0.5,5.4,1.5,8.1,2.1c5,1.2,10.2,2.1,15.3,3
			c2.2,0.4,4.4,0.5,6.6,0.9c4,0.6,8,1.4,12,2.1c1,0.1,1.9,0.3,2.8,0.6c0.5,0.4,0.8,0.8,1.1,1.3c-0.5,0.3-1,0.6-1.6,0.8
			c-0.4,0-0.8-0.1-1.1-0.3c-1.9-0.9-3.9-1.4-6-1.5c-3.2-0.4-6.5-1-9.7-1.6c-4.3-0.8-8.6-1.5-12.9-2.4c-3.4-0.7-6.6-1.8-10-2.6
			c-2.1-0.5-4.4-0.8-6.5-1.2c-1.5-0.2-3-0.4-4.4-0.6c-1.8-0.3-3.6-0.2-5.3,0.5c-0.7,0.3-1.9,0.9-2.3-0.7c0.8-0.6,2.1-0.8,2.4-2.1
			c0.2-0.3,0.4-0.5,0.7-0.5c4-1.6,8-3.2,11.9-4.9c2.7-1.2,5.2-2.6,8.3-4.1c-0.5-0.3-1-0.6-1.5-0.8c-5.8-1.2-11.5-2.4-17.3-3.6
			c-1.4-0.3-2.8-0.6-4.1-1.1c-0.4-0.2-0.6-0.5-0.7-0.8c0-0.4,0.2-0.7,0.5-0.9c0.8-0.3,1.7-0.4,2.5-0.4c4.1-0.1,8.3,0.1,12.4-0.1
			c6.5-0.3,12.9-1.2,19.2-2.5c2.2-0.5,4.4-0.6,6.6-0.9c3.7-0.6,7.4-1.2,11.2-1.9c0.8,1.8,2.6,2.2,4.3,3.1c2.5,1.2,5.1,2.2,7.7,3.1
			c1.8,0.7,3.8,0.7,5.6,0.1c2.2-0.6,4.5-1,6.7-1.6c1.3-0.5,2.5-1,3.7-1.6c0.6-0.3,1.3-0.6,1.9-0.8c1.4-0.3,2.8-0.6,4.1-0.9
			c0.4-0.1,0.8-0.2,1.1-0.2c3.5,0.1,7,0.3,10.5,0.4c2,0.1,4,0.1,6,0.2c1.1,0.1,2.2-0.2,3.1-0.8c1-0.4,2.2-0.4,3.2-0.1
			c2.6,0.5,5.1,1.2,7.6,1.8c6,1.3,12,1.3,18.1,1.4c2,0.1,4,0.4,5.9,0.9c1.9,0.6,3.9,0.9,5.9,0.9c1.5,0,3,0.1,4.5,0.4
			c0.6,0.2,1.2,0.7,1.4,1.4c-0.1,0.6-0.4,1.2-1,1.4c-2.6,1-5.2,2.4-8.1,2.2c-0.3-0.1-0.6-0.1-0.9,0c-2.5,1.6-5.6,1.1-8.2,2.1
			c-0.2,0.1-0.4,0.2-0.6,0.3c5,2.8,10.4,4.8,16.1,5.7c0.7,0.1,1.4,0.3,2,0.6c0.5,0.4,0.9,1,1,1.6s-0.4,0.9-1.2,1
			c-2.6,0.5-5.2,1.2-7.8,1.9c-4.9,1.3-9.8,2.7-14.9,4.1c-0.3,1.4-0.8,2.8-1,4.3c-0.3,1.7-0.4,3.5-0.5,5.2c0,1.4,0.1,2.8,0.3,4.3
			c0.2,0.5,0.2,1.1,0.2,1.6c-0.8,2.2-0.4,4.4-0.3,6.6c0.1,2.4-0.1,4.8-0.5,7.1c-0.5,3.3-0.4,6.7,0.6,9.9c-0.8,0.4-1.7,0.7-2.5,1
			c-9.9,2.1-19.7,4.6-29.4,7.7c-3.8,1.3-7.7,1.9-11.6,2.9c-0.8,0.2-1.6,0.5-2.5,0.9c-1.8-1.8-4.3-2.1-6.6-2.8
			c-2.7-0.9-5.6-1.4-8.4-2c-6-1.4-12-2.8-17.9-4.2c-5.7-1.4-11.3-3.2-17.1-4.3c-1.8-0.3-3.5-0.7-4.7,1c-1.7-0.6-1.7-1.8-1.9-3.1
			c-0.4-4.1-0.6-8.2-0.6-12.4c-0.1-3.1-0.7-6.2-1-9.3c-0.3-2.9-0.4-5.9-0.6-8.8c-0.1-1.5-0.3-3-0.5-4.6c0.7-0.1,1.3,0.3,1.5,1
			c0,0.1,0,0.2,0,0.3c0.3,2.6,0.6,5.2,0.9,7.8c0.4,4.2,0.8,8.4,1.2,12.6c0.1,1.1,0.1,2.2,0.1,3.3c0,3.4-0.2,6.7,1.4,10
			c2.5,0.5,5.2,1.2,8,1.6c5.5,0.8,10.6,2.9,16,4.1c6.6,1.6,13.1,3.5,19.9,4.3c2.2,0.4,4.3,1,6.5,1.6c0.9,0.2,1.8,0.3,2.7,0.3
			c0.3-2.4,0.3-4.9,0-7.3c-0.1-1.2,0-2.4,0-3.6c0.1-0.7,0.1-1.4,0-2.1c-0.6-2.1-0.6-4.3,0-6.4c0.1-0.5,0.1-1,0-1.4
			c-0.5-6.4-0.6-12.9-0.1-19.3c0.1-1.2,0.1-2.4,0.2-3.8c0.7,0.5,1.1,1.4,1,2.2c0,4.7,0.3,9.4,0.1,14.1c-0.2,2.2-0.1,4.5,0.2,6.6
			c0.1,0.4,0.1,0.8,0,1.2c-1,2.7,0,5.4-0.2,8.1c-0.2,3.1,0.6,6.2,0.6,9.3c0.1,0.9,0.2,1.8,0.5,2.7c0.8-0.1,1.5-0.1,2.3-0.3
			c1.2-0.4,2.5-0.5,3.7-0.4c0.4,0.1,0.8,0.1,1.2-0.1c3.7-1.9,7.9-2.3,11.9-3.5c6.3-1.9,12.8-3.4,19.2-4.9c1.6-0.2,3.1-1,4.1-2.2
			c0.1-3.7,0.2-7.3,0.3-11c0-0.9,0.3-1.8,0.2-2.6c-0.2-3.4,0.6-6.7,0.1-10.1c-0.2-1.7-0.2-3.3-1.2-4.8c-0.2-0.6,0-1.2,0.3-1.7
			c1.2-2,1.3-4.1,1.4-6.5c-1.7,0.1-3.4,0.4-5.1,0.7c-3.4,0.9-6.9,1.4-10.4,1.3c-0.7,0-1.4,0.2-2,0.5c-1.3,0.7-2.9,0.2-3.7-1
			c-0.3-0.8-1.3-1.2-2.1-0.8c0,0,0,0-0.1,0c-0.8,0.4-1.8,0-2.2-0.8c-0.3-0.4-0.7-0.8-1.2-1c-4.7-1.9-9.5-3.5-14.4-4.8
			c-1.1-0.3-2.3-0.4-3.4-0.5c-0.5,1.6,0.9,3-0.5,4.5l-1.2-3.2c-3.6,2.4-7.4,3.9-10.5,6.5c-1.6,1.1-3.3,2.1-5.1,3
			c-1.1,0.7-2.2,1.4-3.4,2.1c-0.8-1.8-0.7-2.2,0.7-3c1.6-0.8,3.3-1.6,4.9-2.5c4-2.4,7.9-4.8,11.8-7.2c0.5-0.3,0.9-0.7,1.3-1.1
			c-2.9-0.4-5.4-0.7-7.8-1.1c-3.5-0.6-7.1-1.2-10.6-1.9c-0.4-0.1-0.8-0.3-1.1-0.3c-2.9-0.4-5.8-0.7-8.8-1.1c-1.1-0.2-2.2-0.5-3.2-1
			c-3.5-1.5-7.3-1.6-11-2.2s-7.3-0.8-10.9-1.1c-0.5-0.1-1.1,0-1.6,0.2c-1.6,0.8-3.2,1.8-4.8,2.6c-3.6,1.8-7.3,3.5-11,5.2
			c-1.2,0.6-2.4,1.2-3.6,1.8L47.9,76.3z M127.5,74.4c3,0.9,5.5,1.8,8.1,2.6c2.8,0.9,5.6,1.6,8.5,2.5c1.4,0.3,2.8,0.8,4,1.5
			c1.4,1,3.1,1.4,4.7,1.2c1.8-0.1,3.7-0.1,5.5-0.3c1.3-0.2,2.6-0.6,3.9-0.9c0.8-0.2,1.7-0.4,2.5-0.5c2.9-0.4,5.9-0.4,8.8-1.1
			c5.4-1.4,10.7-3.1,16-4.7c0.5-0.1,0.9-0.3,1.8-0.7c-0.6-0.3-1.2-0.5-1.8-0.6c-4.2-0.8-8.3-2.2-12.1-4.2c-3.4-1.7-7.2-2.2-10.9-1.4
			c-7.5,1.7-15.2,3.1-22.8,4c-2.2,0.3-4.4,0.5-6.6,0.8c-2.8,0.4-5.6,0.8-8.4,1.2C128.3,73.9,127.9,74.1,127.5,74.4L127.5,74.4z
			 M188,60.8c-2.4-0.7-4.6-1.3-6.8-1.9c-0.3-0.1-0.6-0.1-1-0.1l-6.4-0.1c-1.3,0-2.6,0-3.8-0.1c-4-0.6-8.1-0.2-12-1.6
			c-0.1,0-0.2,0-0.2,0l-6.7-1.5c-1.2,0.3-2.3,0.5-3.5,0.6c-4,0.1-8.1,0-12.1,0c-1.2,0-2.4,0.4-3.5,0.4c-2.8-0.1-5.6,0.1-8.3,0.7
			c-0.7,0.1-1.4,0.3-2,0.7c-1.3,0.9-2.9,1.4-4.5,1.5c-1.6,0.2-3.2,0.6-4.8,0.9v0.5c1.3,0.1,2.5,0.3,3.8,0.3c2.6,0.1,5.3-0.1,7.9,0.3
			c5,0.7,10,1.2,15,1.4c0.4,0,0.8,0,1.2,0.1c2.8,0.3,5.5,0.6,8.3,0.8c2.1,0.2,4.4,0,6.4,0.6c3.6,1,7.4,1.4,11.1,1.2
			c4.2,0,8.5,0.7,12.5-1.2c0.5-0.1,1.1-0.2,1.6-0.2c0.6,0,1.1-0.1,1.6-0.3c1.2-0.7,2.7-1.1,4.1-1.1c0.5-0.1,0.9-0.2,1.4-0.4
			c0.5,0,0.9-0.4,0.8-0.9C188.1,61.1,188.1,60.9,188,60.8L188,60.8z M108.4,71c0.4,0.1,0.9,0.2,1.5,0.3c2.9,0.4,5.9,0.6,8.8,1.1
			c2.9,0.7,6,0.7,8.9,0c4.3-1,8.6-1.7,13-2c5.4-0.4,10.8-1.1,16.1-2.1c1.9-0.4,3.8-0.7,5.7-1v-0.5c-1.3-0.1-2.6-0.2-3.9-0.4
			c-2.6-0.4-5.2-1-7.8-1.2c-5.9-0.5-11.8-0.8-17.7-1.2c-0.5,0-0.9-0.2-1.4-0.2c-4-0.3-8.1-0.7-12.1-1c-1.3-0.1-2.5-0.1-3.8-0.2
			c-2-0.1-4.1-0.3-6.1-0.5c-0.5,1.1-1,1.9-1.3,2.8c-0.2,0.5-0.4,1-0.4,1.5C108,67.9,108.2,69.4,108.4,71z M104.1,60.6
			c-0.1-0.2-0.2-0.5-0.4-0.7c-2.2-0.5-4.6-0.6-6.4-2.3c-0.3-0.2-0.7-0.3-1.1-0.4c-1.9-0.5-3.8-1-5.8-1.4c-1-0.3-2-0.4-3-0.5
			c-2.7,0.1-5.4,0.4-8.1,0.7c-6.2,0.8-12.5,1.6-18.7,2.5c-0.5,0-1.1,0.2-1.5,0.5c-1.1,1.3-2.4,1.1-3.7,0.9c-1.8-0.3-3.6-0.2-5.4,0.2
			c0.7,0.4,1.5,0.7,2.4,0.9c3,0.7,5.9,1.2,8.8,2c3.3,1,6.9,1,10.2,0c0.7-0.3,1.4-0.4,2.1-0.5c3.8,0.3,7.6-0.8,11.4-0.4
			C91.3,62.8,97.6,60.9,104.1,60.6z M74.1,64.5c3,0.5,5.9,1.1,8.9,1.4c3.4,0.2,6.8,1.1,9.8,2.6c0.6,0.3,1.2,0.4,1.8,0.4
			c3,0.1,5.9,1.5,9,1c0.5,0.1,1.1,0.2,1.6,0.5c0.5,0.2,1,0.3,1.8,0.5c0.2-3.2-1.1-5.9-1.2-9C95.1,63.7,84.7,64.1,74.1,64.5
			L74.1,64.5z"/>
		<path d="M126.4,88.4c-0.4-0.4-0.8-0.9-1.1-1.4c0.1-0.3,0.4-0.5,0.7-0.7c0.4,0,0.8,0.3,1,0.6C126.9,87.4,126.7,87.9,126.4,88.4z"/>
		<path class="st1" d="M127.5,74.4c0.4-0.3,0.7-0.5,1.1-0.7c2.8-0.4,5.6-0.8,8.4-1.2c2.2-0.3,4.4-0.5,6.6-0.8
			c7.7-0.9,15.3-2.3,22.8-4c3.7-0.8,7.6-0.3,10.9,1.4c3.8,2,7.9,3.4,12.1,4.2c0.6,0.2,1.2,0.4,1.8,0.6c-0.9,0.3-1.4,0.5-1.8,0.7
			c-5.3,1.6-10.6,3.3-16,4.7c-2.8,0.7-5.8,0.8-8.8,1.1c-0.9,0.1-1.7,0.3-2.5,0.5c-1.3,0.3-2.6,0.7-3.9,0.9c-1.8,0.2-3.6,0.2-5.5,0.3
			c-1.7,0.2-3.4-0.2-4.7-1.2c-1.2-0.7-2.6-1.2-4-1.5c-2.8-0.9-5.6-1.7-8.5-2.5C133.1,76.2,130.5,75.4,127.5,74.4z M139.6,77.5
			c0.9,0,1.7,0,1.8-0.9c-0.1-0.4-0.5-0.7-0.9-0.9C139.5,75.7,139.5,76.5,139.6,77.5z"/>
		<path class="st1" d="M188,60.8c0.3,0.4,0.2,0.9-0.2,1.2c-0.1,0.1-0.3,0.2-0.5,0.2c-0.4,0.2-0.9,0.3-1.4,0.4
			c-1.4,0-2.9,0.4-4.1,1.1c-0.5,0.2-1.1,0.3-1.6,0.3c-0.6,0-1.1,0.1-1.6,0.2c-4,1.9-8.3,1.2-12.5,1.2c-3.7,0.2-7.5-0.2-11.1-1.2
			c-2-0.6-4.3-0.4-6.4-0.6c-2.8-0.2-5.5-0.5-8.3-0.8c-0.4,0-0.8-0.1-1.2-0.1c-5-0.2-10-0.6-15-1.4c-2.6-0.3-5.3-0.2-7.9-0.3
			c-1.3,0-2.5-0.2-3.8-0.3v-0.5c1.6-0.3,3.2-0.7,4.8-0.9c1.6-0.1,3.1-0.6,4.5-1.5c0.6-0.4,1.3-0.6,2-0.7c2.7-0.6,5.5-0.8,8.3-0.7
			c1.1,0.1,2.3-0.4,3.5-0.4c4,0,8.1,0.1,12.1,0c1.2-0.1,2.4-0.3,3.5-0.6l6.7,1.4c0.1,0,0.2,0,0.2,0c3.9,1.5,8,1,12,1.6
			c1.3,0.1,2.5,0.2,3.8,0.1l6.4,0.1c0.3,0,0.6,0,1,0.1C183.4,59.5,185.6,60.1,188,60.8z"/>
		<path class="st1" d="M104.1,60.6c-6.6,0.2-12.8,2.1-19.2,1.5c-3.9-0.4-7.6,0.8-11.4,0.4c-0.7,0-1.4,0.2-2.1,0.5
			c-3.3,1-6.9,1-10.2,0c-2.9-0.8-5.9-1.3-8.8-2c-0.8-0.2-1.6-0.4-2.4-0.9c1.7-0.5,3.6-0.6,5.4-0.2c1.4,0.3,2.7,0.4,3.7-0.9
			c0.4-0.3,1-0.5,1.5-0.5c6.2-0.8,12.5-1.7,18.7-2.5c2.7-0.3,5.4-0.6,8.1-0.7c1,0,2,0.2,3,0.5c1.9,0.4,3.8,0.9,5.8,1.4
			c0.4,0,0.8,0.2,1.1,0.4c1.8,1.7,4.2,1.8,6.4,2.3C103.8,60.1,104,60.4,104.1,60.6z"/>
		<path d="M139.6,77.5c-0.1-1-0.1-1.8,0.9-1.8c0.4,0.1,0.8,0.4,0.9,0.9C141.3,77.5,140.5,77.5,139.6,77.5z"/>
	</g>
</g>
</svg>
