<?xml version="1.0" encoding="utf-8"?>
<!-- Generator: Adobe Illustrator 19.2.1, SVG Export Plug-In . SVG Version: 6.00 Build 0)  -->
<svg version="1.1" id="Ebene_1" xmlns="http://www.w3.org/2000/svg" xmlns:xlink="http://www.w3.org/1999/xlink" x="0px" y="0px"
	 viewBox="0 0 236 181.5" style="enable-background:new 0 0 236 181.5;" xml:space="preserve">
<style type="text/css">
	.st0{fill:#1D1D1B;}
	.st1{opacity:0.45;enable-background:new    ;}
	.st2{fill:#FFFFFF;}
</style>
<path class="st0" d="M64.3,100.4c0-0.5,0.2,4.3,0.5,2.8c-0.4-0.8-0.8-0.9-1.2-1c-1-0.2-2.2-0.5-3.2-0.6c-0.4,0-0.9,0.1-1.2,0.2
	c-1.1,0.3-2.3,0.4-3.5,0.2c-0.9-0.1-1.7,0-2.6,0.2c-0.7,0.1-1.4,0.3-2.1,0.1c-0.9-0.2-1.7-0.1-2.6,0c-1.6,0.2-3.2,0.3-4.9,0.4
	c-0.1,0-0.2-0.1-0.3-0.1c-2.5-1-5-0.7-7.4-0.2c-1.8,0.3-3.6-0.1-5.5-0.4c-1.5,0.5-3.2,0.3-5-0.3c-1.5-0.5-3-0.4-4.6-0.5
	c-1.1,0-2.3,0-3.4,0c-0.4,0-0.8-0.1-1.4-0.3c0.5-0.3,0.7-0.5,0.9-0.5c2.4,0.1,4.8,0.3,7.1,0.5c0.9,0.1,1.7,0.4,2.6,0.5
	c1.1,0.1,2.3,0,3.4,0c0.5,0,0.9,0,1.3,0c1,0.1,1.8,0.2,2.8,0.3c1.1,0.1,2.3,0.1,3.4-0.3c1.2-0.4,2.6-0.4,3.9-0.2
	c2.8,0.4,5.5,0.2,8.3-0.5c0.6-0.2,1-0.2,1.6-0.2c1.1,0,2.3,0.1,3.4-0.3c0.2-0.1,0.3-0.1,0.5-0.1c2.2,0.6,4.5,0,6.7,0.1
	c0.5,0,1,0.2,1.4,0.2C63.4,100.5,63.8,100.4,64.3,100.4"/>
<path class="st0" d="M167.7,100.3c0-0.5-0.2,4.7-0.6,3c0.4-0.9,0.8-1,1.4-1.1c1.1-0.2,2.4-0.5,3.6-0.7c0.5,0,0.9,0.1,1.5,0.2
	c1.4,0.3,2.7,0.4,4.1,0.2c0.9-0.1,2,0,2.9,0.2c0.8,0.1,1.7,0.3,2.4,0.1c0.9-0.2,2-0.1,2.9,0c1.8,0.2,3.6,0.3,5.5,0.4
	c0.2,0,0.3-0.1,0.4-0.1c2.8-1.1,5.6-0.8,8.4-0.2c2.1,0.3,4.2-0.1,6.4-0.4c1.8,0.5,3.6,0.3,5.6-0.3c1.7-0.5,3.4-0.4,5.2-0.5
	c1.2,0,2.6,0,3.9,0c0.3,0,0.7-0.1,1.6-0.3c-0.5-0.3-0.7-0.5-0.9-0.5c-2.7,0.1-5.4,0.3-8.1,0.5c-0.9,0.1-2,0.4-2.9,0.5
	c-1.2,0.1-2.6,0-3.9,0c-0.4,0-0.9,0-1.5,0c-1,0.1-2.1,0.2-3.1,0.3c-1.2,0.1-2.6,0.1-3.9-0.3c-1.5-0.4-3-0.4-4.5-0.2
	c-3.2,0.4-6.4,0.2-9.5-0.5c-0.6-0.2-1.2-0.2-1.9-0.2c-1.2,0-2.6,0.1-3.9-0.3c-0.1-0.1-0.3-0.1-0.5-0.1c-2.5,0.7-5.1,0-7.6,0.1
	c-0.5,0-1.1,0.2-1.7,0.2C168.7,100.4,168.2,100.3,167.7,100.3"/>
<g id="doc00073520160814150808-51.psd_Bild">
	<title>SK_Website-Animation_Einzelbilder</title>
	<path d="M50.4,139.8l-0.8,2c-1.2,0.5-2.6,0.4-3.7-0.4c-0.9-0.8-1.3-2.1-0.7-3.2c1.9-3,3.9-6.1,5.9-9c4.9-3,7.3-8.5,11.8-11.8
		c0.2-0.3,0.4-0.6,0.5-1c-3.8,1.6-7.1,3.1-9.7,6c-0.8,1-1.9,1.9-3,2.5c-0.5,0.3-1.2,0.7-1.6,1.2c-0.6,0.4-1.3,0.7-1.8,1
		c-1.6-1.2-2.4-3-2.1-4.9c0.2-3.8,0.3-7.5,0.1-11.3c0-5.6,0-11.4-0.1-17.1c-0.2-6.2-0.5-12.3-0.8-18.5c-0.1-1.7-0.3-3.3-1.9-4.4
		c0.1-1,0.8-2,1.9-2.3c3.5-1.2,5.6-4,8.5-6.1c1-0.8,2-1.8,3-2.6c2.2-1.7,4.6-3.3,6.8-5c-0.7-3,0.6-4.6,2.9-6.3
		c2.4-1.8,4.4-4.1,5.8-6.8c0.6-1.4,1.4-2.7,2.1-4c0.3-0.8,1.3-1.3,2.1-0.9c0.1,0.1,0.3,0.1,0.4,0.2c1.2,0.5,2.4,0.8,3.7,0.8
		c4.7,0.3,9.3,0.6,14,0.7c4.3,0.2,8.6-0.1,12.8,0.4c5.9,0.6,11.6,0,17.5-0.4c4-0.2,8.1-0.2,12,0c6.4,0.2,12.9,0.6,19.2,0.8
		c1.5,0,3-0.9,4.6,0.5l-0.9,1.9c0,0.2,0.1,0.3,0.2,0.4c2.9,2.7,4.7,6.3,7.1,9.3c0.9,1.2,2.1,2.4,2.4,3.8c0.3,1.7,1.7,2.3,2.3,3.6
		c0.7,1.4,1.6,2.7,2.5,4s2,2.5,3,3.7c1,1.3,2.1,2.4,3.2,3.5c1.7,1.5,2.8,3.3,5,4.4c1.3,0.6,2,2.5,2.9,4c-1.2,0.1-1.2,0.1-2.8-1.3
		c-0.1,1.4-0.3,2.4-0.3,3.6c0,3.6,0.3,7,0.2,10.6c-0.2,6.3-0.6,12.6-0.8,18.7c-0.1,4.1,0,8.2,0.1,12.2c0,0.1,0,0.2,0,0.2
		c-0.7,3.3,1.6,4.9,3.9,6.4c0.9,0.6,1.3,1.3,0.6,2.3c-1.5,0.7-2.3-0.3-3.3-1.2c-0.6,0.5-1.3,1.7-2.2,0.8c-0.6-0.5-0.8-1.4-0.8-2.2
		c1-1.8-0.3-2.5-1.3-3.2c-2.6-2-5.2-3.9-8.1-5.5c0.4,0.6,0.8,1.2,1.3,1.7c1.6,1.7,3.1,3.2,4.7,4.8c1.2,1.2,2.6,2.2,2.3,4.2
		c0.1,0.4,0.3,0.7,0.6,1c1.2,1.8,2.4,3.7,3.6,5.4c0.3,0.5,0.5,1,0.7,1.6c0.5,1.5,0,2.1-1.5,2.1c-0.8,0-1.7,0-2.5,0
		c-10.3-0.3-20.5-0.6-30.9-0.8c-7-0.1-14,0.2-21,0.1c-8.1-0.1-16-0.5-24.1-0.8c-2.3-0.1-4.7,0-7,0s-4.8-0.2-7.2-0.3
		c-2.9-0.1-5.9-0.6-8.8-0.3c-7.3,0.7-14.5,0.1-21.9,0.5c-2.3,0.1-4.6,0.6-6.9,0.8C53,140.1,51.6,140,50.4,139.8z M152,116.2
		c0-0.8,0.1-1.2,0.1-1.5c-0.1-3-0.1-6.2-0.2-9.2c0-1.4,0-2.6-0.1-4s-0.2-2.5-0.2-3.8c0.1-5.6,0.2-11.4,0.3-17.1c0-1.5,0-3-0.2-4.5
		c-0.2-1.8-0.5-2-2.3-2c-11.5,0.2-23,0.2-34.5-0.4c-5.5-0.3-11-0.7-16.5-0.9c-4.3-0.1-8.5,0.1-12.8,0c-1.7-0.1-3.5,0.1-5.1,0.6
		c-1.3,7.4-0.4,14.8,0.2,22c0.4,5.4,1,11,0.6,16.4c0,1,0.1,2.1,0.3,3.1c2.4,0.1,4.7,0.3,6.9,0.2c9.9-0.1,19.9-0.5,29.8-0.4
		c7.2,0.1,14.5,0.7,21.8,1C144,116.3,147.9,116.2,152,116.2z M48.3,137.5c3.1,0.1,5.9,0.2,8.6,0.2c3.3,0,6.7-0.1,10-0.2
		c6.8-0.2,13.7-0.5,20.5-0.5c3.5,0,6.8,0.4,10.3,0.5c5.4,0.2,10.9,0.1,16.3,0.4c8.2,0.4,16.3,0.6,24.6,0.3c3-0.1,6-0.3,9-0.2
		c3.2,0,6.5,0.3,9.7,0.4c7.5,0.2,15.1,0.4,22.5,0.6c0.8,0,1.8-0.1,2.6-0.2c-0.2-3.6-2.1-6-4.1-8.4c-0.2-0.2-0.3-0.5-0.3-0.8
		c0.8-1-0.1-1.5-0.5-2c-2.5-2.9-5-5.9-7.4-8.8c-0.3-0.4-0.7-0.6-1.2-0.7c-2.5-0.2-5-0.5-7.4-0.4c-3.6,0-7.2,0.3-10.8,0.4
		c-8.4,0.3-16.7-0.3-25.1-0.7c-8.4-0.4-16.5-0.4-24.8-0.5c-4.7,0-9.5,0.3-14.3,0.4c-5.5,0-11-0.1-16.5,0c-1.6-0.1-3.1,0.3-4.6,1
		c-1.9,1.3-3.6,2.8-5,4.5c-1.7,1.8-2.8,4.1-4.6,5.5c-2.2,1.9-3.9,4.2-5.8,6.3C49.3,135.5,48.8,136.5,48.3,137.5z M152.3,46.1
		c4.3,1.9,8.4,4.1,12.2,6.7c-1.9-4.6-5.8-7.2-7.6-11.3c-1.3-0.1-2.4-0.2-3.6-0.3c-4-0.1-7.8-0.1-11.8-0.2c-5.3-0.1-10.7-0.3-16-0.4
		c-0.9,0-1.8,0.2-2.7,0.2c-4.3,0.2-8.5,0.5-12.8,0.6c-2.4,0.1-4.8-0.2-7.2-0.3c-0.6,0-1.2,0-1.8,0c-5.1-0.2-10.4-0.3-15.5-0.5
		c-3.7-0.2-7.4-0.4-10.8-0.7L66.5,52c2,2.1,2,2.2,4.8,2.4c0.5,0,1.2-0.1,1.8,0c2.5,0.2,5.1,0.6,7.6,1.3c1.2,0.4,2.3,0.6,3.6,0.4
		c1.2-0.1,2.3-0.2,3.5-0.2c1,0,2,0.2,3,0.2c7.1,0.2,14.1,0.3,21.2,0.5c1.6,0.1,3.1,0.1,4.7,0c3.3-0.4,6.7-0.4,9.9,0
		c6.3,0.4,12.4,0.4,18.7,0.6c0.4,0,0.8,0,1.3-0.1c4.9-0.9,9.8-0.5,14.8-0.1c1.5,0.1,2.9,0.5,4.4-0.5
		C162.5,51.3,156.7,49.6,152.3,46.1L152.3,46.1z M71,59.1c3.1,3.7,6.3,7.2,9.5,10.9c0.5,0.5,1.2,0.8,1.9,0.8c2.5,0.1,5,0.1,7.5,0.1
		c5.5,0.1,11.2,0.2,16.7,0.4c6.7,0.3,13.3,0.8,20,1s13.2,0.1,19.8,0c2.5,0,5.2,0.4,7.2-1.9l1.6,1.3c3.3-4.1,7-7.6,9.9-12.3
		c-2.2-0.2-4.1-0.4-6-0.4c-3.5-0.1-7-0.1-10.5-0.1c-2.7,0-5.4,0-8.3,0c-1-0.1-2.2-0.1-3.2,0c-3.9,0.4-7.8,0.3-11.7-0.3
		c-2.3-0.2-4.6-0.3-7-0.3c-2.9,0-5.9,0.2-8.8,0.2c-0.8,0-1.7,0-2.5,0c-5.4-0.1-10.9-0.1-16.2-0.2c-3-0.1-6-0.4-9-0.6
		c-1.5-0.1-2.9-0.2-4.4-0.4c-1.7-0.2-3.5-0.5-5.1-0.7L71,59.1z M64.4,55.9c-0.9,0.7-1.9,1.4-2.6,2c-2.9,2.4-6.5,4.2-8.8,7.4
		c-0.4,0.4-0.9,0.7-1.5,1c-1.8,1.4-3.5,2.8-5,4.4c-0.6,0.8-0.9,1.8-0.8,2.7c0.1,6.1,0.4,12.1,0.6,18.3c0.1,2.1,0.3,4.2,0.4,6.3
		c0.2,7.5,0.3,15.2,0.5,22.8c0.1,1,0.3,2,0.6,3c1.7-0.8,3.2-1.8,4.8-2.8c2-1.8,4.2-3.2,6.6-4.4c1.7-0.8,3.3-1.8,4.8-2.6
		c-0.2-1.2-0.3-2.3-0.3-3.6c0-3.1,0.2-6.3,0.3-9.4c0.1-4.3,0.1-8.7,0.2-13s0-8.7,0.1-13c0-1,0.1-2.2,0.1-3.2c0-1.4,0.1-2.8,0.1-4.2
		c0-0.5-0.1-0.9-0.1-1.5c0-1.8,0-3.7-0.1-5.4C64.4,59.2,64.4,57.8,64.4,55.9L64.4,55.9z M168,60c0.2,4.6,0.5,9,0.5,13.5
		c0,2.7-0.8,5.4-0.7,8.2c0.1,6.9-1.5,13.7,0.2,20.7c0.7,3,0.5,6.3,0.6,9.5c-0.1,1.4,0.4,2.6,1.5,3.6c1.8,1.5,3.2,3.1,5,4.5
		s3.8,2.9,6,4.6c0.3-0.6,0.5-1.3,0.6-2c0-5.4,0.2-10.9,0.7-16.2c0.3-4,0.4-8.1,0.3-12c0-5.9-0.1-11.7-0.1-17.6c0-1.2-0.4-2.3-1.3-3
		c-3.3-3.5-6.6-7.1-9.8-10.7C170.5,61.9,169.2,60.8,168,60L168,60z M67.3,57.3l-0.5,0.1c-0.1,3.3-0.4,6.6-0.3,9.9c0.2,2,0.1,4-0.4,6
		c-0.1,0.4-0.2,0.8-0.2,1.3c0.3,3.6,0.3,7.1,0.1,10.8c-0.1,3.8,0.2,7.5,0.1,11.3c-0.1,5-0.3,9.9-0.4,15c0.1,1.2,0.2,2.2,0.4,3.3
		c4.7,1.3,9.3-0.2,14,0.3c-0.2-1.5-0.7-2.8-0.5-4c0.8-4.5,0.2-9-0.1-13.4c-0.3-5.5-0.6-11.1-0.8-16.7c-0.1-3.7,0.9-7.4-1.8-10.6
		c-0.7-4.2-4.2-6.5-6.2-9.5c-2.2,0.3-1,2.4-2.2,3.5C67.2,62.1,68.1,59.5,67.3,57.3L67.3,57.3z M154,115.7c3.7,0,6.9,0,10.1,0
		c2.6,0,2.9-0.3,2.8-2.9c-0.1-3.2-0.4-6.5-0.6-9.7c-0.2-2.9-0.6-5.9-0.6-8.8c0-3.6,0.2-7,0.3-10.5c0-1.2,0.2-2.3,0.3-3.5
		c0.1-1.5,0.3-2.8,0.4-4.2c0.1-0.9,0.2-2,0.1-3c-0.1-3.7-0.2-7.3-0.4-11c-0.1-0.3-0.3-0.6-0.5-0.8c-1.6,1.9-3.2,3.7-4.7,5.6
		c-2.2,2.9-5.2,5.2-6.5,8.8c-1.4,0.6-1.4,2-1.5,3.2c-0.1,3-0.3,6.1-0.3,9c0.1,4.8,0.3,9.6,0.4,14.5
		C153.6,106.8,153.8,111.2,154,115.7L154,115.7z"/>
	<path class="st1" d="M152,116.1c-4.1,0-8.1,0.1-11.9,0c-7.2-0.3-14.5-1.1-21.8-1.1c-9.9-0.1-19.9,0.2-29.8,0.4
		c-2.2,0-4.5-0.1-6.9-0.2c-0.2-1.1-0.3-2.1-0.3-3.2c0.5-5.6-0.1-11.1-0.6-16.6c-0.6-7.4-1.5-14.8-0.2-22.1c1.7-0.5,3.3-0.8,5.1-0.6
		c4.3,0.1,8.5-0.2,12.8,0c5.5,0.2,11,0.6,16.5,0.9c11.5,0.6,23,0.6,34.5,0.4c1.7,0,2,0.1,2.3,2c0.2,1.5,0.2,3.1,0.2,4.5
		c-0.1,5.7-0.2,11.5-0.3,17.2c0,1.3,0.2,2.5,0.2,3.8s0.1,2.6,0.1,4c0.1,3.1,0.1,6.2,0.2,9.3C152,114.8,152,115.1,152,116.1z"/>
	<path class="st2" d="M48.3,137.5c0.5-1,1-2,1.8-2.9c1.9-2.1,3.5-4.4,5.8-6.3c1.9-1.5,3-3.8,4.6-5.5c1.5-1.7,3.1-3.2,5-4.5
		c1.4-0.7,3-1.2,4.6-1c5.5-0.1,11,0.1,16.5,0c4.7,0,9.5-0.4,14.3-0.4c8.3,0,16.5,0,24.8,0.5s16.7,1,25.1,0.7
		c3.6-0.1,7.2-0.4,10.8-0.4c2.5,0,5,0.2,7.4,0.4c0.4,0.1,0.8,0.4,1.2,0.7c2.5,2.9,5,5.9,7.4,8.8c0.5,0.6,1.4,1,0.5,2
		c0,0.3,0.1,0.6,0.3,0.8c2,2.3,3.9,4.7,4.1,8.4c-0.8,0.1-1.8,0.2-2.6,0.2c-7.5-0.2-15.1-0.4-22.5-0.6c-3.2-0.1-6.5-0.4-9.7-0.4
		c-3,0-6,0.1-9,0.2c-8.2,0.4-16.3,0.1-24.6-0.3c-5.4-0.2-10.9-0.2-16.3-0.4c-3.5-0.1-6.8-0.5-10.3-0.5c-6.8,0.1-13.7,0.3-20.5,0.5
		c-3.3,0.1-6.7,0.2-10,0.2C54.1,137.7,51.4,137.6,48.3,137.5z M153.9,123.5c0-1.6,0-1.6-0.8-1.6L153.9,123.5z M168.2,135.5
		c-0.1-0.3-0.3-0.5-0.5-0.7c-0.2,0-0.4,0-0.6,0.1l0.4,1L168.2,135.5z"/>
	<path class="st2" d="M152.3,46.1c4.5,3.3,10.3,5.2,13.4,10.6c-1.5,1-3,0.6-4.4,0.5c-4.9-0.4-9.8-0.8-14.8,0.1
		c-0.4,0.1-0.8,0.1-1.3,0.1c-6.3-0.2-12.6-0.1-18.7-0.6c-3.3-0.4-6.7-0.4-9.9,0c-1.6,0.1-3.1,0.1-4.7,0c-7.1-0.2-14.1-0.3-21.2-0.5
		c-1,0-2-0.2-3-0.2c-1.2,0-2.3,0-3.5,0.2c-1.2,0.1-2.4,0-3.6-0.4c-2.5-0.6-5-1-7.6-1.3c-0.5-0.1-1.2,0.1-1.8,0
		c-2.8-0.2-2.8-0.2-4.8-2.4L74.6,40c3.5,0.2,7.1,0.5,10.8,0.7c5.1,0.2,10.4,0.4,15.5,0.5c0.6,0,1.2,0,1.8,0c2.4,0.1,4.8,0.3,7.2,0.3
		c4.3-0.1,8.5-0.4,12.8-0.6c0.9,0,1.9-0.2,2.7-0.2c5.3,0.1,10.7,0.3,16,0.4c4,0.1,7.8,0.1,11.8,0.2c1.2,0,2.3,0.2,3.6,0.3
		c1.9,4.1,5.8,6.7,7.6,11.3C160.6,50.3,156.5,48,152.3,46.1z"/>
	<path class="st1" d="M71,58.9l1.5-2.7c1.7,0.2,3.3,0.5,5.1,0.8c1.5,0.2,2.9,0.3,4.4,0.4c3,0.2,6,0.6,9,0.6
		c5.4,0.1,10.9,0.1,16.2,0.2c0.8,0,1.7,0.1,2.5,0c2.9-0.1,5.9-0.2,8.8-0.2c2.3,0,4.7,0,7,0.3c3.9,0.6,7.8,0.6,11.7,0.3
		c1-0.1,2.2-0.1,3.2,0c2.7,0,5.4,0,8.3,0c3.5,0,7,0,10.5,0.1c1.9,0,3.8,0.3,6,0.4c-2.9,5-6.6,8.9-9.9,13.2l-1.6-1.4
		c-2,2.5-4.7,1.9-7.2,2c-6.6,0.1-13.2,0.1-19.8,0c-6.6-0.1-13.3-0.8-20-1.1c-5.5-0.2-11.2-0.3-16.7-0.4c-2.5,0-5,0-7.5-0.1
		c-0.7,0-1.4-0.3-1.9-0.9C77.1,66.8,74.1,62.8,71,58.9z"/>
	<path class="st2" d="M64.4,55.9c0,1.9,0,3.2,0,4.6c0,1.8,0,3.7,0.1,5.4c0,0.5,0.1,1,0.1,1.5c0,1.4,0,2.8-0.1,4.2
		c0,1-0.1,2.2-0.1,3.2c0,4.3,0,8.7-0.1,13s-0.1,8.7-0.2,13c-0.1,3.1-0.2,6.3-0.3,9.4c0,1.2,0.1,2.4,0.3,3.6
		c-1.6,0.8-3.1,1.8-4.8,2.6c-2.4,1.2-4.6,2.7-6.6,4.4c-1.5,1.2-3.1,2.1-4.8,2.9c-0.3-0.9-0.5-2-0.6-3c-0.2-7.5-0.3-15.2-0.5-22.8
		c0-2.1-0.3-4.2-0.4-6.3c-0.2-6.1-0.5-12.1-0.6-18.3c-0.1-0.9,0.2-2,0.8-2.7c1.6-1.6,3.3-3,5-4.4c0.5-0.3,0.9-0.6,1.5-1
		c2.3-3.2,5.8-5,8.8-7.4C62.5,57.3,63.3,56.8,64.4,55.9z"/>
	<path class="st2" d="M168,60c1.3,0.9,2.4,1.9,3.5,2.9c3.3,3.6,6.5,7.2,9.8,10.7c0.8,0.8,1.4,1.9,1.3,3c0,5.9,0.1,11.7,0.1,17.6
		c0.1,4,0,8.1-0.3,12c-0.6,5.4-0.7,10.9-0.7,16.2c-0.1,0.6-0.3,1.4-0.6,2c-2.2-1.7-4.1-3-6-4.6s-3.2-3.1-5-4.5
		c-1-0.8-1.6-2.2-1.5-3.6c-0.1-3.1,0.1-6.5-0.6-9.5c-1.7-6.9-0.1-13.8-0.2-20.7c0-2.7,0.7-5.4,0.7-8.2C168.6,69,168.3,64.5,168,60z"
		/>
	<path class="st1" d="M67.3,56.3c0.8,2.3-0.1,5,1.3,7.3c1.2-1.1,0-3.3,2.3-3.6c2.1,3.2,5.6,5.6,6.4,9.9c2.8,3.3,1.8,7.2,1.9,11
		c0.1,5.8,0.4,11.6,0.8,17.4c0.3,4.5,0.9,9.3,0.1,13.9c-0.2,1.2,0.3,2.5,0.5,4.1c-4.8-0.5-9.6,1-14.4-0.3c-0.2-1.2-0.4-2.3-0.4-3.5
		c0.1-5.3,0.3-10.4,0.4-15.5c0-3.9-0.2-7.8-0.1-11.7c0.3-3.7,0.2-7.4-0.1-11.2c0-0.4,0-0.8,0.2-1.3c0.5-2,0.6-4.1,0.4-6.2
		c-0.1-3.4,0.2-6.9,0.3-10.4L67.3,56.3z"/>
	<path class="st1" d="M153.8,116.2c-0.2-4.7-0.3-9.2-0.5-13.6c-0.2-5-0.4-9.9-0.4-15c0-3.2,0.1-6.2,0.3-9.3c0.1-1.3,0.1-2.5,1.5-3.4
		c1.3-3.7,4.4-6,6.6-9.1c1.5-1.9,3.1-3.8,4.8-5.8c0.2,0.2,0.4,0.5,0.5,0.8c0.1,3.8,0.3,7.5,0.4,11.3c0,1.1,0,2-0.1,3.2
		c-0.1,1.5-0.2,3-0.4,4.3c-0.1,1.2-0.2,2.3-0.3,3.6c-0.1,3.7-0.4,7.2-0.3,10.8c0,3.1,0.4,6,0.6,9.1c0.2,3.4,0.5,6.7,0.6,10
		c0.1,2.6-0.2,3.1-2.9,3.1C160.8,116.2,157.5,116.2,153.8,116.2z"/>
	<path d="M153.9,123.5l-0.8-1.6C153.9,121.9,153.9,121.9,153.9,123.5z"/>
	<path d="M168.2,135.5l-0.7,0.4l-0.4-1c0.2-0.1,0.4-0.1,0.6-0.1C167.8,135,168,135.3,168.2,135.5z"/>
</g>
</svg>
