<?xml version="1.0" encoding="utf-8"?>
<!-- Generator: Adobe Illustrator 19.2.1, SVG Export Plug-In . SVG Version: 6.00 Build 0)  -->
<svg version="1.1" id="Ebene_1" xmlns="http://www.w3.org/2000/svg" xmlns:xlink="http://www.w3.org/1999/xlink" x="0px" y="0px"
	 viewBox="0 0 236 181.5" style="enable-background:new 0 0 236 181.5;" xml:space="preserve">
<style type="text/css">
	.st0{fill:#FFFFFF;}
</style>
<g id="doc00073520160814150808-28.psd_Bild">
	<title>SK_Website-Animation_Einzelbilder</title>
	<path class="st0" d="M181.7,48.3c-0.5-0.8-1.2-2.1-2.5-2c-2.1,0.2-4.3,0.4-6.4,0.7c-4,0.5-7.9,1.1-11.8,1.6c-0.8,0.1-1.6,0-2.3-0.5
		c-1.7-1.3-3.8-1.7-5.8-1.2c-3.1,0.5-6.4,0.5-9.5-0.1c-1.1-0.2-2.2-0.1-3.3,0.2c-6.3,2-13,1.8-19.4,2.8c-2.2,0.3-4.4,0.4-6.6,0.9
		c-1.7,0.4-3.5,0.4-5.2,0.2c-3-0.4-6-0.7-9-0.7c-2.8,0-5.4,0.4-8.2-0.3c-3.9-0.9-7.8-1.3-11.7-2.1c-1.9-0.5-3.8-1.1-5.7-1.8
		c-0.5,1.2-1,2.3-1.5,3.5c-1.4,3.6-2.7,7.2-4.2,10.7c-0.9,2.1-2.1,4.1-3.2,6.1c-0.8,1.5-1.4,3-0.9,4.8c0.2,0.8,0.3,1.6,0.1,2.4
		c-1,6.5-0.5,12.9-0.2,19.4c0.3,6,1,11.9,0.8,17.9c-0.1,2,0,4-0.1,6c-0.1,1.1-0.3,2.1-0.5,3.2l2.5,0.3c0.7,0,1.4,0.1,2.1,0.2
		c3.2,0.7,6.4,1.4,9.5,2.4c2.8,0.9,5.5,2,8.2,3.1c1.2,0.5,2.3,1.2,3.5,1.6c4.5,1.4,9,2.6,13.5,4c3.5,0.6,7,1.9,10.7,3.1
		c2.1-1.3,4.5-2,6.9-2.1c0.6,0,1.1-0.2,1.6-0.3c1.2-0.4,2.4-0.9,3.6-1.2c4.5-1.4,9-2.8,13.5-4.1c3-0.9,5.9-2.1,8.9-2.8
		c4.9-1.1,9.5-3.1,14.3-4.7c2.8-0.9,5.4-2.3,8.4-2.6c1.3-0.1,1.6-1,1.1-2.3c-0.5-0.8-0.8-1.7-1-2.7c-0.3-4.7-0.7-9.3-0.8-14
		c0-3.1,0.5-6.2,0.2-9.3c-0.2-1.9,0.3-3.8,0.3-5.7c0-3.2-0.1-6.4-0.2-9.6c0-0.5,0.2-1,0.4-1.5c0.8-1.2,1.5-2.4,2.1-3.7
		c1.9-4.9,3.7-9.9,5.6-14.9c0.3-1,0.9-1.9,1.6-2.6C181.9,49.9,182.2,49.1,181.7,48.3z M117.4,76.2c-0.1,0.4-0.2,0.8-0.3,1.2
		c-0.3,1.1-1.4,1.6-2.5,1.4s-1.7-1.5-1.4-2.5c0.1-0.4,0.2-0.8,0.3-1.2c0.3-1.1,1.4-1.6,2.5-1.4C117,74,117.6,75.2,117.4,76.2z"/>
	<path class="st0" d="M154.9,49.1c-1.6,0.7-3.3,0.7-5,0.9c-2.2,0.3-4.4,0.6-6.6,0.8c-0.8,0.1-1.6,0.2-2.4,0.1
		c-4.2-0.7-8.2,0.1-12.3,0.8c-2.1,0.3-4.2,0.4-6.4,0.6c-1,0.1-1.7,0.3-1.9,1.4c-0.1,0.5-0.2,1-0.4,1.4c-2.9,0.2-5.2-1.4-7.9-2.2
		c0.4-0.1,0.8-0.3,1.2-0.3c8.7-1.2,17.4-2.3,26-3.5c2-0.4,4.1-0.4,6.2-0.2c1.9,0.1,3.8,0.1,5.7-0.1c1.2,0,2.4-0.1,3.7-0.2
		L154.9,49.1z"/>
	<path d="M109.5,58.9c-0.3,0.2-0.6,0.3-1,0.4c-0.2-0.1-0.3-0.3-0.3-0.5c0.1-0.2,0.3-0.3,0.5-0.4C109,58.6,109.3,58.7,109.5,58.9z"/>
	<path d="M114.6,135c-3.7-1.2-7.2-2.5-10.8-3.5c-4.5-1.4-9-2.6-13.5-4c-1.2-0.4-2.3-1.1-3.5-1.6c-2.7-1.1-5.4-2.3-8.2-3.1
		c-3.1-1-6.3-1.6-9.5-2.4c-0.7-0.1-1.4-0.2-2.1-0.2l-2.5-0.3c0.2-1,0.4-2.1,0.5-3.2c0.1-2,0-4,0.1-6c0.3-6-0.5-11.9-0.8-17.9
		c-0.3-6.4-0.8-12.9,0.2-19.4c0.1-0.8,0.1-1.6-0.1-2.4c-0.5-1.8,0.1-3.2,0.9-4.8c1.1-2,2.3-4,3.2-6.1c1.5-3.5,2.8-7.1,4.2-10.7
		c0.5-1.1,1-2.3,1.5-3.5c1.9,0.7,3.8,1.4,5.7,1.9c3.9,0.8,7.9,1.1,11.7,2.1c2.8,0.7,5.5,0.3,8.2,0.3c3,0.1,6,0.3,9,0.7
		c1.7,0.2,3.5,0.1,5.2-0.2c2.2-0.5,4.4-0.5,6.6-0.9c6.5-1,13.1-0.8,19.4-2.8c1.1-0.3,2.2-0.4,3.3-0.2c3.1,0.6,6.4,0.6,9.5,0.1
		c2-0.5,4.2,0,5.8,1.2c0.7,0.4,1.5,0.6,2.3,0.5c4-0.5,7.9-1,11.8-1.6c2.1-0.3,4.3-0.6,6.4-0.7c1.3-0.1,1.9,1.1,2.5,2
		s0.2,1.6-0.6,2.3c-0.7,0.7-1.2,1.6-1.6,2.6c-1.9,4.9-3.7,9.9-5.6,14.9c-0.6,1.3-1.4,2.5-2.1,3.7c-0.3,0.5-0.4,1-0.4,1.5
		c0,3.2,0.2,6.4,0.2,9.6c0,1.9-0.5,3.8-0.3,5.7c0.3,3.1-0.2,6.2-0.2,9.3c0.1,4.7,0.4,9.3,0.8,14c0.2,0.9,0.5,1.8,1,2.7
		c0.5,1.3,0.2,2.2-1.1,2.3c-3,0.3-5.6,1.7-8.4,2.6c-4.8,1.6-9.4,3.6-14.3,4.7c-3,0.7-5.9,1.9-8.9,2.8c-4.5,1.4-9,2.8-13.5,4.1
		c-1.2,0.4-2.4,0.9-3.6,1.2c-0.5,0.2-1.1,0.3-1.6,0.3C119.1,133,116.7,133.7,114.6,135z M179.1,49.3c-0.7-0.3-1.4-0.5-2.1-0.6
		c-3.1,0.3-6.2,0.7-9.3,1.1c-0.5,0.1-0.9,0.2-1.4,0.2c-4.8,0.5-9.7,1-14.5,1.5c-3.9,0.4-7.8,1.3-11.7,1.2
		c-5.7-0.2-11.2,1.6-16.7,1.3l-2.6,4.2l1.4,1.1l-1.7,0.8l-3.4,17.3c3.3,0.3,6.4-1.4,9.7-0.5c-4.2,1.2-8.7,1.4-12.5,3.4
		c-0.5,1.1,0.3,2.4-0.8,3.6l-1.2-3.4l-5.7-1.4l0.1-0.4h5.2c3.6-7,6.5-13.9,7.6-21.1c-7.1-2.4-14.5-3.5-21.9-4.9s-14.8-3.1-22.4-3.8
		L67.1,68c0.8,0.4,1.6,0.7,2.4,1c2.5,0.7,5.1,0.9,7.6,1.8c2.8,1,5.7,1.3,8.6,2s5.8,1.2,8.3,3c-1,0-2-0.1-3-0.3
		c-5.1-1.1-10.1-2.3-15.2-3.5c-0.5-0.1-0.9-0.3-1.3-0.5c-2.5-1.1-5.2-0.9-8-1.1c0.1,1.3,0.1,2.6,0,3.9c-0.9,8.1-0.4,16.2,0,24.3
		c0.2,5.6,0.4,11.1,0.5,16.7c0,2,0.8,3.3,2.8,3.6c4.2,0.7,8.4,1.8,12.5,3.2c2.3,0.8,4.6,1.8,6.9,2.6c2.1,0.8,4.1,1.6,6.3,2.3
		c1.4,0.4,2.9,0.4,4.2,1c3.8,1.7,8,2.3,12,3.3c1.8,0.5,2.5-0.1,2.9-1.8c0.2-0.7,0.2-1.4,0.1-2.1c-0.3-2.4-0.5-4.9-0.6-7.4
		c0.2-3.7-1.1-7.3-0.6-11.1c0.4-3.1-0.3-6.4-0.9-9.5c-0.5-2.6-0.4-5.2,0.3-7.7c0.1,0.2,0.2,0.5,0.3,0.8c0.3,2.4,0.6,4.7,0.9,7.1
		c0.4,3.3,0.8,6.6,1.1,10c0.2,1.7,0,3.5,0.1,5.2c0.3,3.9,0.9,7.8,1.1,11.6c0.2,4.6,0.6,5.1,5.2,4.2c2.9-0.6,5.7-1.5,8.5-2.3
		c3.7-1.1,7.3-2.2,11-3.4c0.4-0.1,0.7-0.4,1.1-0.5c1.2-0.4,2.4-0.8,3.6-1.2c4.3-1.3,8.6-2.5,12.8-3.9c3.5-1.2,7-2.7,10.5-4
		c1.1-0.2,1.8-1.3,1.6-2.4c0-0.1,0-0.2-0.1-0.2c-0.3-1.6-0.6-3.2-0.7-4.8c-0.1-3.7,0-7.3,0-11c0-2,0.3-4,0.3-6c0-4.2-0.2-8.4,0-12.6
		c0.1-1.7-0.1-3.5-0.5-5.2c-0.4-1.5-0.8-1.8-2.4-1.6c-2.7,0.3-5.4,0.6-8,1c-5.9,1-11.8,2.1-17.7,3.1c-2.8,0.5-5.5,0.7-8.3,1
		c-1,0.3-2.1,0.1-3-0.6c0.6-0.3,1.3-0.5,2-0.7c7.3-1.2,14.7-2,21.9-3.5c5.1-1.1,10.3-2,15.5-2.7c0.9-0.1,1.7-0.7,2.1-1.6
		C175.3,62.1,177.3,55.9,179.1,49.3L179.1,49.3z M154.9,49.4v-0.5c-1.2,0.1-2.4,0.2-3.7,0.2c-1.9,0.2-3.8,0.2-5.7,0.1
		c-2.1-0.2-4.1-0.2-6.2,0.2c-8.7,1.2-17.4,2.4-26,3.5c-0.4,0.1-0.8,0.2-1.2,0.3c2.6,0.8,5,2.4,7.9,2.2c0.2-0.5,0.3-0.9,0.4-1.4
		c0.1-1.1,0.9-1.4,1.9-1.4c2.1-0.2,4.3-0.3,6.4-0.6c4.1-0.6,8.1-1.5,12.3-0.8c0.8,0.1,1.6,0,2.4-0.1c2.2-0.2,4.4-0.5,6.6-0.8
		C151.6,50.1,153.3,50.1,154.9,49.4L154.9,49.4z M114.4,76.9c1.5-1.6,1.5-1.6,1.3-3L114.4,76.9z"/>
</g>
</svg>
