<?xml version="1.0" encoding="iso-8859-1"?>
<!-- Generator: Adobe Illustrator 19.2.1, SVG Export Plug-In . SVG Version: 6.00 Build 0)  -->
<svg version="1.1" id="Scan_x5F_A4-150dpi_x5F_SW_x5F_0002-2_xA0_Bild_1_"
	 xmlns="http://www.w3.org/2000/svg" xmlns:xlink="http://www.w3.org/1999/xlink" x="0px" y="0px" viewBox="0 0 236.013 181.502"
	 style="enable-background:new 0 0 236.013 181.502;" xml:space="preserve">
<g>
	<path d="M195.998,148.96c-0.772,1.306-1.464,1.727-2.654,1.376c-0.992-0.293-2.076-0.41-3.114-0.382
		c-2.934,0.08-5.877,0.515-8.795,0.375c-6.963-0.335-13.911-0.991-20.872-1.385c-5.978-0.338-11.967-0.477-17.95-0.742
		c-1.605-0.071-3.201-0.356-4.806-0.412c-2.772-0.097-5.548-0.073-8.322-0.131c-6.161-0.128-12.348,0.04-18.474-0.495
		c-7.631-0.665-15.133,0.682-22.702,0.745c-2.049,0.017-4.156,0.189-6.136-0.208c-3.922-0.787-7.855-0.235-11.769-0.5
		c-3.564-0.242-7.118-0.622-10.681-0.887c-2.587-0.193-5.18-0.346-7.772-0.407c-0.674-0.016-1.357,0.387-2.038,0.588
		c-0.916,0.271-1.835,0.533-2.699,0.784c-1.543-1.525-1.02-3.07-0.475-4.748c0.276,0.359,0.551,0.718,0.86,1.119
		c0.14-0.092,0.403-0.179,0.532-0.362c2.005-2.837,3.947-5.721,6.005-8.519c1.056-1.435,2.334-2.705,3.473-4.081
		c0.962-1.162,1.869-2.37,3.164-4.021c-1.959,0.319-3.379,0.645-4.816,0.763c-2.127,0.175-4.286,0.422-6.393,0.229
		c-1.96-0.18-3.682,0.151-5.432,0.928c-0.955,0.424-2.005,0.669-3.036,0.877c-1.394,0.281-2.806,0.489-4.219,0.656
		c-1.322,0.156-2.662,0.352-3.981,0.285c-1.608-0.082-2.836-1.561-2.218-2.936c0.676-1.505,0.22-2.764-0.04-4.087
		c1.366-2.97,1.397-6.049,1.175-9.176c-0.082-1.152-0.196-2.37,0.075-3.466c0.652-2.636,0.911-5.267,0.762-7.976
		c-0.063-1.145,0.205-2.309,0.337-3.462c0.051-0.442,0.259-0.895,0.2-1.316c-0.661-4.751,0.406-9.426,0.558-14.138
		c0.141-4.384,0.122-8.775,0.067-13.162c-0.015-1.231-0.495-2.45-0.604-3.688c-0.247-2.832-0.397-5.673-0.591-8.589
		c-0.386-0.059-0.866-0.131-1.452-0.22c0.045-0.446,0.078-0.772,0.123-1.215c0.654,0,1.216,0,1.962,0
		c-0.13-0.489-0.158-0.93-0.353-1.277c-1.036-1.846-0.957-2.65,0.59-4.515c0.997,0.117,2.105,0.082,3.1,0.4
		c1.997,0.637,3.933,0.804,6.049,0.567c1.516-0.17,3.202,0.34,4.686,0.889c3.383,1.25,6.81,2.124,10.429,2.253
		c1.044,0.037,2.078,0.356,3.343,0.588c0-0.782,0.103-1.389-0.02-1.946c-0.328-1.48-0.846-2.922-1.116-4.41
		c-0.365-2.011-0.706-4.044-0.806-6.08c-0.132-2.677-0.034-5.326-1.114-7.906c-0.698-1.667-0.912-3.536-1.428-5.666
		c0.167-0.23,0.578-0.798,1.035-1.43c0.643,0.043,1.262,0.044,1.867,0.132c2.273,0.333,4.464,0.755,6.862,0.431
		c2.689-0.363,5.491,0.139,8.245,0.226c2.505,0.079,5.013,0.187,7.517,0.132c2.79-0.061,5.54,0.061,8.254,0.776
		c0.769,0.203,1.587,0.301,2.384,0.307c9.565,0.076,19.107,1.044,28.701,0.324c3.969-0.298,8.012,0.464,12.025,0.662
		c2.501,0.123,5.013,0.183,7.515,0.111c4.556-0.132,9.107-0.512,13.662-0.538c2.66-0.015,5.338,0.349,7.979,0.737
		c2.416,0.355,4.779,0.559,7.189-0.026c2.15-0.522,4.48,0.06,6.567-1.065c0.289-0.156,0.922,0.323,1.265,0.458
		c0.64,1.763-0.745,2.109-1.744,2.853c-0.459,2.635-0.922,5.349-1.415,8.058c-0.095,0.523-0.216,1.083-0.489,1.524
		c-1.338,2.167-1.439,4.537-1.431,6.992c0.007,2.13-0.389,4.259-0.42,6.391c-0.019,1.294,0.316,2.592,0.527,4.149
		c1.048-0.132,2.019-0.148,2.93-0.388c4.211-1.108,8.663-1.018,12.759-2.768c2.633-1.125,5.474-0.661,8.213-0.246
		c2.708,0.41,5.388,1.009,8.373,1.581c0.561,0.451,0.882,1.146,0.746,2.321c-0.224,1.927-0.033,3.901-0.046,5.855
		c-0.024,3.747-0.057,7.494-0.111,11.241c-0.017,1.161-0.286,2.342-0.146,3.478c0.615,5.007-0.182,9.973-0.313,14.956
		c-0.007,0.268-0.074,0.541-0.039,0.802c0.727,5.423-0.635,10.619-1.676,15.855c-0.173,0.87-0.147,1.78-0.204,2.672
		c-0.147,2.316-0.322,4.631-0.417,6.949c-0.036,0.882,0.095,1.775,0.193,2.658c0.059,0.53,0.212,1.05,0.304,1.577
		c0.27,1.552,0.395,3.2-1.124,4.112c-1.421,0.852-3.179,0.762-4.573-0.042c-1.905-1.098-3.819-1.8-6.025-1.996
		c-1.088-0.096-2.114-0.872-3.171-1.333c-0.974-0.425-1.919-0.961-2.935-1.236c-2.494-0.676-5.018-1.247-7.538-1.825
		c-1.605-0.368-2.406-0.195-4.309,0.882c0.792,0.979,1.464,2.02,2.339,2.847c1.686,1.593,3.416,3.158,5.259,4.563
		c2.029,1.547,3.697,3.356,5.016,5.529c0.405,0.668,0.886,1.497,1.536,1.773c2.922,1.245,4.46,4.055,6.867,5.871
		C195.262,147.251,195.55,148.219,195.998,148.96z M173.598,33.303c-3.718,0.639-6.904,0.648-10.097,0.092
		c-1.582-0.275-3.173-0.498-4.766-0.702c-4.814-0.615-9.645-0.323-14.442,0.055c-3.486,0.275-6.895,0.369-10.404,0.052
		c-5.602-0.507-11.256-0.519-16.89-0.573c-3.481-0.033-6.965,0.358-10.447,0.347c-3.303-0.01-6.605-0.283-9.907-0.466
		c-1.425-0.079-2.858-0.142-4.267-0.352c-3.722-0.554-7.44-0.991-11.219-0.716c-1.424,0.104-2.865,0.02-4.297-0.02
		c-5.006-0.14-10.011-0.308-15.018-0.44c-0.683-0.018-1.37,0.111-2.252,0.19c0.142,1.762-0.009,3.439,0.459,4.92
		c0.885,2.806,1.005,5.633,0.85,8.496c-0.173,3.191,0.774,6.131,1.556,8.961c0.623,0.068,1.016,0.111,1.605,0.176
		c-0.649,1.15-1.806,2.032-0.31,3.481c1.223,0,2.734-0.015,4.244,0.003c3.131,0.039,6.269-0.023,9.391,0.175
		c3.825,0.242,7.629,0.825,11.454,1.054c9.281,0.554,18.565,1.182,27.857,1.408c7.05,0.172,14.114-0.232,21.172-0.37
		c0.533-0.01,1.068,0.053,1.6,0.094c1.509,0.117,3.033,0.431,4.524,0.315c1.933-0.151,3.856-0.997,5.756-0.915
		c4.519,0.195,9.032,0.678,13.527,1.211c2.146,0.254,4.231,0.459,6.224-0.142c1.69-3.577,1.683-7.257,1.495-10.924
		c-0.104-2.035,0.406-3.803,1.117-5.691c0.697-1.848,0.649-3.975,0.955-5.975c0.038-0.249,0.333-0.465,0.356-0.71
		C173.513,35.402,173.538,34.46,173.598,33.303z M80.465,117.135c1.648-0.129,3.153-0.259,4.66-0.358
		c0.52-0.034,1.046,0.016,1.568,0.013c3.021-0.013,6.045,0.041,9.063-0.062c3.749-0.128,7.491-0.457,11.24-0.56
		c1.867-0.051,3.742,0.301,5.615,0.313c6.718,0.041,13.436,0.011,20.154,0.016c5.642,0.004,11.285,0.043,16.927,0.012
		c1.205-0.007,2.409-0.25,3.739-0.399c0.281-2.907,0.421-5.463,0.053-8.045c-0.289-2.026-0.998-4.157-0.643-6.079
		c1.102-5.967,0.744-11.948,0.811-17.933c0.021-1.828-0.29-3.503-1.306-4.907c-1.212,0-2.393,0.183-3.496-0.032
		c-4.343-0.848-8.719-0.718-13.103-0.708c-3.845,0.009-7.712,0.098-11.532-0.255c-6.337-0.585-12.662-1.029-19.022-0.622
		c-5.992,0.383-11.975,0.528-17.969-0.093c-2.116-0.219-4.274-0.035-6.289-0.035c-1.461,1.234-1.918,2.712-1.906,4.406
		c0.034,4.837,0.007,9.674,0.077,14.511c0.06,4.108,0.389,8.219,0.28,12.32C79.314,111.437,79.566,114.12,80.465,117.135z
		 M51.923,143.96c2.507,0.429,4.225,0.773,5.959,1.004c1.236,0.165,2.492,0.178,3.739,0.258c2.669,0.171,5.335,0.428,8.007,0.491
		c3.919,0.092,7.848-0.469,11.757,0.361c3.802,0.808,7.617,0.571,11.472,0.166c5.59-0.586,11.191-1.279,16.847-0.686
		c2.751,0.288,5.525,0.437,8.291,0.488c5.013,0.092,10.029,0.009,15.042,0.097c6.168,0.108,12.334,0.313,18.501,0.486
		c0.534,0.015,1.067,0.101,1.6,0.153c2.927,0.287,5.849,0.632,8.781,0.846c5.159,0.377,10.327,0.631,15.485,1.019
		c3.152,0.237,6.214,0.024,9.247-1.139c1.397,0.915,1.397,0.915,4.722,0.358c-0.526-1.995-1.702-3.535-3.353-4.616
		c-1.928-1.263-3.442-2.81-4.446-4.886c-0.227-0.47-0.607-0.893-0.993-1.257c-2.472-2.331-4.908-4.705-7.474-6.929
		c-1.306-1.131-2.62-2.516-4.66-2.149c-0.294,0.378-0.562,0.723-0.84,1.08c-0.402-0.802-0.788-1.573-1.141-2.276
		c-3.9,0.14-7.632,0.252-11.363,0.415c-2.767,0.121-5.528,0.37-8.295,0.454c-3.39,0.103-6.784,0.108-10.176,0.127
		c-1.161,0.007-2.324-0.047-3.483-0.118c-1.604-0.098-3.206-0.358-4.806-0.341c-9.663,0.107-19.325,0.378-28.988,0.386
		c-7.419,0.007-14.838-0.278-22.257-0.465c-1.428-0.036-2.851-0.305-4.278-0.321c-4.017-0.046-8.035-0.016-12.494-0.016
		c-3.72,5.122-7.586,10.442-11.443,15.769c-0.152,0.21-0.279,0.476-0.305,0.727c-0.024,0.234,0.102,0.484,0.204,0.895
		C51.419,144.129,51.971,143.943,51.923,143.96z M201.116,127.083c0.174-2.571,0.601-4.974,0.437-7.336
		c-0.285-4.089,0.878-7.981,1.439-11.924c0.404-2.841,0.8-5.625,0.725-8.489c-0.035-1.338,0.076-2.681,0.12-4.021
		c0.118-3.569,0.25-7.138,0.348-10.708c0.059-2.145,0.033-4.292,0.099-6.436c0.091-2.942,0.309-5.882,0.325-8.824
		c0.009-1.687-0.142-3.402-0.473-5.054c-0.22-1.096-0.887-2.102-1.551-3.587c-0.483-0.106-1.415-0.315-2.348-0.513
		c-0.861-0.183-1.775-0.229-2.579-0.552c-3.603-1.447-7.13-1.294-10.682,0.195c-1.053,0.441-2.211,0.658-3.34,0.884
		c-4.002,0.798-8.012,1.555-12.125,2.347c0,0.678,0.004,1.204-0.001,1.73c-0.036,3.842-0.041,7.684-0.121,11.525
		c-0.078,3.744-0.338,7.488-0.324,11.231c0.011,3.03,0.342,6.057,0.473,9.088c0.085,1.966-0.004,3.94,0.109,5.903
		c0.282,4.898,0.618,9.794,0.967,14.688c0.144,2.018,0.379,4.029,0.599,6.324c1.714,0,3.255-0.217,4.713,0.038
		c5.606,0.982,10.797,3.495,16.386,4.577c0.26,0.05,0.505,0.178,0.76,0.262c1.337,0.439,2.672,0.887,4.017,1.301
		c0.222,0.068,0.491-0.015,0.875-0.036c-0.17-0.583-0.312-1.068-0.474-1.624C200.063,127.721,200.654,127.363,201.116,127.083z
		 M35.124,54.366c-0.246,0.82-0.534,1.483-0.639,2.174c-0.67,4.381-0.434,8.72,0.659,13.019c0.196,0.77,0.355,1.582,0.332,2.369
		c-0.081,2.75-0.243,5.497-0.385,8.245c-0.258,4.993-0.55,9.985-0.779,14.979c-0.183,4.011,0.151,8.105-0.548,12.019
		c-0.865,4.839,0.172,9.608-0.561,14.408c0.86,0.244,1.492,0.423,2.296,0.652c-0.988,0.89-1.796,1.618-2.609,2.35
		c0.283,1.096,0.544,2.107,0.8,3.097c1.085,0.218,2.089,0.691,2.998,0.552c2.632-0.404,5.227-1.048,7.834-1.61
		c1.032-0.223,2.115-0.822,3.076-0.66c4.832,0.814,9.363-0.194,13.811-1.873c-0.12-0.423-0.456-1.07-0.315-1.199
		c1.044-0.958,0.628-2.156,0.667-3.272c0.093-2.662,0.208-5.325,0.231-7.989c0.03-3.456-0.007-6.914-0.039-10.37
		c-0.045-4.91-0.16-9.82-0.145-14.73c0.005-1.773,0.45-3.547,0.428-5.317c-0.04-3.198-0.296-6.393-0.435-9.59
		c-0.154-3.556-0.267-7.113-0.423-10.668c-0.023-0.521-0.179-1.036-0.178-1.027c-1.41-1.103-2.447-1.915-3.565-2.79
		c-2.683-0.599-5.713-0.848-8.375-1.97c-4.078-1.718-8.322-0.536-12.409-1.359C36.401,53.716,35.851,54.117,35.124,54.366z
		 M169.73,123.815c-1.707,1.288-2.801,0.518-3.829,0.188c-3.37-1.084-6.086-3.831-9.866-3.899c-2.587-1.958-5.671-1.536-8.599-1.696
		c-1.955-0.107-3.931,0.269-5.895,0.234c-5.188-0.092-10.373-0.341-15.561-0.429c-4.386-0.074-8.775-0.021-13.163-0.003
		c-5.718,0.024-11.454-0.433-17.124,0.82c-1.293,0.286-2.676,0.212-4.018,0.218c-2.417,0.01-4.855-0.254-7.246-0.017
		c-2.909,0.288-5.897,0.633-8.634,1.58c-2.995,1.036-5.742,2.787-8.806,4.331c8.894,0.508,17.626,1.014,26.361,1.493
		c0.98,0.054,1.969-0.038,2.953-0.084c5.807-0.268,11.611-0.679,17.421-0.772c4.905-0.078,9.817,0.342,14.725,0.309
		c10.019-0.067,20.036-0.296,30.054-0.447c2.686-0.04,5.375-0.11,8.06-0.041c4.074,0.105,4.794-1.649,4.733-5.382
		c-0.076-4.637-0.584-9.265-0.861-13.9c-0.128-2.143-0.16-4.292-0.22-6.438c-0.152-5.455-0.358-10.91-0.423-16.367
		c-0.073-6.088-0.002-12.177-0.031-18.265c-0.003-0.552-0.277-1.103-0.547-2.104c-5.22,4.545-10.118,8.809-14.578,12.692
		c0.38,1.846,0.87,3.116,0.855,4.379c-0.035,2.845-0.387,5.684-0.489,8.53c-0.131,3.669,0.097,7.366-0.284,11.004
		c-0.295,2.813-0.297,5.501,0.433,8.218c0.182,0.676,0.355,1.473,0.168,2.107c-0.459,1.56-0.208,2.936,0.455,4.37
		c0.443,0.958,0.622,2.037,0.945,3.149C160.62,120.179,164.792,122.288,169.73,123.815z M168.509,62.096
		c-0.808-0.147-1.126-0.234-1.449-0.259c-2.761-0.212-5.523-0.413-8.285-0.616c-2.221-0.164-4.467-0.62-6.657-0.429
		c-4.268,0.373-8.488,0.735-12.807,0.511c-6.148-0.318-12.326,0.002-18.489-0.087c-4.81-0.07-9.619-0.304-14.424-0.548
		c-5.355-0.272-10.706-0.634-16.058-0.962c-4-0.245-8.047-0.203-11.988-0.825c-4.898-0.773-9.735,0.017-14.904-0.403
		c4.061,6.899,9.35,12.15,14.469,16.783c1.701,0,2.85-0.054,3.993,0.012c2.052,0.118,4.097,0.378,6.15,0.454
		c4.201,0.157,8.428,0.564,12.601,0.266c7.257-0.518,14.474-0.145,21.706,0.193c3.746,0.175,7.489,0.425,11.237,0.52
		c3.759,0.095,7.549-0.235,11.273,0.141c2.632,0.266,5.136,0.304,7.71-0.441C157.757,71.759,162.981,67.064,168.509,62.096z
		 M64.016,61.907c-0.21,0.096-0.42,0.192-0.63,0.289c0.18,4.43,0.48,8.86,0.504,13.291c0.021,3.835-0.365,7.671-0.405,11.509
		c-0.064,6.172,0.012,12.345,0.022,18.517c0.006,4.27,0.469,8.543-0.029,12.807c-0.222,1.899,0.375,3.612,0.814,5.389
		c4.892-0.418,8.655-3.094,12.841-5.262c-0.564-1.257-0.56-2.405,0.522-3.396c0.268-0.245,0.305-0.83,0.311-1.261
		c0.057-4.017,0.334-8.052,0.048-12.046c-0.262-3.666-0.139-7.31-0.19-10.964c-0.047-3.374-0.303-6.745-0.492-10.116
		c-0.063-1.12-0.201-2.235-0.326-3.573c-4.392-6.222-4.018-5.22-5.592-5.497C68.861,68.25,66.439,65.078,64.016,61.907z"/>
	<path style="fill:#FFFFFF;" d="M173.598,33.303c-0.06,1.156-0.085,2.098-0.173,3.035c-0.023,0.245-0.318,0.461-0.356,0.71
		c-0.306,2-0.258,4.127-0.955,5.975c-0.712,1.887-1.222,3.656-1.117,5.691c0.188,3.667,0.195,7.347-1.495,10.924
		c-1.993,0.6-4.078,0.396-6.224,0.142c-4.496-0.533-9.008-1.016-13.527-1.211c-1.9-0.082-3.822,0.765-5.756,0.915
		c-1.491,0.116-3.015-0.197-4.524-0.315c-0.533-0.041-1.068-0.105-1.6-0.094c-7.058,0.138-14.122,0.542-21.172,0.37
		c-9.292-0.226-18.576-0.854-27.857-1.408c-3.825-0.228-7.629-0.811-11.454-1.054c-3.121-0.198-6.26-0.136-9.391-0.175
		c-1.51-0.019-3.02-0.003-4.244-0.003c-1.496-1.448-0.339-2.331,0.31-3.481c-0.589-0.065-0.982-0.108-1.605-0.176
		c-0.782-2.83-1.729-5.769-1.556-8.961c0.155-2.863,0.035-5.69-0.85-8.496c-0.467-1.481-0.316-3.158-0.459-4.92
		c0.883-0.079,1.57-0.208,2.252-0.19c5.006,0.131,10.012,0.299,15.018,0.44c1.432,0.04,2.872,0.124,4.297,0.02
		c3.779-0.275,7.497,0.162,11.219,0.716c1.409,0.21,2.842,0.273,4.267,0.352c3.301,0.183,6.604,0.456,9.907,0.466
		c3.482,0.011,6.966-0.38,10.447-0.347c5.634,0.054,11.287,0.066,16.89,0.573c3.509,0.318,6.917,0.223,10.404-0.052
		c4.797-0.378,9.628-0.671,14.442-0.055c1.593,0.204,3.184,0.426,4.766,0.702C166.694,33.952,169.88,33.943,173.598,33.303z"/>
	<path style="fill:#FFFFFF;" d="M51.923,143.96c0.048-0.016-0.504,0.169-1.139,0.382c-0.102-0.412-0.229-0.661-0.204-0.895
		c0.026-0.251,0.153-0.517,0.305-0.727c3.857-5.327,7.723-10.647,11.443-15.769c4.459,0,8.477-0.03,12.494,0.016
		c1.427,0.016,2.85,0.285,4.278,0.321c7.418,0.187,14.838,0.472,22.257,0.465c9.663-0.009,19.325-0.279,28.988-0.386
		c1.601-0.018,3.203,0.243,4.806,0.341c1.159,0.071,2.322,0.124,3.483,0.118c3.392-0.019,6.786-0.023,10.176-0.127
		c2.767-0.084,5.529-0.333,8.295-0.454c3.73-0.164,7.463-0.275,11.363-0.415c0.353,0.704,0.739,1.474,1.141,2.276
		c0.278-0.357,0.546-0.702,0.84-1.08c2.04-0.367,3.354,1.018,4.66,2.149c2.566,2.223,5.002,4.597,7.474,6.929
		c0.386,0.364,0.766,0.786,0.993,1.257c1.003,2.076,2.518,3.623,4.446,4.886c1.651,1.081,2.827,2.621,3.353,4.616
		c-3.326,0.557-3.326,0.557-4.722-0.358c-3.033,1.163-6.096,1.376-9.247,1.139c-5.158-0.388-10.326-0.642-15.485-1.019
		c-2.932-0.214-5.854-0.56-8.781-0.846c-0.533-0.052-1.066-0.138-1.6-0.153c-6.167-0.173-12.333-0.378-18.501-0.486
		c-5.013-0.088-10.029-0.005-15.042-0.097c-2.766-0.051-5.54-0.199-8.291-0.488c-5.656-0.593-11.257,0.1-16.847,0.686
		c-3.856,0.404-7.671,0.641-11.472-0.166c-3.91-0.83-7.838-0.269-11.757-0.361c-2.671-0.063-5.338-0.32-8.007-0.491
		c-1.247-0.08-2.503-0.093-3.739-0.258C56.148,144.733,54.43,144.389,51.923,143.96z M63.432,129.476
		c0.077,0.184,0.154,0.367,0.23,0.551c0.427-0.091,1.101-0.057,1.226-0.302c0.204-0.4,0.067-0.984,0.028-1.487
		c-0.006-0.076-0.263-0.132-0.502-0.242C64.092,128.482,63.762,128.979,63.432,129.476z"/>
	<path style="fill:#FFFFFF;" d="M201.116,127.083c-0.462,0.28-1.053,0.638-1.629,0.987c0.162,0.556,0.304,1.041,0.474,1.624
		c-0.384,0.021-0.653,0.105-0.875,0.036c-1.345-0.414-2.679-0.862-4.017-1.301c-0.255-0.084-0.499-0.211-0.76-0.262
		c-5.589-1.082-10.78-3.596-16.386-4.577c-1.458-0.255-2.998-0.038-4.713-0.038c-0.22-2.295-0.455-4.306-0.599-6.324
		c-0.35-4.894-0.685-9.789-0.967-14.688c-0.113-1.963-0.024-3.938-0.109-5.903c-0.131-3.031-0.461-6.058-0.473-9.088
		c-0.014-3.743,0.246-7.486,0.324-11.231c0.08-3.841,0.085-7.683,0.121-11.525c0.005-0.526,0.001-1.052,0.001-1.73
		c4.113-0.793,8.123-1.55,12.125-2.347c1.129-0.225,2.288-0.442,3.34-0.884c3.553-1.489,7.079-1.642,10.682-0.195
		c0.804,0.323,1.718,0.369,2.579,0.552c0.934,0.198,1.865,0.407,2.348,0.513c0.663,1.486,1.331,2.492,1.551,3.587
		c0.332,1.652,0.482,3.367,0.473,5.054c-0.016,2.942-0.234,5.882-0.325,8.824c-0.066,2.144-0.041,4.292-0.099,6.436
		c-0.098,3.57-0.23,7.139-0.348,10.708c-0.044,1.34-0.155,2.683-0.12,4.021c0.075,2.865-0.321,5.648-0.725,8.489
		c-0.561,3.943-1.724,7.835-1.439,11.924C201.717,122.109,201.29,124.513,201.116,127.083z"/>
	<path style="fill:#FFFFFF;" d="M35.124,54.366c0.727-0.249,1.277-0.65,1.728-0.56c4.087,0.823,8.33-0.359,12.409,1.359
		c2.663,1.121,5.692,1.371,8.375,1.97c1.117,0.874,2.155,1.686,3.565,2.79c-0.002-0.009,0.155,0.506,0.178,1.027
		c0.155,3.556,0.269,7.113,0.423,10.668c0.138,3.197,0.394,6.392,0.435,9.59c0.022,1.77-0.423,3.544-0.428,5.317
		c-0.015,4.91,0.1,9.82,0.145,14.73c0.032,3.457,0.069,6.914,0.039,10.37c-0.023,2.663-0.138,5.326-0.231,7.989
		c-0.039,1.116,0.377,2.314-0.667,3.272c-0.14,0.129,0.196,0.776,0.315,1.199c-4.448,1.679-8.979,2.687-13.811,1.873
		c-0.96-0.162-2.044,0.438-3.076,0.66c-2.607,0.562-5.202,1.206-7.834,1.61c-0.909,0.14-1.913-0.334-2.998-0.552
		c-0.256-0.99-0.517-2.001-0.8-3.097c0.813-0.733,1.621-1.461,2.609-2.35c-0.804-0.228-1.436-0.407-2.296-0.652
		c0.732-4.8-0.304-9.569,0.561-14.408c0.699-3.914,0.365-8.008,0.548-12.019c0.228-4.994,0.52-9.986,0.779-14.979
		c0.142-2.748,0.304-5.495,0.385-8.245c0.023-0.787-0.136-1.599-0.332-2.369c-1.093-4.299-1.329-8.638-0.659-13.019
		C34.59,55.849,34.877,55.186,35.124,54.366z"/>
	<path d="M152.203,81.569c1.384,0.514,1.307,1.377,0.801,2.174c-0.159,0.251-1.104,0.363-1.317,0.156
		C150.812,83.05,151.45,82.352,152.203,81.569z"/>
	<path d="M81.436,81.093c-0.414,0-0.828,0-1.242,0c-0.021-0.147-0.043-0.295-0.064-0.442c0.408-0.094,0.815-0.188,1.223-0.282
		C81.38,80.61,81.408,80.852,81.436,81.093z"/>
	<path d="M63.432,129.476c0.33-0.497,0.66-0.995,0.982-1.479c0.239,0.11,0.496,0.166,0.502,0.242
		c0.04,0.503,0.176,1.087-0.028,1.487c-0.125,0.245-0.799,0.211-1.226,0.302C63.586,129.843,63.509,129.66,63.432,129.476z"/>
</g>
<g style="opacity:0.45;">
	<path d="M80.465,117.135c-0.9-3.015-1.152-5.699-1.077-8.498c0.109-4.101-0.22-8.212-0.28-12.32
		c-0.07-4.836-0.043-9.674-0.077-14.511c-0.012-1.695,0.445-3.172,1.906-4.406c2.015,0,4.173-0.184,6.289,0.035
		c5.994,0.621,11.976,0.476,17.969,0.093c6.36-0.407,12.685,0.037,19.022,0.622c3.82,0.353,7.686,0.264,11.532,0.255
		c4.384-0.01,8.76-0.14,13.103,0.708c1.103,0.215,2.284,0.032,3.496,0.032c1.017,1.405,1.327,3.079,1.306,4.907
		c-0.067,5.985,0.29,11.966-0.811,17.933c-0.355,1.922,0.353,4.053,0.643,6.079c0.368,2.582,0.228,5.138-0.053,8.045
		c-1.33,0.149-2.534,0.392-3.739,0.399c-5.642,0.031-11.285-0.008-16.927-0.012c-6.718-0.005-13.436,0.026-20.154-0.016
		c-1.873-0.011-3.748-0.364-5.615-0.313c-3.749,0.103-7.491,0.432-11.24,0.56c-3.018,0.103-6.042,0.05-9.063,0.062
		c-0.523,0.002-1.048-0.048-1.568-0.013C83.618,116.877,82.113,117.007,80.465,117.135z M152.203,81.569
		c-0.753,0.783-1.391,1.48-0.516,2.33c0.213,0.207,1.158,0.095,1.317-0.156C153.51,82.947,153.588,82.084,152.203,81.569z
		 M81.436,81.093c-0.028-0.241-0.056-0.483-0.084-0.724c-0.408,0.094-0.815,0.188-1.223,0.282c0.021,0.147,0.043,0.295,0.064,0.442
		C80.607,81.093,81.021,81.093,81.436,81.093z"/>
	<path d="M169.73,123.815c-4.938-1.527-9.11-3.637-13.011-6.221c-0.323-1.112-0.503-2.192-0.945-3.149
		c-0.663-1.434-0.914-2.81-0.455-4.37c0.186-0.634,0.013-1.431-0.168-2.107c-0.73-2.717-0.728-5.406-0.433-8.218
		c0.381-3.638,0.153-7.336,0.284-11.004c0.102-2.846,0.454-5.685,0.489-8.53c0.016-1.263-0.475-2.533-0.855-4.379
		c4.46-3.883,9.358-8.147,14.578-12.692c0.269,1.001,0.544,1.552,0.547,2.104c0.029,6.088-0.042,12.177,0.031,18.265
		c0.065,5.456,0.272,10.911,0.423,16.367c0.06,2.147,0.092,4.295,0.22,6.438c0.277,4.635,0.785,9.263,0.861,13.9
		c0.062,3.733-0.659,5.486-4.733,5.382c-2.685-0.069-5.374,0-8.06,0.041c-10.018,0.151-20.036,0.38-30.054,0.447
		c-4.908,0.033-9.82-0.387-14.725-0.309c-5.809,0.093-11.614,0.504-17.421,0.772c-0.984,0.045-1.973,0.137-2.953,0.084
		c-8.734-0.479-17.467-0.985-26.361-1.493c3.064-1.545,5.812-3.295,8.806-4.331c2.737-0.947,5.725-1.292,8.634-1.58
		c2.391-0.236,4.829,0.028,7.246,0.017c1.342-0.006,2.725,0.068,4.018-0.218c5.67-1.252,11.406-0.796,17.124-0.82
		c4.388-0.018,8.776-0.071,13.163,0.003c5.188,0.088,10.373,0.337,15.561,0.429c1.963,0.035,3.94-0.341,5.895-0.234
		c2.928,0.16,6.011-0.262,8.599,1.696c3.78,0.068,6.496,2.814,9.866,3.899C166.929,124.334,168.023,125.104,169.73,123.815z"/>
	<path d="M168.509,62.096c-5.528,4.968-10.752,9.663-15.921,14.309c-2.574,0.745-5.078,0.706-7.71,0.441
		c-3.724-0.376-7.514-0.046-11.273-0.141c-3.748-0.095-7.491-0.345-11.237-0.52c-7.232-0.337-14.449-0.711-21.706-0.193
		c-4.173,0.298-8.401-0.11-12.601-0.266c-2.053-0.077-4.098-0.336-6.15-0.454c-1.143-0.066-2.293-0.012-3.993-0.012
		c-5.119-4.634-10.408-9.884-14.469-16.783c5.169,0.42,10.006-0.37,14.904,0.403c3.941,0.622,7.988,0.58,11.988,0.825
		c5.352,0.328,10.703,0.691,16.058,0.962c4.805,0.244,9.615,0.478,14.424,0.548c6.163,0.09,12.341-0.231,18.489,0.087
		c4.319,0.224,8.539-0.138,12.807-0.511c2.19-0.192,4.436,0.265,6.657,0.429c2.762,0.204,5.524,0.405,8.285,0.616
		C167.383,61.862,167.701,61.949,168.509,62.096z"/>
	<path d="M64.016,61.907c2.422,3.172,4.845,6.344,7.399,9.688c1.573,0.276,1.199-0.725,5.592,5.497
		c0.124,1.338,0.263,2.453,0.326,3.573c0.189,3.371,0.445,6.742,0.492,10.116c0.051,3.655-0.072,7.298,0.19,10.964
		c0.285,3.994,0.009,8.029-0.048,12.046c-0.006,0.431-0.043,1.016-0.311,1.261c-1.082,0.991-1.086,2.139-0.522,3.396
		c-4.186,2.168-7.95,4.844-12.841,5.262c-0.439-1.777-1.036-3.49-0.814-5.389c0.498-4.265,0.036-8.538,0.029-12.807
		c-0.009-6.173-0.086-12.346-0.022-18.517c0.04-3.837,0.426-7.673,0.405-11.509c-0.024-4.431-0.324-8.861-0.504-13.291
		C63.596,62.099,63.806,62.003,64.016,61.907z"/>
</g>
</svg>
