<svg version="1.1"
   xmlns="http://www.w3.org/2000/svg" xmlns:xlink="http://www.w3.org/1999/xlink" x="0px" y="0px" viewBox="0 0 236 180.8"
   style="enable-background:new 0 0 236 180.8;display:none;" xml:space="preserve">
<style type="text/css">
  .st0{fill:#1D1D1B;}
  .st1{fill:#FFFFFF;}
  .st2{opacity:0.35;enable-background:new;}
</style>
  <defs>
    <g id="09">
    <path class="st1" d="M174.4,93.2c-0.5-1.4-1.5-1.8-2.6-2.3c-2.8-1.5-5.5-3.1-8.2-4.9c-2.2-1.5-4.2-3.4-6.5-4.9
        c-2.9-1.9-6-3.6-8.9-5.5c-3.5-2.1-7.1-4-10.8-5.6c-0.6-0.4-1.2-0.8-1.8-1.2c-2.6-1.6-5.3-3.3-7.9-4.9c-2-1.2-4.4-2.1-5.7-4.2
        c-0.9-1.2-2.2-2.1-3.7-2.4c-1-0.3-1.8,0.1-1.8,0.9c0,1.3-0.9,1.5-1.8,1.9c-1.5,0.8-2.9,1.6-4.3,2.6c-1.1,0.7-2.1,1.7-3.2,2.4
        c-2.3,1.4-4.6,2.7-6.9,4.1c-0.3,0.3-0.4,0.6-0.5,1c-0.7,0-1.5,0.2-2.2,0.4c-2.3,1-4.6,2.2-6.9,3.3c-0.2,0.1-0.4,0.2-0.6,0.4
        c-0.1,1.7-2.7,0.5-2.6,2.3c-1.1-0.9-1.2,0.5-1.8,0.8c-0.9,0.4-1.8,1.3-2.5,1.2c-1.2-0.3-0.9,1-1.4,1c-0.8-0.1-1.5,0.2-2.1,0.8
        C79,81.2,78,81.7,77,82.1c-1.5,0.3-2.8,1.1-3.9,2.1c-1.2,1.2-2.8,0.7-4,1.3c-1.1,0.4-2.2,0.9-3.1,1.6c-0.5,0.6-0.8,1.5-0.6,2.3
        c0.3,1,1.2,1.8,2.3,1.8c0.7,0,1.4,0,2.1,0.2c4.1,2.7,8.3,5.4,12.2,8.4c2.8,2.2,5.2,4.7,8.2,6.5c0.5,0.3,0.9,0.6,1.3,1
        c1.7,1.3,3.4,2.6,5.1,3.9c2.3,1.8,4.5,3.5,6.7,5.3c1.2,1,2.3,2.2,3.4,3.3c1.4,1.4,2.9,2.7,4.7,4.5c0.4-0.1,1.8-0.1,2.2-0.7
        c1.3-1.6,3-2.9,4.9-3.7c2.8-1.3,5.8-2.3,8.7-3.4c1.3-0.5,2.8-0.6,4.1-1.1c4-1.4,7.8-3.4,11.2-5.9c0.7-0.5,1.4-0.8,2.1-1.2
        c3.2-1.6,6.4-3.2,9.6-4.9c2.9-1.6,5.5-3.5,8.8-4.2c0.6-0.1,1.2-0.5,1.6-1c0.9-1.1,2-1.4,3.3-1.6C170.3,96.1,172.8,95.5,174.4,93.2z
         M48.2,86.4c-0.3-0.8-1.2-1.2-2-1c-0.5,0.2-0.8,0.6-0.9,1.1c0,0.5,0.4,0.9,0.9,0.9c0.2,0,0.4-0.1,0.5-0.2
        C47.1,86.9,47.6,86.7,48.2,86.4L48.2,86.4z M99.1,114.4c-0.8-1-1.4-1.4-2.5-0.3C97.3,114.7,97.8,115.3,99.1,114.4L99.1,114.4z
         M140.2,68l0.5-0.9c-0.9,0.2-1.4-1.6-2.3-0.4L140.2,68z"/>
      <path d="M174.4,93.2c-1.6,2.3-4.1,2.9-6.5,3.4c-1.3,0.3-2.4,0.5-3.3,1.6c-0.4,0.5-1,0.9-1.6,1c-3.3,0.7-6,2.6-8.8,4.2
        c-3.1,1.7-6.4,3.3-9.6,4.9c-0.7,0.3-1.4,0.7-2.1,1.2c-3.4,2.5-7.2,4.5-11.2,5.9c-1.3,0.5-2.8,0.6-4.1,1.1c-2.9,1-5.9,2-8.7,3.4
        c-1.9,0.8-3.6,2-4.9,3.7c-0.5,0.6-1.8,0.6-2.2,0.7c-1.9-1.8-3.3-3.1-4.7-4.5c-1.1-1.1-2.2-2.3-3.4-3.3c-2.2-1.8-4.5-3.6-6.7-5.3
        c-1.7-1.3-3.4-2.6-5.1-3.9c-0.4-0.4-0.9-0.7-1.3-1c-3-1.8-5.5-4.3-8.2-6.5c-3.9-3-8.1-5.7-12.2-8.4c-0.7-0.2-1.4-0.3-2.1-0.2
        c-1.1,0-2-0.8-2.3-1.8c-0.1-0.8,0.1-1.7,0.7-2.3c1-0.7,2-1.2,3.1-1.6c1.3-0.6,2.8-0.1,4-1.3c1.1-1,2.5-1.8,3.9-2.1
        c1-0.3,1.9-0.9,2.7-1.7c0.6-0.5,1.3-0.8,2.1-0.8c0.5,0,0.1-1.3,1.4-1c0.7,0.2,1.7-0.8,2.5-1.2c0.6-0.3,0.7-1.7,1.8-0.8
        c-0.1-1.8,2.5-0.6,2.6-2.3c0.1-0.2,0.3-0.3,0.6-0.4c2.3-1.1,4.5-2.2,6.9-3.3c0.7-0.2,1.4-0.3,2.2-0.4c0.1-0.4,0.2-0.7,0.5-1
        c2.3-1.4,4.6-2.7,6.9-4.1c1.1-0.7,2.1-1.6,3.2-2.4c1.4-0.9,2.9-1.7,4.3-2.6c0.8-0.5,1.7-0.6,1.8-1.9c0-0.9,0.8-1.3,1.8-0.9
        c1.5,0.3,2.8,1.2,3.7,2.4c1.3,2.1,3.6,3,5.7,4.2c2.7,1.6,5.3,3.2,7.9,4.9c0.6,0.4,1.2,0.8,1.8,1.2c3.7,1.7,7.3,3.5,10.8,5.6
        c3,1.8,6,3.6,8.9,5.5c2.2,1.5,4.2,3.4,6.5,4.9c2.6,1.8,5.3,3.4,8.2,4.9C172.9,91.4,173.9,91.8,174.4,93.2z M171.7,93
        c-0.6-0.4-1.2-0.7-1.9-1c-2.8-0.9-4.8-3.1-7.1-4.8c-3-2.1-5.8-4.5-8.9-6.5c-4.7-3.1-9.7-5.8-14.9-8.1c-1.1-0.5-2.1-1.2-3.1-1.9
        c-2.4-1.6-4.7-3.3-7.2-4.7c-2.8-1.5-5.7-2.9-8-5.2c-0.4-0.4-0.9-0.5-1.5-0.4c-2.3,0.7-4.5,1.7-6.5,3c-2,1.6-4.2,2.8-6.3,4.3
        c-4.4,3-9.4,4.8-14,7.3c-3,1.7-6.2,3-9,5c-3.8,2.8-7.9,5.1-12.3,6.9c-0.9,0.5-1.7,1.1-2.4,1.7c2.5,1.7,4.8,3.2,6.9,4.8
        c2.8,2.1,5.6,4.2,8.4,6.3c1.7,1.3,3.3,2.8,5,4.1c5.1,3.9,10.2,7.6,15.3,11.5c0.5,0.3,0.9,0.7,1.3,1.1c1.5,1.4,3.1,2.7,4.6,4.2
        c1.1,1.1,2.1,1,3.4,0.2c2.2-1.3,4.6-2.5,7-3.5c2.4-0.9,4.8-1.6,7.3-2.2c4.6-1.1,8.9-3.2,12.6-6.1c1.2-0.9,2.6-1.6,3.9-2.2
        c2.8-1.4,5.6-2.8,8.3-4.3c2-1.1,3.9-2.7,6-3.4c4.1-1.4,7.4-4.4,11.8-5C171,93.7,171.4,93.4,171.7,93L171.7,93z"/>
      <path d="M48.2,86.4c-0.6,0.3-1,0.5-1.5,0.8c-0.4,0.3-0.9,0.2-1.2-0.2c-0.1-0.2-0.2-0.3-0.2-0.5c0.1-0.5,0.4-0.9,0.9-1.1
        C47,85.1,47.9,85.6,48.2,86.4z"/>
      <path d="M99.1,114.4c-1.3,1-1.8,0.3-2.5-0.3C97.7,113,98.4,113.4,99.1,114.4z"/>
      <path d="M140.2,68l-1.8-1.3c0.9-1.2,1.4,0.6,2.3,0.4L140.2,68z"/>
      <path class="st1" d="M171.7,93c-0.3,0.3-0.7,0.6-1.1,0.9c-4.4,0.6-7.7,3.6-11.8,5c-2.1,0.7-4,2.3-6,3.4c-2.7,1.5-5.5,2.8-8.3,4.3
        c-1.4,0.6-2.7,1.4-3.9,2.2c-3.7,2.9-8,4.9-12.6,6.1c-2.5,0.6-4.9,1.3-7.3,2.2c-2.4,1-4.8,2.2-7,3.5c-1.3,0.7-2.3,0.9-3.4-0.2
        c-1.5-1.4-3-2.8-4.6-4.2c-0.4-0.4-0.8-0.7-1.3-1.1c-5.1-3.8-10.2-7.6-15.3-11.5c-1.7-1.3-3.3-2.8-5-4.1c-2.8-2.1-5.6-4.3-8.4-6.3
        c-2.2-1.6-4.4-3-6.9-4.8c0.7-0.7,1.5-1.2,2.4-1.7c4.4-1.8,8.5-4.1,12.3-6.9c2.8-1.9,6-3.3,9-5c4.6-2.5,9.6-4.3,14-7.3
        c2.1-1.4,4.3-2.7,6.3-4.3c2-1.3,4.2-2.3,6.5-3c0.5-0.1,1.1,0.1,1.5,0.4c2.3,2.3,5.2,3.7,8,5.2c2.5,1.4,4.8,3.1,7.2,4.7
        c1,0.7,2,1.3,3.1,1.9c5.2,2.3,10.1,5,14.9,8.1c3.1,2,5.9,4.4,8.9,6.5c2.3,1.6,4.2,3.9,7.1,4.8C170.6,92.3,171.1,92.6,171.7,93z"/>
    </g>
  </defs>
</svg>
