<svg version="1.1"
   xmlns="http://www.w3.org/2000/svg" xmlns:xlink="http://www.w3.org/1999/xlink" x="0px" y="0px" viewBox="0 0 236 180.8"
   style="enable-background:new 0 0 236 180.8;display:none;" xml:space="preserve">
<style type="text/css">
  .st0{fill:#1D1D1B;}
  .st1{fill:#FFFFFF;}
  .st2{opacity:0.35;enable-background:new;}
</style>
  <defs>
    <g id="13">
    <path class="st1" d="M91.8,58.8c-1.8,0.1-3.5,0.2-5.2,0.4c-1,0.2-1.9,0.6-2.7,1.2c-0.8,0.6-0.1,1.3,0.1,1.9c0,0.2,0,0.5,0,0.7
        c-0.2,5.2-0.5,10.3-0.6,15.5c-0.1,4.7,0,9.4,0,14c0,1.4,0.3,2.9,0.3,4.3c0,4.4,0,8.8-0.1,13.2c-0.1,3,0.1,6-0.9,9
        c-0.5,1.5,0.8,2.4,2.5,2.1c1.5-0.2,3-0.4,4.5-0.4c1.7,0,3.3,0.3,5,0.4c3.8,0.2,7.6,0.2,11.5,0.5c2.7,0.2,5.4,0.6,8.1,0.9
        c2.1,0.2,4.1,0.6,6.2,0.8c2.7,0.2,5.4,0.2,8.1,0.3c4.3,0.2,8.6,0.6,12.9,0.7c2.7-0.1,5.4,0.2,8,0.9c0.7,0.4,1.6,0,2-0.7
        c0.2-0.3,0.2-0.7,0.1-1c-0.3-2.2-0.5-4.4-0.4-6.5c0-2.5-0.3-5.1-0.2-7.6c0-3.4,0.3-6.9,0.4-10.3c0.1-5.5,0.2-11,0.2-16.5
        c0-4,0-8.1,0-12.1c0-2.4-0.1-4.8,1.1-7c0.8-1.4,0.2-2.3-1.4-2.3c-2.3-0.2-4.6-0.3-6.9-0.3c-6.2,0.4-12.4-0.4-18.5-0.9
        c-4-0.3-8.1-0.8-12.1-1.1c-2.3-0.2-4.6-0.3-6.9-0.3c-4.1,0-8.1,0.2-12.2,0.3c-0.3,0-0.5-0.1-0.8-0.2l0.6-1.9L92,57.4L91.8,58.8z
         M80.5,114.6l0.3-0.5l-1.1-0.8l-0.4,0.7L80.5,114.6z M82.7,114.3c-0.3-0.2-0.6-0.4-0.9-0.5c-0.2,0.2-0.4,0.4-0.6,0.6
        c0.2,0.2,0.4,0.4,0.7,0.5C82.2,114.8,82.5,114.5,82.7,114.3L82.7,114.3z"/>
      <path d="M91.8,58.8l-0.1-1.4l2.5-0.6l-0.6,1.9c0.2,0.1,0.5,0.2,0.8,0.2c4.1-0.1,8.1-0.2,12.2-0.3c2.3,0,4.6,0.1,6.9,0.3
        c4,0.3,8.1,0.8,12.1,1.1c6.2,0.5,12.3,1.2,18.5,0.9c2.3,0,4.6,0.1,6.9,0.3c1.6,0.1,2.1,0.9,1.4,2.3c-1.2,2.2-1.1,4.6-1.1,7
        c0,4,0,8.1,0,12.1c0,5.5-0.1,11-0.2,16.5c-0.1,3.4-0.3,6.9-0.4,10.3c0,2.5,0.3,5.1,0.2,7.6c-0.1,2.2,0,4.4,0.4,6.5
        c0.2,0.8-0.2,1.6-1,1.8c-0.3,0.1-0.7,0.1-1-0.1c-2.6-0.7-5.3-1-8-0.9c-4.3-0.1-8.6-0.5-12.9-0.7c-2.7-0.1-5.4-0.1-8.1-0.3
        c-2.1-0.1-4.1-0.5-6.2-0.8c-2.7-0.3-5.4-0.7-8.1-0.9c-3.8-0.2-7.6-0.3-11.5-0.5c-1.7-0.1-3.3-0.4-5-0.4c-1.5,0-3,0.2-4.5,0.4
        c-1.8,0.2-3-0.7-2.5-2.1c0.9-3,0.7-6,0.9-9c0.2-4.4,0.1-8.8,0.1-13.2c0-1.4-0.2-2.9-0.3-4.3c0-4.7-0.1-9.4,0-14
        c0.1-5.2,0.4-10.3,0.6-15.5c0-0.2,0-0.5,0-0.7c-0.2-0.6-0.9-1.4-0.1-1.9c0.8-0.6,1.7-1,2.7-1.2C88.3,59,90.1,59,91.8,58.8z
         M149.4,63.2c-2.7-0.1-5.3-0.2-7.9-0.4c-6.6-0.4-13.2-0.8-19.8-1.3c-1,0-1.9-0.1-2.9-0.2c-5.6-1-11.3-0.6-17-0.8
        c-3.7-0.1-7.3,0.1-11,0.3c-1.9,0.1-3.9,0.5-5.6,0.8c0,4.3,0.1,8.1,0,12c-0.1,6.2-0.4,12.4-0.5,18.6c0,7.4,0.1,14.9,0.1,22.3
        c0,1.5,0.3,2.9,0.5,4.4c3.9,0.3,7.6,0.8,11.2,0.8c8.9-0.1,17.6,1.7,26.4,2.2c3.8,0.2,7.6,0.6,11.4,0.8c4,0.1,8,0.1,12,0.1
        c0.8-0.1,1.6-0.2,2.3-0.4C149.5,102.6,150.2,83.1,149.4,63.2L149.4,63.2z"/>
      <path d="M80.5,114.6l-1.2-0.6l0.4-0.7l1.1,0.8L80.5,114.6z"/>
      <path d="M82.7,114.3c-0.2,0.3-0.5,0.5-0.8,0.6c-0.3-0.1-0.5-0.2-0.7-0.5c0.1-0.3,0.3-0.5,0.6-0.6C82.1,113.9,82.4,114.1,82.7,114.3
        z"/>
      <path class="st1" d="M149.4,63.2c0.8,19.9,0.1,39.4-0.6,59.2c-0.8,0.2-1.5,0.3-2.3,0.4c-4,0-8,0.1-12-0.1
        c-3.8-0.1-7.6-0.6-11.4-0.8c-8.8-0.4-17.5-2.2-26.4-2.2c-3.6,0-7.3-0.5-11.2-0.8c-0.2-1.5-0.4-3-0.5-4.4
        c-0.1-7.4-0.2-14.9-0.1-22.3c0-6.2,0.4-12.4,0.5-18.6c0.1-3.9,0-7.8,0-12c1.7-0.2,3.6-0.6,5.6-0.8c3.7-0.2,7.4-0.4,11-0.3
        c5.6,0.2,11.3-0.3,17,0.8c1,0.1,1.9,0.2,2.9,0.2c6.6,0.4,13.2,0.9,19.8,1.3C144.1,62.9,146.7,63,149.4,63.2z"/>
    </g>
  </defs>
</svg>
