<svg version="1.1"
   xmlns="http://www.w3.org/2000/svg" xmlns:xlink="http://www.w3.org/1999/xlink" x="0px" y="0px" viewBox="0 0 236 180.8"
   style="enable-background:new 0 0 236 180.8;display:none;" xml:space="preserve">
<style type="text/css">
  .st0{fill:#1D1D1B;}
  .st1{fill:#FFFFFF;}
  .st2{opacity:0.35;enable-background:new;}
</style>
  <defs>
    <g id="14">
    <path class="st1" d="M150,63.4c-3.8,0-7.6,0-11.3,0c-5.8-0.1-11.6-0.3-17.5-0.3c-6.1-0.1-12.3,0.2-18.4-0.5c-0.8-0.1-1.6-0.1-2.4,0
        c-6.2,0.8-12.2,0-18.3-1.1c-0.5-0.1-1.1-0.1-1.5,0.2c-0.5,0.9-0.9,1.9-1.2,2.9c-0.2,1-0.3,2-0.4,3c-0.2,1.1-0.3,2.2-0.2,3.3
        c0.5,3.9,0.5,7.8,0,11.7c-0.2,1.9-0.4,3.8-0.5,5.7c-0.1,5.5-0.1,11-0.2,16.5c0,3.3-0.1,6.7-0.2,10c-0.1,0.5-0.3,1-0.6,1.5
        c0.6,1.9,2.1,1.4,3.4,1.4c4,0.1,8.1,0.2,12.1,0.4c3.4,0.1,6.9,0.5,10.3,0.5c3.7,0.1,7.3,0,11,0.1c6.6,0.2,13.2,0.6,19.8,0.6
        c4.9,0,9.9,0.7,14.8,0.2c0.5,0.2,0.9,0.4,1.2,0.8c1.4-1.6,2,0.7,3.3,0.5c0.3-0.5,0.5-1,0.6-1.6c0-2.3-0.1-4.6-0.3-6.9
        c-0.5-5.7-0.4-11.5,0.3-17.2c0.3-4,0.4-8.1,0.1-12.1c-0.1-3.1-0.5-6.2-0.4-9.3c0-2.5,0.4-4.9,1-7.3c0.9-3.2,0.8-3.6-2.4-3.8l-1-1.9
        L150,63.4z M150.6,123.9l-0.5-2.5l-1.8,1.9L150.6,123.9z M85.4,119.3c-0.4-1.1-1-0.9-1.6-0.7c-0.2,0.1-0.3,0.3-0.3,0.5
        c0.1,0.2,0.2,0.4,0.4,0.5C84.4,119.5,84.9,119.4,85.4,119.3L85.4,119.3z"/>
      <path d="M150,63.4l1.1-2.5l1,1.9c3.2,0.2,3.3,0.6,2.4,3.8c-0.6,2.4-1,4.9-1,7.3c-0.1,3.1,0.3,6.2,0.4,9.3c0.3,4,0.2,8.1-0.1,12.1
        c-0.7,5.7-0.8,11.5-0.3,17.2c0.2,2.3,0.3,4.6,0.3,6.9c-0.1,0.6-0.3,1.1-0.6,1.6c-1.3,0.2-1.9-2.2-3.3-0.5c-0.3-0.4-0.7-0.7-1.2-0.8
        c-4.9,0.5-9.9-0.1-14.8-0.2c-6.6,0-13.2-0.5-19.8-0.6c-3.7-0.1-7.3,0-11-0.1c-3.4-0.1-6.9-0.4-10.3-0.5c-4-0.2-8.1-0.2-12.1-0.4
        c-1.3,0-2.8,0.4-3.4-1.4c0.3-0.4,0.5-0.9,0.6-1.5c0.1-3.3,0.2-6.7,0.2-10c0.1-5.5,0.1-11,0.2-16.5c0-1.9,0.3-3.8,0.5-5.7
        c0.5-3.9,0.5-7.8,0-11.7c-0.1-1.1,0-2.2,0.2-3.3c0.1-1,0.2-2,0.4-3c0.3-1,0.7-2,1.2-2.9c0.4-0.3,1-0.4,1.5-0.2
        c6.1,1.1,12.1,1.9,18.3,1.1c0.8-0.1,1.6-0.1,2.4,0c6.1,0.7,12.3,0.5,18.4,0.5c5.8,0,11.6,0.2,17.5,0.3
        C142.5,63.4,146.2,63.4,150,63.4z M152.7,66.8c-0.9-0.8-2-1.3-3.2-1.5c-1.9-0.1-3.8-0.2-5.7-0.2c-3.5,0.1-7-0.3-10.5-0.4
        c-4.9-0.1-9.9-0.2-14.8-0.3c-1.6,0-3.2,0.1-4.8,0.1c-5.6-0.1-11.2-0.3-16.8-0.5c-3.2-0.1-6.3-0.3-9.5-0.4l-5.7-0.3
        c-0.5,1.4-0.9,2.9-1.2,4.4c-0.2,2.2,0,4.5,0,6.7c0,2.7-0.2,5.4-0.3,8.1c-0.1,2.1-0.5,4.3-0.5,6.4c-0.1,7-0.1,14-0.1,21.1
        c0,1.7,0,3.5,0,5.5c1.8,0,3.3-0.1,4.8,0c4.5,0.4,9,0.9,13.6,1.1c4.8,0.2,9.6,0.1,14.4,0.3c6.8,0.2,13.6,0.5,20.4,0.7
        c1.8,0,3.5-0.2,5.2-0.2c3.4,0,6.9,0.2,10.3,0.2c1.3-0.1,2.6-0.2,3.9-0.4c0-2.8,0-5.3,0-7.9c0-4.3-0.3-8.7,0.1-12.9
        c0.4-5.1,0.5-10.2,0.1-15.3c-0.1-3.3-0.1-6.7-0.1-10C152.3,69.7,152.4,68.2,152.7,66.8L152.7,66.8z"/>
      <path d="M150.6,123.9l-2.3-0.5l1.8-1.9L150.6,123.9z"/>
      <path d="M85.4,119.3c-0.5,0.1-1,0.2-1.5,0.3c-0.2-0.1-0.4-0.3-0.4-0.5s0.1-0.4,0.3-0.5C84.4,118.4,85,118.2,85.4,119.3z"/>
      <path class="st1" d="M152.7,66.8c-0.2,1.4-0.4,2.9-0.5,4.3c0,3.3,0,6.7,0.1,10c0.4,5.1,0.3,10.2-0.1,15.3
        c-0.5,4.3-0.1,8.6-0.1,12.9c0,2.5,0,5.1,0,7.9c-1.3,0.2-2.6,0.3-3.9,0.4c-3.4,0-6.9-0.2-10.3-0.2c-1.8,0-3.5,0.3-5.2,0.2
        c-6.8-0.2-13.6-0.5-20.4-0.7c-4.8-0.1-9.6,0-14.4-0.3c-4.5-0.2-9-0.8-13.6-1.1c-1.5-0.1-3,0-4.8,0c0-2.1,0-3.8,0-5.5
        c0-7,0-14,0.1-21.1c0-2.1,0.4-4.3,0.5-6.4c0.2-2.7,0.3-5.4,0.3-8.1c0-2.2-0.2-4.5,0-6.7c0.3-1.5,0.7-2.9,1.2-4.4l5.7,0.3
        c3.2,0.1,6.3,0.3,9.5,0.4c5.6,0.2,11.2,0.4,16.8,0.5c1.6,0,3.2-0.1,4.8-0.1c5,0.1,9.9,0.2,14.8,0.3c3.5,0.1,7,0.5,10.5,0.4
        c1.9,0,3.8,0,5.7,0.2C150.7,65.5,151.8,66,152.7,66.8z"/>
    </g>
  </defs>
</svg>
