<svg version="1.1"
   xmlns="http://www.w3.org/2000/svg" xmlns:xlink="http://www.w3.org/1999/xlink" x="0px" y="0px" viewBox="0 0 236 180.8"
   style="enable-background:new 0 0 236 180.8;display:none;" xml:space="preserve">
<style type="text/css">
  .st0{fill:#1D1D1B;}
  .st1{fill:#FFFFFF;}
  .st2{opacity:0.35;enable-background:new;}
</style>
  <defs>
    <g id="18">
    <path class="st1" d="M162.9,69c-2.3-0.1-4.6-0.3-6.9-0.6c-4.8-0.8-9.5-1.8-14.3-2.6c-0.3,0-0.6,0-0.9,0c-3.5,0.4-7,0.6-10.5,0.6
        c-9.7-0.2-19.5,0-29.2-0.1c-6.9-0.1-13.7-0.4-20.6-0.5c-1,0.1-2-0.4-2.6-1.3c-0.2-0.2-0.5-0.3-0.8-0.4l-1.2,1.7
        c-2.6-1.2-4.4-1.3-6.1-0.3c0,0.4,0.2,0.7,0.4,1c1.2,0.6,1.1,1.7,1.3,2.8c0.8,4.8-0.4,9.5-0.8,14.3c-0.3,4-1.2,7.9-1.7,11.8
        c-0.1,1-0.1,1.9,0.1,2.9c0.8,3.7,1.1,7.6,0.8,11.4c-0.1,0.7,0.2,1.3,0.7,1.8c1.5,0.4,2.5,2,4.3,1.7c0.2,0,0.4,0,0.6,0.2
        c0.1,1.5,1.1,0.9,1.9,0.9c0.9,0,1.7,0.1,2.6,0.4c2.8,1,5.5,2,8.3,3c3.7,1.3,7.6,2.2,10.9,4.9c0.9-1.2,2-1.3,3.2-1.2
        c1.3,0,2.5,0,3.8-0.1c4.7-0.4,9.4-0.9,14.1-1.1c3.8-0.2,7.7-0.1,11.5-0.1c1.3,0,2.5,0.1,3.8,0.2c3.3,0.2,6.7,0.6,10,0.7
        c2-0.1,4-0.3,5.9-0.7c1.5-0.2,3.1-0.5,4.8-0.7l-0.5,1.4c0.7,0.4,1.2,0.5,1.1-0.5c-0.1-0.5,0.3-1.1,0.8-1.2c0.1,0,0.2,0,0.3,0
        c0.7,0,1.4,0,2.1,0.1c1.2,0.2,2.5,0.4,4.1,0.7c0-0.6,0-1.1-0.1-1.7c-0.8-1.3-0.5-2.6-0.4-4c0.2-0.8,0.3-1.6,0.3-2.4
        c0-3.9,0.9-7.7,0.3-11.6c0-0.6,0-1.3,0.1-1.9c0-1.4-0.1-2.9-0.1-4.3c-0.2-2.9-0.6-5.7-0.5-8.6c0.2-2.4,0.5-4.7,1-7
        c0.3-2.1,0.7-4.2,1-6.4S164.8,69.1,162.9,69z"/>
      <path d="M163.9,119.9c-1.6-0.3-2.8-0.5-4.1-0.7c-0.7-0.1-1.4-0.1-2.1-0.1c-0.5-0.1-1.1,0.3-1.1,0.9c0,0.1,0,0.2,0,0.3
        c0.1,0.9-0.4,0.9-1.1,0.5l0.5-1.4c-1.6,0.2-3.2,0.5-4.8,0.7c-2,0.4-3.9,0.6-5.9,0.7c-3.3-0.1-6.7-0.4-10-0.7
        c-1.3-0.1-2.5-0.2-3.8-0.2c-3.8,0-7.7-0.1-11.5,0.1c-4.7,0.2-9.4,0.8-14.1,1.1c-1.3,0.1-2.5,0.2-3.8,0.1c-1.2-0.1-2.4,0-3.2,1.2
        c-3.2-2.7-7.1-3.6-10.9-4.9c-2.8-1-5.5-2-8.3-3c-0.8-0.3-1.7-0.4-2.6-0.4c-0.8,0-1.8,0.6-1.9-0.9c-0.2-0.1-0.4-0.2-0.6-0.2
        c-1.8,0.4-2.8-1.2-4.3-1.7c-0.5-0.5-0.7-1.1-0.7-1.8c0.3-3.8,0.1-7.7-0.8-11.4c-0.2-0.9-0.2-1.9-0.1-2.9c0.5-3.9,1.4-7.9,1.7-11.8
        c0.4-4.8,1.6-9.5,0.8-14.3c-0.2-1.1-0.1-2.2-1.3-2.8c-0.2-0.3-0.4-0.6-0.4-1c1.8-1,3.5-0.9,6.1,0.3l1.2-1.7
        c0.3,0.1,0.6,0.2,0.8,0.4c0.6,0.9,1.6,1.4,2.6,1.3c6.9,0.1,13.7,0.5,20.6,0.5c9.7,0.1,19.5-0.2,29.2,0.1c3.5,0.1,7-0.1,10.5-0.6
        c0.3,0,0.6,0,0.9,0c4.8,0.9,9.5,1.8,14.3,2.6c2.3,0.3,4.6,0.6,6.9,0.6c2,0.1,2.8,1,2.6,3s-0.7,4.2-1,6.4c-0.5,2.3-0.8,4.6-1,7
        c-0.1,2.9,0.3,5.7,0.5,8.6c0.1,1.4,0.1,2.9,0.1,4.3c-0.1,0.6-0.1,1.3-0.1,1.9c0.5,3.9-0.3,7.8-0.3,11.6c0,0.8-0.2,1.6-0.3,2.4
        c-0.2,1.3-0.4,2.7,0.4,4C163.8,118.7,163.9,119.3,163.9,119.9z M100.3,119.5c3.2-0.2,6.2-0.3,9.2-0.5c3.5-0.2,7-0.6,10.5-0.8
        c2.5-0.1,5.1,0.2,7.6,0c3.9-0.2,7.8,0,11.7,0.5c2.7,0.3,5.4,0.3,8.1-0.1c3.7-0.7,7.4-1.2,11.1-1.6c1.2,0,2.3-0.8,2.6-2
        c0.3-0.8,0.5-1.7,0.5-2.6c0.1-4.4,0.8-8.9,0.5-13.3c-0.4-4.8-0.5-9.7-0.3-14.5c0.1-3.8,0.9-7.6,1.4-11.4c-0.6-1.3-2-2.1-3.5-2
        c-4.9,0.1-9.7-0.1-14.5,0.9c-0.4,0.1-0.8,0.1-1.2,0.1c-3.2-0.1-6.4-0.3-9.5-0.4c-4.5-0.2-9.1-0.4-13.6-0.4c-2.9,0-5.9,0.2-8.8,0.2
        c-1.7,0-3.5-0.1-5.2-0.2c-0.6,0.1-1.1-0.3-1.2-0.9c0-0.2,0-0.3,0.1-0.5c0.8,0.1,1.5,0.1,2.3,0.2c1.5,0,3,0.1,4.5,0.1
        c2.5-0.1,4.9-0.2,7.4-0.3c1.3,0,2.5,0,3.8,0c4.2,0,8.5-0.2,12.6,0.2c4.4,0.3,8.9,0.3,13.3-0.2l2.5-0.2c-3.1-0.3-6.1-1.9-9.4-0.9
        c-0.7,0.3-1.6,0.2-2.3-0.1c-1.4-1.4-3-0.6-4.5-0.7c-4.6-0.2-9.2-0.2-13.8-0.3c-2.3,0-4.6-0.1-6.9-0.1c-2.1,0-4.1,0-6.2,0
        c-0.6,0-1.3,0-1.9,0c-2.5,0.1-5.1,0.3-7.6,0.3c-3,0-6-0.2-9.1-0.3c-0.9,0-1.9,0.1-3.1,0.2c0.2,0.2,0.4,0.4,0.7,0.5
        c2.9,0.4,5.7,0.8,8.5,1.1c0.4,0,0.8,0,1.1-0.2c1.6-0.8,3-0.1,4.5,0.3c-0.6,1.8-1,3.6-1.3,5.4c-0.2,2.3-0.1,4.6-0.1,7
        c-0.1,5.1-0.1,10.2-0.3,15.3c-0.2,4.9-0.6,9.9-0.8,14.8C99.8,114.3,100.1,116.7,100.3,119.5L100.3,119.5z M73.1,67.5
        c0.1,1.9,0.2,3.5,0.2,5.1c0.1,1.2,0.2,2.4,0.1,3.6c-0.6,4.9-1.5,9.8-2.1,14.6c-0.4,2.4-0.5,4.9-0.5,7.4c0.1,3.4,0.7,6.8,1,10.2
        c0.1,0.5,0.2,0.9,0.3,1.4c1.2,0.4,2.1,0.7,3.1,1.1c2.1,0.8,4.1,1.7,6.2,2.4c4.6,1.7,9.5,2.8,13.9,5.1c0.9,0.3,1.8,0.6,2.8,0.8
        c0-1,0-1.8,0-2.5c0-4.5-0.3-9.1,0.1-13.6c0.6-7.5,0.9-15,0.9-22.5c0-2.9,0-5.8,0-8.9c-1.9-0.5-3.8-0.9-5.7-1.1
        c-2.7-0.2-5.4-0.8-7.9-1.7C81.6,67.5,77.5,67.5,73.1,67.5L73.1,67.5z"/>
      <path class="st1" d="M100.3,119.5c-0.2-2.8-0.6-5.2-0.5-7.7c0.1-4.9,0.6-9.9,0.8-14.8c0.2-5.1,0.2-10.2,0.3-15.3
        c0-2.3-0.1-4.6,0.1-7c0.3-1.8,0.7-3.6,1.3-5.4c-1.5-0.4-2.9-1.1-4.5-0.3c-0.4,0.2-0.7,0.2-1.1,0.2c-2.9-0.3-5.7-0.7-8.5-1.1
        c-0.2-0.1-0.5-0.3-0.7-0.5c1.2-0.1,2.1-0.2,3.1-0.2c3,0.1,6,0.3,9.1,0.3c2.5,0,5.1-0.2,7.6-0.3c0.6,0,1.3,0,1.9,0
        c2.1,0,4.1,0,6.2,0c2.3,0,4.6,0.1,6.9,0.1c4.6,0.1,9.2,0.1,13.8,0.3c1.5,0.1,3.1-0.7,4.5,0.7c0.7,0.4,1.5,0.4,2.3,0.1
        c3.3-1,6.2,0.6,9.4,0.9l-2.5,0.2c-4.4,0.5-8.9,0.6-13.3,0.2c-4.2-0.4-8.4-0.2-12.6-0.2c-1.3,0-2.5-0.1-3.8,0
        c-2.5,0.1-4.9,0.3-7.4,0.3c-1.5,0-3,0-4.5-0.1c-0.8,0-1.5-0.1-2.3-0.2c-0.2,0.6,0.1,1.2,0.7,1.3c0.2,0.1,0.3,0.1,0.5,0.1
        c1.7,0.1,3.5,0.2,5.2,0.2c2.9,0,5.9-0.2,8.8-0.2c4.5,0.1,9.1,0.2,13.6,0.4c3.2,0.1,6.4,0.3,9.5,0.4c0.4,0,0.8,0,1.2-0.1
        c4.8-1.1,9.7-0.8,14.5-0.9c1.5-0.1,2.9,0.7,3.5,2c-0.5,3.8-1.3,7.6-1.4,11.4c-0.1,4.9,0,9.7,0.3,14.5c0.3,4.5-0.4,8.9-0.5,13.3
        c0,0.9-0.2,1.8-0.5,2.6c-0.4,1.2-1.4,2-2.6,2c-3.7,0.4-7.5,0.9-11.1,1.6c-2.7,0.4-5.4,0.5-8.1,0.1c-3.9-0.5-7.8-0.7-11.7-0.5
        c-2.5,0.2-5.1-0.1-7.6,0c-3.5,0.2-7,0.5-10.5,0.8C106.6,119.2,103.5,119.3,100.3,119.5z"/>
      <path class="st1" d="M73.1,67.5c4.4,0.1,8.5,0,12.5,1.3c2.5,0.9,5.2,1.5,7.9,1.7c1.9,0.2,3.8,0.6,5.7,1.1c0,3.1,0,6,0,8.9
        c0,7.5-0.3,15-0.9,22.5c-0.4,4.5-0.1,9.1-0.1,13.6c0,0.8,0,1.5,0,2.5c-0.9-0.2-1.9-0.5-2.8-0.8c-4.4-2.3-9.3-3.4-13.9-5.1
        c-2.1-0.8-4.1-1.6-6.2-2.4c-0.9-0.4-1.9-0.7-3.1-1.1c-0.1-0.5-0.2-0.9-0.3-1.4c-0.4-3.4-0.9-6.8-1-10.2c0-2.5,0.1-4.9,0.5-7.4
        c0.6-4.9,1.5-9.8,2.1-14.6c0.1-1.2,0-2.4-0.1-3.6C73.2,71,73.2,69.4,73.1,67.5z"/>
    </g>
  </defs>
</svg>
