<svg version="1.1"
   xmlns="http://www.w3.org/2000/svg" xmlns:xlink="http://www.w3.org/1999/xlink" x="0px" y="0px" viewBox="0 0 236 180.8"
   style="enable-background:new 0 0 236 180.8;display:none;" xml:space="preserve">
<style type="text/css">
  .st0{fill:#1D1D1B;}
  .st1{fill:#FFFFFF;}
  .st2{opacity:0.35;enable-background:new;}
</style>
  <defs>
    <g id="21">
    <path class="st1" d="M69.9,65.3c-1.9-0.5-3.9,0.1-5.2,1.6c-0.5,0.5-0.7,1.2-0.6,1.9c0.3,3.2,0.4,6.5,0.5,9.7c0,1-0.1,1.9,0,2.9
        c0.2,3.4,0.4,6.9,0.6,10.3c0,1-0.1,2.1-0.2,3.1c-0.2,1.3-0.3,2.7-0.4,4c0,4,0.2,7.9,0.4,11.9c0,0.5,0.1,0.9,0.2,1.4
        c0.5,1.8,0.8,2,2.6,2.2c0.8,0,1.6,0.2,2.3,0.5c4.4,2,9.1,2.9,13.7,4.1c2.2,0.6,4.5,1.2,6.6,1.9c3.7,1.3,7.3,2.8,11,4
        c4.2,1.4,8.6,2.4,12.9,3.7c0.8,0.1,1.6,0.4,2.2,0.9c1.7,2,3.7,1.4,5.7,0.7c0.7-0.2,1.4-0.5,2-0.7c3-1,6-2.1,9.1-3
        c3.7-1.1,7.6-2,11.3-3.1c4-1.2,8-2.6,12-4c2.4-0.8,4.8-1.7,7.3-2.4c2.3-0.6,4.6-1,7-1.6c2-0.5,2.7-2.1,2.1-4
        c-0.5-1.1-0.8-2.3-1-3.5c-0.2-4.1-0.3-8.2-0.3-12.3c0.1-4.4,0.4-8.8,0.6-13.1c0.1-3.1,0-6.2,0.4-9.2s-1.6-4.4-4-4.5
        c-4.2-0.3-8.4-0.9-12.5-1.4c-3.8-0.4-7.6-0.8-11.4-1.1c-3.5-0.3-7-0.5-10.5-0.7c-0.2,0-0.5,0-0.7-0.1c-0.9-1.3-2.3-0.9-3.5-1
        c-1.9-0.2-3.7,0-5.6-0.5c-1.2-0.4-2.7,0.2-4,0.3c-4.5,0.2-8.9,0.3-13.4,0.5c-7.1,0.3-14.2,0.7-21.3,0.9
        C80.7,65.5,75.6,65.3,69.9,65.3z M169.5,116.8l-0.5,0.1c0.1,0.4,0.2,0.8,0.3,1.1c0.1,0,0.3-0.1,0.4-0.1
        C169.6,117.6,169.6,117.2,169.5,116.8z"/>
      <path d="M69.9,65.3c5.7,0,10.8,0.1,15.8,0c7.1-0.2,14.2-0.6,21.3-0.9c4.5-0.2,8.9-0.3,13.4-0.5c1.4-0.1,2.8-0.6,4-0.3
        c1.9,0.5,3.8,0.3,5.6,0.5c1.2,0.2,2.6-0.2,3.5,1c0.2,0.1,0.5,0.1,0.7,0.1c3.5,0.2,7,0.4,10.5,0.7c3.8,0.3,7.6,0.7,11.4,1.1
        c4.2,0.5,8.4,1.1,12.5,1.4c2.4,0.2,4.3,1.4,4,4.5s-0.2,6.2-0.4,9.2c-0.2,4.4-0.5,8.8-0.6,13.1c-0.1,4.1,0.1,8.2,0.3,12.3
        c0.2,1.2,0.5,2.3,1,3.4c0.6,2-0.1,3.5-2.1,4c-2.3,0.6-4.7,1-7,1.6c-2.5,0.7-4.9,1.6-7.3,2.4c-4,1.3-8,2.7-12,4
        c-3.7,1.1-7.5,2-11.3,3.1c-3,0.9-6,2-9.1,3c-0.7,0.2-1.4,0.5-2,0.7c-2,0.7-3.9,1.3-5.7-0.7c-0.7-0.5-1.4-0.8-2.2-0.9
        c-4.3-1.2-8.6-2.3-12.9-3.7c-3.7-1.2-7.3-2.7-11-4c-2.2-0.8-4.4-1.4-6.6-1.9c-4.6-1.2-9.3-2-13.7-4.1c-0.7-0.3-1.5-0.4-2.3-0.5
        c-1.8-0.2-2.1-0.5-2.6-2.2c-0.1-0.5-0.2-0.9-0.2-1.4c-0.1-4-0.3-7.9-0.4-11.9c0.1-1.3,0.2-2.7,0.4-4c0.2-1,0.2-2.1,0.2-3.1
        c-0.1-3.4-0.4-6.9-0.6-10.3c0-1,0.1-1.9,0-2.9c-0.1-3.2-0.3-6.5-0.5-9.7c-0.1-0.7,0.1-1.4,0.6-1.9C66,65.4,68,64.8,69.9,65.3z
         M93.7,72.1c0.7,1.6,2.2,1.1,3.6,1.1L93.7,72.1c-1.1-0.6-2.4-0.8-3.6-0.6V72L93.7,72.1z M99.1,74.3c-0.5,0.3-1.1,0.5-1.6,0.6
        c-1.6-0.3-3.2-0.8-4.8-1.2c-0.8-0.2-1.5-0.3-2.3-0.4c-3.2-0.5-6.5-0.9-9.7-1.4c-4.5-0.8-8.9-1.7-13.4-2.5
        c-0.2,4.2-0.4,8.2-0.5,12.1c0,0.8,0,1.6,0,2.4c0,3.6,0.2,7.2,0,10.7c-0.4,5,0.3,10,0.4,15c0,0.5,0.1,1,0.4,1.4
        c0.3,0.7,0.9,1.3,1.5,1.7c4.1,1.8,8.3,3.3,12.6,4.3c3.9,0.9,7.8,1.9,11.7,3c1.4,0.4,2.8,1.2,4.1,1.7c2.6,1,5.2,2.1,7.9,2.8
        s5,2.1,7.5,1.2l3.7,2.1c0.2-0.3,0.4-0.7,0.6-1.1c0.1-1.4,0-2.8,0.1-4.2c0.1-3.3-0.7-6.6,0-10c0-0.2,0-0.5,0-0.7
        c-0.2-2.6-0.4-5.2-0.6-7.8c0.1-0.4,0.3-0.7,0.5-1c1,1.3,1.5,2.3,1.4,3.6c-0.4,2.9,0.4,5.8,0.2,8.7c-0.3,3.8,0.4,7.6,0.7,11.4
        c0.1,1.7,0.8,2.1,2.4,1.6c3.1-1,6.2-2.1,9.3-3c6.3-2,12.6-3.9,18.9-5.9c3.9-1.2,7.7-2.5,11.6-3.7c2.1-0.7,4.3-1.3,6.4-2
        s2.7-1.8,2.3-3.9c-0.1-0.7-0.2-1.4-0.2-2.1c-0.1-2.5-0.3-5-0.2-7.4c-0.1-4.1,0.1-8.3,0.5-12.4c0.6-4.4,0.1-8.7-0.1-13.1
        c-0.1-1.4-0.9-2-2.3-1.8c-1.7,0.2-3.3,0.5-4.9,0.9c-5.8,1.4-11.7,2.2-17.7,2.5c-1.3,0-2.6,0.2-3.8,0.5c-6.3,1.6-12.8,1.9-19.2,2.7
        c-0.5-0.1-0.9-0.2-1.3-0.4c0.3-0.3,0.7-0.6,1.1-0.8c3.6-0.5,7.2-0.9,10.9-1.4c2.3-0.3,4.5-0.8,6.8-1.2c1.5-0.3,3-0.6,4.5-0.8
        c2.7-0.3,5.4-0.2,8.1-0.6c4.9-0.8,9.7-1.9,14.7-3c-0.3-0.3-0.6-0.5-0.9-0.6c-2.9-0.4-5.8-0.9-8.8-1.2c-3.6-0.4-7.1-0.7-10.7-1
        c-1.7-0.1-3.5-0.1-5.2-0.2c-2.9-0.3-5.8,0.7-8.8,0.2c-2.6-0.4-5.4,0.2-8.1,0.4c-0.8,0-1.6-0.1-2.6-0.1c1.1-2.4,3.5-0.7,5-2.2
        c-0.4-0.3-0.8-0.5-1.3-0.6c-4.6,0.1-9.2,0.1-13.9,0.3c-7.4,0.3-14.8,0.7-22.2,0.9c-6.1,0.2-12.1,0.3-18.2,0.4
        c-0.2,0.1-0.4,0.1-0.5,0.3c0.1,0.2,0.1,0.3,0.3,0.5c5.4,1.2,10.8,2.3,16.3,3.5c0-2.8,0-2.8,2.8-2.6c0.4,0,0.8-0.1,1.2-0.1
        c1.8-0.1,3.6-0.2,5.4-0.3c0.3,0.1,0.6,0.4,0.7,0.7c0,0.3-0.1,0.6-0.4,0.7c-0.6,0.2-1.2,0.3-1.9,0.4c6.8,2.8,13.9,4.9,21.2,6.3
        c0.5,0.8,0.8,1.7,1.1,2.6c0.2,1.8,0.1,3.6,0.3,5.4c0.2,3.3,0.5,6.5,0.7,9.8c0.2,2.6,0.4,5.3,0.6,8.1c-1.2-0.2-2-1.4-1.8-2.6
        c0-0.1,0-0.1,0-0.2c0.1-0.9,0-1.7-0.3-2.5c-0.2-0.5-0.3-1.1-0.3-1.6c-0.1-2.2,0.1-4.3-0.1-6.5c-0.2-2.8-0.6-5.5-1.1-8.3
        c-0.5-2.5-1-2.6-3.6-2.8c-0.3,0-0.6-0.1-0.9-0.2c-1.4-0.7-3-1.1-4.6-1c-0.6,0.1-1.1-0.1-1.6-0.5C103.3,74.6,101.1,74.6,99.1,74.3
        L99.1,74.3z"/>
      <path d="M169.5,116.8c0.1,0.4,0.1,0.8,0.2,1.2c-0.1,0-0.3,0.1-0.4,0.1c-0.1-0.4-0.2-0.8-0.3-1.1L169.5,116.8z"/>
      <path class="st1" d="M99.2,74.3c2,0.3,4.2,0.3,5.6,2.1c0.4,0.4,1,0.5,1.6,0.5c1.6,0,3.2,0.3,4.6,1c0.3,0.1,0.6,0.2,0.9,0.2
        c2.6,0.2,3.1,0.4,3.6,2.8c0.6,2.7,0.9,5.5,1.1,8.3c0.2,2.1,0.1,4.3,0.1,6.5c0,0.6,0.1,1.1,0.3,1.6c0.3,0.8,0.4,1.7,0.3,2.5
        c-0.3,1.2,0.4,2.4,1.6,2.7c0.1,0,0.1,0,0.2,0c-0.2-2.8-0.4-5.5-0.6-8.1c-0.2-3.3-0.5-6.5-0.7-9.8c-0.1-1.8-0.1-3.6-0.3-5.4
        c-0.2-0.9-0.6-1.8-1.1-2.6c-7.2-1.4-14.3-3.5-21.2-6.3c0.6-0.1,1.3-0.2,1.9-0.4c0.3-0.2,0.4-0.4,0.4-0.7c-0.1-0.3-0.4-0.6-0.7-0.7
        c-1.8,0-3.6,0.2-5.4,0.3c-0.4,0.1-0.8,0.1-1.2,0.1c-2.8-0.1-2.8-0.2-2.8,2.6C82,70.3,76.5,69.2,71.1,68c-0.1-0.1-0.2-0.3-0.3-0.5
        c0.2-0.1,0.3-0.2,0.5-0.3c6.1-0.1,12.1-0.2,18.2-0.4c7.4-0.2,14.8-0.6,22.2-0.9c4.6-0.2,9.2-0.2,13.9-0.3c0.5,0.1,0.9,0.3,1.3,0.6
        c-1.5,1.5-3.8-0.2-5,2.2c1,0,1.8,0.1,2.6,0.1c2.7-0.1,5.5-0.8,8.1-0.4c3,0.5,5.9-0.5,8.8-0.2c1.7,0.2,3.5,0.1,5.2,0.2
        c3.6,0.3,7.1,0.6,10.7,1c2.9,0.3,5.8,0.8,8.8,1.2c0.3,0.2,0.7,0.4,0.9,0.6c-5.1,1-9.9,2.1-14.7,3c-2.7,0.5-5.4,0.4-8.1,0.6
        c-1.5,0.1-3,0.5-4.5,0.8c-2.3,0.4-4.5,0.9-6.8,1.2c-3.6,0.5-7.2,0.9-10.9,1.4c-0.4,0.2-0.8,0.5-1.2,0.8c0.4,0.2,0.9,0.3,1.4,0.4
        c6.4-0.8,12.9-1.1,19.2-2.7c1.2-0.3,2.5-0.4,3.8-0.5c6-0.2,11.9-1,17.7-2.5c1.6-0.4,3.3-0.7,4.9-0.9c1.4-0.2,2.2,0.4,2.3,1.8
        c0.2,4.4,0.7,8.7,0.1,13.1c-0.4,4.1-0.6,8.3-0.5,12.4c0,2.5,0.1,5,0.2,7.4c0,0.7,0.1,1.4,0.2,2.1c0.4,2.1-0.2,3.2-2.3,3.9
        s-4.2,1.3-6.4,2c-3.9,1.2-7.7,2.5-11.6,3.7c-6.3,2-12.6,3.9-18.9,5.9c-3.1,1-6.2,2-9.3,3c-1.6,0.5-2.2,0.1-2.4-1.6
        c-0.3-3.8-1-7.7-0.7-11.4c0.2-3-0.6-5.8-0.2-8.7c0.2-1.2-0.4-2.3-1.4-3.6c-0.3,0.3-0.4,0.6-0.5,1c0.2,2.6,0.4,5.2,0.6,7.8
        c0.1,0.2,0.1,0.5,0,0.7c-0.8,3.3,0.1,6.6,0,10c-0.1,1.4,0,2.8-0.1,4.2c-0.1,0.4-0.3,0.8-0.6,1.1l-3.7-2c-2.5,0.9-5-0.5-7.5-1.2
        s-5.2-1.8-7.9-2.8c-1.4-0.5-2.7-1.3-4.1-1.7c-3.9-1.1-7.8-2.1-11.7-3c-4.3-1-8.6-2.5-12.6-4.3c-0.6-0.4-1.1-1-1.5-1.7
        c-0.3-0.4-0.4-0.9-0.4-1.4c0-5-0.7-10-0.4-15c0.3-3.5,0-7.1,0-10.7c0-0.8-0.1-1.6,0-2.4c0.2-4,0.4-7.9,0.5-12.1
        c4.5,0.9,8.9,1.8,13.4,2.5c3.2,0.6,6.5,1,9.7,1.4c0.8,0.1,1.6,0.2,2.3,0.4c1.6,0.4,3.2,0.9,4.8,1.2C98.1,74.9,98.7,74.6,99.2,74.3z
         M113.5,69.3l0.3-0.8c-0.5-0.3-1-1-1.4-0.8c-1.7,0.6-3.7-0.5-5.6,1.3C109.3,70.5,111.4,69.3,113.5,69.3z M120.5,67.1
        c-0.2,0.3-0.4,0.7-0.5,1.1c0.2,0.3,0.5,0.5,0.8,0.6c0.3-0.1,0.6-0.4,0.8-0.6L120.5,67.1z"/>
      <path class="st1" d="M93.7,72.1L90.1,72v-0.5C91.3,71.2,92.6,71.5,93.7,72.1L93.7,72.1z"/>
      <path class="st1" d="M93.6,72.1l3.6,1C95.9,73.1,94.4,73.6,93.6,72.1L93.6,72.1z"/>
      <path d="M113.5,69.3c-2.1,0-4.2,1.3-6.6-0.3c1.8-1.8,3.9-0.7,5.6-1.3c0.3-0.1,0.9,0.5,1.4,0.8L113.5,69.3z"/>
      <path d="M120.4,67.1l1.1,1c-0.2,0.3-0.5,0.5-0.8,0.6c-0.4,0-0.7-0.3-0.8-0.6C120,67.8,120.2,67.4,120.4,67.1z"/>
    </g>
  </defs>
</svg>
