<svg version="1.1"
   xmlns="http://www.w3.org/2000/svg" xmlns:xlink="http://www.w3.org/1999/xlink" x="0px" y="0px" viewBox="0 0 236 180.8"
   style="enable-background:new 0 0 236 180.8;display:none;" xml:space="preserve">
<style type="text/css">
  .st0{fill:#1D1D1B;}
  .st1{fill:#FFFFFF;}
  .st2{opacity:0.35;enable-background:new;}
</style>
  <defs>
    <g id="34">
<path class="st0" d="M79.8,100.4c0-0.5,0.3,4.3,0.6,2.8c-0.5-0.8-1-0.9-1.6-1c-1.4-0.2-2.9-0.5-4.3-0.6c-0.5,0-1.1,0.1-1.6,0.2
c-1.5,0.3-3,0.4-4.7,0.2c-1.1-0.1-2.3,0-3.4,0.2c-0.9,0.1-1.9,0.3-2.8,0.1c-1.1-0.2-2.3-0.1-3.4,0c-2.1,0.2-4.3,0.3-6.4,0.4
c-0.1,0-0.3-0.1-0.4-0.1c-3.3-1-6.5-0.7-9.8-0.2c-2.4,0.3-4.8-0.1-7.3-0.4c-2,0.5-4.3,0.3-6.5-0.3c-2-0.5-4-0.4-6-0.5
c-1.5,0-3,0-4.5,0c-0.5,0-1-0.1-1.9-0.3c0.6-0.3,0.9-0.5,1.1-0.5c3.1,0.1,6.3,0.3,9.4,0.5c1.1,0.1,2.3,0.4,3.4,0.5
c1.5,0.1,3,0,4.5,0c0.6,0,1.1,0,1.8,0c1.3,0.1,2.4,0.2,3.6,0.3c1.5,0.1,3,0.1,4.5-0.3c1.6-0.4,3.4-0.4,5.2-0.2
c3.6,0.4,7.3,0.2,10.9-0.5c0.8-0.2,1.4-0.2,2.1-0.2c1.5,0,3,0.1,4.5-0.3c0.3-0.1,0.4-0.1,0.6-0.1c2.9,0.6,5.9,0,8.8,0.1
c0.6,0,1.3,0.2,1.9,0.2C78.7,100.5,79.2,100.4,79.8,100.4"/>
<path class="st0" d="M165.4,100.4c0-0.5-0.2,4.3-0.7,2.8c0.4-0.8,0.9-0.9,1.4-1c1.2-0.2,2.5-0.5,3.8-0.6c0.5,0,1,0.1,1.5,0.2
c1.4,0.3,2.8,0.4,4.2,0.2c1-0.1,2.1,0,3,0.2c0.9,0.1,1.7,0.3,2.5,0.1c1-0.2,2.1-0.1,3,0c1.8,0.2,3.8,0.3,5.8,0.4
c0.2,0,0.3-0.1,0.4-0.1c2.9-1,5.9-0.7,8.8-0.2c2.2,0.3,4.3-0.1,6.6-0.4c1.8,0.5,3.8,0.3,5.9-0.3c1.7-0.5,3.6-0.4,5.4-0.5
c1.3,0,2.7,0,4,0c0.3,0,0.8-0.1,1.6-0.3c-0.5-0.3-0.8-0.5-1-0.5c-2.8,0.1-5.6,0.3-8.5,0.5c-1,0.1-2.1,0.4-3,0.5c-1.3,0.1-2.7,0-4,0
c-0.4,0-1,0-1.5,0c-1.1,0.1-2.2,0.2-3.3,0.3c-1.3,0.1-2.7,0.1-4-0.3c-1.5-0.4-3.1-0.4-4.7-0.2c-3.4,0.4-6.6,0.2-9.9-0.5
c-0.7-0.2-1.3-0.2-2-0.2c-1.3,0-2.7,0.1-4-0.3c-0.1-0.1-0.3-0.1-0.5-0.1c-2.6,0.6-5.3,0-7.9,0.1c-0.5,0-1.2,0.2-1.7,0.2
C166.3,100.5,165.9,100.4,165.4,100.4"/>
<polygon class="st1" points="177.8,61.4 179.5,58.2 157.5,55.9 134.3,52.5 122.9,62.9 120.3,63.5 108.6,52.7 84.5,54.4 47.5,53.7
55,59.2 67.8,69.9 104.1,66.4 119.5,64.3 128.2,65 160.6,69.7 121.1,76.9 70.6,70.7 68.6,71.5 62.5,80 61.9,83 55.3,90.9 66.8,93.2
73.5,95.2 73.2,124.3 97.5,130 118.3,134.5 125.8,130.4 141,126.5 147.5,126.7 168,120.7 168.1,105.2 169.3,94.5 170,89.5 171,77
161.8,70 164.8,68.7 "/>
<g>
<path d="M118.9,135.7c-2.6-0.6-4.6-1.1-6.7-1.7c-2.3-0.6-4.6-1.4-6.9-1.9c-3-0.6-6-0.8-9-1.4c-6.6-1.2-13.2-2.5-19.8-3.7
  c-0.5-0.1-0.9-0.1-1.4,0c-2.2,0.4-3.1-0.5-2.9-2.6c0.2-1.4,0.3-2.8,0.3-4.2c0-2.1-0.2-4.3-0.1-6.4c0.1-3.5,0.3-7,0.4-10.5
  c0-1.1-0.1-2.2-0.3-3.3c-0.1-1.2-0.2-2.3-0.3-3.5c1.8-0.3,2.4,0.2,2.3,1.6c0,0.9,0.1,1.8,0.1,2.8s-0.2,1.9-0.2,2.8
  c-0.1,4.5-0.7,8.9,0,13.4c0.1,1.6,0,3.2-0.1,4.7c0,2.5,0.5,2.9,3,3.5c6,1.5,12.1,2.6,18.3,3.4c3.2,0.4,6.3,0.9,9.4,1.5
  s6.3,1.8,9.4,2.7c0.9,0.3,1.8,0.4,3,0.6l0.8-4.5h0.4l0.4,2.9c0.7,0,1.5-0.2,2.2-0.5c1.5-1.1,3.4-1.8,5.2-2.1
  c4.5-0.8,8.9-1.7,13.4-2.6c0.4-0.1,0.8-0.2,1.2-0.2c4.6,0.4,8.7-1.4,12.9-2.9c1.6-0.6,3.4-0.8,5.1-1.2c2.2-0.6,4.3-1.1,6.4-1.8
  c1.2-0.3,2-1.5,1.8-2.7c-0.2-2.9-0.3-5.7-0.1-8.6c0.2-4,0.6-7.9,1-11.9c0.2-2.1,0.3-4.3,0.5-6.6c-0.9,0.1-1.8,0.3-2.6,0.6
  c-2.7,1.4-5.7,1.5-8.6,2.1c-3.4,0.8-6.8,1.8-10.2,2.6c-2.1,0.5-4.2,0.9-6.3,1.2c-2,0.4-4,1.3-5.5,2.7c-1.4,1.1-2,0.9-3-0.5
  c-3.3-5.1-5.7-10.6-8.2-16.1c-0.5-1.2-1.3-2.3-2.3-3.9c-0.2,1.4-0.4,2.3-0.4,3.2c-0.2,5.3,0,10.7,0.6,16c0.1,0.3,0.1,0.7,0.1,1
  c-0.2,4-0.5,8.1-0.7,12.2c0,0.9-0.1,1.8-0.1,2.6c-0.1,3.9-0.7,7.9-1.8,11.6c-0.2,0.1-0.3,0.2-0.5,0.2c0.1-1.4,0.2-2.8,0.4-4.2
  c0.5-2.6,0.5-5.3,0.2-7.9c-0.3-1.5,0-3,0.9-4.2c0.8-1.1,0.5-3.1,0.3-4.6c-0.2-2-0.3-4.1-0.2-6.2c0-2.6-0.1-5.3-0.5-7.9
  c-0.1-1.3-0.1-2.5-0.2-3.8c0-2.4,0-4.9,0-7.5c-0.5,0.9-1,1.6-1.5,2.4c-2.2,3-4.4,5.9-6.5,8.9c-0.5,0.6-0.9,1.3-1.2,2
  c-0.3,1.2-0.5,2.4-1.7,3.2c-0.5,0.4-0.6,1.4-0.8,2.2c-0.5,1.6-1.8,2.5-3.2,1.8c-2.4-1-4.9-1.1-7.5-1.3c-3.5-0.3-7-0.9-10.5-1.4
  s-6.8-1-10.2-1.5c-1.6-0.3-3.1-0.8-4.6-1.1c-3.8-0.7-7.5-1.5-11.3-2.1c-1.1-0.2-2.4,0-3.5-0.2c-1.4-0.2-2.8-0.6-4.3-0.9
  c0.2-0.5,0.4-1,0.7-1.5c2.2-2.4,4.5-4.7,6.7-7c0.4-0.3,0.6-0.7,0.7-1.2c0.1-2.8,2.1-4.6,3.3-6.8c0.9-1.9,2-3.6,3.2-5.6
  c-1.1-0.8-2.1-1.5-3.1-2.3c-3-2.6-6.2-5-9.6-7c-1.2-0.8-2.3-1.8-3.3-2.8c-1.5-1.2-3.1-2.3-5.2-1.9c-0.3-0.1-0.6-0.2-0.9-0.4
  l-0.2-2.6c1.4-0.9,2.7-0.4,4,0c1.6,0.4,3.3,0.4,4.9-0.1c1.3-0.2,2.7-0.2,4-0.1c0.4,0,0.8,0.2,1.2,0.2c4.7,0.2,9.4,0.4,14.1,0.6
  c1.7,0.1,3.4,0.3,5,0.2c3.8-0.1,7.7-0.3,11.5-0.4c2.6-0.1,5.2-0.2,7.9-0.4c2.1-0.1,4.3-0.4,6.4-0.6c0.9-0.1,1.9-0.4,2.8-0.7
  c1.5-0.5,2.4-0.4,3.1,0.8c1.1,2,3,3,4.5,4.5s2.9,2.8,4.2,4.2c1.3,1.5,3.2,2,4.8,0.5c2.1-1.9,4.1-4,6-6.1c1-1.1,1.9-2.3,2.8-3.6
  c0.5,0,1.2-0.1,1.8,0c3,0.3,6,0.6,9,0.9c0.5,0,1,0,1.4,0.1c4.8,1.5,9.7,1.8,14.6,2.1c3.7,0.2,7.3,1,10.9,1.2c2.5,0.2,5.1,0,7.6,0
  c0.8-0.1,1.6,0,2.3,0.2c2.5,0.9,2.6,2.2,0.8,4c-1,0.9-1.8,2-3.3,2c-0.3,0.1-0.6,0.3-0.8,0.5c-2.9,1.7-5.8,3.4-8.7,5.1
  c-0.5,0.3-1,0.7-1.7,1.2c0.6,0.9,1.2,1.7,1.8,2.4c2.8,3.7,5.6,7.3,8.5,11c1.1,1.4,2.3,2.8,3.5,4.2c0.6,0.7,0.5,1.7-0.1,2.3
  c0,0,0,0-0.1,0.1c-0.4,0.7-1.2,0.9-1.9,0.5c-0.1,0-0.1-0.1-0.2-0.1c-0.5-0.3-1-0.4-1.5-0.3c-1.4,0.1-2.7,0.3-4,0.4
  c-1.8,0.2-2.1,0.5-2.4,2.4s-0.4,3.6-0.5,5.5c-0.1,3-1.2,6-0.4,9c0,0.2,0,0.3,0,0.5c-1.3,4.3-0.3,8.5,0.2,12.8
  c0.2,1.7-0.3,2.4-1.9,2.7l-9.8,2c-0.5,0.1-0.9,0.2-1.4,0.4c-3.5,1-7,2.1-10.5,3c-0.6,0.1-1.3,0.2-1.9,0.2c-4.1,0.1-8.1,0.9-12,2.1
  c-0.9,0.3-1.9,0.5-2.9,0.4c-2.5-0.1-4.8,1-6.9,2.5C120.8,134.2,119.7,135,118.9,135.7z M50.9,55c2.5,2,4.5,4.2,6.9,5.6
  c2.4,1.3,4.5,3,6.5,4.8c2,1.9,4.1,3.3,6.9,3.4s5.4,0.7,8.1,0c2.8-0.6,5.6-0.6,8.4,0c-4.5,1.4-8.7,0.6-12.9,1.7
  c1.8,1.2,4.2-0.2,6,1.5c-2.1,0.6-4.3,0.6-6.4-0.1c-1.9-0.6-3.9-0.8-5.8-0.4c-1.5,2.6-3,5.2-4.6,7.8c-0.7,0.9-1.1,2-1.1,3.1
  c0,1-0.5,2-1.4,2.7c-1.6,1.7-3.1,3.5-4.8,5.4c0.4,0.3,0.9,0.5,1.3,0.7c4,1.1,8.1,1.8,12.2,2.2c2.2,0.1,4.5,0.5,6.6,1.2
  c3.8,1.4,7.8,1.4,11.7,2.1c5.1,0.9,10.2,1,15.4,1.5c0.7,0.1,1.5-0.2,2-0.6c1-1.3,2-2.6,2.9-4c0.9-1.3,1.5-2.8,2.4-4.1
  c1.3-1.9,2.9-3.6,4.3-5.5s2.4-3.7,3.9-5.9c-2.8-0.5-5-0.9-7.3-1.2c-5.9-0.8-11.7-1.4-17.6-2.3c-1.5-0.2-3.1-0.5-4.2-1.9
  c2.4,0.2,4.8,0.7,7.1,1s4.9,0.5,7.4,0.8s4.9,0.5,7.3,0.8s4.9,0.7,7.3,1v-11c-0.5-0.1-0.9-0.1-1.4-0.1c-3.5,0.4-7,0.6-10.5,1.1
  c-5.7,0.8-11.4,1.8-17,2.6c-0.6,0.1-1.4,0.5-2.1-0.6c10-2.1,20.1-3.7,30.2-4.6c-2.6-2.6-4.7-4.8-6.9-7c-1.8-1.9-4.3-2.9-6.9-2.7
  c-1.7,0.1-3.3,0.4-5,0.5c-6.1,0.4-12.3,0.8-18.4,1c-3.2,0.1-6.4-0.1-9.6-0.2c-4.4-0.2-8.8-0.3-13.1-0.7C56,54.1,53.4,54.4,50.9,55
  L50.9,55z M133.9,97.9c3.1-0.8,6-1.5,8.9-2.2c2.2-0.6,4.5-1.1,6.7-1.7c1.3-0.4,2.6-0.9,3.9-1.1c3.8-0.8,7.8-1,11.4-2.5
  c3.6-1.3,7.4-2.1,11.2-2.3c0.8-0.2,1.5-0.4,2.2-0.7c-1.6-2-3-3.6-4.3-5.3c-2.5-3.2-4.9-6.5-7.3-9.8c-0.8-1.2-2.1-1.8-3.5-1.5
  c-2.3,0.3-4.6,0.4-6.9,0.7c-6.2,1-12.5,2-18.7,3c-4.9,0.9-9.8,1.9-14.7,2.9c-0.3,0.1-0.5,0.3-0.7,0.6c0.1,0.4,0.2,0.7,0.4,1
  c3.1,3.4,4.5,7.8,6.6,11.8C130.5,93.4,131.7,96.1,133.9,97.9L133.9,97.9z M154,68.1c0.9,0.1,1.5,0.2,2.2,0.3c1.1,0.2,2.2,0.2,3.3,0
  c1-0.2,2-0.2,3,0.1c1.5,0.1,2.9-0.2,4.2-0.9c2.6-1.3,5.1-2.9,7.7-4.3c1.6-0.9,2.8-2.4,3.2-4.2c-1.8-0.2-3.4-0.5-5-0.6
  s-3-0.1-4.5-0.3c-4-0.4-8.1-0.9-12.1-1.4c-3.2-0.4-6.6-0.4-9.7-1.3c-3.5-0.9-6.9-1-10.4-1.4c-1-0.1-2.4,0-2.9,0.6
  c-0.9,1.1-2.2,1.5-3.1,2.4l-6.6,6.9c1.6,0.3,3.2,0.6,4.9,1c1.7,0.4,3.4,0.9,5.1,1.2s3.3,0.2,5,0.5s3.4,0.8,5.1,1.1s3.3,0.3,5,0.5
  s3.4-0.4,5,0.6c-0.1,0.2-0.3,0.4-0.5,0.6c-0.5,0.1-1.1,0.2-1.6,0.2c-5.2-0.5-10.5-0.9-15.7-1.6c-4.9-0.7-9.8-1.9-14.5-2.8
  c-1.6,3.6-0.5,7.2-1,10.9c1.1-0.1,1.9-0.1,2.7-0.2c2.6-0.4,5.1-1,7.7-1.4c4.6-0.8,9.3-1.5,13.9-2.3l12.6-2.1
  c-0.5-0.4-1.1-0.6-1.7-0.7C154.9,69.2,154.2,69.3,154,68.1L154,68.1z"/>
<path d="M128.7,133c-0.1,0.5-0.3,1-0.6,1.5c-0.7-0.1-1.4-0.2-2.1-0.4v-0.6L128.7,133z"/>
<path d="M77.7,128.2c0.3,0.2,0.6,0.5,0.8,0.8c-0.2,0.4-0.4,0.7-0.7,1.1c-0.4-0.3-0.7-0.6-0.9-1C77.1,128.7,77.4,128.4,77.7,128.2z"
  />
<path d="M56.1,67.5c-0.9,0.7-1.5,0.8-2-0.2C54.7,66.7,55.2,66.8,56.1,67.5z"/>
<path d="M157.7,120.1l1.1-1l0.3,0.2c-0.2,0.3-0.4,0.7-0.6,1C158.2,120.2,158,120.2,157.7,120.1z"/>
<path class="st1" d="M133.9,97.9c-2.2-1.8-3.4-4.5-4.8-7.2c-2-4-3.5-8.4-6.6-11.8c-0.2-0.3-0.3-0.6-0.4-1c0.2-0.2,0.4-0.4,0.7-0.6
  c4.9-1,9.8-2,14.7-2.9c6.2-1.1,12.4-2.1,18.7-3c2.3-0.4,4.6-0.4,6.9-0.7c1.4-0.2,2.7,0.4,3.5,1.5c2.4,3.3,4.8,6.6,7.3,9.8
  c1.3,1.7,2.7,3.3,4.3,5.3c-0.7,0.3-1.4,0.5-2.2,0.7c-3.8,0.2-7.6,1-11.2,2.3c-3.7,1.4-7.6,1.6-11.4,2.5c-1.3,0.3-2.6,0.8-3.9,1.1
  c-2.2,0.6-4.5,1.2-6.7,1.7C139.9,96.4,137,97.1,133.9,97.9z M149.6,92.7l-0.1-0.6l-2.5,0.3l0.1,0.7
  C147.9,93.4,148.9,93.2,149.6,92.7z M131.6,79.8c0.8-1.4-0.1-1.4-0.9-1.5c-0.3,0.1-0.5,0.2-0.7,0.3L131.6,79.8z"/>
<path d="M82.1,72.4c1.4-0.4,2.5-1,3.9,0C84.7,72.9,83.6,73.6,82.1,72.4z"/>
<path d="M149.6,92.7c-0.7,0.6-1.7,0.7-2.5,0.4l-0.1-0.7l2.5-0.3L149.6,92.7z"/>
<path d="M131.7,79.8l-1.5-1.2c0.2-0.2,0.4-0.3,0.7-0.3C131.6,78.4,132.5,78.5,131.7,79.8z"/>
<path d="M172.3,62.2c0.3,1.5-0.4,1.2-1.6,1.2L172.3,62.2z"/>
</g>
<path class="st1" d="M179.5,58.2"/>
    </g>
  </defs>
</svg>
