<svg version="1.1"
   xmlns="http://www.w3.org/2000/svg" xmlns:xlink="http://www.w3.org/1999/xlink" x="0px" y="0px" viewBox="0 0 236 180.8"
   style="enable-background:new 0 0 236 180.8;display:none;" xml:space="preserve">
<style type="text/css">
  .st0{fill:#1D1D1B;}
  .st1{fill:#FFFFFF;}
  .st2{opacity:0.35;enable-background:new;}
</style>
  <defs>
    <g id="38">
<path class="st0" d="M88.6,100.4c0-0.5,0.3,4.3,0.7,2.8c-0.6-0.8-1.1-0.9-1.9-1c-1.6-0.2-3.3-0.5-4.9-0.6c-0.6,0-1.3,0.1-1.9,0.2
c-1.7,0.3-3.4,0.4-5.3,0.2c-1.3-0.1-2.6,0-3.9,0.2c-1,0.1-2.1,0.3-3.1,0.1c-1.3-0.2-2.6-0.1-3.9,0c-2.4,0.2-4.9,0.3-7.3,0.4
c-0.1,0-0.3-0.1-0.4-0.1c-3.7-1-7.4-0.7-11.1-0.2c-2.7,0.3-5.4-0.1-8.3-0.4c-2.3,0.5-4.9,0.3-7.4-0.3c-2.3-0.5-4.6-0.4-6.9-0.5
c-1.7,0-3.4,0-5.1,0c-0.6,0-1.1-0.1-2.1-0.3c0.7-0.3,1-0.5,1.3-0.5c3.6,0.1,7.1,0.3,10.7,0.5c1.3,0.1,2.6,0.4,3.9,0.5
c1.7,0.1,3.4,0,5.1,0c0.7,0,1.3,0,2,0c1.4,0.1,2.7,0.2,4.1,0.3c1.7,0.1,3.4,0.1,5.1-0.3c2-0.4,4-0.4,6-0.2c4.1,0.4,8.3,0.2,12.4-0.5
c0.9-0.2,1.6-0.2,2.4-0.2c1.7,0,3.4,0.1,5.1-0.3c0.3-0.1,0.4-0.1,0.7-0.1c3.3,0.6,6.7,0,10,0.1c0.7,0,1.4,0.2,2.1,0.2
C87.3,100.5,87.8,100.4,88.6,100.4"/>
<path class="st0" d="M144.3,100.3c0-0.5-0.3,4.7-0.9,3c0.6-0.9,1.2-1,1.9-1.1c1.6-0.2,3.4-0.5,5.2-0.7c0.7,0,1.3,0.1,2.1,0.2
c1.9,0.3,3.9,0.4,5.8,0.2c1.3-0.1,2.8,0,4.2,0.2c1.2,0.1,2.4,0.3,3.4,0.1c1.3-0.2,2.8-0.1,4.2,0c2.5,0.2,5.2,0.3,7.9,0.4
c0.3,0,0.4-0.1,0.6-0.1c4-1.1,8-0.8,12-0.2c3,0.3,5.9-0.1,9-0.4c2.5,0.5,5.2,0.3,8-0.3c2.4-0.5,4.9-0.4,7.4-0.5c1.8,0,3.7,0,5.5,0
c0.4,0,1-0.1,2.2-0.3c-0.7-0.3-1-0.5-1.3-0.5c-3.9,0.1-7.7,0.3-11.6,0.5c-1.3,0.1-2.8,0.4-4.2,0.5c-1.8,0.1-3.7,0-5.5,0
c-0.6,0-1.3,0-2.1,0c-1.5,0.1-3,0.2-4.4,0.3c-1.8,0.1-3.7,0.1-5.5-0.3c-2.1-0.4-4.3-0.4-6.4-0.2c-4.6,0.4-9,0.2-13.5-0.5
c-0.9-0.2-1.8-0.2-2.7-0.2c-1.8,0-3.7,0.1-5.5-0.3c-0.1-0.1-0.4-0.1-0.7-0.1c-3.6,0.7-7.3,0-10.8,0.1c-0.7,0-1.6,0.2-2.4,0.2
C145.7,100.4,145.1,100.3,144.3,100.3"/>
<g>
<path class="st1" d="M130.2,65.9l12.5-4l5.6,1.2l19,7.4c0,0,4.1,1,3.4,1.4s-10.4,3.2-11.4,3.5s-6.2,1.6-7.9,1.4s-15.2-8.9-16.2-9
  S130.2,65.9,130.2,65.9z"/>
<g>
  <path d="M168.9,86.5c0.3,0.4,0.7,0.6,1,1c0.8,1.2,0.5,2.3-0.9,2.4c-0.6,0.1-1.2,0-1.8-0.3c-1-0.6-2.3-0.8-3.4-0.4
    c-0.6,0.1-1.1,0.1-1.7,0.1l-8.6,0.7c-0.3,4.7-1,9.2-0.7,13.6c0.4,6.2-0.2,12.4-0.1,18.6c0,3.1-0.7,6.2,1.2,9l0,0
    c-0.6,0.8-1.7,1.1-2.6,0.5c-1.6-0.7-3.4-0.9-5.1-0.5c-1.2,0.2-2.4,0.2-3.6,0.2c-4.4,0.1-8.8,0.1-13.2,0.3
    c-5.7,0.2-11.4,0.8-17.2,0.3c-2.9-0.2-5.7-0.2-8.6,0c-1.7,0-3.5,0.3-5.2,0.4c-3.1,0.2-4.7-0.8-5.6-3c-1.2-2.9-2.6-5.7-4.1-8.5
    c-1.1-2.1-2.4-4.2-4.8-5.3c-0.4-0.3-0.6-0.9-0.7-1.4c0-2.3,0.2-4.5,0.3-6.8c0.3-7.4,0.6-14.8,1-22.8c-2.2,1.4-4.7,1.2-5.7,3.5
    c-0.2,0.4-1.2,0.4-2,0.7c0-0.2-0.1,0-0.1,0.1c-0.1,0.8-0.4,1.4-1.3,1.3l0,0c-0.8,0-1.4-0.6-1.5-1.4c0-1.6-0.9-2.9-1.7-4.2
    c-1.3-2.3-2.3-4.8-4.2-6.8c-1.6-1.6-3-3.4-4.5-5.1c-0.7-0.8-1.6-1.7-0.8-3.2c3,0.8,5.9-1.4,9.2-0.4l9.4-2.6
    c-0.9-1-1.8-2.1-2.7-3.1c-0.9-1-1.9-1.9-2.9-3.2c-1.1-1.3-0.6-2.1,0.9-2.2c1.2-0.1,2.4-0.1,3.6-0.2c3.3-0.2,6.7-0.4,10-0.7
    c3.5-0.3,7-1,10.5-1.1c4.9-0.2,9.7,0,14.6-0.1c1.5,0,3-0.3,4.5-0.4c1.4-0.1,2.4,0,3.1,1.6c0.4,1.2,1.8,2.2,2.7,3.3
    c1.1,1.4,2.1,2.8,3.5,4.5c3.3-0.9,6.9-1.9,10.5-2.9c0.9-0.2,1.6-0.7,2.5-0.9s1.8-0.3,2.2,1.3l-11.8,3.4c0.7,0.6,1.5,0.9,2.4,1.1
    c0.4,0.1,0.9,0.2,1.3,0.4c5.5,3,10.9,6,15.8,8.7c2.6-0.5,4.4-1,6.2-1.3c3.3-0.6,6.5-1.1,9.3-2.8c-1.8-0.8-3.7-1.7-5.5-2.4
    c-5.1-1.9-10.2-3.7-15.2-5.6c-0.2,0-0.3-0.1-0.5-0.2c-0.8-0.5-1.1-1.5-0.6-2.2c0.8,0.1,1.6,0.2,2.3,0.5c2.3,1.1,4.6,2.5,7.1,3.4
    c5.3,2,10.6,3.7,15.9,5.1c2.1,0.6,4.3,1.2,6.5,1.9c0.4,0.3,0.7,0.7,0.9,1.1c-0.4,0.3-0.8,0.6-1.3,0.8c-0.4,0-0.8-0.2-1.1-0.4
    c-0.4-0.3-1-0.5-1.5-0.6c-1.8,0-3.6,0.1-5.4,0.4c-3.9,0.7-7.6,1.7-11.5,2.6c-0.8,0.3-1.7,0.5-2.9,0.8c0.6,0.4,0.8,0.6,1.1,0.8
    c3.3,2.1,6.6,4.2,9.9,6.3c0.8,0.6,1.8,0.9,3.2,1.6C168.8,86.1,168.9,86.5,168.9,86.5z M149.3,129.8c1.6-2.5,1.4-5.1,1.5-7.3
    c0.2-4.7,0.3-9.4,0.4-14.1c0-1.6-0.3-3.3-0.3-5c0.1-3.4,0.3-6.9,0.6-10.4c0-0.7-0.1-1.4,0-2.5c-2,0.1-3.7,0.3-5.4,0.5
    c-1.5,0.1-3,0.4-4.5,0.5c-6.8,0.6-13.7,1-20.4,1.6c-3.8,0.3-7.5,0.9-11.1,1.3c-1,0.1-2.1,0.1-3.1,0c-0.4-0.1-0.9-0.3-1.2-0.6
    c-0.9-1.1-1.9-2.2-2.7-3.3c-0.6-0.7-1.2-1.5-1.6-2.3c-0.4-1.3-1.2-2.4-2.2-3.1c-0.8-0.6-1.6-1.2-2.5-1.8c-0.6,2.4,0.3,5.3,0.2,8.1
    c-0.1,2.8,0.1,5.6,0.1,8.5s-0.4,5.7-0.6,8.9c-1.3-1-1.1-2.1-1.1-3c-0.1-1.7,0.3-3.4,0.2-5.2c-0.1-4.9-0.4-9.7-0.6-14.6
    c0-1.2-0.1-2.4-0.2-3.9l-9.4,2.5c0,2.5,0.1,5.1,0.4,7.6c0.5,3-0.1,5.7,0,8.8c0,3.1-0.6,6.1-0.2,9.1c0.3,2.5,0.6,5.1,2.6,7.5
    c2.4,2.9,4.1,6.5,6.1,9.7c0.1,0.3,0.3,0.6,0.5,1c0.9-0.4-0.2-2.1,1.3-1.8c0.1,0.1,0.1,0.1,0.2,0.2c0.9,3.4,0.9,3.5,4.6,3.7
    c8.6,0.5,17.2,0.5,25.8,0c6.6-0.5,13.3-0.4,19.9-0.6C147.5,129.8,148.4,129.8,149.3,129.8L149.3,129.8z M165.6,87.5
    c0.8-1.2-0.1-1.6-0.7-1.9c-1.9-1.2-4-2.5-5.8-3.7c-1.7-1.2-3.6-2.2-5.5-3.4l-1.8,1.4c-1.6-1.7-3.8-1.5-5.8-1.5c-5,0-10-0.7-15,0
    c-4.1,0.6-8.4,0.6-12.6,1c-4.7,0.3-9.4,0.8-14.1,1.2c-1,0.1-2.2,0-3.1,0s-1.8,0.1-3.1,0.2c0.6,1,0.9,1.9,1.5,2.3
    c1.8,1.3,3.2,3,4.3,4.9c1,1.3,2.9,1.6,3.3,3.3c1.1,0.2,2.1,0.8,3.4,0.7c4.2-0.4,8.5-0.6,12.8-1c4.2-0.3,8.3-0.7,12.4-1.1
    c4.5-0.4,9-0.9,13.4-1.3c1-0.1,2.1,0.1,3.1,0c1.4-0.2,2.8-0.5,4.2-0.7c1.1-0.2,2.2-0.3,3.3-0.4C161.8,87.5,163.7,87.5,165.6,87.5
    L165.6,87.5z M128.7,76.9c1-2.9,0.4-5.7,0.4-8.4c0-0.1,0-0.1,0-0.2c-0.1-0.7-0.7-1.2-1.4-1.1c-3.4,0-6.9-0.2-10.3,0
    c-5.6,0.4-11,1.6-16.6,1.4c-1.2,0-2.4,0.3-3.6,0.3C93.9,69,90.9,69,87.9,69h-3.1c0.5,0.4,1,0.8,1.5,1.2c3.6,2,6.4,5,9.1,8
    c0.9,0.9,1.8,1.6,3.1,1.1c0.7-0.2,1.4-0.3,2.1-0.3l22.1-1.6L128.7,76.9L128.7,76.9z M120.8,57.6c-1.8,0.1-4,0.4-6.2,0.5
    c-2.5,0.1-4.9,0-7.4,0c-2.7,0-5.4-0.1-8.1,0c-6.8,0.4-13.5,1.7-20.4,1.6c-0.4,0-0.7,0.1-1.1,0.2l5.5,6.6c4.7,1.5,9.7,1.3,14.6,0.8
    c4.7-0.5,9.4-0.8,14.1-1.2c3.6-0.3,7.3-0.7,10.9-1c1.4-0.1,2.8,0,4.2,0l0.3-0.6L120.8,57.6z M94.5,79.8c-0.7-0.9-1.4-1.6-2.1-2.2
    c-0.4-0.3-0.8-0.6-1.1-1c-2.2-3.1-5.5-4.9-8.5-7.1c-0.7-0.5-1.5-0.8-2.4-0.7c-2.1,0.1-4.2,0.6-6.1,1.5c-1,0.4-2,0.9-3.1,0.1
    c-0.3-0.1-0.7-0.1-1.1,0c-1.6,0.5-3.2,1.1-5,1.7c4.3,4.2,7.8,9.1,10.5,14.4c0.8-0.3,1.3-0.5,1.9-0.7c1.7-0.5,3.4-1,4.9-1.6
    c1.1-0.3,2.1-0.8,3.1-1.2c1.6-0.8,3.2-1.3,5-1.7C91.8,81.1,93.2,80.6,94.5,79.8L94.5,79.8z M148.7,76.7c-6-3.5-11.7-7.2-18.1-9.3
    c-1.2,1.5-0.5,3-0.4,4.5s0.4,3,0.6,4.5L148.7,76.7z"/>
  <path d="M84.5,122.2c-0.9,0-1.5-0.7-1.6-1.5v-0.1c0-0.7,0.5-1.3,1.2-1.3c0.1,0,0.1,0,0.2,0c0.8,0,1.4,0.6,1.5,1.4c0,0,0,0.1,0,0.2
    C85.9,121.6,85.3,122.2,84.5,122.2C84.4,122.2,84.4,122.2,84.5,122.2z"/>
  <path d="M71.9,89.1c-0.3,0.4-0.6,0.7-1.1,0.9c-0.3-0.1-0.6-0.4-0.7-0.7c0.3-0.6,0.6-1.1,0.9-1.5C71.4,88.1,71.7,88.5,71.9,89.1z"
    />
  <path d="M170.5,83.2l-0.7,1.7c-0.1-0.5-0.1-1-0.2-1.5c0.1-0.2,0.4-0.4,0.6-0.5L170.5,83.2z"/>
  <path class="st1" d="M146.6,129.6c-6.7,0.2-13.3,0.1-19.9,0.6c-8.6,0.5-17.2,0.5-25.8,0c-3.6-0.1-3.6-0.2-4.6-3.7
    c0-0.1-0.1-0.2-0.2-0.2c-1.5-0.2-0.4,1.4-1.3,1.8c-0.1-0.3-0.3-0.7-0.5-1c-2-3.3-3.7-6.8-6.1-9.7c-1.9-2.3-2.3-4.9-2.6-7.5
    c-0.3-3,0.1-6.2,0.2-9.1s0.6-5.8,0-8.8c-0.3-2.5-0.4-5.1-0.4-7.6l9.4-2.5c0.1,1.5,0.1,2.7,0.2,3.9c0.2,4.9,0.4,9.7,0.6,14.6
    c0.1,1.7-0.2,3.4-0.2,5.2c-0.1,0.9-0.3,2,1.1,3c0.2-3.1,0.6-6.1,0.6-8.9S96.8,94,97,91.2s-0.8-5.7-0.2-8.1
    c0.7,0.6,1.5,1.2,2.5,1.8c1,0.8,1.9,1.9,2.2,3.1c0.4,0.8,1,1.6,1.6,2.3c0.8,1.1,1.8,2.3,2.7,3.3c0.3,0.3,0.7,0.5,1.2,0.6
    c1,0.1,2.1,0.1,3.1,0c3.8-0.4,7.5-1,11.1-1.3c6.8-0.6,13.7-1.1,20.4-1.6c1.5-0.1,3-0.3,4.5-0.5c1.7-0.1,3.4-0.3,5.4-0.5
    c0,1.1,0.1,1.8,0,2.5c-0.2,3.4-0.4,6.9-0.6,10.4c-0.1,1.6,0.3,3.3,0.3,5c0,4.7-0.1,9.4-0.4,14.1c-0.2,2.4,0.1,5-1.6,7.5
    C148.4,129.8,147.4,129.8,146.6,129.6z M94.8,115.6c0,2.1,0.1,4.1,0.2,6.2c0,0.1,0,0.2,0,0.3c0,0.8,0.7,1.3,1.4,1.3
    c-0.2-3.7-0.2-7.3-0.2-10.9c-0.2-0.4-0.5-0.7-0.9-1C95,113.3,94.8,114.5,94.8,115.6z M108.3,123.2l-0.6,1.4l1.4,0.6L108.3,123.2z"
    />
  <path class="st1" d="M160,87.4c-1.1,0.1-2.2,0.2-3.3,0.4c-1.4,0.2-2.8,0.6-4.2,0.7c-1,0.1-2.1-0.1-3.1,0c-4.5,0.4-9,0.9-13.4,1.3
    c-4.2,0.3-8.3,0.7-12.4,1.1c-4.2,0.3-8.5,0.5-12.8,1c-1.3,0.2-2.3-0.5-3.4-0.7c-0.5-1.7-2.4-1.9-3.3-3.3c-1.1-1.9-2.5-3.6-4.3-4.9
    c-0.6-0.4-0.9-1.3-1.5-2.3c1.3-0.1,2.1-0.2,3.1-0.2s2.1,0.1,3.1,0c4.7-0.3,9.4-0.8,14.1-1.2c4.2-0.4,8.4-0.4,12.6-1
    c5-0.7,10,0,15,0c1.9,0,4.1-0.2,5.8,1.5l1.8-1.4c1.9,1.2,3.8,2.3,5.5,3.4c1.9,1.2,3.9,2.4,5.8,3.7c0.5,0.4,1.3,0.8,0.6,2
    C163.7,87.5,161.8,87.5,160,87.4z"/>
  <path class="st1" d="M126.8,64.9c-1.4,0-2.8-0.1-4.2,0c-3.6,0.3-7.3,0.7-10.9,1c-4.7,0.4-9.4,0.7-14.1,1.2c-5,0.6-10,0.7-14.6-0.8
    l-5.5-6.6c0.4-0.1,0.7-0.2,1.1-0.2c6.9,0.1,13.7-1.2,20.4-1.6c2.7-0.1,5.4,0,8.1,0c2.5,0,4.9,0.1,7.4,0c2.2-0.1,4.4-0.3,6.2-0.5
    l6.3,7.1L126.8,64.9z"/>
  <path class="st1" d="M90.4,81.3c-1.8,0.4-3.5,0.9-5,1.7c-1.1,0.3-2.1,0.8-3.1,1.2c-1.7,0.6-3.3,1.1-4.9,1.6
    c-0.6,0.2-1.2,0.4-1.9,0.7c-2.7-5.3-6.3-10.1-10.5-14.4c1.9-0.7,3.5-1.2,5-1.7c0.3-0.1,0.7-0.1,1.1,0c1.1,0.9,2.1,0.4,3.1-0.1
    c1.9-0.9,3.9-1.4,6.1-1.5c0.9-0.1,1.7,0.1,2.4,0.7c3,2.1,6.3,4,8.5,7.1c0.4,0.4,0.7,0.7,1.1,1c0.6,0.7,1.3,1.3,2,2.2
    C93.2,80.6,91.8,81.1,90.4,81.3z"/>
  <path d="M96.1,112.5c0.1,3.6,0.2,7.2,0.2,10.9c-0.1,0-0.2,0-0.3,0c-0.8-0.1-1.2-0.8-1.2-1.5c-0.1-2.1-0.2-4.1-0.2-6.2
    c0.1-1.2,0.3-2.4,0.4-4.2C95.5,111.8,95.8,112.1,96.1,112.5z"/>
  <path d="M107.6,124.7l0.6-1.4l0.9,1.9L107.6,124.7z"/>
</g>
</g>
    </g>
  </defs>
</svg>
