<svg version="1.1"
   xmlns="http://www.w3.org/2000/svg" xmlns:xlink="http://www.w3.org/1999/xlink" x="0px" y="0px" viewBox="0 0 236 180.8"
   style="enable-background:new 0 0 236 180.8;display:none;" xml:space="preserve">
<style type="text/css">
  .st0{fill:#1D1D1B;}
  .st1{fill:#FFFFFF;}
  .st2{opacity:0.35;enable-background:new;}
</style>
  <defs>
    <g id="62">
    <polygon style="fill:#FFFFFF;" points="190.821,46.746 190.821,44.371 167.821,30.996 100.696,27.246 78.489,25.505 54.321,38.246
      92.946,40.746 159.196,44.746 "/>
    <g>
      <path style="fill:#FFFFFF;" d="M79.647,32.628c0.022-0.246,0.043-0.491,0.065-0.737c-2.395-1.168-5.38,0.966-7.851-1.144
        c2.257-1.506,4.316-2.879,6.376-4.254c1.889,0.168,3.769,0.548,5.629,0.466c10.159-0.449,20.156,1.571,30.264,1.873
        c6.254,0.187,12.501,0.585,18.752,0.882c4.195,0.199,8.393,0.357,12.586,0.597c1.6,0.091,3.189,0.382,4.786,0.541
        c1.864,0.185,3.736,0.298,5.599,0.493c2.751,0.288,5.494,0.652,8.246,0.921c1.168,0.114,1.356-0.223,1.198-2.102
        c-2.098,0-4.242,0.15-6.358-0.031c-4.623-0.395-9.225-1.02-13.847-1.429c-3.2-0.283-6.428-0.606-9.627-0.481
        c-6.822,0.267-13.592-0.431-20.384-0.722c-2.946-0.127-5.887-0.39-8.826-0.641c-5.163-0.441-10.315-1.05-15.486-1.342
        c-4.278-0.242-8.59,0.047-12.7-1.567c-1.135-0.446-2.434-0.06-2.718,1.013c-0.418,1.576-1.631,2.108-2.729,2.732
        c-3.731,2.119-7.534,4.109-11.315,6.138c-2.512,1.348-4.941,2.895-7.886,3.201c-0.303,0.031-0.571,0.395-0.685,0.48
        c0.269,1.971,0.418,3.8,0.779,5.585c1.733,8.581,4.6,16.886,5.996,25.564c1.106,6.873,2.792,13.651,4.115,20.491
        c0.26,1.345,0.037,2.784,0.037,4.225c-1.097,0.515-2.075,0.947-3.027,1.428c-2.871,1.451-5.821,2.775-8.565,4.438
        c-1.676,1.016-3.19,1.971-5.229,1.155c-0.432,0.592-0.781,1.071-1.233,1.69c0.569,0.541,1.052,1,1.101,1.047
        c3.391,0,6.206,0,9.124,0c-0.92,3.252-3.216,5.634-5.205,8.19c0.278,0.188,0.481,0.4,0.552,0.362
        c3.868-2.041,5.418-6.28,8.608-9.07c1.802,0.113,3.67,0.206,5.534,0.354c3.648,0.289,7.289,0.694,10.942,0.89
        c3.397,0.182,6.804,0.147,10.207,0.221c2.769,0.06,5.538,0.205,8.306,0.193c4.113-0.017,8.226-0.226,12.338-0.197
        c5.902,0.041,11.803,0.221,17.704,0.342c2.954,0.061,5.914,0.022,8.86,0.203c7.227,0.443,14.442,1.115,21.673,1.457
        c7.418,0.351,14.849,0.532,22.276,0.559c2.884,0.01,4.639,1.356,6.127,3.524c0.805,1.173,1.658,2.327,2.618,3.371
        c0.345,0.375,1.066,0.525,1.62,0.536c0.255,0.005,0.521-0.572,0.888-1.011c-1.815-1.543-2.298-3.55-2.805-5.997
        c4.633,0.802,9.079,0.249,13.448,1.359c-2.016-1.392-4.049-2.623-6.177-3.657c-4.346-2.111-8.747-4.105-13.114-6.173
        c-0.632-0.299-1.596-0.642-1.716-1.133c-0.347-1.42-1.693-1.752-2.437-2.586c0.358-1.844,0.572-3.615,1.055-5.31
        c1.145-4.019,2.419-8.003,3.639-12.001c0.286-0.937,0.547-1.882,0.855-2.812c2.074-6.265,3.884-12.638,6.363-18.738
        c1.089-2.68,2.313-5.377,3.521-8.043c0.591-1.303,1.401-2.699,0.898-4.351c-0.317-0.169-0.623-0.341-0.936-0.497
        c-3.36-1.678-6.793-3.226-10.062-5.065c-3.349-1.885-6.55-4.036-9.788-6.113c-0.654-0.419-1.237-0.984-1.761-1.564
        c-1.22-1.35-1.809-1.392-3.497-0.093c0.454,1.989,2.283,2.379,3.76,3.082c1.515,0.721,3.024,1.398,4.56,2.699
        c-2.481,0-4.603-0.022-6.724,0.006c-2.238,0.029-4.479,0.045-6.713,0.177c-2.039,0.12-4.158-0.382-6.109,0.64
        c6.919,0.968,13.938-0.36,20.819,1.122c0.526,0.113,1.166-0.304,1.464-0.39c4.138,2.291,8.064,4.464,11.991,6.638
        c-0.035,0.179-0.07,0.359-0.106,0.538c-0.93,0.022-1.861,0.095-2.788,0.058c-4.649-0.181-9.296-0.394-13.944-0.587
        c-1.431-0.059-2.868-0.031-4.295-0.143c-8.017-0.625-16.02-1.553-24.048-1.852c-9.214-0.343-18.397-0.943-27.583-1.691
        c-9.361-0.762-18.749-1.209-28.125-1.781c-1.519-0.093-3.042-0.158-4.563-0.169c-8.275-0.06-16.5-1.508-24.799-0.895
        c-0.056,0.004-0.12-0.094-0.334-0.272c2.248-1.213,4.454-2.361,6.616-3.588c1.29-0.732,2.601-0.94,4.091-0.929
        C72.904,32.973,76.276,32.75,79.647,32.628z M137.281,36.273c0.014-0.172,0.028-0.343,0.043-0.515
        c-5.754-0.672-11.51-1.31-17.344-0.896c0.365,0.348,0.753,0.617,1.159,0.651c4.888,0.406,9.778,0.791,14.671,1.135
        C136.289,36.681,136.79,36.405,137.281,36.273z M149.928,36.201c-1.639-0.18-3.278-0.361-4.916-0.541
        c-0.022,0.213-0.043,0.425-0.065,0.638C146.551,36.88,148.225,36.819,149.928,36.201z"/>
      <path d="M79.647,32.628c-3.371,0.122-6.742,0.345-10.112,0.321c-1.491-0.011-2.801,0.197-4.091,0.929
        c-2.162,1.226-4.368,2.374-6.616,3.588c0.214,0.178,0.278,0.276,0.334,0.272c8.299-0.613,16.524,0.835,24.799,0.895
        c1.521,0.011,3.044,0.076,4.563,0.169c9.377,0.572,18.764,1.019,28.125,1.781c9.186,0.748,18.369,1.347,27.583,1.691
        c8.028,0.299,16.032,1.228,24.048,1.852c1.427,0.111,2.864,0.083,4.295,0.143c4.648,0.193,9.296,0.406,13.944,0.587
        c0.927,0.036,1.859-0.036,2.788-0.058c0.035-0.179,0.07-0.359,0.106-0.538c-3.926-2.174-7.853-4.347-11.991-6.638
        c-0.299,0.087-0.939,0.504-1.464,0.39c-6.881-1.483-13.9-0.154-20.819-1.122c1.951-1.022,4.07-0.52,6.109-0.64
        c2.233-0.132,4.474-0.148,6.713-0.177c2.121-0.027,4.243-0.006,6.724-0.006c-1.536-1.301-3.045-1.978-4.56-2.699
        c-1.478-0.703-3.306-1.093-3.76-3.082c1.687-1.299,2.277-1.257,3.497,0.093c0.524,0.58,1.107,1.145,1.761,1.564
        c3.238,2.077,6.439,4.229,9.788,6.113c3.269,1.839,6.702,3.387,10.062,5.065c0.313,0.156,0.619,0.328,0.936,0.497
        c0.503,1.652-0.307,3.047-0.898,4.351c-1.208,2.666-2.432,5.363-3.521,8.043c-2.479,6.101-4.289,12.473-6.363,18.738
        c-0.308,0.93-0.569,1.875-0.855,2.812c-1.22,3.998-2.493,7.981-3.639,12.001c-0.483,1.695-0.698,3.466-1.055,5.31
        c0.744,0.834,2.09,1.165,2.437,2.586c0.12,0.491,1.084,0.834,1.716,1.133c4.367,2.068,8.768,4.063,13.114,6.173
        c2.128,1.034,4.16,2.265,6.177,3.657c-4.369-1.11-8.815-0.557-13.448-1.359c0.506,2.447,0.989,4.454,2.805,5.997
        c-0.367,0.439-0.633,1.016-0.888,1.011c-0.554-0.011-1.274-0.16-1.62-0.536c-0.96-1.044-1.813-2.199-2.618-3.371
        c-1.488-2.168-3.243-3.514-6.127-3.524c-7.426-0.027-14.857-0.207-22.276-0.559c-7.231-0.343-14.446-1.014-21.673-1.457
        c-2.947-0.181-5.907-0.142-8.86-0.203c-5.901-0.121-11.802-0.302-17.704-0.342c-4.112-0.028-8.225,0.18-12.338,0.197
        c-2.768,0.012-5.537-0.133-8.306-0.193c-3.403-0.073-6.811-0.039-10.207-0.221c-3.653-0.196-7.294-0.601-10.942-0.89
        c-1.863-0.147-3.731-0.24-5.534-0.354c-3.19,2.79-4.739,7.029-8.608,9.07c-0.071,0.038-0.274-0.174-0.552-0.362
        c1.989-2.556,4.285-4.939,5.205-8.19c-2.918,0-5.733,0-9.124,0c-0.048-0.046-0.531-0.505-1.101-1.047
        c0.452-0.619,0.801-1.098,1.233-1.69c2.039,0.815,3.553-0.14,5.229-1.155c2.744-1.663,5.694-2.987,8.565-4.438
        c0.953-0.481,1.931-0.913,3.027-1.428c0-1.441,0.223-2.88-0.037-4.225c-1.323-6.841-3.009-13.619-4.115-20.491
        c-1.397-8.678-4.264-16.983-5.996-25.564c-0.361-1.786-0.51-3.614-0.779-5.585c0.114-0.084,0.382-0.448,0.685-0.48
        c2.945-0.305,5.374-1.853,7.886-3.201c3.781-2.029,7.585-4.019,11.315-6.138c1.099-0.624,2.311-1.156,2.729-2.732
        c0.285-1.074,1.583-1.459,2.718-1.013c4.11,1.613,8.422,1.325,12.7,1.567c5.171,0.292,10.323,0.901,15.486,1.342
        c2.939,0.251,5.88,0.514,8.826,0.641c6.791,0.292,13.562,0.99,20.384,0.722c3.199-0.125,6.426,0.197,9.627,0.481
        c4.622,0.409,9.224,1.035,13.847,1.429c2.116,0.181,4.26,0.031,6.358,0.031c0.157,1.879-0.031,2.216-1.198,2.102
        c-2.752-0.269-5.495-0.633-8.246-0.921c-1.863-0.195-3.735-0.308-5.599-0.493c-1.598-0.159-3.186-0.449-4.786-0.541
        c-4.193-0.24-8.39-0.397-12.586-0.597c-6.251-0.297-12.498-0.695-18.752-0.882C104.02,28.53,94.023,26.51,83.864,26.96
        c-1.86,0.082-3.74-0.298-5.629-0.466c-2.06,1.374-4.119,2.748-6.376,4.254c2.471,2.11,5.457-0.024,7.851,1.144
        C79.69,32.137,79.668,32.382,79.647,32.628z M66.522,92.502c6.307,0.421,12.444,0.995,18.593,1.197
        c6.874,0.226,13.759,0.133,20.639,0.146c4.647,0.009,9.294-0.101,13.94-0.044c5.004,0.062,10.005,0.304,15.008,0.38
        c5.632,0.086,11.266,0.002,16.897,0.122c7.312,0.156,14.647-0.664,22.131,0.71c0.375-1.107,0.757-2.087,1.038-3.094
        c1.273-4.554,2.487-9.124,3.787-13.67c0.589-2.059,1.33-4.076,1.999-6.112c0.669-2.036,1.289-4.089,2.014-6.105
        c1.06-2.942,2.23-5.844,3.288-8.787c1.125-3.129,1.348-6.596,3.526-9.334c0.127-0.159,0.04-0.488,0.061-0.891
        c-3.516-0.259-6.981-0.545-10.45-0.756c-1.691-0.103-3.396,0.015-5.084-0.112c-5.346-0.402-10.686-0.884-16.031-1.31
        c-1.691-0.135-3.39-0.159-5.082-0.289c-3.206-0.248-6.407-0.746-9.612-0.765c-7.337-0.044-14.633-0.583-21.935-1.216
        c-10.423-0.903-20.849-1.809-31.289-2.46c-7.584-0.473-15.193-0.519-22.79-0.787c-2.477-0.087-4.942-0.558-7.381,0.486
        c-0.619,0.265-1.539-0.232-2.327-0.291c-0.635-0.048-1.279,0.037-2.02,0.066c0.316,2.9,0.366,5.503,0.915,7.996
        c1.898,8.63,4.023,17.21,5.955,25.833c1.19,5.31,2.171,10.667,3.283,15.996C65.808,90.439,66.195,91.43,66.522,92.502z
         M191.289,105.335c-1.814-0.864-3.373-1.503-4.83-2.322c-4.271-2.399-9.265-3.094-13.431-5.742
        c-0.419-0.267-1.034-0.233-1.56-0.324c-5.036-0.865-10.106-1.207-15.214-1.03c-3.569,0.124-7.144,0.372-10.709,0.285
        c-5.447-0.133-10.888-0.697-16.334-0.734c-8.484-0.058-16.97,0.18-25.455,0.274c-2.771,0.031-5.546,0.102-8.312-0.019
        c-6.253-0.274-12.499-0.718-18.752-0.972c-4.529-0.184-9.052-0.033-13.49,1.077c-3.862,0.966-7.207,3.009-10.85,5.053
        c3.203,0,6.124-0.145,9.027,0.031c5.705,0.346,11.393,1.131,17.1,1.269c13.326,0.323,26.66,0.553,39.989,0.47
        c9.68-0.06,19.275,1.07,28.921,1.412c6.609,0.234,13.216,0.529,19.824,0.786c4.378,0.171,8.755,0.373,13.134,0.469
        C183.867,105.397,187.39,105.335,191.289,105.335z"/>
      <path d="M137.281,36.273c-0.491,0.132-0.992,0.408-1.472,0.374c-4.893-0.344-9.783-0.729-14.671-1.135
        c-0.407-0.034-0.794-0.302-1.159-0.651c5.834-0.413,11.59,0.225,17.344,0.896C137.31,35.93,137.296,36.102,137.281,36.273z"/>
      <path d="M149.928,36.201c-1.703,0.618-3.377,0.679-4.981,0.096c0.021-0.213,0.043-0.425,0.065-0.638
        C146.651,35.84,148.29,36.02,149.928,36.201z"/>
      <path style="fill:#FFFFFF;" d="M66.522,92.502c-0.327-1.072-0.714-2.063-0.928-3.091c-1.112-5.328-2.093-10.685-3.283-15.996
        c-1.932-8.623-4.057-17.203-5.955-25.833c-0.548-2.493-0.598-5.096-0.915-7.996c0.741-0.03,1.386-0.114,2.02-0.066
        c0.788,0.059,1.709,0.555,2.327,0.291c2.439-1.043,4.904-0.573,7.381-0.486c7.597,0.268,15.207,0.314,22.79,0.787
        c10.44,0.651,20.866,1.556,31.289,2.46c7.302,0.633,14.598,1.172,21.935,1.216c3.205,0.019,6.407,0.518,9.612,0.765
        c1.691,0.131,3.391,0.154,5.082,0.289c5.345,0.426,10.685,0.908,16.031,1.31c1.688,0.127,3.393,0.008,5.084,0.112
        c3.47,0.212,6.935,0.497,10.45,0.756c-0.021,0.403,0.066,0.732-0.061,0.891c-2.178,2.738-2.401,6.204-3.526,9.334
        c-1.058,2.943-2.229,5.845-3.288,8.787c-0.726,2.015-1.345,4.069-2.014,6.105c-0.67,2.037-1.41,4.053-1.999,6.112
        c-1.3,4.546-2.514,9.116-3.787,13.67c-0.282,1.007-0.664,1.987-1.038,3.094c-7.484-1.374-14.82-0.554-22.131-0.71
        c-5.631-0.12-11.265-0.037-16.897-0.122c-5.004-0.076-10.005-0.319-15.008-0.38c-4.646-0.057-9.294,0.053-13.94,0.044
        c-6.88-0.013-13.765,0.08-20.639-0.146C78.966,93.496,72.829,92.922,66.522,92.502z"/>
      <path style="fill:#FFFFFF;" d="M191.289,105.335c-3.899,0-7.423,0.061-10.944-0.016c-4.379-0.096-8.756-0.298-13.134-0.469
        c-6.608-0.258-13.215-0.552-19.824-0.786c-9.645-0.342-19.24-1.472-28.921-1.412c-13.329,0.083-26.663-0.147-39.989-0.47
        c-5.707-0.138-11.395-0.923-17.1-1.269c-2.902-0.176-5.824-0.031-9.027-0.031c3.643-2.044,6.988-4.086,10.85-5.053
        c4.438-1.11,8.961-1.262,13.49-1.077c6.254,0.254,12.499,0.699,18.752,0.972c2.766,0.121,5.541,0.05,8.312,0.019
        c8.485-0.094,16.971-0.332,25.455-0.274c5.446,0.037,10.886,0.601,16.334,0.734c3.565,0.087,7.14-0.161,10.709-0.285
        c5.108-0.177,10.178,0.165,15.214,1.03c0.527,0.09,1.141,0.057,1.56,0.324c4.166,2.647,9.16,3.342,13.431,5.742
        C187.917,103.832,189.476,104.471,191.289,105.335z"/>
    </g>
    </g>
  </defs>
</svg>
