<svg version="1.1"
   xmlns="http://www.w3.org/2000/svg" xmlns:xlink="http://www.w3.org/1999/xlink" x="0px" y="0px" viewBox="0 0 236 180.8"
   style="enable-background:new 0 0 236 180.8;display:none;" xml:space="preserve">
<style type="text/css">
  .st0{fill:#1D1D1B;}
  .st1{fill:#FFFFFF;}
  .st2{opacity:0.35;enable-background:new;}
</style>
  <defs>
    <g id="65">
    <g>
    <path style="fill:#FFFFFF;" d="M63.631,33.769c0,0.781-0.012,1.458,0.002,2.135c0.052,2.489,0.043,4.981,0.188,7.464
      c0.151,2.581,0.569,5.15,0.663,7.731c0.15,4.115,0.145,8.236,0.17,12.354c0.007,1.25-0.098,2.501-0.161,3.751
      c-0.116,2.31-0.253,4.619-0.354,6.93c-0.046,1.065,0.027,2.137-0.049,3.199c-0.189,2.643-0.434,5.282-0.698,8.423
      c-0.135,0.428-0.524,1.371-0.725,2.352c-1.165,5.683-1.041,11.561-2.687,17.189c-0.471,1.609-0.081,3.379,0.941,5.205
      c1.183-5.662,2.288-10.955,3.517-16.836c1.429,5.056,4.128,9.047,4.836,13.782c-0.865,0.221-1.589,0.406-2.5,0.639
      c0.319,0.66,0.541,1.119,0.719,1.487c2.837,0.841,5.552,1.107,8.336,0.526c0.591-0.123,1.242,0.043,1.866,0.081
      c3.475,0.21,6.983,0.815,10.417,0.532c4.335-0.357,8.573,0.33,12.856,0.388c1.333,0.018,2.664,0.316,3.997,0.327
      c10.478,0.088,20.957,0.098,31.435,0.213c5.454,0.06,10.906,0.264,16.358,0.438c4.542,0.144,9.082,0.339,14.091,0.529
      c0.574-1.638,1.257-3.687,2.011-5.709c0.778-2.085,0.019-4.59,1.867-6.878c0.532,2.319,0.98,4.211,1.398,6.109
      c0.538,2.444,1.012,4.903,1.61,7.331c0.104,0.421,0.685,0.725,1.375,1.409c0.084-0.903,0.199-1.257,0.133-1.572
      c-0.749-3.584-1.571-7.154-2.281-10.746c-0.553-2.797-1.198-5.603-1.401-8.434c-0.235-3.278-0.087-6.589-0.004-9.883
      c0.099-3.931,0.137-7.876,0.53-11.782c0.234-2.318,0.672-4.566,0.176-6.908c-0.218-1.028-0.092-2.144-0.031-3.214
      c0.297-5.265,0.596-10.531,0.96-15.792c0.091-1.324,0.426-2.63,0.643-3.945c0.181-1.095,0.353-2.192,0.561-3.485
      c-1.902-0.391-3.467-0.658-5.004-1.041c-3.38-0.842-6.766-1.674-10.104-2.661c-1.031-0.305-1.916-1.102-3.081-1.801
      c-2.445,0-5.199,0-7.952,0c-7.604,0.001-15.21,0.1-22.812-0.025c-7.063-0.116-14.121-0.543-21.184-0.696
      c-4.136-0.089-8.279,0.181-12.417,0.122c-3.757-0.054-7.514-0.28-11.264-0.534c-2.659-0.18-5.307-0.534-8.19-0.834
      c-1.42,1.147-3.311,1.468-5.314,1C65.724,32.324,64.591,32.443,63.631,33.769z"/>
    <path d="M63.631,33.769c0.961-1.326,2.093-1.445,3.44-1.13c2.003,0.468,3.894,0.147,5.314-1c2.883,0.3,5.531,0.653,8.19,0.834
      c3.75,0.254,7.507,0.48,11.264,0.534c4.138,0.059,8.281-0.211,12.417-0.122c7.063,0.153,14.121,0.58,21.184,0.696
      c7.602,0.125,15.208,0.026,22.812,0.025c2.754,0,5.507,0,7.952,0c1.165,0.699,2.05,1.496,3.081,1.801
      c3.338,0.988,6.724,1.819,10.104,2.661c1.536,0.383,3.101,0.649,5.004,1.041c-0.208,1.293-0.38,2.39-0.561,3.485
      c-0.217,1.315-0.552,2.622-0.643,3.945c-0.364,5.261-0.663,10.527-0.96,15.792c-0.06,1.071-0.186,2.186,0.031,3.214
      c0.496,2.342,0.057,4.59-0.176,6.908c-0.393,3.906-0.431,7.851-0.53,11.782c-0.083,3.294-0.231,6.605,0.004,9.883
      c0.203,2.831,0.848,5.637,1.401,8.434c0.71,3.592,1.532,7.162,2.281,10.746c0.066,0.315-0.049,0.669-0.133,1.572
      c-0.689-0.684-1.271-0.988-1.375-1.409c-0.598-2.429-1.073-4.887-1.61-7.331c-0.418-1.899-0.866-3.79-1.398-6.109
      c-1.847,2.288-1.088,4.793-1.867,6.878c-0.754,2.022-1.437,4.07-2.011,5.709c-5.009-0.19-9.549-0.384-14.091-0.529
      c-5.452-0.173-10.904-0.378-16.358-0.438c-10.478-0.115-20.957-0.126-31.435-0.213c-1.333-0.011-2.663-0.309-3.997-0.327
      c-4.284-0.058-8.521-0.745-12.856-0.388c-3.435,0.283-6.942-0.323-10.417-0.532c-0.623-0.038-1.275-0.204-1.866-0.081
      c-2.784,0.58-5.499,0.315-8.336-0.526c-0.178-0.368-0.4-0.827-0.719-1.487c0.911-0.233,1.635-0.418,2.5-0.639
      c-0.709-4.735-3.407-8.726-4.836-13.782c-1.228,5.881-2.334,11.174-3.517,16.836c-1.022-1.825-1.412-3.596-0.941-5.205
      c1.647-5.628,1.522-11.506,2.687-17.189c0.201-0.981,0.591-1.924,0.725-2.352c0.264-3.141,0.508-5.78,0.698-8.423
      c0.076-1.062,0.003-2.134,0.049-3.199c0.101-2.311,0.238-4.62,0.354-6.93c0.063-1.25,0.168-2.501,0.161-3.751
      c-0.025-4.118-0.02-8.239-0.17-12.354c-0.094-2.582-0.512-5.15-0.663-7.731c-0.145-2.483-0.136-4.976-0.188-7.464
      C63.619,35.227,63.631,34.549,63.631,33.769z M171.567,41.592c-0.95-0.41-1.707-0.921-2.528-1.059
      c-3.512-0.594-7.034-1.147-10.57-1.577c-2.301-0.28-4.629-0.348-6.947-0.465c-3.75-0.188-7.505-0.271-11.251-0.519
      c-5.08-0.336-10.153-0.787-15.229-1.186c-1.421-0.112-2.843-0.282-4.266-0.302c-4.556-0.065-9.113-0.117-13.668-0.078
      c-1.773,0.015-3.542,0.398-5.316,0.418c-2.934,0.034-5.879-0.263-8.802-0.108c-5.045,0.267-9.991-0.616-14.984-0.928
      c-3.996-0.25-8.014-0.522-11.9,0.023c-1.096,2.069-0.971,4.057-0.703,6.131c0.378,2.922,0.602,5.87,0.741,8.814
      c0.223,4.732,0.34,9.47,0.458,14.207c0.02,0.79-0.206,1.585-0.281,2.38c-0.185,1.946-0.419,3.891-0.5,5.842
      c-0.092,2.215-0.025,4.437-0.051,6.656c-0.024,2.09-0.71,4.241,0.585,6.355c0.822,0,1.621-0.043,2.415,0.008
      c3.297,0.212,6.648,0.153,9.872,0.761c3.784,0.713,7.535,1.339,11.388,1.625c5.534,0.411,11.042,0.616,16.584,0.268
      c2.838-0.178,5.7-0.122,8.544-0.008c2.763,0.112,5.519,0.43,8.277,0.665c2.048,0.174,4.098,0.328,6.141,0.549
      c1.774,0.192,3.539,0.464,5.308,0.7c-5.838,0.771-11.601-0.166-17.389-0.371c-3.918-0.139-7.868-0.381-11.758-0.045
      c-7.097,0.612-14.127-0.015-21.159-0.624c-3.104-0.269-6.157-1.091-9.245-1.586c-3.285-0.527-6.554-0.375-10.025,0.389
      c0.324,1.768,0.409,3.463,0.957,4.991c1.566,4.364,3.317,8.661,5.005,12.98c0.129,0.33,0.263,0.744,0.526,0.92
      c0.704,0.471,1.462,1.138,2.232,1.186c2.932,0.185,5.879,0.134,8.818,0.212c4.558,0.121,9.117,0.242,13.672,0.429
      c2.232,0.092,4.457,0.436,6.688,0.484c5.179,0.111,10.36,0.118,15.541,0.154c4.834,0.033,9.669,0.01,14.503,0.078
      c10.111,0.143,20.221,0.333,30.332,0.49c0.43,0.007,0.863-0.124,1.417-0.21c0.885-1.646,2.002-3.205,2.589-4.944
      c0.765-2.268,1.137-4.672,1.618-7.029c0.141-0.692,0.118-1.425,0.107-2.138c-0.03-2.084-0.301-2.584-2.372-2.839
      c-3.893-0.48-7.813-0.744-11.72-1.119c-0.524-0.05-1.036-0.228-1.554-0.347c0.026-0.209,0.051-0.418,0.077-0.626
      c5.006-0.322,10.047,0.02,15.236-0.102c1.389-5.636,0.363-11.167,1.098-16.5c0.749-5.432,0.187-10.85,0.791-16.266
      C171.473,52.932,171.354,47.455,171.567,41.592z M116.147,35.022c-0.025-0.197-0.05-0.394-0.075-0.59
      c-13.917-0.291-27.834-0.582-41.751-0.873C88.226,35.501,102.185,35.3,116.147,35.022z M132.903,35.219
      c8.998,2.475,18.249,1.007,27.764,2.158c-2.772-1.653-5.444-1.424-8.027-1.754C146.071,34.783,139.492,35.366,132.903,35.219z
       M122.546,34.999c0.006-0.086,0.013-0.172,0.019-0.258c-0.517,0.024-1.033,0.047-1.55,0.071c0.003,0.062,0.006,0.125,0.009,0.187
      C121.531,34.999,122.039,34.999,122.546,34.999z"/>
    <path style="fill:#FFFFFF;" d="M171.567,41.592c-0.213,5.863-0.094,11.339-0.697,16.735c-0.605,5.416-0.043,10.834-0.791,16.266
      c-0.735,5.333,0.291,10.865-1.098,16.5c-5.189,0.121-10.23-0.22-15.236,0.102c-0.026,0.209-0.051,0.418-0.077,0.626
      c0.518,0.119,1.029,0.297,1.554,0.347c3.907,0.376,7.827,0.639,11.72,1.119c2.071,0.255,2.342,0.756,2.372,2.839
      c0.01,0.713,0.034,1.447-0.107,2.138c-0.482,2.357-0.853,4.761-1.618,7.029c-0.587,1.739-1.704,3.298-2.589,4.944
      c-0.554,0.086-0.986,0.217-1.417,0.21c-10.111-0.157-20.221-0.347-30.332-0.49c-4.834-0.068-9.668-0.045-14.503-0.078
      c-5.18-0.035-10.362-0.043-15.541-0.154c-2.232-0.048-4.456-0.392-6.688-0.484c-4.556-0.187-9.114-0.308-13.672-0.429
      c-2.94-0.078-5.886-0.027-8.818-0.212c-0.77-0.048-1.528-0.715-2.232-1.186c-0.264-0.176-0.397-0.59-0.526-0.92
      c-1.688-4.319-3.439-8.616-5.005-12.98c-0.548-1.528-0.633-3.222-0.957-4.991c3.471-0.764,6.741-0.916,10.025-0.389
      c3.088,0.495,6.141,1.318,9.245,1.586c7.033,0.608,14.062,1.236,21.159,0.624c3.89-0.335,7.84-0.093,11.758,0.045
      c5.787,0.205,11.551,1.141,17.389,0.371c-1.769-0.237-3.534-0.509-5.308-0.7c-2.043-0.221-4.093-0.375-6.141-0.549
      c-2.758-0.235-5.513-0.553-8.277-0.665c-2.844-0.115-5.706-0.17-8.544,0.008c-5.543,0.348-11.05,0.142-16.584-0.268
      c-3.853-0.286-7.605-0.912-11.388-1.625c-3.224-0.608-6.575-0.549-9.872-0.761c-0.794-0.051-1.594-0.008-2.415-0.008
      c-1.295-2.113-0.609-4.265-0.585-6.355c0.025-2.219-0.041-4.44,0.051-6.656c0.081-1.951,0.315-3.896,0.5-5.842
      c0.075-0.796,0.301-1.59,0.281-2.38c-0.118-4.737-0.235-9.475-0.458-14.207c-0.139-2.944-0.363-5.892-0.741-8.814
      c-0.268-2.073-0.393-4.061,0.703-6.131c3.887-0.545,7.904-0.273,11.9-0.023c4.993,0.313,9.94,1.196,14.984,0.928
      c2.924-0.155,5.868,0.142,8.802,0.108c1.773-0.021,3.543-0.403,5.316-0.418c4.556-0.039,9.112,0.013,13.668,0.078
      c1.423,0.02,2.845,0.191,4.266,0.302c5.076,0.398,10.149,0.849,15.229,1.186c3.745,0.248,7.501,0.331,11.251,0.519
      c2.318,0.116,4.647,0.185,6.947,0.465c3.535,0.43,7.058,0.983,10.57,1.577C169.86,40.672,170.617,41.182,171.567,41.592z
       M148.499,91.21c-2.796,0-4.945,0-7.497,0C143.577,92.315,145.754,92.294,148.499,91.21z"/>
    <path style="fill:#FFFFFF;" d="M116.147,35.022c-13.962,0.278-27.921,0.478-41.826-1.463c13.917,0.291,27.834,0.582,41.751,0.873
      C116.097,34.629,116.122,34.826,116.147,35.022z"/>
    <path style="fill:#FFFFFF;" d="M132.903,35.219c6.589,0.147,13.168-0.436,19.737,0.404c2.583,0.33,5.255,0.101,8.027,1.754
      C151.152,36.226,141.901,37.694,132.903,35.219z"/>
    <path style="fill:#FFFFFF;" d="M122.546,34.999c-0.507,0-1.015,0-1.522,0c-0.003-0.062-0.006-0.125-0.009-0.187
      c0.517-0.024,1.033-0.047,1.55-0.071C122.559,34.827,122.552,34.913,122.546,34.999z"/>
    <path d="M148.499,91.21c-2.744,1.083-4.921,1.105-7.497,0C143.554,91.21,145.703,91.21,148.499,91.21z"/>
    </g>
    </g>
  </defs>
</svg>
