<svg version="1.1"
   xmlns="http://www.w3.org/2000/svg" xmlns:xlink="http://www.w3.org/1999/xlink" x="0px" y="0px" viewBox="0 0 236 180.8"
   style="enable-background:new 0 0 236 180.8;display:none;" xml:space="preserve">
<style type="text/css">
  .st0{fill:#1D1D1B;}
  .st1{fill:#FFFFFF;}
  .st2{opacity:0.35;enable-background:new;}
</style>
  <defs>
    <g id="63">
    <g>
    <path style="fill:#FFFFFF;" d="M63.558,37.216c0.173,3.901,0.615,7.825,0.46,11.726c-0.245,6.169,0.048,12.316,0.16,18.473
      c0.026,1.424-0.099,2.853-0.199,4.276c-0.137,1.954-0.323,3.905-0.478,5.858c-0.12,1.506-0.048,3.054-0.382,4.51
      c-0.41,1.788-0.57,3.496-0.109,5.291c0.194,0.755,0.336,1.704,0.049,2.37c-0.949,2.204-2.035,4.357-3.2,6.456
      c-0.952,1.715-2.191,3.273-3.114,5.001c-0.706,1.324-1.165,2.789-1.643,4.222c-0.326,0.978-0.496,2.007-0.793,3.253
      c0.481,0.559,0.335,1.861,1.585,2.347c0.26-0.539,0.484-1.003,0.778-1.611c0.647,0.071,1.305,0.144,1.935,0.213
      c0.115,4.12,0.115,4.12,1.498,4.43c0.485-1.541-0.06-3.475,1.579-4.584c1.36,0,2.7-0.036,4.037,0.007
      c4.273,0.134,8.459,1.09,12.796,0.906c5.26-0.223,10.549,0.337,15.822,0.258c8.856-0.134,17.677,0.133,26.517,0.785
      c7.934,0.585,15.92,0.547,23.884,0.629c8.953,0.092,17.909-0.015,26.863,0.024c2.035,0.009,4.069,0.265,5.942,0.397
      c2.108,4.954,2.108,4.954,4.024,4.883c-0.215-1.467-0.425-2.907-0.63-4.303c1.903-0.932,4.345,0.646,5.594-1.323
      c-2.572-7.009-7.134-12.722-9.531-19.953c0-3.642,0.112-7.752-0.032-11.853c-0.135-3.832-0.661-7.65-0.803-11.482
      c-0.274-7.405-0.4-14.815-0.578-22.223c-0.011-0.445,0.062-0.891,0.099-1.337c0.173-2.103,0.347-4.205,0.535-6.49
      c-6.23-1.251-12.265-2.465-18.3-3.675c-5.439-1.09-10.878-1.905-16.484-1.69c-3.727,0.143-7.48-0.422-11.222-0.664
      c-2.313-0.15-4.627-0.299-6.941-0.429c-4.192-0.235-8.453-0.056-12.561-0.768c-7.263-1.258-14.589-0.25-21.862-1.201
      c-0.423-0.335-0.899-0.714-1.611-1.279c-1.99,2.494-5.667,1.29-7.491,3.526c-6.583,0.843-12.931,1.656-19.263,2.467
      C60.132,37.081,62.023,36.557,63.558,37.216z"/>
    <path d="M63.558,37.216c-1.535-0.659-3.425-0.135-3.067-2.557c6.331-0.811,12.679-1.624,19.263-2.467
      c1.824-2.236,5.502-1.032,7.491-3.526c0.712,0.565,1.188,0.943,1.611,1.279c7.273,0.951,14.599-0.056,21.862,1.201
      c4.108,0.711,8.37,0.533,12.561,0.768c2.314,0.13,4.628,0.279,6.941,0.429c3.742,0.242,7.495,0.807,11.222,0.664
      c5.606-0.215,11.045,0.6,16.484,1.69c6.036,1.21,12.071,2.424,18.3,3.675c-0.189,2.285-0.362,4.388-0.535,6.49
      c-0.037,0.445-0.109,0.892-0.099,1.337c0.178,7.408,0.304,14.819,0.578,22.223c0.142,3.832,0.668,7.65,0.803,11.482
      c0.144,4.101,0.032,8.211,0.032,11.853c2.398,7.231,6.959,12.944,9.531,19.953c-1.249,1.968-3.691,0.391-5.594,1.323
      c0.204,1.396,0.415,2.837,0.63,4.303c-1.916,0.07-1.916,0.07-4.024-4.883c-1.873-0.131-3.907-0.388-5.942-0.397
      c-8.954-0.039-17.909,0.068-26.863-0.024c-7.964-0.082-15.95-0.044-23.884-0.629c-8.841-0.652-17.661-0.918-26.517-0.785
      c-5.272,0.08-10.561-0.48-15.822-0.258c-4.338,0.184-8.524-0.771-12.796-0.906c-1.337-0.042-2.677-0.007-4.037-0.007
      c-1.64,1.109-1.095,3.043-1.579,4.584c-1.383-0.309-1.383-0.309-1.498-4.43c-0.63-0.069-1.288-0.142-1.935-0.213
      c-0.294,0.608-0.518,1.072-0.778,1.611c-1.25-0.486-1.104-1.788-1.585-2.347c0.297-1.246,0.467-2.275,0.793-3.253
      c0.478-1.433,0.936-2.898,1.643-4.222c0.923-1.728,2.163-3.286,3.114-5.001c1.165-2.1,2.252-4.253,3.2-6.456
      c0.287-0.666,0.145-1.614-0.049-2.37c-0.461-1.795-0.301-3.503,0.109-5.291c0.334-1.456,0.262-3.004,0.382-4.51
      c0.155-1.953,0.34-3.904,0.478-5.858c0.1-1.423,0.225-2.852,0.199-4.276c-0.112-6.157-0.405-12.304-0.16-18.473
      C64.173,45.041,63.731,41.117,63.558,37.216z M65.831,36.245c-0.105,1.336-0.223,2.214-0.235,3.093
      c-0.076,5.452-0.143,10.904-0.18,16.356c-0.01,1.427,0.099,2.855,0.151,4.282c0.163,4.461,0.344,8.917-0.233,13.372
      c-0.262,2.027-0.273,4.087-0.408,6.132c-0.081,1.23,0.04,2.528-0.321,3.673c-0.649,2.056-0.32,3.836,0.664,5.426
      c2.219,0.337,4.232,0.762,6.266,0.929c6.681,0.548,13.364,1.081,20.056,1.471c6.161,0.36,12.334,0.509,18.5,0.791
      c2.585,0.118,5.165,0.339,7.747,0.514c-0.012,0.177-0.023,0.353-0.035,0.53c-3.378-0.185-6.755-0.418-10.135-0.546
      c-6.08-0.231-12.164-0.342-18.242-0.612c-6.25-0.278-12.492-0.709-18.74-1.027c-1.763-0.09-3.535-0.014-4.867-0.014
      c-2.474,3.814-4.746,7.131-6.809,10.574c-1.113,1.857-2.407,3.725-2.475,6.081c1.443,0,2.767-0.084,4.077,0.016
      c3.74,0.286,7.468,0.789,11.212,0.948c6.885,0.293,13.776,0.444,20.667,0.573c6.356,0.119,12.719-0.01,19.07,0.225
      c8.04,0.298,16.066,1.006,24.107,1.256c7.156,0.222,14.324,0.006,21.486,0.085c8.413,0.092,16.824,0.304,25.236,0.432
      c0.735,0.011,1.474-0.218,2.226-0.338c-0.066-0.591-0.015-0.899-0.136-1.107c-2.076-3.548-4.088-7.138-6.298-10.602
      c-1.378-2.16-3.359-3.634-6.041-3.979c-2.122-0.274-4.219-0.8-6.347-0.967c-5.884-0.463-11.78-0.782-17.669-1.188
      c-2.178-0.15-4.35-0.382-6.525-0.576c10.931-0.898,21.762,0.102,32.708,1.241c0.872-6.086,0.703-11.871,0.466-17.648
      c-0.205-5-0.681-9.991-0.81-14.991c-0.152-5.9-0.051-11.807-0.084-17.71c-0.004-0.677-0.166-1.354-0.291-2.305
      c-2.715-0.235-5.273-0.539-7.839-0.661c-5.628-0.268-11.268-0.337-16.889-0.695c-3.828-0.244-7.637-0.807-11.446-1.295
      c-2.48-0.318-4.933-0.895-7.419-1.112c-5.521-0.482-11.056-0.812-16.586-1.198c-1.157-0.081-2.328-0.281-3.47-0.18
      c-3.585,0.317-7.121,0.217-10.657-0.534c-1.292-0.274-2.669-0.228-4.004-0.2c-3.932,0.082-7.867,0.157-11.794,0.367
      C77.703,35.43,71.927,35.852,65.831,36.245z M88.646,33.012c5.075-0.181,10.11,0,15.158,0.54c3.718,0.398,7.482,0.391,11.226,0.533
      c6.785,0.258,13.534,0.831,20.257,1.848c4.412,0.667,8.874,1.027,13.323,1.417c3.468,0.304,6.95,0.485,10.429,0.639
      c1.716,0.076,3.441-0.031,5.162-0.056c-2.682-1.019-5.364-1.657-8.065-2.198c-1.481-0.297-2.99-0.551-4.496-0.617
      c-3.369-0.148-6.744-0.168-10.116-0.236c-1.682-0.034-3.384,0.09-5.044-0.116c-5.137-0.638-10.248-1.532-15.46-1.114
      c-0.443,0.036-0.894-0.01-1.34-0.038c-6.409-0.405-12.819-0.812-19.227-1.228c-0.444-0.029-0.881-0.164-1.324-0.196
      C95.603,31.936,92.088,31.842,88.646,33.012z"/>
    <path style="fill:#FFFFFF;" d="M65.831,36.245c6.096-0.394,11.872-0.815,17.654-1.123c3.927-0.209,7.861-0.284,11.794-0.367
      c1.335-0.028,2.712-0.074,4.004,0.2c3.536,0.751,7.073,0.851,10.657,0.534c1.143-0.101,2.314,0.099,3.47,0.18
      c5.53,0.386,11.064,0.717,16.586,1.198c2.486,0.217,4.939,0.794,7.419,1.112c3.809,0.488,7.619,1.05,11.446,1.295
      c5.622,0.359,11.261,0.427,16.889,0.695c2.566,0.122,5.124,0.426,7.839,0.661c0.125,0.952,0.287,1.628,0.291,2.305
      c0.033,5.904-0.068,11.81,0.084,17.71c0.129,5.001,0.605,9.991,0.81,14.991c0.237,5.778,0.406,11.563-0.466,17.648
      c-10.946-1.139-21.777-2.139-32.708-1.241c2.175,0.195,4.347,0.426,6.525,0.576c5.889,0.406,11.785,0.725,17.669,1.188
      c2.128,0.167,4.224,0.694,6.347,0.967c2.682,0.346,4.664,1.819,6.041,3.979c2.209,3.464,4.221,7.054,6.298,10.602
      c0.121,0.207,0.07,0.515,0.136,1.107c-0.752,0.12-1.491,0.35-2.226,0.338c-8.412-0.128-16.823-0.339-25.236-0.432
      c-7.162-0.079-14.33,0.138-21.486-0.085c-8.041-0.25-16.067-0.958-24.107-1.256c-6.35-0.236-12.714-0.106-19.07-0.225
      c-6.89-0.129-13.782-0.281-20.667-0.573c-3.744-0.159-7.472-0.662-11.212-0.948c-1.31-0.1-2.634-0.016-4.077-0.016
      c0.068-2.356,1.362-4.224,2.475-6.081c2.063-3.443,4.336-6.76,6.809-10.574c1.332,0,3.104-0.076,4.867,0.014
      c6.248,0.317,12.491,0.748,18.74,1.027c6.078,0.271,12.162,0.381,18.242,0.612c3.381,0.129,6.757,0.361,10.135,0.546
      c0.012-0.177,0.023-0.353,0.035-0.53c-2.582-0.174-5.162-0.396-7.747-0.514c-6.166-0.282-12.339-0.432-18.5-0.791
      c-6.691-0.391-13.375-0.923-20.056-1.471c-2.034-0.167-4.047-0.592-6.266-0.929c-0.983-1.59-1.312-3.37-0.664-5.426
      c0.361-1.144,0.24-2.443,0.321-3.673c0.135-2.044,0.145-4.104,0.408-6.132c0.577-4.455,0.396-8.911,0.233-13.372
      c-0.052-1.428-0.161-2.855-0.151-4.282c0.037-5.452,0.103-10.904,0.18-16.356C65.608,38.459,65.726,37.581,65.831,36.245z"/>
    <path style="fill:#FFFFFF;" d="M88.646,33.012c3.442-1.17,6.957-1.076,10.482-0.821c0.444,0.032,0.881,0.167,1.324,0.196
      c6.409,0.416,12.818,0.822,19.227,1.228c0.446,0.028,0.897,0.073,1.34,0.038c5.212-0.418,10.323,0.476,15.46,1.114
      c1.661,0.206,3.362,0.082,5.044,0.116c3.372,0.068,6.747,0.088,10.116,0.236c1.506,0.066,3.014,0.319,4.496,0.617
      c2.701,0.542,5.383,1.179,8.065,2.198c-1.721,0.024-3.445,0.132-5.162,0.056c-3.479-0.154-6.96-0.335-10.429-0.639
      c-4.449-0.39-8.911-0.749-13.323-1.417c-6.723-1.017-13.471-1.59-20.257-1.848c-3.744-0.142-7.507-0.135-11.226-0.533
      C98.756,33.011,93.721,32.831,88.646,33.012z"/>
    </g>
    </g>
  </defs>
</svg>
