<svg version="1.1"
   xmlns="http://www.w3.org/2000/svg" xmlns:xlink="http://www.w3.org/1999/xlink" x="0px" y="0px" viewBox="0 0 236 180.8"
   style="enable-background:new 0 0 236 180.8;display:none;" xml:space="preserve">
<style type="text/css">
  .st0{fill:#1D1D1B;}
  .st1{fill:#FFFFFF;}
  .st2{opacity:0.35;enable-background:new;}
</style>
  <defs>
    <g id="07">
    <path class="st1" d="M209.4,90.1v-0.6c-0.8-0.2-1.5-0.3-2.3-0.4c-3-0.3-5.9-0.5-8.7-1c-4.5-0.9-9-1.9-13.5-3.3
        c-4.3-1.1-8.5-2.7-12.5-4.8c-2.6-1.5-5.3-2.8-7.9-4.2c-0.9-0.5-1.7-1-2.6-1.4c-2.7-1.3-5.4-2.6-8-3.7c-1.5-0.4-2.9-0.7-4.3-0.8
        c-2.7-0.4-5.5-0.6-8.2-0.6c-3.5,0.2-7,0.7-10.5,1.2c-8.3,1.4-16.7,2.9-25,4.8c-5,1.2-10,2.6-15.1,2.8c-0.4,0-0.8,0.1-1.2,0.3
        c-4.8,1.6-9.6,2.7-14.5,3.4c-2.3,0.3-4.7,0.7-7,1c-4,0.6-7.9,1.3-11.9,1.9c-1.5,0.2-3.1,0.3-4.6,0.4c-1.8,0.2-3.8,0.5-5.6,0.5
        c-1.9,0-3.7-0.6-5.3,0.8c-0.2,0.1-0.4,0.1-0.6,0c-2.8,0.1-5.5,0.1-8.3,0.3c-1.4,0.1-2.8,0.5-4.5,0.7c0.6,0.8,1.6,1.1,2.5,1.1
        c2.4,0.2,4.8,0.3,7.2,0.5c3.2,0.2,6.1,1.7,9.2,2.5c1,0.3,2.1,0.8,3,1.3c3.8,1.9,7.5,4,11.3,5.9c2.3,1.2,4.8,2.2,7.1,3.5
        c3.5,1.8,6.9,3.8,10.5,5.6c1.9,1.1,4.1,1.9,6.2,2.3c3.4,0.4,6.7,0.3,10-0.1c4.6-0.8,9.3-1.1,13.9-1.9c2.6-0.4,5.1-1.3,7.6-1.9
        c6.3-1.5,12.5-3,18.8-4.5c7.7-1.9,15.4-3.7,23.2-5.8c5.1-1.4,10.4-2.1,15.7-2.9c2.1-0.3,4.3-0.6,6.3-0.8c3.1-0.2,6.1-0.1,9.2-0.3
        c2.9-0.2,5.7-0.5,8.6-0.7c1.3-0.1,2.5,0.1,3.8-0.1c2-0.2,4-0.4,6-0.6C208.4,90.3,208.9,90.1,209.4,90.1z"/>
      <path d="M209.4,90.1c-0.6,0.1-1.1,0.3-1.6,0.3c-2,0.2-4,0.5-6,0.6c-1.3,0.1-2.5,0-3.8,0.1c-2.9,0.2-5.7,0.5-8.6,0.7
        c-3.1,0.2-6.1,0.1-9.2,0.3c-2.1,0.1-4.3,0.4-6.3,0.8c-5.3,0.9-10.5,1.5-15.7,2.9c-7.7,2.1-15.4,3.9-23.2,5.8
        c-6.3,1.5-12.5,3-18.8,4.5c-2.6,0.6-5.1,1.5-7.6,1.9c-4.7,0.8-9.3,1.1-13.9,1.9c-3.3,0.5-6.7,0.6-10,0.1c-2.1-0.4-4.2-1.1-6.1-2.2
        c-3.5-1.7-7-3.7-10.5-5.6c-2.3-1.3-4.8-2.2-7.1-3.5c-3.8-1.9-7.5-4-11.3-5.9c-1-0.5-2-1-3-1.3c-3.1-0.8-6-2.3-9.2-2.5
        c-2.4-0.2-4.8-0.3-7.2-0.5c-0.9,0.2-1.9-0.2-2.5-1.1c1.7-0.3,3.1-0.6,4.5-0.7c2.8-0.2,5.5-0.2,8.3-0.3c0.2,0.1,0.4,0.1,0.6,0
        c1.6-1.4,3.4-0.8,5.3-0.8c1.9,0,3.7-0.3,5.6-0.5c1.5-0.1,3.1-0.2,4.6-0.4c4-0.6,7.9-1.2,11.9-1.9c2.3-0.3,4.7-0.7,7-1
        c4.9-0.7,9.7-1.8,14.5-3.4c0.4-0.1,0.7-0.2,1.2-0.3c5.1-0.3,10.1-1.7,15.1-2.8c8.3-2,16.5-3.5,25-4.8c3.5-0.6,7-1,10.5-1.2
        c2.8-0.1,5.5,0.2,8.2,0.6c1.4,0,3,0.3,4.3,0.8c2.7,1.1,5.3,2.4,8,3.7c0.9,0.5,1.7,0.9,2.6,1.4c2.6,1.4,5.3,2.7,7.9,4.2
        c4,2.1,8.2,3.8,12.5,4.8c4.4,1.3,9,2.3,13.5,3.3c2.9,0.5,5.8,0.7,8.7,1c0.8,0.1,1.5,0.3,2.3,0.4L209.4,90.1z M41.9,88.5
        c2.4,0.9,4.5,1.5,6.6,2.4c4,2,7.9,4.3,11.8,6.3c5.6,2.9,11.2,5.7,17,8.5c2.5,1.3,4.9,2.7,7.6,2.8c2.5,0.1,5.1,0.3,7.7,0.2
        c4.3-0.3,8.5-1,12.8-1.5c1.1-0.2,2.1-0.3,3.2-0.6c2.2-0.5,4.3-1.1,6.5-1.7c6.1-1.4,12.4-2.7,18.4-4.4c8.3-2.3,16.7-4.6,25.1-6.3
        c5.8-1.1,11.7-2.1,17.5-3.1c2.5-0.3,5.1-0.3,7.6-0.5c4.1-0.2,8.3-0.6,12.4-0.8c0.3-0.1,0.6-0.2,0.8-0.4c-4.7-1.2-9.1-2.3-13.6-3.7
        c-5.3-1.5-10.5-3.7-15.4-6.5c-3-1.6-6-3-8.8-4.7c-2.8-1.5-5.6-2.5-8.6-3c-3.7-0.7-7.3-0.9-11-0.6c-1.5,0.1-3,0.6-4.5,0.7
        c-2.9,0.4-5.9,0.3-8.8,1c-5.2,1.1-10.4,1.7-15.6,3.2c-4.7,1.4-9.6,2.1-14.4,3c-1.8,0.4-3.8,0.3-5.6,0.8c-6.9,2.2-14,3.2-21.1,4.4
        c-6.3,1-12.6,1.7-19,2.5C47.7,87.1,44.7,86.8,41.9,88.5L41.9,88.5z"/>
      <path class="st1" d="M41.8,88.5c2.9-1.7,5.8-1.4,8.6-1.9c6.3-0.8,12.7-1.5,19-2.5c7.1-1.2,14.2-2.2,21.1-4.4
        c1.8-0.6,3.8-0.5,5.6-0.8c4.8-1,9.7-1.6,14.4-3c5.1-1.6,10.4-2.1,15.6-3.2c2.9-0.7,5.9-0.6,8.8-1c1.5-0.2,3-0.7,4.5-0.7
        c3.7-0.3,7.3-0.1,11,0.6c3,0.5,5.8,1.6,8.6,3c2.9,1.7,6,3,8.8,4.7c4.9,2.7,10.1,5,15.4,6.5c4.4,1.4,8.9,2.4,13.6,3.7
        c-0.2,0.2-0.5,0.3-0.8,0.4c-4.1,0.3-8.3,0.6-12.4,0.8c-2.5,0.1-5.1,0.1-7.6,0.5c-5.8,0.9-11.7,1.8-17.5,3.1
        c-8.4,1.7-16.8,4-25.1,6.3c-6.1,1.6-12.3,2.9-18.4,4.4c-2.2,0.5-4.3,1.1-6.5,1.7c-1.1,0.3-2.1,0.4-3.2,0.6
        c-4.3,0.5-8.5,1.2-12.8,1.5c-2.5,0.2-5.1-0.1-7.7-0.2c-2.8,0-5.2-1.5-7.6-2.8c-5.6-2.8-11.3-5.6-17-8.5c-4-2-7.8-4.3-11.8-6.3
        C46.5,89.9,44.3,89.3,41.8,88.5z"/>
    </g>
  </defs>
</svg>
