<svg version="1.1"
   xmlns="http://www.w3.org/2000/svg" xmlns:xlink="http://www.w3.org/1999/xlink" x="0px" y="0px" viewBox="0 0 236 180.8"
   style="enable-background:new 0 0 236 180.8;display:none;" xml:space="preserve">
<style type="text/css">
  .st0{fill:#1D1D1B;}
  .st1{fill:#FFFFFF;}
  .st2{opacity:0.35;enable-background:new;}
</style>
  <defs>
    <g id="33">
<g id="Ebene_1_2_">
<g id="Ebene_1_1_">
  <path class="st0" d="M171.9,100.4c0.5,0,0.9,0.1,1.2,0c0.5,0,1-0.2,1.5-0.2c2.3-0.1,4.7,0.5,7-0.1c0.2,0,0.3,0,0.5,0.1
    c1.2,0.4,2.4,0.3,3.6,0.3c0.6,0,1.1,0,1.7,0.2c2.9,0.7,5.8,0.9,8.7,0.5c1.4-0.2,2.8-0.2,4.1,0.2c1.2,0.4,2.4,0.4,3.6,0.3
    c1-0.1,1.9-0.2,2.9-0.3c0.5,0,0.9,0,1.4,0c1.2,0,2.4,0.1,3.6,0c0.9-0.1,1.8-0.4,2.7-0.5c2.5-0.2,5-0.4,7.5-0.5
    c0.2,0,0.4,0.2,0.9,0.5c-0.7,0.2-1.1,0.3-1.5,0.3c-1.2,0-2.4,0-3.6,0c-1.6,0.1-3.2,0-4.8,0.5c-1.8,0.6-3.6,0.8-5.2,0.3
    c-2,0.3-3.9,0.7-5.8,0.4c-2.6-0.5-5.2-0.8-7.8,0.2c-0.1,0-0.2,0.1-0.3,0.1c-1.7-0.1-3.4-0.2-5.1-0.4c-0.9-0.1-1.8-0.2-2.7,0
    c-0.7,0.2-1.5,0-2.2-0.1c-0.9-0.2-1.8-0.3-2.7-0.2c-1.3,0.2-2.5,0.1-3.7-0.2c-0.4-0.1-0.9-0.2-1.3-0.2c-1.1,0.1-2.3,0.4-3.4,0.6
    c-0.5,0.1-0.9,0.2-1.3,1C171.7,104.7,171.9,99.9,171.9,100.4"/>
  <path class="st0" d="M68.7,100.4c-0.5,0-0.9,0.1-1.3,0c-0.5,0-1.1-0.2-1.6-0.2c-2.4-0.1-4.9,0.5-7.3-0.1c-0.2,0-0.4,0-0.5,0.1
    c-1.2,0.4-2.5,0.3-3.7,0.3c-0.6,0-1.2,0-1.8,0.2c-3,0.7-6,0.9-9.1,0.5c-1.4-0.2-2.9-0.2-4.3,0.2c-1.2,0.4-2.5,0.4-3.7,0.3
    c-1-0.1-2-0.2-3-0.3c-0.5,0-1,0-1.4,0c-1.2,0-2.5,0.1-3.7,0c-0.9-0.1-1.9-0.4-2.8-0.5c-2.6-0.2-5.2-0.4-7.8-0.5
    c-0.2,0-0.4,0.2-0.9,0.5c0.8,0.2,1.2,0.3,1.5,0.3c1.2,0,2.5,0,3.7,0c1.7,0.1,3.4,0,5,0.5c1.9,0.6,3.7,0.8,5.4,0.3
    c2.1,0.3,4.1,0.7,6.1,0.4c2.7-0.5,5.4-0.8,8.1,0.2c0.1,0,0.2,0.1,0.4,0.1c1.8-0.1,3.6-0.2,5.3-0.4c0.9-0.1,1.9-0.2,2.8,0
    c0.7,0.2,1.5,0,2.3-0.1c0.9-0.2,1.9-0.3,2.8-0.2c1.3,0.2,2.6,0.1,3.9-0.2c0.5-0.1,0.9-0.2,1.4-0.2c1.2,0.1,2.4,0.4,3.5,0.6
    c0.5,0.1,0.9,0.2,1.3,1C68.9,104.7,68.7,99.9,68.7,100.4"/>
  <g>
    <path d="M48.7,49.5c1.1,0.1,1.9,0.2,2.7,0.2c0.3,0,0.6,0,0.9,0c4.4,1.8,9.1,1.5,13.7,1.4c6.9-0.2,13.9-0.6,20.8-0.9
      c0.5,0,1,0.1,1.4,0.1c1.5-0.1,3-0.2,4.5-0.3c2.1-0.1,4.3,0,6.5-0.1c2.8-0.1,5.5-0.3,8.3-0.5c0.6-0.1,1.2-0.4,1.6-0.8
      c0.6-0.8,1.8-0.9,2.6-0.4c0.2,0.2,0.5,0.3,0.8,0.4c1.9-0.7,2.7,0.7,3.6,1.9c0.2,0.3,0.5,0.6,0.8,0.9c3.5,2.4,6,5.7,8.4,8.6
      c1.5,0.1,2.6,0.3,3.8,0.3c0.5,0,1-0.1,1.5-0.4c3-2.1,6-4.3,8.9-6.5c1.5-1.2,2.8-2.5,4.3-3.9c4.6,1.3,9.4,1.6,14.2,2.1
      s9.7,0.7,14.5,0.9c2.9,0.1,5.7,0.8,8.5,1.1c1.7,0.2,3.5,0.5,5.2,0.7c0.5,0,1,0,1.4,0.1c0.6,0.2,1,0.6,1.3,1.1
      c0,0.6-0.3,1.1-0.8,1.4c-1.7,1-3.6,1.7-5.2,2.8c-2.7,1.8-5.3,3.7-7.9,5.7c-1.3,1-1.4,1.4-0.4,2.8c1.1,1.5,2.4,3,3.5,4.5
      c0.7,0.9,1.3,1.8,2,2.7c2.5,3.3,4.9,6.6,7.4,10c0.4,0.5,0.9,1.5,0.7,1.9c-0.5,0.6-1.1,1-1.9,1.2c-3.7,1-7.4,1.8-11.1,2.7
      c-1.7,0.4-1.9,0.7-1.6,2.3c0.7,4.6-0.2,9.1-0.3,13.6c-0.1,3.1-0.1,6.2-0.1,9.3c0.1,1,0.3,1.9,0.5,2.9c-2.2,1.1-4.6,1.8-7,2.3
      c-6.5,1.3-12.9,2.8-19.4,4c-3.5,0.7-7.1,1-10.6,1.5c-1.3,0.2-2.7,0.6-4,1c-5.2,1.6-10.3,3.2-15.5,4.9c-0.6,0.3-1.2,0.7-1.7,1.2
      c-0.6-0.1-1.3-0.2-2-0.4c-1.7-0.4-3.4-0.8-5.1-1.2s-3.1-0.8-4.6-1.1c-3-0.7-6.1-1.3-9.1-1.9c-5-1.1-10-2.1-15-3.2
      c-2.7-0.6-5.4-1.5-8.1-2.2c-0.6-0.1-1.2-0.2-1.8-0.3c-0.9-1.2-1.2-2.7-1-4.2c0.2-2.4-0.4-4.8-0.4-7.1c0-3.5,0.5-7-0.1-10.5
      c-0.3-2.3-0.6-4.6-0.8-6.9c0-1-0.8-1.8-1.8-1.9c-3.2-0.8-6.3-1.7-9.5-2.5c-0.8-0.2-1.6-0.2-2.3-0.2c-1.5,0.1-2.2-0.7-1.8-2.1
      c0.2-0.6,0.6-1.1,0.8-1.7c1.6-3.9,3.3-7.8,4.9-11.6c0.5-1.2,1.2-2.4,1.9-3.6c1.6-3.2,1.2-6-1.2-8.6c-2.7-2.8-5.5-5.5-8.3-8.3
      c-0.4-0.3-0.7-0.6-1.1-0.9C46.7,52.2,46.7,51.2,48.7,49.5z M69.5,93.5c0.2,2.2,0.4,3.7,0.5,5.3c0.2,3.3,0.8,6.6,0.4,9.8
      c-0.5,3.6,0.1,7,0.4,10.5c0,1.5,1,2.8,2.4,3.2c4.3,1.2,8.6,2.5,12.9,3.6c3.3,0.9,6.7,1.5,10,2.2c2.3,0.6,4.7,1,7.1,1.2
      c2.3,0.1,4.6,0.5,6.8,1.1c2.1,0.6,2.8,0.1,2.8-2.1c0-1.3-0.1-2.5-0.1-3.8c0-4,1-7.9,0.3-11.9c0-0.2,0.1-0.5,0.1-0.7
      c0.1-3.3,0.2-6.5,0.2-9.8c0-1.2-0.6-2.3-0.6-3.5c0-2.5,0.1-4.9,0.3-7.4c0.1-1.7,0.3-3.5,0.5-5.2h0.5c0,1-0.1,2.1,0,3.1
      s0.4,2.4,0.5,3.5c0.2,3.3,0,6.6,0.9,9.9c0.4,1.6,0.1,3.3,0.2,5c0,1.1,0,2.2,0.1,3.3s0.3,2.4,0.2,3.6c-0.2,3.9-0.6,7.8-0.6,11.6
      c0,1.7-0.4,3.6,0.7,5.3c2.4-0.5,4.7-1.1,7-1.8c4-1.5,8.1-2.8,12.3-3.8c1.5-0.3,2.9-0.7,4.4-1c2.8-0.5,5.5-0.8,8.3-1.4
      c1.7-0.3,3.4-0.9,5.1-1.2c3.3-0.7,6.6-1.3,9.9-2c1.7-0.4,3.4-0.7,5.1-1.1c0.4-0.1,0.9-0.3,1.2-0.6c-0.2-1.6,1.5-1.2,2-2
      c0-0.4,0-0.9,0-1.4c0-3,0-6.1,0-9.1c0.1-4.1,0.2-8.3,0.3-12.4c-0.1-0.8-0.3-1.5-0.6-2.2c-5.8,1.5-11.2,2.9-16.7,4.3
      c-3.6,1-7.2,2.1-10.8,3.2c-2,0.6-4,1-6,1.6c-2.7,0.8-5.3,1.6-8,2.4c-0.6,0.4-1.4,0.2-1.7-0.4l-0.1-0.1c-1-1.9-1.9-3.9-2.9-5.7
      c-2.5-4.3-5-8.6-7.5-12.8c-1.3-2.1-2.9-4.1-4.6-6.4c-0.6,0.7-1.1,1.4-1.6,2.2c-1.7,3.2-2.2,6.8-4.4,9.7c-0.1,0.1-0.1,0.3-0.2,0.4
      c-1,2.3-2.7,4.3-3,6.9c-0.1,0.6-0.4,1.2-0.7,1.8c-0.4,1.1-1.5,1.7-2.6,1.4c-0.1,0-0.2-0.1-0.2-0.1c-1.6-0.5-3.2-1-4.8-1.4
      C86.7,96.9,78.4,95.3,69.5,93.5L69.5,93.5z M129.3,100.4c1.2-0.1,2.5-0.3,3.7-0.6c4.9-1.4,9.8-2.8,14.7-4.2
      c0.9-0.3,1.8-0.6,2.7-0.8c5.6-1.5,11.1-2.9,16.7-4.3c2.1-0.5,4.3-1,6.5-1.4c2.8-0.5,5.6-1,8.5-1.4c1.3-0.1,2.4-1,2.8-2.3
      c-0.2-0.3-0.4-0.7-0.6-1l-11.1-14.7c-0.6-1-1.8-1.4-2.9-1c-2.8,0.8-5.7,1.6-8.5,2.1c-5.1,1-10.1,2.1-15.1,3.6
      c-5.3,1.5-10.9,2.1-16.4,3c-3.1,0.5-6.2,0.7-9.3,1.1c-1.5,0.2-2.9,0.5-4.8,0.9L129.3,100.4z M54.2,88.7c1.7,0.2,3.4,0.6,5,1.1
      c4.9,2,10.1,2,15.2,3s10,1.5,15,2.9c3,0.8,6.1,1.2,9.1,1.8c0.2,0,0.3,0,0.5,0c2.1,0.1,2.8-0.4,3.2-2.4c0.5-2.5,1.9-4.5,3.2-6.6
      c0.9-1.3,1.5-2.8,2-4.3c0.6-2,1.4-3.9,2.3-5.8c0.2-0.6,0.3-1.1,0.4-1.7c-1.4-0.4-2.9-0.6-4.4-0.9c-3.2-0.3-6.5-0.2-9.8-0.6
      c-3.8-0.5-7.5-1.5-11.2-2.3c-4-0.8-8-1.5-12-2.2c-2.6-0.5-5.2-0.8-7.7-1.3c-1.2-0.2-2.2-0.2-2.8,1.1
      C59.6,76.5,56.9,82.5,54.2,88.7L54.2,88.7z M51.8,51.9l-0.2,0.5l12.1,14.3c5.6,0,11-1.5,16.5-0.9c0.2,0,0.5,0,0.7,0
      c4.4-0.4,8.9-0.8,13.3-1c2.8-0.2,5.7-0.2,8.5-0.4c1.8-0.1,3.6-0.6,5.4-0.8c4.4-0.5,8.7-1,13.1-1.6c1-0.1,2-0.5,3.2-0.8
      c-2.1-2.5-3.9-4.8-5.9-6.9c-1.2-1.1-2.6-2.2-4-3.1c-1.5-1.1-3.3-1.5-4.9-0.5c-1.8,1.2-3.6,1-5.5,0.7c-0.8-0.1-1.6-0.1-2.4,0.1
      c-2.6,0.5-5.2,1.5-7.9,0.1c-0.2-0.1-0.5-0.1-0.7-0.1c-1.9,0-3.8-0.2-5.6-0.1c-6.1,0.3-12.3,0.8-18.4,1.1
      c-3.6,0.2-7.2,0.2-10.7,0.1C56.4,52.6,54.1,52.2,51.8,51.9L51.8,51.9z M126.6,63.1c-2.8,0.3-5.4,1.1-8.1,1s-5.5,0.8-8.3,1.1
      c-3.2,0.4-6.5,0.9-9.7,1.1c-3.7,0.3-7.5,0.2-11.2,0.6c-4.4,0.7-8.9,0.9-13.3,0.7c-2.1-0.2-4.1,0.1-6.1,0.9
      c2.1,0.5,4.2,0.8,6.3,1.2c2.4,0.5,4.8,1,7.3,1.5c4.4,0.9,8.7,1.9,13.1,2.5s8.6,0.6,12.9,0.9c1,0.1,2.4-0.1,3,0.5
      c2,1.9,4.4,1.1,6.6,1.3c2.9,0,5.7-0.2,8.5-0.8c2.5-0.4,5-0.9,7.5-1.4c3.3-0.8,6.6-1.7,10-2.4c2.1-0.4,4.3-0.3,6.4-0.7
      c3.1-0.6,6.2-1.4,9.3-2.1c1.8-0.4,3.6-0.8,6.1-1.3c-0.5-0.2-1-0.4-1.6-0.5c-4.3-0.3-8.6-0.7-12.9-0.9c-2.9-0.2-5.9,0-8.8-0.3
      c-3.6-0.4-7.2-1.1-10.9-1.6c-1.3-0.1-2.7-0.1-4,0c1,3.3,0.1,6.2-1,9.1c-0.7-1.2-0.9-1.7-0.6-2.9C127.5,68,127.3,65.5,126.6,63.1
      L126.6,63.1z M185.2,56.3c-2.2-0.4-3.9-0.8-5.6-1.1c-2.6-0.6-5.2-0.9-7.8-1.1c-8.1-0.2-16.3-0.8-24.3-1.9c-1.5-0.2-3,0-4.4,0.6
      c-2,1.3-3.8,2.8-5.5,4.4c-0.3,0.2-0.5,0.3-0.8,0.5l-5.5,3.7c0.3,0.2,0.7,0.4,1.1,0.5c5,0.7,10.1,1.9,15.2,2
      c6.5,0.1,13.1,0.5,19.6,1.3c2.1,0.3,4.4,0.7,6.3-1c2-1.7,4.1-3.2,6.3-4.6C181.4,58.4,183.1,57.5,185.2,56.3L185.2,56.3z"/>
    <path d="M184.4,51.5c0.5,1.8,0.5,1.8-1.4,1.8L184.4,51.5z"/>
    <path d="M188.8,80l2.1-0.7C190.9,81.1,190.9,81.1,188.8,80z"/>
    <path d="M141.5,47.7c1.6-0.1,1.8,0.4,1.2,1.6L141.5,47.7z"/>
    <path class="st1" d="M69.5,93.5c8.8,1.7,17.2,3.3,25.6,5c1.6,0.4,3.2,0.8,4.8,1.4c1.1,0.5,2.3,0,2.8-1c0-0.1,0.1-0.2,0.1-0.2
      c0.3-0.6,0.5-1.2,0.7-1.8c0.3-2.6,2-4.6,3-6.9c0-0.2,0.1-0.3,0.2-0.4c2.2-2.9,2.8-6.6,4.4-9.7c0.5-0.8,1-1.5,1.6-2.2
      c1.7,2.3,3.3,4.3,4.6,6.4c2.6,4.2,5.1,8.5,7.5,12.8c1.1,1.9,2,3.8,2.9,5.7c0.3,0.6,1,0.9,1.7,0.7c0,0,0.1,0,0.1-0.1
      c2.7-0.8,5.3-1.7,8-2.4c2-0.6,4-1,6-1.6c3.6-1,7.1-2.2,10.8-3.2c5.4-1.5,10.9-2.9,16.7-4.3c0.3,0.7,0.5,1.5,0.6,2.2
      c0,4.1-0.2,8.3-0.3,12.4c-0.1,3,0,6.1,0,9.1c0,0.5,0,0.9,0,1.4c-0.6,0.8-2.3,0.3-2,2c-0.3,0.3-0.7,0.5-1.2,0.6
      c-1.7,0.4-3.4,0.8-5.1,1.1c-3.3,0.7-6.6,1.3-9.9,2c-1.7,0.4-3.4,0.9-5.1,1.2c-2.7,0.5-5.5,0.9-8.3,1.4c-1.5,0.3-3,0.6-4.4,1
      c-4.2,1-8.3,2.3-12.3,3.8c-2.3,0.7-4.6,1.3-7,1.8c-1.1-1.7-0.7-3.6-0.7-5.3c0.1-3.9,0.5-7.8,0.6-11.6c0.1-1.2-0.2-2.4-0.2-3.6
      s0-2.2-0.1-3.3c0-1.7,0.2-3.4-0.2-5c-0.9-3.3-0.7-6.6-0.9-9.9c-0.1-1.2-0.4-2.4-0.5-3.5s0-2.1,0-3.1h-0.5
      c-0.2,1.7-0.4,3.5-0.5,5.2c-0.1,2.5-0.3,4.9-0.3,7.4c0,1.2,0.6,2.3,0.6,3.5c0,3.3-0.1,6.5-0.2,9.8c-0.1,0.2-0.1,0.5-0.1,0.7
      c0.7,4-0.3,7.9-0.3,11.9c0,1.3,0.1,2.5,0.1,3.8c-0.1,2.2-0.7,2.7-2.8,2.1c-2.2-0.6-4.5-1-6.8-1.1c-2.4-0.2-4.7-0.7-7.1-1.2
      c-3.4-0.7-6.7-1.4-10-2.2c-4.3-1.1-8.6-2.4-12.9-3.6c-1.4-0.4-2.5-1.7-2.4-3.2c-0.3-3.5-0.8-6.9-0.4-10.5
      c0.4-3.2-0.2-6.5-0.4-9.8C70,97.3,69.8,95.7,69.5,93.5z"/>
    <path class="st1" d="M129.3,100.4l-13.1-21c1.9-0.4,3.3-0.7,4.8-0.9c3.1-0.4,6.2-0.6,9.3-1.1c5.5-0.9,11.1-1.4,16.4-3
      c5-1.5,10-2.6,15.1-3.6c2.9-0.6,5.7-1.3,8.5-2.1c1.1-0.4,2.3,0,2.9,1l11.1,14.7c0.2,0.3,0.4,0.7,0.6,1c-0.4,1.3-1.5,2.2-2.8,2.3
      c-2.8,0.4-5.6,0.9-8.5,1.4c-2.2,0.4-4.4,0.9-6.5,1.4c-5.6,1.4-11.1,2.9-16.7,4.3c-0.9,0.2-1.8,0.6-2.7,0.8
      c-4.9,1.4-9.8,2.8-14.7,4.2C131.8,100,130.5,100.3,129.3,100.4z M131.3,94.2c0.8,1.6,0.8,1.6,1.7,0.6L131.3,94.2z"/>
    <path class="st1" d="M54.2,88.7c2.8-6.2,5.4-12.2,8.1-18.1c0.6-1.3,1.5-1.4,2.8-1.1c2.6,0.5,5.2,0.8,7.7,1.3c4,0.7,8,1.4,12,2.2
      c3.8,0.7,7.5,1.7,11.2,2.3c3.2,0.5,6.5,0.4,9.8,0.6c1.5,0.2,2.9,0.5,4.4,0.9c-0.1,0.6-0.3,1.1-0.4,1.7c-0.9,1.9-1.6,3.8-2.3,5.8
      c-0.5,1.5-1.1,3-2,4.3c-1.3,2.1-2.7,4.1-3.2,6.6c-0.4,2-1.2,2.4-3.2,2.4c-0.2,0-0.3,0-0.5,0c-3-0.6-6.1-1-9.1-1.8
      c-5-1.3-10-1.9-15-2.9s-10.3-1-15.2-3C57.5,89.3,55.8,88.9,54.2,88.7z"/>
    <path class="st1" d="M51.8,51.9c2.3,0.3,4.5,0.7,6.8,0.8c3.6,0.1,7.2,0,10.7-0.1c6.1-0.3,12.3-0.8,18.4-1.1
      c1.9-0.1,3.8,0.1,5.6,0.1c0.2,0,0.5,0,0.7,0.1c2.6,1.4,5.2,0.4,7.9-0.1c0.8-0.1,1.6-0.2,2.4-0.1c1.9,0.3,3.7,0.4,5.5-0.7
      c1.6-1,3.4-0.6,4.9,0.5c1.4,0.9,2.8,1.9,4,3.1c2,2.1,3.8,4.4,5.9,6.9c-1.3,0.3-2.2,0.6-3.2,0.8c-4.4,0.5-8.7,1-13.1,1.6
      c-1.8,0.2-3.6,0.6-5.4,0.8c-2.8,0.2-5.7,0.2-8.5,0.4c-4.4,0.3-8.9,0.7-13.3,1c-0.2,0-0.5,0-0.7,0c-5.5-0.6-10.9,0.9-16.5,0.9
      L51.8,52.5V51.9z"/>
    <path class="st1" d="M185.2,56.3c-2.1,1.2-3.8,2.2-5.5,3.3c-2.2,1.4-4.3,3-6.3,4.6c-2,1.7-4.2,1.3-6.3,1
      c-6.5-0.8-13-1.2-19.6-1.3c-5.1-0.1-10.1-1.3-15.2-2c-0.4-0.1-0.8-0.3-1.1-0.5l5.5-3.7c0.3-0.1,0.5-0.3,0.8-0.5
      c1.7-1.6,3.6-3.1,5.5-4.4c1.4-0.6,2.9-0.9,4.4-0.6c8.1,1.1,16.2,1.7,24.3,1.9c2.6,0.2,5.2,0.5,7.8,1.1
      C181.3,55.5,183,55.8,185.2,56.3z"/>
    <path d="M131.3,94.2l1.7,0.6C132.1,95.7,132.1,95.7,131.3,94.2z"/>
  </g>
</g>
</g>
    </g>
  </defs>
</svg>
