<svg version="1.1"
   xmlns="http://www.w3.org/2000/svg" xmlns:xlink="http://www.w3.org/1999/xlink" x="0px" y="0px" viewBox="0 0 236 180.8"
   style="enable-background:new 0 0 236 180.8;display:none;" xml:space="preserve">
<style type="text/css">
  .st0{fill:#1D1D1B;}
  .st1{fill:#FFFFFF;}
  .st2{opacity:0.35;enable-background:new;}
</style>
  <defs>
    <g id="46">
<path class="st0" d="M88.6,100.4c0-0.5,0.3,4.3,0.7,2.8c-0.6-0.8-1.1-0.9-1.9-1c-1.6-0.2-3.3-0.5-4.9-0.6c-0.6,0-1.3,0.1-1.9,0.2
c-1.7,0.3-3.4,0.4-5.3,0.2c-1.3-0.1-2.6,0-3.9,0.2c-1,0.1-2.1,0.3-3.1,0.1c-1.3-0.2-2.6-0.1-3.9,0c-2.4,0.2-4.9,0.3-7.3,0.4
c-0.1,0-0.3-0.1-0.4-0.1c-3.7-1-7.4-0.7-11.1-0.2c-2.7,0.3-5.4-0.1-8.3-0.4c-2.3,0.5-4.9,0.3-7.4-0.3c-2.3-0.5-4.6-0.4-6.9-0.5
c-1.7,0-3.4,0-5.1,0c-0.6,0-1.1-0.1-2.1-0.3c0.7-0.3,1-0.5,1.3-0.5c3.6,0.1,7.1,0.3,10.7,0.5c1.3,0.1,2.6,0.4,3.9,0.5
c1.7,0.1,3.4,0,5.1,0c0.7,0,1.3,0,2,0c1.4,0.1,2.7,0.2,4.1,0.3c1.7,0.1,3.4,0.1,5.1-0.3c2-0.4,4-0.4,6-0.2c4.1,0.4,8.3,0.2,12.4-0.5
c0.9-0.2,1.6-0.2,2.4-0.2c1.7,0,3.4,0.1,5.1-0.3c0.3-0.1,0.4-0.1,0.7-0.1c3.3,0.6,6.7,0,10,0.1c0.7,0,1.4,0.2,2.1,0.2
C87.3,100.5,87.8,100.4,88.6,100.4"/>
<path class="st0" d="M144.3,100.3c0-0.5-0.3,4.7-0.9,3c0.6-0.9,1.2-1,1.9-1.1c1.6-0.2,3.4-0.5,5.2-0.7c0.7,0,1.3,0.1,2.1,0.2
c1.9,0.3,3.9,0.4,5.8,0.2c1.3-0.1,2.8,0,4.2,0.2c1.2,0.1,2.4,0.3,3.4,0.1c1.3-0.2,2.8-0.1,4.2,0c2.5,0.2,5.2,0.3,7.9,0.4
c0.3,0,0.4-0.1,0.6-0.1c4-1.1,8-0.8,12-0.2c3,0.3,5.9-0.1,9-0.4c2.5,0.5,5.2,0.3,8-0.3c2.4-0.5,4.9-0.4,7.4-0.5c1.8,0,3.7,0,5.5,0
c0.4,0,1-0.1,2.2-0.3c-0.7-0.3-1-0.5-1.3-0.5c-3.9,0.1-7.7,0.3-11.6,0.5c-1.3,0.1-2.8,0.4-4.2,0.5c-1.8,0.1-3.7,0-5.5,0
c-0.6,0-1.3,0-2.1,0c-1.5,0.1-3,0.2-4.4,0.3c-1.8,0.1-3.7,0.1-5.5-0.3c-2.1-0.4-4.3-0.4-6.4-0.2c-4.6,0.4-9,0.2-13.5-0.5
c-0.9-0.2-1.8-0.2-2.7-0.2c-1.8,0-3.7,0.1-5.5-0.3c-0.1-0.1-0.4-0.1-0.7-0.1c-3.6,0.7-7.3,0-10.8,0.1c-0.7,0-1.6,0.2-2.4,0.2
C145.7,100.4,145.1,100.3,144.3,100.3"/>
<g>
<path class="st1" d="M63.5,48.3c1-0.3,1.7-0.8,1.1-1.7c-0.3-0.3-0.9-0.4-1.3-0.2C62.2,47,63.1,47.7,63.5,48.3L63.5,48.3z
   M39.8,64.6l0.4-2c-0.2-0.1-0.4-0.1-0.7-0.1C38.8,63,38.9,63.6,39.8,64.6L39.8,64.6z M173.8,52c0-1.2-0.2-1.8-1.1-1.6
  c-0.2,0.2-0.3,0.6-0.2,0.9C172.8,51.6,173.3,51.8,173.8,52z M67,48.3l-0.6,0.1c0.1,0.3,0.2,0.8,0.3,1.1c0.2,0,0.4-0.1,0.7-0.1
  L67,48.3z M169.9,50.1c0.2,0.2,0.4,0.6,0.7,0.7c0.2-0.1,0.4-0.2,0.6-0.3l-0.6-0.9L169.9,50.1z M189.2,135.9
  c-0.1,1.3-0.1,1.3,0.9,1.9L189.2,135.9z M43.2,138.7c0.2,0.2,0.4,0.3,0.8,0.4c0.2-0.2,0.4-0.4,0.6-0.7c-0.1-0.2-0.3-0.3-0.6-0.4
  C43.8,138.2,43.5,138.3,43.2,138.7L43.2,138.7z"/>
<path d="M56.2,98c-0.8,2.9-1.6,5.8-2.4,8.7c-0.7,2.2-1.3,4.5-2,6.6c-0.1,0.4-0.4,0.9-0.9,1.2c-0.6,0.3-1.2,0.2-1.6-0.3
  c-0.1-0.2-0.2-0.4-0.2-0.7c0.1-0.8,0.3-1.6,0.6-2.4c2.2-6.2,4.5-12.4,6.7-18.6c0.1-0.2,0.2-0.6,0.3-0.7c1.5-1.8,0.1-4.5,2.4-6.3
  c1.8-1.5,3.2-3.4,4.3-5.5c2-3.6,5-6.5,6.4-10.5c0.6-1.2,1.2-2.4,2-3.5c0.6-0.8,0.8-1.8,0.7-2.7c-0.2-1.1,0.6-2.2,1.8-2.5h0.1
  c1-0.2,1.9-0.2,2.9-0.2c5.9,0.1,11.8,0.4,17.7,0.6c6.4,0.1,12.6,0.1,19,0.1c1.5,0,2.8,0.3,4.3,0.3c3.6,0.2,7.2,0.3,10.7,0.6
  c8.4,0.4,16.8,1,25.2,1.6c0.8,0,1.6,0,2.4,0.1c1.2,0.2,2.5-0.9,3.6,0.2c1.7,1.6,2.9,3.5,3.6,5.6c0.2,0.8,0.4,1.6,0.7,2.2
  c1.3,2.8,2.9,5.5,4.1,8.4c1.3,2.8,3,5.3,5,7.6c0.6,0.7,0.9,1.5,1.1,2.2c0.8,2,1.6,4,2.4,5.9c1.1,2.7,2.2,5.3,3.5,7.8
  c1,2,2.2,4,3.5,5.9c0.4,0.8,0.7,1.6-0.2,2.1c-0.6,0.3-1.2,0.2-1.6-0.3c-0.1-0.1-0.1-0.2-0.2-0.4c-0.4-0.9-0.4-1.9-0.9-2.8
  c-2.2-5.3-4.6-10.4-7.4-15.6c0.1,0.7,0.2,1.5,0.3,2.1c0.4,2.5,0.9,4.9,1.5,7.4c0.1,1,0.4,1.9,0.8,2.8c1.6,3.9,2.7,8.1,3.1,12.2
  c0.2,1.1-0.9,2.2-1.8,1.7c-2-1.1-4.1-0.7-6.3-0.8c-1.6,0-3.1,0-4.7,0c-1.7,3.4-2.5,7.1-2.4,10.7l-2.5,1.1c-0.7-1.1-1.8-1.2-3.1-1.3
  c-4.7-0.1-9.4-0.6-14.2-0.7c-6.3-0.1-12.4-0.3-18.7,0.1c-5.9,0.4-12,0.7-17.9,1c-2.4,0.1-4.8,0-7.3,0c-4.6,0-9.1-0.2-13.7,0.2
  c-3.9,0.3-7.8-0.6-11.8-0.2c-1-0.1-1.9-0.1-2.9,0c-1,0.3-1.9,0.8-2.8,1.2l-3.6-11.4c-2.9,0.3-5.6-0.3-8.4,0.8
  c-1.3,0.6-3.1-0.1-4.7-0.3c0.6-3.8,1.1-7.4,1.7-11.1c0.6-3.7,1.2-7.1,1.9-10.6L56.2,98z M56.4,117.6l14.9,0.4h0.2
  c10,1.5,20,0.4,30-0.3c2.4-0.2,4.8-0.7,7.2-0.8c9-0.4,17.9-0.3,26.8,0.2c2.8,0.2,5.7,0.1,8.6,0.1s5.9,0.1,8.8,0.1
  c6.6-0.2,13.2-0.4,19.8-0.7c1.3,0,2.7,0.2,3.1-1.6c0.4-0.3,0.9-0.6,1.5-0.6c-2.5-8.2-3.5-16.6-6-24.6c-4.9-1.1-9.7-1-14.6-1.2
  c-0.6,0.2-1,0.6-1.5,0.9c-0.6,0.2-1,0.4-1.6,0.6l-0.4-1.3c-2.1,0.1-4.1,0.1-6.3,0c-4.4-0.7-8.7-0.1-13.1,0
  c-10.4,0.3-20.8,1-31.3,0.4c-2.2-0.1-4.5,0.3-6.7,0.3c-8.1-0.2-16.2-0.7-24.4-0.9c-3.7-0.1-7.3,0-11.3,0
  C58.8,98.4,56.2,107.7,56.4,117.6L56.4,117.6z M61.2,86.8c31.3,1.7,62.1,1,93,0.2c1-5.7,2-11.4,2.8-17.2c0.1-1.2,0-2.5-0.2-3.7
  c-27-2.1-53.8-3-80.9-3c0.1,1.9,0.2,3.5,0.3,5.1c0.2,3.5,0.6,6.9,0.8,10.4c0,0.7,0.3,1.7-1,2l-1.3-15.1
  C70.2,72.6,66.6,80.1,61.2,86.8L61.2,86.8z M164.2,118.7h-5.8c-7.3,0-14.7,0.1-21.9,0c-5.4-0.1-10.7-0.8-16.1-0.6
  c-9,0.3-17.9,1-26.8,1.7c-7.7,0.7-15.3,0.7-23.1-0.1c-0.8,0-1.6,0-2.4,0c0.9,2.6,1.8,4.8,2.5,7.2c0.2,1,1.1,1.6,2.1,1.5h0.1
  c1.5-0.2,3-0.2,4.5-0.2c2.4,0,4.8,0.3,7.3,0.3c5.4-0.1,10.6-0.4,16-0.6c6.4-0.2,12.9-0.2,19.3-0.4c1.5,0,2.8-0.7,4.3-0.4
  c2.6,0.3,5.1,0.3,7.7-0.1c1.5-0.1,2.8-0.1,4.3,0c2.5,0.2,5,0.3,7.5,0.2c5-0.3,10,0.4,14.9,0.6c1.6,0,2.9-0.2,3.7-1.6
  C163.4,123.8,164.8,121.5,164.2,118.7L164.2,118.7z M170.4,87.6c-0.2-0.7-0.4-1.2-0.7-1.8c-1.5-2.8-3-5.6-4.5-8.5
  c-0.2-0.4-0.4-1-0.8-1.3c-1.5-1.7-2.6-3.7-3-5.8c-0.3-1.1-1.1-2-2.1-2.6c-1.2,6.6-3,12.9-3,19.5L170.4,87.6z"/>
<path d="M63.5,48.3c-0.3-0.7-1.2-1.3-0.1-2c0.4-0.1,0.9,0,1.3,0.2C65.2,47.7,64.6,48,63.5,48.3z"/>
<path d="M40,64.6c-0.9-1-1.1-1.6-0.3-2.1c0.2,0,0.4,0,0.7,0.1L40,64.6z"/>
<path d="M173.8,52c-0.6-0.2-1-0.4-1.5-0.7c0-0.3,0.1-0.7,0.2-0.9C173.5,50.2,173.9,50.7,173.8,52z"/>
<path d="M67,48.3l0.4,1c-0.2,0.1-0.4,0.1-0.7,0.1c-0.1-0.3-0.3-0.8-0.3-1.1H67z"/>
<path d="M169.9,50.1l0.7-0.6l0.6,0.9c-0.1,0.1-0.3,0.2-0.6,0.3C170.4,50.7,170.1,50.5,169.9,50.1z"/>
<path d="M189.2,135.9l0.9,1.9C189,137.2,189,137.2,189.2,135.9z"/>
<path d="M43.2,138.7c0.2-0.2,0.6-0.4,0.9-0.6c0.2,0.1,0.4,0.2,0.6,0.4c-0.1,0.2-0.3,0.4-0.6,0.7C43.8,139,43.4,138.9,43.2,138.7z"
  />
<path class="st1" d="M56.4,117.6c-0.2-10,2.4-19.3,3.9-28.9c3.9,0,7.6-0.1,11.3,0c8.1,0.2,16.2,0.7,24.4,0.9
  c2.2,0.1,4.5-0.4,6.7-0.3c10.4,0.6,20.9-0.1,31.3-0.4c4.4-0.1,8.7-0.7,13.1,0c2.1,0.1,4.1,0.1,6.3,0l0.4,1.3
  c0.6-0.1,1.1-0.3,1.6-0.6c0.4-0.4,0.9-0.7,1.5-0.9c4.8,0.2,9.6,0.1,14.6,1.2c2.6,8.1,3.6,16.3,6,24.6c-0.6,0.1-1,0.3-1.5,0.6
  c-0.4,1.8-1.8,1.6-3.1,1.6c-6.6,0.2-13.2,0.6-19.8,0.7c-2.9,0.1-5.9,0-8.8-0.1s-5.7,0.1-8.6-0.1c-9-0.7-17.9-0.8-26.8-0.2
  c-2.4,0.1-4.8,0.6-7.2,0.8c-10,0.8-19.9,1.8-30,0.3h-0.2L56.4,117.6z"/>
<path class="st2" d="M60.2,87.3c5.5-7,9.1-14.8,13.9-22.1c0,0,1.3-0.3,1.2-2.4c27.5,0,54.5,0.9,82,3.1c0.2,1.2,0.2,2.6,0.2,3.9
  c-0.9,5.9-1.9,11.9-2.8,17.9C123.2,88.4,91.9,89.1,60.2,87.3z"/>
<path class="st1" d="M164.2,118.7c0.6,2.9-0.8,5-2,7.2c-0.7,1.3-2.1,1.6-3.7,1.6c-4.9-0.1-10-1-14.9-0.6c-2.5,0-5,0-7.5-0.2
  c-1.5-0.1-2.8-0.1-4.3,0c-2.6,0.3-5.1,0.4-7.7,0.1c-1.3-0.2-2.8,0.3-4.3,0.4c-6.4,0.2-12.9,0.2-19.3,0.4c-5.4,0.1-10.6,0.4-16,0.6
  c-2.4,0-4.8-0.2-7.3-0.3c-1.5,0-3,0.1-4.5,0.2c-0.9,0.2-1.9-0.2-2.2-1.2v-0.1c-0.7-2.2-1.6-4.5-2.5-7.2c0.8,0,1.6,0,2.4,0
  c7.6,0.8,15.3,0.8,23.1,0.1c9-0.7,17.8-1.3,26.8-1.7c5.4-0.1,10.7,0.6,16.1,0.6c7.3,0.1,14.7,0,21.9,0L164.2,118.7L164.2,118.7z"/>
<path class="st2" d="M171.4,87.7l-15.3-0.1c0-6.7,2.1-13.9,3.3-20.5c1,0.6,1.8,1.5,2.1,2.6c0.6,2.1,1.6,4.1,3,5.8
  c0.3,0.4,0.6,0.9,0.8,1.3c1.5,2.8,3,5.6,4.5,8.5C170,86.1,171,87.2,171.4,87.7z"/>
<path d="M76.9,86.3L76,81.1c1.9,1.8,2.1,3.1,1.3,5L76.9,86.3z"/>
</g>
    </g>
  </defs>
</svg>
