<svg version="1.1"
   xmlns="http://www.w3.org/2000/svg" xmlns:xlink="http://www.w3.org/1999/xlink" x="0px" y="0px" viewBox="0 0 236 180.8"
   style="enable-background:new 0 0 236 180.8;display:none;" xml:space="preserve">
<style type="text/css">
  .st0{fill:#1D1D1B;}
  .st1{fill:#FFFFFF;}
  .st2{opacity:0.35;enable-background:new;}
</style>
  <defs>
    <g id="49">
<path class="st0" d="M174.3,100.4c0.5,0,0.9,0.1,1.1,0c0.5,0,1-0.2,1.4-0.2c2.2-0.1,4.5,0.5,6.7-0.1c0.2,0,0.3,0,0.5,0.1
c1.1,0.4,2.3,0.3,3.4,0.3c0.6,0,1,0,1.6,0.2c2.8,0.7,5.5,0.9,8.3,0.5c1.3-0.2,2.7-0.2,3.9,0.2c1.1,0.4,2.3,0.4,3.4,0.3
c1-0.1,1.8-0.2,2.8-0.3c0.5,0,0.9,0,1.3,0c1.1,0,2.3,0.1,3.4,0c0.9-0.1,1.7-0.4,2.6-0.5c2.4-0.2,4.8-0.4,7.1-0.5
c0.2,0,0.4,0.2,0.9,0.5c-0.7,0.2-1,0.3-1.4,0.3c-1.1,0-2.3,0-3.4,0c-1.5,0.1-3,0-4.6,0.5c-1.7,0.6-3.4,0.8-5,0.3
c-1.9,0.3-3.7,0.7-5.5,0.4c-2.5-0.5-5-0.8-7.4,0.2c-0.1,0-0.2,0.1-0.3,0.1c-1.6-0.1-3.2-0.2-4.9-0.4c-0.9-0.1-1.7-0.2-2.6,0
c-0.7,0.2-1.4,0-2.1-0.1c-0.9-0.2-1.7-0.3-2.6-0.2c-1.2,0.2-2.4,0.1-3.5-0.2c-0.4-0.1-0.9-0.2-1.2-0.2c-1,0.1-2.2,0.4-3.2,0.6
c-0.5,0.1-0.9,0.2-1.2,1C174.2,104.7,174.3,99.9,174.3,100.4"/>
<path class="st0" d="M63.4,100.3c-0.4,0-0.8,0.1-1.2,0c-0.4,0-1-0.2-1.4-0.2c-2.2-0.1-4.4,0.5-6.6-0.1c-0.2,0-0.4,0-0.4,0.1
c-1.1,0.4-2.2,0.3-3.3,0.3c-0.5,0-1.1,0-1.6,0.2c-2.7,0.8-5.4,1-8.2,0.5c-1.3-0.2-2.6-0.2-3.9,0.2c-1.1,0.4-2.2,0.4-3.3,0.3
c-0.9-0.1-1.8-0.2-2.7-0.3c-0.4,0-0.9,0-1.3,0c-1.1,0-2.2,0.1-3.3,0c-0.8-0.1-1.7-0.4-2.5-0.5c-2.3-0.2-4.7-0.4-7-0.5
c-0.2,0-0.4,0.2-0.8,0.5c0.7,0.2,1.1,0.3,1.3,0.3c1.1,0,2.2,0,3.3,0c1.5,0.1,3.1,0,4.5,0.5c1.7,0.7,3.3,0.9,4.9,0.3
c1.9,0.3,3.7,0.8,5.5,0.4c2.4-0.5,4.9-0.9,7.3,0.2c0.1,0,0.2,0.1,0.4,0.1c1.6-0.1,3.2-0.2,4.8-0.4c0.8-0.1,1.7-0.2,2.5,0
c0.6,0.2,1.3,0,2.1-0.1c0.8-0.2,1.7-0.3,2.5-0.2c1.2,0.2,2.3,0.1,3.5-0.2c0.4-0.1,0.8-0.2,1.3-0.2c1.1,0.1,2.2,0.4,3.1,0.7
c0.4,0.1,0.8,0.2,1.2,1.1C63.6,105,63.4,99.7,63.4,100.3"/>
<g>
<polygon class="st1" points="63.9,62 37.3,61.4 37.5,71.7 36.8,110.5 36.1,126 33.8,131 36.8,131.3 63.2,125.6 63.3,93.5   "/>
<g>
  <path class="st2" d="M168,116.9c-0.6-7.3-1.2-14.5-0.5-21.9c0.6-6.7,0.8-13.4,1.1-20.1c0.1-3,0-6,0-9l-1-0.7
    c-3.5,2.2-7.2,3.6-10.4,6.3c-0.4,0.3-0.8,0.8-1,1.2c-1,2.3-2.9,2.4-5,2.5c-5.6,0.2-11.3,0.3-16.7,0.6c-5.4,0.3-10.8,0.5-16.4,0.6
    c-4.1,0.1-8.3-0.3-12.4,0.7c-0.9,0.1-1.8,0.2-2.7,0.2c-5.9,0.2-11.8,0.2-17.7,0.3c-0.6,0.1-1.2,0-1.8-0.1c-0.3-0.2-0.7-0.6-0.7-1
    s0.3-0.8,0.7-0.9c2.1-0.3,4.2-0.5,6.3-0.6c6.4,0.1,12.8,0.7,19.3-0.7c0.7-0.1,1.2-0.1,1.9-0.1c6.8-0.1,13.4-0.2,20.1-0.4
    c6.3-0.1,12.7-0.6,19-0.9c1.2-0.1,2.5,0,4,0c0.7-2,2-3.6,3.9-4.7c1.8-1.2,3.8-2.3,5.7-3.5l-0.1-0.6c-2,0-4.1-0.2-6.2-0.1
    c-4.2,0.1-8.5,0.3-12.7,0.3c-8.5-0.2-17.1-0.3-25.7-1c-6.7-0.5-13.5-1.5-20.4-0.6c-2.2,0.3-4.4,0.4-6.6,0.5
    c-6.1,0.3-12.1,0.4-18,0.7c-1.9,0.1-3.9,0.4-6.2,0.7c1,1,1.5,1.8,2.2,2.5c1.1,1.1,2.3,2.2,3.4,3.3l4.5,4.2
    c0.1,0.1,0.1,0.1,0.2,0.2s0.2,0.2,0.3,0.3c2.4,0.1,2.2,2,2.2,3.7c0,3.3-0.3,6.5-0.3,9.8c-0.1,2.7-0.1,5.4,0,8.2
    c-0.1,2.3,0.1,4.6,0.4,6.9c0.6,3.1,0.3,6.4-0.8,9.4c-1.6-1.2-1.7-2-1.3-4c0.5-1.4,0.6-3,0.5-4.4c-0.8-3.9-1-7.9-0.4-11.8v-0.8
    c0-3.3,0.2-7.4,0.1-9.8c-0.1-1.7,0.1-3.6-0.4-5c-1.7-4.1-5.4-5.8-5.6-6l-9-8c-0.1,0-0.3,0-0.4,0c-0.1,0.7-0.2,1.4-0.2,2.1
    c0.2,0.1,0.4,0.2,0.6,0.4c0.9,19,0.5,38.2,0.5,57.3c2-1.1,4-2.4,6.3-3.4s4.9-1.6,7.3-2.5l-0.8-1.9l5.8-0.7c0.1,0,0.2,0,0.2,0.1
    c0.9,1.1,2.1,0.7,3.2,0.7c7.3,0.1,14.5,0.1,21.8,0c11,0,21.9-0.1,32.9-0.1c5,0.1,10,0.3,15.2,0.5c-0.2,1.8,1,2.6,2.2,3.5
    c1.8,1.2,3.4,2.5,5.2,3.7c1.2,0.8,2.4,1.6,4.1,2.6c0.2-1.2,0.5-2.4,0.6-3.8C168.3,120.4,168.1,118.6,168,116.9z"/>
  <path d="M58.4,127.6c-3.1,0.7-6.1,1.5-9.2,2.2c-1.2,0.3-2.3,0.6-3.5,0.7c-3.1,0.1-6.1,0.9-8.8,2.4c-1.2,0.6-2.7,0.4-3.8-0.4
    c-0.3-0.2-0.5-0.7-0.5-1.1c1-1.4,0-3.5,1.8-4.7c0.2-0.2,0.3-0.5,0.3-0.9c0-1,0-2,0-2.9c-0.1-4.5,0.8-9,1.3-13.4
    c0.1-1.9,0.2-3.6,0-5.5c0-0.8-0.3-1.6-0.2-2.3c0.4-7.9,0.8-15.7,1.2-23.6c0.2-4.1,0.2-8.3,0.3-12.4c0.1-1.3-0.5-2.7-1.8-3.2
    c-0.4-0.3-0.8-0.8-1.1-1.2c1.7-0.9,3-2.2,4.9-0.7c0.7,0.3,1.5,0.5,2.3,0.4c1.9,0,3.7-0.2,5.5-0.2c4.2,0,8.4,0.1,12.7,0
    c0.8-0.1,1.7-0.2,2.4-0.5c0.1-2.4-0.3-5-1-7.3c-0.4-1.3-0.4-2.8-0.7-4.1c-0.8-3.3-1.9-6.6-2.8-9.9c-0.4-1.6-0.6-3.1-0.7-4.7
    c-0.1-1.2,0.8-2.1,1.8-1.5c3.8,2,8,1.1,12,1.2c7.3,0.3,14.7,0.2,22,0.1c7.3,0,14.5-0.4,21.7-0.4c7.5-0.1,15,0.1,22.6-0.1
    c8,0,15.8-0.4,23.8-0.4c3.5,0,7.1,0.5,10.5,0.7c0.8,0,1.6-0.1,2.2-0.4c1.7-0.4,3.4,1,2.7,2.5c-1.2,2.3-0.5,4.6-1.1,7
    c-0.9,3.5-1.6,7.2-2.8,10.7c-0.8,2.9-1.4,5.7-1.8,8.6c3.4-0.2,6.8-0.3,10-0.4c1.2,0,2.4,0,3.8-0.1c1.6-0.2,3.2,0.4,4.3-1.3
    c0.2-0.2,0.4-0.3,0.7-0.3c2-0.1,4-0.3,6-0.4c1.1-0.1,2.1-0.1,2.6-1.4c0.2-0.4,0.8-0.8,1.3-0.8c0.6,0.2,0.9,0.7,1,1.2
    c0.5,2.9,0.6,5.8,0.2,8.6c-0.7,4.9-1.3,9.8-1.8,14.7c-0.4,3.3-0.5,6.6-1.1,9.9c-0.6,3.9-0.2,7.7-0.1,11.6c0.1,2.3,0.1,4.8-0.2,7.2
    c-0.6,6.1-1.6,12-2.3,18.1c0,1.1,0.1,2.3,0.3,3.4c0.4,2.4-0.1,3.2-2.6,2.6c-2.9-0.7-5.7-1.7-8.4-3c-2.6-1.2-5.7-1.7-8.6-2.5
    c-1.7-0.5-3.3-0.7-5.5-1.3c1,1.7,2.4,3,4.2,3.9c3.3,2.3,6.8,4.2,9.9,6.6c2.7,2.1,5.7,3.9,8.8,5.4c1.8,0.8,3.3,2,4.5,3.5
    c-0.1,1.2-1.1,2.1-2.3,2.2c-2.6,0.5-5.1,0.8-7.6,1c-10,0.2-19.9,0.4-30,0.4c-6.6-0.1-13.3-0.6-19.9-0.8c-7-0.2-13.9-0.4-20.9-0.5
    c-3.4,0-6.9-0.3-10.4-0.2c-6-0.1-11.8,0.1-17.7,0c-5.3,0-10.6,0-15.9,0c-4.6,0.1-9.4,0.2-14.1,0.3c-4,0.1-8.1,0.1-12.2-0.1
    c-1.7-0.2-3.2-0.6-4.9-1.1c-0.8-0.1-1.8-0.4-1.6-1.2s0.6-2.3,1.1-2.4c3.7-1.1,5.6-4.1,8-6.5c3.4-3.4,6.5-6.9,9.7-10.4L58.4,127.6z
     M168.3,65.7l-0.7-0.5c-3.5,2.2-7.2,3.6-10.4,6.3c-0.4,0.3-0.8,0.8-1,1.2c-1,2.3-2.9,2.4-5,2.5c-5.5,0.2-11.1,0.4-16.7,0.6
    c-5.6,0.2-11,0.5-16.4,0.6c-4.2,0.1-8.3-0.4-12.4,0.7c-0.9,0.2-1.8,0.2-2.7,0.2c-5.9,0.2-11.8,0.2-17.7,0.3
    c-0.7,0.1-1.2,0-1.8-0.1c-0.3-0.2-0.7-0.6-0.7-1c0.1-0.4,0.3-0.8,0.7-0.9c2.1-0.3,4.2-0.5,6.3-0.6c6.4,0.1,12.9,0.7,19.3-0.7
    c0.7-0.1,1.2-0.1,1.9-0.1c6.8-0.1,13.4-0.2,20.1-0.4c6.4-0.3,12.7-0.6,19-0.9c1.2-0.1,2.5,0,4,0c0.7-2,2-3.6,3.9-4.7
    c1.9-1.2,3.8-2.3,5.7-3.5l-0.1-0.6c-2.1,0-4.2,0-6.2-0.1c-4.2,0.1-8.5,0.5-12.7,0.3c-8.6-0.2-17.1-0.3-25.7-1
    c-6.7-0.5-13.5-1.5-20.4-0.6c-2.2,0.3-4.4,0.4-6.6,0.5c-6,0.3-12.1,0.4-18,0.7c-1.9,0.1-3.8,0.4-6.2,0.7c1,1.1,1.5,1.8,2.2,2.5
    c2.7,2.6,5.4,5.2,8.1,7.6c0.1,0.1,0.2,0.3,0.3,0.3c2.4,0.2,2.3,2,2.2,3.7c0,3.3-0.3,6.5-0.3,9.8c0,2.8,0,5.5,0,8.2
    c0,2.3,0.1,4.5,0.4,6.9c0.5,3.1,0.3,6.4-0.8,9.4c-1.6-1.3-1.7-2.1-1.3-4c0.5-1.4,0.6-3,0.5-4.4c-0.8-3.9-1-7.9-0.4-11.8
    c0-0.2,0-0.6,0-0.8c0-3.3-0.1-6.5,0.1-9.8c0.3-3.5-0.6-6.4-3.6-8.6c-0.9-0.7-1.8-1.5-2.5-2.4l-9-8c-1.3,0.1-2.4,0.5-3.3,0.1
    c-2.3-0.9-4.5-0.5-6.7-0.4C52.5,63,51.3,63,50,63c-3.7,0-7.3-0.1-11.1-0.1c0,1.8,0,3.2-0.1,4.8c-0.3,6-0.6,11.9-0.8,18
    c-0.2,4.2-0.1,8.5-0.1,12.7c0,2.8-0.1,5.6-0.1,8.4c0,2.3-0.3,4.5-0.5,6.9c0,0.6-0.2,1-0.2,1.5c0,3.4-0.2,6.9-0.1,10.3
    c0,1.4,0.1,2.9-1.7,3.7c1,0.2,2.1,0.2,3.2,0c1.4-0.2,2.9-0.9,4.3-0.9c5.5-0.5,11-2.1,16.4-3.1c1.3-0.1,2.3-1.1,2.4-2.4
    c0.2-2.2,0.8-4.4,0.9-6.5c0.1-6.1-0.1-12.2,0-18.3c0.1-10.4,0.2-20.7,0.4-31c0-0.6,0.1-1.1,0.2-1.7c0.2,0.1,0.4,0.2,0.7,0.5
    c0.9,19.2,0.4,38.2,0.5,57.3c2-1.1,4-2.4,6.3-3.4s4.9-1.6,7.3-2.5l-0.8-1.9l5.8-0.7c0.1,0,0.1,0.1,0.2,0.1
    c0.9,1.1,2.1,0.7,3.2,0.7c7.3,0.1,14.5,0.1,21.8,0c11,0,21.9-0.2,32.9-0.1c5,0.1,10,0.3,15.2,0.5c-0.2,1.8,1,2.7,2.2,3.5
    c1.8,1.2,3.4,2.5,5.2,3.7c1.2,0.8,2.4,1.6,4.1,2.6c0.2-1.2,0.5-2.5,0.6-3.8c0-1.8-0.2-3.5-0.3-5.3c-0.6-7.3-1.2-14.6-0.5-21.9
    c0.6-6.6,0.8-13.4,1.1-20.1C168.4,71.7,168.2,68.7,168.3,65.7L168.3,65.7z M167.8,62.1c0.2-0.4,0.3-0.8,0.5-1.2
    c1-5.5,2.8-10.9,4.4-16.3c1-2.8,1-5.7,0-8.5c-1.3-0.1-2.7-0.3-3.9-0.4c-4.3-0.3-8.6-0.7-12.9-0.7c-6.5-0.1-13.1,0.1-19.6,0.1
    c-2.7,0-5.3-0.1-8-0.1c-8,0.1-15.9,0.1-23.8,0.4c-2.8,0.1-5.6,0.6-8.4,0.6c-5.2-0.1-10.4-0.2-15.6-0.4c-7-0.1-13.9-0.2-21.1-0.2
    c0.3,1.3,0.5,2.4,0.8,3.6c0.3,1.2,0.6,2.6,1,3.8c0.3,1.2,0.6,2.8,0.9,4.1c0.2,0.8,0.4,1.6,0.6,2.3c0.5,3,1,6.1,1.6,9.1
    c0.1,0.4,0.2,0.9,0.4,1.2c0.5,1,1.2,1.5,2.3,0.5l-0.1,1.5c0.2,0.1,0.4,0.2,0.8,0.2c3.1,0,6.2,0.1,9.3,0c7.6-0.2,15.2-0.6,22.8-0.8
    c3.5-0.1,7.1-0.4,10.6-0.1c7.2,0.3,14.3,1.1,21.4,1.4c9,0.3,18,0.9,27,0.1C161.4,61.9,164.5,62.1,167.8,62.1L167.8,62.1z
     M46.8,147.5c0.8,0.2,1.4,0.3,2.2,0.4c6.3,0.1,12.6,0.1,18.8,0.1c12.8-0.1,25.7,0,38.5-0.1c2.5,0,5.1-0.1,7.7,0.1
    c8.4,0.2,16.8,0.5,25.2,0.8c5.9,0.2,11.6,0.4,17.5,0.4c5.9,0.1,11.4-0.4,17.2-0.1c5.9,0.2,11.8,0,17.7-0.7
    c0.7-0.1,1.2-0.3,1.9-0.5c-0.3-0.4-0.8-0.8-1.2-1.1c-4.9-2.6-9.1-6.3-13.6-9.6l-0.2-0.2c-2.9-1.8-5.7-3.6-8.5-5.5
    c-1.8-1.1-3.9-1.8-6-1.7c-2.9,0-5.9,0.3-8.7,0.5c-6.5,0.3-13.1,0.8-19.6,0.7c-15.8-0.4-31.6-1.1-47.4-1.7
    c-5.1-0.2-10.2-1.4-15.3,0.3c-0.2,0-0.3,0-0.6,0c-2.2-0.2-4.5-0.7-6.7-0.9c-2.5-0.3-4.9,0.2-6.6,2.2c-1.2,1.5-2.8,3-4.1,4.5
    c-2.8,3.2-5.5,6.4-8.5,10c3.2-0.2,6.4,0.3,9.5,1.4C52.6,148.1,49.7,145.8,46.8,147.5z M170.1,126.1c1.8,0.6,3.9,1.4,6.1,2
    c4.1,1.2,8.3,1.6,12.1,3.5c1.2,0.7,2.8,0.6,3.9-0.1c0.2-1.1,0.6-2.3,0.7-3.5c0.8-6.1,1.6-12,2.4-18.1c0-0.3,0-0.8,0-1.1
    c0.1-5.6-0.5-11.3,0.2-16.9c0.4-3.3,0.6-6.6,1-10.1c0.4-4,0.9-7.8,1.2-11.8c0.3-2.8,1.3-5.5-0.1-8.6l-2.2,1.1
    c-0.4,0.3-1.1,0.5-1.7,0.6c-2.4-0.6-4.5,0.7-7,0.7c-3.5,0-7,0.5-10.5,0.4c-2.2-0.1-4.3,0.4-6.2,1.5c0,0.8-0.1,1.4-0.1,2
    c-0.3,8.3-0.6,16.6-1.1,24.9c-0.4,5.9-0.4,11.6,0,17.5C169.3,115.1,169.7,120.3,170.1,126.1L170.1,126.1z M64.5,125.4l0.2,0.8
    c2.7,0.3,5.2,0.5,7.8,0.6c7,0.2,13.9,0.2,20.9,0.5c8.6,0.3,17.1,1,25.7,1.2c10.3,0.2,20.5,0.7,30.8,0c5.1-0.3,10.3-0.3,15.8-1.1
    c-0.9-0.7-1.3-1.1-1.9-1.5c-1.9-1.2-3.6-2.6-5.3-3.9c-2.5-2.6-5.9-3.9-9.5-4c-8.1-0.1-16-0.2-24.1-0.3c-3.5,0-7.1,0.2-10.6,0.2
    c-5.8,0-11.5,0-17.3-0.1c-1.1,0-2.1,0-3.2,0c-3.9,0-7.7-0.2-11.6-0.2c-1.1,0-2.2,0.2-3.3,0.6c-3,1.2-6.1,2.4-9,3.9
    C68.1,122.9,66.2,124.1,64.5,125.4L64.5,125.4z"/>
  <path class="st1" d="M168.2,62.2c-3.2,0-6.3-0.3-9.4-0.1c-9,0.8-18,0.2-27-0.1c-7.2-0.3-14.3-1.1-21.4-1.4
    c-3.5-0.2-7.1,0-10.6,0.1c-7.6,0.2-15.2,0.6-22.8,0.8c-3.1,0.1-6.2,0-9.3,0c-0.2,0-0.6-0.1-0.8-0.2l0.1-1.5
    c-1.1,1-1.8,0.5-2.3-0.5c-0.2-0.3-0.3-0.8-0.4-1.2c-0.5-3-1-6.1-1.6-9.1c-0.1-0.8-0.4-1.6-0.6-2.3c-0.3-1.3-0.6-2.8-0.9-4.1
    c-0.3-1.3-0.6-2.6-1-3.8c-0.2-1.1-0.5-2.1-0.8-3.6c7.3,0.1,14.3,0.2,21.1,0.2c5.2,0.1,10.4,0.3,15.6,0.4c2.8,0,5.6-0.5,8.4-0.6
    c8-0.1,15.9-0.3,23.8-0.4c2.7-0.1,5.3,0.1,8,0.1c6.5,0,13.1-0.2,19.6-0.1c4.3,0.1,8.6,0.4,12.9,0.7c1.3,0.1,2.7,0.3,3.9,0.4
    c1,2.8,1,5.8,0,8.5c-1.6,5.4-3.4,10.7-4.4,16.3C168.6,61.4,168.4,61.8,168.2,62.2z"/>
  <path class="st1" d="M46.8,147.5c2.9-1.6,5.7,0.5,9.2-0.9c-3-1.1-6.3-1.7-9.5-1.4c3-3.6,5.7-6.8,8.5-10c1.3-1.5,2.9-2.8,4.1-4.5
    c1.8-2.2,4.1-2.5,6.6-2.2c2.3,0.2,4.5,0.6,6.7,0.9c0.2,0,0.3,0,0.6,0c5.1-1.7,10.2-0.4,15.3-0.3c15.8,0.4,31.6,1.3,47.4,1.7
    c6.5,0.2,13.1-0.4,19.6-0.7c2.9-0.1,5.9-0.5,8.7-0.5c2.1,0,4.2,0.6,6,1.7c2.7,1.9,5.6,3.7,8.5,5.5l0.2,0.1c4.5,3.3,8.7,7,13.6,9.6
    c0.4,0.3,0.8,0.7,1.2,1.1c-0.6,0.2-1.2,0.4-1.9,0.5c-5.9,0.6-11.8,0.9-17.7,0.7c-5.8-0.2-11.5,0.2-17.3,0.1
    c-5.8-0.1-11.6-0.2-17.5-0.4c-8.4-0.2-16.8-0.5-25.2-0.8c-2.5,0-5.1-0.1-7.7-0.1c-12.8,0.1-25.7,0-38.5,0.1
    c-6.3,0-12.6,0-18.8-0.1C48.2,147.8,47.6,147.7,46.8,147.5z M165,137.2c2.2,0,3.7-0.6,4-1.8c0.1-1.4-0.4-2.8-1.4-3.8
    c-1.2-0.9-3-1-4.3-0.3c0.6,2,4.3,0.8,4,4L165,137.2z M184.9,146.8l2.9,1.4c-0.1-0.7-0.3-1.4-0.6-2
    C186.5,145.6,185.7,145.6,184.9,146.8L184.9,146.8z M65.4,146.5c1,1.1,1.5,1,2.8,0.1L65.4,146.5z"/>
  <path class="st1" d="M170.1,126.1c-0.5-5.9-0.8-11.1-1.2-16.3c-0.4-5.8-0.4-11.6,0-17.5c0.4-8.3,0.7-16.6,1.1-24.9
    c0-0.7,0.1-1.2,0.1-2c1.9-1.1,4-1.6,6.2-1.5c3.5,0,7-0.5,10.5-0.4c2.3,0,4.6-1.3,7-0.7c0.6-0.1,1.2-0.3,1.7-0.6l2.2-1.1
    c1.4,3.1,0.5,5.9,0.1,8.6c-0.4,4-0.9,7.8-1.2,11.8c-0.4,3.3-0.5,6.6-1,10.1c-0.6,5.6-0.1,11.3-0.2,16.9c0,0.3,0,0.8,0,1.1
    c-0.7,6.1-1.6,12-2.4,18.1c-0.1,1.2-0.5,2.4-0.7,3.5c-1.2,0.6-2.7,0.7-3.9,0.1c-3.8-1.9-8.2-2.4-12.1-3.5
    C174.1,127.5,171.9,126.7,170.1,126.1z"/>
  <path class="st2" d="M63.6,125.8c1.8-1.5,3.8-2.8,5.7-3.9c2.9-1.6,6.1-3,9.1-4.4c1.1-0.4,2.2-0.7,3.4-0.7c4,0,7.8,0.1,11.8,0.2
    c1.1,0,2.1,0,3.2,0c5.9,0.1,11.7,0,17.6,0.1c3.6,0,7.2-0.2,10.8-0.2c8.2,0.1,16.2,0.2,24.5,0.3c3.6,0,7.1,1.6,9.6,4.5
    c1.6,1.7,3.5,3.1,5.4,4.4c0.5,0.4,1.1,0.9,1.9,1.7c-5.6,0.9-10.9,1-16,1.2c-10.5,0.8-20.8,0.2-31.3,0c-8.7-0.2-17.4-1-26.1-1.3
    c-7.1-0.2-14.1-0.3-21.2-0.6c-2.7,0-5.3-0.4-7.9-0.7L63.6,125.8z"/>
  <path d="M154.9,113.7c-0.9-1.2-1.1-2.9-0.6-4.3c0.9-3.6,1.2-7.5,0.7-11.3c-0.3-2.9-0.7-5.8-0.8-8.6c-0.2-3.4-0.1-6.9-0.1-10.3
    c0-1.1,0.2-2.1,0.8-3.1c0.1,0.4,0.2,0.9,0.2,1.2c0.1,5.1,0.1,10.2,0.3,15.4c0.1,2,0.3,3.9,0.6,5.8c0.4,3.1,0.4,6.2-0.1,9.2
    c-0.2,1.8-0.3,3.5-0.4,5.2C155.2,113.1,155.1,113.4,154.9,113.7z"/>
  <path d="M68.3,86.2c-0.3,0.2-0.6,0.5-1,0.7c-0.2-0.2-0.4-0.4-0.5-0.7c0.2-0.1,0.4-0.2,0.7-0.3C67.8,86,68.1,86,68.3,86.2z"/>
  <path d="M165,137.2l2.5-1.9c0.3-3.1-3.4-1.9-4-4c1.3-0.8,3-0.7,4.3,0.3c1,1,1.5,2.5,1.4,3.8C168.6,136.5,167.2,137.3,165,137.2z"
    />
  <path d="M184.8,146.8c0.9-1.2,1.7-1.2,2.2-0.6c0.3,0.7,0.5,1.3,0.6,2L184.8,146.8z"/>
  <path d="M65.4,146.5l2.8,0.1C66.9,147.5,66.4,147.6,65.4,146.5z"/>
</g>
</g>
    </g>
  </defs>
</svg>
