<svg version="1.1"
   xmlns="http://www.w3.org/2000/svg" xmlns:xlink="http://www.w3.org/1999/xlink" x="0px" y="0px" viewBox="0 0 236 180.8"
   style="enable-background:new 0 0 236 180.8;display:none;" xml:space="preserve">
<style type="text/css">
  .st0{fill:#1D1D1B;}
  .st1{fill:#FFFFFF;}
  .st2{opacity:0.35;enable-background:new;}
</style>
  <defs>
    <g id="59">
    <polygon style="fill:#FFFFFF;" points="170.196,49.621 176.071,74.746 64.446,71.621 68.946,47.246  "/>
    <g>
      <path d="M158.706,127.665c-1.086,2.231-0.041,4.605-0.714,6.957c-0.345-1.502-0.689-3.004-1.055-4.595
        c-0.95-0.334-2.015,0.529-2.971-0.472c-0.498-0.522-1.684-0.458-2.57-0.525c-3.747-0.282-7.496-0.68-11.248-0.732
        c-9.405-0.132-18.813,0.001-28.217-0.167c-7.243-0.13-14.48-0.553-21.72-0.852c-2.681-0.111-5.361-0.265-8.043-0.345
        c-0.606-0.018-1.218,0.19-1.832,0.295c-0.268,0.886-0.511,1.691-0.771,2.553c-1.927-0.422-0.479-1.927-1.313-2.857
        c-1.188-0.242-2.611-0.532-4.034-0.821c0.017-0.167,0.033-0.335,0.05-0.502c1.458,0,2.916,0,4.625,0
        c-0.348-6.359-0.889-12.442-1.866-18.657c-3.894-1.306-7.288-3.976-11.673-3.038c-0.991-0.57-1.981-1.112-2.94-1.704
        c-0.443-0.273-0.917-0.575-1.223-0.98c-4.31-5.706-8.584-11.441-12.888-17.152c-2.632-3.493-5.257-6.994-7.985-10.411
        c-0.695-0.871-1.772-1.437-2.895-2.318c0.062-0.994-1.454-2.228,0.125-3.833c0.7,0.756,1.324,1.451,1.97,2.125
        c2.348,2.446,4.65,4.905,7.501,6.845c4.65,3.164,9.14,6.563,13.973,10.063c0.555-2.835,0.316-5.476,0.492-8.083
        c0.179-2.649,0.49-5.289,0.747-7.98c1.028-0.19,1.8-0.332,2.874-0.53c1.363-7.873,3.273-15.781,3.095-23.997
        c2.394,0.264,4.579,0.593,6.776,0.731c5.261,0.331,10.526,0.61,15.793,0.826c1.331,0.055,2.679-0.345,4.011-0.298
        c5.807,0.204,11.611,0.51,17.418,0.747c1.517,0.062,3.039,0.018,4.559,0.012c2.946-0.012,5.892,0.005,8.837-0.059
        c2.324-0.05,4.648-0.327,6.968-0.289c7.873,0.132,15.745,0.336,23.616,0.565c2.403,0.07,4.801,0.323,7.203,0.459
        c0.802,0.045,1.611,0.021,2.414-0.031c1.74-0.114,3.477-0.268,5.251-0.408c0.577,1.361,1.052,2.482,1.542,3.64
        c-0.982,3.442,0.351,6.709,0.868,10.037c0.356,2.291,0.962,4.543,1.417,6.821c0.146,0.731,0.164,1.487-0.058,2.285
        c-2.927-6.399-3.031-13.579-5.448-19.967c-7.749-0.962-15.225-1.306-22.727-1.312c-3.213-0.003-6.424-0.342-9.638-0.39
        c-2.679-0.04-5.361,0.107-8.041,0.201c-1.25,0.043-2.498,0.21-3.748,0.225c-3.222,0.038-6.447,0.101-9.666,0.008
        c-3.663-0.106-7.32-0.463-10.983-0.542c-4.267-0.092-8.54,0.091-12.807-0.014c-5.002-0.122-10-0.424-14.999-0.649
        c-1.865-0.084-3.729-0.171-5.601-0.257c-1.51,2.209-0.84,4.797-1.797,7.048c-0.925,2.175-1.066,4.688-1.511,7.061
        c-0.46,2.455-0.872,4.92-1.369,7.744c1.155,0.005,2.336,0.054,3.513,0.008c3.567-0.139,7.132-0.405,10.7-0.452
        c4.385-0.058,8.778-0.057,13.158,0.13c3.654,0.156,7.291,0.691,10.945,0.918c2.571,0.16,5.164,0.219,7.734,0.08
        c3.33-0.18,6.6,0.154,9.877,0.62c1.236,0.175,2.484,0.278,3.73,0.369c6.595,0.482,13.202,0.836,19.784,1.45
        c9.107,0.849,18.208,0.937,27.326,0.469c0.335-0.533,0.605-0.964,0.914-1.457c1.024,0.453,2.022,0.894,3.236,1.431
        c0.919,5.556,1.875,11.329,2.886,17.438c1.916-1.222,3.51-2.188,5.051-3.232c5.918-4.008,12.055-7.723,17.072-12.937
        c0.669-0.695,1.689-1.341,3.232-0.612c-1.111,1.575-2.106,3.069-3.185,4.5c-3.339,4.428-7.015,8.564-10.934,12.487
        c-1.954,1.956-3.815,4.011-5.838,5.891c-1.618,1.504-2.927,3.135-3.342,5.232c-1.682,1.175-3.435,1.491-5.329,1.703
        c-3.543,0.397-7.048,1.131-10.567,1.733c-1.494,0.256-2.991,0.496-4.473,0.809c-1.724,0.364-3.432,0.801-5.236,1.227
        c-0.531,3.41-0.236,6.621-0.036,9.808c0.168,2.671,0.647,5.322,0.947,7.987c0.094,0.836,0.189,1.613,1.092,1.974L158.706,127.665z
         M175.527,75.992c-1.483-0.098-2.791-0.266-4.096-0.246c-1.246,0.02-2.493,0.374-3.734,0.342
        c-6.074-0.155-12.148-0.358-18.219-0.615c-2.319-0.098-4.631-0.37-6.944-0.589c-3.105-0.294-6.201-0.704-9.311-0.898
        c-4.19-0.261-8.42-0.112-12.577-0.606c-3.931-0.467-7.833-0.463-11.76-0.432c-1.695,0.014-3.398-0.083-5.086-0.25
        c-2.395-0.237-4.778-0.829-7.169-0.845c-11.227-0.076-22.463-0.209-33.722,1.119c0,6.539-0.04,13.041,0.029,19.542
        c0.017,1.593,0.25,3.217,0.631,4.766c0.661,2.685,2.49,3.998,5.239,4.067c1.784,0.045,3.569,0.089,5.348,0.209
        c3.289,0.222,6.574,0.68,9.863,0.71c4.647,0.042,9.296-0.274,13.945-0.325c3.129-0.034,6.26,0.119,9.39,0.201
        c1.601,0.042,3.211,0.25,4.801,0.14c3.825-0.264,7.637-0.7,11.459-1.013c8.997-0.737,17.991-1.516,27.03-1.545
        c4.92-0.016,9.839-0.111,14.758-0.18c3.663-0.051,7.326-0.121,10.988-0.174c1.103-0.016,2.206-0.002,3.44-0.002
        C178.842,91.393,177.788,83.83,175.527,75.992z M80.345,125.486c0.664,0.153,1.003,0.292,1.346,0.303
        c9.028,0.29,18.054,0.661,27.084,0.825c15.03,0.272,30.078-0.41,45.09,0.896c0.831,0.072,1.689-0.176,2.712-0.296
        c-0.101-1.07-0.156-1.855-0.253-2.635c-0.275-2.216-0.613-4.425-0.838-6.646c-0.244-2.399-0.385-4.809-0.578-7.214
        c-0.203-2.533-1.276-3.459-3.85-3.319c-0.446,0.024-0.888,0.11-1.333,0.141c-3.914,0.272-7.827,0.542-11.742,0.798
        c-0.353,0.023-0.712-0.064-1.069-0.094c-1.954-0.16-3.907-0.364-5.864-0.463c-1.786-0.09-3.595,0.085-5.364-0.118
        c-4.293-0.494-8.564-0.558-12.854,0c-1.053,0.137-2.14,0.026-3.211,0.002c-2.68-0.059-5.36-0.217-8.038-0.181
        c-3.4,0.045-6.798,0.224-10.196,0.38c-3.214,0.148-6.427,0.322-9.637,0.53c-0.603,0.039-1.192,0.293-2.091,0.526
        C79.17,114.431,79.658,119.877,80.345,125.486z M177.444,102.217c-0.015-0.273-0.029-0.546-0.044-0.819
        c-2.916-0.169-5.833-0.49-8.748-0.473c-5.361,0.031-10.722,0.42-16.08,0.371c-7.707-0.07-15.356,0.733-23.028,1.192
        c-4.106,0.245-8.211,0.546-12.303,0.958c-4.815,0.485-9.614,0.914-14.44,0.14c-0.876-0.14-1.787-0.082-2.681-0.081
        c-7.063,0.009-14.127,0.054-21.19,0.023c-2.11-0.009-4.219-0.222-6.451-0.348c2.056,1.343,4.507,2.018,6.789,2.088
        c1.397,0.487,2.811,0.947,4.258,1.105c1.226,0.134,2.49-0.098,3.739-0.135c6.346-0.188,12.696-0.584,19.036-0.464
        c3.666,0.069,7.312,0.225,10.966-0.13c0.355-0.035,0.716-0.008,1.074-0.023c4.454-0.179,8.896,0.988,13.359,0.129
        c0.341-0.066,0.713,0.034,1.071,0.046c4.374,0.143,8.747,0.302,13.122,0.406c0.791,0.019,1.585-0.215,2.381-0.295
        c2.749-0.276,5.531-0.907,8.238-0.676c1.907,0.162,3.704,0.018,5.534-0.205c2.21-0.269,4.414-0.622,6.603-1.029
        C171.589,103.448,174.513,102.814,177.444,102.217z M60.923,97.859c0.204-0.064,0.408-0.129,0.612-0.193
        c-0.118-2.13-0.417-4.27-0.297-6.386c0.098-1.72-0.436-2.953-1.692-3.977c-0.969-0.789-1.938-1.583-2.954-2.309
        c-2.543-1.815-5.108-3.599-7.675-5.38c-0.366-0.254-0.795-0.417-1.706-0.885C51.598,85.761,55.953,92.034,60.923,97.859z
         M181.479,98.391c4.971-4.126,15.311-15.124,16.125-17.041c-5.597,3.612-11.208,7.232-17.037,10.994
        C180.843,94.171,181.132,96.09,181.479,98.391z"/>
      <path d="M158.738,127.718c0.815-0.726,1.64-0.708,2.737-0.086c-1.102,0.934-1.936,0.57-2.768,0.033L158.738,127.718z"/>
      <path style="fill:#FFFFFF;" d="M175.527,75.992c2.261,7.838,3.315,15.401,4.302,23.378c-1.234,0-2.337-0.013-3.44,0.002
        c-3.663,0.053-7.326,0.123-10.988,0.174c-4.919,0.069-9.839,0.164-14.758,0.18c-9.039,0.029-18.033,0.808-27.03,1.545
        c-3.822,0.313-7.634,0.749-11.459,1.013c-1.589,0.109-3.199-0.099-4.801-0.14c-3.13-0.082-6.261-0.235-9.39-0.201
        c-4.649,0.051-9.298,0.367-13.945,0.325c-3.289-0.03-6.573-0.488-9.863-0.71c-1.779-0.12-3.565-0.164-5.348-0.209
        c-2.749-0.069-4.578-1.382-5.239-4.067c-0.381-1.549-0.614-3.173-0.631-4.766c-0.069-6.501-0.029-13.004-0.029-19.542
        c11.26-1.328,22.495-1.195,33.722-1.119c2.391,0.016,4.774,0.608,7.169,0.845c1.688,0.167,3.391,0.264,5.086,0.25
        c3.928-0.032,7.83-0.035,11.76,0.432c4.157,0.494,8.387,0.345,12.577,0.606c3.11,0.194,6.207,0.604,9.311,0.898
        c2.313,0.219,4.625,0.491,6.944,0.589c6.071,0.257,12.145,0.459,18.219,0.615c1.241,0.032,2.488-0.323,3.734-0.342
        C172.737,75.726,174.045,75.895,175.527,75.992z"/>
      <path style="fill:#FFFFFF;" d="M80.345,125.486c-0.687-5.61-1.175-11.056-0.686-16.565c0.899-0.233,1.488-0.487,2.091-0.526
        c3.21-0.208,6.423-0.382,9.637-0.53c3.397-0.156,6.796-0.335,10.196-0.38c2.678-0.036,5.358,0.122,8.038,0.181
        c1.071,0.024,2.158,0.135,3.211-0.002c4.29-0.559,8.561-0.494,12.854,0c1.769,0.203,3.578,0.028,5.364,0.118
        c1.958,0.098,3.91,0.303,5.864,0.463c0.357,0.029,0.716,0.117,1.069,0.094c3.915-0.256,7.829-0.526,11.742-0.798
        c0.445-0.031,0.888-0.117,1.333-0.141c2.574-0.139,3.646,0.786,3.85,3.319c0.193,2.405,0.334,4.814,0.578,7.214
        c0.226,2.221,0.564,4.43,0.838,6.646c0.097,0.78,0.152,1.565,0.253,2.635c-1.022,0.12-1.881,0.368-2.712,0.296
        c-15.011-1.306-30.06-0.624-45.09-0.896c-9.03-0.163-18.057-0.535-27.084-0.825C81.348,125.778,81.009,125.64,80.345,125.486z"/>
      <path style="fill:#FFFFFF;" d="M60.923,97.859c-4.97-5.825-9.325-12.098-13.712-19.129c0.911,0.467,1.34,0.631,1.706,0.885
        c2.567,1.78,5.133,3.564,7.675,5.38c1.016,0.726,1.985,1.52,2.954,2.309c1.256,1.023,1.79,2.257,1.692,3.977
        c-0.121,2.116,0.179,4.256,0.297,6.386C61.331,97.73,61.127,97.795,60.923,97.859z"/>
      <path style="fill:#FFFFFF;" d="M181.479,98.391c-0.347-2.302-0.636-4.22-0.912-6.047c5.829-3.761,11.439-7.382,17.037-10.994
        C196.79,83.268,186.45,94.266,181.479,98.391z"/>
    </g>
    </g>
  </defs>
</svg>
