<svg version="1.1"
   xmlns="http://www.w3.org/2000/svg" xmlns:xlink="http://www.w3.org/1999/xlink" x="0px" y="0px" viewBox="0 0 236 180.8"
   style="enable-background:new 0 0 236 180.8;display:none;" xml:space="preserve">
<style type="text/css">
  .st0{fill:#1D1D1B;}
  .st1{fill:#FFFFFF;}
  .st2{opacity:0.35;enable-background:new;}
</style>
  <defs>
    <g id="69">
    <g>
    <path style="fill:#FFFFFF;" d="M172.775,89.535c-0.078-0.065-0.156-0.129-0.235-0.194c0.204-1.882,0.722-3.793,0.547-5.639
      c-0.35-3.694-0.388-7.459-0.923-11.064c-0.845-5.687,0.181-11.228,0.243-16.813c0.072-6.521,1.305-13.029,2.061-19.779
      c-1.197-1.134-2.766-1.812-4.657-1.732c-1.801,0.076-3.606,0.089-5.403,0.219c-4.651,0.335-9.349,0.015-13.944,1.173
      c-1.634,0.412-3.362,0.612-5.049,0.624c-3.32,0.024-6.641-0.161-9.962-0.239c-2.664-0.063-5.33-0.093-7.995-0.143
      c-2.944-0.056-5.89-0.095-8.833-0.184c-2.376-0.072-4.749-0.2-7.124-0.315c-1.893-0.091-3.784-0.241-5.677-0.291
      c-3.807-0.099-7.616-0.184-11.425-0.208c-4.282-0.027-8.57-0.118-12.845,0.069c-4.878,0.212-9.726,0.127-14.527-0.736
      c-1.392-0.25-2.61-0.248-4.126,0.571c0.093,1.735,0.073,3.609,0.314,5.449c0.654,5.002,1.516,9.973,0.957,15.063
      c-0.218,1.978-0.197,3.998-0.11,5.992c0.284,6.478,0.779,12.95,0.936,19.431c0.094,3.865-0.298,7.741-0.46,11.613
      c-0.171,4.085-0.284,8.173-0.506,12.255c-0.133,2.446-0.426,4.883-0.639,7.232c1.204,1.697,2.58,0.707,4.045,0.199
      c0.471,0.981,0.876,1.818,1.276,2.657c0.369,0.773,0.443,1.941,1.922,1.426c-0.122-1.248-0.237-2.421-0.35-3.572
      c1.92-0.404,3.565-0.903,5.243-1.061c1.689-0.159,3.422-0.096,5.114,0.08c3.024,0.316,6.021,0.923,9.049,1.16
      c3.027,0.236,6.17,0.665,9.1,0.126c5.546-1.021,11-0.575,16.504-0.109c2.174,0.184,4.356,0.29,6.536,0.386
      c2.094,0.092,4.19,0.15,6.286,0.177c1.802,0.023,3.635,0.187,5.399-0.08c2.698-0.409,5.342-0.278,7.907,0.454
      c3.098,0.884,6.179,0.852,9.346,0.649c6.737-0.433,13.483-1.006,20.237-0.321c0.126,2.571,0.126,2.571,2.191,2.351
      c0.176-0.773,0.359-1.577,0.546-2.398c1.173,0.366,2.216,0.692,3.319,1.036c0.878-1.59,0.628-2.961,0.3-4.362
      c-0.346-1.477-0.833-2.968-0.861-4.461c-0.048-2.622-0.647-5.035-1.598-7.467c-0.683-1.748-0.823-3.706-1.234-5.563
      C173.4,91.97,173.076,90.755,172.775,89.535z"/>
    <path d="M172.775,89.535c0.301,1.22,0.624,2.435,0.896,3.661c0.411,1.858,0.551,3.816,1.234,5.563
      c0.951,2.432,1.55,4.845,1.598,7.467c0.027,1.492,0.515,2.984,0.861,4.461c0.328,1.401,0.578,2.772-0.3,4.362
      c-1.103-0.344-2.146-0.67-3.319-1.036c-0.187,0.821-0.37,1.625-0.546,2.398c-2.065,0.22-2.065,0.22-2.191-2.351
      c-6.754-0.685-13.5-0.112-20.237,0.321c-3.167,0.204-6.248,0.236-9.346-0.649c-2.565-0.732-5.209-0.862-7.907-0.454
      c-1.764,0.267-3.597,0.104-5.399,0.08c-2.096-0.027-4.192-0.085-6.286-0.177c-2.18-0.096-4.362-0.202-6.536-0.386
      c-5.504-0.466-10.958-0.912-16.504,0.109c-2.93,0.539-6.073,0.11-9.1-0.126c-3.028-0.237-6.025-0.844-9.049-1.16
      c-1.692-0.177-3.425-0.239-5.114-0.08c-1.678,0.158-3.323,0.657-5.243,1.061c0.113,1.151,0.228,2.324,0.35,3.572
      c-1.479,0.515-1.554-0.653-1.922-1.426c-0.4-0.839-0.805-1.676-1.276-2.657c-1.465,0.508-2.842,1.498-4.045-0.199
      c0.213-2.35,0.506-4.787,0.639-7.232c0.222-4.082,0.336-8.17,0.506-12.255c0.162-3.872,0.554-7.748,0.46-11.613
      c-0.157-6.481-0.652-12.952-0.936-19.431c-0.087-1.993-0.108-4.013,0.11-5.992c0.56-5.09-0.302-10.061-0.957-15.063
      c-0.241-1.84-0.221-3.715-0.314-5.449c1.516-0.819,2.735-0.821,4.126-0.571c4.8,0.862,9.649,0.948,14.527,0.736
      c4.275-0.186,8.563-0.096,12.845-0.069c3.809,0.024,7.617,0.109,11.425,0.208c1.894,0.049,3.785,0.199,5.677,0.291
      c2.374,0.114,4.748,0.243,7.124,0.315c2.943,0.089,5.889,0.128,8.833,0.184c2.665,0.05,5.33,0.08,7.995,0.143
      c3.321,0.078,6.642,0.264,9.962,0.239c1.687-0.012,3.414-0.212,5.049-0.624c4.595-1.158,9.293-0.838,13.944-1.173
      c1.797-0.129,3.602-0.143,5.403-0.219c1.891-0.079,3.46,0.599,4.657,1.732c-0.756,6.75-1.989,13.258-2.061,19.779
      c-0.062,5.585-1.088,11.126-0.243,16.813c0.535,3.604,0.574,7.37,0.923,11.064c0.175,1.846-0.343,3.757-0.547,5.639
      C172.619,89.406,172.697,89.47,172.775,89.535z M171.941,37.391c-6.969-0.947-13.496-0.559-20.014,0.521
      c-2.243,0.372-4.57,1.042-6.757,0.767c-3.722-0.468-7.401-0.419-11.116-0.314c-2.18,0.062-4.368-0.13-6.552-0.185
      c-2.661-0.067-5.324-0.092-7.985-0.171c-2.946-0.087-5.89-0.202-8.834-0.334c-0.756-0.034-1.514-0.297-2.259-0.255
      c-5.624,0.312-11.238,0.117-16.853-0.226c-2.086-0.128-4.273-0.524-6.253-0.081c-4.294,0.96-8.539,0.392-12.804,0.226
      c-2.242-0.087-4.478-0.334-7.13-0.54c0.079,2.099,0.11,3.778,0.211,5.453c0.247,4.087,0.663,8.168,0.76,12.258
      c0.119,5.044-0.072,10.094-0.012,15.14c0.019,1.607,0.579,3.208,0.597,4.814c0.057,5.037-0.029,10.076-0.045,15.115
      c-0.001,0.17,0.155,0.34,0.257,0.547c1.174,1.042,2.644,0.806,4.057,0.82c3.521,0.035,7.117-0.381,10.546,0.198
      c4.81,0.812,9.607,0.569,14.569,0.757c-0.339,0.246-0.55,0.532-0.777,0.544c-3.421,0.185-6.846,0.506-10.265,0.444
      c-3.324-0.06-6.636-0.629-9.963-0.769c-2.76-0.116-5.43,0.582-8.14,1.312c-0.97,5.633-1.254,11.065-1.04,16.609
      c1.937-0.103,3.566-0.006,5.116-0.309c3.897-0.761,7.741-0.768,11.603,0.165c1.106,0.267,2.253,0.465,3.388,0.499
      c4.926,0.147,9.829,0.673,14.784-0.153c5.11-0.852,10.264-0.194,15.383,0.44c1.977,0.245,3.976,0.426,5.966,0.432
      c5.141,0.016,10.282-0.087,15.422-0.124c0.568-0.004,1.151,0.05,1.702,0.183c4.496,1.081,9.012,1.117,13.616,0.758
      c4.739-0.369,9.518-0.194,14.277-0.346c1.924-0.062,3.978-0.02,4.987-2.175c0.985,0.658,0.909,2.426,2.508,1.915
      c-0.721-5.502-0.691-11.088-3.323-16.167c-4.996-1.505-10.13-2.197-15.439-1.733c-2.642,0.231-5.352,0.275-7.978-0.037
      c-7.48-0.888-14.967-0.938-22.474-0.693c-1.806,0.059-3.619,0.038-5.424-0.051c-3.985-0.197-7.968-0.454-11.95-0.708
      c-0.398-0.025-0.787-0.19-1.757-0.438c0.87-0.404,1.166-0.646,1.478-0.67c3.804-0.292,7.607-0.604,11.402,0.178
      c1.016,0.209,2.077,0.256,3.118,0.268c3.227,0.038,6.454-0.001,9.681,0.038c3.334,0.04,6.667,0.141,10.001,0.207
      c4.565,0.09,9.135,0.346,13.694,0.205c3.724-0.115,7.421-0.379,11.121,0.286c0.903,0.162,1.852,0.062,2.767,0.083
      c0.229-0.561,0.426-0.893,0.501-1.252c0.86-4.124,1.459-8.249,0.557-12.47c-0.295-1.379-0.246-2.834-0.322-4.255
      c-0.066-1.231-0.092-2.463-0.128-3.695c-0.057-1.987-0.173-3.974-0.141-5.96c0.031-1.899,0.224-3.796,0.338-5.694
      c0.176-2.942,0.336-5.885,0.519-8.827C171.388,45.86,171.658,41.779,171.941,37.391z"/>
    <path style="fill:#FFFFFF;" d="M171.941,37.391c-0.283,4.388-0.553,8.468-0.807,12.55c-0.183,2.942-0.343,5.885-0.519,8.827
      c-0.114,1.898-0.307,3.795-0.338,5.694c-0.032,1.985,0.084,3.973,0.141,5.96c0.035,1.232,0.061,2.465,0.128,3.695
      c0.077,1.422,0.028,2.877,0.322,4.255c0.903,4.221,0.303,8.346-0.557,12.47c-0.075,0.358-0.272,0.691-0.501,1.252
      c-0.915-0.02-1.865,0.079-2.767-0.083c-3.7-0.665-7.397-0.401-11.121-0.286c-4.558,0.141-9.129-0.114-13.694-0.205
      c-3.334-0.066-6.667-0.167-10.001-0.207c-3.227-0.039-6.454,0.001-9.681-0.038c-1.042-0.012-2.103-0.059-3.118-0.268
      c-3.795-0.782-7.598-0.47-11.402-0.178c-0.312,0.024-0.608,0.266-1.478,0.67c0.97,0.247,1.359,0.412,1.757,0.438
      c3.982,0.253,7.965,0.51,11.95,0.708c1.805,0.089,3.618,0.11,5.424,0.051c7.507-0.246,14.994-0.196,22.474,0.693
      c2.627,0.312,5.337,0.268,7.978,0.037c5.309-0.464,10.443,0.228,15.439,1.733c2.631,5.079,2.602,10.665,3.323,16.167
      c-1.599,0.511-1.524-1.257-2.508-1.915c-1.009,2.154-3.063,2.113-4.987,2.175c-4.759,0.152-9.538-0.023-14.277,0.346
      c-4.604,0.358-9.12,0.322-13.616-0.758c-0.551-0.132-1.134-0.187-1.702-0.183c-5.141,0.037-10.282,0.14-15.422,0.124
      c-1.99-0.006-3.989-0.187-5.966-0.432c-5.119-0.634-10.273-1.292-15.383-0.44c-4.955,0.826-9.858,0.3-14.784,0.153
      c-1.134-0.034-2.281-0.232-3.388-0.499c-3.862-0.934-7.706-0.926-11.603-0.165c-1.55,0.303-3.179,0.206-5.116,0.309
      c-0.214-5.544,0.069-10.976,1.04-16.609c2.71-0.731,5.38-1.428,8.14-1.312c3.326,0.14,6.638,0.709,9.963,0.769
      c3.418,0.061,6.844-0.259,10.265-0.444c0.226-0.012,0.438-0.298,0.777-0.544c-4.962-0.188-9.759,0.055-14.569-0.757
      c-3.429-0.579-7.025-0.163-10.546-0.198c-1.413-0.014-2.883,0.222-4.057-0.82c-0.101-0.207-0.257-0.377-0.257-0.547
      c0.016-5.038,0.102-10.077,0.045-15.115c-0.018-1.607-0.578-3.207-0.597-4.814c-0.059-5.046,0.131-10.097,0.012-15.14
      c-0.096-4.09-0.512-8.171-0.76-12.258c-0.101-1.675-0.132-3.353-0.211-5.453c2.652,0.207,4.888,0.453,7.13,0.54
      c4.266,0.166,8.51,0.735,12.804-0.226c1.981-0.443,4.167-0.047,6.253,0.081c5.615,0.344,11.229,0.539,16.853,0.226
      c0.746-0.041,1.503,0.221,2.259,0.255c2.944,0.132,5.889,0.247,8.834,0.334c2.661,0.079,5.323,0.104,7.985,0.171
      c2.185,0.055,4.372,0.247,6.552,0.185c3.715-0.105,7.394-0.154,11.116,0.314c2.187,0.275,4.514-0.395,6.757-0.767
      C158.446,36.832,164.973,36.445,171.941,37.391z"/>
    </g>
    </g>
  </defs>
</svg>
