<?xml version="1.0" encoding="iso-8859-1"?>
<!-- Generator: Adobe Illustrator 19.2.1, SVG Export Plug-In . SVG Version: 6.00 Build 0)  -->
<svg version="1.1" id="Scan_x5F_A4-150dpi_x5F_SW_x5F_0002-18_xA0_Bild_1_"
	 xmlns="http://www.w3.org/2000/svg" xmlns:xlink="http://www.w3.org/1999/xlink" x="0px" y="0px" viewBox="0 0 236.013 181.502"
	 style="enable-background:new 0 0 236.013 181.502;" xml:space="preserve">
<g>
	<path style="fill:#FFFFFF;" d="M176.2,115.083c1.16-0.615,0.947-1.615,0.657-2.599c-0.986-3.34-1.748-6.774-3.059-9.983
		c-1.553-3.798-0.68-8.14-2.914-11.725c-0.043-0.07-0.022-0.18-0.028-0.272c-0.183-2.834-0.447-5.666-0.529-8.503
		c-0.105-3.66-0.232-7.332-0.048-10.984c0.323-6.404,0.874-12.796,1.339-19.192c0.026-0.364,0.148-0.72,0.207-1.083
		c0.623-3.795,1.251-7.589,1.843-11.388c0.049-0.315-0.158-0.67-0.231-0.949c-2.684,0-5.226,0.001-7.768,0
		c-1.102,0-2.207,0.04-3.306-0.014c-2.563-0.125-5.122-0.307-7.684-0.442c-1.376-0.073-2.757-0.063-4.132-0.147
		c-5.308-0.322-10.613-0.723-15.924-0.988c-5.593-0.279-11.195-0.374-16.787-0.665c-4.944-0.258-9.876-0.748-14.82-0.994
		c-3.11-0.155-6.233-0.008-9.348-0.073c-7.065-0.147-14.129-0.345-21.193-0.516c-2.818-0.068-5.718,0.335-8.203-1.791
		c-0.422,0.678-0.894,1.101-0.938,1.566c-0.189,1.995-0.371,4.005-0.329,6.005c0.049,2.362,0.392,4.716,0.502,7.078
		c0.305,6.597,0.568,13.195,0.82,19.794c0.084,2.197,0.132,4.397,0.109,6.595c-0.029,2.75-0.03,5.51-0.276,8.244
		c-0.129,1.431-0.751,2.818-1.161,4.222c-0.237,0.811-0.495,1.617-0.842,2.747c-0.527,0.224-1.198,0.707-1.428,1.919
		c-0.888,4.668-1.925,9.309-2.984,13.942c-0.584,2.554-1.323,5.072-1.988,7.59c1.854,1.022,2.292,0.882,2.638-0.862
		c0.286-1.438,0.463-2.899,0.787-4.327c0.665-2.935,1.387-5.856,2.101-8.779c0.472-1.934,0.551-3.994,1.901-5.967
		c1.279,4.814,2.495,9.39,3.714,13.977c0.98,0.656,1.957,1.309,3.137,2.1c0.626-0.101,1.425-0.272,2.233-0.352
		c2.823-0.281,5.648-0.72,8.474-0.733c2.176-0.01,4.349,0.571,6.532,0.813c2.183,0.243,4.384,0.607,6.564,0.534
		c3.568-0.121,7.122-0.722,10.689-0.819c8.361-0.228,16.73-0.348,24.923,1.837c0.615,0.164,1.262,0.246,1.899,0.281
		c7.153,0.397,14.235,1.377,21.298,2.526c4.094,0.666,8.207,0.642,12.318,0.232c0.562-0.056,1.087-0.484,1.789-0.815
		c-0.47-0.886-0.832-1.568-1.158-2.182c1.14-4.239,2.063-8.496,4.467-12.527c0.3,0.677,0.488,0.996,0.587,1.341
		c1.365,4.751,2.731,9.502,4.062,14.262C174.956,113.896,174.95,114.886,176.2,115.083z"/>
	<path d="M176.2,115.083c-1.25-0.198-1.244-1.187-1.49-2.066c-1.33-4.761-2.696-9.511-4.062-14.262
		c-0.099-0.345-0.287-0.664-0.587-1.341c-2.404,4.031-3.327,8.288-4.467,12.527c0.325,0.613,0.688,1.296,1.158,2.182
		c-0.702,0.331-1.227,0.759-1.789,0.815c-4.111,0.41-8.224,0.434-12.318-0.232c-7.063-1.148-14.145-2.129-21.298-2.526
		c-0.637-0.035-1.284-0.117-1.899-0.281c-8.192-2.184-16.562-2.064-24.923-1.837c-3.568,0.097-7.121,0.699-10.689,0.819
		c-2.18,0.074-4.381-0.291-6.564-0.534c-2.183-0.243-4.356-0.823-6.532-0.813c-2.826,0.013-5.651,0.451-8.474,0.733
		c-0.808,0.081-1.607,0.251-2.233,0.352c-1.181-0.79-2.157-1.444-3.137-2.1c-1.219-4.587-2.435-9.163-3.714-13.977
		c-1.35,1.973-1.429,4.034-1.901,5.967c-0.714,2.923-1.436,5.845-2.101,8.779c-0.324,1.428-0.501,2.889-0.787,4.327
		c-0.346,1.744-0.784,1.884-2.638,0.862c0.665-2.518,1.404-5.037,1.988-7.59c1.059-4.633,2.096-9.274,2.984-13.942
		c0.231-1.212,0.902-1.695,1.428-1.919c0.347-1.13,0.605-1.936,0.842-2.747c0.41-1.404,1.032-2.791,1.161-4.222
		c0.246-2.735,0.247-5.494,0.276-8.244c0.023-2.198-0.025-4.398-0.109-6.595c-0.252-6.599-0.515-13.198-0.82-19.794
		c-0.109-2.362-0.452-4.716-0.502-7.078c-0.042-2,0.14-4.01,0.329-6.005c0.044-0.464,0.517-0.888,0.938-1.566
		c2.485,2.125,5.385,1.723,8.203,1.791c7.064,0.171,14.128,0.368,21.193,0.516c3.116,0.065,6.239-0.082,9.348,0.073
		c4.944,0.247,9.876,0.737,14.82,0.994c5.592,0.291,11.194,0.386,16.787,0.665c5.311,0.265,10.615,0.666,15.924,0.988
		c1.375,0.083,2.756,0.074,4.132,0.147c2.562,0.135,5.122,0.317,7.684,0.442c1.1,0.053,2.204,0.013,3.306,0.014
		c2.542,0.001,5.083,0,7.768,0c0.073,0.279,0.28,0.634,0.231,0.949c-0.592,3.8-1.221,7.594-1.843,11.388
		c-0.06,0.363-0.181,0.719-0.207,1.083c-0.465,6.396-1.015,12.789-1.339,19.192c-0.184,3.652-0.057,7.324,0.048,10.984
		c0.081,2.837,0.346,5.669,0.529,8.503c0.006,0.092-0.015,0.203,0.028,0.272c2.234,3.584,1.362,7.927,2.914,11.725
		c1.312,3.209,2.074,6.643,3.059,9.983C177.147,113.468,177.36,114.468,176.2,115.083z M170.794,40.893
		c-0.607-0.132-0.955-0.264-1.306-0.277c-4.216-0.153-8.433-0.27-12.648-0.436c-2.657-0.105-5.311-0.267-7.965-0.422
		c-4.009-0.234-8.016-0.652-12.027-0.688c-6.892-0.062-13.749-0.358-20.614-1.074c-6.1-0.637-12.256-0.862-18.393-0.992
		c-5.02-0.107-10.048,0.206-15.074,0.304c-1.276,0.025-2.556-0.029-3.831-0.097c-3.663-0.196-7.324-0.439-10.988-0.607
		c-0.589-0.027-1.192,0.237-1.177,0.234c-1.85,3.083-1.305,5.983-1.184,8.833c0.097,2.282,0.327,4.561,0.576,6.833
		c0.27,2.462,0.413,4.882,0.221,7.394c-0.335,4.387-0.616,8.874-0.057,13.207c0.7,5.422-0.057,10.611-1.029,15.855
		c1.151,0.086,2.209,0.184,3.269,0.241c3.111,0.167,6.222,0.317,9.333,0.475c1.465,0.074,2.981-0.064,4.383,0.273
		c3.071,0.739,6.157,0.945,9.291,0.865c1.377-0.035,2.759-0.016,4.133,0.076c0.422,0.028,0.822,0.38,1.743,0.837
		c-1.03,0.18-1.465,0.344-1.887,0.316c-5.12-0.336-10.244,0.156-15.388-0.548c-4.064-0.556-8.257-0.187-12.392-0.182
		c-0.695,0.001-1.39,0.239-2.232,0.395c0.122,5.234,2.243,9.71,3.782,14.378c2.017,0,3.955,0.203,5.834-0.042
		c3.948-0.516,7.806-0.614,11.725,0.396c2.275,0.586,4.71,0.802,7.065,0.76c3.2-0.056,6.388-0.624,9.59-0.785
		c7.624-0.384,15.235,0.015,22.837,0.603c0.626,0.048,1.224,0.382,1.849,0.515c1.695,0.36,3.384,0.797,5.1,0.999
		c5.557,0.653,11.176,0.925,16.672,1.902c4.405,0.783,8.668,1.068,12.887-0.01c1.502-4.737,3.445-9.25,4.799-14.448
		c-2.983,0-5.528-0.063-8.069,0.017c-2.661,0.084-5.316,0.375-7.977,0.449c-2.57,0.071-5.146,0.048-7.715-0.055
		c-2.657-0.106-5.307-0.402-7.964-0.534c-2.568-0.128-5.171,0.067-7.702-0.287c-2.547-0.356-5.222,0.258-7.878-0.749
		c0.331-0.346,0.443-0.565,0.552-0.564c5.415,0.074,10.832,0.111,16.245,0.274c4.494,0.135,8.986,0.645,13.474,0.58
		c4.856-0.07,9.708-0.592,14.558-0.967c1.423-0.11,2.895-0.214,3.775-1.056c0-1.394-0.014-2.446,0.005-3.498
		c0.013-0.731,0.126-1.463,0.096-2.191c-0.12-2.925-0.441-5.851-0.386-8.772c0.094-5.039-0.34-10.087,0.577-15.12
		c0.471-2.589,0.334-5.288,0.506-7.934c0.119-1.825,0.052-3.711,0.505-5.456C171.07,47.113,170.864,44.127,170.794,40.893z"/>
	<path style="fill:#FFFFFF;" d="M170.794,40.893c0.07,3.234,0.276,6.219-0.503,9.223c-0.453,1.745-0.386,3.631-0.505,5.456
		c-0.173,2.647-0.035,5.345-0.506,7.934c-0.916,5.032-0.483,10.081-0.577,15.12c-0.054,2.92,0.266,5.847,0.386,8.772
		c0.03,0.728-0.083,1.46-0.096,2.191c-0.018,1.052-0.005,2.104-0.005,3.498c-0.88,0.842-2.352,0.946-3.775,1.056
		c-4.85,0.376-9.701,0.897-14.558,0.967c-4.487,0.065-8.98-0.445-13.474-0.58c-5.413-0.163-10.829-0.2-16.245-0.274
		c-0.109-0.001-0.221,0.217-0.552,0.564c2.656,1.007,5.332,0.393,7.878,0.749c2.531,0.353,5.134,0.159,7.702,0.287
		c2.657,0.133,5.306,0.428,7.964,0.534c2.569,0.103,5.146,0.127,7.715,0.055c2.661-0.074,5.316-0.365,7.977-0.449
		c2.541-0.081,5.086-0.017,8.069-0.017c-1.354,5.197-3.298,9.71-4.799,14.448c-4.218,1.078-8.481,0.793-12.887,0.01
		c-5.496-0.977-11.115-1.249-16.672-1.902c-1.716-0.202-3.405-0.639-5.1-0.999c-0.625-0.133-1.224-0.466-1.849-0.515
		c-7.601-0.588-15.213-0.987-22.837-0.603c-3.202,0.161-6.39,0.728-9.59,0.785c-2.356,0.041-4.791-0.174-7.065-0.76
		c-3.919-1.01-7.777-0.912-11.725-0.396c-1.879,0.245-3.817,0.042-5.834,0.042c-1.539-4.668-3.66-9.145-3.782-14.378
		c0.842-0.156,1.537-0.394,2.232-0.395c4.135-0.005,8.328-0.374,12.392,0.182c5.144,0.704,10.268,0.212,15.388,0.548
		c0.422,0.028,0.856-0.136,1.887-0.316c-0.921-0.457-1.321-0.809-1.743-0.837c-1.373-0.092-2.756-0.111-4.133-0.076
		c-3.134,0.08-6.219-0.126-9.291-0.865c-1.402-0.337-2.918-0.199-4.383-0.273c-3.111-0.158-6.223-0.308-9.333-0.475
		c-1.06-0.057-2.118-0.155-3.269-0.241c0.972-5.244,1.729-10.433,1.029-15.855c-0.559-4.334-0.278-8.821,0.057-13.207
		c0.192-2.512,0.048-4.932-0.221-7.394c-0.249-2.272-0.479-4.551-0.576-6.833c-0.121-2.851-0.666-5.75,1.184-8.833
		c-0.015,0.003,0.588-0.261,1.177-0.234c3.664,0.168,7.325,0.411,10.988,0.607c1.275,0.068,2.555,0.122,3.831,0.097
		c5.025-0.098,10.054-0.411,15.074-0.304c6.137,0.131,12.292,0.355,18.393,0.992c6.865,0.717,13.723,1.013,20.614,1.074
		c4.011,0.036,8.018,0.455,12.027,0.688c2.654,0.155,5.309,0.317,7.965,0.422c4.215,0.166,8.432,0.283,12.648,0.436
		C169.839,40.629,170.187,40.761,170.794,40.893z M102.07,94.495c-2.167-1.145-3.731-1.109-5.606,0
		C98.532,94.495,100.301,94.495,102.07,94.495z"/>
	<path d="M102.07,94.495c-1.769,0-3.538,0-5.606,0C98.339,93.386,99.903,93.351,102.07,94.495z"/>
</g>
</svg>
