<?xml version="1.0" encoding="utf-8"?>
<!-- Generator: Adobe Illustrator 19.2.1, SVG Export Plug-In . SVG Version: 6.00 Build 0)  -->
<svg version="1.1" id="Ebene_1" xmlns="http://www.w3.org/2000/svg" xmlns:xlink="http://www.w3.org/1999/xlink" x="0px" y="0px"
	 viewBox="0 0 236 181.5" style="enable-background:new 0 0 236 181.5;" xml:space="preserve">
<style type="text/css">
	.st0{fill:#1D1D1B;}
	.st1{fill:#FFFFFF;}
</style>
<path class="st0" d="M88.6,100.4c0-0.5,0.3,4.3,0.7,2.8c-0.6-0.8-1.1-0.9-1.9-1c-1.6-0.2-3.3-0.5-4.9-0.6c-0.6,0-1.3,0.1-1.9,0.2
	c-1.7,0.3-3.4,0.4-5.3,0.2c-1.3-0.1-2.6,0-3.9,0.2c-1,0.1-2.1,0.3-3.1,0.1c-1.3-0.2-2.6-0.1-3.9,0c-2.4,0.2-4.9,0.3-7.3,0.4
	c-0.1,0-0.3-0.1-0.4-0.1c-3.7-1-7.4-0.7-11.1-0.2c-2.7,0.3-5.4-0.1-8.3-0.4c-2.3,0.5-4.9,0.3-7.4-0.3c-2.3-0.5-4.6-0.4-6.9-0.5
	c-1.7,0-3.4,0-5.1,0c-0.6,0-1.1-0.1-2.1-0.3c0.7-0.3,1-0.5,1.3-0.5c3.6,0.1,7.1,0.3,10.7,0.5c1.3,0.1,2.6,0.4,3.9,0.5
	c1.7,0.1,3.4,0,5.1,0c0.7,0,1.3,0,2,0c1.4,0.1,2.7,0.2,4.1,0.3c1.7,0.1,3.4,0.1,5.1-0.3c2-0.4,4-0.4,6-0.2c4.1,0.4,8.3,0.2,12.4-0.5
	c0.9-0.2,1.6-0.2,2.4-0.2c1.7,0,3.4,0.1,5.1-0.3c0.3-0.1,0.4-0.1,0.7-0.1c3.3,0.6,6.7,0,10,0.1c0.7,0,1.4,0.2,2.1,0.2
	C87.3,100.5,87.8,100.4,88.6,100.4"/>
<path class="st0" d="M144.3,100.3c0-0.5-0.3,4.7-0.9,3c0.6-0.9,1.2-1,1.9-1.1c1.6-0.2,3.4-0.5,5.2-0.7c0.7,0,1.3,0.1,2.1,0.2
	c1.9,0.3,3.9,0.4,5.8,0.2c1.3-0.1,2.8,0,4.2,0.2c1.2,0.1,2.4,0.3,3.4,0.1c1.3-0.2,2.8-0.1,4.2,0c2.5,0.2,5.2,0.3,7.9,0.4
	c0.3,0,0.4-0.1,0.6-0.1c4-1.1,8-0.8,12-0.2c3,0.3,5.9-0.1,9-0.4c2.5,0.5,5.2,0.3,8-0.3c2.4-0.5,4.9-0.4,7.4-0.5c1.8,0,3.7,0,5.5,0
	c0.4,0,1-0.1,2.2-0.3c-0.7-0.3-1-0.5-1.3-0.5c-3.9,0.1-7.7,0.3-11.6,0.5c-1.3,0.1-2.8,0.4-4.2,0.5c-1.8,0.1-3.7,0-5.5,0
	c-0.6,0-1.3,0-2.1,0c-1.5,0.1-3,0.2-4.4,0.3c-1.8,0.1-3.7,0.1-5.5-0.3c-2.1-0.4-4.3-0.4-6.4-0.2c-4.6,0.4-9,0.2-13.5-0.5
	c-0.9-0.2-1.8-0.2-2.7-0.2c-1.8,0-3.7,0.1-5.5-0.3c-0.1-0.1-0.4-0.1-0.7-0.1c-3.6,0.7-7.3,0-10.8,0.1c-0.7,0-1.6,0.2-2.4,0.2
	C145.7,100.4,145.1,100.3,144.3,100.3"/>
<g id="doc00073520160814150808-41.psd_Bild">
	<title>SK_Website-Animation_Einzelbilder</title>
	<path class="st1" d="M164,85.4c-0.6,0.1-1,0.5-1.3,1c0.3,0.8,0.7,1.6,1.1,2.3c0.6-0.6,1-1.3,1.5-2c0.1-0.6-0.3-1.2-0.9-1.3
		C164.2,85.4,164.1,85.4,164,85.4z"/>
	<path d="M153.6,67.3c3.5,0.2,6.7,0.4,10,0.6c1.1-0.1,2,0.6,2.1,1.7c0.6,2.5,1.3,8.1,2.9,10.1c0.4,0.5,0.7,1,1,1.6
		c0.5,0.8,0.2,1.4-0.7,1.8c-2.2-2-5.1-1.5-7.8-1.6c-3.5-0.2-7-0.2-10.8-0.2c-0.8,0.7-0.6,1.9-0.5,3c0.1,1,0,2,0.1,2.9
		c0,0.2-0.1,0.3,0,0.5c0.6,5.9-0.5,11.7-0.3,17.6c0.1,1.6,0.4,3.2,0.5,4.9c0.2,2.7,0.3,5.4,0.2,8.1c-0.2,1.9-0.7,3.7-1.5,5.4
		c-1.3,2.8-2.7,5.7-4.2,8.5c-0.1,0.3-0.3,0.5-0.5,1c-2.6-1.3-5.3-1-8-0.8c-0.2,0-0.3,0-0.5,0c-1.9-1.2-3.8-0.3-5.8-0.2
		c-6.2,0.4-12.4,1-18.6,1.2c-4.2,0.1-8.4-0.4-12.6-0.6c-2.7-0.1-5.4-0.4-8.1-0.4c-1,0.2-1.9,0.5-2.7,1c-1.9-0.7-2.2-0.9-1.7-2.7
		c0.7-3.7,1.1-7.5,0.9-11.2c0-2.8-0.3-5.8-0.6-8.6c-0.1-0.6-0.2-1.3-0.2-1.9c0.1-3.8,0.3-7.7,0.2-11.5S85.8,90,85.5,86
		c-2.3-0.1-4.4-0.7-6.6-0.1c-1.3,0.4-2.3,0-2.6-0.9c-0.2-1.1,0.5-2.3,1.6-2.7c1-0.4,2.1-0.7,3.2-1c0.8-0.3,1.6-0.7,2.4-1
		c0.4-0.3,0.8-0.5,1.2-0.9c-3.3-0.4-6-0.8-8.8-1.1c-0.3-0.1-0.6,0-0.9,0.1c-1.5,0.8-2.8,0.2-3.8-0.8c-1,0.2-2.1,0.3-3.1,0.2
		c-1.4-0.2-1.6-1.2-0.5-2.2c1-1,3.5-4.1,4.9-4.5c3.4-1.2,6.7-2.7,10-4.1c1.1-0.5,2.2-0.9,3.3-1.3c1.1-0.4,1.9-0.7,2.8,0.4
		c0.5,0.4,1.2,0.5,1.8,0.5c1.3,0,2.5,0.1,3.8,0.3c3,0.7,4.9-1.8,7.6-2.6c0.6-0.2,1.2-0.5,1.6-1c0.9-1.4,2-1.3,3.5-1.4
		c3.8-0.1,7.4,1,11.2,0.3c1-0.2,2.2,0.2,3.3,0.3c2.4,0.1,4.8,0.1,7.1,0.2c4.1,0.2,8.1,0.4,12.2,0.6c2.5,0.2,5.1,0.5,7.6,0.6
		c1.3-0.1,2.7-0.2,4-0.5c0.4-0.1,0.8-0.2,1.1-0.2c0.5,0,1,0.2,1.4,0.6c0.1,0.5-0.1,1-0.5,1.4C153.2,65.5,153.3,66.3,153.6,67.3z
		 M143.9,128.2c0.6-0.6,1.1-1.2,1.6-1.9c1.9-2.9,2.9-6.3,2.9-9.7c0-3.5,0.8-7.1-0.2-10.5c0-0.2,0-0.5,0-0.7c0.1-2.9,0.2-5.8,0.2-8.7
		c0.2-2.5,0.1-4.8,0.1-7.3c-0.3-3-0.2-6.1,0.1-9H146c-0.2,1.2-0.9,2.6-0.5,3.6c0.6,1.6-0.1,2.5-1.2,3.7c-0.4-1.5-1.4-1.6-2.6-1.6
		c-1.9,0-3.8-0.1-5.8-0.3c-5.1-0.4-10.2-0.9-15.3-1.1c-4.5-0.2-9.1-0.1-13.7,0c-4.7,0.1-9.4,0.5-14.1,0.7c-1.8,0.1-3.6,0-5.8,0
		c0,2.1,0.1,4,0.2,5.9c0.1,2.1,0.7,4.2,0.4,6.3c-0.7,6.4,0.6,12.6,0.3,18.9c0.1,0.6,0.2,1.3,0.4,1.9c0.1,0.5,0.2,1.1,0.3,1.6
		c-0.2,2.7-0.3,5.5-0.5,8.2c-0.1,1.9,0.2,2.4,2.1,2.6c1.8,0.1,3.5,0.2,5.3,0.3c5.3,0.2,10.5,0.5,15.8,0.5c3.3,0,6.7-0.4,10-0.7
		l15.5-1.2l4.7-0.4c0.3-0.9,0.5-1.8,0.7-2.7c0.1-2.6,0.1-5.2,0.1-7.8c0-4,0.1-8,0.1-12c-0.1-4.3,0.9-8.5,0.2-12.9
		c0-0.9,0-1.8,0.3-2.7h0.6c0.2,0.4,0.3,0.9,0.4,1.4c0.1,1.8,0.1,3.5,0.2,5.4c0,0.7,0.1,1.4,0,2.1c-0.1,1.5-0.3,2.9-0.4,4.4
		c-0.2,3.3-0.5,6.6-0.4,9.9C143.4,119,143.7,123.3,143.9,128.2z M143.8,79.3c-0.4-0.1-0.8-0.2-1.2-0.2c-6.9-0.1-13.9-0.4-20.8-0.3
		c-10.1,0.1-20.2,0.4-30.4,0.8c-1.8,0.1-3.5,0.4-5.1,1c-1.8,0.8-3.5,1.8-5.3,2.7c1,0.3,2,0.5,3,0.6c5.2,0.1,10.4,0.2,15.5,0.1
		c5.7-0.1,11.3-0.7,17-0.6s11.3,0.4,17,0.9c3.3,0.3,6.6,0.5,9.9,0.8C144.7,83.1,144.5,81.3,143.8,79.3L143.8,79.3z M99.5,77.7
		c7.6-0.1,15.1-0.4,22.5-0.4c7.5-0.1,14.9,0.3,22.3,1.2c1.8-1.8,4.9-6.5,5.5-9.4c-0.8-0.2-1.6-0.4-2.4-0.4c-1.4,0-2.7,0-4.1,0
		c-8.4,0-16.7,0-25.1-0.1c-4.1,0-8.3-0.3-12.4-0.5c-2-0.2-4.1,0.1-6,0.6L99.5,77.7z M100.5,66.1c16.5,1,32.9,1.6,49.4,1.1l1.4-2.6
		c-1.8,0-3.3,0-4.9,0c-10.8-0.4-21.7-0.9-32.5-1.4c-1.7-0.1-3.5-0.3-5.2-0.4c-0.7,0-1.4,0-2.1,0.1C104.2,63.4,102.5,64.9,100.5,66.1
		L100.5,66.1z M97.3,68.3c-2.7-0.5-5.1-1-7.5-1.5c-0.6-0.1-1.3-0.1-1.9,0c-5,1.2-11.2,5.4-15.6,8.1c-0.2,0.2-0.4,0.5-0.5,0.8
		c1.8,0.5,3.5,1.2,5.1,1.5c1.6,0.5,3.3,0.6,5,0.4c1.3-0.2,2.7-0.3,4-0.4c1.4-0.1,2.8-0.5,4-1.2C91.8,74.5,94.9,70.3,97.3,68.3
		L97.3,68.3z M166.5,79.5c-0.4-1.2-0.8-2.3-1.4-3.3c-0.7-1.5-1.4-6-3-6.3c-2.5-0.6-5-0.8-7.5-0.6c-1.4,0-3.1,4.2-4.1,5.2
		c-0.8,1-1.5,2-2.3,3c1.5,1.1,3.2,1.8,4.8,2.1C157.4,80.6,161.9,79.3,166.5,79.5L166.5,79.5z M98.5,68.8c3-0.8-9.8,11.3-7.6,8.8
		l7-0.4C98.7,75.7,99.2,70.3,98.5,68.8L98.5,68.8z"/>
	<path d="M163.9,88.7c-0.5-0.7-0.9-1.5-1.1-2.3c0.2-0.5,0.7-0.9,1.3-1s1.2,0.4,1.3,1c0,0.1,0,0.2,0,0.4
		C164.9,87.5,164.4,88.2,163.9,88.7z"/>
	<path class="st1" d="M143.9,128.2c-0.2-4.9-0.5-9.2-0.5-13.5c0-3.3,0.3-6.6,0.4-9.9c0-1.5,0.3-2.9,0.4-4.4c0-0.7-0.1-1.4,0-2.1
		c-0.1-1.8-0.1-3.5-0.2-5.4c-0.1-0.5-0.2-0.9-0.4-1.4H143c-0.2,0.9-0.3,1.8-0.3,2.7c0.7,4.3-0.3,8.5-0.2,12.9c0.1,4,0,8-0.1,12
		c-0.1,2.6,0,5.2-0.1,7.8c-0.1,0.9-0.3,1.8-0.7,2.7l-4.7,0.4l-15.5,1.2c-3.3,0.2-6.7,0.7-10,0.7c-5.3,0-10.5-0.3-15.8-0.5
		c-1.8-0.1-3.5-0.1-5.3-0.3c-1.9-0.2-2.3-0.6-2.1-2.6c0.2-2.7,0.3-5.5,0.5-8.2c0-0.5-0.1-1.1-0.3-1.6c-0.2-0.6-0.3-1.2-0.4-1.9
		c0.3-6.3-1-12.6-0.3-18.9c0.3-2.1-0.3-4.2-0.4-6.3c-0.1-2-0.2-3.8-0.2-5.9c2.2,0,4,0.1,5.8,0c4.7-0.2,9.4-0.6,14.1-0.7
		c4.5-0.1,9.1-0.2,13.7,0c5.1,0.2,10.2,0.7,15.3,1.1c1.9,0.1,3.8,0.2,5.8,0.3c1.1,0,2.2,0.1,2.6,1.6c1.1-1.3,1.8-2.1,1.2-3.7
		c-0.4-1,0.3-2.4,0.5-3.6h2.6c-0.4,3-0.4,6.1-0.1,9c0.1,2.5,0.1,4.8-0.1,7.3c-0.1,2.9-0.2,5.8-0.2,8.7c0,0.2,0,0.5,0,0.7
		c1,3.4,0.2,7,0.2,10.5c0,3.4-1,6.8-2.9,9.7C145,127.1,144.5,127.6,143.9,128.2z"/>
	<path class="st1" d="M143.8,79.3c0.7,2.1,0.9,3.9-0.5,5.8c-3.3-0.3-6.6-0.5-9.9-0.8c-5.6-0.5-11.3-0.8-17-0.9s-11.3,0.4-17,0.6
		c-5.2,0.1-10.4,0-15.5-0.1c-1-0.1-2-0.3-3-0.6c1.6-1.1,3.5-2,5.3-2.7c1.6-0.6,3.4-0.9,5.1-1c10.1-0.3,20.2-0.6,30.4-0.8
		c6.9-0.1,13.9,0.2,20.8,0.3C143,79.1,143.4,79.2,143.8,79.3z"/>
	<path class="st1" d="M100.5,66.1c1.9-1.2,3.7-2.7,6-3c0.7-0.1,1.4-0.2,2.1-0.1c1.7,0.1,3.5,0.3,5.2,0.4c10.8,0.5,21.7,0.9,32.5,1.4
		c1.6,0.1,3.1,0,4.9,0l-1.4,2.6C133.4,67.7,117,67.1,100.5,66.1z"/>
	<path class="st1" d="M97.3,68.3c-2.4,2-5.4,6.2-7.5,7.8c-1.2,0.7-2.6,1.1-4,1.2c-1.3,0.1-2.7,0.2-4,0.4c-1.7,0.2-3.4,0.1-5-0.4
		c-1.7-0.3-3.3-1-5.1-1.5c0.1-0.3,0.3-0.6,0.5-0.8c4.6-2.6,10.6-6.9,15.6-8.1c0.6-0.1,1.3-0.1,1.9,0C92.2,67.3,94.6,67.8,97.3,68.3z
		"/>
	<path class="st1" d="M166.5,79.5c-4.6-0.1-9,1.1-13.4,0c-1.8-0.3-3.5-1.1-4.8-2.1c0.8-1.1,2-5.7,2.8-6.6c0.9-1.1,2.1-1.7,3.5-1.7
		c2.5-0.1,5.1,0.1,7.5,0.6c1.6,0.3,2.3,4.9,3,6.3C165.5,77.3,166,78.4,166.5,79.5z"/>
</g>
</svg>
