<?xml version="1.0" encoding="utf-8"?>
<!-- Generator: Adobe Illustrator 19.2.1, SVG Export Plug-In . SVG Version: 6.00 Build 0)  -->
<svg version="1.1" id="Ebene_1" xmlns="http://www.w3.org/2000/svg" xmlns:xlink="http://www.w3.org/1999/xlink" x="0px" y="0px"
	 viewBox="0 0 236 181.5" style="enable-background:new 0 0 236 181.5;" xml:space="preserve">
<style type="text/css">
	.st0{fill:#FFFFFF;}
</style>
<g id="doc00073520160814150808-19.psd_Bild">
	<title>SK_Website-Animation_Einzelbilder</title>
	<path class="st0" d="M76.4,64.1c0.5,0.7,0.8,1.5,1.1,2.3c0.1,4.8,0.3,9.6,0.1,14.4c-0.2,5.7-0.8,11.3-0.2,17
		c0.3,2.6,0.3,5.3,0.2,7.9c-0.1,3.3-0.4,6.5-0.6,9.8c-0.2,1.5-0.5,3-0.8,4.9c0.6,0.3,1.2,0.5,1.8,0.6c1.8,0.1,3.7,0.1,5.5,0.1
		c7.2,0,14.4,0,21.5,0s14.4,0.1,21.5,0.1c3,0,5.9,0.2,8.9,0.2c5.3,0.2,10.5,0.3,15.8,0.5c2.2,0.1,2.5-0.2,2.4-2.4
		c0-0.4-0.1-0.8-0.1-1.2c-0.6-5-0.6-10,0-15c0.3-2.7,0.5-5.4,0.4-8.1c0-5.4-0.4-10.9-0.4-16.3c0-4.4,0.6-8.7,0.9-13.2
		c-0.7-0.4-1.4-0.6-2.2-0.8c-2.1-0.1-4.3,0.1-6.4,0.1c-4,0-8,0-11.9-0.3c-9.7-0.9-19.4-1.1-29.2-1.1c-3.2,0-6.4,0.1-9.6,0
		c-5.5-0.3-11-0.4-16.4-0.1C77.9,63.4,77.1,63.8,76.4,64.1z M155.6,64.3c0.7,0.6,1.1,1.6,2.3,0.9c0.4-0.3,0.6-0.8,0.6-1.3
		c-0.1-0.5-0.4-1-0.9-1.2C156.5,62.5,155.9,63.3,155.6,64.3L155.6,64.3z M156.8,117.3c-0.9,1.5-0.4,2.2,2,2.3L156.8,117.3z"/>
	<path d="M76.4,64.1c0.7-0.4,1.5-0.7,2.3-0.9c5.5-0.2,11,0,16.4,0.1c3.2,0.1,6.4,0,9.6,0c9.7,0.1,19.5,0.3,29.2,1.1
		c3.9,0.3,7.9,0.3,11.9,0.3c2.1,0.1,4.3-0.2,6.4-0.1c0.8,0.2,1.5,0.4,2.2,0.8c-0.3,4.5-0.9,8.9-0.9,13.2c-0.1,5.4,0.3,10.9,0.4,16.3
		c0.1,2.7-0.1,5.4-0.4,8.1c-0.6,5-0.6,10,0,15c0,0.4,0.1,0.8,0.1,1.2c0.1,2.2-0.2,2.5-2.4,2.4c-5.2-0.2-10.5-0.4-15.8-0.5
		c-3,0-5.9-0.2-8.9-0.2c-7.2,0-14.4-0.2-21.5-0.1c-7.2,0-14.4-0.1-21.5,0c-1.8,0-3.7,0-5.5-0.1c-0.6-0.1-1.2-0.3-1.8-0.6
		c0.4-1.9,0.7-3.4,0.8-4.9c0.3-3.2,0.6-6.5,0.6-9.8c0.1-2.6,0.1-5.3-0.2-7.9c-0.6-5.7,0-11.3,0.2-17c0.2-4.8,0-9.6-0.1-14.4
		C77.2,65.5,76.8,64.8,76.4,64.1z M81,82.1l-0.6,0.1l-1-4.2c-0.5,1.6-0.2,3.2-0.4,4.8c-0.6,5.5-0.8,11.1-0.3,16.7
		c0.2,3.5,0.1,7,0.1,10.5c0.1,2.9,0.1,5.9,0.2,8.9c0.7,0.1,1.4,0.3,2.1,0.3c4.8,0.1,9.6,0.2,14.4,0.2c5,0.1,10.1,0.1,15.1,0.1
		c9.7,0,19.5,0,29.2-0.1c2.2,0,4.5,0.2,6.7,0.2c1.6,0.1,3.3,0.2,5.1,0.4c0-1.3-0.1-2.3-0.1-3.4c-0.1-3.4-0.5-6.8,0-10
		c0.8-6.8,1.1-13.7,0.6-20.5c-0.2-4.3-0.6-8.6,0-12.9c0.3-2,0.6-4.2-0.2-6.6l-6-0.2c-2.9,0-5.7-0.2-8.6-0.2
		c-1.8-0.1-3.7-0.3-5.5-0.3s-3.7-1.3-5.5,0.2c-0.2-0.1-0.4-0.1-0.6-0.3c-0.5-0.3-1.1-0.5-1.6-0.6c-1.1-0.2-2.2-0.2-3.3-0.2
		c-4.3-0.2-8.6-0.4-12.9-0.5c-6.7-0.1-13.4-0.2-20.1-0.1c-2-0.1-4,0.1-6.1,0.1c1.5,1.2,3.3,0.1,4.8,1.2L81,66.6V82.1z M78.9,69.6
		c0.9-2.3,0.9-2.6-0.4-4.2L78.9,69.6z"/>
	<path d="M155.6,64.3c0.3-1.1,0.9-1.8,2-1.5c0.5,0.2,0.8,0.7,0.9,1.2c0,0.5-0.2,1-0.6,1.3C156.7,66,156.2,64.9,155.6,64.3z"/>
	<path d="M156.8,117.4l2,2.3C156.4,119.5,155.9,118.8,156.8,117.4z"/>
	<path class="st0" d="M81,82.1V66.7l5.5-0.8c-1.5-1.2-3.4,0-4.8-1.2c2,0,4-0.1,6.1-0.1c6.7,0,13.4,0.1,20.1,0.1
		c4.3,0.1,8.6,0.3,12.9,0.5c1.1,0.1,2.2,0.1,3.3,0.2c0.6,0.1,1.1,0.3,1.6,0.6c0.2,0.1,0.4,0.2,0.6,0.3c1.8-1.5,3.6-0.2,5.5-0.2
		s3.7,0.2,5.5,0.3c2.9,0.1,5.7,0.2,8.6,0.2l6,0.2c0.9,2.3,0.5,4.5,0.2,6.6c-0.5,4.3-0.2,8.6,0,12.9c0.5,6.9,0.2,13.7-0.6,20.5
		c-0.4,3.3,0,6.7,0,10c0,1,0,2,0.1,3.4c-1.9-0.2-3.5-0.3-5.1-0.4c-2.2-0.2-4.5-0.3-6.7-0.2c-9.7,0-19.5,0-29.2,0.1
		c-5,0-10.1,0-15.1-0.1c-4.8,0-9.6-0.1-14.4-0.2c-0.7-0.1-1.4-0.2-2.1-0.3c-0.1-3.1-0.1-6-0.2-8.9c-0.1-3.5,0-7-0.1-10.5
		C78.3,94,78.3,88.4,79,82.9c0.2-1.5-0.1-3.1,0.4-4.8l1,4.3L81,82.1z M80.3,103.3c0.3,0,0.6-0.1,0.8-0.2c0.3-0.9,0.6-1.8,0.6-2.7
		c0.2-0.5-0.1-1.1-0.6-1.3c-0.2-0.1-0.4-0.1-0.5,0C80.3,100.5,79.4,101.8,80.3,103.3L80.3,103.3z M96.7,65.8c-3.3-0.6-4-0.5-5.1,0.3
		C93.2,66.8,95.1,66.6,96.7,65.8L96.7,65.8z"/>
	<path class="st0" d="M78.9,69.6l-0.4-4.2C79.8,67,79.9,67.3,78.9,69.6z"/>
	<path d="M80.3,103.3c-0.8-1.5,0-2.8,0.3-4.2c0.5-0.1,1.1,0.3,1.2,0.8c0,0.2,0,0.4,0,0.5c-0.1,0.9-0.4,1.8-0.6,2.7
		C80.9,103.3,80.6,103.3,80.3,103.3z"/>
	<path d="M96.7,65.8c-1.6,0.8-3.5,1-5.1,0.3C92.7,65.2,93.4,65.2,96.7,65.8z"/>
</g>
</svg>
