<?xml version="1.0" encoding="utf-8"?>
<!-- Generator: Adobe Illustrator 19.2.1, SVG Export Plug-In . SVG Version: 6.00 Build 0)  -->
<svg version="1.1" id="Ebene_1" xmlns="http://www.w3.org/2000/svg" xmlns:xlink="http://www.w3.org/1999/xlink" x="0px" y="0px"
	 viewBox="0 0 236 181.5" style="enable-background:new 0 0 236 181.5;" xml:space="preserve">
<style type="text/css">
	.st0{fill:#1D1D1B;}
	.st1{fill:#FFFFFF;}
	.st2{opacity:0.25;enable-background:new    ;}
</style>
<path class="st0" d="M150,100.4c0.7,0,1.3,0.1,1.7,0c0.7,0,1.4-0.2,2.1-0.2c3.3-0.1,6.7,0.5,10-0.1c0.3,0,0.4,0,0.7,0.1
	c1.7,0.4,3.4,0.3,5.1,0.3c0.9,0,1.6,0,2.4,0.2c4.1,0.7,8.3,0.9,12.4,0.5c2-0.2,4-0.2,5.9,0.2c1.7,0.4,3.4,0.4,5.1,0.3
	c1.4-0.1,2.7-0.2,4.1-0.3c0.7,0,1.3,0,2,0c1.7,0,3.4,0.1,5.1,0c1.3-0.1,2.6-0.4,3.9-0.5c3.6-0.2,7.1-0.4,10.7-0.5
	c0.3,0,0.6,0.2,1.3,0.5c-1,0.2-1.6,0.3-2.1,0.3c-1.7,0-3.4,0-5.1,0c-2.3,0.1-4.6,0-6.9,0.5c-2.6,0.6-5.1,0.8-7.4,0.3
	c-2.9,0.3-5.6,0.7-8.3,0.4c-3.7-0.5-7.4-0.8-11.1,0.2c-0.1,0-0.3,0.1-0.4,0.1c-2.4-0.1-4.9-0.2-7.3-0.4c-1.3-0.1-2.6-0.2-3.9,0
	c-1,0.2-2.1,0-3.1-0.1c-1.3-0.2-2.6-0.3-3.9-0.2c-1.9,0.2-3.6,0.1-5.3-0.2c-0.6-0.1-1.3-0.2-1.9-0.2c-1.6,0.1-3.3,0.4-4.9,0.6
	c-0.7,0.1-1.3,0.2-1.9,1C149.8,104.7,150,99.9,150,100.4"/>
<path class="st0" d="M94.3,100.3c-0.7,0-1.3,0.1-1.9,0c-0.7,0-1.6-0.2-2.4-0.2c-3.6-0.1-7.3,0.5-10.8-0.1c-0.3,0-0.6,0-0.7,0.1
	c-1.8,0.4-3.7,0.3-5.5,0.3c-0.9,0-1.8,0-2.7,0.2c-4.4,0.8-8.9,1-13.5,0.5c-2.1-0.2-4.3-0.2-6.4,0.2c-1.8,0.4-3.7,0.4-5.5,0.3
	c-1.5-0.1-3-0.2-4.4-0.3c-0.7,0-1.5,0-2.1,0c-1.8,0-3.7,0.1-5.5,0c-1.3-0.1-2.8-0.4-4.2-0.5c-3.9-0.2-7.7-0.4-11.6-0.5
	c-0.3,0-0.6,0.2-1.3,0.5c1.2,0.2,1.8,0.3,2.2,0.3c1.8,0,3.7,0,5.5,0c2.5,0.1,5,0,7.4,0.5c2.8,0.7,5.5,0.9,8,0.3
	c3.1,0.3,6.1,0.8,9,0.4c4-0.5,8-0.9,12,0.2c0.1,0,0.3,0.1,0.6,0.1c2.7-0.1,5.3-0.2,7.9-0.4c1.3-0.1,2.8-0.2,4.2,0
	c1,0.2,2.2,0,3.4-0.1c1.3-0.2,2.8-0.3,4.2-0.2c1.9,0.2,3.9,0.1,5.8-0.2c0.7-0.1,1.3-0.2,2.1-0.2c1.8,0.1,3.6,0.4,5.2,0.7
	c0.7,0.1,1.3,0.2,1.9,1.1C94.6,105,94.3,99.7,94.3,100.3"/>
<g>
	<polygon class="st1" points="165.2,90.3 163.4,128.2 155,127.9 105.5,129.8 69.5,129.2 66.4,94.6 111.5,87.1 	"/>
	<g id="doc00073520160814150808-49.psd_Bild">
		<title>SK_Website-Animation_Einzelbilder</title>
		<path d="M67,68.8c1.7,1.3,2.9,0.1,4.1-0.5c1.2-0.9,2.7-1.2,4.1-0.8c1.1,0.1,2.3,0,3.5-0.2c1-0.1,2-0.1,3.1-0.1
			c3.7,0.5,7.4,0.5,11.1,0.2c6.4-0.2,12.8,0.1,19.3-0.1s13.2-0.1,19.9,0.4c4.5,0.4,9.2,0.7,13.8,0.9c4.6,0.1,9.1,0,13.8-0.2
			c0.9-0.2,1.8,0.1,2.3,0.9c1,1.9,3,2.3,5,2.5c2.1,0.2,2.4,0.6,2.9,2.8c0.7,3,1.7,5.8,2.5,8.8c0.4,1.4,0.6,2.9,1.1,4.3
			c0.3,0.7,0.8,1.3,1.3,1.9c0.8,0.8,1.2,3.9,0.3,4.4c-1.5,0.8-1,1.7-0.8,2.7c0.2,0.7,0.3,1.5,0.6,2.9c-1.3-0.4-1.9-0.6-2.6-0.9
			c-0.9-0.5-1.9-0.8-3-1.1c-1.8-0.3-3.7-0.3-5.5-0.1c-3.8,0.1-7.4,0-11.2-0.6c-9.3-0.9-18.7-2.1-28-1.7c-5.7,0.1-11.4-0.2-17-0.1
			c-6.3,0-12.4,0.3-18.5,0.2c-4.8-0.2-9.4-0.1-14.2,0.4l-6,0.3c-1.1,3-0.2,5.7,0,8.5c0.2,4.3,0.6,8.5,1,12.7c0.2,2.1,0.8,4.1,1,6.1
			c0.2,1.5,0.1,2.9,0.2,4.8c2.5,0.2,4.9,0.4,7.3,0.5c6,0.1,12,0.1,18.1,0.1c13.1-0.1,26.4-0.2,39.7-0.2c2,0,4-0.3,5.9-0.5
			c1.9-0.2,3.8-0.3,5.7-0.4c4.6-0.2,9.1-0.4,13.9-0.7c0.3-1.5,0.6-2.8,0.7-4c0.7-7.5,1.3-15.1,1.9-22.6c0-0.8,0.4-1.6,1-2.2
			c0.3,0.5,0.4,0.9,0.5,1.4c-0.2,3.2-0.3,6.4-0.5,9.7c-0.4,5-0.7,9.9-1.1,14.9c0.1,0.9,0.3,1.8,0.6,2.6c0.9,2.5,0.3,3.9-2.8,4.4
			l-0.7-2c-0.8,0-1.6-0.1-2.4-0.1c-4.5,0.2-9,0.3-13.4,0.5c-1.8,0-3.6,0.7-5.4,0.7c-3.5,0.2-7,0.3-10.5,0.3
			c-6.6,0-13.1-0.3-19.6-0.2c-3.6,0-7.1,0.2-10.7,0.2c-4.6,0.1-9.1,0.1-13.7,0c-5,0-10-0.1-15,0c-0.9,0-1.8-0.1-3.1-0.1
			c0.4-0.9,0.5-1.3,0.6-1.8c0.6-0.8,0.6-1.6,0.2-2.4s-0.5-1.7-0.4-2.5c0.6-4.3-0.4-8.4-0.7-12.5c-0.2-2.1-0.2-4.2-0.3-6.2
			c-0.1-2-0.1-4.4-0.2-6.5c-0.1-0.8-0.2-1.5-0.4-2.3c-1.1,0.2-2.1,0.5-3.2,0.9c-0.8,0.4-1.7,0.2-2-0.6c-0.1-0.2-0.2-0.3-0.2-0.5
			c-0.3-1-0.6-2.1-0.9-3.3c0.2-0.5,0.6-1.2,0.9-1.7c1.5-2.3,1.9-4.9,2.5-7.4s1.3-4.9,1.9-7.3c0.4-1.6,1.5-3,0.8-4.8
			C66,70.9,66.6,70,67,68.8z M166.7,74.6c-2.3,0-4.5,0-6.6-0.1c-6-0.3-12.1-0.7-18-0.9c-12.7-0.2-25.3-0.4-37.6-0.6
			c-10.5-0.2-20.9,0.1-31.2-0.6c-1.1-0.1-2.3,0-3.4,0c-1.9,3.9-6,18.5-5.9,21.7c1.7-0.4,3.5-0.7,5.2-0.8C76,93,83,92.8,90,92.8
			c9.1,0,18.2,0.2,27.5,0.3c3.7,0.1,7.6-0.2,11.4,0c7.1,0.4,14.2,1.1,21.3,1.7c3.1,0.2,6.1,0.6,9.2,0.6c3.1,0.1,6.1,0.1,9.1,0.2
			c1-0.1,2-0.2,3-0.5c-0.9-5.3-1.7-10.2-2.5-15.2C168.9,77.9,168,76.1,166.7,74.6z M162.6,72.2c-1.7-0.9-3.6-1.3-5.4-1.3
			c-3.3,0-6.7,0.1-9.9-0.1c-3-0.1-6-0.4-9-0.5c-5.8-0.3-11.6-1.1-17.4-0.8c-4.5,0.2-9-0.2-13.5-0.3c-1.7,0-3.5,0.1-5.2,0.2
			c-2.7,0.1-5.5,0.3-8.2,0.4c-0.6,0.1-1.4,0.1-2,0c-1.5-0.1-3.1-0.4-4.5-0.4c-3.5,0.1-7.1,0.3-10.6,0.4c-1.5,0-2.8,0-4.3,0
			c-0.4,0.1-0.9,0.3-1.2,0.5l0.1,0.4L162.6,72.2z"/>
		<path d="M57.9,115.6l2.5,0.3C59,116.8,59,116.8,57.9,115.6z"/>
		<path class="st1" d="M166.7,74.6c1.3,1.5,2.1,3.2,2.4,5.2c0.8,4.9,1.6,9.9,2.5,15.2c-1.1,0.2-2,0.4-3,0.5c-3,0.1-6.1,0-9.1-0.2
			s-6.1-0.5-9.2-0.6c-7.2-0.6-14.2-1.2-21.3-1.7c-3.8-0.2-7.6,0.1-11.4,0c-9.3-0.1-18.4-0.4-27.5-0.3c-6.9,0-13.9,0.3-20.8,0.6
			c-1.7,0.2-3.5,0.5-5.2,0.8c-0.1-3.2,3.8-17.8,5.8-21.7c1.1,0,2.3-0.1,3.4,0c10.2,0.8,20.7,0.3,31.2,0.6c12.3,0.2,25,0.4,37.6,0.6
			c5.9,0.2,12,0.6,18,0.9C162.3,74.7,164.4,74.6,166.7,74.6z"/>
		<path class="st2" d="M162.6,72.2l-91.2-1.5l-0.1-0.4c0.3-0.2,0.8-0.4,1.2-0.5c1.5-0.1,2.8,0,4.3,0c3.5-0.1,7.1-0.3,10.6-0.3
			c1.5,0,3.1,0.2,4.5,0.4c0.6,0,1.4,0,2,0c2.7-0.1,5.5-0.3,8.2-0.4c1.7-0.1,3.5-0.2,5.2-0.2c4.4,0,9,0.5,13.5,0.3
			c5.8-0.3,11.5,0.5,17.4,0.8c3,0.1,6,0.5,9,0.5c3.3,0.1,6.6,0.1,9.9,0.1C159,70.8,161,71.3,162.6,72.2z"/>
	</g>
</g>
</svg>
