<?xml version="1.0" encoding="utf-8"?>
<!-- Generator: Adobe Illustrator 19.2.1, SVG Export Plug-In . SVG Version: 6.00 Build 0)  -->
<svg version="1.1" id="Ebene_1" xmlns="http://www.w3.org/2000/svg" xmlns:xlink="http://www.w3.org/1999/xlink" x="0px" y="0px"
	 viewBox="0 0 236 181.5" style="enable-background:new 0 0 236 181.5;" xml:space="preserve">
<style type="text/css">
	.st0{fill:#1D1D1B;}
	.st1{fill:#FFFFFF;}
</style>
<path class="st0" d="M88.6,100.4c0-0.5,0.3,4.3,0.7,2.8c-0.6-0.8-1.1-0.9-1.9-1c-1.6-0.2-3.3-0.5-4.9-0.6c-0.6,0-1.3,0.1-1.9,0.2
	c-1.7,0.3-3.4,0.4-5.3,0.2c-1.3-0.1-2.6,0-3.9,0.2c-1,0.1-2.1,0.3-3.1,0.1c-1.3-0.2-2.6-0.1-3.9,0c-2.4,0.2-4.9,0.3-7.3,0.4
	c-0.1,0-0.3-0.1-0.4-0.1c-3.7-1-7.4-0.7-11.1-0.2c-2.7,0.3-5.4-0.1-8.3-0.4c-2.3,0.5-4.9,0.3-7.4-0.3c-2.3-0.5-4.6-0.4-6.9-0.5
	c-1.7,0-3.4,0-5.1,0c-0.6,0-1.1-0.1-2.1-0.3c0.7-0.3,1-0.5,1.3-0.5c3.6,0.1,7.1,0.3,10.7,0.5c1.3,0.1,2.6,0.4,3.9,0.5
	c1.7,0.1,3.4,0,5.1,0c0.7,0,1.3,0,2,0c1.4,0.1,2.7,0.2,4.1,0.3c1.7,0.1,3.4,0.1,5.1-0.3c2-0.4,4-0.4,6-0.2c4.1,0.4,8.3,0.2,12.4-0.5
	c0.9-0.2,1.6-0.2,2.4-0.2c1.7,0,3.4,0.1,5.1-0.3c0.3-0.1,0.4-0.1,0.7-0.1c3.3,0.6,6.7,0,10,0.1c0.7,0,1.4,0.2,2.1,0.2
	C87.3,100.5,87.8,100.4,88.6,100.4"/>
<path class="st0" d="M144.3,100.3c0-0.5-0.3,4.7-0.9,3c0.6-0.9,1.2-1,1.9-1.1c1.6-0.2,3.4-0.5,5.2-0.7c0.7,0,1.3,0.1,2.1,0.2
	c1.9,0.3,3.9,0.4,5.8,0.2c1.3-0.1,2.8,0,4.2,0.2c1.2,0.1,2.4,0.3,3.4,0.1c1.3-0.2,2.8-0.1,4.2,0c2.5,0.2,5.2,0.3,7.9,0.4
	c0.3,0,0.4-0.1,0.6-0.1c4-1.1,8-0.8,12-0.2c3,0.3,5.9-0.1,9-0.4c2.5,0.5,5.2,0.3,8-0.3c2.4-0.5,4.9-0.4,7.4-0.5c1.8,0,3.7,0,5.5,0
	c0.4,0,1-0.1,2.2-0.3c-0.7-0.3-1-0.5-1.3-0.5c-3.9,0.1-7.7,0.3-11.6,0.5c-1.3,0.1-2.8,0.4-4.2,0.5c-1.8,0.1-3.7,0-5.5,0
	c-0.6,0-1.3,0-2.1,0c-1.5,0.1-3,0.2-4.4,0.3c-1.8,0.1-3.7,0.1-5.5-0.3c-2.1-0.4-4.3-0.4-6.4-0.2c-4.6,0.4-9,0.2-13.5-0.5
	c-0.9-0.2-1.8-0.2-2.7-0.2c-1.8,0-3.7,0.1-5.5-0.3c-0.1-0.1-0.4-0.1-0.7-0.1c-3.6,0.7-7.3,0-10.8,0.1c-0.7,0-1.6,0.2-2.4,0.2
	C145.7,100.4,145.1,100.3,144.3,100.3"/>
<g>
	<path class="st1" d="M164.3,68c3.4-0.2,19.5,1.4,19.5,1.4l1.5,2.3L167,83.3l-6.6-1.5l0.2,4.1l1.7,12.4l0.2,3.9l-0.1,15.8l-6.2,3.6
		l-15.7,10.1l-8.8-5.3l7.8-48.6L164.3,68z"/>
	<g id="doc00073520160814150808-44.psd_Bild">
		<title>SK_Website-Animation_Einzelbilder</title>
		<path d="M141.6,129.6c0.3,0,0.7,0,1-0.1c3.2-1.9,6.3-3.7,9.5-5.7c2.5-1.6,4.8-3.4,7.4-5c1.3-0.6,2.2-2,2.2-3.5c0-2.1,0-4.1,0-6.2
			c0.1-1.6,0.1-3.2-0.2-4.8c-0.5-2.1-0.1-4,0.1-6c0-0.5,0-1,0-1.4c-0.6-3.8-1.1-7.5-1.6-11.3c-0.3-0.9,0.2-1.8,1-2.2
			c0.2,0.1,0.4,0.3,0.5,0.5c0.6,4.3,1.1,8.6,1.6,12.9c0.1,0.7,0.1,1.4,0,2.1c-0.1,0.4-0.1,0.8,0,1.2c1.7,2.6,0.4,5.5,0.3,8.3
			c0,0.3-0.1,0.6-0.1,0.9c0.1,3,0.1,6,0.2,9.2c-0.3,0.3-0.7,0.6-1.1,0.8c-3.5,1.1-6.3,3.1-9,5.5c-0.4,0.5-0.9,0.9-1.4,1.3
			c-3.9,1.8-7,4.7-10.7,6.9c-0.3,0.1-0.7,0.2-1.1,0.3c-0.6-1.5-1.8-1.6-3.1-1.6c-7.1-0.6-14.2-1.3-21.1-2.4
			c-5-0.9-10.1-1.2-15.1-1.8c-5.5-0.6-11-1.2-16.5-1.6c-0.6,0-1.3,0-1.9,0c-3,0-6-0.1-9-0.2c-0.9-0.2-1.8-0.5-2.6-1
			c0.7-0.6,1.1-0.9,1.4-1.1c0.8-0.6,1.2-1.6,1.1-2.6c-0.6-3.4-0.1-6.8,0.3-10.2c0-0.5,0-1,0-1.4c-0.2-5.2-0.5-10.4-0.6-15.5
			c-0.1-1.5-0.1-3-0.1-4.5c0.1-2.4-0.2-4.8-0.8-7.1c-0.2-1-0.1-2.1-0.1-3.1c-0.9,0-2.1-0.1-3.2-0.1c-1.8-0.1-3.6-0.8-5.4-0.1
			c-3.3-0.8-6.7-0.7-9.9,0.3c-0.7,0.3-1.6-0.1-1.8-0.8c-0.1-0.1-0.1-0.3-0.1-0.4c0-1,0.9-1.8,1.9-1.9c0.8-0.1,1.6,0,2.4-0.1
			c0.7,0,1.4-0.2,2-0.6c2-1.8,4.4-1.9,6.7-2.3c2.1-0.4,4-0.8,5.7-2.4c-3.2-2-6.9-2-10.4-2.6c-1.3-0.2-2.6-0.6-3.9-1
			c-1.4-0.4-2.8-0.6-4.2-0.9c-1.7,0-2-1.3-2.8-2.3c0.2-0.3,0.5-0.6,0.9-0.8c1.8-0.3,3.6-0.4,5.4-0.7c1.3-0.2,2.5-0.2,3.8-0.3
			c3.2-0.3,6.5-0.6,9.8-0.9c4-0.4,8.1-0.8,12.1-1.2c2.2-0.3,4.3-0.8,6.5-1.2c1.1-0.2,2.3-0.3,3.2,0.9c0.5,0.4,1.1,0.6,1.7,0.7
			c4.1,0.6,8.2,1.1,12.4,1.7c3,0.4,5.7-0.6,8.5-1.1c5-0.9,10.1-1.7,15-2.9c2.4-0.6,4.6,0,6.8,0.3c5.9,0.9,11.8,0.6,17.7,1
			c4.8,0.4,9.6,0.6,14.3,1c2.8,0.2,5.6,0,8.3,1.1c0.9,0.2,1.8,0.2,2.6,0c2.2,0,4.4,0,6.6,0.1c1.1,0.1,2.2,0.4,3.2,0.7
			c-0.4,1.5-1.4,1.4-2.2,1.5c-4.6,0.7-9.1,1.3-13.8,2c-1.5,0.3-2.9,1-4.1,2c5.3,1.2,10.4,0.8,15.8,1.6c-1.4,1.2-2.5,0.7-3.4,0.7
			c-4.1-0.2-8.1-0.4-12.2-0.6c-1,0-2.1-0.1-3.1,0c-0.9,0-1.9,0.2-2.8,0.4c-1.7,0.6-3.4,1.4-5.2,2c-2,0.8-4.1,1.2-6.2,2
			c-2.2,1-4.5,2.1-7.2,3.4c2.6,0.6,4.5,1.8,6.8,1.7c1.2,0,2.4,0.2,3.5,0.5c3.9,0.8,7.7,1.8,11.7,2.3c2,0.2,4-0.4,5.6-1.7
			c4-3,8.2-5.7,12.4-8.4c0.5-0.5,1.3-0.5,1.9,0c0.1,0.1,0.1,0.2,0.2,0.2c-1.2,0.9-2.4,1.9-3.6,2.8c-2,1.4-4.2,2.7-6.2,4.1
			c-0.3,0.3-0.6,0.6-0.9,1c0,0.1-0.1,0.3-0.2,0.4c-3.2,0.6-4.7,4.2-8.2,4.7c-0.6-1.6-2-1.9-3.6-2.2c-4.3-0.6-8.7-1.3-12.9-2
			c-0.6-0.1-1.1-0.2-1.6-0.4c-0.7-0.3-1.5-0.7-2.2-1c-2.6-1.2-3.7-0.6-3.6,2.2c0.1,5.6,0.5,11.1,0.6,16.7c0,2.5-0.3,5.1-0.3,7.6
			c-0.1,2.8,0.1,5.6-0.1,8.3c-0.2,3.6-0.7,7.3-1,10.9C141.6,126.2,141.6,127.8,141.6,129.6z M140.9,79.8c-1.4-0.2-2.6-0.7-3.8,0.2
			c-2.5,2-5,3.8-7.5,5.7c-0.4,0.5-0.6,1-0.7,1.6c-0.4,1.5-1.2,2-2.7,1.8c-0.9-0.1-1.7-0.4-2.6-0.5c-3.5-0.5-6.9-1.1-10.3-1.7
			c-5.7-1.2-11.3-2.5-17-3.6c-5-1-9.8-2.6-14.9-3c-2.3-0.1-4.5-0.5-7-0.8c0,1-0.1,1.9-0.1,2.8c0,3.5,0.1,7,0.2,10.5
			c0,0.8,0.1,1.6,0,2.4c0.3,4.8,0.5,9.5,0.8,14.3c0.1,0.6,0,1.1-0.1,1.7c-0.8,3-0.2,6-0.1,9.1c0.1,1.1,0.1,2.1,0.3,3.4
			c1.7,0,3.2-0.1,4.7,0.1c3,0.2,6,0.8,9,1c5.2,0.5,10.4,0.7,15.5,1.2c1.2,0.1,2.4,0.2,3.6,0.4c3.1,0.5,6.1,1.1,9.2,1.5
			c4.7,0.6,9.4,1.1,14.1,1.6c2.7,0.2,5.4,0.5,8.1,0.7c0.2-0.3,0.3-0.7,0.4-1c0.4-4,1.8-8,1.3-12.1c-0.1-0.9,0.1-1.8,0.3-2.6
			c0.1-1,0.4-2.1,0.4-3.1c0.1-4.6,0.3-9.3,0.3-13.9c0-2.8-0.5-5.5-0.7-8.3C141,86.1,141,83,140.9,79.8z M136.8,78.4l-0.2-0.6
			c-3.7-0.4-7.3-0.6-11-1c-4.9-0.5-9.9-1-14.8-1.5c-0.4,0-0.8-0.2-1.2-0.2c-1.8-0.3-3.6-0.8-5.4-1.1c-3.8-0.5-7.6-0.9-11.4-1.3
			c-3.1-0.3-6.2-0.6-9.3-0.9c-1.9-0.2-3.8-0.5-5.7-0.5c-2.3,0-4.8-0.3-6.8,0.5c-2.5,1.2-5.3,1.8-8.1,2.2c-1.4,0-2.7,0.7-3.7,1.6
			c1.2,0.1,1.9,0.2,2.7,0.2c1.3-0.1,2.5-0.1,3.8,0.1c3.1,0.6,6.2,1.5,9.2,2.2c0.9,0.3,1.9,0.4,2.8,0.5C87,79,95.9,81.9,105,83.3
			c3.7,0.6,7.2,1.8,10.9,2.6c2.7,0.5,5.4,0.8,8.2,1.1L136.8,78.4z M161.3,67.8c-4.3-0.5-8.3-0.9-12.4-1.2
			c-5.2-0.4-10.4-0.6-15.5-0.9c-6.8-0.4-13.5-0.8-20.3-1.2c-0.6,0-1.1-0.1-1.6-0.3c-1.8-0.5-3.7-0.2-5.2,1c-0.1,1.6-0.3,3.4-0.4,5.1
			c-0.1,2.2,0.2,2.4,2.3,2.7c1,0.1,1.9,0.3,2.8,0.4c3.6,0.5,7.2,1.3,10.7,1.7c3.4,0.3,6.9,0.4,10.3,0.5c0.6,0,1.1,0.1,1.6,0.2
			c1.7,0.2,3.3,0.5,5,0.9c0.4,0.1,0.8,0,1.1-0.1c1.6-1.8,4-1.9,5.9-3c1.8-1,3.9-1.6,5.9-2.3c3-1.1,6.1-2.1,9.1-3.2
			C161,68.1,161.1,67.9,161.3,67.8L161.3,67.8z M112.5,61.8v0.5c3.7,0.5,7.4,0.9,11.1,1.3s7.5,0.3,11.2,0.6c3.7,0.3,7.3,0.5,11,0.9
			c3.4,0.2,6.9,0.5,10.2,1c4,0.6,8.1,0.2,12-0.9c1.7-0.5,3.5-0.9,5.3-1.1c1.8-0.2,3.9-0.2,5.7-1.2c-2.2-0.3-4.4-0.3-6.4-0.8
			c-4.4-1.1-8.9-1.1-13.3-1.5c-7.6-0.6-15.2-0.8-22.7-1.2c-2.5-0.1-5-0.5-7.4,0c-2.9,0.6-5.8,0.9-8.7,1.3
			C117.9,60.7,115.2,61.4,112.5,61.8L112.5,61.8z M101.7,63l-0.1-0.5c-1-0.2-2-0.5-3-0.7c-3-0.7-5.9-1.5-8.8-2c-1,0-2,0.1-3,0.3
			c-0.4,0.1-0.7,0.4-1.1,0.4c-2.9,0.3-5.9,0.6-8.8,0.9c-3.3,0.3-6.5,0.4-9.8,0.8c-3.6,0.3-7.3,0.9-10.9,1.4
			c-0.8,0.2-1.6,0.4-2.4,0.7c2.2,0.7,4.5,1.3,6.8,1.6c2.7,0.4,5.5,1.1,8,1.9c1.8,0.7,3.8,0.9,5.8,0.5l0.8-1.7c0.4,0,0.7,0.1,1.1,0.2
			c1.7,1.2,3.5,0.9,5.3,0.6c1.1-0.3,2.2-0.4,3.3-0.7l9-1.7c1.6-0.3,3.3-0.7,4.9-1C99.6,63.5,100.6,63.3,101.7,63L101.7,63z
			 M104.6,64.8c-3.5,0.6-6.7,0.3-9.8,1.5c-1.3,0.5-2.7,1-4.1,1.2c-3.9,0.7-7.9,1.3-12,1.9c0.7,0.6,1.6,0.9,2.5,0.9
			c3-0.2,6,0.1,9,0.6c4.7,0.6,9.3,0.9,14.2,1.4C105.9,69.9,104.1,67.5,104.6,64.8L104.6,64.8z"/>
		<path d="M185.9,70.3c-0.8,0.2-1.7-0.1-2.1-0.9C185.6,68.4,185.9,68.6,185.9,70.3z"/>
		<path d="M192,69.2l-1.4,0.2l-0.1-0.5l1.4-0.5L192,69.2z"/>
		<path d="M77.6,126.7c-0.1,0.2-0.3,0.4-0.5,0.6c-0.2-0.1-0.5-0.2-0.7-0.4c0.1-0.2,0.2-0.3,0.3-0.5C77,126.4,77.3,126.5,77.6,126.7z
			"/>
		<path class="st1" d="M140.9,79.8c0.1,3.2,0.1,6.3,0.2,9.3c0.1,2.8,0.6,5.5,0.7,8.3c0.1,4.6-0.2,9.3-0.3,13.9c0,1-0.3,2.1-0.4,3.1
			c-0.2,0.9-0.3,1.7-0.3,2.6c0.6,4.1-0.8,8.1-1.3,12.1c-0.1,0.3-0.2,0.7-0.4,1c-2.7-0.2-5.4-0.4-8.1-0.7c-4.7-0.5-9.4-1-14.1-1.6
			c-3.1-0.4-6.1-1.1-9.2-1.5c-1.2-0.2-2.4-0.3-3.6-0.4c-5.2-0.4-10.4-0.7-15.5-1.2c-3-0.2-6-0.8-9-1c-1.5-0.1-3,0-4.7-0.1
			c-0.1-1.3-0.2-2.4-0.3-3.4c-0.1-3-0.7-6,0.1-9.1c0.1-0.6,0.1-1.1,0.1-1.7c-0.3-4.8-0.5-9.5-0.8-14.3c-0.1-0.8-0.1-1.6,0-2.4
			c-0.1-3.5-0.1-7-0.2-10.5c0-0.9,0.1-1.7,0.1-2.8c2.5,0.2,4.8,0.7,7,0.8c5.1,0.4,9.9,2,14.9,3c5.7,1.1,11.3,2.5,17,3.6
			c3.4,0.6,6.9,1.2,10.3,1.7c0.9,0.1,1.7,0.4,2.6,0.5c1.5,0.2,2.2-0.3,2.7-1.8c0.1-0.6,0.3-1.2,0.7-1.6c2.5-2,5-3.8,7.5-5.7
			C138.4,79.1,139.5,79.6,140.9,79.8z"/>
		<path class="st1" d="M136.8,78.4l-12.5,8.7c-2.8-0.3-5.5-0.6-8.2-1.1c-3.7-0.8-7.2-1.9-10.9-2.6c-9.1-1.5-18-4.2-27.3-4.7
			c-1-0.1-1.9-0.3-2.8-0.5c-3.1-0.7-6.2-1.6-9.2-2.2c-1.3-0.1-2.5-0.1-3.8-0.1c-0.8,0-1.5-0.1-2.7-0.2c0.9-1.1,2.3-1.7,3.7-1.6
			c2.8-0.4,5.5-1,8.1-2.2c2-0.9,4.5-0.5,6.8-0.5c1.9,0,3.8,0.3,5.7,0.5c3.1,0.3,6.2,0.6,9.3,0.9c3.8,0.5,7.6,0.8,11.4,1.3
			c1.8,0.2,3.6,0.6,5.4,1.1c0.4,0.1,0.8,0.2,1.2,0.2c4.9,0.6,9.9,1,14.8,1.5c3.6,0.3,7.3,0.7,11,1L136.8,78.4z"/>
		<path class="st1" d="M112.5,61.8c2.7-0.5,5.4-1.1,8.1-1.4c2.9-0.4,5.8-0.6,8.7-1.3c2.4-0.5,4.9-0.1,7.4,0
			c7.6,0.3,15.2,0.6,22.7,1.2c4.4,0.4,8.9,0.3,13.3,1.5c2.1,0.5,4.3,0.5,6.4,0.8c-1.8,1-3.8,0.8-5.7,1.2c-1.9,0.4-3.6,0.6-5.3,1.1
			c-3.9,1.1-8,1.5-12,0.9c-3.4-0.5-6.8-0.7-10.2-1c-3.7-0.4-7.3-0.6-11-0.9s-7.5-0.2-11.2-0.6c-3.7-0.4-7.4-0.8-11.1-1.3L112.5,61.8
			z"/>
		<path class="st1" d="M101.7,63c-1,0.3-2,0.6-3.1,0.9c-1.6,0.4-3.3,0.7-4.9,1l-9,1.7c-1.1,0.2-2.2,0.4-3.3,0.7
			c-1.8,0.5-3.6,0.6-5.3-0.6c-0.3-0.1-0.7-0.2-1.1-0.2l-0.7,1.7c-1.9,0.4-3.9,0.2-5.8-0.5c-2.7-0.8-5.4-1.5-8-1.9
			c-2.3-0.4-4.6-1-6.8-1.6c0.8-0.3,1.6-0.5,2.4-0.7c3.6-0.5,7.2-1,10.9-1.4c3.2-0.4,6.5-0.5,9.8-0.8c2.9-0.3,5.9-0.5,8.8-0.9
			c0.4,0,0.7-0.4,1.1-0.4c1-0.3,2-0.4,3-0.3c3,0.5,5.9,1.4,8.8,2c1,0.2,2,0.5,3,0.7L101.7,63z"/>
	</g>
</g>
</svg>
