<svg version="1.1"
   xmlns="http://www.w3.org/2000/svg" xmlns:xlink="http://www.w3.org/1999/xlink" x="0px" y="0px" viewBox="0 0 236 180.8"
   style="enable-background:new 0 0 236 180.8;display:none;" xml:space="preserve">
<style type="text/css">
  .st0{fill:#1D1D1B;}
  .st1{fill:#FFFFFF;}
  .st2{opacity:0.35;enable-background:new;}
</style>
  <defs>
    <g id="03">
    <path class="st0" d="M122,88.8c-1.5,0.2-3.1,0.4-4.6,0.5c-0.5,0-1.2-0.1-1.8-0.2c-1.6-0.3-3.3-0.5-5.1-0.3c-1.2,0.1-2.5,0-3.7-0.3
      c-1-0.1-2.1-0.3-3-0.1c-1.2,0.2-2.5,0.1-3.7-0.1c-2.3-0.2-4.7-0.4-7-0.5c-0.1,0-0.3,0.1-0.4,0.1c-3.6,0.9-7.2,0.6-10.7,0
      c-2.6-0.3-5.2,0-8,0.3c-2.2-0.5-4.7-0.4-7.1,0.2c-2.2,0.5-4.4,0.3-6.6,0.4l-4.9-0.1c-0.5,0-1.1,0.1-2.1,0.3c0.7,0.3,1,0.5,1.2,0.5
      c3.4,0,6.9-0.2,10.3-0.3c1.2-0.1,2.5-0.4,3.7-0.4c1.7-0.1,3.3,0.1,4.9,0.1h1.9c1.4-0.1,2.6-0.2,4-0.2c1.7-0.1,3.3,0,4.9,0.4
      c1.8,0.4,3.7,0.5,5.6,0.3c4-0.3,8-0.1,11.9,0.7c0.8,0.2,1.5,0.2,2.3,0.2c1.6,0,3.3,0,4.9,0.4c0.3,0.1,0.4,0.1,0.7,0.1
      c0.4-0.1,0.7-0.1,1.1-0.1c0.8-0.2,1.6-0.3,2.4-0.3c2.2,0,4.4-0.3,6.6-0.4c1.2,0,2.3,0.1,3.3,0.2c0-0.3,0.1-0.7,0.1-1.1
      C122.9,88.9,122.4,88.9,122,88.8z"/>
    <path class="st0" d="M181.1,89.1c-3.3,0.1-6.6,0.3-9.8,0.5c-1.1,0.1-2.4,0.5-3.5,0.6c-1.5,0.1-3.1-0.1-4.7-0.1h-1.8
      c-1.3,0.1-2.5,0.2-3.8,0.3c-1.5,0.1-3.2,0.1-4.7-0.5c-1.8-0.5-3.6-0.6-5.4-0.3c-3.9,0.4-7.7,0.1-11.4-0.8c-0.8-0.3-1.5-0.3-2.3-0.3
      c-1.1,0-2.2,0-3.4-0.1c-4,0.1-8.1,0.3-12.1,0.4c-0.9,0.3-1.8,0.6-2.8,0.7c0,0.2,0,0.4-0.1,0.6c0.6,0,1.2,0.1,1.7,0.2
      c1.2-0.2,2.5-0.5,3.7-0.6c0.6,0,1.1,0.1,1.8,0.3c1.6,0.4,3.3,0.6,4.9,0.3c1.1-0.1,2.4,0,3.5,0.3c1,0.1,2,0.4,2.9,0.2
      c1.1-0.2,2.4-0.1,3.5,0.1c2.1,0.3,4.4,0.5,6.7,0.6c0.3,0,0.4-0.1,0.5-0.1c3.4-1.2,6.8-0.8,10.2-0.1c2.5,0.4,5,0,7.7-0.4
      c2.1,0.7,4.4,0.5,6.8-0.3c2-0.6,4.2-0.4,6.3-0.5l4.7,0.1c0.4,0,0.9-0.1,1.9-0.3C181.6,89.4,181.3,89.1,181.1,89.1z"/>
    </g>
  </defs>
</svg>
