<svg version="1.1"
   xmlns="http://www.w3.org/2000/svg" xmlns:xlink="http://www.w3.org/1999/xlink" x="0px" y="0px" viewBox="0 0 236 180.8"
   style="enable-background:new 0 0 236 180.8;display:none;" xml:space="preserve">
<style type="text/css">
  .st0{fill:#1D1D1B;}
  .st1{fill:#FFFFFF;}
  .st2{opacity:0.35;enable-background:new;}
</style>
  <defs>
    <g id="06">
    <path d="M224.9,96c-2.2,0-4.1,0-6,0c-4.7,0-9.4,0.2-14.2,0.1c-2.8,0-5.6-0.3-8.4-0.8c-2.9-0.5-5.8,0-8.6-0.1c-0.8,0-1.6,0-2.4,0
        c-1.4,0-2.9,0-4.3,0.1c-1.2,0.2-2.5,0.4-3.7,0.3c-1.7-0.2-3.5,0.3-5.1,0.3c-1.5,0-3-0.3-4.5-0.2c-1.5,0.1-3.1,0.4-4.6,0.6
        c-1.2,0.1-2.4,0-3.6,0c-2.2,0-4.5,0.1-6.7,0.1c-1.6,0-3.2-0.2-4.8-0.3c-0.4,0-0.9-0.2-1.4-0.2c-5.3-0.1-10.6-0.2-15.8-0.4
        c-4.8-0.2-9.6,0-14.3,0.5c-2.4,0.2-5,0-7.4,0.3c-5,0.6-10.1,1.5-15.1,2.3c-3,0.5-6.1,1-9.1,1.5c-0.1,0-0.2,0-0.4,0
        c-3.6,1.5-7.4,0.6-11.1,1.8c-1.7,0.5-3.5,0.1-5.1,0c-2.2-0.2-4.3-0.5-6.5-0.9c-1.4-0.3-2.8-0.8-4.2-1.4c-1.3-0.6-2.6-1.2-3.8-2
        c-0.9-0.5-1.8-1.2-2.5-2c-2.5-2.9-5.7-3.7-8.6-5.1c-1.2-0.6-2.4-1.1-3.7-1.7c0.1-0.7,0.5-1.1,0.9-1c0.1,0,0.1,0,0.1,0
        c1.4,0.5,2.7,1.1,4.1,1.6c1,0.5,2.1,0.9,3.1,1.5c1.3,0.6,2.5,1.4,3.7,2.4c1.9,1.7,3.9,3.1,6.1,4.1c3.7,1.9,7.6,2.7,11.5,2.4
        c4.9-0.3,9.8-0.6,14.6-1.1c3.7-0.4,7.5-1.3,11.3-1.9c5.7-1,11.4-2.1,17.1-2.3c4.4-0.2,8.9-0.6,13.3-0.6c4.7-0.1,9.4,0.1,14.1,0.2
        c6.8,0.1,13.5,0.5,20.2,0.4c6.4-0.1,12.9-0.6,19.3-1c2.7-0.1,5.4-0.4,8.1-0.4c3.4,0,6.8-0.3,10.2,0.3c4.6,0.8,9.2,0.5,13.8,0.5
        L220,94c0.6,0,1.2,0,1.7,0C223,94,223.6,94.3,224.9,96z"/>
      <path d="M19.4,83.4c1.7,0,3.3,0,5,0c2.7,0,5.5-0.1,8.3-0.2c0.2,0,0.5,0,0.7,0c4.1,0.7,8.2,0.8,12.4,0.5c3.9-0.2,7.9,0,11.7-0.1
        c3.2-0.1,6.6-0.3,9.8-0.4c1.7,0,3.5,0.2,5.2,0.1c2.3-0.1,4.6-0.3,6.9-0.4c3.9-0.2,7.7-0.2,11.5-0.4c6.4-0.3,12.8-0.5,19.2-1
        c4.8-0.3,9.7-0.8,14.5-1.4c5-0.5,10.1-0.9,15.1-1.9c3.8-0.7,7.6-1.1,11.5-1.6c2-0.2,4-0.5,6-1c2.7-0.5,5.3-0.4,7.9,0.2
        c2.1,0.4,4.2,0.9,6.3,1.4c1.6,0.3,3.1,1,4.5,2c-0.4,0.3-0.7,0.5-1.2,0.6c-0.6-0.1-1.2-0.4-1.9-0.5c-3.6-0.9-7.2-1.9-10.9-2.5
        c-2-0.2-4-0.1-6,0.3c-3.5,0.4-6.8,0.8-10.3,1.4c-3.2,0.5-6.3,1.2-9.4,1.7c-2.7,0.4-5.5,0.6-8.3,0.9c-5.8,0.6-11.5,1.3-17.2,1.7
        c-5.1,0.4-10.2,0.4-15.3,0.6c-4.1,0.2-8.3,0.6-12.4,0.8c-2.1,0.1-4.2,0.1-6.2,0.1c-2.5,0-5,0-7.6,0c-1.7,0-3.3,0.3-5,0.3
        c-4,0-8.1-0.1-12.1,0c-3.9,0.1-7.7,0.3-11.6,0.4c-1.7,0-3.5-0.1-5.2-0.2c-2.6,0-5.2,0.2-7.8-0.2C24.8,84.6,22,84.8,19.4,83.4z"/>
      <path d="M189.6,89c-3.7-1.4-7.2-3.7-10.4-6.8l0.1-0.6c0.6,0.2,1.2,0.5,1.9,0.9c2.7,1.8,5.3,3.6,7.9,5.4
        C189.3,88.2,189.5,88.6,189.6,89z"/>
      <path d="M33.5,87.6H32C32.7,86.3,32.7,86.3,33.5,87.6z"/>
    </g>
  </defs>
</svg>
