<svg version="1.1"
   xmlns="http://www.w3.org/2000/svg" xmlns:xlink="http://www.w3.org/1999/xlink" x="0px" y="0px" viewBox="0 0 236 180.8"
   style="enable-background:new 0 0 236 180.8;display:none;" xml:space="preserve">
<style type="text/css">
  .st0{fill:#1D1D1B;}
  .st1{fill:#FFFFFF;}
  .st2{opacity:0.35;enable-background:new;}
</style>
  <defs>
    <g id="11">
    <path class="st1" d="M99.9,57.1c-1.2,2.6-2.4,5-3.6,7.4c-0.3,0.6-0.6,1.1-1,1.6c-0.8,1.1-1.5,2.3-2.3,3.3c-1,1.4-2,2.7-3.1,3.9
        c-1.8,1.8-3.5,3.5-3.9,6.1c0,0.3-0.2,0.6-0.4,0.9c-1.6,1.8-2.4,4.1-3.4,6.3c-2,4.4-4.3,8.7-6.6,13c-1,1.5-1.2,3.4-0.7,5.2
        c0.8,0.3,1.9,1.1,2.7,0.9c2.7-0.6,4.6,0.5,6.6,2c2.5,2.1,5.4,3.7,8.5,4.7c3.3,1,6.4,2.6,9.1,4.7c1.1,0.8,2.2,1.6,3.4,2.3
        c3.7,2,7.5,3.8,11.3,5.7c1,0.5,2,0.9,3,1.4c3.7,1.9,7.3,3.8,11,5.7c1.4,0.7,3.8-0.7,3.5-2.2c-0.1-0.8,0.1-1.5,0.6-2.1
        c1-1.6,2-3.2,2.9-4.9c1.1-2,2.1-4,3.1-5.9c0.9-1.7,1.8-3.3,2.7-5c0.5-1,1.1-1.9,1.6-2.9c0.6-1.4,0.9-3,1.8-4.2
        c3-3.7,4.6-8.2,6.6-12.4s3.9-8.7,7.3-12.2c0.5-0.4,0.9-0.9,1.1-1.5c0.2-0.7,0.2-1.5-0.2-2.2c-0.9-1.1-2.1-1.9-3.4-2.4
        c-2-0.5-3.9-1.2-5.8-2c-2.5-1.1-5-2-7.5-3c-6.6-2.7-13.2-5.3-19.8-7.9c-0.3-0.1-0.6-0.3-0.9-0.4c-3.9-1.9-7.7-3.8-11.6-5.6
        c-1.5-0.7-3.1-1.3-4.5-2.1c-1.2-0.7-2.3-1.7-3.5-2.4s-2.5-0.3-2.7,0.9c-0.2,1.8-1.5,2.7-2.4,3.9c-0.2,0.3-0.3,0.5-0.4,0.8
        L99.9,57.1z M118.7,52.8v-2.1c-1.7,1-1.7,1-3.1,0.5c-0.5-0.2-1-0.2-1.5,0c-0.2,0.6-0.4,1.3-0.4,2L118.7,52.8z M73.8,89.1
        c1.9-1,1-2.8,2-3.8h-2V89.1z M164.4,85.6c-0.6-0.7-0.8-1.9-2-1.2c-0.4,0.3-0.5,0.9-0.4,1.4C162.7,86.6,163.5,86.6,164.4,85.6
        L164.4,85.6z M120.2,128.9l-2.5-0.9C118.2,129.3,118.9,129.9,120.2,128.9z M119.1,130.5l-0.6,0.1l0.3,1.6
        C119.9,131.5,119.6,131,119.1,130.5L119.1,130.5z"/>
      <path d="M99.9,57.1L99,56.2c0.1-0.3,0.3-0.6,0.4-0.8c0.9-1.2,2.2-2.1,2.4-3.9c0.1-1.1,1.5-1.5,2.7-0.9s2.3,1.7,3.5,2.4
        c1.5,0.8,3,1.4,4.5,2.1c3.9,1.9,7.7,3.8,11.6,5.6c0.3,0.1,0.6,0.3,0.9,0.4c6.6,2.7,13.2,5.3,19.8,7.9c2.5,1,5.1,1.9,7.5,3
        c1.9,0.8,3.8,1.5,5.8,2c1.3,0.5,2.5,1.4,3.4,2.4c0.3,0.7,0.4,1.4,0.2,2.2c-0.2,0.6-0.6,1.1-1.1,1.5c-3.4,3.5-5.3,7.9-7.3,12.2
        s-3.5,8.7-6.6,12.4c-0.9,1.1-1.1,2.8-1.8,4.2c-0.5,1-1.1,1.9-1.6,2.9c-0.9,1.7-1.8,3.3-2.7,5c-1,2-2,4-3.1,5.9
        c-0.9,1.7-2,3.3-2.9,4.9c-0.5,0.5-0.8,1.3-0.6,2.1c0.4,1.5-2,2.9-3.5,2.2c-3.7-1.9-7.3-3.8-11-5.7c-1-0.5-2-0.9-3-1.4
        c-3.8-1.9-7.6-3.8-11.3-5.7c-1.2-0.7-2.3-1.4-3.4-2.3c-2.7-2.1-5.8-3.7-9.1-4.7c-3.1-1-6-2.6-8.5-4.7c-2-1.5-3.9-2.6-6.6-2
        c-0.8,0.2-1.8-0.6-2.7-0.9c-0.5-1.7-0.2-3.6,0.7-5.2c2.3-4.2,4.6-8.6,6.6-13c1-2.2,1.8-4.4,3.4-6.3c0.2-0.3,0.3-0.6,0.4-0.9
        c0.4-2.6,2.1-4.4,3.9-6.1c1.1-1.2,2.2-2.5,3.1-3.9c0.8-1.1,1.6-2.2,2.3-3.3c0.4-0.5,0.7-1,1-1.6C97.5,62.1,98.6,59.7,99.9,57.1z
         M104,53.3c-0.5,0.5-1,1-1.3,1.7c-0.6,2.4-1.7,4.6-3.3,6.6c-0.3,0.4-0.6,1-0.6,1.5c-0.3,1.6-1.3,2.9-2.2,4.2
        c-2.3,3.4-4.4,6.9-7.6,9.5c-0.2,0.1-0.4,0.3-0.4,0.6c-0.5,3-2.5,5.2-3.9,7.8c-2.3,4.3-4.2,8.7-6.4,13.1c-0.6,1.3-1.4,2.5-1.1,4.1
        c1,0.5,2,0.9,2.9,1.3c2.2,1,4.2,2.2,6.2,3.6c2.2,1.7,4.7,3,7.3,3.9c3.4,1.2,6.6,2.9,9.5,5c3.8,2.5,8,4.6,12.1,6.8
        c2.1,1.1,4.4,1.9,6.5,3c3,1.5,6,3.4,9.5,4c2-3.1,4-6.2,6-9.3c0.9-1.5,1.5-3.2,2.3-4.7c0.7-1.5,1.5-3,2.4-4.4c1-1.3,1.7-2.7,2.2-4.2
        s1.2-2.9,2.1-4.2c2-2.9,3.7-6,4.9-9.2c1.1-2.8,2.4-5.6,3.8-8.3c0.5-1.3,1.3-2.6,2.2-3.7c1.1-1.1,1.7-2.6,1.7-4.1
        c-0.9-0.7-1.8-1.3-2.8-1.9c-3.3-1.5-6.7-3-10.1-4.2c-2.8-1-5.6-2.2-8.3-3.6c-2-1-4.2-1.9-6.4-2.7c-2.4-1-4.9-1.8-7.3-2.9
        c-4.4-2-8.2-5.2-13.2-5.9c-0.2-0.1-0.4-0.2-0.6-0.3L104,53.3z"/>
      <path d="M118.7,52.8l-5,0.4c0-0.7,0.1-1.4,0.4-2c0.5-0.2,1-0.2,1.5,0c1.5,0.5,1.4,0.5,3.1-0.5V52.8L118.7,52.8z"/>
      <path d="M73.8,89.1v-3.8h2C74.8,86.4,75.7,88.1,73.8,89.1z"/>
      <path d="M164.4,85.6c-1,1-1.8,1-2.4,0.2c-0.1-0.5,0-1,0.4-1.4C163.6,83.7,163.8,84.9,164.4,85.6z"/>
      <path d="M120.2,128.9c-1.3,1-2,0.3-2.5-0.9L120.2,128.9z"/>
      <path d="M119.1,130.5c0.5,0.5,0.8,1-0.3,1.8l-0.3-1.6L119.1,130.5z"/>
      <path class="st1" d="M104,53.3l5.9,2.8c0.2,0.1,0.4,0.2,0.6,0.3c5,0.7,8.9,3.9,13.2,5.9c2.4,1.1,4.9,1.9,7.3,2.9
        c2.1,0.9,4.3,1.7,6.4,2.7c2.7,1.4,5.4,2.6,8.3,3.6c3.5,1.1,6.8,2.7,10.1,4.2c1,0.5,1.9,1.2,2.8,1.9c0,1.6-0.6,3-1.7,4.1
        c-0.9,1.1-1.7,2.3-2.2,3.7c-1.4,2.7-2.7,5.4-3.8,8.3c-1.2,3.3-2.9,6.4-4.9,9.2c-0.9,1.3-1.7,2.7-2.1,4.2c-0.5,1.5-1.3,2.9-2.2,4.2
        c-0.9,1.4-1.7,2.9-2.4,4.4c-0.8,1.6-1.4,3.2-2.3,4.7c-1.9,3.1-3.9,6.1-6,9.3c-3.5-0.6-6.4-2.4-9.5-4c-2.1-1.1-4.4-1.9-6.5-3
        c-4.1-2.2-8.2-4.3-12.1-6.8c-2.9-2.1-6.1-3.8-9.5-5c-2.7-0.8-5.1-2.1-7.3-3.9c-2-1.4-4-2.6-6.2-3.6c-0.9-0.5-1.9-0.9-2.9-1.3
        c-0.2-1.5,0.5-2.8,1.1-4.1c2.1-4.4,4.1-8.8,6.4-13.1c1.4-2.6,3.3-4.8,3.9-7.8c0.1-0.2,0.2-0.4,0.4-0.6c3.2-2.6,5.3-6.1,7.6-9.5
        c0.9-1.3,1.9-2.5,2.2-4.2c0.1-0.6,0.3-1.1,0.6-1.5c1.6-1.9,2.7-4.2,3.3-6.6C103,54.3,103.5,53.8,104,53.3z"/>
    </g>
  </defs>
</svg>
