<svg version="1.1"
   xmlns="http://www.w3.org/2000/svg" xmlns:xlink="http://www.w3.org/1999/xlink" x="0px" y="0px" viewBox="0 0 236 180.8"
   style="enable-background:new 0 0 236 180.8;display:none;" xml:space="preserve">
<style type="text/css">
  .st0{fill:#1D1D1B;}
  .st1{fill:#FFFFFF;}
  .st2{opacity:0.35;enable-background:new;}
</style>
  <defs>
    <g id="26">
    <g>
      <path class="st0" d="M123.7,100.4c0.5,0,0.9,0.1,1.2,0c0.5,0,1-0.2,1.5-0.2c2.3-0.1,4.7,0.5,7-0.1c0.2,0,0.3,0,0.5,0.1
        c1.2,0.4,2.4,0.3,3.6,0.3c0.6,0,1.1,0,1.7,0.2c2.9,0.7,5.8,0.9,8.7,0.5c1.4-0.2,2.8-0.2,4.1,0.2c1.2,0.4,2.4,0.4,3.6,0.3
        c1-0.1,1.9-0.2,2.9-0.3c0.5,0,0.9,0,1.4,0c1.2,0,2.4,0.1,3.6,0c0.9-0.1,1.8-0.4,2.7-0.5c2.5-0.2,5-0.4,7.5-0.5
        c0.2,0,0.4,0.2,0.9,0.5c-0.7,0.2-1.1,0.3-1.5,0.3c-1.2,0-2.4,0-3.6,0c-1.6,0.1-3.2,0-4.8,0.5c-1.8,0.6-3.6,0.8-5.2,0.3
        c-2,0.3-3.9,0.7-5.8,0.4c-2.6-0.5-5.2-0.8-7.8,0.2c-0.1,0-0.2,0.1-0.3,0.1c-1.7-0.1-3.4-0.2-5.1-0.4c-0.9-0.1-1.8-0.2-2.7,0
        c-0.7,0.2-1.5,0-2.2-0.1c-0.9-0.2-1.8-0.3-2.7-0.2c-1.3,0.2-2.5,0.1-3.7-0.2c-0.4-0.1-0.9-0.2-1.3-0.2c-1.1,0.1-2.3,0.4-3.4,0.6
        c-0.5,0.1-0.9,0.2-1.3,1C123.5,104.7,123.7,99.9,123.7,100.4"/>
      <path class="st0" d="M123.7,100.4c0.5,0,0.9,0.1,1.2,0c0.5,0,1-0.2,1.5-0.2c2.3-0.1,4.7,0.5,7-0.1c0.2,0,0.3,0,0.5,0.1
        c1.2,0.4,2.4,0.3,3.6,0.3c0.6,0,1.1,0,1.7,0.2c2.9,0.7,5.8,0.9,8.7,0.5c1.4-0.2,2.8-0.2,4.1,0.2c1.2,0.4,2.4,0.4,3.6,0.3
        c1-0.1,1.9-0.2,2.9-0.3c0.5,0,0.9,0,1.4,0c1.2,0,2.4,0.1,3.6,0c0.9-0.1,1.8-0.4,2.7-0.5c2.5-0.2,5-0.4,7.5-0.5
        c0.2,0,0.4,0.2,0.9,0.5c-0.7,0.2-1.1,0.3-1.5,0.3c-1.2,0-2.4,0-3.6,0c-1.6,0.1-3.2,0-4.8,0.5c-1.8,0.6-3.6,0.8-5.2,0.3
        c-2,0.3-3.9,0.7-5.8,0.4c-2.6-0.5-5.2-0.8-7.8,0.2c-0.1,0-0.2,0.1-0.3,0.1c-1.7-0.1-3.4-0.2-5.1-0.4c-0.9-0.1-1.8-0.2-2.7,0
        c-0.7,0.2-1.5,0-2.2-0.1c-0.9-0.2-1.8-0.3-2.7-0.2c-1.3,0.2-2.5,0.1-3.7-0.2c-0.4-0.1-0.9-0.2-1.3-0.2c-1.1,0.1-2.3,0.4-3.4,0.6
        c-0.5,0.1-0.9,0.2-1.3,1C123.5,104.7,123.7,99.9,123.7,100.4"/>
    </g>
    <g>
      <path class="st0" d="M111.2,100.4c-0.5,0-0.9,0.1-1.3,0c-0.5,0-1.1-0.2-1.6-0.2c-2.4-0.1-4.9,0.5-7.3-0.1c-0.2,0-0.4,0-0.5,0.1
        c-1.2,0.4-2.5,0.3-3.7,0.3c-0.6,0-1.2,0-1.8,0.2c-3,0.7-6,0.9-9.1,0.5c-1.4-0.2-2.9-0.2-4.3,0.2c-1.2,0.4-2.5,0.4-3.7,0.3
        c-1-0.1-2-0.2-3-0.3c-0.5,0-1,0-1.4,0c-1.2,0-2.5,0.1-3.7,0c-0.9-0.1-1.9-0.4-2.8-0.5c-2.6-0.2-5.2-0.4-7.8-0.5
        c-0.2,0-0.4,0.2-0.9,0.5c0.8,0.2,1.2,0.3,1.5,0.3c1.2,0,2.5,0,3.7,0c1.7,0.1,3.4,0,5,0.5c1.9,0.6,3.7,0.8,5.4,0.3
        c2.1,0.3,4.1,0.7,6.1,0.4c2.7-0.5,5.4-0.8,8.1,0.2c0.1,0,0.2,0.1,0.4,0.1c1.8-0.1,3.6-0.2,5.3-0.4c0.9-0.1,1.9-0.2,2.8,0
        c0.7,0.2,1.5,0,2.3-0.1c0.9-0.2,1.9-0.3,2.8-0.2c1.3,0.2,2.6,0.1,3.9-0.2c0.5-0.1,0.9-0.2,1.4-0.2c1.2,0.1,2.4,0.4,3.5,0.6
        c0.5,0.1,0.9,0.2,1.3,1C111.4,104.7,111.2,99.9,111.2,100.4"/>
      <path class="st0" d="M111.2,100.4c-0.5,0-0.9,0.1-1.3,0c-0.5,0-1.1-0.2-1.6-0.2c-2.4-0.1-4.9,0.5-7.3-0.1c-0.2,0-0.4,0-0.5,0.1
        c-1.2,0.4-2.5,0.3-3.7,0.3c-0.6,0-1.2,0-1.8,0.2c-3,0.7-6,0.9-9.1,0.5c-1.4-0.2-2.9-0.2-4.3,0.2c-1.2,0.4-2.5,0.4-3.7,0.3
        c-1-0.1-2-0.2-3-0.3c-0.5,0-1,0-1.4,0c-1.2,0-2.5,0.1-3.7,0c-0.9-0.1-1.9-0.4-2.8-0.5c-2.6-0.2-5.2-0.4-7.8-0.5
        c-0.2,0-0.4,0.2-0.9,0.5c0.8,0.2,1.2,0.3,1.5,0.3c1.2,0,2.5,0,3.7,0c1.7,0.1,3.4,0,5,0.5c1.9,0.6,3.7,0.8,5.4,0.3
        c2.1,0.3,4.1,0.7,6.1,0.4c2.7-0.5,5.4-0.8,8.1,0.2c0.1,0,0.2,0.1,0.4,0.1c1.8-0.1,3.6-0.2,5.3-0.4c0.9-0.1,1.9-0.2,2.8,0
        c0.7,0.2,1.5,0,2.3-0.1c0.9-0.2,1.9-0.3,2.8-0.2c1.3,0.2,2.6,0.1,3.9-0.2c0.5-0.1,0.9-0.2,1.4-0.2c1.2,0.1,2.4,0.4,3.5,0.6
        c0.5,0.1,0.9,0.2,1.3,1C111.4,104.7,111.2,99.9,111.2,100.4"/>
    </g>
    <g>
      <path d="M67,51.8c0.2-1.7,0.4-3,0.6-4.4s0.5-2.4,0.6-3.5c0.2-1.6,0.3-3.1,0.2-4.7c-0.2-2.4,0.4-3.2,2.9-2.6
        c0.8,0.2,1.6,0.4,2.4,0.4c4.8,0.3,9.7,0.6,14.5,1c2.9,0.3,5.8,0.9,8.7,1.3c3.5,0.4,7.1,0.7,10.7,1.1c1.3,0.1,2.7,0.5,4,0.5
        c6.3,0.1,12.6,0.1,18.8,0.2c1.8,0,2.2,0.5,1.7,2.2c-0.1,0.7-0.4,1.4-0.7,2c-1.8,2.3-2.4,5.1-3.2,8.1c2.7,0,5.2,0.1,7.8,0
        c5.5-0.2,11,0.9,16.4,1.4c0.8,0.3,1.6,0.1,2.2-0.3c0.8-0.7,1.9-0.7,2.6,0.1c0.1,0.1,0.2,0.3,0.3,0.4c1.2,2.2,3.7,2.6,5.3,4.3
        c1.1,1,2.3,2,3.6,2.9c7.8-0.9,15.6-1.7,23.4-2.6c0.9-0.3,1.9-0.6,2.8-1c0.8-0.3,1.7-0.4,2.6-0.2c0.6,0.4,0.9,1,1,1.7
        c-0.1,0.5-0.5,0.9-1,1.1c-2.2,0.5-4.4,0.8-6.5,1.3c-3.2,0.7-6.4,1.5-9.5,2.2c-2.3,0.5-4.6,1.2-7,1.6c-1.1,0.1-1.9,1.1-1.8,2.1
        c-0.3,3.2-0.7,6.3-0.9,9.5c-0.1,1.8,0.2,3.6,0.2,5.4c0.1,4.3,0.1,8.6,0.1,12.9c0,1.7,0.2,3.5,0.2,5.2c0,4.3,0,8.6,0,13l1.6,0.3
        c0,0.2,0,0.4,0,0.6c-0.4,0.7-0.8,1.4-1.4,2.1c-0.5,0.5-1.5,1.3-1.8,1.2c-1.3-0.6-2.4-0.1-3.5,0.2c-4.1,1-8.2,2-12.3,3.1
        c-1,0.3-2,0.6-3,0.8c-2.6,0.6-5.3,1.1-7.9,1.8c-3.2,0.8-6.3,1.7-9.4,2.8c-3.3,1.1-6.5,2.5-9.9,3.7c-2,0.7-4,1.2-6,1.6
        c-0.7,0.1-1.4,0.1-2-0.2c-4.9-2.7-10.2-4-15.5-5.4c-3.6-1-7.3-1.6-10.7-3.4c-1-0.4-2-0.7-3-0.9c-1.1-0.3-2.4-0.5-3.5-0.9
        c-2.8-1-5.8-1.6-8.9-1.6c-1.6,0-3.1-0.4-4.7-0.5c-0.7,0-1.3,0.1-2,0.2c-1,0.2-2.1-0.4-2.4-1.4c-0.1-0.6-0.2-1.3-0.1-1.9
        c0.2-3.4,0.6-6.8,0.8-10.2c0.1-1.5-0.1-3-0.1-4.5c0-2.3,0.1-4.6,0.1-6.9c0-4,0-8,0-12c0-2.9,0-5.9-0.1-8.8c0-1.6-0.1-3.2-0.1-4.8
        c0-1.9-0.8-3.6-2.2-4.8c-2.5-2.1-4.8-4.4-7.2-6.7c-0.6-0.4-1-1-1.3-1.7c-1.1-3.5-3.7-5.2-6.9-6.4c-0.5-0.1-0.9-0.3-1.2-0.7
        C45.1,48.6,45,48,45,47.4c0.4-0.4,0.9-0.6,1.4-0.5c1.4,0,2.8,0.4,4,1.1c1.3,0.9,3.1,1,4.8,1.4c2.7,0.7,5.4,1.3,8.1,2
        C64.6,51.3,65.6,51.5,67,51.8z M105.7,64c0.4,0.7,0.8,1.3,1.2,2c1.9,2.4,3.9,4.6,5.8,7c0.7,0.9,1.3,1.7,2.1,2.7l8-2.6
        c0.5-0.2,1.1-0.4,1.6-0.5c2.9-0.6,5.7-1.2,8.6-1.9c0.5-0.2,0.9-0.5,1.3-0.9c0.7-0.7,1.7-0.9,2.5-0.6c2.1,0.6,4.4,0.5,6.5-0.3
        c1.4-0.5,2.7-0.9,4.1-1.3l7.6-2.5c-6.3-0.8-12.5-1.3-18.7-1.8h-0.2c-1.6-0.1-3.1-0.2-4.7-0.4c-0.7-0.1-1.4-0.2-2.1-0.2
        c-0.7-0.2-1.4,0.3-1.6,1c0,0.2,0,0.4,0,0.5c0,1.5-0.1,3-0.4,4.5c0.1,0.9-0.4,1.7-1.2,2.1c-1-2.7,0.4-5.5-0.7-8
        c-0.3-0.1-0.6-0.1-0.9-0.1c-4,0.4-8.1,0.8-12.1,1.1C110,63.9,107.8,64.6,105.7,64c1.1-1.7,3-1.8,4.8-1.9c4.3-0.4,8.5-0.6,13.4-1
        c-1.6-0.8-2.8-1.3-3.9-1.8c-1.5-0.8-2.9-1.8-4.4-2.4c-1.9-0.7-3.9-1.4-5.9-1.9c-1.2-0.3-1.5-0.9-1.2-2.2c5.8,0,11.5,1,17.3,0.3
        c0.5-1.2,1-2.3,1.4-3.5c0.3-1.4,1-2.7,1.9-3.8c0.6-0.7,0.8-1.7,0.4-2.6c-2.8-0.1-5.5-0.2-8.2-0.3c-1.4-0.1-2.9-0.4-4.3-0.4
        c-8-0.1-16-0.8-23.8-2.2c-2.4-0.4-4.8-0.6-7.1-0.9c-1.2,0-2.4,0-3.6-0.1c-3.2-0.8-6.5-0.6-9.8-0.8c-1.6-0.1-1.7,0.1-2,1.7
        c-0.4,2-0.6,4.1-1.2,6.1c-0.4,2-0.5,4-0.4,6c1,0.2,1.8,0.5,2.7,0.7c2,0.4,4.1,0.8,6.1,1.2c6.7,1.3,13.3,3.2,20.2,3.6
        c1.6,0.1,3.3,0.3,4.1,2.4C102.9,61.7,104.5,62.7,105.7,64L105.7,64z M66.3,67.7c0,1.6,0,2.7,0,3.8c0.1,1.5,0.4,3,0.4,4.5
        c0,1.8-0.5,3.5-0.4,5.2c0.3,4.5,0.3,9,0,13.6c-0.1,1-0.1,2.1-0.1,3.1c0,5.1,0.1,10.2-0.1,15.3c-0.1,4.1,0.1,4.6,4.2,4.9
        c6.2,0.3,12.1,2,18,3.7c4.6,1.3,9.2,2.7,13.8,4c1.7,0.5,3.4,0.9,5,1.5c2.3,0.8,4.5,1.8,7.2,2.9c0.1-2.9,0.4-5.3,0.3-7.8
        c-0.1-3.3-0.5-6.5-0.8-9.8c-0.2-2.2-0.4-4.4-0.5-6.6c-0.1-0.9-0.1-1.7-0.1-2.6c0.1-2,0.5-4,0.5-5.9c0-2.9-0.1-5.8-0.3-8.6
        c-0.4-3.2-0.4-6.5,0.1-9.7c1.1,0.9,1.6,2.3,1.3,3.7c-0.1,1-0.1,2,0,3c0.1,1.4,0.4,2.7,0.5,4c0.1,2.4,0.1,4.8,0.1,7.1
        c0.1,0.6,0.1,1.1,0,1.7c-1.1,4.9-0.1,9.9,0.3,14.7c0.4,4,1,7.9,0.8,11.9c-0.1,1.8,0,3.2,1.4,4.8c0.9-0.2,1.8-0.4,2.8-0.7
        c0.8-0.2,1.5-0.4,2.3-0.6c1.4-0.5,2.9-0.9,4.3-1.4c2.1-0.8,4.2-1.8,6.4-2.5c2.8-0.9,5.7-1.6,8.6-2.2c4-0.8,7.9-1.9,11.8-3.1
        s7.9-1.8,11.9-2.6c2.5-0.5,2.7-0.9,2.7-3.4s0.1-4.9,0.2-7.4c0-0.9,0.1-1.9,0.1-2.8c-0.2-4.6-0.4-9.2-0.6-13.9
        c-0.1-2.8,0.1-5.7,0.1-8.5c0-2.3,0-4.6,0-6.9c-0.1-2.5,1-5.1-0.5-7.6c-5.7,1.1-11.5,1.7-17.1,3.3c-2.5,0.7-5.1,1.3-7.6,2
        c-2.3,0.6-4.6,1.2-6.9,1.8c-0.6,0-1.2,0-1.9-0.2l1.9-1.6c-0.8-0.7-1.9-0.8-2.8-0.3c-1.2,0.5-2.5,1-3.8,1.5
        c-1.7,0.6-3.5,1.2-5.2,1.8c0.8,0.1,1.6,0.1,2.4-0.1c0.7-0.1,1.4-0.2,2.1-0.3s1.4-0.1,2.1-0.2l0.1,0.5c-0.6,0.2-1.1,0.4-1.7,0.5
        c-1.6,0.3-3.3,0.6-4.9,1c-1.8,0.6-3.6,1.1-5.5,1.5c-1.8,0.2-3.8-0.4-5.6,0.5c-0.5,0.1-1.1,0.1-1.6,0c-3-0.4-5.9-1.2-8.8-2.3
        c-3.1-1-6.3-1.9-9.5-2.6c-2.1-0.5-4.2-0.7-6.4-1c-2.8-0.5-5.5-1.1-8.2-1.5c-2.6-0.2-5.2-0.8-7.6-1.8C69.5,68.2,67.9,67.9,66.3,67.7
        z M113,77.4l0.3-0.4c-2-2.8-3.9-5.6-6-8.3c-1.2-1.6-2.5-3.1-3.8-4.6c-1.5-2.1-3.6-3.6-6.1-4.3c-5-1-10-1.9-15-2.9
        c-3.8-0.7-7.5-1.5-11.2-2.3c-6.5-1.4-12.9-2.9-19.6-4.4c1.2,1.4,2.5,2.3,3.1,3.6c0.9,1.9,2.2,3.7,3.8,5.1c4,3.6,7.7,7.6,13.3,8.7
        c0.8,0.2,1.5,0.5,2.2,0.8c0.5,0.2,1.1,0.3,1.6,0.4L87.4,71c1.2,0.3,2.5,0.5,3.8,0.7c5.5,0.2,10.5,2.4,15.6,4.1
        C108.9,76.4,110.9,76.8,113,77.4z M114.9,54.5V55l4,2c3.6,1.8,7.3,3.6,11.3,4.1c3.5,0.5,7,0.8,10.5,1.1c4.9,0.4,9.7,0.7,14.5,0.8
        c0.9,0,1.7,0.5,2,1.4l7.1-1.7c-1-0.8-1.8-1.4-2.5-2c-3.2-2.6-7.2-4.2-11.3-4.4c-0.4,0-0.8-0.2-1.2-0.2c-2.6-0.5-5.3-0.9-8-1.2
        c-8-0.3-16.1-0.3-24.2-0.4C116.4,54.5,115.7,54.5,114.9,54.5L114.9,54.5z M168.5,64.5l-0.1-0.7l-12.8,2.9
        C160,66.5,164.3,65.8,168.5,64.5L168.5,64.5z M171.7,63.7l0.1,0.7l7.9-1.4C176.8,62.3,174.3,63.1,171.7,63.7L171.7,63.7z"/>
      <path d="M189,51.4l0.7-1.5l2.3,1C191.2,52,191.2,52,189,51.4z"/>
      <path d="M137.3,47.5l0.2,1.2c-0.2,0-0.4,0-0.6,0c-0.1-0.4-0.1-0.7-0.2-1.1L137.3,47.5z"/>
      <path d="M166.6,119.7l1.3-0.1v0.4l-1.2,0.2L166.6,119.7z"/>
      <path class="st1" d="M66.3,67.7c1.6,0.2,3.3,0.6,4.9,1.1c2.4,0.9,5,1.5,7.6,1.8c2.8,0.4,5.5,1,8.2,1.5c2.1,0.4,4.3,0.6,6.4,1
        c3.2,0.7,6.4,1.5,9.5,2.6c2.8,1.1,5.8,1.9,8.8,2.3c0.5,0.1,1.1,0.1,1.6,0c1.8-0.9,3.8-0.3,5.6-0.5c1.9-0.4,3.7-0.9,5.5-1.5
        c1.6-0.4,3.3-0.6,4.9-1c0.6-0.1,1.2-0.3,1.7-0.5l-0.1-0.5c-0.7,0.1-1.4,0.1-2.1,0.2s-1.4,0.2-2.1,0.3c-0.8,0.2-1.6,0.2-2.4,0.1
        c1.8-0.6,3.5-1.1,5.2-1.8c1.3-0.5,2.5-1,3.8-1.5c0.9-0.5,2-0.4,2.8,0.3l-1.9,1.7c0.6,0.1,1.2,0.2,1.9,0.2c2.3-0.5,4.6-1.2,6.9-1.8
        c2.5-0.7,5.1-1.3,7.6-2c5.6-1.6,11.4-2.1,17.1-3.3c1.5,2.5,0.4,5.1,0.5,7.6c0.1,2.3,0.1,4.6,0,6.9c0,2.8-0.2,5.7-0.1,8.5
        c0.1,4.6,0.4,9.2,0.6,13.9c0,0.9-0.1,1.9-0.1,2.8c-0.1,2.5-0.1,4.9-0.2,7.4s-0.2,2.9-2.7,3.4c-4,0.9-8,1.4-11.9,2.6
        s-7.8,2.3-11.8,3.1c-2.9,0.6-5.8,1.3-8.6,2.2c-2.2,0.7-4.3,1.7-6.4,2.5c-1.4,0.5-2.8,1-4.3,1.4c-0.8,0.2-1.5,0.4-2.3,0.6
        c-1,0.2-2,0.5-2.8,0.7c-1.4-1.6-1.5-3-1.4-4.8c0.2-4-0.5-7.9-0.8-11.9c-0.5-4.9-1.4-9.8-0.3-14.7c0.1-0.6,0.1-1.1,0-1.7
        c0-2.4,0-4.8-0.1-7.1c0-1.4-0.3-2.7-0.5-4c-0.1-1-0.1-2,0-3c0.3-1.4-0.2-2.8-1.3-3.7c-0.5,3.2-0.5,6.5-0.1,9.7
        c0.2,2.9,0.3,5.7,0.3,8.6c0,2-0.3,4-0.5,5.9c0,0.9,0,1.7,0.1,2.6c0.2,2.2,0.3,4.4,0.5,6.6c0.3,3.3,0.7,6.5,0.8,9.8
        c0.1,2.4-0.1,4.9-0.3,7.8c-2.7-1.1-4.9-2-7.2-2.9c-1.6-0.6-3.4-1-5-1.5c-4.6-1.3-9.2-2.7-13.8-4c-5.9-1.7-11.8-3.4-18-3.7
        c-4.1-0.2-4.3-0.7-4.2-4.9c0.1-5.1,0-10.2,0.1-15.3c0-1,0-2.1,0.1-3.1c0.3-4.5,0.3-9.1,0-13.6c-0.1-1.7,0.4-3.5,0.4-5.2
        c0-1.5-0.3-3-0.4-4.5C66.3,70.4,66.3,69.3,66.3,67.7z"/>
      <path class="st1" d="M105.7,64c-1.2-1.3-2.8-2.3-3.4-3.8c-0.9-2.1-2.5-2.4-4.1-2.4c-6.9-0.4-13.5-2.3-20.2-3.6
        c-2-0.4-4.1-0.8-6.1-1.2c-0.9-0.2-1.7-0.4-2.7-0.7c-0.1-2,0-4,0.4-6c0.5-2,0.8-4.1,1.2-6.1c0.3-1.6,0.4-1.8,2-1.7
        c3.3,0.2,6.5,0,9.8,0.8c1.2,0.1,2.4,0.2,3.6,0.1c2.4,0.2,4.8,0.4,7.1,0.9c7.9,1.3,15.8,2.1,23.8,2.2c1.4,0,2.9,0.3,4.3,0.4
        c2.7,0.1,5.4,0.2,8.2,0.3c0.4,0.9,0.3,1.9-0.4,2.6c-0.9,1.1-1.6,2.4-1.9,3.8c-0.4,1.2-0.9,2.3-1.4,3.5c-5.8,0.8-11.5-0.2-17.3-0.3
        c-0.4,1.3,0,1.9,1.2,2.2c2,0.5,4,1.1,5.9,1.9c1.5,0.6,2.9,1.6,4.4,2.4c1.1,0.6,2.2,1.1,3.9,1.8c-4.8,0.4-9.1,0.6-13.4,1
        C108.7,62.2,106.8,62.3,105.7,64L105.7,64z M111.1,50.7c0.8,0.6,1,1.9,2.2,1.1c0.3-0.4,0.3-0.9,0.1-1.4
        C112.8,49.4,112.1,49.6,111.1,50.7z M80.8,42.8l-0.4-0.4c-0.4,0.2-0.8,0.5-1.2,0.8c0.1,0.3,0.2,0.6,0.4,0.9L80.8,42.8z"/>
      <path class="st1" d="M113,77.4c-2-0.6-4.1-1-6.1-1.7c-5.1-1.8-10.1-3.9-15.6-4.1c-1.3-0.1-2.5-0.4-3.8-0.7l-11.8-2.2
        c-0.5-0.1-1.1-0.2-1.6-0.4c-0.7-0.3-1.5-0.6-2.2-0.8c-5.6-1.1-9.3-5.1-13.3-8.7c-1.6-1.4-2.9-3.2-3.8-5.1c-0.6-1.3-1.9-2.3-3.1-3.6
        c6.7,1.5,13.1,3,19.6,4.4c3.7,0.8,7.5,1.6,11.2,2.3c5,1,10,1.9,15,2.9c2.5,0.6,4.7,2.2,6.1,4.3c1.2,1.6,2.6,3,3.8,4.6
        c2,2.7,4,5.5,6,8.3L113,77.4z"/>
      <path class="st1" d="M114.9,54.5c0.8,0,1.5,0,2.3,0c8.1,0.1,16.1,0.1,24.2,0.4c2.7,0.2,5.4,0.6,8,1.2c0.4,0.1,0.8,0.2,1.2,0.2
        c4.1,0.3,8.1,1.8,11.3,4.4c0.8,0.6,1.5,1.2,2.5,2l-7.1,1.7c-0.3-0.9-1.1-1.5-2-1.4c-4.9-0.2-9.7-0.5-14.5-0.8
        c-3.5-0.3-7-0.6-10.5-1.1c-4-0.6-7.7-2.3-11.3-4.1l-4-2L114.9,54.5z"/>
      <path class="st1" d="M168.5,64.4c-4.2,1.3-8.5,2.1-12.9,2.1l12.8-2.9L168.5,64.4z"/>
      <path class="st1" d="M171.7,63.7c2.6-0.5,5.2-1.4,8-0.6l-7.9,1.4L171.7,63.7z"/>
      <path d="M111.1,50.7c1-1.1,1.7-1.2,2.3-0.3c0.2,0.5,0.1,1-0.1,1.4C112.1,52.6,111.9,51.3,111.1,50.7z"/>
      <path d="M80.8,42.8L79.6,44c-0.2-0.3-0.3-0.6-0.4-0.9c0.4-0.3,0.8-0.6,1.2-0.8L80.8,42.8z"/>
    </g>
    </g>
  </defs>
</svg>
