<svg version="1.1"
   xmlns="http://www.w3.org/2000/svg" xmlns:xlink="http://www.w3.org/1999/xlink" x="0px" y="0px" viewBox="0 0 236 180.8"
   style="enable-background:new 0 0 236 180.8;display:none;" xml:space="preserve">
<style type="text/css">
  .st0{fill:#1D1D1B;}
  .st1{fill:#FFFFFF;}
  .st2{opacity:0.35;enable-background:new;}
</style>
  <defs>
    <g id="20">
    <path class="st1" d="M171,118.1c0-0.4,0-0.8,0-1.2c-0.3-1.2-0.5-2.4-0.7-3.7c-0.2-3-0.1-5.8-0.3-8.8c-0.2-2.8-0.7-5.5-0.9-8.2
        c-0.1-1.7,0-3.6,0.2-5.3c0.1-1,0.5-2,0.5-3.1c0.1-2.5,0-5.2-0.1-7.9c0-3.2-0.3-6.3,0.5-9.4c0.3-1.2-0.6-2-1.6-2.3
        c-1.1-0.4-2.1-0.6-3.4-0.7c-2.4-0.2-4.9-0.1-7.2-0.5c-5.7-1-11.4-2.4-17.3-2.9c-1.5-0.1-3.1-0.3-4.6-0.4c-0.9,0-1.7-0.3-2.3-1
        c-0.7-0.9-1.9-1.4-3.1-1.2c-2,0.2-4.2,0.3-6.2,0.5c-4,0.3-8,0.7-11.9,0.8c-7.9,0.2-15.8,0.1-23.7,0.9C86,64,83.2,63.6,80.3,64
        c-4.1,0.5-8.3,0.6-12.4,0.4c-0.6-0.1-1.2,0.1-1.6,0.5c-0.4,1-1.1,1.9-0.9,3.4c0.6,3.3,1,6.6,1.1,9.9c0.3,3.9,0.3,7.8,0.5,11.7
        c0.1,0.9,0,1.7-0.3,2.7c-0.4,1.4-0.5,2.9-0.3,4.3c0.6,5.3,1.7,10.6,0.2,16c-0.3,0.8,0.2,1.7,1,1.9c0.1,0,0.2,0,0.3,0.1
        c1.9,0.5,3.9,1,5.8,1.6c5.2,1.5,10.5,3.1,15.7,4.7c2.9,0.9,5.6,2,8.6,2.9c3.2,0.9,6.4,1.6,9.7,2.5c1.6,0.3,3.2,1.1,4.5,2.2
        c0.7,0.5,1.6,0.7,2.4,0.5c2.9-0.6,5.6-1.5,8.5-2c6.8-1.3,13.7-2.4,20.4-3.7c1.9-0.4,3.8-0.8,5.6-1.4c3.5-1,6.8-2.2,10.3-3.1
        c2.9-0.6,5.6-1.5,8.6-1.2L171,118.1z"/>
      <path d="M171,118.1l-3.2-0.3c-3-0.3-5.8,0.6-8.6,1.2c-3.5,0.8-6.8,2-10.3,3.1c-1.8,0.5-3.8,1-5.6,1.4c-6.8,1.2-13.7,2.3-20.4,3.7
        c-2.9,0.5-5.6,1.5-8.5,2c-0.8,0.2-1.7,0-2.4-0.5c-1.2-1.1-2.8-1.9-4.5-2.2c-3.2-0.9-6.4-1.6-9.7-2.5c-2.9-0.8-5.6-2-8.6-2.9
        c-5.2-1.6-10.4-3.2-15.7-4.7c-1.9-0.6-3.9-1-5.8-1.6c-0.8-0.1-1.4-0.9-1.3-1.7c0-0.1,0-0.2,0.1-0.3c1.5-5.3,0.4-10.7-0.2-16
        c-0.3-1.4-0.2-3,0.3-4.3c0.3-0.8,0.4-1.7,0.3-2.7c-0.1-3.9-0.2-7.9-0.5-11.7c-0.2-3.4-0.6-6.6-1.1-9.9c-0.3-1.4,0.4-2.3,0.9-3.4
        c0.4-0.4,1.1-0.6,1.6-0.5c4.2,0.2,8.3,0.1,12.4-0.4c2.9-0.4,5.7,0,8.6-0.3c7.9-0.8,15.8-0.7,23.7-0.9c4-0.1,8-0.5,11.9-0.8
        c2-0.1,4.2-0.2,6.2-0.5c1.1-0.2,2.3,0.2,3.1,1.2c0.5,0.7,1.4,1.1,2.3,1c1.5,0.1,3.1,0.3,4.6,0.4c5.8,0.4,11.5,1.8,17.3,2.9
        c2.3,0.4,4.9,0.3,7.2,0.5c1.1,0.1,2.2,0.3,3.4,0.7c1,0.4,1.9,1.1,1.6,2.3c-0.7,3.2-0.5,6.3-0.5,9.4c0,2.5,0.1,5.2,0.1,7.9
        c0,1-0.5,2-0.5,3.1c-0.2,1.7-0.3,3.6-0.2,5.3c0.2,2.8,0.7,5.5,0.9,8.2c0.2,3,0.1,5.8,0.3,8.8c0.2,1.2,0.4,2.4,0.7,3.7
        C171.1,117.3,171,117.7,171,118.1z M165.4,69.2c-0.4,0-0.9-0.1-1.3-0.1c-1.5,0-3.1,0-4.6-0.2c-4.5-0.7-9-1.6-13.5-2.2
        c-3.9-0.5-7.9-1-11.8-1.2c-1.7,0-3.5-0.5-5.1-1.2c-0.4-0.2-0.9-0.4-1.3-0.4c-2.4,0.1-4.9,0.2-7.3,0.4c-1.9,0.1-3.9,0.3-5.8,0.3
        c-6,0.1-12,0.1-18,0.2c-5.3,0.1-10.6,0.5-15.8,0.7c-1,0-2.1,0.2-3.2,0.3c-1,0.1-2,0.1-3.1,0.2c1.2,0.5,2.5,0.9,3.9,1
        c2.5,0.2,5.2,0.4,7.8,0.9c3.6,0.8,7.1,1.3,10.8,1.5c1.6,0,3.1,0.8,4.1,2c-0.4,0.1-0.8,0.1-1.2,0.1c-2.3-0.4-4.6-0.8-6.9-1.1
        c-2.5-0.4-5.1-0.8-7.8-1.1c-3.3-0.4-6.4-0.7-9.7-1c-1.6-0.2-3.3-0.2-5-0.3c-0.2,0-0.3-0.1-0.5-0.2c-1.4-1-1.9-0.8-2.1,0.7
        c0,0.6,0,1.3,0.1,1.9c0.1,2,0.3,4.1,0.4,6.1c0.1,3.8,0.3,7.6,0.3,11.4c0,2-0.2,4.1-0.2,6.1c-0.1,1-0.1,2,0,3.2c0.2,3,0.6,6,0.9,9
        c0.1,1.7,0.1,3.5,0.2,5.3c2.2-0.5,2.5-0.3,2.1,2c1,0.4,2,0.9,3.2,1.2c6.6,2,13.2,4.1,19.8,6.1c3.8,1.1,7.6,2.1,11.4,3.3
        c0.3,0.1,0.6,0.1,0.9,0c1.1-1,1.8-0.6,2.2,0.7c0.3,0.4,0.7,0.6,1.1,0.5c0.3-0.3,0.6-0.7,0.6-1.1c0.1-0.5-0.1-1.1,0-1.7
        c0.2-0.7,0.5-1.4,0.8-2l2.9,6.6c0.7,0,1.4-0.1,2.2-0.2c2.8-0.6,5.5-1.3,8.3-1.8c3.9-0.7,7.6-1.3,11.5-2c4.8-0.9,9.7-1.4,14.3-3.1
        c5.1-1.8,10.5-2.7,15.9-3.8c0.5-0.1,1-0.2,1.5-0.4c0-1.1,0-2,0-3.1c0-3.8,0.1-7.6-0.2-11.4c-0.4-4.6-1.2-9.1,0.2-13.6
        c0.2-0.9,0.2-1.7,0.1-2.7c-0.1-3.4-0.1-6.6-0.2-10c0-1.1-0.2-2.2-0.3-3.4c-0.5-0.1-1.1-0.1-1.6-0.1c-4.4,0.4-8.8,0.8-13.2,1.2
        c-6.7,0.6-13.5,1.2-20.2,1.6c-6,0.4-12,0.6-17.9,0.9c-1.1,0.1-1.5-0.7-2-1.5c0.2-0.3,0.5-0.5,0.8-0.6
        C130.9,72.7,148.3,71.4,165.4,69.2L165.4,69.2z"/>
      <path class="st1" d="M165.4,69.1c-17.2,2.2-34.5,3.5-51.8,3.9c-0.3,0.1-0.6,0.4-0.8,0.6c0.5,0.8,0.8,1.5,2,1.5
        c6-0.3,12-0.5,17.9-0.9c6.7-0.5,13.5-1.1,20.2-1.6c4.4-0.4,8.8-0.8,13.2-1.2c0.6,0,1.1,0,1.6,0.1c0.1,1.1,0.3,2.2,0.3,3.4
        c0.1,3.4,0.2,6.6,0.2,10c0.1,0.9,0.1,1.8-0.1,2.7c-1.3,4.5-0.6,9-0.2,13.6c0.4,3.8,0.2,7.6,0.2,11.4c0,1,0,1.9,0,3.1
        c-0.5,0.1-1,0.3-1.5,0.4c-5.3,1-10.7,1.8-15.9,3.8c-4.6,1.6-9.5,2.1-14.3,3.1c-3.9,0.8-7.6,1.3-11.5,2c-2.8,0.5-5.5,1.2-8.3,1.8
        c-0.7,0.1-1.4,0.2-2.2,0.2l-2.9-6.6c-0.3,0.7-0.6,1.3-0.8,2c-0.1,0.5,0.1,1.1,0,1.7c0,0.4-0.2,0.8-0.6,1.1c-0.4,0-0.9-0.2-1.1-0.5
        c-0.5-1.3-1.1-1.7-2.2-0.7c-0.3,0.1-0.6,0.1-0.9,0c-3.9-1-7.6-2.1-11.4-3.3c-6.6-2-13.3-4.1-19.8-6.1c-1.1-0.3-2.1-0.8-3.2-1.2
        c0.4-2.3,0.1-2.5-2.1-2c0-1.8,0-3.6-0.2-5.3c-0.2-3-0.6-6-0.9-9c-0.1-1-0.1-2,0-3.2c0.1-2,0.3-4.1,0.2-6.1c0-3.8-0.2-7.6-0.3-11.4
        c-0.1-2-0.3-4.1-0.4-6.1c-0.1-0.6-0.1-1.3-0.1-1.9c0.2-1.5,0.7-1.7,2.1-0.7c0.1,0.1,0.3,0.2,0.5,0.2c1.6,0.1,3.4,0.2,5,0.3
        c3.3,0.3,6.4,0.6,9.7,1c2.5,0.3,5.2,0.7,7.8,1.1c2.3,0.4,4.6,0.7,6.9,1.1c0.4,0,0.8,0,1.2-0.1c-1-1.2-2.4-2-4.1-2
        c-3.7-0.2-7.2-0.8-10.8-1.5c-2.5-0.4-5.1-0.7-7.8-0.9c-1.3-0.1-2.7-0.5-3.9-1c1-0.1,2-0.1,3.1-0.2c1-0.1,2.1-0.3,3.2-0.3
        c5.3-0.3,10.6-0.6,15.8-0.7c6-0.2,12-0.1,18-0.2c1.9,0,3.9-0.2,5.8-0.3c2.4-0.1,4.9-0.3,7.3-0.4c0.5,0,0.9,0.2,1.3,0.4
        c1.5,0.8,3.3,1.2,5.1,1.2c4,0.2,7.9,0.6,11.8,1.2c4.5,0.6,9,1.5,13.5,2.2c1.5,0.1,3.1,0.2,4.6,0.2C164.5,69,165,69.1,165.4,69.1z
         M109.9,120.1c1.7-0.2,2.2-0.6,2.1-2c0-1-0.2-2-0.2-3.2c-0.1-4.1-0.3-8.2-0.1-12.2c0.4-8.9,1.5-17.8,0.3-26.7
        c-0.1-0.9,0.5-2.2-1-2.2c-1.2,0-0.9,1.4-0.9,2.1c0,3,0.4,5.8,0.4,8.8c-0.1,6.2-0.1,12.4-0.6,18.7c-0.4,5.5,0.2,10.9-0.1,16.3
        C109.7,119.9,109.7,120.1,109.9,120.1L109.9,120.1z M107.9,71.8l-0.1,0.3c0.2,0.2,0.4,0.3,0.6,0.4c0.3,0,0.6-0.1,0.9-0.3l-0.1-0.4
        H107.9z"/>
      <path d="M109.9,120.2c-0.1-0.1-0.2-0.2-0.2-0.4c0.3-5.4-0.3-10.9,0.1-16.3c0.5-6.2,0.5-12.4,0.6-18.7c0-3-0.4-5.8-0.4-8.8
        c0-0.8-0.3-2.1,0.9-2.1c1.5-0.1,0.9,1.3,1,2.2c1.2,9,0.1,17.8-0.3,26.7c-0.2,4.1,0,8.2,0.1,12.2c0,1,0.2,2,0.2,3.2
        C112.1,119.6,111.7,120,109.9,120.2z"/>
      <path d="M107.9,71.9l1.3,0.1l0.1,0.4c-0.3,0.1-0.6,0.2-0.9,0.3c-0.2-0.1-0.4-0.2-0.6-0.4L107.9,71.9z"/>
    </g>
  </defs>
</svg>
