<svg version="1.1"
   xmlns="http://www.w3.org/2000/svg" xmlns:xlink="http://www.w3.org/1999/xlink" x="0px" y="0px" viewBox="0 0 236 180.8"
   style="enable-background:new 0 0 236 180.8;display:none;" xml:space="preserve">
<style type="text/css">
  .st0{fill:#1D1D1B;}
  .st1{fill:#FFFFFF;}
  .st2{opacity:0.35;enable-background:new;}
</style>
  <defs>
    <g id="22">
    <path class="st1" d="M98.3,66v0.6h-4.5c-4.1,0-8.1-0.2-12.2,0c-3.7,0.1-7.5,0.5-11.2,0.7c-1.1,0.1-2.2,0-3.3-0.1
        c-2.4-0.3-3.3,0.6-2.5,2.9c1,2.2,1.3,4.6,1,7c-0.5,2.7-0.1,5.4-0.1,8.1c0,2.3-0.3,4.7,0.3,6.9c1.3,5.3,0.9,10.6,0.7,16
        c0,2.4-0.2,4.8-0.4,7.1c-0.2,1.9,0.1,2.4,1.8,2.7c2.6,0.4,5.1,1,7.6,1.8c5.2,1.9,10.4,3.5,15.7,4.9c3,0.8,5.9,1.7,8.9,2.6
        c2,0.6,4.1,1.2,6.1,1.8s4.1,1.3,6.1,2c1.6,0.6,3.1,1.3,4.7,1.8c1,0.3,2,0.3,3,0.1c4.1-0.9,8.1-2.1,12.2-3c4.7-1,9.5-1.4,14-3.2
        c1.8-0.7,3.7-1.4,5.6-2c5.3-1.7,10.8-3.1,15.8-5.6c0.4-0.1,0.8-0.2,1.2-0.2c0.9-0.2,1.9-0.4,2.8-0.7c0.5-0.2,0.9-0.5,1.1-1
        c0-1.1,0.1-2.6-0.5-3.4c-0.5-0.8-0.7-1.7-0.4-2.6c0.2-0.6,0.2-1.2,0-1.9c-1.1-2.3-0.5-4.7-0.5-7c0.2-3.2,0.6-6.3,1.2-9.5
        c0.1-0.4,0.1-0.8,0.1-1.2c-0.1-3.7-0.3-7.4-0.3-11.1c0.1-1.4,0.2-2.9,0.4-4.3c0.1-1,0.2-2.1,0.4-3.1l0.5-0.2
        c-1.4-1.5-2-3.6-4.4-4.2c-0.4-0.1-0.7-0.3-1-0.6c-2.2-2-4.9-3.2-7.4-4.7c-1.7-1-3.5-2.1-4.1-4.4c-0.3-1.1-1.3-1.2-2.4-1.1
        c-3.3,0.3-6.7,0.6-10,1c-1.8,0.2-3.6,0.5-5.5,0.5c-4.6,0.1-9.2,0.4-13.8,1c-5.2,0.7-10.5,1.1-15.7,1.4c-3.5,0.2-7,0.1-10.5,0.1
        c-1.3,0.2-2.6,0.9-3.3,2c-0.3,0.7-0.1,1.5,0.6,1.8c0.2,0.1,0.4,0.2,0.6,0.2L98.3,66z"/>
      <path d="M98.3,66l-1.6-0.3c-0.8,0-1.4-0.6-1.4-1.4c0-0.2,0.1-0.4,0.2-0.6c0.7-1.1,1.9-1.9,3.3-2c3.5,0,7,0.1,10.5-0.1
        c5.2-0.3,10.5-0.7,15.7-1.4c4.6-0.6,9.2-0.9,13.8-1c1.8,0,3.6-0.3,5.5-0.5c3.3-0.3,6.7-0.6,10-1c1-0.1,2.1,0,2.4,1.1
        c0.6,2.3,2.4,3.4,4.1,4.4c2.5,1.5,5.2,2.7,7.4,4.7c0.3,0.3,0.6,0.5,1,0.6c2.4,0.6,3,2.8,4.4,4.2l-0.5,0.2c-0.1,1-0.3,2.1-0.4,3.1
        c-0.2,1.4-0.4,2.8-0.4,4.3c0,3.7,0.2,7.4,0.3,11.1c0,0.4-0.1,0.8-0.1,1.2c-0.6,3.1-1,6.3-1.2,9.5c0,2.3-0.6,4.7,0.5,7
        c0.2,0.6,0.2,1.2,0,1.9c-0.3,0.9-0.1,1.9,0.4,2.6c0.6,0.8,0.5,2.2,0.5,3.4c-0.2,0.5-0.6,0.8-1.1,1c-0.9,0.3-1.8,0.5-2.8,0.7
        c-0.4,0-0.8,0.1-1.2,0.2c-5,2.5-10.5,3.9-15.8,5.6c-1.9,0.6-3.8,1.3-5.6,2c-4.5,1.8-9.3,2.2-14,3.2c-4.1,0.9-8.1,2.1-12.2,3
        c-1,0.2-2,0.2-3-0.1c-1.6-0.5-3.1-1.2-4.7-1.8c-2-0.7-4-1.4-6.1-2s-4.1-1.2-6.1-1.8c-3-0.9-5.9-1.8-8.9-2.6
        c-5.3-1.4-10.6-3-15.7-4.9c-2.5-0.8-5-1.4-7.6-1.8c-1.8-0.3-2-0.9-1.8-2.7c0.3-2.4,0.4-4.7,0.4-7.1c0.1-5.3,0.6-10.6-0.7-16
        c-0.5-2.2-0.2-4.6-0.3-6.9c0-2.7-0.4-5.4,0.1-8.1c0.3-2.4,0-4.8-1-7c-0.9-2.3,0-3.2,2.5-2.9c1.1,0.1,2.2,0.2,3.3,0.1
        c3.7-0.2,7.5-0.6,11.2-0.7c4.1-0.1,8.1,0,12.2,0h4.5L98.3,66z M116.3,130.3c-0.1-1.9-0.3-3.2-0.3-4.5c0.1-3.1,0.2-6.2,0.4-9.3
        c0.5-7.6-0.1-15.2-1.8-22.6c-0.7-3,0.5-5.8,0.1-8.7c0.1-0.1,0.3-0.3,0.5-0.3c0.8,1.2,1.1,2.6,0.9,4c-0.2,1.1-0.3,2.2-0.2,3.3
        c0.4,3.3,1.1,6.6,1.4,9.9c0.4,3.3,0.6,6.7,0.7,10c0,5-0.2,10-0.3,15c0,2.1,1,3.2,3.2,3.1c1,0,1.9-0.2,2.8-0.5
        c1.9-0.5,3.6-1.1,5.5-1.5c3.4-0.7,6.8-0.9,10.1-1.8c5-1.3,10-2.9,14.9-4.5c4.5-1.5,8.9-3.4,13.3-5.1c1.3-0.5,2.3-1.3,2.2-3
        c-0.1-2.5,1.1-5.1-0.5-7.5c-0.1-0.2-0.1-0.5,0-0.7c0.3-2.6,0.5-5.2,0.8-7.8c0.3-2.5,0.7-4.9,0.8-7.4c0-4.8-0.2-9.6-0.3-14.4
        c0-3-1-3.5-3.9-2.6c-3.6,1.1-7.2,2.1-10.9,2.9c-5.5,1.2-11,2.2-16.5,3.2c-3.2,0.6-6.5,1.2-9.7,1.5c-4,0.4-8,0.5-11.9,0.7
        c-1.1,0.1-2.2,0.1-3-0.9s-2.4-1.4-3.9-1.5c-3.5-0.3-7-0.6-10.5-1.1c-3.8-0.5-7.6-1.1-11.3-1.9s-7.6-1.7-11.4-2.6l-10.3-2.4
        c-0.1,5.2-0.2,10.1-0.2,15c-0.1,3.7,0.3,7.5,1.1,11.1c0.2,1.1,0.2,2.2,0.1,3.3c-0.2,3.8-0.4,7.6-0.5,11.5c-0.1,2.7,0.6,3.5,3.3,4.1
        c1.5,0.2,3,0.6,4.4,1.2c7.2,3.4,15.1,4.6,22.6,6.8c2.5,0.7,5,1.5,7.5,2.3C109.2,127.9,112.6,129.1,116.3,130.3L116.3,130.3z
         M169.2,70.7c-1.2-1-2.5-2-3.8-2.9c-4-2.2-7.5-5.3-11.5-7.4c-1-0.7-2.3-0.8-3.4-0.2c-0.8,0.5-1.8,0.6-2.7,0.2
        c-1.6-0.3-3.3-0.2-4.9,0.4c-1.6,0.5-3.4,0.1-5.1,0.2c-0.2,0-0.4,0.2-0.6,0.3c-0.6,0.1-1.2,0.1-1.8,0.1c-1.3-0.1-2.7-0.2-4-0.1
        c-3.1,0.4-6.2,1-9.4,1.3c-3.7,0.3-7.5,0.3-11.2,0.5c-2.5,0.1-5.1,0.3-7.6,0.5c-1.2,0.1-2.5,0.4-4.1,0.7c0.7,0.6,1.1,0.9,1.5,1.2
        c1.4,1,2.7,2.2,3.9,3.3c2,1.7,3.3,3.8,5.2,5.4c2.1,1.8,4.4,3.4,6.8,4.9c0.8,0.5,1.7,0.7,2.7,0.7c2.6,0,5.2-0.3,7.9-0.4
        c1.5,0,3-0.1,4.5-0.3c3.2-0.5,6.4-1.2,9.6-1.8c6.5-1.3,13-2.5,19.5-3.9C163.3,72.8,166,71.7,169.2,70.7L169.2,70.7z M112.1,78.6
        l-10.3-9.9c-11-1-21.7-0.4-32.8,0.7c1.5,1.3,3.1,1.4,4.6,1.8c4.6,1.1,9.3,2.1,13.9,3.4c5.4,1.3,10.9,2.3,16.4,2.9
        c1.9,0.2,3.8,0,5.6,0.9C110.3,78.4,111.2,78.6,112.1,78.6L112.1,78.6z"/>
      <path class="st1" d="M116.3,130.3c-3.7-1.2-7.1-2.5-10.5-3.6c-2.5-0.8-5-1.5-7.5-2.3c-7.6-2.2-15.4-3.3-22.6-6.8
        c-1.4-0.5-2.9-0.9-4.4-1.2c-2.7-0.6-3.4-1.4-3.3-4.1c0.1-3.8,0.4-7.6,0.5-11.5c0.1-1.1,0.1-2.2-0.1-3.3c-0.8-3.7-1.2-7.4-1.1-11.1
        c0-4.9,0.1-9.9,0.2-15l10.3,2.4c3.8,0.9,7.5,1.8,11.4,2.6s7.5,1.4,11.3,1.9c3.5,0.5,7,0.8,10.5,1.1c1.5,0.1,2.9,0.3,3.9,1.5
        s1.9,1,3,0.9c4-0.2,8-0.3,11.9-0.7c3.2-0.3,6.5-0.9,9.7-1.5c5.5-1,11-2,16.5-3.2c3.7-0.8,7.3-1.8,10.9-2.9c2.9-0.9,3.8-0.3,3.9,2.6
        c0.1,4.8,0.3,9.6,0.3,14.4c0,2.5-0.5,4.9-0.8,7.4c-0.3,2.6-0.5,5.2-0.8,7.8c-0.1,0.2-0.1,0.5,0,0.7c1.6,2.4,0.3,5,0.5,7.5
        c0.1,1.7-1,2.4-2.2,3c-4.4,1.8-8.8,3.6-13.3,5.1c-4.9,1.7-9.9,3.2-14.9,4.5c-3.3,0.9-6.7,1.1-10.1,1.8c-1.9,0.4-3.7,1-5.5,1.5
        c-0.9,0.3-1.9,0.4-2.8,0.5c-2.2,0-3.2-1-3.2-3.1c0.1-5,0.3-10,0.3-15c-0.1-3.3-0.3-6.7-0.7-10c-0.4-3.3-1-6.6-1.4-9.9
        c-0.1-1.1-0.1-2.2,0.2-3.3c0.2-1.4-0.1-2.8-0.9-4c-0.2,0.1-0.4,0.2-0.5,0.3c0.4,2.9-0.8,5.7-0.1,8.7c1.7,7.4,2.3,15,1.8,22.6
        c-0.2,3.1-0.3,6.2-0.4,9.3C116,127.1,116.1,128.4,116.3,130.3z"/>
      <path class="st1" d="M169.2,70.7c-3.2,1-5.9,2.1-8.7,2.7c-6.5,1.4-13,2.6-19.5,3.9c-3.2,0.6-6.4,1.3-9.6,1.8
        c-1.5,0.2-3,0.3-4.5,0.3c-2.6,0.1-5.2,0.4-7.9,0.4c-0.9,0-1.9-0.2-2.7-0.7c-2.4-1.4-4.6-3.1-6.8-4.9c-1.9-1.6-3.2-3.8-5.2-5.4
        c-1.2-1.2-2.6-2.3-3.9-3.3c-0.4-0.3-0.8-0.6-1.5-1.2c1.6-0.3,2.8-0.6,4.1-0.7c2.5-0.2,5.1-0.4,7.6-0.5c3.7-0.2,7.5-0.2,11.2-0.5
        c3.1-0.3,6.2-0.9,9.4-1.3c1.3,0,2.7,0,4,0.1c0.6,0,1.2,0,1.8-0.1c0.2,0,0.4-0.3,0.6-0.3c1.7,0,3.6,0.3,5.1-0.2
        c1.6-0.6,3.3-0.8,4.9-0.4c0.9,0.3,1.9,0.2,2.7-0.2c1.1-0.5,2.4-0.4,3.4,0.2c4,2.2,7.5,5.2,11.5,7.4C166.7,68.7,168,69.6,169.2,70.7
        z"/>
      <path class="st1" d="M112,78.6c-0.9,0-1.7-0.1-2.6-0.3c-1.8-0.8-3.7-0.6-5.6-0.9c-5.5-0.6-11-1.5-16.4-2.9
        c-4.6-1.3-9.3-2.2-13.9-3.4c-1.5-0.4-3.1-0.5-4.6-1.8c11.1-1.1,21.8-1.7,32.8-0.7L112,78.6z M90.2,72.4c-0.2-0.3-0.5-0.5-0.8-0.6
        c-0.3,0.1-0.6,0.4-0.8,0.6c0.1,0.3,0.3,0.5,0.5,0.6C89.6,72.9,89.9,72.6,90.2,72.4L90.2,72.4z"/>
      <path d="M90.2,72.4c-0.3,0.3-0.7,0.5-1.1,0.6c-0.2-0.2-0.4-0.4-0.5-0.6c0.2-0.3,0.5-0.5,0.8-0.6C89.8,71.9,90,72.1,90.2,72.4z"/>
    </g>
  </defs>
</svg>
