<svg version="1.1"
   xmlns="http://www.w3.org/2000/svg" xmlns:xlink="http://www.w3.org/1999/xlink" x="0px" y="0px" viewBox="0 0 236 180.8"
   style="enable-background:new 0 0 236 180.8;display:none;" xml:space="preserve">
<style type="text/css">
  .st0{fill:#1D1D1B;}
  .st1{fill:#FFFFFF;}
  .st2{opacity:0.35;enable-background:new;}
</style>
  <defs>
    <g id="36">
<g>
<path class="st1" d="M104.9,66.2l-12.5-4l-5.6,1.2l-19,7.4c0,0-4.1,1-3.4,1.4s10.4,3.2,11.4,3.5s6.2,1.6,7.9,1.4s15.2-8.9,16.2-9
  S104.9,66.2,104.9,66.2z"/>
<g>
  <path d="M66.3,86.1c1.3-0.7,2.3-1,3.2-1.6c3.3-2.1,6.6-4.2,9.9-6.3c0.3-0.2,0.5-0.4,1.1-0.8c-1.2-0.3-2.1-0.5-2.9-0.8
    c-3.9-0.9-7.6-1.9-11.5-2.6c-1.8-0.3-3.6-0.4-5.4-0.4c-0.5,0.1-1.1,0.3-1.5,0.6c-0.3,0.2-0.7,0.4-1.1,0.4
    c-0.5-0.2-0.9-0.5-1.3-0.8c0.2-0.4,0.5-0.8,0.9-1.1c2.1-0.7,4.4-1.3,6.5-1.9c5.4-1.4,10.6-3.1,15.9-5.1c2.5-0.9,4.8-2.3,7.1-3.4
    c0.7-0.3,1.5-0.4,2.3-0.5c0.5,0.7,0.2,1.7-0.6,2.2c-0.2,0.1-0.3,0.2-0.5,0.2c-5.1,1.9-10.2,3.7-15.2,5.6c-1.8,0.7-3.7,1.6-5.5,2.4
    c2.8,1.7,6,2.2,9.3,2.8c1.9,0.3,3.7,0.8,6.2,1.3c4.8-2.7,10.2-5.7,15.8-8.7c0.4-0.2,0.9-0.3,1.3-0.4c0.9-0.2,1.7-0.5,2.4-1.1
    L91,62.7c0.4-1.6,1.3-1.5,2.2-1.3c0.9,0.2,1.6,0.7,2.5,0.9c3.6,1,7.2,2,10.5,2.9c1.4-1.7,2.4-3.1,3.5-4.5c0.9-1.1,2.3-2.1,2.7-3.3
    c0.7-1.6,1.7-1.7,3.1-1.6c1.5,0.1,3,0.4,4.5,0.4c4.9,0.1,9.7-0.1,14.6,0.1c3.5,0.1,7,0.8,10.5,1.1c3.3,0.3,6.7,0.5,10,0.7
    c1.2,0.1,2.4,0.1,3.6,0.2c1.5,0.1,2,0.9,0.9,2.2s-2,2.2-2.9,3.2s-1.8,2.1-2.7,3.1l9.4,2.6c3.2-1,6.2,1.2,9.2,0.4
    c0.7,1.5-0.1,2.4-0.8,3.2c-1.5,1.7-2.9,3.5-4.5,5.1c-1.9,2-2.9,4.5-4.2,6.8c-0.8,1.3-1.7,2.6-1.7,4.2c0,0.8-0.7,1.4-1.5,1.4l0,0
    c-0.9,0.1-1.3-0.5-1.3-1.3c0-0.1-0.1-0.3-0.1-0.1c-0.8-0.3-1.8-0.3-2-0.7c-1-2.3-3.4-2.1-5.7-3.5c0.4,8,0.7,15.4,1,22.8
    c0.1,2.3,0.3,4.5,0.3,6.8c0,0.5-0.2,1.1-0.7,1.4c-2.4,1.1-3.7,3.2-4.8,5.3c-1.5,2.8-2.9,5.6-4.1,8.5c-0.9,2.2-2.5,3.2-5.6,3
    c-1.7-0.1-3.5-0.4-5.2-0.4c-2.9-0.2-5.7-0.2-8.6,0c-5.8,0.5-11.5-0.1-17.2-0.3c-4.4-0.2-8.8-0.2-13.2-0.3c-1.2,0-2.4,0-3.6-0.2
    c-1.7-0.4-3.5-0.2-5.1,0.5c-0.9,0.6-2,0.3-2.6-0.5l0,0c1.9-2.8,1.1-5.9,1.2-9c0.1-6.2-0.5-12.4-0.1-18.6c0.3-4.4-0.4-8.9-0.7-13.6
    L73,89.6c-0.6,0-1.1,0-1.7-0.1c-1.1-0.4-2.4-0.2-3.4,0.4c-0.6,0.3-1.2,0.4-1.8,0.3c-1.4-0.1-1.8-1.2-0.9-2.4c0.3-0.4,0.7-0.6,1-1
    C66.2,86.8,66.3,86.4,66.3,86.1z M85.8,130.1c0.9,0,1.8,0,2.8,0c6.6,0.2,13.3,0.1,19.9,0.6c8.6,0.5,17.2,0.5,25.8,0
    c3.6-0.2,3.6-0.3,4.6-3.7c0.1-0.1,0.1-0.1,0.2-0.2c1.5-0.3,0.4,1.4,1.3,1.8c0.2-0.4,0.4-0.7,0.5-1c2-3.2,3.7-6.8,6.1-9.7
    c2-2.4,2.3-5,2.6-7.5c0.3-3-0.3-6-0.2-9.1s-0.6-5.8,0-8.8c0.3-2.5,0.4-5.1,0.4-7.6l-9.4-2.5c-0.1,1.5-0.1,2.7-0.2,3.9
    c-0.2,4.9-0.5,9.7-0.6,14.6c-0.1,1.8,0.3,3.5,0.2,5.2c0,0.9,0.2,2-1.1,3c-0.3-3.2-0.7-6-0.6-8.9s0.2-5.7,0.1-8.5
    c-0.1-2.8,0.8-5.7,0.2-8.1c-0.8,0.6-1.6,1.2-2.5,1.8c-1,0.7-1.9,1.8-2.2,3.1c-0.4,0.8-1,1.6-1.6,2.3c-0.8,1.1-1.8,2.2-2.7,3.3
    c-0.3,0.3-0.8,0.5-1.2,0.6c-1,0.1-2.1,0.1-3.1,0c-3.7-0.4-7.4-1-11.1-1.3c-6.8-0.6-13.7-1-20.4-1.6c-1.5-0.1-3-0.4-4.5-0.5
    c-1.7-0.2-3.4-0.4-5.4-0.5c0.1,1.1,0,1.8,0,2.5c0.3,3.5,0.5,7,0.6,10.4c0,1.7-0.3,3.4-0.3,5c0.1,4.7,0.2,9.4,0.4,14.1
    C84.4,125,84.2,127.6,85.8,130.1L85.8,130.1z M69.5,87.8c1.9,0,3.8,0,5.7,0c1.1,0.1,2.2,0.2,3.3,0.4c1.4,0.2,2.8,0.5,4.2,0.7
    c1,0.1,2.1-0.1,3.1,0c4.5,0.4,9,0.9,13.4,1.3c4.1,0.4,8.2,0.8,12.4,1.1c4.3,0.4,8.6,0.6,12.8,1c1.3,0.1,2.3-0.5,3.4-0.7
    c0.5-1.7,2.4-2,3.3-3.3c1.1-1.9,2.5-3.6,4.3-4.9c0.6-0.4,0.9-1.3,1.5-2.3c-1.3-0.1-2.2-0.2-3.1-0.2s-2.1,0.1-3.1,0
    c-4.7-0.4-9.4-0.9-14.1-1.2c-4.2-0.4-8.5-0.4-12.6-1c-5-0.7-10,0-15,0c-2,0-4.2-0.2-5.8,1.5l-1.8-1.4C79.5,80,77.7,81,76,82.2
    s-3.8,2.5-5.8,3.7C69.6,86.2,68.8,86.6,69.5,87.8L69.5,87.8z M106.5,77.2l5.8,0.5l22.1,1.6c0.7,0,1.4,0.1,2.1,0.3
    c1.4,0.5,2.2-0.2,3.1-1.1c2.7-3,5.5-6,9.1-8c0.5-0.4,1-0.8,1.5-1.2h-3.1c-3,0-6,0-9.1-0.1c-1.2,0-2.4-0.3-3.6-0.3
    c-5.6,0.2-11.1-1-16.6-1.4c-3.4-0.2-6.9,0-10.3,0c-0.7-0.1-1.3,0.4-1.4,1.1c0,0.1,0,0.1,0,0.2C106.1,71.5,105.5,74.3,106.5,77.2
    L106.5,77.2z M108.1,64.8l0.3,0.6c1.4,0,2.8-0.1,4.2,0c3.6,0.3,7.3,0.7,10.9,1c4.7,0.4,9.4,0.7,14.1,1.2c5,0.5,10,0.7,14.6-0.8
    l5.5-6.6c-0.4-0.1-0.7-0.2-1.1-0.2c-6.9,0.1-13.7-1.2-20.4-1.6c-2.7-0.1-5.4,0-8.1,0c-2.5,0-4.9,0.1-7.4,0
    c-2.2-0.1-4.4-0.4-6.2-0.5L108.1,64.8z M140.6,80.1c1.3,0.8,2.6,1.3,4.1,1.5c1.8,0.4,3.5,0.9,5,1.7c1,0.4,2,0.9,3.1,1.2
    c1.6,0.6,3.3,1.1,4.9,1.6c0.6,0.2,1.1,0.4,1.9,0.7c2.7-5.3,6.2-10.2,10.5-14.4c-1.9-0.6-3.5-1.2-5-1.7c-0.4-0.1-0.8-0.1-1.1,0
    c-1.1,0.8-2.1,0.3-3.1-0.1c-2-0.9-4-1.4-6.1-1.5c-0.9-0.1-1.7,0.2-2.4,0.7c-3,2.2-6.3,4-8.5,7.1c-0.3,0.4-0.7,0.7-1.1,1
    C142,78.5,141.4,79.2,140.6,80.1L140.6,80.1z M104.3,76.7c0.2-1.5,0.5-3,0.6-4.5s0.8-3-0.4-4.5c-6.4,2.1-12,5.8-18.1,9.3
    L104.3,76.7z"/>
  <path d="M150.6,122.5c-0.8,0-1.4-0.6-1.3-1.3c0-0.1,0-0.2,0-0.2c0-0.8,0.7-1.4,1.5-1.4c0.1,0,0.1,0,0.2,0c0.7,0,1.3,0.6,1.2,1.3
    v0.1C152.1,121.8,151.5,122.5,150.6,122.5C150.7,122.5,150.7,122.5,150.6,122.5z"/>
  <path d="M164.1,88.1c0.4,0.4,0.7,0.9,0.9,1.5c-0.1,0.3-0.4,0.6-0.7,0.7c-0.5-0.2-0.8-0.5-1.1-0.9
    C163.4,88.8,163.7,88.4,164.1,88.1z"/>
  <path d="M64.9,83.2c0.2,0.1,0.5,0.3,0.6,0.5c0,0.5,0,1-0.2,1.5l-0.7-1.7L64.9,83.2z"/>
  <path class="st1" d="M85.8,130.1c-1.7-2.5-1.4-5.1-1.6-7.5c-0.3-4.7-0.4-9.4-0.4-14.1c0-1.7,0.4-3.4,0.3-5
    c-0.2-3.5-0.4-7-0.6-10.4c-0.1-0.7,0-1.4,0-2.5c2,0.2,3.7,0.4,5.4,0.5c1.5,0.2,3,0.4,4.5,0.5c6.8,0.5,13.7,1,20.4,1.6
    c3.7,0.3,7.4,0.9,11.1,1.3c1,0.1,2.1,0.1,3.1,0c0.5-0.1,0.9-0.3,1.2-0.6c0.9-1,1.9-2.2,2.7-3.3c0.6-0.7,1.2-1.5,1.6-2.3
    c0.3-1.2,1.2-2.3,2.2-3.1c0.9-0.6,1.7-1.2,2.5-1.8c0.6,2.4-0.4,5.3-0.2,8.1s-0.2,5.7-0.1,8.5s0.5,5.8,0.6,8.9c1.4-1,1.2-2.1,1.1-3
    c0-1.8-0.3-3.5-0.2-5.2c0.2-4.9,0.4-9.7,0.6-14.6c0-1.2,0.1-2.4,0.2-3.9l9.4,2.5c0,2.5-0.1,5.1-0.4,7.6c-0.5,3,0,5.9,0,8.8
    c0.1,2.9,0.6,6.1,0.2,9.1c-0.3,2.6-0.7,5.2-2.6,7.5c-2.4,2.9-4.1,6.4-6.1,9.7c-0.2,0.3-0.4,0.7-0.5,1c-0.9-0.4,0.2-2-1.3-1.8
    c-0.1,0-0.2,0.1-0.2,0.2c-0.9,3.5-0.9,3.6-4.6,3.7c-8.6,0.5-17.2,0.5-25.8,0c-6.6-0.5-13.2-0.4-19.9-0.6
    C87.7,130.1,86.7,130.1,85.8,130.1z M139.9,111.8c-0.4,0.3-0.7,0.6-0.9,1c0,3.6-0.1,7.2-0.2,10.9c0.7,0,1.3-0.5,1.4-1.3
    c0-0.1,0-0.2,0-0.3c0.1-2.1,0.2-4.1,0.2-6.2C140.3,114.8,140.1,113.6,139.9,111.8z M126,125.5l1.4-0.6l-0.6-1.4L126,125.5z"/>
  <path class="st1" d="M69.5,87.8c-0.8-1.2,0.1-1.6,0.6-2c1.9-1.3,3.8-2.5,5.8-3.7c1.7-1.1,3.6-2.2,5.5-3.4l1.8,1.4
    c1.7-1.7,3.9-1.5,5.8-1.5c5,0,10-0.7,15,0c4.2,0.6,8.4,0.6,12.6,1c4.7,0.4,9.4,0.9,14.1,1.2c1,0.1,2.1,0,3.1,0s1.8,0.1,3.1,0.2
    c-0.6,1-0.9,1.9-1.5,2.3c-1.8,1.3-3.2,3-4.3,4.9c-1,1.4-2.9,1.6-3.3,3.3c-1.1,0.2-2.1,0.9-3.4,0.7c-4.3-0.5-8.6-0.7-12.8-1
    c-4.1-0.4-8.2-0.8-12.4-1.1c-4.5-0.4-9-0.9-13.4-1.3c-1-0.1-2.1,0.1-3.1,0c-1.4-0.1-2.8-0.5-4.2-0.7c-1.1-0.2-2.2-0.3-3.3-0.4
    C73.3,87.8,71.4,87.8,69.5,87.8z"/>
  <path class="st1" d="M108.1,64.8l6.3-7.1c1.8,0.2,4,0.4,6.2,0.5c2.5,0.1,4.9,0,7.4,0c2.7,0,5.4-0.1,8.1,0
    c6.8,0.4,13.5,1.7,20.4,1.6c0.4,0,0.7,0.1,1.1,0.2l-5.5,6.6c-4.7,1.5-9.7,1.4-14.6,0.8c-4.7-0.5-9.4-0.8-14.1-1.2
    c-3.6-0.3-7.3-0.7-10.9-1c-1.4-0.1-2.8,0-4.2,0L108.1,64.8z"/>
  <path class="st1" d="M140.6,80.1c0.7-0.9,1.4-1.5,2-2.2c0.4-0.3,0.7-0.6,1.1-1c2.2-3.1,5.5-5,8.5-7.1c0.7-0.6,1.5-0.8,2.4-0.7
    c2.2,0.1,4.3,0.6,6.1,1.5c1,0.5,2,1,3.1,0.1c0.4-0.1,0.8-0.1,1.1,0c1.6,0.5,3.2,1,5,1.7c-4.2,4.3-7.8,9.1-10.5,14.4
    c-0.7-0.3-1.3-0.5-1.9-0.7c-1.7-0.5-3.3-1-4.9-1.6c-1-0.4-2-0.9-3.1-1.2c-1.6-0.8-3.2-1.3-5-1.7C143.3,81.4,141.9,80.9,140.6,80.1
    z"/>
  <path d="M139.9,111.8c0.1,1.8,0.4,3,0.4,4.2c0,2.1-0.1,4.1-0.2,6.2c0.1,0.7-0.4,1.4-1.2,1.5c-0.1,0-0.2,0-0.3,0
    c0.1-3.7,0.1-7.3,0.2-10.9C139.3,112.4,139.6,112.1,139.9,111.8z"/>
  <path d="M126,125.5l0.9-1.9l0.6,1.4L126,125.5z"/>
</g>
</g>
<path class="st0" d="M82.9,100.4c0-0.5,0.3,4.3,0.7,2.8c-0.5-0.8-1.1-0.9-1.7-1c-1.5-0.2-3-0.5-4.5-0.6c-0.5,0-1.2,0.1-1.7,0.2
c-1.6,0.3-3.2,0.4-4.9,0.2c-1.2-0.1-2.4,0-3.6,0.2c-0.9,0.1-2,0.3-2.9,0.1c-1.2-0.2-2.4-0.1-3.6,0c-2.2,0.2-4.5,0.3-6.7,0.4
c-0.1,0-0.3-0.1-0.4-0.1c-3.4-1-6.9-0.7-10.3-0.2c-2.5,0.3-5-0.1-7.7-0.4c-2.1,0.5-4.5,0.3-6.9-0.3c-2.1-0.5-4.2-0.4-6.3-0.5
c-1.6,0-3.2,0-4.7,0c-0.5,0-1.1-0.1-2-0.3c0.7-0.3,0.9-0.5,1.2-0.5c3.3,0.1,6.6,0.3,9.9,0.5c1.2,0.1,2.4,0.4,3.6,0.5
c1.6,0.1,3.2,0,4.7,0c0.7,0,1.2,0,1.8,0c1.3,0.1,2.5,0.2,3.8,0.3c1.6,0.1,3.2,0.1,4.7-0.3c1.7-0.4,3.6-0.4,5.4-0.2
c3.8,0.4,7.7,0.2,11.5-0.5c0.8-0.2,1.5-0.2,2.2-0.2c1.6,0,3.2,0.1,4.7-0.3c0.3-0.1,0.4-0.1,0.7-0.1c3,0.6,6.2,0,9.2,0.1
c0.7,0,1.3,0.2,2,0.2C81.8,100.5,82.3,100.4,82.9,100.4"/>
<path class="st0" d="M150.6,100.4c0-0.5-0.3,4.3-0.8,2.8c0.5-0.8,1.1-0.9,1.8-1c1.5-0.2,3.1-0.5,4.8-0.6c0.7,0,1.2,0.1,1.9,0.2
c1.8,0.3,3.5,0.4,5.3,0.2c1.2-0.1,2.6,0,3.8,0.2c1.1,0.1,2.2,0.3,3.1,0.1c1.2-0.2,2.6-0.1,3.8,0c2.3,0.2,4.8,0.3,7.2,0.4
c0.3,0,0.4-0.1,0.5-0.1c3.7-1,7.4-0.7,11.1-0.2c2.7,0.3,5.5-0.1,8.3-0.4c2.3,0.5,4.8,0.3,7.4-0.3c2.2-0.5,4.5-0.4,6.8-0.5
c1.6,0,3.4,0,5.1,0c0.4,0,1-0.1,2-0.3c-0.7-0.3-1-0.5-1.2-0.5c-3.5,0.1-7.1,0.3-10.6,0.5c-1.2,0.1-2.6,0.4-3.8,0.5
c-1.6,0.1-3.4,0-5.1,0c-0.5,0-1.2,0-1.9,0c-1.4,0.1-2.7,0.2-4.1,0.3c-1.6,0.1-3.4,0.1-5.1-0.3c-1.9-0.4-4-0.4-5.9-0.2
c-4.2,0.4-8.3,0.2-12.4-0.5c-0.8-0.2-1.6-0.2-2.5-0.2c-1.6,0-3.4,0.1-5.1-0.3c-0.1-0.1-0.4-0.1-0.7-0.1c-3.3,0.6-6.7,0-10,0.1
c-0.7,0-1.5,0.2-2.2,0.2C151.8,100.5,151.3,100.4,150.6,100.4"/>
    </g>
  </defs>
</svg>
