<svg version="1.1"
   xmlns="http://www.w3.org/2000/svg" xmlns:xlink="http://www.w3.org/1999/xlink" x="0px" y="0px" viewBox="0 0 236 180.8"
   style="enable-background:new 0 0 236 180.8;display:none;" xml:space="preserve">
<style type="text/css">
  .st0{fill:#1D1D1B;}
  .st1{fill:#FFFFFF;}
  .st2{opacity:0.35;enable-background:new;}
</style>
  <defs>
    <g id="42">
<path class="st0" d="M88.6,100.4c0-0.5,0.3,4.3,0.7,2.8c-0.6-0.8-1.1-0.9-1.9-1c-1.6-0.2-3.3-0.5-4.9-0.6c-0.6,0-1.3,0.1-1.9,0.2
c-1.7,0.3-3.4,0.4-5.3,0.2c-1.3-0.1-2.6,0-3.9,0.2c-1,0.1-2.1,0.3-3.1,0.1c-1.3-0.2-2.6-0.1-3.9,0c-2.4,0.2-4.9,0.3-7.3,0.4
c-0.1,0-0.3-0.1-0.4-0.1c-3.7-1-7.4-0.7-11.1-0.2c-2.7,0.3-5.4-0.1-8.3-0.4c-2.3,0.5-4.9,0.3-7.4-0.3c-2.3-0.5-4.6-0.4-6.9-0.5
c-1.7,0-3.4,0-5.1,0c-0.6,0-1.1-0.1-2.1-0.3c0.7-0.3,1-0.5,1.3-0.5c3.6,0.1,7.1,0.3,10.7,0.5c1.3,0.1,2.6,0.4,3.9,0.5
c1.7,0.1,3.4,0,5.1,0c0.7,0,1.3,0,2,0c1.4,0.1,2.7,0.2,4.1,0.3c1.7,0.1,3.4,0.1,5.1-0.3c2-0.4,4-0.4,6-0.2c4.1,0.4,8.3,0.2,12.4-0.5
c0.9-0.2,1.6-0.2,2.4-0.2c1.7,0,3.4,0.1,5.1-0.3c0.3-0.1,0.4-0.1,0.7-0.1c3.3,0.6,6.7,0,10,0.1c0.7,0,1.4,0.2,2.1,0.2
C87.3,100.5,87.8,100.4,88.6,100.4"/>
<path class="st0" d="M144.3,100.3c0-0.5-0.3,4.7-0.9,3c0.6-0.9,1.2-1,1.9-1.1c1.6-0.2,3.4-0.5,5.2-0.7c0.7,0,1.3,0.1,2.1,0.2
c1.9,0.3,3.9,0.4,5.8,0.2c1.3-0.1,2.8,0,4.2,0.2c1.2,0.1,2.4,0.3,3.4,0.1c1.3-0.2,2.8-0.1,4.2,0c2.5,0.2,5.2,0.3,7.9,0.4
c0.3,0,0.4-0.1,0.6-0.1c4-1.1,8-0.8,12-0.2c3,0.3,5.9-0.1,9-0.4c2.5,0.5,5.2,0.3,8-0.3c2.4-0.5,4.9-0.4,7.4-0.5c1.8,0,3.7,0,5.5,0
c0.4,0,1-0.1,2.2-0.3c-0.7-0.3-1-0.5-1.3-0.5c-3.9,0.1-7.7,0.3-11.6,0.5c-1.3,0.1-2.8,0.4-4.2,0.5c-1.8,0.1-3.7,0-5.5,0
c-0.6,0-1.3,0-2.1,0c-1.5,0.1-3,0.2-4.4,0.3c-1.8,0.1-3.7,0.1-5.5-0.3c-2.1-0.4-4.3-0.4-6.4-0.2c-4.6,0.4-9,0.2-13.5-0.5
c-0.9-0.2-1.8-0.2-2.7-0.2c-1.8,0-3.7,0.1-5.5-0.3c-0.1-0.1-0.4-0.1-0.7-0.1c-3.6,0.7-7.3,0-10.8,0.1c-0.7,0-1.6,0.2-2.4,0.2
C145.7,100.4,145.1,100.3,144.3,100.3"/>
<g>
<polygon class="st1" points="162.4,69.3 163.9,82.5 160,83.5 161.3,119.9 161.3,130.7 147.5,131.4 112.1,129.6 72.1,130.8
  74.6,116.7 74.8,86.7 68.7,87.1 67.5,82 72.8,72.2 128.5,72.2 158.1,70.7  "/>
<g>
  <path d="M141.4,70.8c4.9-0.3,9.9-0.6,14.8-0.9c2.1-0.1,4.2-0.4,6.2-0.5c0.6-0.1,1.4,0,2,0.2c4.1,2.4,8.8,3.5,13.1,5.1
    c1,0.4,2.1,1,3.1,1.4c1,0.2,2.2,0.3,3.2,0.3c0.3,0.5,0.4,1,0.4,1.7c-0.1,0.7-0.6,1.4-1.2,1.8c-0.7,0.4-1.4-0.2-1.8-0.9
    c-1-1.8-3-2-4.6-2.6c-3.9-1.7-8.1-3-12.1-4.4c-2,1.8-1.2,3.9-1,5.8c0.3,1.4,0.7,2.7,1,4.1c0.2,0.8,0.3,1.7,0.2,2.5l-3.3,0.5
    c-0.1,0.8-0.3,1.8-0.3,2.6c-0.1,5.8,0,11.5,0,17.3c0,1.4,0.3,2.6,0.4,4c0.1,2.7,0.4,5.4,0.3,8.3c-0.1,3.9-0.2,7.6,0.9,11.4
    c0.2,1.2,0.1,2.3-0.2,3.3c-0.1,0.8-1,1.4-1.8,1.2c-0.1,0-0.1,0-0.2-0.1c-5.8-1.2-11.6,0.1-17.5,0c-2.5,0-5-0.3-7.5-0.4
    c-5-0.2-10-0.5-15-0.7c-7.5-0.2-15.1-0.2-22.6-0.4c-1.5,0-2.8-0.3-4.2-0.3c-3.1-0.1-6.4-0.1-9.5-0.1s-6.5,0.3-9.7,0.5
    c-0.8,0-1.7-0.2-2.5-0.3c-0.1-0.9,0.1-1.8,0.3-2.7c1.1-2,0.8-4.2,1.1-6.3c0.8-4.4-0.3-8.6-0.1-13c0.1-5.8-0.3-11.5-0.5-17.3
    c-0.1-1.5,0.1-3,0.1-4.8l-4.3,0.3l0.6,4.1c-0.5,0.1-1.2,0.6-1.2-0.7c-0.1-0.9,0.1-2.1-1.1-2.7c-0.2-0.3-0.3-0.7-0.2-1.2
    c0.1-0.4,0.2-0.7,0.1-1.2c-1.8-1.9-0.1-3.2,0.8-4.6c1.3-2,2.3-4.2,3-6.6c-3.3,1.3-6.3,2.4-9.3,3.7c-3,1.3-5.7,2.5-8.6,3.8
    c-1.2-2.7-1.2-2.8,1.3-3.7c5.2-1.8,10.4-3.5,15.5-5.2c1.3-0.4,2.3-1.6,3.5-1.8c1.2-0.2,2.5,0.6,3.7,0.6c2.8,0,5.7-0.4,8.5-0.4
    c8.7-0.1,17.4,0,26.1,0c8,0,15.8-0.2,23.8-0.3c1.2,0,2.4,0.2,3.7,0.3V72c-3.5,0.2-6.9,0.4-10.3,0.5c-6,0.2-12,0.3-18,0.4
    c-8,0.1-15.9,0.1-23.9,0.2c-3.2,0-6.5,0.3-9.7,0.3c-1.7-0.1-3.4,0.8-4.2,2.4c-1.4,2.8-2.7,5.8-4.1,9.2c9.9-0.1,19.5,0.3,28.8,1
    c-7.5,0.2-15,0.1-22.6,0.8c-0.1,2.2-0.2,4.3-0.2,6.4c0,3.2,0.1,6.5,0.2,9.7c0.1,3.5,0.3,7,0.5,10.5c0.3,4.2,0.2,8.3-0.2,12.4
    c-0.1,1,0.6,2.1,0.8,3.3c2.1,0,4.1,0,6,0c4.9-0.2,9.8-0.1,14.7,0.3c5,0.5,10.1,0.2,15.3,0.2c6.9,0.1,13.8,0.2,20.8,0.4
    c3.9,0.1,7.7,1,11.5,0.6c5.2-0.5,10.7,0.6,15.8-1.3c0-4.6,0.2-9.2,0.1-13.7c0-2.8-0.1-5.6-0.3-8.5c0-2-0.1-4,0-6
    c-0.1-4.9,0-9.8-0.2-14.8c-0.1-1.7-0.6-2-2.1-2c-3.8,0-7.5,0-11.3,0s-7.4-0.1-11-0.2c-5.4-0.1-10.9-0.4-16.2-0.5
    c-2.6-0.1-5.4-0.4-8,0c-3.7,0.6-7.5,0.7-11.2,1c-1.7,0.1-3.3,0-4.9-0.4c0.4-0.2,0.8-0.4,1.3-0.5c4.2-0.2,8.3-0.6,12.5-1.4
    c2.8-0.4,5.7-0.5,8.5-0.3c9.4,0.1,18.7,0.2,28.1,0.3c6.1,0,12.1,0,18.4,0c-0.3-1.9-0.2-4-1-5.8s-0.8-3.6-1.6-5.4
    c-6.5-0.5-13.1-0.1-19.6,0L141.4,70.8L141.4,70.8z"/>
  <path d="M58.7,87.7c-2-0.5-2-0.5-1.6-2L58.7,87.7z"/>
  <path d="M164.9,87.9c0.1,0.9,0,1.6-1,1.7c-0.3-0.1-0.6-0.4-0.7-0.8C163.3,87.8,164.1,87.8,164.9,87.9z"/>
</g>
</g>
    </g>
  </defs>
</svg>
