<svg version="1.1"
   xmlns="http://www.w3.org/2000/svg" xmlns:xlink="http://www.w3.org/1999/xlink" x="0px" y="0px" viewBox="0 0 236 180.8"
   style="enable-background:new 0 0 236 180.8;display:none;" xml:space="preserve">
<style type="text/css">
  .st0{fill:#1D1D1B;}
  .st1{fill:#FFFFFF;}
  .st2{opacity:0.35;enable-background:new;}
</style>
  <defs>
    <g id="53">
    <g>
      <path d="M174.057,123.641c-0.613,2.886,0.645,5.058,1.88,7.228c1.104,1.94,2.171,3.905,3.376,5.782
        c1.445,2.25,3.034,4.407,4.529,6.626c0.889,1.318,1.707,2.683,2.578,4.014c0.613,0.937,0.702,1.812-0.311,2.762
        c-0.584-0.034-1.412,0.155-1.958-0.154c-2.945-1.666-6.144-1.452-9.324-1.474c-4.199-0.03-8.398-0.034-12.597-0.108
        c-6.798-0.119-13.595-0.348-20.393-0.406c-3.128-0.026-6.262,0.422-9.386,0.347c-8.225-0.198-16.444-0.636-24.668-0.832
        c-3.654-0.087-7.32,0.33-10.974,0.25c-8.228-0.181-16.451-0.566-24.678-0.797c-5.984-0.168-11.971-0.25-17.958-0.301
        c-0.948-0.008-1.9,0.349-2.929,0.552c-1.243-0.549-1.237-1.48-0.75-2.62c0.38-0.888,0.671-1.814,0.99-2.727
        c0.205-0.588,0.235-1.316,0.609-1.753c3.038-3.541,3.611-8.297,6.053-12.144c0.833-1.312,1.045-3.018,1.576-4.653
        c-1.552-0.638-3.085-0.685-4.702-0.539c-4.005,0.36-8.02,0.6-12.031,0.896c-2.407,0.178-4.827,0.271-7.213,0.607
        c-0.881,0.124-1.761,0.734-2.487,1.316c-0.526,0.422-0.797,1.162-1.034,1.529c-2.843-0.698-0.98-2.699-2.278-3.838
        c0.846-0.69,1.529-1.247,2.426-1.978c0-2.223-0.093-4.633,0.03-7.032c0.095-1.861,0.596-3.702,0.674-5.562
        c0.153-3.646,0.169-7.299,0.181-10.949c0.009-2.763-0.351-5.555-0.05-8.28c0.335-3.038,0.066-5.91-1.101-8.664
        c-0.865-2.042-1.137-4.022-0.911-6.249c0.484-4.767-0.023-9.457-1.936-13.929c-0.549-1.284-0.49-1.31,0.206-3.132
        c10.333-1.314,20.73-2.637,31.327-3.985c0.079-1.484,0.267-2.903,0.208-4.312c-0.135-3.212-0.572-6.42-0.545-9.627
        c0.025-3.015,0.488-6.026,0.722-8.625c1.322-0.935,2.283-1.615,2.973-2.102c3.888,0.288,7.51,0.587,11.137,0.815
        c2.498,0.157,5.005,0.174,7.504,0.324c4.818,0.29,9.628,0.771,14.449,0.914c6.352,0.189,12.712,0.103,19.068,0.186
        c5.279,0.069,10.556,0.208,15.834,0.322c4.915,0.106,9.86,0.61,14.738,0.235c6.363-0.489,12.619,0.579,18.934,0.612
        c1.657,0.008,3.567-0.134,5.05,1.038c-0.923,5.038-0.259,9.968-0.116,14.897c0.031,1.052,0.052,2.119-0.081,3.159
        c-0.297,2.31-0.483,4.601,0.122,6.854c1.281,1.297,2.942,0.875,4.379,1.052c2.727,0.337,5.511,0.211,8.238,0.546
        c3.172,0.389,6.441,0.128,9.503,1.412c0.677,0.284,1.589-0.036,2.389,0.003c2.314,0.113,4.626,0.266,6.938,0.408
        c0.929,0.057,1.507,0.481,1.523,1.668c-1.891,1.186-2.113,3.1-2.028,5.251c0.059,1.494-0.553,3.023-0.445,4.505
        c0.312,4.272,0.63,8.563,1.338,12.78c0.694,4.131,0.853,8.085-0.562,12.127c-1.129,3.227-1.061,6.656-0.9,10.076
        c0.104,2.204-0.329,4.428-0.346,6.644c-0.03,3.911,0.032,7.825,0.168,11.733c0.02,0.582,0.651,1.142,0.961,1.65
        c-2.181,2.378-2.494,2.467-4.897,1.127c-3.977-2.219-8.148-3.66-12.78-3.447c-1.631,0.075-3.156-0.166-4.574-1.172
        C178.106,123.347,176.18,123.464,174.057,123.641z M52.979,142.759c0.945,0.588,1.614,1.075,2.345,1.437
        c0.603,0.299,1.267,0.58,1.925,0.64c1.313,0.121,2.645,0.026,3.962,0.127c1.958,0.15,3.905,0.499,5.864,0.577
        c5.273,0.208,10.55,0.359,15.826,0.455c6.614,0.121,13.229,0.141,19.844,0.248c8.142,0.133,16.284,0.3,24.426,0.477
        c2.051,0.044,4.098,0.229,6.149,0.257c1.333,0.018,2.668-0.209,4.001-0.194c7.517,0.082,15.033,0.196,22.549,0.315
        c7.514,0.119,15.028,0.259,22.542,0.375c0.146,0.002,0.295-0.17,0.55-0.327c-0.049-0.292-0.044-0.652-0.172-0.957
        c-0.957-2.287-2.063-4.448-3.414-6.579c-2.754-4.344-5.744-8.633-7.234-13.689c-0.223-0.757-0.937-1.431-1.56-1.992
        c-0.608-0.547-1.39-0.901-2.473-1.575c-2.266,0.2-4.929,0.426-7.59,0.671c-4.004,0.369-8.004,0.798-12.012,1.109
        c-1.949,0.152-3.915,0.106-5.873,0.132c-1.162,0.016-2.327-0.047-3.487,0.004c-2.144,0.094-4.285,0.337-6.428,0.354
        c-6.27,0.051-12.54,0.037-18.81,0.018c-4.657-0.014-9.317,0.005-13.971-0.14c-5.171-0.161-10.335-0.575-15.506-0.717
        c-3.121-0.086-6.25,0.181-9.376,0.212c-4.273,0.042-8.547,0.011-12.942,0.011c-0.721,1.169-1.475,2.167-1.996,3.274
        c-2.163,4.596-3.666,9.499-6.477,13.796C53.309,141.583,53.185,142.221,52.979,142.759z M153.456,119.057
        c-0.127-1.93-0.107-3.615-0.371-5.255c-0.681-4.228-1.487-8.407-0.885-12.755c0.262-1.895-0.212-3.889-0.315-5.839
        c-0.037-0.705,0.046-1.416,0.053-2.125c0.012-1.225-0.02-2.452,0.019-3.676c0.041-1.295,0.144-2.588,0.228-4.025
        c-1.042,0.103-1.826,0.18-2.778,0.274c-0.434-1.42-1.549-1.86-3.012-1.918c-1.782-0.071-3.553-0.396-5.335-0.495
        c-2.053-0.114-4.119-0.018-6.169-0.159c-6.776-0.463-13.533-1.167-20.349-0.956c-2.935,0.091-5.884-0.276-8.828-0.393
        c-1.249-0.05-2.508-0.068-3.753,0.031c-4.799,0.379-9.575,1.313-14.419,0.476c-0.603-0.104-1.253-0.032-1.869,0.05
        c-1.731,0.23-3.456,0.508-5.354,0.792c-0.424,5.89-1.972,11.729-1.551,17.767c0.074,1.055-0.158,2.133-0.26,3.199
        c-0.068,0.71-0.303,1.438-0.212,2.124c0.487,3.674,1.052,7.338,1.551,10.739c0.867,0.721,1.472,1.223,2.311,1.92
        C105.594,119.842,129.254,119.052,153.456,119.057z M66.523,53.579c0.807,0.294,1.528,0.759,2.267,0.792
        c6.873,0.311,13.749,0.585,20.626,0.795c8.136,0.249,16.27,0.039,24.418,0.563c9.459,0.608,18.969,0.461,28.457,0.539
        c6.716,0.055,13.396,0.389,20.032,1.512c2.201,0.372,4.437,0.332,6.436-0.685c0.093-1.876,0.204-3.652,0.263-5.429
        c0.046-1.405,0.102-2.817,0.025-4.219c-0.133-2.402-0.782-4.859-0.443-7.181c0.339-2.321-0.277-4.173-1.035-6.063
        c-1.964-0.624-15.188-1.529-17.438-1.331c-2.133,0.188-4.281,0.324-6.42,0.296c-2.144-0.028-4.283-0.401-6.427-0.424
        c-9.659-0.103-19.319-0.124-28.978-0.198c-8.143-0.062-16.277-0.248-24.377-1.261c-2.111-0.264-4.286-0.011-6.431-0.006
        c-1.862,0.005-3.73,0.091-5.585-0.03c-3.016-0.197-6.015-0.254-8.924-0.071c-0.843,3.839-0.392,19.875,0.552,22.603
        C64.644,54.485,65.689,54.495,66.523,53.579z M64.866,55.853c0.253,2.574,1.56,4.425,2.861,6.221
        c3.355,4.631,6.844,9.153,9.19,14.442c0.735,1.656,1.793,3.132,3.78,3.902c1.442,0.559,2.74,0.601,4.155,0.457
        c1.061-0.108,2.177-0.518,3.17-0.314c4.024,0.824,8.008,0.152,12.02,0.05c6.971-0.178,13.95-0.025,20.926,0.001
        c0.444,0.002,0.886,0.121,1.332,0.16c4.451,0.389,8.899,0.816,13.354,1.145c3.82,0.282,7.649,0.431,11.472,0.679
        c1.96,0.127,3.452-0.699,4.693-2.112c1.94-2.21,3.906-4.398,5.795-6.65c3.217-3.836,6.382-7.715,9.568-11.576
        c0.6-0.727,1.12-1.462,0.232-2.247c-1.127-0.14-2.175-0.266-3.221-0.402c-4.245-0.554-8.477-1.416-12.739-1.604
        c-8.745-0.386-17.506-0.386-26.26-0.595c-4.643-0.111-9.283-0.353-13.926-0.488c-3.302-0.096-6.606-0.122-9.909-0.162
        c-2.148-0.026-4.299,0.046-6.444-0.038c-6.699-0.261-13.395-0.621-20.095-0.85C71.53,55.76,68.231,55.853,64.866,55.853z
         M32.183,63.014c0.263,3.508,0.757,6.711,0.671,9.897c-0.084,3.094,0.111,6.06,1.253,8.935c0.914,2.302,0.962,4.639,0.791,7.102
        c-0.247,3.556-0.311,7.159-0.025,10.708c0.268,3.329,0.388,6.546-0.451,9.834c-0.7,2.742-1.376,5.577-0.132,8.431
        c0.257,0.59,0.021,1.404-0.019,2.113c-0.038,0.685-0.115,1.368-0.202,2.358c1.172,0,2.136,0.065,3.087-0.016
        c1.242-0.106,2.468-0.419,3.71-0.485c5.263-0.28,10.531-0.487,15.795-0.755c1.473-0.075,2.941-0.27,4.457-0.415
        c0.138-1.002,0.254-1.698,0.327-2.398c0.279-2.654,0.38-5.276,0.159-7.977c-0.259-3.169,0.271-6.399,0.399-9.605
        c0.222-5.537,0.388-11.076,0.599-16.613c0.105-2.76,0.269-5.518,0.385-8.278c0.03-0.713,0.165-1.494-0.059-2.134
        c-1.336-3.821-0.133-7.795-0.784-11.694c-0.353-2.117-0.438-4.186-1.782-6.198c-2.193,0-4.528-0.224-6.803,0.046
        c-4.869,0.579-9.715,1.369-14.556,2.164c-2.259,0.371-4.483,0.957-6.803,1.463c0.461,1.03,0.778,1.738,1.113,2.487
        C32.865,62.393,32.487,62.737,32.183,63.014z M198.273,62.746c-3.332,0.226-6.55,0.592-9.547-0.925
        c-0.222-0.113-0.529-0.056-0.797-0.081c-3.379-0.313-6.754-0.678-10.137-0.922c-2.104-0.152-4.232-0.28-6.461,0.211
        c-0.178,1.505-0.432,2.821-0.475,4.145c-0.267,8.217-0.428,16.438-0.737,24.653c-0.347,9.237,0.638,18.355,2.095,27.451
        c0.385,2.406,1.915,3.544,3.971,4.148c1.869,0.548,3.868,0.595,5.545,1.832c0.505,0.372,1.383,0.356,2.082,0.328
        c3.661-0.147,7.063,0.754,10.369,2.266c1.407,0.644,2.854,1.426,4.865,1.068c0-2.347-0.024-4.649,0.008-6.95
        c0.023-1.605,0.095-3.211,0.196-4.814c0.123-1.954,0.474-3.91,0.417-5.856c-0.113-3.862-0.058-7.683,0.87-11.464
        c0.487-1.981,1.095-3.998,1.133-6.008c0.047-2.477-0.47-4.962-0.694-7.448c-0.409-4.533-1.137-9.078-1.038-13.603
        C200.001,67.96,199.481,65.521,198.273,62.746z M152.763,82.398c0.13,0.138,0.261,0.275,0.391,0.412
        c0.191,1.123,0.592,2.257,0.532,3.366c-0.148,2.732,0.918,5.487-0.173,8.208c-0.141,0.353,0.154,0.864,0.19,1.307
        c0.113,1.418,0.3,2.84,0.268,4.257c-0.039,1.695-0.563,3.42-0.368,5.071c0.511,4.334,1.298,8.635,1.955,12.816
        c4.081,1.498,11.509,2.446,15.317,1.577c-0.294-1.438-0.681-2.862-0.861-4.312c-0.308-2.479-0.34-4.999-0.749-7.459
        c-0.99-5.955-0.746-11.946-0.747-17.933c-0.001-5.533,0.906-11.059,0.117-16.6c-0.074-0.52,0.017-1.068,0.07-1.599
        c0.23-2.31,0.501-4.615,0.693-6.928c0.046-0.553-0.153-1.127-0.33-2.279C163.391,69.297,158.077,75.848,152.763,82.398z
         M63.539,120.832c4.719-0.365,9.19-2.186,13.919-3.031c0.044-0.769,0.124-1.386,0.102-2c-0.022-0.622-0.146-1.24-0.223-1.86
        c-0.099-0.794-0.282-1.588-0.283-2.381c-0.008-8.042-0.14-16.082,1.354-24.055c0.629-3.355-0.002-6.615-2.204-9.412
        c-0.218-0.277-0.373-0.613-0.512-0.941c-1.875-4.403-4.735-8.195-7.476-12.061c-1.378-1.943-2.73-3.904-4.094-5.858
        c-0.268,1.323,0.111,2.524,0.006,3.681c-0.499,5.525,0.559,11.009,0.181,16.556c-0.516,7.577-0.463,15.193-0.635,22.793
        c-0.053,2.325-0.003,4.653-0.069,6.978c-0.103,3.63-0.267,7.258-0.39,10.888C63.209,120.283,63.353,120.442,63.539,120.832z
         M65.094,121.913c0.023,0.14,0.046,0.28,0.069,0.421c0.775,0,1.552,0.026,2.326-0.005c1.959-0.078,3.917-0.272,5.875-0.254
        c3.029,0.028,6.078,0.463,9.081,0.235c3.849-0.293,7.649,0.185,11.468,0.246c5.533,0.087,11.057,0.699,16.59,0.821
        c6.072,0.133,12.15-0.001,18.225-0.087c4.198-0.059,8.405-0.485,12.588-0.296c5.949,0.27,11.714-1.225,17.602-1.403
        c1.551-0.047,3.096-0.282,4.644-0.431c-2.264-0.565-4.541-1.497-6.825-0.683c-1.797,0.641-3.472,0.55-5.242,0.155
        c-0.777-0.173-1.598-0.256-2.393-0.226c-2.585,0.099-5.167,0.386-7.751,0.382c-3.303-0.005-6.606-0.348-9.907-0.321
        c-4.913,0.04-9.824,0.32-14.737,0.415c-3.396,0.065-6.797,0.053-10.193-0.038c-7.052-0.187-14.121,0.603-21.162-0.451
        c-1.299-0.194-2.67,0.05-4.004,0.144c-1.123,0.08-2.24,0.236-3.165,0.336c-0.597-0.727-0.971-1.182-1.387-1.688
        C72.819,120.112,68.957,121.012,65.094,121.913z"/>
      <path d="M36.865,129.327c-0.1-1.646,0.418-1.733,1.533-0.718C37.754,128.911,37.31,129.119,36.865,129.327z"/>
      <path style="fill:#FFFFFF;" d="M52.979,142.759c0.206-0.539,0.331-1.177,0.66-1.681c2.81-4.297,4.314-9.2,6.477-13.796
        c0.521-1.107,1.275-2.105,1.996-3.274c4.395,0,8.668,0.032,12.942-0.011c3.126-0.031,6.255-0.297,9.376-0.212
        c5.171,0.142,10.335,0.556,15.506,0.717c4.654,0.145,9.314,0.125,13.971,0.14c6.27,0.019,12.54,0.033,18.81-0.018
        c2.143-0.017,4.284-0.261,6.428-0.354c1.16-0.051,2.325,0.012,3.487-0.004c1.958-0.026,3.924,0.02,5.873-0.132
        c4.009-0.312,8.008-0.74,12.012-1.109c2.661-0.245,5.324-0.471,7.59-0.671c1.083,0.674,1.865,1.028,2.473,1.575
        c0.623,0.561,1.337,1.235,1.56,1.992c1.49,5.056,4.48,9.344,7.234,13.689c1.351,2.132,2.457,4.293,3.414,6.579
        c0.128,0.305,0.123,0.665,0.172,0.957c-0.255,0.157-0.404,0.33-0.55,0.327c-7.514-0.117-15.028-0.256-22.542-0.375
        c-7.516-0.119-15.033-0.233-22.549-0.315c-1.333-0.015-2.669,0.212-4.001,0.194c-2.05-0.028-4.098-0.213-6.149-0.257
        c-8.142-0.177-16.284-0.344-24.426-0.477c-6.614-0.108-13.23-0.128-19.844-0.248c-5.277-0.096-10.553-0.247-15.826-0.455
        c-1.959-0.077-3.906-0.426-5.864-0.577c-1.316-0.101-2.648-0.006-3.962-0.127c-0.658-0.061-1.322-0.341-1.925-0.64
        C54.593,143.834,53.924,143.348,52.979,142.759z"/>
      <path style="fill:#FFFFFF;" d="M66.523,53.579c-0.834,0.916-1.878,0.906-2.981,0.205c-0.944-2.728-1.396-18.764-0.552-22.603
        c2.909-0.183,5.908-0.126,8.924,0.071c1.854,0.121,3.723,0.035,5.585,0.03c2.145-0.005,4.32-0.258,6.431,0.006
        c8.1,1.013,16.234,1.199,24.377,1.261c9.659,0.074,19.319,0.094,28.978,0.198c2.143,0.023,4.283,0.396,6.427,0.424
        c2.139,0.028,4.287-0.108,6.42-0.296c2.25-0.198,15.473,0.707,17.438,1.331c0.758,1.89,1.374,3.742,1.035,6.063
        c-0.339,2.321,0.31,4.778,0.443,7.181c0.078,1.402,0.022,2.813-0.025,4.219c-0.059,1.777-0.169,3.552-0.263,5.429
        c-1.999,1.016-4.235,1.057-6.436,0.685c-6.636-1.122-13.315-1.456-20.032-1.512c-9.489-0.078-18.999,0.068-28.457-0.539
        c-8.148-0.524-16.282-0.314-24.418-0.563c-6.877-0.21-13.753-0.485-20.626-0.795C68.05,54.338,67.33,53.873,66.523,53.579z"/>
      <path style="fill:#FFFFFF;" d="M32.183,63.014c0.304-0.277,0.681-0.621,1.132-1.031c-0.335-0.749-0.652-1.457-1.113-2.487
        c2.32-0.506,4.544-1.092,6.803-1.463c4.84-0.796,9.686-1.585,14.556-2.164c2.275-0.271,4.61-0.046,6.803-0.046
        c1.344,2.012,1.428,4.081,1.782,6.198c0.651,3.899-0.552,7.873,0.784,11.694c0.224,0.641,0.089,1.421,0.059,2.134
        c-0.116,2.76-0.28,5.518-0.385,8.278c-0.211,5.537-0.377,11.076-0.599,16.613c-0.129,3.206-0.659,6.436-0.399,9.605
        c0.221,2.701,0.12,5.323-0.159,7.977c-0.074,0.7-0.189,1.396-0.327,2.398c-1.517,0.145-2.984,0.34-4.457,0.415
        c-5.264,0.269-10.531,0.475-15.795,0.755c-1.242,0.066-2.468,0.379-3.71,0.485c-0.951,0.081-1.915,0.016-3.087,0.016
        c0.087-0.99,0.164-1.673,0.202-2.358c0.039-0.709,0.276-1.523,0.019-2.113c-1.245-2.854-0.569-5.689,0.132-8.431
        c0.84-3.288,0.72-6.505,0.451-9.834c-0.286-3.548-0.223-7.152,0.025-10.708c0.171-2.463,0.123-4.8-0.791-7.102
        c-1.141-2.875-1.336-5.841-1.253-8.935C32.94,69.724,32.447,66.522,32.183,63.014z M34.74,63.269
        c-2.115,1.062-2.115,1.062-0.751,2.459C34.921,65.22,35.091,64.47,34.74,63.269z"/>
      <path style="fill:#FFFFFF;" d="M198.273,62.746c1.209,2.775,1.728,5.214,1.667,8.03c-0.098,4.525,0.63,9.069,1.038,13.603
        c0.224,2.486,0.741,4.971,0.694,7.448c-0.038,2.01-0.646,4.027-1.133,6.008c-0.929,3.781-0.984,7.602-0.87,11.464
        c0.057,1.946-0.294,3.902-0.417,5.856c-0.101,1.602-0.173,3.208-0.196,4.814c-0.033,2.301-0.008,4.603-0.008,6.95
        c-2.011,0.357-3.458-0.425-4.865-1.068c-3.306-1.512-6.708-2.413-10.369-2.266c-0.7,0.028-1.577,0.044-2.082-0.328
        c-1.678-1.237-3.677-1.284-5.545-1.832c-2.057-0.603-3.586-1.742-3.971-4.148c-1.457-9.097-2.443-18.214-2.095-27.451
        c0.309-8.215,0.47-16.436,0.737-24.653c0.043-1.323,0.296-2.64,0.475-4.145c2.229-0.491,4.357-0.363,6.461-0.211
        c3.384,0.245,6.759,0.609,10.137,0.922c0.267,0.025,0.575-0.032,0.797,0.081C191.723,63.338,194.94,62.972,198.273,62.746z"/>
      <path d="M34.74,63.269c0.351,1.202,0.181,1.951-0.751,2.459C32.625,64.33,32.625,64.33,34.74,63.269z"/>
      <path d="M164.305,115.002c-0.355-0.16-0.71-0.32-1.065-0.48c0.059-0.167,0.118-0.334,0.176-0.501
        c0.394,0.114,0.788,0.227,1.181,0.341C164.501,114.575,164.403,114.788,164.305,115.002z"/>
    </g>
    <g style="opacity:0.45;">
      <path d="M153.456,119.057c-24.202-0.006-47.862,0.785-71.298-0.223c-0.839-0.697-1.444-1.2-2.311-1.92
        c-0.499-3.401-1.065-7.065-1.551-10.739c-0.091-0.686,0.144-1.414,0.212-2.124c0.102-1.066,0.334-2.144,0.26-3.199
        c-0.42-6.038,1.128-11.877,1.551-17.767c1.898-0.284,3.623-0.562,5.354-0.792c0.616-0.082,1.266-0.154,1.869-0.05
        c4.844,0.837,9.62-0.097,14.419-0.476c1.244-0.098,2.504-0.08,3.753-0.031c2.944,0.117,5.892,0.484,8.828,0.393
        c6.816-0.211,13.573,0.493,20.349,0.956c2.05,0.14,4.116,0.045,6.169,0.159c1.782,0.099,3.553,0.423,5.335,0.495
        c1.464,0.059,2.579,0.498,3.012,1.918c0.951-0.094,1.735-0.171,2.778-0.274c-0.084,1.438-0.186,2.73-0.228,4.025
        c-0.039,1.224-0.007,2.451-0.019,3.676c-0.007,0.709-0.09,1.42-0.053,2.125c0.103,1.951,0.577,3.944,0.315,5.839
        c-0.602,4.348,0.204,8.527,0.885,12.755C153.349,115.442,153.329,117.127,153.456,119.057z"/>
      <path d="M64.866,55.853c3.365,0,6.664-0.093,9.957,0.019c6.7,0.229,13.396,0.589,20.095,0.85c2.145,0.084,4.296,0.012,6.444,0.038
        c3.303,0.039,6.607,0.065,9.909,0.162c4.643,0.135,9.283,0.377,13.926,0.488c8.753,0.209,17.515,0.209,26.26,0.595
        c4.261,0.188,8.493,1.05,12.739,1.604c1.046,0.137,2.094,0.262,3.221,0.402c0.888,0.785,0.368,1.52-0.232,2.247
        c-3.186,3.861-6.352,7.74-9.568,11.576c-1.889,2.253-3.855,4.441-5.795,6.65c-1.241,1.413-2.733,2.24-4.693,2.112
        c-3.823-0.248-7.652-0.397-11.472-0.679c-4.455-0.329-8.903-0.756-13.354-1.145c-0.445-0.039-0.888-0.158-1.332-0.16
        c-6.976-0.026-13.955-0.179-20.926-0.001c-4.012,0.102-7.997,0.774-12.02-0.05c-0.993-0.203-2.109,0.207-3.17,0.314
        c-1.414,0.144-2.713,0.102-4.155-0.457c-1.987-0.771-3.046-2.247-3.78-3.902c-2.347-5.289-5.835-9.811-9.19-14.442
        C66.426,60.278,65.119,58.427,64.866,55.853z"/>
      <path d="M152.763,82.398c5.314-6.551,10.628-13.101,16.303-20.096c0.177,1.152,0.376,1.725,0.33,2.279
        c-0.192,2.312-0.463,4.618-0.693,6.928c-0.053,0.531-0.144,1.08-0.07,1.599c0.789,5.541-0.119,11.067-0.117,16.6
        c0.001,5.987-0.243,11.978,0.747,17.933c0.409,2.46,0.441,4.979,0.749,7.459c0.18,1.45,0.567,2.874,0.861,4.312
        c-3.808,0.869-11.236-0.078-15.317-1.577c-0.656-4.181-1.444-8.482-1.955-12.816c-0.195-1.652,0.33-3.376,0.368-5.071
        c0.032-1.416-0.155-2.839-0.268-4.257c-0.035-0.443-0.331-0.954-0.19-1.307c1.091-2.721,0.025-5.475,0.173-8.208
        c0.06-1.109-0.341-2.243-0.532-3.366C153.023,82.673,152.893,82.536,152.763,82.398z M164.305,115.002
        c0.098-0.213,0.195-0.427,0.293-0.64c-0.394-0.114-0.788-0.227-1.181-0.341c-0.059,0.167-0.118,0.334-0.176,0.501
        C163.595,114.681,163.95,114.842,164.305,115.002z"/>
      <path d="M63.539,120.832c-0.186-0.39-0.33-0.549-0.325-0.702c0.123-3.63,0.287-7.258,0.39-10.888
        c0.066-2.325,0.016-4.653,0.069-6.978c0.172-7.6,0.119-15.216,0.635-22.793c0.378-5.547-0.68-11.031-0.181-16.556
        c0.105-1.157-0.274-2.358-0.006-3.681c1.364,1.953,2.717,3.914,4.094,5.858c2.741,3.866,5.6,7.658,7.476,12.061
        c0.14,0.328,0.294,0.664,0.512,0.941c2.203,2.797,2.833,6.057,2.204,9.412c-1.494,7.973-1.362,16.013-1.354,24.055
        c0.001,0.794,0.184,1.588,0.283,2.381c0.078,0.62,0.201,1.238,0.223,1.86c0.022,0.614-0.058,1.231-0.102,2
        C72.729,118.646,68.258,120.467,63.539,120.832z"/>
      <path d="M65.094,121.913c3.863-0.901,7.725-1.802,11.703-2.729c0.416,0.506,0.79,0.962,1.387,1.688
        c0.925-0.101,2.042-0.257,3.165-0.336c1.334-0.094,2.705-0.339,4.004-0.144c7.041,1.054,14.11,0.264,21.162,0.451
        c3.396,0.09,6.797,0.103,10.193,0.038c4.913-0.094,9.824-0.375,14.737-0.415c3.301-0.027,6.604,0.316,9.907,0.321
        c2.583,0.004,5.166-0.284,7.751-0.382c0.795-0.03,1.616,0.053,2.393,0.226c1.77,0.395,3.445,0.486,5.242-0.155
        c2.283-0.815,4.561,0.118,6.825,0.683c-1.548,0.149-3.093,0.384-4.644,0.431c-5.888,0.179-11.653,1.673-17.602,1.403
        c-4.183-0.19-8.39,0.237-12.588,0.296c-6.075,0.086-12.153,0.22-18.225,0.087c-5.534-0.121-11.057-0.733-16.59-0.821
        c-3.82-0.06-7.619-0.538-11.468-0.246c-3.003,0.228-6.052-0.207-9.081-0.235c-1.957-0.018-3.916,0.176-5.875,0.254
        c-0.774,0.031-1.551,0.005-2.326,0.005C65.14,122.194,65.117,122.053,65.094,121.913z"/>
    </g>
    </g>
  </defs>
</svg>
