<svg version="1.1"
   xmlns="http://www.w3.org/2000/svg" xmlns:xlink="http://www.w3.org/1999/xlink" x="0px" y="0px" viewBox="0 0 236 180.8"
   style="enable-background:new 0 0 236 180.8;display:none;" xml:space="preserve">
<style type="text/css">
  .st0{fill:#1D1D1B;}
  .st1{fill:#FFFFFF;}
  .st2{opacity:0.35;enable-background:new;}
</style>
  <defs>
    <g id="57">
    <g>
      <path d="M55.517,138.634c-1.119-0.901-1.119-0.901-1.048-2.216c0.87-1.013,1.749-1.79,2.32-2.749
        c1.544-2.592,3.677-4.509,6.1-6.269c1.319-0.958,2.212-2.529,3.219-3.883c0.791-1.062,1.461-2.214,2.185-3.328
        c-2.303-1.361-19.455-5.257-22.762-5.201c-0.147-0.232-0.414-0.497-0.5-0.812c-0.787-2.895-2.336-5.407-3.966-7.867
        c-3.857-5.824-5.831-12.403-7.731-19.018c-1.031-3.588-2.113-7.162-3.107-10.76c-0.613-2.222-1.103-4.479-1.704-6.951
        c0.757-0.345,1.535-0.701,2.313-1.056c0.001,0.145,0.002,0.291,0.004,0.436c2.403,0.557,4.812,1.095,7.209,1.678
        c3.115,0.757,6.234,1.504,9.328,2.341c2.828,0.765,5.625,1.644,8.706,2.552c0.386-0.418,0.903-0.978,1.42-1.537
        c-0.151-0.046-0.303-0.093-0.454-0.139c0.209-3.439,0.414-6.879,0.631-10.317c0.045-0.704,0.338-1.456,0.172-2.097
        c-0.564-2.182-0.001-4.248,0.372-6.355c0.217-1.226,0.406-2.482,0.372-3.718c-0.021-0.799-0.467-1.586-0.856-2.791
        c0.275-0.387,0.846-1.191,1.513-2.13c2.647,2.001,5.514,1.108,8.197,1.127c3.973,0.029,8.007,0.333,12.14-0.746
        c0.369-1.128,0.751-2.297,1.181-3.611c0.775-1.021,2.007-1.127,3.294-0.988c3.29,0.356,6.568,0.88,9.866,1.076
        c4.544,0.27,9.101,0.31,13.654,0.429c2.762,0.072,5.526,0.071,8.287,0.172c2.497,0.091,4.99,0.269,7.485,0.42
        c2.497,0.151,4.992,0.418,7.489,0.439c1.776,0.015,3.552-0.335,5.332-0.445c3.916-0.241,7.833-0.504,11.753-0.597
        c1.112-0.027,2.238,0.5,3.593,0.83c0.211,0.35,0.524,0.876,0.844,1.396c0.624,1.012,1.482,1.479,2.707,1.274
        c5.918-0.989,11.89-0.619,17.845-0.679c1.151-0.012,2.303-0.002,3.655-0.002c0.254,0.619,0.729,1.251,0.741,1.892
        c0.104,5.623,0.08,11.248,0.189,16.871c0.06,3.109,0.302,6.214,0.47,9.472c1.698-0.119,3.355-0.2,5.003-0.36
        c3.278-0.318,6.568-0.569,9.822-1.055c2.811-0.42,5.779-0.683,8.307-1.833c2.406-1.094,4.476-0.326,7.053-0.371
        c-0.395,1.47-0.725,2.699-1.113,4.14c-1.473,0.139-2.017,1.373-2.541,2.561c-2.021,4.583-4.217,9.055-6.97,13.267
        c-1.357,2.077-2.157,4.51-3.343,6.71c-0.957,1.776-2.169,3.412-3.169,5.167c-1.804,3.164-3.678,6.302-5.226,9.591
        c-0.608,1.291-0.418,2.957-0.626,4.744c-4.211,1.723-8.846,1.432-13.293,1.997c-4.478,0.569-9.041,0.475-13.648,0.675
        c2.334,6.105,5.945,11.577,10.012,16.647c-0.771,1.902-1.446,2.307-2.679,1.386c-2.347-1.753-5.022-1.329-7.63-1.446
        c-0.703-0.032-1.409-0.022-2.112-0.06c-0.887-0.047-1.774-0.199-2.658-0.174c-5.891,0.163-11.78,0.469-17.672,0.52
        c-6.696,0.058-13.396-0.239-20.09-0.129c-6.258,0.103-12.51,0.55-18.767,0.815c-1.867,0.079-3.739,0.033-5.607,0.082
        c-2.669,0.069-5.336,0.239-8.004,0.238c-1.687-0.001-3.373-0.311-5.063-0.35c-3.307-0.076-6.617-0.125-9.924-0.062
        c-3.026,0.058-6.053,0.23-9.072,0.452C57.84,138.013,56.729,138.378,55.517,138.634z M82.075,73.657
        c0.585,0.205,1.379,0.734,2.158,0.714c3.391-0.089,6.777-0.376,10.168-0.523c8.305-0.359,16.61-0.74,24.919-0.985
        c3.209-0.095,6.429,0.107,9.641,0.257c4.643,0.216,9.266,0.568,13.819,1.653c1.984,0.473,4.064,0.731,6.104,0.753
        c5.727,0.06,11.457-0.016,17.185-0.116c2.4-0.042,4.809-0.172,7.191-0.456c2.339-0.278,2.783-0.912,2.909-3.352
        c0.032-0.625,0.057-1.253,0.038-1.878c-0.112-3.732-0.18-7.466-0.377-11.194c-0.155-2.926-0.474-5.844-0.698-8.506
        c-0.916-1.222-1.976-1.309-3.076-1.311c-4.118-0.008-8.238-0.095-12.354-0.021C153,48.813,146.298,48.99,139.6,49.241
        c-2.757,0.104-5.506,0.439-8.255,0.711c-4.607,0.456-9.214,0.922-13.816,1.428c-3.995,0.44-7.782-0.975-11.699-1.236
        c-2.573-0.171-5.129-0.573-7.701-0.768c-3.891-0.294-7.705-1.748-11.684-0.796c-0.239,0.057-0.547-0.014-0.781-0.118
        c-2.152-0.954-4.169-0.505-6.134,0.735c-0.755-0.961-1.584-0.98-2.661-0.821c-3.87,0.572-7.76,1.056-11.659,1.361
        c-1.745,0.137-3.303,0.566-4.812,1.355c-0.175,1.38-0.139,2.771-0.554,4.011c-0.851,2.546-0.936,5.063-0.408,7.659
        c0.101,0.498,0.067,1.087-0.099,1.566c-1.283,3.704-0.678,7.368,0.028,11.013c2.244,1.062,4.52,0.783,6.715,0.606
        c4.711-0.381,9.407-0.956,14.102-1.504C80.767,74.374,81.316,73.982,82.075,73.657z M70.241,120.557
        c-1.806,2.387-3.315,4.487-4.942,6.49c-0.886,1.09-1.875,2.145-2.99,2.99c-2.106,1.596-3.868,3.38-4.532,6.072
        c1.77-0.132,3.517-0.398,5.258-0.368c7.059,0.121,14.117,0.445,21.176,0.475c5.722,0.025,11.445-0.278,17.168-0.408
        c7.867-0.178,15.733-0.376,23.601-0.473c3.48-0.043,6.968,0.296,10.445,0.189c5.624-0.173,11.239-0.629,16.862-0.852
        c3.197-0.127,6.404-0.016,9.606-0.041c0.592-0.004,1.183-0.142,1.979-0.244c-0.337-0.92-0.483-1.74-0.902-2.382
        c-1.02-1.559-2.265-2.974-3.238-4.558c-1.394-2.269-2.52-4.706-3.963-6.94c-1.172-1.815-2.287-3.768-5.051-3.698
        c-2.115,0.054-4.198-0.159-6.359,0.082c-5.495,0.611-11.038,0.786-16.559,1.165c-6.384,0.439-12.761,0.985-19.149,1.348
        c-8.028,0.456-16.062,0.851-24.098,1.123C79.839,120.687,75.117,120.557,70.241,120.557z M153.827,114.833
        c-0.93-1.493-1.547-2.37-2.046-3.309c-0.958-1.8-1.875-3.623-2.762-5.459c-0.657-1.358-1.106-2.832-1.883-4.111
        c-1.94-3.195-4.014-6.309-6.115-9.581c-0.841-0.039-1.731-0.164-2.609-0.105c-2.129,0.144-4.258,0.574-6.378,0.526
        c-4.389-0.101-8.742-0.113-13.109,0.562c-2.905,0.449-5.878,0.509-8.825,0.628c-6.417,0.257-12.835,0.512-19.255,0.615
        c-2.247,0.036-4.004,0.578-5.116,2.638c-0.934,1.73-1.891,3.449-2.871,5.154c-2.22,3.86-4.094,7.925-7.235,11.22
        c-1.239,1.299-2.066,2.991-3.402,4.982c3.452,0.097,6.291,0.306,9.121,0.226c4.633-0.132,9.259-0.473,13.89-0.69
        c5.437-0.255,10.88-0.416,16.313-0.73c2.489-0.143,4.959-0.585,7.443-0.833c2.842-0.284,5.685-0.596,8.536-0.726
        c3.021-0.138,6.051-0.063,9.077-0.109c0.709-0.011,1.416-0.142,2.126-0.203c3.816-0.326,7.605-1.085,11.472-0.613
        C151.218,115.039,152.27,114.878,153.827,114.833z M204.969,73.967c-2.821-1.302-5.062-0.834-7.473-0.252
        c-3.187,0.769-6.521,0.928-9.791,1.358c-2.646,0.347-5.295,0.678-7.934,1.071c-1.599,0.238-2.748,1.126-3.489,2.596
        c-0.801,1.589-1.649,3.157-2.544,4.695c-3.542,6.082-6.91,12.262-9.374,18.864c-1.823,4.885-4.058,9.499-7.366,13.54
        c0.104,0.668,0.194,1.278,0.3,1.884c0.013,0.074,0.109,0.134,0.147,0.177c8.083,1.805,15.937-0.513,23.532-1.103
        c1.129-1.664,2.136-3.076,3.067-4.536c1.533-2.405,3.039-4.828,4.515-7.269c1.798-2.972,3.751-5.873,5.275-8.982
        c1.799-3.669,3.985-7.103,5.904-10.688C201.696,81.663,203.235,77.779,204.969,73.967z M83.754,75.991
        c0.181,5.75,1.452,10.811,3.659,15.658c0.488,1.071,1.005,1.553,2.185,1.367c1.054-0.166,2.128-0.247,3.196-0.279
        c5.799-0.174,11.606-0.195,17.397-0.516c4.986-0.277,9.952-0.892,14.929-1.34c0.705-0.063,1.418-0.034,2.128-0.036
        c4.811-0.016,9.621-0.028,14.523-0.042c2.331-4.588,3.512-9.134,3.782-14.252c-4.188-0.695-8.122-1.585-12.103-1.946
        c-4.626-0.419-9.293-0.47-13.943-0.495c-3.391-0.018-6.788,0.215-10.176,0.425c-4.725,0.293-9.442,0.728-14.168,0.989
        c-2.68,0.148-5.373,0.033-8.058,0.107C85.963,75.661,84.828,75.87,83.754,75.991z M68.658,117.481
        c0.078-0.711,0.305-1.327,0.178-1.858c-0.87-3.64-1.709-7.293-2.755-10.884c-2.165-7.435-5.256-14.591-6.701-22.249
        c-0.197-1.042-0.643-2.045-1.043-3.039c-0.579-1.439-1.67-2.25-3.221-2.44c-0.605-0.074-1.219-0.14-1.807-0.292
        c-3.615-0.938-7.308-1.663-10.811-2.918c-3.61-1.293-7.231-2.19-11.4-2.362c0.589,1.974,1.219,3.8,1.672,5.669
        c0.765,3.153,1.973,6.087,3.587,8.913c1.321,2.313,2.32,4.816,3.389,7.266c0.461,1.058,0.629,2.248,1.118,3.29
        c2.383,5.082,4.55,10.237,5.801,15.722C53.848,114.355,61,116.489,68.658,117.481z M155.334,114.709
        c0.737-0.975,1.278-1.772,1.901-2.498c2.181-2.544,3.732-5.483,4.915-8.557c1.506-3.91,2.826-7.874,4.904-11.55
        c2.405-4.254,4-8.945,6.911-12.935c0.478-0.655,0.927-1.35,0.347-2.149c-8.827,0-17.613,0-26.546,0
        c-0.371,1.145-0.716,2.043-0.949,2.97c-0.372,1.472-0.685,2.96-0.994,4.446c-0.576,2.772-1.201,5.537-1.653,8.33
        c-0.131,0.81,0.081,1.795,0.453,2.542c0.712,1.434,1.592,2.795,2.509,4.113c1.383,1.988,2.603,4.03,3.32,6.373
        C151.455,109.076,153.549,111.755,155.334,114.709z M59.637,77.928c2.017,6.654,4.005,13.08,5.909,19.531
        c1.898,6.429,3.696,12.888,5.655,19.357c5.939-6.744,10.369-14.097,14.056-21.707c-1.234-6.332-2.44-12.519-3.691-18.936
        c-2.843-0.04-5.827-0.139-8.837,0.567c-2.147,0.504-4.394,0.612-6.605,0.808C64.091,77.729,62.047,77.792,59.637,77.928z
         M84.523,46.643c6.327,0.52,12.367,1.011,18.406,1.516c1.957,0.164,3.923,0.278,5.863,0.563c4.879,0.716,9.767,0.786,14.673,0.413
        c1.416-0.108,2.838-0.132,4.256-0.229c2.133-0.146,4.305-0.12,6.388-0.532c3.697-0.731,7.372-1.269,11.15-0.851
        c1.243,0.137,2.512,0.113,3.533-0.689c-2.034-0.356-4.062-1.098-6.022-0.946c-1.936,0.15-3.92,0.458-5.852,0.505
        c-3.992,0.099-7.993-0.18-11.99-0.316c-1.427-0.049-2.856-0.102-4.28-0.214c-1.89-0.148-3.853,0.781-5.677-0.381
        c-0.058-0.037-0.173,0.016-0.354,0.039c-0.482,0.378-1.027,0.805-1.205,0.945c-2.824-0.164-5.232-0.305-7.788-0.454
        c-0.191-0.146-0.575-0.441-1.115-0.855c-0.395,0.662-0.69,1.155-1.098,1.839c-1.996,0-4.1,0-6.551,0
        c-0.38-0.176-1.07-0.646-1.828-0.818c-2.512-0.57-5.054-1.01-7.574-1.547C86.079,44.338,85.241,44.877,84.523,46.643z
         M35.355,86.197c-0.176,0.072-0.353,0.145-0.529,0.217c2.211,7.097,4.141,14.31,9.037,20.303
        C41.028,99.877,38.192,93.037,35.355,86.197z M112.019,45.232c-1.506-1.147-2.295-0.347-3.107,0.269
        C109.781,45.425,110.65,45.35,112.019,45.232z"/>
      <path style="fill:#FFFFFF;" d="M82.075,73.657c-0.759,0.325-1.308,0.717-1.895,0.786c-4.696,0.549-9.392,1.123-14.102,1.504
        c-2.195,0.177-4.471,0.457-6.715-0.606c-0.706-3.644-1.311-7.309-0.028-11.013c0.166-0.479,0.2-1.068,0.099-1.566
        c-0.528-2.596-0.443-5.113,0.408-7.659c0.415-1.24,0.379-2.631,0.554-4.011c1.509-0.789,3.067-1.218,4.812-1.355
        c3.899-0.306,7.789-0.789,11.659-1.361c1.078-0.159,1.906-0.14,2.661,0.821c1.965-1.24,3.982-1.689,6.134-0.735
        c0.235,0.104,0.542,0.176,0.781,0.118c3.979-0.952,7.793,0.502,11.684,0.796c2.572,0.194,5.128,0.597,7.701,0.768
        c3.917,0.261,7.705,1.675,11.699,1.236c4.602-0.507,9.209-0.972,13.816-1.428c2.749-0.272,5.498-0.608,8.255-0.711
        c6.698-0.252,13.4-0.428,20.102-0.549c4.117-0.074,8.236,0.013,12.354,0.021c1.1,0.002,2.159,0.089,3.076,1.311
        c0.224,2.662,0.544,5.579,0.698,8.506c0.197,3.727,0.265,7.462,0.377,11.194c0.019,0.625-0.006,1.253-0.038,1.878
        c-0.126,2.44-0.57,3.074-2.909,3.352c-2.382,0.283-4.791,0.414-7.191,0.456c-5.728,0.1-11.458,0.176-17.185,0.116
        c-2.04-0.021-4.119-0.28-6.104-0.753c-4.553-1.085-9.176-1.437-13.819-1.653c-3.211-0.15-6.432-0.351-9.641-0.257
        c-8.309,0.245-16.614,0.626-24.919,0.985c-3.391,0.146-6.776,0.433-10.168,0.523C83.454,74.391,82.66,73.862,82.075,73.657z"/>
      <path style="fill:#FFFFFF;" d="M70.241,120.557c4.875,0,9.598,0.13,14.311-0.029c8.036-0.272,16.07-0.666,24.098-1.123
        c6.388-0.363,12.765-0.91,19.149-1.348c5.522-0.38,11.064-0.555,16.559-1.165c2.161-0.24,4.244-0.028,6.359-0.082
        c2.764-0.07,3.879,1.883,5.051,3.698c1.443,2.234,2.569,4.671,3.963,6.94c0.973,1.584,2.218,2.999,3.238,4.558
        c0.42,0.642,0.566,1.462,0.902,2.382c-0.796,0.102-1.387,0.24-1.979,0.244c-3.202,0.024-6.408-0.086-9.606,0.041
        c-5.623,0.223-11.238,0.679-16.862,0.852c-3.476,0.107-6.964-0.231-10.445-0.189c-7.868,0.097-15.734,0.295-23.601,0.473
        c-5.723,0.13-11.446,0.433-17.168,0.408c-7.059-0.031-14.116-0.355-21.176-0.475c-1.742-0.03-3.489,0.236-5.258,0.368
        c0.663-2.692,2.425-4.476,4.532-6.072c1.115-0.844,2.104-1.9,2.99-2.99C66.926,125.044,68.435,122.944,70.241,120.557z"/>
      <path style="fill:#FFFFFF;" d="M204.969,73.967c-1.735,3.812-3.273,7.696-5.231,11.355c-1.919,3.585-4.105,7.019-5.904,10.688
        c-1.524,3.109-3.477,6.01-5.275,8.982c-1.476,2.44-2.982,4.863-4.515,7.269c-0.931,1.46-1.938,2.872-3.067,4.536
        c-7.595,0.59-15.449,2.908-23.532,1.103c-0.038-0.044-0.134-0.103-0.147-0.177c-0.106-0.607-0.196-1.216-0.3-1.884
        c3.309-4.041,5.544-8.655,7.366-13.54c2.463-6.602,5.832-12.782,9.374-18.864c0.895-1.538,1.743-3.106,2.544-4.695
        c0.741-1.47,1.89-2.357,3.489-2.596c2.639-0.394,5.288-0.724,7.934-1.071c3.27-0.429,6.604-0.588,9.791-1.358
        C199.908,73.133,202.149,72.665,204.969,73.967z"/>
      <path style="fill:#FFFFFF;" d="M68.658,117.481c-7.658-0.991-14.811-3.126-21.993-5.181c-1.251-5.485-3.418-10.64-5.801-15.722
        c-0.489-1.042-0.656-2.232-1.118-3.29c-1.069-2.451-2.068-4.953-3.389-7.266c-1.614-2.826-2.822-5.76-3.587-8.913
        c-0.453-1.869-1.083-3.695-1.672-5.669c4.169,0.172,7.79,1.069,11.4,2.362c3.503,1.254,7.196,1.98,10.811,2.918
        c0.588,0.153,1.201,0.218,1.807,0.292c1.552,0.189,2.642,1.001,3.221,2.44c0.4,0.993,0.846,1.997,1.043,3.039
        c1.445,7.658,4.536,14.813,6.701,22.249c1.046,3.591,1.885,7.244,2.755,10.884C68.963,116.153,68.736,116.769,68.658,117.481z"/>
      <path style="fill:#FFFFFF;" d="M84.523,46.643c0.718-1.766,1.556-2.305,2.934-2.011c2.52,0.537,5.062,0.977,7.574,1.547
        c0.758,0.172,1.448,0.642,1.828,0.818c2.452,0,4.555,0,6.551,0c0.408-0.683,0.703-1.177,1.098-1.839
        c0.54,0.414,0.925,0.709,1.115,0.855c2.556,0.149,4.965,0.289,7.788,0.454c0.179-0.14,0.724-0.567,1.205-0.945
        c0.181-0.023,0.296-0.075,0.354-0.039c1.823,1.162,3.787,0.233,5.677,0.381c1.423,0.111,2.852,0.165,4.28,0.214
        c3.997,0.137,7.999,0.415,11.99,0.316c1.932-0.048,3.915-0.356,5.852-0.505c1.96-0.152,3.988,0.59,6.022,0.946
        c-1.021,0.802-2.29,0.826-3.533,0.689c-3.778-0.417-7.453,0.121-11.15,0.851c-2.083,0.412-4.254,0.386-6.388,0.532
        c-1.417,0.097-2.839,0.121-4.256,0.229c-4.907,0.373-9.794,0.302-14.673-0.413c-1.94-0.285-3.906-0.399-5.863-0.563
        C96.89,47.654,90.85,47.163,84.523,46.643z"/>
      <path style="fill:#FFFFFF;" d="M35.355,86.197c2.836,6.84,5.672,13.68,8.509,20.52c-4.897-5.993-6.826-13.206-9.037-20.303
        C35.003,86.342,35.179,86.269,35.355,86.197z"/>
      <path style="fill:#FFFFFF;" d="M112.019,45.232c-1.368,0.118-2.238,0.193-3.107,0.269
        C109.724,44.885,110.512,44.085,112.019,45.232z"/>
    </g>
    <g style="opacity:0.25;">
      <path d="M153.827,114.833c-1.556,0.045-2.609,0.206-3.627,0.081c-3.867-0.472-7.656,0.287-11.472,0.613
        c-0.709,0.061-1.416,0.192-2.126,0.203c-3.026,0.046-6.056-0.028-9.077,0.109c-2.851,0.13-5.694,0.442-8.536,0.726
        c-2.484,0.248-4.954,0.69-7.443,0.833c-5.434,0.313-10.876,0.475-16.313,0.73c-4.631,0.217-9.257,0.558-13.89,0.69
        c-2.83,0.081-5.668-0.129-9.121-0.226c1.336-1.991,2.163-3.683,3.402-4.982c3.141-3.295,5.015-7.36,7.235-11.22
        c0.98-1.705,1.938-3.423,2.871-5.154c1.112-2.06,2.869-2.602,5.116-2.638c6.42-0.103,12.838-0.358,19.255-0.615
        c2.947-0.118,5.92-0.179,8.825-0.628c4.366-0.675,8.72-0.663,13.109-0.562c2.12,0.049,4.249-0.382,6.378-0.526
        c0.878-0.059,1.768,0.066,2.609,0.105c2.101,3.272,4.175,6.386,6.115,9.581c0.777,1.28,1.227,2.754,1.883,4.111
        c0.888,1.836,1.804,3.659,2.762,5.459C152.28,112.463,152.897,113.34,153.827,114.833z"/>
      <path d="M83.754,75.991c1.074-0.121,2.209-0.33,3.349-0.361c2.685-0.073,5.378,0.041,8.058-0.107
        c4.727-0.26,9.443-0.695,14.168-0.989c3.388-0.21,6.785-0.443,10.176-0.425c4.65,0.025,9.317,0.076,13.943,0.495
        c3.982,0.36,7.915,1.251,12.103,1.946c-0.27,5.118-1.451,9.664-3.782,14.252c-4.902,0.014-9.712,0.027-14.523,0.042
        c-0.71,0.002-1.423-0.027-2.128,0.036c-4.977,0.448-9.943,1.063-14.929,1.34c-5.791,0.321-11.598,0.342-17.397,0.516
        c-1.068,0.032-2.142,0.112-3.196,0.279c-1.179,0.186-1.697-0.295-2.185-1.367C85.207,86.803,83.936,81.741,83.754,75.991z"/>
      <path d="M155.334,114.709c-1.785-2.954-3.878-5.633-4.882-8.914c-0.717-2.344-1.938-4.386-3.32-6.373
        c-0.917-1.318-1.797-2.68-2.509-4.113c-0.371-0.748-0.584-1.732-0.453-2.542c0.451-2.793,1.076-5.558,1.653-8.33
        c0.309-1.487,0.623-2.974,0.994-4.446c0.234-0.927,0.579-1.825,0.949-2.97c8.933,0,17.719,0,26.546,0
        c0.58,0.798,0.131,1.493-0.347,2.149c-2.911,3.99-4.507,8.68-6.911,12.935c-2.078,3.677-3.399,7.64-4.904,11.55
        c-1.183,3.074-2.734,6.014-4.915,8.557C156.611,112.937,156.071,113.734,155.334,114.709z"/>
      <path d="M59.637,77.928c2.41-0.136,4.454-0.199,6.487-0.38c2.21-0.197,4.457-0.305,6.605-0.808c3.01-0.706,5.994-0.606,8.837-0.567
        c1.251,6.417,2.457,12.604,3.691,18.936c-3.687,7.61-8.117,14.963-14.056,21.707c-1.959-6.469-3.757-12.928-5.655-19.357
        C63.642,91.008,61.654,84.582,59.637,77.928z"/>
    </g>
    </g>
  </defs>
</svg>
