<svg version="1.1"
   xmlns="http://www.w3.org/2000/svg" xmlns:xlink="http://www.w3.org/1999/xlink" x="0px" y="0px" viewBox="0 0 236 180.8"
   style="enable-background:new 0 0 236 180.8;display:none;" xml:space="preserve">
<style type="text/css">
  .st0{fill:#1D1D1B;}
  .st1{fill:#FFFFFF;}
  .st2{opacity:0.35;enable-background:new;}
</style>
  <defs>
    <g id="51">
      <g>
  <path style="fill:#FFFFFF;" d="M205.111,61.572c1.02,0.406,1.623,2.245,3.337,0.834C207.564,60.959,206.316,61.34,205.111,61.572z
     M30.71,59.609c0.013,2.714,0.013,2.714,1.304,2.953C32.032,60.893,32.032,60.893,30.71,59.609z M201.018,131.297
    c0.096,0.233,0.192,0.466,0.289,0.699c0.49-0.118,1.109-0.101,1.422-0.402c0.195-0.188-0.075-0.857-0.188-1.688
    C201.833,130.553,201.426,130.925,201.018,131.297z M29.255,63.646c-0.228,0.009-0.456,0.018-0.684,0.027
    c0.033,0.354,0.047,0.712,0.129,1.054c0.008,0.033,0.43-0.032,0.66-0.052C29.325,64.332,29.29,63.989,29.255,63.646z"/>
  <path d="M202.833,53.592c-0.151,3.126-0.192,5.781-0.425,8.419c-0.51,5.777-1.486,11.54-1.573,17.319
    c-0.074,4.923,0.092,9.91-0.847,14.684c-1.303,6.622-1.549,13.31-2.05,19.964c-0.509,6.762-0.112,13.593-0.112,20.53
    c1.187,0.547,2.512,1.125,1.592,3.016c-0.864,0.504-1.847,1.077-2.738,1.596c-1.663-0.283-0.917-1.872-1.924-2.842
    c-6.748-3.149-14.151-5.306-22.295-6.697c0.763,0.883,1.161,1.544,1.734,1.972c2.719,2.033,5.459,4.038,8.242,5.983
    c2.912,2.036,5.854,4.034,8.838,5.962c1.342,0.867,2.795,1.573,4.24,2.265c1.818,0.87,2.865,2.023,3.265,3.854
    c-1.73,1.597-3.894,0.761-5.946,1.004c-2.425,1.88-5.337,1.653-8.156,1.332c-5.688-0.648-11.357-1.367-17.1-1.376
    c-4.196-0.007-8.395-0.029-12.588-0.058c-8.224-0.058-16.443-0.621-24.668-0.885c-5.619-0.181-11.213-0.63-16.874-0.115
    c-4.966,0.452-10.009,0.106-15.017,0.028c-5.546-0.086-11.09-0.342-16.636-0.381c-3.306-0.023-6.625,0.458-9.919,0.305
    c-5.28-0.245-10.537-0.031-15.801,0.199c-1.854,0.081-3.669,0.217-5.57,0.011c-1.941-0.21-3.998,0.651-6.424,1.126
    c-1.344-1.393-3.505-0.806-5.593-0.748c-0.928,0.026-1.86-0.044-3.265-0.084c0.915-2.551,1.288-4.597,3.933-5.66
    c2.611-1.049,4.933-2.817,7.416-4.289c-0.221-0.164-0.558-0.415-0.943-0.702c0.978-0.796,0.978-0.796,2.319-0.206
    c4.007-2.734,7.972-5.44,11.937-8.145c-0.053-0.146-0.107-0.292-0.16-0.437c-2.624,0.761-5.241,1.546-7.874,2.273
    c-1.538,0.424-3.102,0.756-4.655,1.125c-0.777,0.184-1.575,0.3-2.329,0.551c-1.346,0.447-2.678,0.941-3.991,1.476
    c-0.894,0.365-1.821,0.727-2.597,1.281c-1.354,0.967-2.742,1.054-4.107,0.803c-0.194-1.45-0.41-2.625-0.489-3.81
    c-0.053-0.796,0.08-1.605,0.144-2.407c0.209-2.652,0.429-5.304,0.634-7.956c0.151-1.947,0.44-3.898,0.4-5.842
    c-0.137-6.799-0.572-13.596-0.537-20.392c0.024-4.81,0.635-9.617,0.959-14.426c0.102-1.516,0.167-3.038,0.173-4.557
    c0.026-6.255-1.098-12.485-0.333-18.765c0.158-1.297-0.226-2.66-0.361-3.999c-0.934-1.137-2.219-2.153-1.433-4.063
    c0.904-0.191,1.839-0.389,2.901-0.613c2.739,3.184,6.751,4.08,10.462,5.485c4.426,1.675,8.95,3.091,13.408,4.685
    c0.762,0.272,1.342,0.44,1.868-0.295c-1.893-7.584-3.698-17.388-7.452-24.476c-2.344-0.873-2.344-0.873-2.205-2.783
    c2.663-0.938,5.314,0.011,7.941,0.287c4.297,0.451,8.544,0.287,12.847,0.006c6.056-0.396,12.112-1.105,18.225-0.491
    c3.372,0.339,6.801,0.179,10.202,0.132c7.439-0.103,14.836,0.419,22.25,0.988c5.339,0.409,10.736,0.056,16.107,0.042
    c3.214-0.008,6.428-0.016,9.642-0.026c7.417-0.023,14.847,0.81,22.246-0.377c2.461-0.395,4.937-0.693,7.401-1.071
    c1.479-0.227,2.409,0.344,2.947,2.032c-0.564,0.503-1.198,1.068-1.615,1.44c-1.557,4.75-3.027,9.314-4.555,13.859
    c-0.824,2.451-1.821,4.845-2.591,7.311c-0.327,1.048-0.271,2.216-0.414,3.561c1.013,0.113,1.716,0.345,2.364,0.239
    c3.706-0.605,7.367-1.388,10.713-3.222c0.539-0.296,1.147-0.512,1.75-0.639c3.858-0.819,7.544-2.08,11.09-3.837
    C199.815,53.586,201.097,53.772,202.833,53.592z M78.834,79.05c0.264,12.023,0.522,23.787,0.782,35.616
    c4.434,1.547,8.801,0.747,13.012,1.392c4.229,0.648,8.54,0.843,12.823,1.036c4.203,0.19,8.452-0.196,12.615,0.265
    c4.326,0.479,8.579-0.176,12.854-0.044c4.287,0.133,8.558-0.08,12.835-0.143c4.183-0.061,8.356-0.876,12.702-0.477
    c-0.957,2.058-1.183,2.138-3.149,2.009c-1.959-0.129-3.926-0.229-5.887-0.194c-2.322,0.042-4.64,0.299-6.963,0.36
    c-3.579,0.093-7.16,0.081-10.74,0.147c-2.77,0.05-5.545,0.298-8.309,0.2c-7.601-0.269-15.198-0.634-22.793-1.045
    c-2.578-0.139-5.14-0.558-7.715-0.794c-3.647-0.334-7.295-0.47-10.93,0.043c-0.495,0.863-0.756,1.857-1.401,2.352
    c-3.388,2.599-6.874,5.071-10.323,7.591c-0.686,0.502-1.358,1.023-2.459,1.855c3.805,0.534,7.006,1.174,10.301,0.704
    c0.526-0.075,1.058-0.149,1.588-0.158c2.764-0.049,5.527-0.08,8.291-0.112c0.624-0.007,1.25-0.021,1.872,0.016
    c1.42,0.084,2.839,0.296,4.256,0.277c2.947-0.041,5.894-0.316,8.839-0.285c6.264,0.066,12.526,0.257,18.788,0.413
    c5.542,0.138,11.086,0.246,16.626,0.458c9.777,0.374,19.485-0.417,29.171-1.61c0.537-0.066,1.038-0.416,1.879-0.77
    c-1.559-1.193-2.751-2.285-4.108-3.103c-2.361-1.423-4.176-3.307-5.495-5.68c0.249-0.9,0.493-1.778,0.881-3.18
    c0.778,1.053,1.213,1.643,1.626,2.202c-0.417,0.446-0.682,0.729-0.974,1.042c2.887,3.334,6.539,5.405,10.595,8.123
    c0-3.088-0.034-5.482,0.008-7.874c0.065-3.754,0.271-7.507,0.254-11.26c-0.029-6.352-0.26-12.704-0.266-19.056
    c-0.005-5.096,0.276-10.193,0.275-15.289c-0.001-2.256-0.387-4.513-0.629-7.102c-4.754,2.618-9.161,5.046-13.357,7.358
    c0.35,1.153,0.806,1.958,0.804,2.763c-0.009,7.075-0.181,14.15-0.127,21.224c0.022,2.934,0.46,5.866,0.74,8.797
    c0.178,1.864,0.47,3.718,0.591,5.584c0.053,0.817,0.133,1.794-0.854,2.285c-1.254-0.799-0.837-1.928-0.852-2.963
    c-0.021-1.503,0.105-3.046-0.191-4.499c-0.845-4.157-0.942-8.292-0.673-12.529c0.26-4.09-0.109-8.224-0.275-12.335
    c-0.025-0.621-0.443-1.225-0.699-1.889c1.109-1.02,0.435-2.337,0.488-3.708c-4.03,0-7.859-0.014-11.688,0.006
    c-1.961,0.01-3.923,0.083-5.884,0.119c-3.568,0.066-7.137,0.087-10.703,0.2c-2.503,0.08-5.004,0.42-7.504,0.403
    c-8.863-0.061-17.725-0.27-26.588-0.327c-3.215-0.021-6.431,0.312-9.647,0.308c-1.279-0.001-2.609-0.794-3.515,0.862
    c-0.723-0.821-1.269-1.441-1.816-2.061c0.715-1.105,1.701-0.792,2.526-0.778c3.398,0.059,6.815,0.489,10.186,0.243
    c7.608-0.555,15.207-0.158,22.809-0.161c2.68-0.001,5.369,0.296,8.039,0.165c4.191-0.207,8.35-0.582,12.576-0.468
    c6.336,0.172,12.688-0.194,19.031-0.384c0.746-0.022,1.482-0.381,2.281-0.6c-0.422-0.811-0.723-1.389-1.252-2.404
    c1.33,0.079,2.236,0.133,3.142,0.187c3.795-2.444,8.248-3.939,11.54-7.938c-4.319,1.114-8.229,0.561-12.147,0.304
    c-4.458-0.293-8.925-0.456-13.386-0.716c-1.506-0.088-3.007-0.288-4.507-0.459c-2.035-0.232-4.063-0.639-6.102-0.699
    c-6.08-0.177-12.164-0.222-18.246-0.312c-0.356-0.005-0.721-0.005-1.067,0.066c-2.55,0.531-5.119,0.559-7.715,0.498
    c-2.136-0.051-4.277,0.239-6.417,0.259c-1.333,0.013-2.674-0.333-4.001-0.28c-4.992,0.199-9.979,0.603-14.972,0.719
    c-3.474,0.081-6.956-0.185-10.435-0.287c-0.759-0.022-1.52-0.003-2.712-0.003c3.247,4.117,7.029,7.32,8.46,12.144
    c-0.708-0.371-1.234-0.891-1.62-1.501c-1.783-2.82-3.966-5.292-6.404-7.553c-1.036-0.962-2.12-1.835-3.893-2.155
    c0,1.087-0.045,1.956,0.007,2.82c0.318,5.251,0.651,10.502,0.996,15.752c0.134,2.043,0.035,4.152,0.523,6.111
    c1.487,5.969,0.95,12.091,1.602,18.118c0.159,1.468-0.517,3.009-0.486,4.51c0.094,4.544,0.254,9.08-0.492,13.592
    c-0.017,0.1,0.22,0.242,0.507,0.538c0.97-0.451,2.051-0.856,3.032-1.43c1.697-0.993,3.264-2.225,5.011-3.112
    c2.856-1.451,3.824-3.792,3.649-6.793c-0.119-2.048-0.568-4.123-0.363-6.134c0.287-2.813-0.156-5.525-0.424-8.275
    c-0.052-0.529-0.184-1.07-0.123-1.587c0.655-5.537,0.41-11.074,0.101-16.617c-0.061-1.09-0.485-2.358,0.792-3.365
    C78.251,78.77,78.702,78.986,78.834,79.05z M170.207,62.075c0.157-0.287,0.326-0.509,0.409-0.76
    c1.823-5.494,3.669-10.981,5.433-16.494c0.651-2.035,1.144-4.124,1.624-6.208c0.151-0.655,0.023-1.374,0.023-2.392
    c-1.515-0.025-2.823-0.105-4.127-0.058c-3.571,0.129-7.142,0.461-10.711,0.438c-6.257-0.039-12.512-0.362-18.769-0.41
    c-3.923-0.03-7.849,0.352-11.771,0.32c-4.196-0.034-8.392-0.299-12.585-0.531c-4.637-0.256-9.289-1.001-13.898-0.777
    c-5.023,0.244-10-0.274-14.995-0.144c-5.537,0.144-11.083,0.244-16.601,0.667c-4.469,0.342-8.899,0.666-13.365,0.034
    c-1.255-0.178-2.556-0.027-3.984-0.027c2.565,8.537,5.014,16.686,7.461,24.832c2.563,0.238,4.868,0.605,7.178,0.637
    c6.426,0.089,12.854,0.044,19.281,0.035c0.622-0.001,1.242-0.16,1.865-0.183c1.867-0.066,3.735-0.122,5.602-0.137
    c0.709-0.005,1.423,0.203,2.126,0.162c4.364-0.254,8.725-0.556,13.088-0.828c0.443-0.028,0.893,0.027,1.338,0.056
    c1.866,0.122,3.733,0.368,5.597,0.348c3.744-0.039,7.486-0.252,11.23-0.326c1.151-0.023,2.316,0.105,3.457,0.28
    c1.941,0.298,3.855,0.875,5.802,1.001c5.346,0.347,10.704,0.523,16.057,0.76c0.805,0.036,1.648-0.117,2.41,0.071
    C162.961,63.328,166.48,62.856,170.207,62.075z M39.908,147.369c0.073,0.163,0.147,0.326,0.22,0.489
    c2.834,0,5.667,0.01,8.501-0.002c7.329-0.03,14.657-0.053,21.986-0.109c6.698-0.051,13.396-0.198,20.094-0.196
    c4.562,0.002,9.123,0.236,13.685,0.275c3.312,0.028,6.625-0.092,9.937-0.148c2.495-0.042,4.991-0.13,7.486-0.124
    c7.787,0.019,15.574,0.078,23.361,0.11c1.068,0.004,2.14-0.112,3.205-0.07c6.255,0.244,12.506,0.65,18.763,0.751
    c8.327,0.134,16.657,0.044,24.986,0.031c0.745-0.001,1.49-0.142,2.235-0.218c-8.841-5.36-16.476-12.123-24.783-17.916
    c-4.695,1.186-9.424,0.919-14.089,1.867c-4.905,0.998-10.12,0.577-15.199,0.583c-4.282,0.004-8.563-0.296-12.846-0.414
    c-5.181-0.143-10.362-0.28-15.544-0.338c-6.532-0.074-13.064-0.092-19.596-0.074c-1.677,0.005-3.355,0.37-5.028,0.336
    c-2.134-0.044-4.262-0.454-6.394-0.473c-3.128-0.027-6.321-0.201-9.368,0.348c-2.891,0.521-5.628,0.142-8.431-0.073
    c-3.825,2.565-8.337,3.918-11.92,7.057C47.673,142.125,43.682,144.623,39.908,147.369z M36.592,55.244
    c0,3.109-0.062,5.769,0.014,8.424c0.127,4.463,0.237,8.931,0.544,13.383c0.372,5.383-0.358,10.691-0.765,16.026
    c-0.169,2.219-0.286,4.443-0.352,6.667c-0.042,1.428,0.028,2.862,0.09,4.291c0.165,3.838,0.252,7.684,0.562,11.511
    c0.261,3.219,0.479,6.387-0.306,9.582c-0.334,1.36-0.244,2.833-0.282,4.256c-0.042,1.551-0.009,3.105-0.009,4.922
    c9.043-2.315,18.289-4.682,27.634-7.074c0.113-1.635,0.054-3.082,0.336-4.459c1.252-6.103,0.221-12.307,0.898-18.431
    c0.068-0.614-0.049-1.25-0.091-1.875c-0.151-2.226-0.238-4.46-0.483-6.676c-0.224-2.026-0.622-4.032-0.942-6.047
    c-0.182-1.144-0.465-2.282-0.523-3.432c-0.249-4.906-0.384-9.818-0.659-14.723c-0.139-2.48-0.484-4.948-0.741-7.468
    C53.68,60.311,45.141,58.605,36.592,55.244z M200.553,56.463c-3.577,1.071-6.638,1.993-9.703,2.9
    c-1.183,0.35-2.456,0.498-3.549,1.026c-3.251,1.571-6.611,2.694-10.208,3.089c-0.611,0.067-1.554,0.06-1.752,0.416
    c-0.818,1.471-2.336,1.663-3.732,2.25c0,1.564-0.156,3.092,0.028,4.577c0.64,5.178,0.247,10.343,0.078,15.521
    c-0.187,5.718-0.16,11.444-0.188,17.167c-0.009,1.788,0.12,3.576,0.16,5.364c0.086,3.819,0.17,7.638,0.224,11.458
    c0.032,2.293,0.006,4.587,0.006,6.749c8.132,2.355,15.971,4.625,24.189,7.005c0-2.82-0.115-5.399,0.026-7.964
    c0.231-4.192-0.792-8.37-0.005-12.572c0.344-1.837,0.315-3.741,0.575-5.598c0.581-4.15,0.53-8.349,1.345-12.5
    c0.945-4.81,1.174-9.722,1.009-14.661c-0.116-3.474,0.166-6.976,0.48-10.446c0.273-3.022,0.931-6.007,1.236-9.028
    C200.921,59.751,200.65,58.242,200.553,56.463z M187.491,150.365c-0.003-0.053-0.006-0.106-0.009-0.16c-1.532,0-3.064,0-4.596,0
    c0.003,0.053,0.006,0.106,0.009,0.16C184.427,150.365,185.959,150.365,187.491,150.365z"/>
  <path d="M205.111,61.572c1.205-0.232,2.454-0.613,3.337,0.834C206.734,63.817,206.131,61.977,205.111,61.572z"/>
  <path d="M30.71,59.609c1.322,1.284,1.322,1.284,1.304,2.953C30.723,62.323,30.723,62.323,30.71,59.609z"/>
  <path d="M201.018,131.297c0.407-0.372,0.815-0.744,1.523-1.391c0.112,0.831,0.382,1.5,0.188,1.688
    c-0.313,0.301-0.932,0.284-1.422,0.402C201.211,131.763,201.115,131.53,201.018,131.297z"/>
  <path d="M29.255,63.646c0.035,0.343,0.07,0.686,0.105,1.03c-0.23,0.02-0.652,0.085-0.66,0.052
    c-0.081-0.342-0.096-0.701-0.129-1.054C28.799,63.663,29.027,63.655,29.255,63.646z"/>
  <path style="fill:#FFFFFF;" d="M170.207,62.075c-3.727,0.78-7.245,1.252-10.822,0.369c-0.763-0.188-1.606-0.036-2.41-0.071
    c-5.353-0.236-10.711-0.413-16.057-0.76c-1.947-0.126-3.861-0.704-5.802-1.001c-1.141-0.175-2.306-0.303-3.457-0.28
    c-3.744,0.074-7.486,0.287-11.23,0.326c-1.864,0.019-3.731-0.226-5.597-0.348c-0.446-0.029-0.895-0.084-1.338-0.056
    c-4.363,0.272-8.724,0.574-13.088,0.828c-0.703,0.041-1.418-0.168-2.126-0.162c-1.868,0.014-3.736,0.07-5.602,0.137
    c-0.623,0.022-1.243,0.182-1.865,0.183c-6.427,0.009-12.855,0.054-19.281-0.035c-2.31-0.032-4.615-0.399-7.178-0.637
    c-2.448-8.146-4.896-16.295-7.461-24.832c1.427,0,2.729-0.151,3.984,0.027c4.465,0.632,8.896,0.308,13.365-0.034
    c5.519-0.423,11.065-0.523,16.601-0.667c4.995-0.13,9.972,0.388,14.995,0.144c4.609-0.224,9.261,0.521,13.898,0.777
    c4.192,0.232,8.388,0.497,12.585,0.531c3.923,0.032,7.848-0.35,11.771-0.32c6.257,0.048,12.512,0.371,18.769,0.41
    c3.569,0.022,7.14-0.31,10.711-0.438c1.304-0.047,2.612,0.033,4.127,0.058c0,1.017,0.127,1.737-0.023,2.392
    c-0.48,2.084-0.973,4.173-1.624,6.208c-1.764,5.513-3.61,10.999-5.433,16.494C170.532,61.566,170.363,61.789,170.207,62.075z"/>
  <path style="fill:#FFFFFF;" d="M39.908,147.369c3.774-2.746,7.765-5.244,11.262-8.307c3.584-3.139,8.095-4.492,11.92-7.057
    c2.804,0.215,5.54,0.594,8.431,0.073c3.046-0.549,6.24-0.375,9.368-0.348c2.133,0.018,4.261,0.429,6.394,0.473
    c1.673,0.034,3.351-0.331,5.028-0.336c6.532-0.019,13.065,0,19.596,0.074c5.182,0.058,10.363,0.196,15.544,0.338
    c4.283,0.118,8.564,0.418,12.846,0.414c5.079-0.005,10.294,0.415,15.199-0.583c4.664-0.949,9.394-0.681,14.089-1.867
    c8.307,5.793,15.942,12.556,24.783,17.916c-0.745,0.076-1.49,0.216-2.235,0.218c-8.329,0.013-16.659,0.103-24.986-0.031
    c-6.257-0.101-12.508-0.506-18.763-0.751c-1.066-0.042-2.137,0.074-3.205,0.07c-7.787-0.033-15.574-0.091-23.361-0.11
    c-2.495-0.006-4.991,0.082-7.486,0.124c-3.312,0.056-6.625,0.176-9.937,0.148c-4.562-0.039-9.123-0.274-13.685-0.275
    c-6.698-0.002-13.396,0.144-20.094,0.196c-7.328,0.056-14.657,0.079-21.986,0.109c-2.833,0.012-5.667,0.002-8.501,0.002
    C40.055,147.695,39.982,147.532,39.908,147.369z M183.001,142.119c-1.066,0.425-2.493-0.091-2.253,1.907
    c0.969,0.047,1.883,0.092,3.066,0.15C183.484,143.341,183.297,142.868,183.001,142.119z M48.617,146.721
    c0.114,0.201,0.228,0.401,0.342,0.602c0.367-0.248,0.734-0.495,1.102-0.743c-0.08-0.134-0.16-0.267-0.24-0.401
    C49.42,146.36,49.019,146.54,48.617,146.721z"/>
  <path style="fill:#FFFFFF;" d="M36.592,55.244c8.549,3.36,17.088,5.067,24.924,8.876c0.257,2.519,0.603,4.988,0.741,7.468
    c0.274,4.905,0.409,9.817,0.659,14.723c0.058,1.15,0.342,2.289,0.523,3.432c0.32,2.015,0.718,4.021,0.942,6.047
    c0.245,2.216,0.332,4.45,0.483,6.676c0.043,0.625,0.159,1.261,0.091,1.875c-0.677,6.124,0.354,12.328-0.898,18.431
    c-0.282,1.377-0.223,2.824-0.336,4.459c-9.345,2.392-18.591,4.759-27.634,7.074c0-1.817-0.032-3.371,0.009-4.922
    c0.038-1.423-0.052-2.895,0.282-4.256c0.785-3.195,0.567-6.363,0.306-9.582c-0.31-3.827-0.397-7.673-0.562-11.511
    c-0.061-1.429-0.132-2.863-0.09-4.291c0.066-2.224,0.182-4.448,0.352-6.667c0.407-5.334,1.137-10.643,0.765-16.026
    c-0.308-4.453-0.418-8.92-0.544-13.383C36.53,61.013,36.592,58.354,36.592,55.244z M43.997,125.713
    c-1.247-1.005-1.267-1.034-1.82-0.65c-0.116,0.08-0.017,0.469-0.017,1.035C42.87,125.949,43.434,125.831,43.997,125.713z"/>
  <path style="fill:#FFFFFF;" d="M200.553,56.463c0.097,1.779,0.368,3.288,0.22,4.754c-0.305,3.02-0.963,6.006-1.236,9.028
    c-0.314,3.47-0.596,6.972-0.48,10.446c0.165,4.939-0.065,9.851-1.009,14.661c-0.815,4.151-0.764,8.35-1.345,12.5
    c-0.26,1.857-0.231,3.761-0.575,5.598c-0.786,4.202,0.236,8.379,0.005,12.572c-0.141,2.565-0.026,5.145-0.026,7.964
    c-8.218-2.38-16.057-4.65-24.189-7.005c0-2.162,0.026-4.456-0.006-6.749c-0.054-3.82-0.138-7.639-0.224-11.458
    c-0.04-1.788-0.169-3.576-0.16-5.364c0.028-5.723,0-11.449,0.188-17.167c0.17-5.178,0.562-10.343-0.078-15.521
    c-0.184-1.486-0.028-3.013-0.028-4.577c1.396-0.587,2.914-0.779,3.732-2.25c0.198-0.356,1.141-0.349,1.752-0.416
    c3.598-0.395,6.958-1.518,10.208-3.089c1.093-0.528,2.367-0.676,3.549-1.026C193.915,58.456,196.976,57.534,200.553,56.463z
     M188.081,126.115c0.42-0.751,1.37-1.529,0.038-2.406C187.33,124.567,187.423,125.328,188.081,126.115z M176.871,72.819
    c0.415-0.624,0.666-1.002,1.119-1.685C176.673,71.261,176.301,71.56,176.871,72.819z M173.158,125.347
    c0.032,0.139,0.065,0.279,0.097,0.418c0.349-0.036,0.699-0.071,1.048-0.107c-0.071-0.213-0.142-0.425-0.212-0.638
    C173.78,125.129,173.469,125.238,173.158,125.347z"/>
  <path style="fill:#FFFFFF;" d="M187.491,150.365c-1.532,0-3.064,0-4.595,0c-0.003-0.053-0.006-0.106-0.009-0.16
    c1.532,0,3.064,0,4.596,0C187.485,150.258,187.488,150.312,187.491,150.365z"/>
  <path d="M149.884,105.181c0.959,0.689,0.959,0.689,0.141,1.388C149.975,106.085,149.938,105.719,149.884,105.181z"/>
  <path d="M183.001,142.119c0.296,0.748,0.483,1.221,0.813,2.056c-1.183-0.058-2.097-0.102-3.066-0.15
    C180.508,142.028,181.936,142.545,183.001,142.119z"/>
  <path d="M48.617,146.721c0.401-0.181,0.803-0.361,1.204-0.541c0.08,0.134,0.16,0.267,0.24,0.401
    c-0.367,0.248-0.734,0.495-1.102,0.743C48.846,147.122,48.732,146.922,48.617,146.721z"/>
  <path d="M43.997,125.713c-0.564,0.118-1.127,0.236-1.837,0.385c0-0.566-0.099-0.955,0.017-1.035
    C42.73,124.679,42.751,124.709,43.997,125.713z"/>
  <path d="M188.081,126.115c-0.659-0.787-0.752-1.549,0.038-2.406C189.452,124.586,188.502,125.364,188.081,126.115z"/>
  <path d="M176.871,72.819c-0.57-1.259-0.199-1.558,1.119-1.685C177.537,71.817,177.286,72.195,176.871,72.819z"/>
  <path d="M173.158,125.347c0.311-0.109,0.622-0.218,0.933-0.327c0.071,0.213,0.142,0.425,0.212,0.638
    c-0.349,0.036-0.699,0.071-1.048,0.107C173.222,125.626,173.19,125.487,173.158,125.347z"/>
  </g>
  <path style="opacity:0.45;" d="M78.834,79.05c-0.132-0.063-0.583-0.28-0.971-0.466c-1.277,1.008-0.853,2.275-0.792,3.365
  c0.309,5.544,0.554,11.08-0.101,16.617c-0.061,0.517,0.072,1.058,0.123,1.587c0.268,2.75,0.711,5.462,0.424,8.275
  c-0.205,2.011,0.244,4.086,0.363,6.134c0.175,3.001-0.794,5.343-3.649,6.793c-1.746,0.887-3.313,2.12-5.011,3.112
  c-0.982,0.574-2.062,0.979-3.032,1.43c-0.287-0.296-0.523-0.438-0.507-0.538c0.745-4.512,0.585-9.048,0.492-13.592
  c-0.031-1.501,0.645-3.043,0.486-4.51c-0.652-6.027-0.115-12.149-1.602-18.118c-0.488-1.959-0.389-4.068-0.523-6.111
  c-0.345-5.25-0.677-10.5-0.996-15.752c-0.052-0.863-0.007-1.733-0.007-2.82c1.772,0.319,2.856,1.193,3.893,2.155
  c2.437,2.261,4.621,4.734,6.404,7.553c0.385,0.61,0.912,1.13,1.62,1.501c-1.432-4.824-5.214-8.027-8.46-12.144
  c1.193,0,1.953-0.019,2.712,0.003c3.479,0.101,6.961,0.368,10.435,0.287c4.993-0.117,9.979-0.52,14.972-0.719
  c1.328-0.053,2.668,0.293,4.001,0.28c2.14-0.02,4.282-0.31,6.417-0.259c2.596,0.062,5.165,0.033,7.715-0.498
  c0.345-0.072,0.711-0.072,1.067-0.066c6.082,0.091,12.166,0.136,18.246,0.312c2.039,0.059,4.067,0.467,6.102,0.699
  c1.501,0.171,3.001,0.371,4.507,0.459c4.461,0.26,8.928,0.423,13.386,0.716c3.918,0.257,7.828,0.81,12.147-0.304
  c-3.292,3.999-7.744,5.494-11.539,7.937c-0.906-0.054-1.812-0.108-3.142-0.187c0.529,1.015,0.83,1.593,1.252,2.404
  c-0.799,0.219-1.535,0.578-2.281,0.6c-6.343,0.19-12.695,0.555-19.031,0.384c-4.226-0.114-8.385,0.261-12.576,0.468
  c-2.67,0.132-5.359-0.166-8.039-0.165c-7.602,0.003-15.2-0.394-22.809,0.161c-3.371,0.246-6.789-0.184-10.186-0.243
  c-0.825-0.014-1.81-0.327-2.526,0.778c0.547,0.621,1.093,1.24,1.816,2.061c0.907-1.656,2.236-0.864,3.515-0.862
  c3.215,0.003,6.432-0.329,9.647-0.308c8.863,0.057,17.725,0.266,26.588,0.327c2.5,0.017,5.001-0.324,7.504-0.403
  c3.566-0.113,7.136-0.134,10.703-0.2c1.961-0.036,3.923-0.109,5.884-0.119c3.829-0.019,7.658-0.006,11.688-0.006
  c-0.053,1.371,0.621,2.688-0.488,3.708c0.256,0.664,0.674,1.268,0.699,1.889c0.165,4.111,0.535,8.245,0.275,12.335
  c-0.269,4.237-0.172,8.372,0.673,12.529c0.295,1.453,0.17,2.996,0.191,4.499c0.014,1.035-0.403,2.164,0.852,2.963
  c0.987-0.491,0.907-1.468,0.854-2.285c-0.122-1.866-0.414-3.721-0.591-5.584c-0.279-2.93-0.717-5.863-0.74-8.797
  c-0.054-7.074,0.118-14.149,0.127-21.224c0.001-0.804-0.455-1.609-0.804-2.763c4.196-2.311,8.603-4.739,13.357-7.358
  c0.242,2.589,0.629,4.846,0.629,7.102c0.002,5.096-0.279,10.193-0.275,15.289c0.006,6.352,0.237,12.703,0.266,19.056
  c0.017,3.753-0.189,7.506-0.254,11.26c-0.041,2.393-0.008,4.787-0.008,7.874c-4.057-2.718-7.708-4.788-10.595-8.123
  c0.292-0.312,0.557-0.596,0.974-1.042c-0.413-0.559-0.848-1.149-1.626-2.202c-0.388,1.401-0.632,2.28-0.881,3.18
  c1.319,2.373,3.134,4.258,5.495,5.68c1.357,0.818,2.549,1.91,4.108,3.103c-0.84,0.354-1.342,0.704-1.879,0.77
  c-9.687,1.193-19.394,1.984-29.171,1.61c-5.54-0.212-11.083-0.32-16.626-0.458c-6.262-0.156-12.525-0.347-18.788-0.413
  c-2.945-0.031-5.892,0.244-8.839,0.285c-1.417,0.02-2.837-0.193-4.256-0.277c-0.622-0.037-1.248-0.023-1.872-0.016
  c-2.764,0.032-5.528,0.063-8.291,0.112c-0.53,0.009-1.061,0.083-1.588,0.158c-3.295,0.47-6.496-0.17-10.301-0.704
  c1.101-0.832,1.773-1.353,2.459-1.855c3.449-2.52,6.935-4.992,10.323-7.591c0.645-0.495,0.906-1.489,1.401-2.352
  c3.634-0.513,7.283-0.378,10.93-0.043c2.574,0.236,5.136,0.655,7.715,0.794c7.594,0.41,15.192,0.776,22.793,1.045
  c2.764,0.098,5.538-0.15,8.309-0.2c3.58-0.065,7.161-0.053,10.74-0.147c2.323-0.061,4.64-0.318,6.963-0.36
  c1.961-0.035,3.928,0.066,5.887,0.194c1.965,0.129,2.191,0.049,3.149-2.009c-4.346-0.4-8.519,0.416-12.702,0.477
  c-4.278,0.062-8.548,0.276-12.835,0.143c-4.275-0.133-8.527,0.523-12.854,0.044c-4.163-0.461-8.413-0.075-12.615-0.265
  c-4.284-0.193-8.594-0.389-12.823-1.036c-4.21-0.645-8.578,0.155-13.012-1.392C79.356,102.837,79.098,91.073,78.834,79.05z
   M149.884,105.181c0.054,0.538,0.092,0.904,0.141,1.388C150.843,105.87,150.843,105.87,149.884,105.181z"/>
  </g>
  </defs>
</svg>
