<svg version="1.1"
   xmlns="http://www.w3.org/2000/svg" xmlns:xlink="http://www.w3.org/1999/xlink" x="0px" y="0px" viewBox="0 0 236 180.8"
   style="enable-background:new 0 0 236 180.8;display:none;" xml:space="preserve">
<style type="text/css">
  .st0{fill:#1D1D1B;}
  .st1{fill:#FFFFFF;}
  .st2{opacity:0.35;enable-background:new;}
</style>
  <defs>
    <g id="64">
    <polygon style="fill:#FFFFFF;" points="171.889,89.705 174.369,115.805 174.28,117.205 134.946,115.205 92.613,112.205
    59.78,112.871 59.28,110.538 62.446,89.705 63.893,86.979 66.113,57.538 64.293,35.356 66.78,34.871 81.113,36.538 115.215,36.855
    172.946,39.705 "/>
    <g>
    <path style="fill:#FFFFFF;" d="M63.893,86.979c1.429-0.023,1.638-0.661,1.547-1.609c-0.094-0.975-0.161-1.962-0.13-2.94
      c0.139-4.373,0.303-8.745,0.492-13.115c0.05-1.155,0.125-2.325,0.358-3.452c1.057-5.113,1.358-10.267,1.098-15.475
      c-0.205-4.109-0.324-8.223-0.448-12.336c-0.021-0.678,0.126-1.362,0.207-2.158c3.207,0.27,6.22,0.508,9.231,0.782
      c2.843,0.259,5.68,0.76,8.524,0.785c3.719,0.033,7.441-0.34,11.164-0.46c3.578-0.115,7.159-0.149,10.739-0.183
      c2.848-0.027,5.709-0.174,8.541,0.038c6.325,0.473,12.637,1.111,18.949,1.738c2.39,0.237,4.766,0.62,7.145,0.957
      c1.326,0.188,2.639,0.499,3.971,0.617c5.516,0.489,11.034,0.959,16.557,1.358c1.501,0.109,3.028,0.026,4.53-0.109
      c1.954-0.175,3.884-0.289,6.13,0.267c0.077,1.907,0.246,3.757,0.211,5.603c-0.147,7.872-0.355,15.742-0.538,23.613
      c-0.046,1.969-0.032,3.941-0.137,5.907c-0.186,3.475-0.406,6.949-0.682,10.417c-0.16,2.016-0.215,4.073-1.186,6.074
      c-2.49-0.156-4.884-0.356-7.282-0.447c-6.078-0.231-12.164-0.306-18.236-0.645c-6.783-0.379-13.546-1.217-20.331-1.433
      c-10.55-0.335-21.112-0.302-31.669-0.451c-2.934-0.042-5.851,0.372-8.81-0.056c-1.817-0.263-3.76-0.279-5.619,0.366
      c0.364,0.362,0.741,0.577,1.13,0.601c6.423,0.391,12.843,0.838,19.272,1.1c3.736,0.152,7.486,0.079,11.225-0.037
      c8.247-0.256,16.446,0.523,24.66,0.997c2.413,0.139,4.835,0.122,7.249,0.257c5.166,0.288,10.325,0.768,15.495,0.905
      c4.391,0.116,8.721,0.486,13.074,1.426c2.351,6.409,2.033,13.245,4.046,19.927c-1.794,0-3.19,0.034-4.585-0.014
      c-0.709-0.024-1.411-0.259-2.121-0.29c-4.829-0.21-9.659-0.372-14.487-0.587c-7.863-0.351-15.725-0.73-23.587-1.099
      c-0.179-0.008-0.357-0.036-0.535-0.047c-8.481-0.497-16.957-1.162-25.445-1.438c-7.873-0.256-15.761-0.033-23.641-0.139
      c-4.826-0.065-9.649-0.369-14.474-0.531c-1.668-0.056-3.34-0.009-4.912-0.009c1.13-7.6,2.225-14.963,3.318-22.32
      c4.444,0.454,6.023,0.281,6.976-0.949c-3.127-0.277-6.107-0.541-9.285-0.823c-0.426,8.265-0.845,16.493-3.509,24.298
      c0.979,0.916,1.751,1.638,2.317,2.168c4.074-0.112,7.91-0.307,11.746-0.306c9.761,0.002,19.524,0.036,29.284,0.171
      c4.74,0.065,9.48,0.334,14.215,0.603c4.723,0.268,9.44,0.662,14.16,0.983c3.297,0.224,6.597,0.409,9.895,0.631
      c1.065,0.072,2.125,0.263,3.19,0.304c4.199,0.161,8.406,0.186,12.598,0.445c5.44,0.336,10.867,0.867,16.303,1.268
      c1.301,0.096,2.615,0.014,4.018,0.014c0.058-0.783,0.088-1.212,0.122-1.64c0.274-3.448-1.284-6.607-1.543-9.997
      c-0.298-3.906-1.112-7.77-1.585-11.667c-0.146-1.206,0.134-2.457,0.139-3.688c0.013-3.036-0.289-6.1,0.029-9.1
      c0.444-4.186,0.818-8.354,0.827-12.57c0.008-3.658,0.301-7.315,0.421-10.974c0.064-1.968-0.054-3.943,0.057-5.907
      c0.225-3.986,0.549-7.966,0.83-11.929c-1.312-0.592-2.455-1.242-3.682-1.614c-0.81-0.245-1.742-0.135-2.617-0.107
      c-2.311,0.074-4.633,0.382-6.93,0.248c-4.01-0.234-8.007-0.71-12.006-1.121c-3.547-0.364-7.09-0.778-10.635-1.167
      c-2.659-0.292-5.315-0.629-7.98-0.859c-4.72-0.406-9.444-0.764-14.17-1.105c-2.671-0.192-5.346-0.389-8.022-0.434
      c-1.961-0.033-3.926,0.211-5.891,0.274c-6.33,0.205-12.677-0.217-18.995,0.532c-0.788,0.093-1.607-0.029-2.407-0.105
      c-1.331-0.128-2.661-0.279-3.986-0.458c-1.499-0.202-2.989-0.469-4.488-0.667c-3.089-0.408-6.185-0.819-9.007,1.267
      c0.025,0.57,0.014,1.097,0.077,1.616c0.226,1.856,0.553,3.703,0.701,5.564c0.17,2.14,0.313,4.295,0.25,6.437
      c-0.134,4.536-0.385,9.068-0.638,13.6c-0.134,2.403-0.366,4.801-0.569,7.2c-0.075,0.89-0.242,1.774-0.282,2.664
      c-0.196,4.438-0.38,8.878-0.515,13.318C63.305,86.14,63.675,86.536,63.893,86.979z"/>
    <path d="M63.893,86.979c-0.218-0.443-0.588-0.839-0.577-1.223c0.135-4.441,0.319-8.88,0.515-13.318
      c0.039-0.891,0.207-1.775,0.282-2.664c0.203-2.399,0.435-4.797,0.569-7.2c0.253-4.531,0.504-9.064,0.638-13.6
      c0.063-2.142-0.08-4.297-0.25-6.437c-0.148-1.862-0.474-3.708-0.701-5.564c-0.063-0.519-0.052-1.046-0.077-1.616
      c2.822-2.086,5.918-1.675,9.007-1.267c1.499,0.198,2.989,0.464,4.488,0.667c1.325,0.179,2.655,0.33,3.986,0.458
      c0.8,0.077,1.619,0.199,2.407,0.105c6.317-0.75,12.664-0.327,18.995-0.532c1.965-0.064,3.929-0.307,5.891-0.274
      c2.676,0.045,5.351,0.242,8.022,0.434c4.725,0.341,9.45,0.699,14.17,1.105c2.665,0.229,5.32,0.567,7.98,0.859
      c3.545,0.389,7.087,0.803,10.635,1.167c3.999,0.41,7.995,0.887,12.006,1.121c2.297,0.134,4.618-0.174,6.93-0.248
      c0.875-0.028,1.807-0.138,2.617,0.107c1.227,0.372,2.37,1.022,3.682,1.614c-0.282,3.963-0.606,7.943-0.83,11.929
      c-0.111,1.964,0.007,3.939-0.057,5.907c-0.12,3.659-0.412,7.316-0.421,10.974c-0.009,4.215-0.383,8.383-0.827,12.57
      c-0.318,3-0.017,6.064-0.029,9.1c-0.005,1.231-0.286,2.482-0.139,3.688c0.473,3.896,1.286,7.761,1.585,11.667
      c0.259,3.39,1.818,6.549,1.543,9.997c-0.034,0.428-0.064,0.857-0.122,1.64c-1.403,0-2.717,0.082-4.018-0.014
      c-5.436-0.402-10.864-0.932-16.303-1.268c-4.193-0.259-8.399-0.284-12.598-0.445c-1.066-0.041-2.125-0.232-3.19-0.304
      c-3.297-0.222-6.597-0.407-9.895-0.631c-4.721-0.321-9.437-0.714-14.16-0.983c-4.735-0.269-9.475-0.538-14.215-0.603
      c-9.76-0.135-19.523-0.168-29.284-0.171c-3.836-0.001-7.672,0.194-11.746,0.306c-0.566-0.53-1.338-1.252-2.317-2.168
      c2.664-7.806,3.083-16.034,3.509-24.298c3.178,0.281,6.158,0.545,9.285,0.823c-0.954,1.23-2.532,1.403-6.976,0.949
      c-1.094,7.357-2.188,14.72-3.318,22.32c1.573,0,3.244-0.047,4.912,0.009c4.825,0.162,9.648,0.466,14.474,0.531
      c7.88,0.106,15.767-0.117,23.641,0.139c8.488,0.276,16.964,0.941,25.445,1.438c0.179,0.01,0.356,0.038,0.535,0.047
      c7.862,0.368,15.724,0.748,23.587,1.099c4.828,0.215,9.659,0.377,14.487,0.587c0.71,0.031,1.412,0.265,2.121,0.29
      c1.394,0.048,2.791,0.014,4.585,0.014c-2.013-6.681-1.695-13.518-4.046-19.927c-4.354-0.939-8.683-1.31-13.074-1.426
      c-5.169-0.137-10.329-0.617-15.495-0.905c-2.414-0.135-4.836-0.118-7.249-0.257c-8.214-0.474-16.413-1.253-24.66-0.997
      c-3.739,0.116-7.49,0.189-11.225,0.037c-6.428-0.261-12.849-0.709-19.272-1.1c-0.389-0.024-0.766-0.239-1.13-0.601
      c1.859-0.645,3.802-0.629,5.619-0.366c2.959,0.429,5.877,0.014,8.81,0.056c10.557,0.15,21.118,0.116,31.669,0.451
      c6.785,0.216,13.548,1.053,20.331,1.433c6.072,0.34,12.158,0.414,18.236,0.645c2.398,0.091,4.793,0.291,7.282,0.447
      c0.971-2.001,1.026-4.058,1.186-6.074c0.276-3.469,0.497-6.942,0.682-10.417c0.105-1.966,0.091-3.938,0.137-5.907
      c0.184-7.871,0.391-15.741,0.538-23.613c0.034-1.846-0.134-3.695-0.211-5.603c-2.245-0.556-4.176-0.441-6.13-0.267
      c-1.503,0.134-3.03,0.217-4.53,0.109c-5.523-0.4-11.041-0.87-16.557-1.358c-1.331-0.118-2.644-0.429-3.971-0.617
      c-2.379-0.337-4.755-0.719-7.145-0.957c-6.312-0.627-12.625-1.265-18.949-1.738c-2.832-0.212-5.693-0.065-8.541-0.038
      c-3.58,0.034-7.161,0.068-10.739,0.183c-3.723,0.12-7.444,0.492-11.164,0.46c-2.843-0.025-5.681-0.526-8.524-0.785
      c-3.01-0.274-6.024-0.512-9.231-0.782c-0.081,0.796-0.228,1.479-0.207,2.158c0.124,4.113,0.243,8.227,0.448,12.336
      c0.26,5.207-0.04,10.362-1.098,15.475c-0.233,1.128-0.308,2.298-0.358,3.452c-0.19,4.371-0.353,8.743-0.492,13.115
      c-0.031,0.978,0.036,1.964,0.13,2.94C65.532,86.317,65.322,86.955,63.893,86.979z"/>
    </g>
    </g>
  </defs>
</svg>
