<svg version="1.1"
   xmlns="http://www.w3.org/2000/svg" xmlns:xlink="http://www.w3.org/1999/xlink" x="0px" y="0px" viewBox="0 0 236 180.8"
   style="enable-background:new 0 0 236 180.8;display:none;" xml:space="preserve">
<style type="text/css">
  .st0{fill:#1D1D1B;}
  .st1{fill:#FFFFFF;}
  .st2{opacity:0.35;enable-background:new;}
</style>
  <defs>
    <g id="66">
    <g>
    <path style="fill:#FFFFFF;" d="M181.331,110.6c-0.102-0.476-0.083-1.048-0.333-1.454c-1.635-2.652-3.309-5.28-5.017-7.884
      c-0.365-0.557-0.925-0.987-1.397-1.473c-0.486-0.501-1.011-0.97-1.457-1.505c-1.466-1.758-1.453-4.054-2.081-6.106
      c-0.317-1.034-0.192-2.272-0.012-3.376c0.39-2.391,0.639-4.707,0.214-7.175c-0.667-3.87-0.949-7.789-0.293-11.75
      c0.567-3.428,0.832-6.91,1.152-10.375c0.336-3.647,0.548-7.305,0.874-10.952c0.214-2.399,0.619-4.783,0.779-7.184
      c0.113-1.708-0.215-2.016-1.836-2.407c-0.601-0.145-1.235-0.247-1.849-0.228c-4.113,0.126-8.223,0.34-12.336,0.425
      c-3.124,0.064-6.267,0.167-9.374-0.084c-4.98-0.402-9.94-1.071-14.905-1.65c-5.945-0.693-11.878-1.503-17.834-2.088
      c-4.621-0.454-9.271-0.904-13.903-0.853c-3.21,0.036-6.38,0.17-9.605-0.127c-6.317-0.581-12.666-0.811-19.001-1.199
      c-0.533-0.033-1.081-0.088-1.587-0.246c-1.642-0.51-3.271-0.695-5.141,0.016c-0.194,1.48-0.619,3.044-0.551,4.586
      c0.121,2.762,0.613,5.506,0.801,8.268c0.096,1.411,0.01,2.868-0.234,4.263c-0.746,4.264-0.918,8.517-0.356,12.82
      c0.195,1.495,0.092,3.04,0.021,4.557c-0.104,2.23-0.433,4.457-0.426,6.684c0.009,3.139,0.153,6.259-1.22,9.214
      c-0.255,0.55-0.232,1.224-0.375,1.831c-0.568,2.407-0.92,4.899-1.794,7.191c-0.851,2.232-2.166,4.303-3.412,6.364
      c-1.455,2.406-2.181,5.299-4.763,6.991c-0.504,0.331-0.553,1.357-0.899,2.299c0.995,0.237,1.64,0.391,2.371,0.566
      c3.398-6.095,6.719-12.053,10.091-18.102c0.154,0.299,0.447,0.603,0.444,0.904c-0.015,1.763,0.974,3.001,2.042,4.235
      c1.346,1.554,2.685,3.118,3.939,4.746c0.631,0.82,1.124,1.653,1.216,2.862c0.161,2.13,2.73,3.367,5.211,2.711
      c0-0.542,0-1.116,0-1.685c1.903,0,3.68-0.053,5.453,0.013c2.583,0.096,5.163,0.291,7.745,0.417
      c0.983,0.048,1.978-0.061,2.952,0.043c4.612,0.49,9.212,1.112,13.83,1.526c5.166,0.463,10.349,0.737,15.522,1.126
      c2.407,0.181,4.805,0.601,7.211,0.638c8.575,0.135,17.152,0.152,25.656,0.213c0.544,0.781,0.93,1.335,1.217,1.746
      c2.085,0.582,2.143-1.469,3.457-2.033c-0.598-1.657-0.083-2.954,1.055-4.177c1.329-1.429,2.586-2.953,3.679-4.568
      c0.909-1.344,1.966-2.212,3.44-2.403c3.502,4.302,7.039,8.343,9.332,13.256C179.495,110.996,180.217,111.319,181.331,110.6z"/>
    <path d="M181.331,110.6c-1.115,0.719-1.836,0.396-2.289-0.574c-2.293-4.913-5.83-8.954-9.332-13.256
      c-1.473,0.191-2.531,1.058-3.44,2.403c-1.092,1.615-2.349,3.139-3.679,4.568c-1.138,1.224-1.653,2.52-1.055,4.177
      c-1.314,0.564-1.371,2.615-3.457,2.033c-0.287-0.411-0.672-0.965-1.217-1.746c-8.505-0.061-17.082-0.078-25.656-0.213
      c-2.406-0.038-4.804-0.457-7.211-0.638c-5.173-0.39-10.356-0.663-15.522-1.126c-4.618-0.414-9.218-1.037-13.83-1.526
      c-0.974-0.103-1.97,0.005-2.952-0.043c-2.582-0.126-5.162-0.321-7.745-0.417c-1.772-0.066-3.549-0.013-5.453-0.013
      c0,0.569,0,1.144,0,1.685c-2.48,0.657-5.05-0.58-5.211-2.711c-0.091-1.209-0.585-2.043-1.216-2.862
      c-1.254-1.628-2.593-3.191-3.939-4.746c-1.069-1.235-2.058-2.472-2.042-4.235c0.003-0.301-0.29-0.605-0.444-0.904
      c-3.372,6.049-6.693,12.007-10.091,18.102c-0.732-0.175-1.377-0.329-2.371-0.566c0.346-0.942,0.394-1.968,0.899-2.299
      c2.583-1.692,3.309-4.585,4.763-6.991c1.246-2.061,2.562-4.132,3.412-6.364c0.874-2.292,1.226-4.784,1.794-7.191
      c0.143-0.608,0.12-1.282,0.375-1.831c1.373-2.955,1.229-6.075,1.22-9.214c-0.007-2.227,0.322-4.454,0.426-6.684
      c0.071-1.517,0.174-3.062-0.021-4.557c-0.562-4.303-0.39-8.556,0.356-12.82c0.244-1.394,0.33-2.852,0.234-4.263
      c-0.189-2.762-0.68-5.506-0.801-8.268c-0.067-1.542,0.358-3.106,0.551-4.586c1.87-0.71,3.5-0.526,5.141-0.016
      c0.506,0.157,1.054,0.213,1.587,0.246c6.335,0.387,12.684,0.617,19.001,1.199c3.225,0.297,6.395,0.163,9.605,0.127
      c4.632-0.052,9.282,0.399,13.903,0.853c5.955,0.585,11.889,1.395,17.834,2.088c4.966,0.579,9.925,1.247,14.905,1.65
      c3.107,0.251,6.25,0.148,9.374,0.084c4.113-0.084,8.224-0.299,12.336-0.425c0.615-0.019,1.248,0.083,1.849,0.228
      c1.622,0.391,1.95,0.698,1.836,2.407c-0.159,2.401-0.564,4.785-0.779,7.184c-0.326,3.648-0.538,7.306-0.874,10.952
      c-0.32,3.465-0.584,6.947-1.152,10.375c-0.656,3.961-0.373,7.881,0.293,11.75c0.425,2.468,0.177,4.783-0.214,7.175
      c-0.18,1.104-0.305,2.342,0.012,3.376c0.628,2.052,0.615,4.347,2.081,6.106c0.446,0.535,0.97,1.004,1.457,1.505
      c0.472,0.486,1.031,0.916,1.397,1.473c1.709,2.605,3.383,5.233,5.017,7.884C181.249,109.552,181.23,110.124,181.331,110.6z
       M168.433,92.472c0.682-4.583,1.503-8.757,0.665-13.102c-0.503-2.609-0.759-5.299-0.257-7.997c0.408-2.19,0.671-4.409,0.952-6.622
      c0.224-1.769,0.427-3.544,0.55-5.323c0.215-3.101,0.328-6.209,0.548-9.309c0.202-2.84,0.444-5.674-0.004-8.645
      c-0.688-0.088-1.289-0.232-1.889-0.23c-3.849,0.015-7.698,0.094-11.547,0.091c-3.401-0.002-6.815,0.088-10.2-0.171
      c-4.802-0.367-9.582-1.024-14.373-1.541c-4.877-0.526-9.8-0.777-14.624-1.608c-6.404-1.103-12.816-1.132-19.26-1.046
      c-2.147,0.029-4.303,0.051-6.441-0.103c-8.153-0.588-16.301-1.248-24.652-1.898c0,1.788-0.158,3.402,0.029,4.976
      c0.576,4.821,0.821,9.627-0.119,14.424c-0.614,3.13,0.074,6.24,0.03,9.356c-0.067,4.732-0.391,9.46-0.477,14.192
      c-0.038,2.072-0.1,4.106-0.81,6.071c-0.47,1.3-0.557,2.584,0.043,3.844c0.35,0.072,0.608,0.148,0.87,0.176
      c4.973,0.541,9.948,1.066,14.92,1.618c2.925,0.325,5.838,0.785,8.77,1.016c3.742,0.295,7.498,0.409,11.247,0.625
      c1.375,0.079,2.741,0.244,4.514,1.236c-1.765,0.519-2.969,0.318-4.156,0.208c-3.202-0.296-6.399-0.646-9.603-0.915
      c-1.683-0.141-3.381-0.101-5.064-0.238c-6.055-0.492-12.106-1.036-18.162-1.526c-0.661-0.053-1.34,0.116-2.081,0.19
      c-0.111,1.948,0.687,3.387,1.687,4.603c2.149,2.613,4.465,5.089,6.711,7.621c0.484,0,0.95,0.089,1.368-0.015
      c1.945-0.487,3.84-0.405,5.826-0.045c2.355,0.427,4.803,0.744,7.175,0.585c4.512-0.303,8.892,0.467,13.316,1.009
      c3.897,0.477,7.808,0.844,11.716,1.233c1.511,0.15,3.029,0.241,4.546,0.331c4.371,0.26,8.74,0.591,13.116,0.737
      c6.169,0.206,12.342,0.335,18.514,0.358c1.948,0.007,3.913-0.347,5.838-0.708c0.724-0.136,1.523-0.616,2.004-1.18
      c2.666-3.124,5.244-6.322,8.151-9.858c-3.425-0.094-6.44-0.248-9.455-0.239c-2.496,0.008-4.992,0.31-7.487,0.297
      c-3.032-0.015-6.064-0.314-9.096-0.316c-2.137-0.002-4.272,0.316-6.412,0.422c-0.425,0.021-0.866-0.27-1.3-0.417
      c1.358-0.509,2.652-0.632,3.948-0.722c3.114-0.216,6.225-0.494,9.343-0.599c2.86-0.097,5.729,0.07,8.59-0.007
      c2.944-0.079,5.884-0.299,8.825-0.484C165.922,92.753,167.061,92.607,168.433,92.472z"/>
    <path style="fill:#FFFFFF;" d="M168.433,92.472c-1.372,0.135-2.511,0.281-3.654,0.353c-2.94,0.185-5.881,0.405-8.825,0.484
      c-2.861,0.077-5.73-0.09-8.59,0.007c-3.118,0.105-6.23,0.383-9.343,0.599c-1.296,0.09-2.591,0.213-3.948,0.722
      c0.434,0.147,0.874,0.438,1.3,0.417c2.14-0.106,4.275-0.423,6.412-0.422c3.032,0.002,6.063,0.301,9.096,0.316
      c2.495,0.012,4.991-0.289,7.487-0.297c3.015-0.009,6.031,0.144,9.455,0.239c-2.907,3.536-5.485,6.735-8.151,9.858
      c-0.482,0.564-1.28,1.044-2.004,1.18c-1.925,0.36-3.89,0.715-5.838,0.708c-6.172-0.023-12.345-0.152-18.514-0.358
      c-4.375-0.146-8.744-0.477-13.116-0.737c-1.516-0.09-3.034-0.181-4.546-0.331c-3.908-0.388-7.819-0.756-11.716-1.233
      c-4.424-0.541-8.804-1.311-13.316-1.009c-2.372,0.159-4.82-0.158-7.175-0.585c-1.985-0.36-3.88-0.442-5.826,0.045
      c-0.418,0.105-0.884,0.015-1.368,0.015c-2.247-2.531-4.562-5.007-6.711-7.621c-1-1.216-1.798-2.655-1.687-4.603
      c0.741-0.073,1.42-0.243,2.081-0.19c6.055,0.49,12.107,1.034,18.162,1.526c1.683,0.137,3.381,0.097,5.064,0.238
      c3.204,0.269,6.401,0.618,9.603,0.915c1.187,0.11,2.391,0.311,4.156-0.208c-1.774-0.992-3.139-1.157-4.514-1.236
      c-3.749-0.215-7.505-0.33-11.247-0.625c-2.932-0.231-5.845-0.691-8.77-1.016c-4.972-0.552-9.947-1.077-14.92-1.618
      c-0.263-0.029-0.521-0.104-0.87-0.176c-0.6-1.26-0.513-2.544-0.043-3.844c0.711-1.966,0.772-4,0.81-6.071
      c0.086-4.732,0.41-9.46,0.477-14.192c0.044-3.115-0.644-6.226-0.03-9.356c0.94-4.796,0.695-9.603,0.119-14.424
      c-0.188-1.573-0.029-3.188-0.029-4.976c8.35,0.649,16.499,1.31,24.652,1.898c2.139,0.154,4.295,0.132,6.441,0.103
      c6.444-0.086,12.857-0.056,19.26,1.046c4.824,0.831,9.747,1.082,14.624,1.608c4.791,0.517,9.571,1.174,14.373,1.541
      c3.385,0.258,6.799,0.168,10.2,0.171c3.849,0.003,7.698-0.075,11.547-0.091c0.6-0.002,1.201,0.142,1.889,0.23
      c0.447,2.971,0.206,5.805,0.004,8.645c-0.22,3.1-0.333,6.208-0.548,9.309c-0.124,1.779-0.326,3.554-0.55,5.323
      c-0.28,2.212-0.544,4.431-0.952,6.622c-0.502,2.698-0.246,5.388,0.257,7.997C169.936,83.714,169.115,87.888,168.433,92.472z
       M111.124,92.916c4.94,1.354,6.178,1.321,7.051-0.189C115.949,92.869,113.847,91.72,111.124,92.916z M124.505,93.574
      c-0.048,0.128-0.096,0.256-0.143,0.384c0.238,0.174,0.465,0.471,0.715,0.492c0.33,0.028,0.679-0.16,1.019-0.256
      c-0.019-0.157-0.039-0.313-0.058-0.47C125.528,93.674,125.017,93.624,124.505,93.574z"/>
    <path d="M111.124,92.916c2.723-1.196,4.825-0.047,7.051-0.189C117.302,94.237,116.064,94.27,111.124,92.916z"/>
    <path d="M124.505,93.574c0.511,0.05,1.022,0.1,1.533,0.15c0.019,0.157,0.039,0.313,0.058,0.47
      c-0.341,0.095-0.689,0.284-1.019,0.256c-0.25-0.021-0.478-0.318-0.715-0.492C124.41,93.83,124.458,93.702,124.505,93.574z"/>
    </g>
    </g>
  </defs>
</svg>
