<svg version="1.1"
   xmlns="http://www.w3.org/2000/svg" xmlns:xlink="http://www.w3.org/1999/xlink" x="0px" y="0px" viewBox="0 0 236 180.8"
   style="enable-background:new 0 0 236 180.8;display:none;" xml:space="preserve">
<style type="text/css">
  .st0{fill:#1D1D1B;}
  .st1{fill:#FFFFFF;}
  .st2{opacity:0.35;enable-background:new;}
</style>
  <defs>
    <g id="70">
    <g>
    <path style="fill:#FFFFFF;" d="M167.947,38.75c-5.93-0.074-11.82-0.141-17.71-0.226c-0.8-0.012-1.62-0.016-2.395-0.185
      c-4.678-1.015-9.444-0.401-14.153-0.815c-0.352-0.031-0.726,0.001-1.068,0.09c-2.779,0.724-5.491,0.261-8.216-0.358
      c-2.891-0.657-5.785-0.913-8.775-0.42c-2.098,0.347-4.324,0.531-6.407,0.216c-2.716-0.41-5.315-0.247-7.986,0.158
      c-1.467,0.222-3.048,0.222-4.496-0.074c-2.596-0.531-5.097-0.506-7.71-0.046c-1.793,0.316-3.704,0.008-5.559-0.09
      c-2.046-0.108-4.086-0.305-6.131-0.443c-1.51-0.102-3.134,0.151-4.509-0.327c-2.431-0.845-4.779-0.301-7.157-0.147
      c-1.064,0.069-1.955,1.263-1.427,1.796c1.34,1.353,0.162,3.072,0.987,4.497c0.371,0.641-0.022,1.733-0.092,2.618
      c-0.063,0.798-0.238,1.594-0.228,2.39c0.049,3.92,0.146,7.839,0.221,11.758c0.014,0.715,0.011,1.43,0.005,2.145
      c-0.012,1.515-0.119,3.034-0.028,4.542c0.178,2.94,0.453,5.874,0.712,8.809c0.125,1.42,0.413,2.834,0.433,4.254
      c0.03,2.138-0.088,4.28-0.184,6.419c-0.116,2.584-0.021,5.213-0.472,7.741c-0.846,4.742-1.852,9.471-3.123,14.114
      c-0.725,2.649-0.811,5.254-0.863,8.05c0.447,0.117,0.837,0.219,1.251,0.327c0.441-2.575,0.896-5.01,1.267-7.459
      c0.376-2.482,1.085-4.845,2.339-7.063c-0.094,2.936-0.187,5.872-0.278,8.728c-0.536,0.364-0.956,0.648-1.441,0.977
      c0.348,0.568,0.616,1.005,0.795,1.298c0.288,0.102,0.371,0.158,0.454,0.157c11.102-0.092,22.172-0.735,33.209-1.948
      c1.685-0.185,3.408-0.291,5.093-0.164c5.703,0.428,11.395,0.995,17.094,1.475c6.234,0.525,12.467,1.081,18.709,1.489
      c3.299,0.215,6.675,0.556,9.911,0.1c4.325-0.61,8.577-0.125,12.86-0.088c1.548,0.013,2.969,0.455,4.274,1.351
      c0.582,0.399,1.339,0.544,1.885,0.753c0.324-0.366,0.41-0.424,0.438-0.502c0.16-0.457,0.306-0.92,0.466-1.408
      c1.256,2.382,1.256,2.382,2.869,1.968c-0.254-1.573-0.51-3.144-0.759-4.715c-0.334-2.106-0.919-4.214-0.919-6.32
      c0-2.145-1.189-4.348,0.169-6.486c0.176-0.277-0.166-0.853-0.187-1.294c-0.041-0.87-0.019-1.742-0.033-2.614
      c-0.01-0.605,0.011-1.216-0.07-1.812c-0.167-1.226-0.542-2.439-0.572-3.665c-0.206-8.229-0.337-16.459-0.509-24.689
      c-0.054-2.584-0.211-5.166-0.22-7.75c-0.006-1.778,0.225-3.556,0.234-5.334c0.01-1.967-0.256-3.944-0.141-5.901
      C169.939,42.358,169.329,40.427,167.947,38.75z"/>
    <path d="M167.947,38.75c1.382,1.677,1.991,3.608,1.857,5.878c-0.115,1.957,0.151,3.934,0.141,5.901
      c-0.009,1.778-0.24,3.556-0.234,5.334c0.009,2.583,0.166,5.166,0.22,7.75c0.172,8.23,0.303,16.46,0.509,24.689
      c0.031,1.225,0.405,2.439,0.572,3.665c0.081,0.596,0.06,1.207,0.07,1.812c0.015,0.871-0.007,1.744,0.033,2.614
      c0.021,0.441,0.363,1.016,0.187,1.294c-1.358,2.138-0.169,4.341-0.169,6.486c0,2.107,0.586,4.214,0.919,6.32
      c0.249,1.571,0.506,3.142,0.759,4.715c-1.614,0.414-1.614,0.414-2.869-1.968c-0.16,0.488-0.306,0.95-0.466,1.408
      c-0.027,0.078-0.114,0.136-0.438,0.502c-0.546-0.209-1.303-0.353-1.885-0.753c-1.305-0.896-2.726-1.337-4.274-1.351
      c-4.283-0.037-8.535-0.522-12.86,0.088c-3.237,0.456-6.613,0.116-9.911-0.1c-6.242-0.408-12.475-0.964-18.709-1.489
      c-5.699-0.48-11.391-1.047-17.094-1.475c-1.685-0.127-3.408-0.021-5.093,0.164c-11.038,1.213-22.107,1.856-33.209,1.948
      c-0.083,0.001-0.166-0.055-0.454-0.157c-0.18-0.293-0.447-0.73-0.795-1.298c0.486-0.329,0.905-0.614,1.441-0.977
      c0.091-2.856,0.185-5.792,0.278-8.728c-1.255,2.218-1.963,4.581-2.339,7.063c-0.371,2.448-0.826,4.884-1.267,7.459
      c-0.413-0.108-0.804-0.21-1.251-0.327c0.052-2.796,0.138-5.402,0.863-8.05c1.271-4.643,2.277-9.373,3.123-14.114
      c0.451-2.528,0.356-5.156,0.472-7.741c0.096-2.139,0.214-4.281,0.184-6.419c-0.02-1.42-0.308-2.833-0.433-4.254
      c-0.259-2.935-0.534-5.869-0.712-8.809c-0.091-1.508,0.016-3.028,0.028-4.542c0.006-0.715,0.008-1.43-0.005-2.145
      c-0.075-3.919-0.172-7.838-0.221-11.758c-0.01-0.795,0.164-1.592,0.228-2.39c0.07-0.885,0.463-1.977,0.092-2.618
      c-0.825-1.425,0.353-3.144-0.987-4.497c-0.528-0.533,0.363-1.727,1.427-1.796c2.377-0.154,4.726-0.698,7.157,0.147
      c1.374,0.478,2.999,0.225,4.509,0.327c2.044,0.138,4.085,0.335,6.131,0.443c1.855,0.098,3.766,0.406,5.559,0.09
      c2.613-0.46,5.114-0.485,7.71,0.046c1.448,0.296,3.029,0.297,4.496,0.074c2.671-0.405,5.27-0.568,7.986-0.158
      c2.083,0.314,4.308,0.13,6.407-0.216c2.989-0.494,5.884-0.237,8.775,0.42c2.725,0.619,5.437,1.082,8.216,0.358
      c0.342-0.089,0.716-0.121,1.068-0.09c4.709,0.414,9.475-0.199,14.153,0.815c0.776,0.168,1.595,0.173,2.395,0.185
      C156.127,38.608,162.017,38.676,167.947,38.75z M167.477,41.525c-1.11-0.27-1.946-0.625-2.794-0.655
      c-3.757-0.131-7.517-0.252-11.275-0.212c-2.775,0.029-5.523,0.196-8.244-0.626c-0.907-0.274-1.954-0.116-2.937-0.105
      c-1.522,0.017-3.043,0.099-4.565,0.112c-1.864,0.016-3.731,0.058-5.59-0.037c-2.223-0.114-4.535-0.028-6.639-0.626
      c-3.904-1.111-7.755-1.01-11.689-0.507c-1.399,0.179-2.835,0.074-4.254,0.082c-2.316,0.013-4.64-0.096-6.948,0.048
      c-2.765,0.172-5.481,0.441-8.267-0.121c-1.618-0.327-3.435-0.224-5.056,0.149c-2.446,0.563-4.744,0.484-7.133-0.213
      c-1.261-0.368-2.712-0.644-3.958-0.386c-2.195,0.456-4.267,0.205-6.372-0.258c-1.611-0.355-3.176-0.388-4.337,0.298
      c-0.069,2.181-0.077,4.101-0.21,6.012c-0.086,1.241-0.525,2.471-0.515,3.703c0.086,9.919,0.301,19.834,1.34,29.713
      c0.146,1.388-0.137,2.815-0.127,4.224c0.014,2.032,0.113,4.064,0.182,6.272c2.309,0.33,4.497,0.827,6.701,0.919
      c4.199,0.176,8.409,0.07,12.611,0.188c1.864,0.052,3.72,0.363,5.58,0.557c-0.016,0.131-0.032,0.262-0.048,0.393
      c-7.868,0.244-15.737,0.488-23.642,0.733c-0.994,2.003-1.374,13.43-0.548,18.653c0.572,0.157,1.306,0.617,1.893,0.474
      c2.761-0.672,5.519-0.149,8.27-0.233c5.003-0.152,10.004-0.615,14.988-1.128c4.644-0.478,9.267-0.771,13.917-0.17
      c1.413,0.183,2.836,0.296,4.257,0.415c2.76,0.23,5.522,0.428,8.281,0.661c3.563,0.302,7.123,0.655,10.688,0.932
      c3.472,0.27,6.951,0.447,10.423,0.712c3.661,0.279,7.301,0.518,10.959-0.198c1.474-0.288,3.035-0.214,4.554-0.179
      c3.447,0.079,6.893,0.235,10.421,0.363c0.162-1.755,0.321-3.251,0.434-4.751c0.134-1.779,0.304-3.559,0.322-5.341
      c0.024-2.445,0.857-4.964-0.377-7.147c-3.821-0.158-7.469-0.262-11.112-0.473c-4.015-0.232-8.022-0.609-12.037-0.84
      c-5.888-0.34-11.78-0.613-17.67-0.903c-1.785-0.088-3.573-0.114-5.358-0.203c-5.084-0.254-10.166-0.55-15.251-0.775
      c-1.465-0.065-2.873-0.268-4.244-0.857c3.645-0.245,7.263-0.26,10.878-0.155c5.087,0.148,10.17,0.427,15.257,0.571
      c3.219,0.091,6.449-0.098,9.66,0.085c4.63,0.264,9.247,0.754,13.869,1.145c2.581,0.218,5.162,0.442,7.744,0.646
      c2.96,0.234,5.84-0.065,8.842-1.294C168.062,74.719,167.773,58.304,167.477,41.525z"/>
    <path style="fill:#FFFFFF;" d="M167.477,41.525c0.296,16.78,0.585,33.194,0.876,49.669c-3.001,1.229-5.882,1.528-8.842,1.294
      c-2.582-0.204-5.163-0.428-7.744-0.646c-4.623-0.391-9.24-0.881-13.869-1.145c-3.211-0.183-6.442,0.006-9.66-0.085
      c-5.087-0.144-10.17-0.423-15.257-0.571c-3.614-0.105-7.232-0.09-10.878,0.155c1.371,0.589,2.779,0.792,4.244,0.857
      c5.085,0.224,10.167,0.521,15.251,0.775c1.785,0.089,3.573,0.116,5.358,0.203c5.891,0.289,11.782,0.563,17.67,0.903
      c4.015,0.232,8.022,0.608,12.037,0.84c3.643,0.211,7.291,0.315,11.112,0.473c1.234,2.183,0.401,4.702,0.377,7.147
      c-0.017,1.781-0.188,3.562-0.322,5.341c-0.113,1.5-0.271,2.996-0.434,4.751c-3.528-0.128-6.974-0.284-10.421-0.363
      c-1.519-0.035-3.08-0.109-4.554,0.179c-3.658,0.716-7.298,0.477-10.959,0.198c-3.472-0.264-6.952-0.441-10.423-0.712
      c-3.565-0.277-7.124-0.63-10.688-0.932c-2.759-0.234-5.522-0.432-8.281-0.661c-1.421-0.118-2.844-0.232-4.257-0.415
      c-4.649-0.601-9.273-0.308-13.917,0.17c-4.983,0.513-9.984,0.976-14.988,1.128c-2.752,0.084-5.509-0.439-8.27,0.233
      c-0.587,0.143-1.321-0.317-1.893-0.474c-0.826-5.222-0.447-16.65,0.548-18.653c7.905-0.245,15.774-0.489,23.642-0.733
      c0.016-0.131,0.032-0.262,0.048-0.393c-1.86-0.194-3.716-0.505-5.58-0.557c-4.202-0.118-8.412-0.011-12.611-0.188
      c-2.204-0.093-4.391-0.589-6.701-0.919c-0.069-2.208-0.168-4.24-0.182-6.272c-0.01-1.408,0.273-2.836,0.127-4.224
      c-1.039-9.879-1.254-19.794-1.34-29.713c-0.011-1.232,0.429-2.462,0.515-3.703c0.133-1.911,0.141-3.831,0.21-6.012
      c1.161-0.686,2.726-0.653,4.337-0.298c2.106,0.463,4.177,0.714,6.372,0.258c1.246-0.259,2.696,0.018,3.958,0.386
      c2.389,0.697,4.687,0.776,7.133,0.213c1.621-0.373,3.438-0.476,5.056-0.149c2.786,0.563,5.502,0.293,8.267,0.121
      c2.308-0.144,4.631-0.034,6.948-0.048c1.419-0.008,2.855,0.096,4.254-0.082c3.934-0.502,7.784-0.604,11.689,0.507
      c2.103,0.599,4.415,0.512,6.639,0.626c1.859,0.096,3.727,0.053,5.59,0.037c1.522-0.013,3.043-0.095,4.565-0.112
      c0.983-0.011,2.03-0.169,2.937,0.105c2.722,0.822,5.469,0.655,8.244,0.626c3.757-0.04,7.518,0.081,11.275,0.212
      C165.531,40.9,166.367,41.254,167.477,41.525z"/>
    </g>
    </g>
  </defs>
</svg>
