<?xml version="1.0" encoding="UTF-8" standalone="no"?>
<svg width="96px" height="32px" viewBox="0 0 96 32" version="1.1" xmlns="http://www.w3.org/2000/svg" xmlns:xlink="http://www.w3.org/1999/xlink">
    <!-- Generator: Sketch 39.1 (31720) - http://www.bohemiancoding.com/sketch -->
    <title>impressum</title>
    <desc>Created with Sketch.</desc>
    <defs></defs>
    <g id="Page-1" stroke="none" stroke-width="1" fill="none" fill-rule="evenodd">
        <g id="Desktop-HD-Copy-2" transform="translate(-1197.000000, -952.000000)">
            <g id="impressum" transform="translate(1183.000000, 941.000000)">
                <g transform="translate(14.000000, 11.000000)" fill="#1D1C1B">
                    <g id="Group-3" transform="translate(78.763509, 3.269908)">
                        <path d="M13.6169885,4.44090392 C12.5034355,5.069654 11.6275309,5.26384679 11.3464267,5.78124157 C10.648419,7.06590156 9.84313005,8.47821276 9.76979851,9.87558605 C9.63943132,12.3335507 9.92732553,14.8295392 10.2233677,17.2875039 C10.5099039,19.674853 10.4841021,19.8038622 7.63367782,19.9831171 C7.4775088,15.1106434 7.32269776,10.2259479 7.14751685,4.72608215 C4.05129615,6.82553706 3.49316163,9.4831265 3.39131226,12.0307186 C3.29082089,14.5606569 3.92364495,17.1177549 4.26721681,19.9260814 C3.3057588,19.8758357 2.50590178,19.833738 1.69653883,19.7902823 C1.57024561,19.3068373 1.44938437,19.0121531 1.42222454,18.710679 C1.00260515,14.0921498 0.6739712,9.46411462 0.15250245,4.85916532 C-0.0987259847,2.65242907 -0.185637443,2.46638423 1.92875538,0.933211784 C2.21800758,2.42700247 2.46923601,3.7225264 2.75034026,5.17693534 C5.21645289,4.4612738 4.66375033,0.694205273 7.89033822,0.474210645 C8.28551376,1.49813626 8.72142904,2.6307012 9.2266019,3.93980505 C10.3102791,3.27710518 11.3314888,2.53699979 12.4491158,1.99380317 C14.4494373,1.02283923 16.0206336,2.14318224 16.1469268,4.38658426 C16.3628474,8.25142817 16.6955553,12.1094821 16.9685116,15.9702521 C17.0065354,16.5025847 17.1735684,17.1544207 16.9399938,17.5468802 C16.6004959,18.1185947 15.950018,18.5042643 15.4326232,18.9686974 C14.993992,18.4390807 14.1982089,17.9216859 14.180555,17.3798473 C14.1099395,15.2192827 14.4019076,13.0478543 14.3299341,10.8872897 C14.2620345,8.8883262 13.9021668,6.9002266 13.6169885,4.44090392" id="Fill-1"></path>
                    </g>
                    <path d="M13.9511903,25.4038119 C13.3414521,24.263099 12.7656636,23.619411 12.6651723,22.9078234 C12.4560416,21.4153907 12.5728288,19.8808603 12.4180178,18.3775637 C12.1355556,15.6344208 11.752602,12.9007838 11.3805123,9.91863438 C8.99995311,11.0362614 8.1987381,12.2788237 8.82205622,14.477412 C9.31772313,16.2265051 9.39377065,18.0937434 9.65586302,19.9066621 C9.68709683,20.1212248 9.83240192,20.409119 9.74277448,20.5367702 C9.30006924,21.1750262 8.88588182,22.1568541 8.29243952,22.2967272 C7.20333031,22.5547456 6.94938589,21.5878557 6.91272012,20.6209657 C6.8027228,17.7121478 6.71852733,14.799256 6.48631077,11.8972281 C6.37631346,10.5147927 6.11557909,9.0984075 5.64299803,7.79880959 C4.74808161,5.33541295 5.10115941,4.83567206 8.25577375,4.93208946 C8.40243683,5.70207066 8.55724787,6.51958157 8.75551463,7.56659304 C10.4951018,6.52365554 12.3759201,5.05159272 13.672802,8.054112 C14.7849971,7.67794835 15.764109,7.25153901 16.7853186,7.02203844 C18.9214393,6.54130943 20.40165,7.49597748 20.7995416,9.65518403 C21.052128,11.0240395 21.1023737,12.4309187 21.2218769,13.8215021 C21.4608834,16.6053847 21.6835941,19.3919833 21.9171686,22.175866 C21.9538344,22.6063493 22.2104948,23.1617678 22.0285239,23.4347241 C21.6523603,24.0010066 21.1145956,24.6297567 20.5157213,24.8117276 C20.1857294,24.9135769 19.3627865,24.2508771 19.1794577,23.771506 C18.9255132,23.1115222 19.0694604,22.3008012 19.0368686,21.5539059 C18.8969954,18.3150961 18.8426758,15.0667803 18.5493496,11.8401924 C18.478734,11.0552733 17.7481346,9.87517865 17.0976566,9.69863975 C15.9284259,9.38222773 15.2372082,10.4115853 14.8270948,11.5237804 C13.8439089,14.1908758 14.6777157,16.8403172 14.8664765,19.4884007 C14.9914118,21.2578637 15.8781802,23.0626345 13.9511903,25.4038119" id="Fill-4"></path>
                    <path d="M26.866912,21.7991591 C26.6360534,17.2498875 25.3948491,12.8812287 26.1906322,7.64888733 C29.581537,10.8483154 29.5054895,14.4809427 29.6440046,17.8990074 C29.7064723,19.409094 29.6073389,21.4922531 26.866912,21.7991591 M30.2007812,8.04134688 C29.5245014,6.13608476 27.5241799,5.65671375 25.6542255,5.41091728 C23.6932857,5.15289889 23.5411907,6.77841475 23.011574,8.02912496 C22.8160232,8.48948409 22.4344276,8.87107971 22.4982532,8.78009428 C23.1487311,10.6242468 23.8847625,11.9292767 24.0395736,13.2994901 C24.4768469,17.164334 24.6778296,21.0563378 24.9670818,24.9388356 C25.1042389,26.7680502 25.1354727,28.6122027 25.423367,30.4169734 C25.5062044,30.9330102 26.3182834,31.3336177 26.7962964,31.7871869 C27.1955459,31.3512716 27.8351599,30.964244 27.9356513,30.4672191 C28.0795984,29.7624215 27.8650357,28.9693545 27.7360265,28.2251751 C27.502452,26.8766895 27.2199898,25.5363518 26.9470335,24.1349046 C29.2950008,23.2277662 31.3265562,22.1916187 31.7366696,19.8110595 C32.4333193,15.7683187 31.5411188,11.8206373 30.2007812,8.04134688" id="Fill-6"></path>
                    <path d="M75.4645403,21.1266817 C75.1426963,21.3819841 74.9322076,21.566671 74.704065,21.725556 C72.7023855,23.1134233 71.8726527,23.0414498 71.011686,20.8754533 C69.9375147,18.1730501 69.1077819,15.3620077 68.3608865,12.5482492 C67.808184,10.4732381 67.5420177,8.32217953 67.1767179,6.19963876 C66.9621553,4.94757056 67.7253465,3.69686036 68.7003844,3.79056178 C69.9904764,3.91278101 70.0760299,4.8932509 70.0814618,5.9524843 C70.1154116,12.252207 70.2973825,12.9420667 73.1899045,18.6116814 C74.9838113,16.0410034 75.1467703,15.1569509 74.7760386,12.5604711 C74.4704905,10.4229924 74.3143214,8.26106991 74.1703743,6.10457935 C74.1092647,5.19065105 74.2002502,5.18521908 76.2127936,4.23326702 C76.4463682,4.92041073 76.9800588,5.65101018 76.8442597,6.22272462 C75.825766,10.5370637 77.1579557,14.5811625 78.0922539,18.676865 C78.3081746,19.6179531 78.556687,20.5536093 78.7590277,21.4987714 C79.0265521,22.7508396 78.5892788,23.7543954 77.3263467,23.9988338 C75.983293,24.2568522 75.7429285,23.2424325 75.7252747,22.1546813 C75.7198427,21.8572812 75.5799696,21.561239 75.4645403,21.1266817" id="Fill-8"></path>
                    <path d="M47.4791865,9.1940101 C47.6502934,9.1301845 48.2396618,10.1839859 49.0232229,11.2500093 C47.4384467,11.3722285 46.4566189,11.448276 45.473433,11.5229656 C45.3308439,11.2309974 45.1882548,10.9376712 45.0456657,10.6457031 C45.8455227,10.1323823 46.6087139,9.51857008 47.4791865,9.1940101 M47.6462194,19.9859688 C45.7355254,19.0231528 45.6676258,16.6113599 45.1108493,14.340798 C46.3629174,14.0053741 47.4533847,13.6197045 48.5764437,13.4377337 C49.6818488,13.2584788 50.8225617,13.2842806 51.7880936,13.2299609 C52.6843681,10.9308813 51.0004585,9.88251181 50.3486226,8.50550839 C49.7062926,7.15294882 48.4800263,6.35037582 46.910188,6.6912317 C45.154305,7.07282732 43.3699041,7.92836199 43.1634894,9.81597022 C42.8525093,12.6704684 42.4546178,15.5616324 43.5138512,18.4541544 C45.2656603,23.2424325 49.2717353,24.3872194 53.5955804,20.7220003 C51.2598349,20.4816358 49.1875398,20.76274 47.6462194,19.9859688" id="Fill-10"></path>
                    <path d="M34.8065453,4.29043846 C35.325298,5.20300877 35.7286215,5.91459634 36.1618208,6.67778758 C38.1730063,6.23236636 40.2222155,5.36053579 42.8254853,6.76334105 C42.06501,7.37036326 41.6358847,7.94750967 41.0967621,8.08195083 C40.3973964,8.25577375 39.5948234,7.97059552 38.862866,8.07244489 C37.0743911,8.32367332 36.1577469,9.21179979 35.9825659,11.0206445 C35.8712106,12.1830853 35.975776,13.3862658 36.140093,14.5500645 C36.4089753,16.4594006 36.8611865,18.3442929 37.1341428,20.253629 C37.412531,22.2009888 37.2251282,22.3164181 35.0604897,22.168397 C34.3013724,17.1356804 33.5952168,12.1491355 32.770916,7.18160244 C32.5183295,5.65657795 33.2978167,5.04140778 34.8065453,4.29043846" id="Fill-12"></path>
                    <path d="M62.7598505,22.8884042 C63.0124369,22.597794 63.2310735,22.267802 63.5216837,22.0220056 C65.2911467,20.5282149 65.4187979,18.6759144 64.5170915,16.7448504 C63.793282,15.1953821 62.8521939,13.7464051 61.9803633,12.2689103 C61.3787731,11.2490587 60.5612622,10.3229085 60.1416428,9.23923122 C59.2752442,7.00126117 60.6522476,4.33959775 62.6851609,4.18886069 C63.2351475,4.14676296 64.0866082,4.42515122 64.3079608,4.82711672 C64.5035116,5.18155251 64.1504338,6.03165521 63.790566,6.44720062 C63.4130444,6.88175791 62.7394806,7.05829681 61.8825879,7.51458197 C62.7367646,8.93232513 63.482302,10.2006892 64.2590731,11.4500414 C65.5776829,13.5671502 66.7279017,15.684259 66.8881447,18.3092567 C67.0144379,20.4019216 65.9959443,21.8088009 64.7846158,23.1640764 C64.4682038,23.5171542 63.6167431,23.392219 63.0110789,23.4872784 C62.9268834,23.2876537 62.8440459,23.0880289 62.7598505,22.8884042" id="Fill-14"></path>
                    <path d="M56.8108969,6.32403079 C57.9366719,9.45420128 58.887266,12.4173388 60.0755086,15.281343 C60.7925281,17.0059922 60.9473392,18.649162 60.2221717,20.3099856 C59.3883649,22.2193217 57.5686562,22.5669676 56.0653596,21.1274965 C56.8774385,20.5177583 58.1539506,20.0451773 58.3630813,19.280628 C58.6428275,18.2607764 58.251726,16.9584625 57.8674143,15.8775012 C57.0037317,13.4358325 55.9431403,11.0661372 55.0074842,8.6489123 C54.0039284,6.05786444 54.8363772,3.95569355 57.119161,3.51027232 C57.6949494,3.39891702 58.728381,3.68273725 58.9470176,4.10099864 C59.4100927,4.98097716 58.6591234,5.40195453 57.8198846,5.60701125 C57.5374224,5.67491083 57.3092798,5.95873106 56.8108969,6.32403079" id="Fill-16"></path>
                    <path d="M4.82182055,23.2622592 C2.47792716,23.6805206 1.7649816,23.3804045 1.99040819,21.9572294 C2.73594555,17.2572206 1.10363972,12.7799226 0.894509025,8.17904722 C0.868707186,7.59646886 0.929816805,6.79932782 1.28968456,6.46526191 C1.67535416,6.10811013 2.56891259,5.93021324 3.03877766,6.13662795 C3.48419889,6.33082074 4.04097542,7.24882302 3.91060823,7.63313463 C2.86223876,10.7144174 4.25825406,13.5906435 4.48368066,16.556497 C4.65614558,18.799899 4.71453922,21.052807 4.82182055,23.2622592" id="Fill-18"></path>
                    <path d="M0,0.698550846 C1.48292676,-0.322658789 2.53401221,-0.27920306 3.07313485,1.19421776 C3.19535409,1.52692568 2.61141772,2.44900194 2.18093441,2.59566502 C0.236290527,3.26108088 0.646403971,1.53778962 0,0.698550846" id="Fill-20"></path>
                </g>
                <rect id="Rectangle" x="0" y="0" width="122" height="49"></rect>
            </g>
        </g>
    </g>
</svg>