<?xml version="1.0" encoding="UTF-8" standalone="no"?>
<svg width="75px" height="30px" viewBox="0 0 75 30" version="1.1" xmlns="http://www.w3.org/2000/svg" xmlns:xlink="http://www.w3.org/1999/xlink">
    <!-- Generator: Sketch 39.1 (31720) - http://www.bohemiancoding.com/sketch -->
    <title>kontakt</title>
    <desc>Created with Sketch.</desc>
    <defs>
        <polygon id="path-1" points="13.5717692 24.4438477 0 24.4438477 0 0.697441607 13.5717692 0.697441607"></polygon>
        <polygon id="path-3" points="10.8503524 27.4324974 10.8503524 1.0269132 0.704797607 1.0269132 0.704797607 27.4324974 10.8503524 27.4324974"></polygon>
    </defs>
    <g id="Page-1" stroke="none" stroke-width="1" fill="none" fill-rule="evenodd">
        <g id="Desktop-HD" transform="translate(-1318.000000, -947.000000)">
            <g id="kontakt" transform="translate(1305.000000, 941.000000)">
                <g transform="translate(13.000000, 5.000000)">
                    <g id="Group-3" transform="translate(0.000000, 5.763316)">
                        <mask id="mask-2" fill="white">
                            <use xlink:href="#path-1"></use>
                        </mask>
                        <g id="Clip-2"></g>
                        <path d="M2.59091205,0.911076522 L2.59091205,11.1761345 C5.27430333,9.33605601 5.17516995,5.70478665 8.28904454,5.17109597 C9.21791075,6.2262554 8.89742475,6.96500279 8.08941978,7.76350181 C7.25561298,8.58780268 6.43538609,9.46913918 5.80392003,10.4509671 C4.22729185,12.8980678 4.3956828,13.7332326 6.79796983,15.5597312 C8.68286208,16.9937703 10.6723197,18.2920102 12.5585699,19.7260493 C13.033867,20.087275 13.5322499,20.7200991 13.5702736,21.2592217 C13.6028654,21.7399507 13.0963346,22.5859794 12.6807892,22.6919028 C12.0859889,22.8439978 10.9928057,22.6891868 10.7442932,22.2817893 C9.09161754,19.5617323 6.22353941,18.4739811 3.41657091,16.885131 C3.81310444,18.5337327 4.12001052,20.2094942 4.63197333,21.8200722 C5.02579088,23.0585605 4.97554519,24.0268085 3.59854177,24.3649483 C2.22697032,24.7003723 1.68105772,23.9480449 1.58056635,22.5886954 C1.08218346,15.8150336 0.495531112,9.04680382 0.00801215007,2.27314203 C-0.0951952067,0.82959703 0.782067326,0.384175806 2.59091205,0.911076522" id="Fill-1" fill="#1D1C1B" mask="url(#mask-2)"></path>
                    </g>
                    <path d="M61.5759534,25.2111129 C61.5066959,21.5771275 58.9333019,20.5043142 55.865599,19.2726159 C56.1371973,20.542338 56.3300321,21.4481183 56.5228669,22.3552567 C56.7021218,23.1999274 56.9764361,24.0378082 57.0348297,24.8906269 C57.1135932,26.0150439 56.9587822,27.2073604 55.4840034,27.2508162 C54.1898375,27.2888399 54.0228045,26.2051627 53.9168812,25.2002489 C53.2215895,18.6560877 52.5385198,12.1105685 51.8269322,5.5677653 C51.700639,4.40260856 51.6463193,4.40532454 53.4388681,2.95634757 C54.6990843,6.69489827 54.741182,10.5380143 55.3237604,14.914821 C56.2662065,13.8773155 56.8515009,13.2037517 57.470745,12.5614217 C57.9840658,12.029089 58.4607208,11.3473773 59.0989769,11.0866429 C59.5403241,10.90603 60.4963502,11.1572585 60.7339987,11.5293481 C60.9648572,11.8919319 60.6077055,12.6591971 60.4420305,13.2309115 C60.3945008,13.3911545 60.1120386,13.483498 59.9368576,13.6057172 C57.0293978,15.6576424 57.0131019,16.6462603 59.8893279,18.7525051 C61.1033724,19.6406316 62.2766771,20.6306074 63.6047928,21.3055292 C64.7699495,21.8976135 65.8916505,22.4829079 65.4190695,23.8979351 C64.8813048,25.515303 63.4866475,25.7203597 61.5759534,25.2111129" id="Fill-4" fill="#1D1C1B"></path>
                    <path d="M21.6758535,13.2884904 C22.4268228,12.227899 23.5023521,11.6955663 24.7924441,13.3808338 C25.4076142,12.7968974 25.8747633,12.1545674 26.5035134,11.7946997 C28.2390266,10.8033659 30.0397234,11.7268001 30.262434,13.7434175 C30.5734141,16.5395221 30.7173612,19.3546386 31.0242672,22.1507431 C31.2333979,24.0682272 31.5986977,25.9680574 31.9069617,27.9670209 C30.9400718,29.0479822 29.9079982,28.7804578 28.6355601,28.0715862 C29.454429,23.4258972 28.9397502,18.9255132 27.368554,14.4183393 C26.408454,16.5992737 24.1012264,18.1107183 24.8155299,20.9516366 C25.2079895,22.5106109 25.3505786,24.1334108 25.5705732,25.7331248 C25.7090884,26.7326066 25.7769879,27.8909734 24.4692421,28.0376365 C23.0813747,28.1938055 23.1777921,27.0734625 23.0800168,26.0441049 C22.6943472,21.9905001 22.1986802,17.9491173 21.6758535,13.2884904" id="Fill-6" fill="#1D1C1B"></path>
                    <g id="Group-10" transform="translate(63.825602, 0.331350)">
                        <mask id="mask-4" fill="white">
                            <use xlink:href="#path-3"></use>
                        </mask>
                        <g id="Clip-9"></g>
                        <path d="M0.704797607,2.53699979 C1.20725448,2.06849271 1.56983822,1.66245324 2.00439551,1.35554715 C2.24747599,1.18444022 2.60870174,1.18036624 3.208934,1.0269132 C4.60630729,3.75376021 2.71734106,6.81738911 4.07804858,9.66917134 C5.09382625,9.88237601 6.23861312,10.1227405 7.34673421,10.3549571 C7.59932064,12.8903273 7.59932064,12.8903273 4.67013289,13.6317906 C4.85074577,17.3676254 5.21604549,21.0613623 7.30599447,24.5812764 C8.5200389,23.7800614 9.626802,23.0508199 10.8462784,22.245531 C10.9766456,24.7876911 8.22263875,27.8037903 6.25626701,27.3950349 C5.68726855,27.2768896 5.02864266,26.5259203 4.82494393,25.92433 C4.09977645,23.7882093 3.29720345,21.6262868 2.99301335,19.4100446 C2.36018929,14.8173173 2.05735718,10.1797762 1.55082633,5.56939489 C1.44761898,4.62830675 1.04429549,3.72116841 0.704797607,2.53699979" id="Fill-8" fill="#1D1C1B" mask="url(#mask-4)"></path>
                    </g>
                    <path d="M37.4697025,25.7218535 C38.2328937,25.476057 38.8942356,25.2628524 39.7131045,24.998044 C40.3187687,26.8584924 39.6587848,27.9408117 38.1337603,28.4296886 C36.741819,28.8751098 35.4924668,28.5586978 35.1095132,26.8965162 C34.3816297,23.7446178 33.7202878,20.5791395 33.0087003,17.4231672 C32.73846,16.2267767 32.40711,15.042608 32.1789674,14.1476916 C32.4519237,12.6579749 32.8117915,11.3705989 32.890555,10.0655691 C32.9747505,8.66547979 32.8172235,7.24909462 32.7194481,5.84221539 C32.6393266,4.69607053 33.0765999,3.77399428 34.2390406,3.86905369 C35.3580256,3.96139711 35.1556849,4.91742315 35.0945753,5.87752317 C34.9370483,8.34770977 35.0416136,10.8341923 35.0416136,13.7905399 C36.4620728,13.3383287 37.708709,12.9417951 38.9526292,12.5466196 C39.4333582,14.5211393 39.3192869,14.6229887 35.0742054,15.857403 C35.1991406,19.2822576 36.1524507,22.5332894 37.4697025,25.7218535" id="Fill-11" fill="#1D1C1B"></path>
                    <path d="M17.8827115,23.4326872 C15.0553732,21.0032403 14.3342797,18.4067605 14.2432942,15.280664 C16.9837212,14.7782071 17.5377817,14.9072163 17.8202439,16.8409962 C18.1054222,18.7910721 17.8827115,20.8144795 17.8827115,23.4326872 M19.2176172,14.5106828 C18.8428116,12.6027047 16.8139722,12.9109687 15.6909132,11.9929665 C15.4532647,11.7987737 15.1259887,11.7132202 14.6629136,11.4945836 C12.673456,13.3170082 12.3380321,14.0706935 12.2293928,16.0221273 C12.0161881,19.8652434 14.1903326,22.816159 15.9462156,25.8865779 C16.6347173,27.0911164 18.5019557,26.8629738 19.0831761,25.4968343 C19.7064942,24.0274875 20.2795666,22.3856757 20.2551228,20.8280594 C20.221173,18.7163826 19.6304467,16.6074217 19.2176172,14.5106828" id="Fill-13" fill="#1D1C1B"></path>
                    <path d="M48.2871915,23.4047125 C48.2097859,24.1054362 47.5090623,25.1565216 46.916978,25.2923208 C45.8333007,25.5421912 44.9193724,24.8767754 44.4617293,23.6898908 C43.547801,21.3201955 44.991346,18.8758108 48.352375,17.9034888 C48.352375,19.8196149 48.4813842,21.6298176 48.2871915,23.4047125 M50.446398,18.352984 C50.1069001,16.105508 49.6248131,13.8770439 49.1495161,11.6526538 C48.8684118,10.339476 47.9979393,9.58850664 46.6426637,9.48665728 C45.4001014,9.39295586 44.2322287,9.57764271 43.546443,10.7862552 C43.0779359,11.611914 42.6854764,12.4810286 42.267215,13.3175514 C44.2267968,15.4849059 44.669502,12.6684314 46.2067484,12.2270842 C46.751303,13.0432371 47.3284494,13.9082777 47.9816434,14.8860316 C44.9085085,16.0837802 43.4799014,18.2497767 42.4315319,20.6507057 C41.0069988,23.9193913 42.6800444,26.9585764 46.2271183,27.2872103 C47.9531255,27.4488113 49.7483903,26.854011 51.4214359,26.6136465 C51.0479882,23.3857007 50.8252776,20.8571204 50.446398,18.352984" id="Fill-15" fill="#1D1C1B"></path>
                </g>
                <rect id="Rectangle-Copy" x="0" y="0" width="96" height="49"></rect>
            </g>
        </g>
    </g>
</svg>
